<?xml version="1.0" encoding="UTF-8"?>
<!DOCTYPE svg PUBLIC "-//W3C//DTD SVG 1.1//EN" "http://www.w3.org/Graphics/SVG/1.1/DTD/svg11.dtd">
<svg xmlns="http://www.w3.org/2000/svg" version="1.1" width="1587px" height="2245px" style="shape-rendering:geometricPrecision; text-rendering:geometricPrecision; image-rendering:optimizeQuality; fill-rule:evenodd; clip-rule:evenodd" xmlns:xlink="http://www.w3.org/1999/xlink">
<g><path style="opacity:1" fill="#b5ccea" d="M -0.5,-0.5 C 136.5,-0.5 273.5,-0.5 410.5,-0.5C 394.622,61.7995 360.955,111.966 309.5,150C 279.491,169.588 246.491,178.755 210.5,177.5C 181.595,177.084 152.928,174.251 124.5,169C 98.2484,165.865 71.9151,164.865 45.5,166C 29.2849,168.128 13.9516,172.961 -0.5,180.5C -0.5,120.167 -0.5,59.8333 -0.5,-0.5 Z"/></g>
<g><path style="opacity:1" fill="#c3a1c1" d="M 410.5,-0.5 C 505.167,-0.5 599.833,-0.5 694.5,-0.5C 691.799,103.809 657.299,195.809 591,275.5C 562.551,308.465 528.718,334.298 489.5,353C 462.748,364.794 434.748,371.46 405.5,373C 382.819,373.702 360.153,373.369 337.5,372C 300.84,367.668 264.174,363.334 227.5,359C 198.57,355.929 169.57,354.929 140.5,356C 111.167,358.835 83.5005,367.168 57.5,381C 36.539,392.977 17.2057,407.144 -0.5,423.5C -0.5,342.5 -0.5,261.5 -0.5,180.5C 13.9516,172.961 29.2849,168.128 45.5,166C 71.9151,164.865 98.2484,165.865 124.5,169C 152.928,174.251 181.595,177.084 210.5,177.5C 246.491,178.755 279.491,169.588 309.5,150C 360.955,111.966 394.622,61.7995 410.5,-0.5 Z"/></g>
<g><path style="opacity:1" fill="#fefefe" d="M 694.5,-0.5 C 785.5,-0.5 876.5,-0.5 967.5,-0.5C 973.304,87.7781 962.137,173.778 934,257.5C 901.683,348.707 849.183,425.874 776.5,489C 710.425,543.58 634.259,570.08 548,568.5C 485.876,565.338 424.042,559.171 362.5,550C 315.996,543.738 269.329,542.071 222.5,545C 179.489,549.679 139.823,563.679 103.5,587C 64.7081,612.614 30.0414,643.114 -0.5,678.5C -0.5,593.5 -0.5,508.5 -0.5,423.5C 17.2057,407.144 36.539,392.977 57.5,381C 83.5005,367.168 111.167,358.835 140.5,356C 169.57,354.929 198.57,355.929 227.5,359C 264.174,363.334 300.84,367.668 337.5,372C 360.153,373.369 382.819,373.702 405.5,373C 434.748,371.46 462.748,364.794 489.5,353C 528.718,334.298 562.551,308.465 591,275.5C 657.299,195.809 691.799,103.809 694.5,-0.5 Z"/></g>
<g><path style="opacity:1" fill="#b5cdeb" d="M 967.5,-0.5 C 1057.17,-0.5 1146.83,-0.5 1236.5,-0.5C 1243.32,71.5148 1243.16,143.515 1236,215.5C 1217.75,367.413 1158.09,500.079 1057,613.5C 1022.82,650.621 984.317,682.121 941.5,708C 871.444,748.798 795.777,767.631 714.5,764.5C 672.335,763.56 630.335,760.393 588.5,755C 524.456,745.514 460.123,738.514 395.5,734C 297.636,724.79 209.636,749.456 131.5,808C 82.0219,847.161 38.0219,891.661 -0.5,941.5C -0.5,853.833 -0.5,766.167 -0.5,678.5C 30.0414,643.114 64.7081,612.614 103.5,587C 139.823,563.679 179.489,549.679 222.5,545C 269.329,542.071 315.996,543.738 362.5,550C 424.042,559.171 485.876,565.338 548,568.5C 634.259,570.08 710.425,543.58 776.5,489C 849.183,425.874 901.683,348.707 934,257.5C 962.137,173.778 973.304,87.7781 967.5,-0.5 Z"/></g>
<g><path style="opacity:1" fill="#fefefe" d="M 1236.5,-0.5 C 1353.17,-0.5 1469.83,-0.5 1586.5,-0.5C 1586.5,747.833 1586.5,1496.17 1586.5,2244.5C 1399.83,2244.5 1213.17,2244.5 1026.5,2244.5C 1028.1,2212.89 1025.93,2181.55 1020,2150.5C 1017.56,2138.8 1015.06,2127.14 1012.5,2115.5C 1025.27,2116.02 1037.94,2117.52 1050.5,2120C 1078.26,2122.19 1102.93,2114.52 1124.5,2097C 1137.18,2083.18 1151.52,2071.51 1167.5,2062C 1180.69,2050.81 1189.86,2036.98 1195,2020.5C 1196.67,1999.22 1197.67,1977.88 1198,1956.5C 1199.29,1948.26 1201.46,1940.26 1204.5,1932.5C 1203.99,1926.81 1200.99,1924.31 1195.5,1925C 1188.89,1927.6 1183.39,1931.77 1179,1937.5C 1173,1946.17 1167,1954.83 1161,1963.5C 1152.75,1974.42 1141.91,1981.25 1128.5,1984C 1110.11,1987.06 1091.78,1990.39 1073.5,1994C 1066.12,1996.19 1059.12,1999.19 1052.5,2003C 1035.36,2018.47 1018.53,2034.3 1002,2050.5C 999.565,2053.93 997.565,2057.6 996,2061.5C 992.162,2051.32 988.328,2041.15 984.5,2031C 999.858,2021.06 1014.02,2009.56 1027,1996.5C 1038.57,1983.7 1045.57,1968.7 1048,1951.5C 1048.05,1933.45 1048.88,1915.45 1050.5,1897.5C 1056.48,1895.2 1059.82,1890.87 1060.5,1884.5C 1076.63,1883.55 1088.46,1875.89 1096,1861.5C 1098.5,1852.34 1097.67,1843.51 1093.5,1835C 1099.2,1829.43 1102.03,1822.59 1102,1814.5C 1103.67,1813.17 1105.33,1811.83 1107,1810.5C 1109.86,1804.92 1112.53,1799.25 1115,1793.5C 1116.09,1788.48 1115.26,1783.81 1112.5,1779.5C 1123.11,1766.23 1125.27,1751.56 1119,1735.5C 1113.79,1728.48 1106.95,1723.81 1098.5,1721.5C 1099.49,1714.15 1097.15,1708.15 1091.5,1703.5C 1091.01,1693.18 1088.18,1683.51 1083,1674.5C 1080.2,1672.18 1077.03,1670.51 1073.5,1669.5C 1070.64,1652.14 1060.97,1640.3 1044.5,1634C 1036.31,1632.8 1028.64,1634.3 1021.5,1638.5C 1018.64,1635.57 1015.31,1633.41 1011.5,1632C 1003.94,1630.79 996.443,1630.63 989,1631.5C 979.843,1613.84 965.676,1607.5 946.5,1612.5C 943.4,1611.24 940.4,1609.74 937.5,1608C 935.866,1607.51 934.199,1607.34 932.5,1607.5C 933.325,1598.13 930.159,1590.47 923,1584.5C 922.667,1579.83 922.333,1575.17 922,1570.5C 919.138,1564.25 916.472,1557.91 914,1551.5C 910.502,1547.58 906.168,1545.25 901,1544.5C 900.251,1529.17 893.417,1517.34 880.5,1509C 867.353,1500.62 854.019,1500.45 840.5,1508.5C 837.615,1505.45 834.282,1502.95 830.5,1501C 821.186,1499.17 811.853,1498.67 802.5,1499.5C 794.238,1484.79 781.738,1476.45 765,1474.5C 749.888,1476.05 738.554,1483.39 731,1496.5C 716.234,1493.09 703.568,1496.76 693,1507.5C 691.007,1509.82 689.841,1512.48 689.5,1515.5C 681.817,1517.01 676.317,1521.34 673,1528.5C 654.366,1522.27 638.699,1526.6 626,1541.5C 618.943,1552.46 617.777,1563.96 622.5,1576C 608.822,1585.05 601.989,1597.89 602,1614.5C 599.513,1616.81 597.513,1619.48 596,1622.5C 582.359,1619.24 571.026,1622.91 562,1633.5C 560.991,1635.02 560.491,1636.69 560.5,1638.5C 557.984,1638.76 555.65,1639.59 553.5,1641C 550.958,1643.71 548.291,1646.21 545.5,1648.5C 523.495,1643.41 508.995,1651.41 502,1672.5C 501.277,1678.1 501.777,1683.6 503.5,1689C 490.262,1698.31 485.596,1710.81 489.5,1726.5C 487.416,1732.09 487.082,1737.75 488.5,1743.5C 474.443,1751.39 467.943,1763.39 469,1779.5C 471.463,1789.77 477.296,1797.44 486.5,1802.5C 486.038,1812.32 488.205,1821.65 493,1830.5C 496.025,1835.04 500.191,1837.7 505.5,1838.5C 506.741,1844.91 510.408,1849.41 516.5,1852C 513.598,1862.53 514.765,1872.7 520,1882.5C 522.018,1884.35 523.851,1886.35 525.5,1888.5C 524.415,1891.77 524.248,1895.11 525,1898.5C 528.865,1905.56 532.198,1912.9 535,1920.5C 538.99,1941.44 542.657,1962.44 546,1983.5C 547.041,1989.29 548.874,1994.79 551.5,2000C 537.5,2000.67 523.5,2000.67 509.5,2000C 494.088,2000.31 480.754,1995.31 469.5,1985C 461.197,1975.7 452.531,1966.7 443.5,1958C 437.804,1952.77 431.137,1950.77 423.5,1952C 421.477,1955.18 420.977,1958.68 422,1962.5C 425.47,1967.77 428.136,1973.44 430,1979.5C 433.816,1996.69 436.816,2014.03 439,2031.5C 443.558,2051.05 454.058,2066.55 470.5,2078C 482.845,2085.51 495.512,2092.51 508.5,2099C 544.49,2128.71 583.823,2133.71 626.5,2114C 633.485,2113.23 640.485,2112.73 647.5,2112.5C 656.188,2145.44 661.188,2178.94 662.5,2213C 662.266,2223.54 661.6,2234.04 660.5,2244.5C 440.167,2244.5 219.833,2244.5 -0.5,2244.5C -0.5,1810.17 -0.5,1375.83 -0.5,941.5C 38.0219,891.661 82.0219,847.161 131.5,808C 209.636,749.456 297.636,724.79 395.5,734C 460.123,738.514 524.456,745.514 588.5,755C 630.335,760.393 672.335,763.56 714.5,764.5C 795.777,767.631 871.444,748.798 941.5,708C 984.317,682.121 1022.82,650.621 1057,613.5C 1158.09,500.079 1217.75,367.413 1236,215.5C 1243.16,143.515 1243.32,71.5148 1236.5,-0.5 Z"/></g>
<g><path style="opacity:1" fill="#fbf9fb" d="M 94.5,259.5 C 95.4959,259.414 96.3292,259.748 97,260.5C 97.7644,266.733 100.931,271.067 106.5,273.5C 104.219,274.277 102.052,275.277 100,276.5C 98.3527,280.107 97.0194,283.774 96,287.5C 95,284.5 94,281.5 93,278.5C 90.4193,276.484 87.5859,274.984 84.5,274C 92.113,272.31 95.4463,267.477 94.5,259.5 Z"/></g>
<g><path style="opacity:1" fill="#fcfbfc" d="M 70.5,270.5 C 73.213,276.429 76.0463,282.429 79,288.5C 82.1793,291.006 85.6793,292.839 89.5,294C 78.2194,296.016 72.7194,302.85 73,314.5C 72,315.833 71,315.833 70,314.5C 69.6736,309.854 68.3403,305.521 66,301.5C 61.9492,298.88 57.7825,296.546 53.5,294.5C 55.9716,293.104 58.6383,292.27 61.5,292C 63.3333,290.833 64.8333,289.333 66,287.5C 67.5683,281.814 69.0683,276.147 70.5,270.5 Z"/></g>
<g><path style="opacity:1" fill="#fcfafc" d="M 97.5,299.5 C 98.1174,299.611 98.6174,299.944 99,300.5C 98.887,307.719 102.387,311.886 109.5,313C 106.99,314.09 104.49,315.257 102,316.5C 100.68,320.114 99.5129,323.781 98.5,327.5C 97.0247,321.034 93.358,316.367 87.5,313.5C 89.7812,312.723 91.9479,311.723 94,310.5C 95.8006,307.006 96.9673,303.34 97.5,299.5 Z"/></g>
<g><path style="opacity:1" fill="#fcfdfe" d="M 874.5,438.5 C 875.496,438.414 876.329,438.748 877,439.5C 878.161,448.99 882.327,456.824 889.5,463C 892.119,463.151 894.453,463.985 896.5,465.5C 887.644,465.668 882.144,470.001 880,478.5C 879.612,482.219 878.945,485.886 878,489.5C 876.286,490.925 874.953,490.592 874,488.5C 874.205,476.379 868.371,469.546 856.5,468C 855.833,467.333 855.167,466.667 854.5,466C 860.297,465.399 865.13,462.899 869,458.5C 871.521,452.005 873.354,445.338 874.5,438.5 Z"/></g>
<g><path style="opacity:1" fill="#fdfefe" d="M 827.5,460.5 C 828.822,460.33 829.989,460.663 831,461.5C 833.488,472.132 837.488,482.132 843,491.5C 848.424,497.96 855.257,501.96 863.5,503.5C 859.822,505.588 855.822,506.755 851.5,507C 842.636,510.56 837.47,517.06 836,526.5C 835.916,532.017 834.916,537.351 833,542.5C 829.55,545.226 827.55,544.226 827,539.5C 826.954,520.849 817.787,510.349 799.5,508C 796.654,507.121 795.987,505.454 797.5,503C 812.044,502.783 820.878,495.616 824,481.5C 824.761,474.407 825.927,467.407 827.5,460.5 Z"/></g>
<g><path style="opacity:1" fill="#fdfdfe" d="M 878.5,514.5 C 880.411,514.574 881.578,515.574 882,517.5C 881.806,530.137 887.972,536.803 900.5,537.5C 900.5,538.5 900.5,539.5 900.5,540.5C 890.58,540.578 884.747,545.578 883,555.5C 881.548,569.964 879.215,569.964 876,555.5C 874.587,552.339 872.92,549.339 871,546.5C 867.381,543.697 863.548,541.364 859.5,539.5C 864.533,538.55 869.033,536.55 873,533.5C 875.395,527.272 877.228,520.938 878.5,514.5 Z"/></g>
<g><path style="opacity:1" fill="#5051a0" d="M 934.5,1131.5 C 942.64,1130.28 949.973,1132.12 956.5,1137C 959.667,1140.17 962.833,1143.33 966,1146.5C 971.917,1155.33 977.583,1164.33 983,1173.5C 986.167,1176.67 989.333,1179.83 992.5,1183C 1002.96,1188.4 1013.3,1194.06 1023.5,1200C 1036.35,1211.56 1039.68,1225.39 1033.5,1241.5C 1040.33,1241.43 1047.33,1241.59 1054.5,1242C 1064.09,1243.7 1071.59,1248.54 1077,1256.5C 1080.67,1262.5 1084.33,1268.5 1088,1274.5C 1093.38,1280.21 1098.38,1286.21 1103,1292.5C 1104.67,1300.18 1103.01,1307.18 1098,1313.5C 1076.43,1339.19 1049.26,1347.86 1016.5,1339.5C 1015.94,1348.3 1011.27,1351.47 1002.5,1349C 988.19,1342.18 974.857,1333.85 962.5,1324C 954.333,1319.94 945.999,1316.28 937.5,1313C 934.28,1310.53 931.28,1307.87 928.5,1305C 914.198,1301.86 899.864,1301.69 885.5,1304.5C 886.077,1301.36 888.077,1299.86 891.5,1300C 904.181,1299.34 916.848,1299.51 929.5,1300.5C 929.739,1298.53 929.406,1296.7 928.5,1295C 914.487,1288.66 899.821,1284.83 884.5,1283.5C 884.5,1282.5 884.5,1281.5 884.5,1280.5C 890.895,1280.82 897.228,1281.65 903.5,1283C 912.276,1285.69 920.943,1288.35 929.5,1291C 907.573,1269.95 889.406,1246.12 875,1219.5C 870.012,1208.87 866.012,1197.87 863,1186.5C 862.333,1179.5 862.333,1172.5 863,1165.5C 866.094,1154.04 873.261,1149.87 884.5,1153C 890.5,1156.33 896.5,1159.67 902.5,1163C 905.432,1164.14 908.432,1164.98 911.5,1165.5C 912.945,1149.76 920.611,1138.43 934.5,1131.5 Z"/></g>
<g><path style="opacity:1" fill="#fd6740" d="M 931.5,1147.5 C 943.652,1148.31 951.319,1154.65 954.5,1166.5C 952.561,1172.38 950.061,1178.05 947,1183.5C 945.687,1187.42 944.687,1191.42 944,1195.5C 942.387,1208.49 942.053,1221.49 943,1234.5C 930.855,1217.87 922.188,1199.54 917,1179.5C 916.333,1173.17 916.333,1166.83 917,1160.5C 919.541,1153.45 924.374,1149.12 931.5,1147.5 Z"/></g>
<g><path style="opacity:1" fill="#faab37" d="M 955.5,1173.5 C 956.496,1173.41 957.329,1173.75 958,1174.5C 959.72,1184.33 963.386,1193.33 969,1201.5C 974.361,1206.26 980.528,1209.6 987.5,1211.5C 990.969,1218.17 991.969,1225.17 990.5,1232.5C 987.737,1230.2 984.57,1228.87 981,1228.5C 977.037,1229.58 973.204,1230.75 969.5,1232C 968.832,1225.33 965.832,1219.99 960.5,1216C 954.938,1214.42 950.438,1215.92 947,1220.5C 944.26,1203.71 947.093,1188.04 955.5,1173.5 Z"/></g>
<g><path style="opacity:1" fill="#fc6741" d="M 880.5,1178.5 C 884.594,1177.7 887.761,1179.04 890,1182.5C 896.341,1192.7 898.508,1203.7 896.5,1215.5C 900.663,1232.49 909.83,1246.15 924,1256.5C 927.945,1266.33 932.279,1276 937,1285.5C 938.254,1289.11 937.088,1290.61 933.5,1290C 904.109,1263.21 882.442,1231.21 868.5,1194C 870.064,1186.94 874.064,1181.77 880.5,1178.5 Z"/></g>
<g><path style="opacity:1" fill="#f9aa38" d="M 893.5,1180.5 C 898.586,1182.75 903.919,1183.75 909.5,1183.5C 910.139,1190.15 910.473,1196.81 910.5,1203.5C 906.808,1202.97 903.642,1203.97 901,1206.5C 899.81,1197.43 897.31,1188.77 893.5,1180.5 Z"/></g>
<g><path style="opacity:1" fill="#faaa37" d="M 914.5,1182.5 C 916.023,1188.57 917.857,1194.57 920,1200.5C 928.493,1216.82 937.493,1232.82 947,1248.5C 952.91,1262.56 957.41,1277.06 960.5,1292C 960.167,1293.17 959.833,1294.33 959.5,1295.5C 954.287,1293.04 948.954,1290.87 943.5,1289C 926.389,1259.5 916.389,1227.66 913.5,1193.5C 913.185,1189.63 913.518,1185.96 914.5,1182.5 Z"/></g>
<g><path style="opacity:1" fill="#ac7269" d="M 914.5,1182.5 C 913.518,1185.96 913.185,1189.63 913.5,1193.5C 912.191,1189.65 912.191,1185.65 913.5,1181.5C 914.107,1181.62 914.44,1181.96 914.5,1182.5 Z"/></g>
<g><path style="opacity:1" fill="#f7a3af" d="M 905.5,1206.5 C 908.808,1205.97 910.974,1207.31 912,1210.5C 914.285,1224.02 917.785,1237.18 922.5,1250C 913.488,1243.6 906.654,1235.1 902,1224.5C 900.543,1220.26 900.209,1215.93 901,1211.5C 902.025,1209.31 903.525,1207.65 905.5,1206.5 Z"/></g>
<g><path style="opacity:1" fill="#fa6743" d="M 991.5,1211.5 C 996.272,1212.15 1000.77,1213.48 1005,1215.5C 1007.27,1231.31 1004.27,1245.98 996,1259.5C 985.386,1270.08 976.22,1281.74 968.5,1294.5C 968.824,1290.03 970.324,1285.7 973,1281.5C 977.609,1273.89 982.609,1266.56 988,1259.5C 994.973,1243.93 996.14,1227.93 991.5,1211.5 Z"/></g>
<g><path style="opacity:1" fill="#f8a939" d="M 1008.5,1216.5 C 1020.76,1224.74 1023.42,1235.24 1016.5,1248C 1012.04,1250.3 1007.7,1252.8 1003.5,1255.5C 1003.17,1255.17 1002.83,1254.83 1002.5,1254.5C 1007.94,1242.41 1009.94,1229.74 1008.5,1216.5 Z"/></g>
<g><path style="opacity:1" fill="#fca7b1" d="M 953.5,1218.5 C 959.73,1218.21 963.563,1221.21 965,1227.5C 965.059,1232.35 965.726,1237.01 967,1241.5C 969.869,1238.3 973.035,1235.46 976.5,1233C 981.526,1231.51 985.692,1232.67 989,1236.5C 990.061,1242.72 989.394,1248.72 987,1254.5C 981.667,1262.5 976.333,1270.5 971,1278.5C 968.726,1282.71 966.726,1287.05 965,1291.5C 959.548,1274.14 953.881,1256.81 948,1239.5C 947.333,1235.17 947.333,1230.83 948,1226.5C 949.117,1223.24 950.95,1220.57 953.5,1218.5 Z"/></g>
<g><path style="opacity:1" fill="#fc6741" d="M 1033.5,1245.5 C 1043.45,1244.72 1049.95,1249.06 1053,1258.5C 1053.83,1264.48 1054.33,1270.48 1054.5,1276.5C 1034.4,1269.44 1015.4,1271.61 997.5,1283C 989.659,1288.09 981.992,1293.42 974.5,1299C 972.956,1300.19 971.289,1300.52 969.5,1300C 983.098,1272.56 1004.43,1254.39 1033.5,1245.5 Z"/></g>
<g><path style="opacity:1" fill="#fba6b1" d="M 1017.5,1276.5 C 1021.85,1276.33 1026.18,1276.5 1030.5,1277C 1036.06,1278.46 1037.89,1281.96 1036,1287.5C 1032.88,1291.45 1029.05,1294.45 1024.5,1296.5C 1023.61,1297.32 1023.28,1298.32 1023.5,1299.5C 1033.99,1298.82 1042.49,1302.49 1049,1310.5C 1051.51,1315.62 1050.34,1319.79 1045.5,1323C 1038.71,1325.19 1032.04,1324.85 1025.5,1322C 1014.91,1317.92 1004.58,1313.25 994.5,1308C 988.202,1305.84 981.869,1303.84 975.5,1302C 988.797,1292.19 1002.8,1283.69 1017.5,1276.5 Z"/></g>
<g><path style="opacity:1" fill="#faaa37" d="M 1037.5,1276.5 C 1048.16,1276.83 1056.49,1281.33 1062.5,1290C 1065.42,1291.71 1068.25,1293.54 1071,1295.5C 1071.12,1299.62 1069.78,1303.28 1067,1306.5C 1063.28,1310.72 1059.11,1314.39 1054.5,1317.5C 1053.7,1311.06 1050.7,1305.89 1045.5,1302C 1040.95,1299.6 1036.29,1297.6 1031.5,1296C 1039.64,1291.43 1041.64,1284.93 1037.5,1276.5 Z"/></g>
<g><path style="opacity:1" fill="#9da83b" d="M 936.5,1293.5 C 944.05,1292.54 951.05,1294.04 957.5,1298C 974.143,1310.66 991.476,1322.32 1009.5,1333C 1014.25,1337.12 1014.58,1341.45 1010.5,1346C 1007.07,1346.7 1003.74,1346.37 1000.5,1345C 986.16,1336.5 972.16,1327.5 958.5,1318C 951.172,1315.78 944.172,1312.78 937.5,1309C 931.362,1304.06 931.029,1298.9 936.5,1293.5 Z"/></g>
<g><path style="opacity:1" fill="#fb6742" d="M 1074.5,1299.5 C 1076.72,1299.18 1078.56,1299.84 1080,1301.5C 1089.31,1314.4 1086.81,1324.23 1072.5,1331C 1054.94,1340.41 1036.6,1342.08 1017.5,1336C 1014.54,1334.04 1011.87,1331.71 1009.5,1329C 997.628,1322.45 986.295,1315.12 975.5,1307C 981.031,1306.71 986.364,1307.71 991.5,1310C 1001.93,1315.55 1012.59,1320.55 1023.5,1325C 1036.37,1329.83 1048.04,1327.83 1058.5,1319C 1065.37,1313.74 1070.71,1307.24 1074.5,1299.5 Z"/></g>
<g><path style="opacity:1" fill="#5f512b" d="M 1026.5,2244.5 C 1025.5,2244.5 1024.5,2244.5 1023.5,2244.5C 1025.2,2206.67 1021.7,2169.34 1013,2132.5C 1003.75,2094.74 992.081,2057.74 978,2021.5C 972.577,2001.2 969.744,1980.53 969.5,1959.5C 970.419,1950.19 970.752,1940.86 970.5,1931.5C 961.894,1930.7 954.894,1927.03 949.5,1920.5C 948.522,1920.98 947.689,1921.64 947,1922.5C 944.024,1954.37 945.357,1986.04 951,2017.5C 960.194,2044.08 969.194,2070.75 978,2097.5C 990.895,2137.87 998.062,2179.21 999.5,2221.5C 998.533,2229.11 998.2,2236.78 998.5,2244.5C 997.167,2244.5 995.833,2244.5 994.5,2244.5C 997.314,2202.01 992.648,2160.35 980.5,2119.5C 974.146,2118.31 967.813,2118.48 961.5,2120C 949.016,2124.27 936.349,2127.94 923.5,2131C 903.926,2133.55 885.26,2130.55 867.5,2122C 857.096,2116.09 847.096,2109.59 837.5,2102.5C 837.167,2103.17 836.833,2103.83 836.5,2104.5C 847.182,2150.73 849.849,2197.39 844.5,2244.5C 843.167,2244.5 841.833,2244.5 840.5,2244.5C 846.013,2196.02 843.179,2148.02 832,2100.5C 824.085,2096.13 816.252,2091.63 808.5,2087C 807.668,2086.31 807.002,2086.48 806.5,2087.5C 814.909,2117.62 819.743,2148.29 821,2179.5C 820.282,2180.45 819.449,2180.62 818.5,2180C 815.817,2147.38 810.317,2115.21 802,2083.5C 800.376,2081.84 798.709,2080.18 797,2078.5C 804.761,2108.98 810.094,2139.98 813,2171.5C 814.247,2195.93 813.414,2220.26 810.5,2244.5C 809.167,2244.5 807.833,2244.5 806.5,2244.5C 813.443,2191.26 809.276,2138.93 794,2087.5C 764.74,2113.09 731.24,2120.59 693.5,2110C 688.5,2109.33 683.5,2109.33 678.5,2110C 691.109,2153.98 695.775,2198.81 692.5,2244.5C 691.5,2244.5 690.5,2244.5 689.5,2244.5C 692.156,2205.36 688.99,2166.69 680,2128.5C 676.472,2113.72 672.639,2099.06 668.5,2084.5C 657.278,2081.14 647.111,2075.81 638,2068.5C 644.367,2090.29 650.367,2112.29 656,2134.5C 664.582,2170.81 667.082,2207.48 663.5,2244.5C 662.5,2244.5 661.5,2244.5 660.5,2244.5C 661.6,2234.04 662.266,2223.54 662.5,2213C 661.188,2178.94 656.188,2145.44 647.5,2112.5C 640.485,2112.73 633.485,2113.23 626.5,2114C 583.823,2133.71 544.49,2128.71 508.5,2099C 495.512,2092.51 482.845,2085.51 470.5,2078C 454.058,2066.55 443.558,2051.05 439,2031.5C 436.816,2014.03 433.816,1996.69 430,1979.5C 428.136,1973.44 425.47,1967.77 422,1962.5C 420.977,1958.68 421.477,1955.18 423.5,1952C 431.137,1950.77 437.804,1952.77 443.5,1958C 452.531,1966.7 461.197,1975.7 469.5,1985C 480.754,1995.31 494.088,2000.31 509.5,2000C 523.5,2000.67 537.5,2000.67 551.5,2000C 548.874,1994.79 547.041,1989.29 546,1983.5C 542.657,1962.44 538.99,1941.44 535,1920.5C 532.198,1912.9 528.865,1905.56 525,1898.5C 524.248,1895.11 524.415,1891.77 525.5,1888.5C 523.851,1886.35 522.018,1884.35 520,1882.5C 514.765,1872.7 513.598,1862.53 516.5,1852C 510.408,1849.41 506.741,1844.91 505.5,1838.5C 500.191,1837.7 496.025,1835.04 493,1830.5C 488.205,1821.65 486.038,1812.32 486.5,1802.5C 477.296,1797.44 471.463,1789.77 469,1779.5C 467.943,1763.39 474.443,1751.39 488.5,1743.5C 487.082,1737.75 487.416,1732.09 489.5,1726.5C 485.596,1710.81 490.262,1698.31 503.5,1689C 501.777,1683.6 501.277,1678.1 502,1672.5C 508.995,1651.41 523.495,1643.41 545.5,1648.5C 548.291,1646.21 550.958,1643.71 553.5,1641C 555.65,1639.59 557.984,1638.76 560.5,1638.5C 560.491,1636.69 560.991,1635.02 562,1633.5C 571.026,1622.91 582.359,1619.24 596,1622.5C 597.513,1619.48 599.513,1616.81 602,1614.5C 601.989,1597.89 608.822,1585.05 622.5,1576C 617.777,1563.96 618.943,1552.46 626,1541.5C 638.699,1526.6 654.366,1522.27 673,1528.5C 676.317,1521.34 681.817,1517.01 689.5,1515.5C 689.841,1512.48 691.007,1509.82 693,1507.5C 703.568,1496.76 716.234,1493.09 731,1496.5C 738.554,1483.39 749.888,1476.05 765,1474.5C 781.738,1476.45 794.238,1484.79 802.5,1499.5C 811.853,1498.67 821.186,1499.17 830.5,1501C 834.282,1502.95 837.615,1505.45 840.5,1508.5C 854.019,1500.45 867.353,1500.62 880.5,1509C 893.417,1517.34 900.251,1529.17 901,1544.5C 906.168,1545.25 910.502,1547.58 914,1551.5C 916.472,1557.91 919.138,1564.25 922,1570.5C 922.333,1575.17 922.667,1579.83 923,1584.5C 930.159,1590.47 933.325,1598.13 932.5,1607.5C 934.199,1607.34 935.866,1607.51 937.5,1608C 940.4,1609.74 943.4,1611.24 946.5,1612.5C 965.676,1607.5 979.843,1613.84 989,1631.5C 996.443,1630.63 1003.94,1630.79 1011.5,1632C 1015.31,1633.41 1018.64,1635.57 1021.5,1638.5C 1028.64,1634.3 1036.31,1632.8 1044.5,1634C 1060.97,1640.3 1070.64,1652.14 1073.5,1669.5C 1077.03,1670.51 1080.2,1672.18 1083,1674.5C 1088.18,1683.51 1091.01,1693.18 1091.5,1703.5C 1097.15,1708.15 1099.49,1714.15 1098.5,1721.5C 1106.95,1723.81 1113.79,1728.48 1119,1735.5C 1125.27,1751.56 1123.11,1766.23 1112.5,1779.5C 1115.26,1783.81 1116.09,1788.48 1115,1793.5C 1112.53,1799.25 1109.86,1804.92 1107,1810.5C 1105.33,1811.83 1103.67,1813.17 1102,1814.5C 1102.03,1822.59 1099.2,1829.43 1093.5,1835C 1097.67,1843.51 1098.5,1852.34 1096,1861.5C 1088.46,1875.89 1076.63,1883.55 1060.5,1884.5C 1059.82,1890.87 1056.48,1895.2 1050.5,1897.5C 1048.88,1915.45 1048.05,1933.45 1048,1951.5C 1045.57,1968.7 1038.57,1983.7 1027,1996.5C 1014.02,2009.56 999.858,2021.06 984.5,2031C 988.328,2041.15 992.162,2051.32 996,2061.5C 997.565,2057.6 999.565,2053.93 1002,2050.5C 1018.53,2034.3 1035.36,2018.47 1052.5,2003C 1059.12,1999.19 1066.12,1996.19 1073.5,1994C 1091.78,1990.39 1110.11,1987.06 1128.5,1984C 1141.91,1981.25 1152.75,1974.42 1161,1963.5C 1167,1954.83 1173,1946.17 1179,1937.5C 1183.39,1931.77 1188.89,1927.6 1195.5,1925C 1200.99,1924.31 1203.99,1926.81 1204.5,1932.5C 1201.46,1940.26 1199.29,1948.26 1198,1956.5C 1197.67,1977.88 1196.67,1999.22 1195,2020.5C 1189.86,2036.98 1180.69,2050.81 1167.5,2062C 1151.52,2071.51 1137.18,2083.18 1124.5,2097C 1102.93,2114.52 1078.26,2122.19 1050.5,2120C 1037.94,2117.52 1025.27,2116.02 1012.5,2115.5C 1015.06,2127.14 1017.56,2138.8 1020,2150.5C 1025.93,2181.55 1028.1,2212.89 1026.5,2244.5 Z"/></g>
<g><path style="opacity:1" fill="#b4cce9" d="M 761.5,1478.5 C 780.065,1478.94 793.065,1487.61 800.5,1504.5C 814.686,1499.68 824.186,1504.34 829,1518.5C 829.942,1525.98 829.275,1533.31 827,1540.5C 818.33,1560.85 810.664,1581.51 804,1602.5C 798.068,1600.89 792.234,1599.06 786.5,1597C 790.332,1585.51 792.498,1573.68 793,1561.5C 793.667,1550.83 793.667,1540.17 793,1529.5C 792,1528.17 791,1528.17 790,1529.5C 790.751,1552.16 788.585,1574.49 783.5,1596.5C 775.125,1595.94 766.958,1596.94 759,1599.5C 749.048,1588.97 741.048,1576.97 735,1563.5C 731.208,1551.04 728.375,1538.37 726.5,1525.5C 724.365,1525.15 723.032,1525.98 722.5,1528C 725.565,1555.78 736.232,1580.12 754.5,1601C 750.275,1602.7 746.108,1604.53 742,1606.5C 739.719,1605.22 737.719,1603.56 736,1601.5C 724.279,1586.11 712.946,1570.45 702,1554.5C 694.588,1543.6 691.255,1531.6 692,1518.5C 693.433,1512.12 696.933,1507.29 702.5,1504C 712.712,1498.57 723.379,1497.24 734.5,1500C 739.582,1487.74 748.582,1480.57 761.5,1478.5 Z"/></g>
<g><path style="opacity:1" fill="#b4cbe9" d="M 824.5,1504.5 C 827.532,1504.1 830.532,1504.94 833.5,1507C 835.716,1509.55 838.216,1511.72 841,1513.5C 846.984,1508.43 853.984,1506.09 862,1506.5C 877.279,1508.99 888.279,1517.33 895,1531.5C 897.245,1536.7 897.912,1542.04 897,1547.5C 902.2,1548.34 906.867,1550.34 911,1553.5C 913.275,1560.33 915.942,1566.99 919,1573.5C 919.43,1576.19 919.263,1578.86 918.5,1581.5C 902.899,1578.31 888.899,1581.81 876.5,1592C 873.167,1595.33 869.833,1598.67 866.5,1602C 854.305,1606.83 842.305,1611.83 830.5,1617C 829.5,1616.17 828.5,1615.33 827.5,1614.5C 848.582,1599.08 862.582,1578.74 869.5,1553.5C 868.167,1553.5 866.833,1553.5 865.5,1553.5C 859.826,1574.01 849.16,1591.51 833.5,1606C 830.375,1609.07 826.708,1610.73 822.5,1611C 820.032,1609.78 818.032,1608.12 816.5,1606C 820.212,1594.36 824.212,1582.86 828.5,1571.5C 827.178,1571.33 826.011,1571.66 825,1572.5C 820.144,1583.23 815.978,1594.23 812.5,1605.5C 811.264,1604.75 809.93,1604.42 808.5,1604.5C 811.428,1594.88 814.261,1585.21 817,1575.5C 824.317,1561.2 829.651,1546.2 833,1530.5C 834.769,1520.21 831.936,1511.55 824.5,1504.5 Z"/></g>
<g><path style="opacity:1" fill="#b4cce9" d="M 684.5,1520.5 C 685.5,1520.5 686.5,1520.5 687.5,1520.5C 687.676,1531.54 690.51,1541.87 696,1551.5C 708.866,1571.2 722.7,1590.2 737.5,1608.5C 732.555,1611.45 727.888,1614.78 723.5,1618.5C 711.185,1604.85 696.852,1593.85 680.5,1585.5C 678.512,1586.29 678.179,1587.46 679.5,1589C 695.398,1597.07 709.065,1607.9 720.5,1621.5C 717.441,1625.23 714.774,1629.23 712.5,1633.5C 709.124,1634.71 705.791,1634.54 702.5,1633C 692.982,1628.26 683.649,1623.43 674.5,1618.5C 674.33,1619.82 674.663,1620.99 675.5,1622C 685.959,1629.4 697.292,1634.9 709.5,1638.5C 708.833,1641.17 708.167,1643.83 707.5,1646.5C 691.488,1644.83 675.488,1643 659.5,1641C 644.593,1639.44 630.593,1635.11 617.5,1628C 604.604,1616.61 603.104,1603.77 613,1589.5C 614.715,1587.24 616.548,1585.07 618.5,1583C 621.619,1581.46 624.286,1579.46 626.5,1577C 619.191,1554.96 626.191,1539.63 647.5,1531C 654.11,1529.56 660.776,1529.23 667.5,1530C 669.869,1530.54 671.869,1531.7 673.5,1533.5C 676.093,1528.24 679.759,1523.91 684.5,1520.5 Z"/></g>
<g><path style="opacity:1" fill="#b4cce9" d="M 901.5,1583.5 C 920.876,1582.21 929.876,1591.21 928.5,1610.5C 933.52,1610.12 937.853,1611.62 941.5,1615C 936.258,1618.41 932.258,1622.91 929.5,1628.5C 917.089,1625.92 906.256,1628.92 897,1637.5C 895.561,1639.27 894.561,1641.27 894,1643.5C 887.867,1645.88 883.201,1649.88 880,1655.5C 879.25,1654.87 878.416,1654.37 877.5,1654C 868.124,1652.58 859.124,1653.74 850.5,1657.5C 848.521,1651.26 847.354,1644.93 847,1638.5C 852.092,1634.7 857.592,1631.53 863.5,1629C 873.949,1625.46 884.282,1621.63 894.5,1617.5C 895.386,1616.68 895.719,1615.68 895.5,1614.5C 882.959,1617.96 870.626,1622.12 858.5,1627C 853.239,1629.54 848.406,1632.71 844,1636.5C 840.891,1631.06 837.391,1625.89 833.5,1621C 843.647,1615.17 854.314,1610.51 865.5,1607C 871.76,1602.74 877.427,1597.74 882.5,1592C 888.697,1588.56 895.031,1585.73 901.5,1583.5 Z"/></g>
<g><path style="opacity:1" fill="#f9b837" d="M 767.5,1600.5 C 787.769,1600.09 806.436,1605.26 823.5,1616C 837.25,1627.5 844.917,1642.17 846.5,1660C 835.617,1669.82 832.617,1681.65 837.5,1695.5C 829.131,1701.05 823.631,1708.71 821,1718.5C 802.596,1730.45 782.43,1735.28 760.5,1733C 738.068,1727.23 721.568,1714.06 711,1693.5C 702.222,1665.02 708.056,1640.19 728.5,1619C 740.54,1610.65 753.54,1604.48 767.5,1600.5 Z"/></g>
<g><path style="opacity:1" fill="#b4cce9" d="M 952.5,1613.5 C 969.418,1612.79 981.084,1620.13 987.5,1635.5C 1000.11,1631.25 1008.27,1635.58 1012,1648.5C 1012.51,1654.28 1011.85,1659.95 1010,1665.5C 1006.78,1675.82 1002.78,1685.82 998,1695.5C 995.987,1702.55 993.821,1709.55 991.5,1716.5C 990.833,1716.83 990.167,1717.17 989.5,1717.5C 985.189,1716.34 980.855,1715.34 976.5,1714.5C 981.256,1695.19 982.589,1675.69 980.5,1656C 980.167,1655.83 979.833,1655.67 979.5,1655.5C 978.668,1665.82 978.168,1676.15 978,1686.5C 977.167,1695.33 975.5,1704 973,1712.5C 966.125,1713.04 959.292,1714.04 952.5,1715.5C 944.527,1706.91 938.027,1697.24 933,1686.5C 929.587,1675.69 926.92,1664.69 925,1653.5C 924.586,1653.04 924.086,1652.71 923.5,1652.5C 923.282,1664.51 925.448,1676.18 930,1687.5C 935.291,1697.92 941.458,1707.76 948.5,1717C 944.942,1718.36 941.442,1719.86 938,1721.5C 922.749,1704.89 909.749,1686.56 899,1666.5C 891.473,1642.01 900.639,1630.17 926.5,1631C 927.872,1631.4 929.205,1631.9 930.5,1632.5C 935.414,1623.25 942.747,1616.91 952.5,1613.5 Z"/></g>
<g><path style="opacity:1" fill="#b4cbe8" d="M 603.5,1616.5 C 604.665,1617.5 605.332,1618.83 605.5,1620.5C 602.343,1627.25 601.676,1634.25 603.5,1641.5C 598.768,1642.71 594.934,1645.38 592,1649.5C 591.558,1647.32 590.558,1646.65 589,1647.5C 589,1649.5 589,1651.5 589,1653.5C 581.394,1662.98 578.727,1673.64 581,1685.5C 570.78,1674.06 564.613,1660.73 562.5,1645.5C 563.377,1633.78 569.71,1626.95 581.5,1625C 586.989,1624.07 592.323,1624.57 597.5,1626.5C 599.511,1623.14 601.511,1619.81 603.5,1616.5 Z"/></g>
<g><path style="opacity:1" fill="#b4cce9" d="M 607.5,1624.5 C 615.424,1631.97 624.758,1637.13 635.5,1640C 658.565,1645.13 681.898,1648.3 705.5,1649.5C 704.704,1654.15 704.037,1658.81 703.5,1663.5C 682.503,1662.77 661.503,1662.61 640.5,1663C 635.066,1664.22 630.399,1666.72 626.5,1670.5C 626.833,1671.5 627.5,1672.17 628.5,1672.5C 637.73,1667.12 647.73,1664.79 658.5,1665.5C 673.464,1666.92 688.464,1667.58 703.5,1667.5C 704.175,1673.54 704.175,1679.54 703.5,1685.5C 686.66,1693.78 668.993,1699.45 650.5,1702.5C 650.5,1703.5 650.5,1704.5 650.5,1705.5C 660.068,1704.94 669.401,1703.11 678.5,1700C 687.83,1696.39 697.163,1692.89 706.5,1689.5C 707.671,1693.49 708.505,1697.49 709,1701.5C 692.982,1715.75 676.149,1728.92 658.5,1741C 650.088,1746.36 640.921,1749.53 631,1750.5C 618.68,1749.18 611.013,1742.51 608,1730.5C 606.91,1726.38 606.077,1722.22 605.5,1718C 606.244,1714.8 606.744,1711.64 607,1708.5C 585.751,1697.75 579.751,1681.42 589,1659.5C 593.237,1651.59 599.57,1646.26 608,1643.5C 607.326,1639.77 606.826,1635.93 606.5,1632C 606.625,1629.45 606.958,1626.95 607.5,1624.5 Z"/></g>
<g><path style="opacity:1" fill="#b4cbe9" d="M 1007.5,1635.5 C 1007.74,1634.9 1008.24,1634.57 1009,1634.5C 1014.37,1635.93 1018.54,1638.93 1021.5,1643.5C 1033.26,1634.25 1044.93,1634.42 1056.5,1644C 1065.47,1651.11 1069.64,1660.27 1069,1671.5C 1073.23,1672.34 1077.06,1674.01 1080.5,1676.5C 1084.61,1684.03 1086.94,1692.03 1087.5,1700.5C 1075.55,1697.4 1064.55,1699.57 1054.5,1707C 1050.8,1711.04 1046.8,1714.7 1042.5,1718C 1033.13,1721.19 1024.13,1725.19 1015.5,1730C 1008.88,1728.98 1008.88,1727.31 1015.5,1725C 1030.49,1711.84 1040.49,1695.67 1045.5,1676.5C 1044.32,1676.28 1043.32,1676.61 1042.5,1677.5C 1037.19,1694.29 1028.19,1708.79 1015.5,1721C 1012.89,1722.89 1010.06,1724.39 1007,1725.5C 1004.35,1724.61 1002.52,1722.95 1001.5,1720.5C 1004.04,1711.21 1007.38,1702.21 1011.5,1693.5C 1011.17,1692.5 1010.5,1691.83 1009.5,1691.5C 1004.68,1700.81 1000.68,1710.48 997.5,1720.5C 996.328,1720.08 995.328,1719.41 994.5,1718.5C 998.047,1704.69 1002.88,1691.36 1009,1678.5C 1013.4,1668.59 1015.4,1658.26 1015,1647.5C 1013.89,1642.57 1011.39,1638.57 1007.5,1635.5 Z"/></g>
<g><path style="opacity:1" fill="#b4cce9" d="M 558.5,1641.5 C 558.664,1651.8 561.497,1661.47 567,1670.5C 577.729,1686.56 589.229,1702.06 601.5,1717C 597.332,1719.25 593.332,1721.75 589.5,1724.5C 578.631,1713.96 566.631,1704.96 553.5,1697.5C 551.646,1698.18 551.313,1699.18 552.5,1700.5C 565.585,1707.25 576.919,1716.25 586.5,1727.5C 583.829,1730.84 581.663,1734.5 580,1738.5C 579.275,1739.06 578.442,1739.39 577.5,1739.5C 568.115,1736.31 559.449,1731.81 551.5,1726C 550.056,1725.22 548.723,1725.39 547.5,1726.5C 556.532,1733.69 566.532,1739.35 577.5,1743.5C 576.926,1745.06 576.26,1746.56 575.5,1748C 554.93,1747.31 534.597,1744.64 514.5,1740C 491.483,1733.57 485.65,1720.07 497,1699.5C 499.756,1696.07 503.09,1693.41 507,1691.5C 501.881,1677.81 504.714,1665.97 515.5,1656C 525.784,1649.91 536.451,1649.08 547.5,1653.5C 549.829,1648.18 553.496,1644.18 558.5,1641.5 Z"/></g>
<g><path style="opacity:1" fill="#645024" d="M 715.5,1644.5 C 716.5,1644.5 717.5,1644.5 718.5,1644.5C 715.319,1653.66 714.819,1663 717,1672.5C 720.119,1682.73 724.285,1692.39 729.5,1701.5C 726.358,1701.2 724.191,1699.53 723,1696.5C 716.05,1685.48 712.217,1673.48 711.5,1660.5C 711.585,1654.83 712.919,1649.49 715.5,1644.5 Z"/></g>
<g><path style="opacity:1" fill="#b4cce9" d="M 890.5,1648.5 C 892.313,1659.31 896.147,1669.64 902,1679.5C 912.448,1694.28 923.282,1708.78 934.5,1723C 930.4,1725.47 926.566,1728.3 923,1731.5C 912.545,1719.86 900.378,1710.53 886.5,1703.5C 885.269,1704.65 885.269,1705.82 886.5,1707C 899.273,1714.1 910.606,1723.1 920.5,1734C 917.943,1736.89 915.776,1740.06 914,1743.5C 913.196,1744.8 912.029,1745.47 910.5,1745.5C 900.347,1741.59 890.68,1736.92 881.5,1731.5C 881.281,1732.68 881.614,1733.68 882.5,1734.5C 891.34,1740.92 901.007,1745.75 911.5,1749C 910.139,1750.58 909.472,1752.42 909.5,1754.5C 889.638,1753.56 869.971,1751.06 850.5,1747C 840.765,1745.06 832.932,1740.23 827,1732.5C 823.022,1723.26 824.022,1714.59 830,1706.5C 833.415,1702.58 837.249,1699.24 841.5,1696.5C 834.838,1678.66 840.171,1665.83 857.5,1658C 865.457,1655.53 873.124,1656.03 880.5,1659.5C 883.145,1655.19 886.479,1651.52 890.5,1648.5 Z"/></g>
<g><path style="opacity:1" fill="#b4cce9" d="M 1070.5,1702.5 C 1088.2,1700.2 1096.53,1707.87 1095.5,1725.5C 1111.85,1727.7 1119.85,1737.2 1119.5,1754C 1119.61,1764.1 1115.94,1772.44 1108.5,1779C 1111.88,1782.93 1113.05,1787.43 1112,1792.5C 1109.39,1797.38 1107.06,1802.38 1105,1807.5C 1103.58,1809.64 1101.75,1810.8 1099.5,1811C 1093.62,1801.14 1084.96,1795.14 1073.5,1793C 1067.83,1792.67 1062.17,1792.33 1056.5,1792C 1048.06,1787.78 1039.4,1784.12 1030.5,1781C 1029.21,1777.54 1029.21,1774.04 1030.5,1770.5C 1042.18,1771.47 1053.84,1770.97 1065.5,1769C 1070.44,1768.42 1075.11,1767.08 1079.5,1765C 1078.74,1764.06 1077.74,1763.56 1076.5,1763.5C 1061.67,1766.85 1046.67,1768.35 1031.5,1768C 1030.48,1767.48 1029.82,1766.65 1029.5,1765.5C 1028.17,1759.85 1027.33,1754.19 1027,1748.5C 1030.75,1745.37 1034.92,1742.87 1039.5,1741C 1048.58,1737.86 1057.58,1734.53 1066.5,1731C 1067.73,1729.82 1067.73,1728.65 1066.5,1727.5C 1057.87,1730.77 1049.21,1733.93 1040.5,1737C 1034.67,1739.41 1029.34,1742.58 1024.5,1746.5C 1022.08,1741.91 1019.08,1737.75 1015.5,1734C 1023.88,1728.65 1032.88,1724.65 1042.5,1722C 1046.8,1718.7 1050.8,1715.04 1054.5,1711C 1059.77,1707.87 1065.1,1705.03 1070.5,1702.5 Z"/></g>
<g><path style="opacity:1" fill="#b4cbe9" d="M 710.5,1704.5 C 713.401,1705 714.901,1706.67 715,1709.5C 706.434,1714.73 698.434,1720.73 691,1727.5C 685.664,1733.51 682.497,1740.51 681.5,1748.5C 682.833,1748.5 684.167,1748.5 685.5,1748.5C 686.779,1740.94 689.946,1734.27 695,1728.5C 702.311,1722.35 709.977,1716.68 718,1711.5C 723.077,1717.08 728.577,1722.08 734.5,1726.5C 727.17,1739.83 719.336,1752.83 711,1765.5C 703.803,1773.19 695.303,1779.02 685.5,1783C 684.663,1784.01 684.33,1785.18 684.5,1786.5C 701.37,1781.46 713.87,1771.13 722,1755.5C 727.333,1746.17 732.667,1736.83 738,1727.5C 740.748,1729.46 743.582,1731.29 746.5,1733C 737.066,1752.7 727.232,1772.2 717,1791.5C 712.488,1801.39 710.821,1811.72 712,1822.5C 712.892,1825.28 714.058,1827.95 715.5,1830.5C 714.833,1830.83 714.167,1831.17 713.5,1831.5C 708.272,1829.89 703.272,1827.72 698.5,1825C 694.596,1821.27 690.929,1817.43 687.5,1813.5C 669.863,1820.34 655.363,1816.34 644,1801.5C 639.744,1792.63 638.078,1783.3 639,1773.5C 639.914,1771.34 641.081,1769.34 642.5,1767.5C 636.805,1765.39 632.305,1761.72 629,1756.5C 628.517,1755.55 628.351,1754.55 628.5,1753.5C 640.226,1753.87 650.892,1750.7 660.5,1744C 678.216,1732.11 694.883,1718.95 710.5,1704.5 Z"/></g>
<g><path style="opacity:1" fill="#a6b6c8" d="M 598.5,1709.5 C 598.56,1708.96 598.893,1708.62 599.5,1708.5C 600.7,1709.53 602.034,1710.36 603.5,1711C 602.874,1711.75 602.374,1712.58 602,1713.5C 601.051,1711.91 599.885,1710.57 598.5,1709.5 Z"/></g>
<g><path style="opacity:1" fill="#645024" d="M 731.5,1710.5 C 736.126,1713.48 741.126,1715.98 746.5,1718C 747.337,1719.01 747.67,1720.18 747.5,1721.5C 741.175,1721.09 736.009,1718.42 732,1713.5C 731.517,1712.55 731.351,1711.55 731.5,1710.5 Z"/></g>
<g><path style="opacity:1" fill="#f9b837" d="M 959.5,1716.5 C 975.067,1716.23 989.733,1719.73 1003.5,1727C 1022.91,1741.87 1030.07,1761.37 1025,1785.5C 1021.1,1804.47 1009.93,1816.97 991.5,1823C 963.258,1834.66 939.091,1829.16 919,1806.5C 915.274,1801.71 912.607,1796.38 911,1790.5C 905.073,1764.94 912.24,1744.11 932.5,1728C 941.244,1723.26 950.244,1719.43 959.5,1716.5 Z"/></g>
<g><path style="opacity:1" fill="#f8b837" d="M 600.5,1720.5 C 602.357,1725.56 604.19,1730.9 606,1736.5C 609.586,1744.42 615.42,1749.92 623.5,1753C 625.997,1759.83 630.33,1765.16 636.5,1769C 632.32,1786.29 636.653,1800.96 649.5,1813C 651.67,1814.59 654.004,1815.92 656.5,1817C 626.048,1829.19 601.215,1822.02 582,1795.5C 571.944,1773.56 573.611,1752.56 587,1732.5C 591.099,1727.89 595.599,1723.89 600.5,1720.5 Z"/></g>
<g><path style="opacity:1" fill="#abbed4" d="M 819.5,1723.5 C 821.207,1726.29 822.54,1729.46 823.5,1733C 823.22,1734.4 822.553,1735.56 821.5,1736.5C 819.374,1733.08 817.374,1729.58 815.5,1726C 817.066,1725.39 818.4,1724.56 819.5,1723.5 Z"/></g>
<g><path style="opacity:1" fill="#b4cbe8" d="M 811.5,1727.5 C 816.136,1733.78 819.469,1740.78 821.5,1748.5C 814.841,1753.67 809.341,1760 805,1767.5C 802.252,1756.59 799.085,1745.75 795.5,1735C 801.014,1732.74 806.347,1730.24 811.5,1727.5 Z"/></g>
<g><path style="opacity:1" fill="#b4cce9" d="M 491.5,1730.5 C 497.668,1736.43 505.002,1740.59 513.5,1743C 533.545,1747.88 553.878,1750.71 574.5,1751.5C 573.207,1755.38 572.541,1759.38 572.5,1763.5C 554.504,1762.73 536.504,1762.56 518.5,1763C 514.17,1764.16 510.503,1766.33 507.5,1769.5C 508,1769.83 508.5,1770.17 509,1770.5C 512.675,1768.61 516.509,1767.11 520.5,1766C 537.835,1765.7 555.168,1765.86 572.5,1766.5C 572.887,1771.77 572.887,1776.93 572.5,1782C 557.832,1788.57 542.832,1793.74 527.5,1797.5C 544.007,1797.17 559.507,1792.84 574,1784.5C 574.97,1787.74 576.137,1790.91 577.5,1794C 562.655,1808.5 546.322,1821.17 528.5,1832C 505.896,1842.09 493.229,1834.93 490.5,1810.5C 490.614,1807.8 490.947,1805.13 491.5,1802.5C 485.986,1799.5 481.153,1795.5 477,1790.5C 468.146,1774.37 470.979,1760.54 485.5,1749C 487.659,1748.09 489.825,1747.25 492,1746.5C 491.64,1743.22 491.14,1739.88 490.5,1736.5C 490.672,1734.45 491.005,1732.45 491.5,1730.5 Z"/></g>
<g><path style="opacity:1" fill="#b4ccea" d="M 749.5,1734.5 C 754.398,1735.21 759.064,1736.54 763.5,1738.5C 755.663,1759.59 753.496,1781.25 757,1803.5C 757.473,1805.78 758.473,1807.78 760,1809.5C 760.991,1808.57 761.491,1807.4 761.5,1806C 757.692,1782.64 759.692,1759.8 767.5,1737.5C 775.844,1736.94 784.177,1736.27 792.5,1735.5C 798.494,1754.96 801.827,1774.79 802.5,1795C 807.898,1800.31 814.231,1805.31 821.5,1810C 823.174,1841.65 808.174,1855.32 776.5,1851C 767.924,1849.22 761.258,1844.72 756.5,1837.5C 751.807,1841.34 746.474,1842.84 740.5,1842C 734.779,1838.47 728.779,1835.47 722.5,1833C 719.193,1830.22 717.026,1826.72 716,1822.5C 714.617,1811.69 716.284,1801.36 721,1791.5C 726.889,1778.72 733.556,1766.39 741,1754.5C 743.938,1747.85 746.771,1741.18 749.5,1734.5 Z"/></g>
<g><path style="opacity:1" fill="#b4cce9" d="M 825.5,1736.5 C 832.11,1743.31 840.11,1747.81 849.5,1750C 867.969,1753.98 886.635,1756.64 905.5,1758C 906.428,1758.39 907.095,1759.05 907.5,1760C 906.633,1763.11 906.299,1766.27 906.5,1769.5C 888.835,1768.84 871.168,1768.68 853.5,1769C 850.405,1769.71 847.405,1770.71 844.5,1772C 842.561,1772.91 841.561,1774.41 841.5,1776.5C 846.042,1774.74 850.709,1773.24 855.5,1772C 872.199,1771.45 888.866,1771.95 905.5,1773.5C 906.259,1778.54 906.259,1783.54 905.5,1788.5C 891.898,1795.31 877.564,1799.81 862.5,1802C 861.663,1803.01 861.33,1804.18 861.5,1805.5C 877.245,1803.25 892.245,1798.59 906.5,1791.5C 907.086,1791.71 907.586,1792.04 908,1792.5C 909.354,1795.5 910.354,1798.5 911,1801.5C 899.441,1811.36 887.607,1820.86 875.5,1830C 866.397,1836.8 856.23,1840.97 845,1842.5C 835.603,1842.12 829.27,1837.45 826,1828.5C 823.285,1821.47 822.952,1814.47 825,1807.5C 810.254,1801.41 803.92,1790.41 806,1774.5C 808.145,1766.38 812.645,1759.88 819.5,1755C 821.345,1753.87 823.345,1753.37 825.5,1753.5C 825.076,1749.97 824.409,1746.47 823.5,1743C 823.875,1740.71 824.541,1738.54 825.5,1736.5 Z"/></g>
<g><path style="opacity:1" fill="#655124" d="M 583.5,1746.5 C 584.478,1746.81 585.145,1747.48 585.5,1748.5C 581.12,1760.16 581.953,1771.49 588,1782.5C 590.474,1786.77 592.641,1791.1 594.5,1795.5C 593.448,1795.65 592.448,1795.48 591.5,1795C 582.289,1782.65 578.455,1768.82 580,1753.5C 580.653,1750.86 581.82,1748.53 583.5,1746.5 Z"/></g>
<g><path style="opacity:1" fill="#685324" d="M 915.5,1753.5 C 916.5,1753.5 917.5,1753.5 918.5,1753.5C 916.592,1760.69 916.092,1768.02 917,1775.5C 919.701,1784.56 923.201,1793.22 927.5,1801.5C 925.408,1801.44 923.908,1800.44 923,1798.5C 916.806,1788.89 913.306,1778.39 912.5,1767C 912.78,1762.33 913.78,1757.83 915.5,1753.5 Z"/></g>
<g><path style="opacity:1" fill="#b4cce9" d="M 1028.5,1783.5 C 1037.71,1786.77 1046.71,1790.6 1055.5,1795C 1070.17,1793.78 1083,1797.95 1094,1807.5C 1100.11,1818.24 1098.28,1827.24 1088.5,1834.5C 1096.21,1845.05 1096.38,1855.72 1089,1866.5C 1084.76,1871.41 1079.92,1875.58 1074.5,1879C 1069.21,1881.05 1063.87,1881.88 1058.5,1881.5C 1057.91,1886.12 1055.91,1889.95 1052.5,1893C 1047.76,1894.47 1043.09,1896.14 1038.5,1898C 1035.52,1898.5 1032.52,1898.66 1029.5,1898.5C 1033.01,1880.88 1027.85,1866.21 1014,1854.5C 1010.37,1843.44 1005.87,1832.78 1000.5,1822.5C 1003.25,1820.71 1006.08,1819.04 1009,1817.5C 1014.75,1826.67 1020.75,1835.67 1027,1844.5C 1029.38,1847.22 1032.05,1849.55 1035,1851.5C 1036.26,1851.15 1036.59,1850.48 1036,1849.5C 1026.6,1839.43 1018.76,1828.26 1012.5,1816C 1015.88,1811.4 1019.38,1806.9 1023,1802.5C 1035.61,1809.28 1045.78,1818.62 1053.5,1830.5C 1054.61,1829.28 1054.78,1827.94 1054,1826.5C 1050.63,1820.13 1046.13,1814.63 1040.5,1810C 1034.83,1806.17 1029.17,1802.33 1023.5,1798.5C 1026.17,1793.82 1027.84,1788.82 1028.5,1783.5 Z"/></g>
<g><path style="opacity:1" fill="#b4cbe8" d="M 578.5,1797.5 C 580.257,1798.29 581.591,1799.63 582.5,1801.5C 571.244,1807.26 562.41,1815.59 556,1826.5C 555.265,1828.87 554.432,1831.2 553.5,1833.5C 554.289,1835.49 555.455,1835.82 557,1834.5C 558.607,1828.62 561.274,1823.29 565,1818.5C 571.082,1813.25 577.582,1808.59 584.5,1804.5C 589.207,1808.51 593.874,1812.51 598.5,1816.5C 591.835,1828.5 584.668,1840.17 577,1851.5C 571.094,1856.54 564.594,1860.71 557.5,1864C 555.875,1864.85 555.542,1865.85 556.5,1867C 565.913,1864.03 574.08,1858.86 581,1851.5C 587.877,1840.92 594.377,1830.08 600.5,1819C 603.522,1818.84 606.189,1819.84 608.5,1822C 600.748,1838.34 592.581,1854.5 584,1870.5C 578.818,1881.71 578.318,1893.04 582.5,1904.5C 578.369,1904.52 574.369,1903.35 570.5,1901C 565.978,1897.81 562.145,1893.98 559,1889.5C 555.962,1890.88 552.796,1891.88 549.5,1892.5C 545.655,1890.41 541.655,1888.58 537.5,1887C 530.372,1888.3 525.206,1885.8 522,1879.5C 517.161,1869.54 516.661,1859.54 520.5,1849.5C 515.227,1848.07 511.227,1844.91 508.5,1840C 519.449,1839.53 529.449,1836.19 538.5,1830C 552.602,1820.06 565.935,1809.23 578.5,1797.5 Z"/></g>
<g><path style="opacity:1" fill="#6d5625" d="M 596.5,1802.5 C 600.117,1805.31 604.117,1807.65 608.5,1809.5C 609.386,1810.32 609.719,1811.32 609.5,1812.5C 603.625,1811.9 598.958,1809.23 595.5,1804.5C 595.863,1803.82 596.196,1803.15 596.5,1802.5 Z"/></g>
<g><path style="opacity:1" fill="#b4cbe9" d="M 912.5,1803.5 C 914.416,1804.67 915.249,1806.33 915,1808.5C 908.823,1812.59 902.823,1816.92 897,1821.5C 891.754,1827.23 888.588,1833.89 887.5,1841.5C 888.5,1841.5 889.5,1841.5 890.5,1841.5C 892.134,1832.74 896.467,1825.57 903.5,1820C 908.419,1816.96 913.252,1813.79 918,1810.5C 922.865,1814.37 927.365,1818.53 931.5,1823C 925.466,1833.57 919.3,1844.07 913,1854.5C 906.775,1861.55 899.275,1866.88 890.5,1870.5C 889.614,1871.32 889.281,1872.32 889.5,1873.5C 898.818,1870.42 906.985,1865.42 914,1858.5C 920.931,1846.96 928.097,1835.63 935.5,1824.5C 937.882,1825.35 939.882,1826.68 941.5,1828.5C 934.342,1844.49 926.509,1860.16 918,1875.5C 913.774,1884.4 912.107,1893.73 913,1903.5C 913.598,1906.31 914.765,1908.81 916.5,1911C 906.041,1909.72 898.041,1904.55 892.5,1895.5C 877.872,1901.93 865.706,1898.93 856,1886.5C 851.094,1876.48 850.261,1866.15 853.5,1855.5C 848.378,1854.39 844.712,1851.39 842.5,1846.5C 852.721,1845.89 862.055,1842.72 870.5,1837C 885.117,1826.54 899.117,1815.37 912.5,1803.5 Z"/></g>
<g><path style="opacity:1" fill="#685324" d="M 929.5,1809.5 C 934.251,1811.73 938.918,1814.23 943.5,1817C 940.488,1818.48 937.488,1818.14 934.5,1816C 931.466,1814.81 929.799,1812.64 929.5,1809.5 Z"/></g>
<g><path style="opacity:1" fill="#b4cbe9" d="M 685.5,1817.5 C 694.222,1828.87 705.889,1835.03 720.5,1836C 727.167,1839.33 733.833,1842.67 740.5,1846C 742.899,1846.71 745.232,1846.54 747.5,1845.5C 747.833,1846.17 748.167,1846.83 748.5,1847.5C 747.469,1854.8 746.636,1862.14 746,1869.5C 739.876,1874.21 733.043,1876.04 725.5,1875C 724.142,1878.07 722.975,1881.24 722,1884.5C 721.097,1885.7 719.931,1886.53 718.5,1887C 713.628,1888.1 708.962,1889.77 704.5,1892C 701.446,1892.82 698.446,1892.65 695.5,1891.5C 698.166,1883.81 698,1876.14 695,1868.5C 691.552,1860.39 686.552,1853.39 680,1847.5C 677.086,1838.42 673.586,1829.59 669.5,1821C 672.861,1820.66 676.194,1820.16 679.5,1819.5C 684.514,1825.03 689.014,1831.03 693,1837.5C 695.714,1840.55 698.714,1843.22 702,1845.5C 703.257,1845.15 703.591,1844.48 703,1843.5C 696.276,1836.38 690.276,1828.71 685,1820.5C 684.53,1819.42 684.697,1818.42 685.5,1817.5 Z"/></g>
<g><path style="opacity:1" fill="#b4cce9" d="M 658.5,1819.5 C 661.119,1819.23 663.619,1819.56 666,1820.5C 670.258,1829.61 673.924,1838.94 677,1848.5C 685.552,1856.06 691.219,1865.39 694,1876.5C 695.591,1893.24 688.091,1901.07 671.5,1900C 668.329,1915.61 658.662,1923.11 642.5,1922.5C 631.982,1922.61 623.482,1918.61 617,1910.5C 612.969,1913.51 608.469,1914.68 603.5,1914C 599.112,1911.14 594.446,1908.81 589.5,1907C 583.134,1901.57 580.968,1894.73 583,1886.5C 583.384,1882.35 584.384,1878.35 586,1874.5C 592.219,1860.4 599.219,1846.73 607,1833.5C 608.467,1830.24 609.633,1826.91 610.5,1823.5C 614.851,1824.17 619.184,1825 623.5,1826C 616.912,1843.24 614.745,1861.07 617,1879.5C 617.133,1882.41 618.3,1884.75 620.5,1886.5C 621.238,1882.87 621.071,1879.2 620,1875.5C 618.446,1859.05 620.446,1843.05 626,1827.5C 632.88,1825.53 640.047,1824.53 647.5,1824.5C 651.955,1841.97 655.622,1859.14 658.5,1876C 659.635,1871.25 659.802,1866.42 659,1861.5C 656.953,1848.31 654.119,1835.31 650.5,1822.5C 653.542,1822.27 656.208,1821.27 658.5,1819.5 Z"/></g>
<g><path style="opacity:1" fill="#b4cce9" d="M 994.5,1824.5 C 995.978,1824.24 997.311,1824.57 998.5,1825.5C 1003.35,1835.23 1007.52,1845.23 1011,1855.5C 1018.6,1862.37 1023.94,1870.71 1027,1880.5C 1030.32,1899 1022.82,1907.33 1004.5,1905.5C 1001.84,1921.15 992.51,1928.81 976.5,1928.5C 965.663,1928.9 956.996,1924.9 950.5,1916.5C 946.318,1919.77 941.651,1920.93 936.5,1920C 932.112,1917.14 927.446,1914.81 922.5,1913C 916.833,1907.38 914.666,1900.54 916,1892.5C 917.738,1885.62 920.072,1878.95 923,1872.5C 931.054,1859.06 938.054,1845.06 944,1830.5C 944.561,1829.98 945.228,1829.64 946,1829.5C 949.402,1830.73 952.902,1831.39 956.5,1831.5C 949.288,1851.06 947.788,1871.06 952,1891.5C 953.297,1892.78 954.464,1892.62 955.5,1891C 951.079,1870.87 952.746,1851.2 960.5,1832C 966.186,1831.69 971.853,1831.19 977.5,1830.5C 978.5,1830.83 979.5,1831.17 980.5,1831.5C 986.197,1848.02 989.197,1865.02 989.5,1882.5C 990.5,1882.5 991.5,1882.5 992.5,1882.5C 992.782,1864.41 989.782,1846.91 983.5,1830C 987.304,1828.31 990.97,1826.48 994.5,1824.5 Z"/></g>
<g><path style="opacity:1" fill="#fefefd" d="M 823.5,1831.5 C 826.52,1838.18 831.52,1842.85 838.5,1845.5C 840.351,1851.35 844.017,1855.69 849.5,1858.5C 844.665,1883.54 854.665,1898.21 879.5,1902.5C 883.659,1902.13 887.659,1901.13 891.5,1899.5C 898.589,1909.38 908.256,1914.55 920.5,1915C 925.41,1917.86 930.41,1920.52 935.5,1923C 915.006,1924.95 895.673,1930.62 877.5,1940C 873.333,1943.5 869.167,1947 865,1950.5C 865.99,1942.18 867.824,1934.02 870.5,1926C 870.427,1919.93 867.427,1917.6 861.5,1919C 855.871,1921.4 851.037,1924.9 847,1929.5C 838.927,1942.47 829.761,1954.64 819.5,1966C 813.061,1971.39 805.727,1974.89 797.5,1976.5C 784.463,1937.17 780.13,1896.84 784.5,1855.5C 803.723,1857.4 816.723,1849.4 823.5,1831.5 Z"/></g>
<g><path style="opacity:1" fill="#3c8e6e" d="M 754.5,1842.5 C 761.461,1849.85 770.127,1854.18 780.5,1855.5C 777.185,1892.76 780.351,1929.43 790,1965.5C 792.569,1972.21 794.903,1978.88 797,1985.5C 788.001,1974.16 777.501,1964.66 765.5,1957C 759.757,1931.16 757.257,1905 758,1878.5C 756.989,1877.66 755.822,1877.33 754.5,1877.5C 753.676,1904.46 756.01,1931.13 761.5,1957.5C 757.962,1957.78 756.129,1956.12 756,1952.5C 749.566,1916.69 748.233,1880.69 752,1844.5C 752.995,1843.93 753.828,1843.27 754.5,1842.5 Z"/></g>
<g><path style="opacity:1" fill="#fefefd" d="M 665.5,1944.5 C 657.35,1943.51 649.017,1943.17 640.5,1943.5C 640.5,1941.83 640.5,1940.17 640.5,1938.5C 640.5,1934.17 640.5,1929.83 640.5,1925.5C 657.867,1927.34 668.867,1920 673.5,1903.5C 680.99,1904.12 687.323,1901.78 692.5,1896.5C 696.796,1895.67 701.129,1895.17 705.5,1895C 710.091,1893.14 714.757,1891.47 719.5,1890C 723.621,1887.44 726.287,1883.77 727.5,1879C 734.054,1878.87 740.054,1877.04 745.5,1873.5C 745.262,1905.19 748.429,1936.52 755,1967.5C 756.972,1971.94 758.805,1976.44 760.5,1981C 760.15,1982.26 759.483,1982.59 758.5,1982C 743.347,1970.92 727.681,1960.59 711.5,1951C 696.575,1946.1 681.241,1943.93 665.5,1944.5 Z"/></g>
<g><path style="opacity:1" fill="#3c8f6f" d="M 529.5,1889.5 C 535.355,1889.84 540.688,1891.67 545.5,1895C 557.446,1906.95 569.446,1918.95 581.5,1931C 592.256,1939.88 604.589,1945.21 618.5,1947C 641.184,1947.19 663.851,1947.86 686.5,1949C 696.65,1949.95 706.317,1952.62 715.5,1957C 731.942,1967.78 748.109,1978.94 764,1990.5C 766.984,2003.57 769.484,2016.74 771.5,2030C 771.167,2030.5 770.833,2031 770.5,2031.5C 754.293,2021.43 741.46,2008.09 732,1991.5C 727.297,1985.08 721.131,1981.08 713.5,1979.5C 713.281,1980.68 713.614,1981.68 714.5,1982.5C 719.962,1985.32 724.795,1988.98 729,1993.5C 736.348,2005.85 745.515,2016.68 756.5,2026C 738.693,2022.47 721.027,2018.13 703.5,2013C 695.676,2009.26 688.009,2005.26 680.5,2001C 670.869,1993.04 661.536,1984.7 652.5,1976C 646.724,1971.78 640.391,1968.61 633.5,1966.5C 631.512,1967.29 631.179,1968.46 632.5,1970C 639.058,1971.95 645.058,1974.95 650.5,1979C 662.162,1992.34 675.829,2003.01 691.5,2011C 675.807,2008.88 660.141,2006.22 644.5,2003C 633.663,1999.58 623.663,1994.58 614.5,1988C 605.134,1976.11 596.634,1963.61 589,1950.5C 586.5,1948 584,1945.5 581.5,1943C 580.207,1942.51 578.873,1942.34 577.5,1942.5C 581.051,1947.23 584.884,1951.9 589,1956.5C 593.772,1964.93 598.938,1973.1 604.5,1981C 590.886,1972.06 579.053,1960.9 569,1947.5C 560.736,1933.96 552.236,1920.63 543.5,1907.5C 542.242,1910.72 542.742,1913.72 545,1916.5C 552.25,1927.33 559.25,1938.33 566,1949.5C 583.771,1973.27 606.271,1991.1 633.5,2003C 616.123,2003.47 599.123,2001.14 582.5,1996C 577.119,1993.89 571.952,1991.39 567,1988.5C 565.941,1988.63 565.108,1989.13 564.5,1990C 576.382,1998.65 589.715,2003.65 604.5,2005C 641.35,2006.26 677.683,2011.26 713.5,2020C 687.624,2021.65 662.29,2026.31 637.5,2034C 628.456,2034.4 619.456,2033.9 610.5,2032.5C 610.33,2033.82 610.663,2034.99 611.5,2036C 617.494,2036.88 623.494,2037.71 629.5,2038.5C 651.969,2033.05 674.636,2028.55 697.5,2025C 723.97,2021.35 748.97,2025.68 772.5,2038C 766.577,2037.43 760.577,2037.43 754.5,2038C 741.632,2041.73 728.965,2046.07 716.5,2051C 709.987,2053.13 703.32,2054.3 696.5,2054.5C 696.5,2055.83 696.5,2057.17 696.5,2058.5C 703.302,2058.17 709.969,2057.01 716.5,2055C 731.156,2048.56 746.323,2043.73 762,2040.5C 766.212,2040.86 770.212,2041.86 774,2043.5C 776.924,2054.69 782.424,2064.35 790.5,2072.5C 781.75,2073.09 773.084,2074.25 764.5,2076C 750.839,2081.22 736.839,2085.22 722.5,2088C 695.497,2091 670.497,2085.33 647.5,2071C 630.118,2057.97 611.452,2046.97 591.5,2038C 575.901,2028.4 563.734,2015.57 555,1999.5C 552.193,1993.08 550.193,1986.41 549,1979.5C 546.169,1958.68 542.502,1938.02 538,1917.5C 535.108,1910.28 531.774,1903.28 528,1896.5C 527.167,1893.83 527.667,1891.5 529.5,1889.5 Z"/></g>
<g><path style="opacity:1" fill="#fcfcfc" d="M 556.5,1893.5 C 559.929,1896.75 563.596,1899.92 567.5,1903C 573.399,1906.45 579.733,1908.45 586.5,1909C 591.833,1911.67 597.167,1914.33 602.5,1917C 604.81,1917.5 607.143,1917.66 609.5,1917.5C 609.332,1925.52 608.832,1933.52 608,1941.5C 592.192,1935.38 578.859,1925.71 568,1912.5C 563.2,1906.7 558.033,1901.2 552.5,1896C 553.858,1895.07 555.192,1894.23 556.5,1893.5 Z"/></g>
<g><path style="opacity:1" fill="#3c8f6f" d="M 1044.5,1898.5 C 1046.09,1918.4 1045.59,1938.4 1043,1958.5C 1039.33,1972.49 1032.66,1984.83 1023,1995.5C 1011.12,2007.55 997.958,2017.88 983.5,2026.5C 980.767,2021.51 979.434,2016.34 979.5,2011C 983.823,2009.72 988.156,2008.56 992.5,2007.5C 992.5,2006.5 992.5,2005.5 992.5,2004.5C 987.374,2004.88 982.374,2005.88 977.5,2007.5C 976.315,2000.2 975.315,1992.87 974.5,1985.5C 974.833,1983.83 975.167,1982.17 975.5,1980.5C 993.045,1977.38 1009.38,1971.21 1024.5,1962C 1026.6,1959.98 1028.6,1957.98 1030.5,1956C 1030.37,1954.94 1029.87,1954.11 1029,1953.5C 1012.71,1966.32 994.208,1973.99 973.5,1976.5C 973.343,1975.13 973.51,1973.79 974,1972.5C 998.771,1954.62 1017.1,1931.62 1029,1903.5C 1034.52,1902.67 1039.68,1901 1044.5,1898.5 Z"/></g>
<g><path style="opacity:1" fill="#3d8d6d" d="M 1023.5,1904.5 C 1017.13,1922.47 1006.63,1938.14 992,1951.5C 994.32,1944.5 996.987,1937.5 1000,1930.5C 1002.88,1924.29 1006.55,1918.63 1011,1913.5C 1011.48,1912.55 1011.65,1911.55 1011.5,1910.5C 1009.89,1910.91 1008.56,1910.91 1007.5,1910.5C 1011.19,1909.75 1014.86,1908.91 1018.5,1908C 1020.58,1907.3 1022.25,1906.14 1023.5,1904.5 Z"/></g>
<g><path style="opacity:1" fill="#3d8e6e" d="M 615.5,1914.5 C 621.392,1920.78 628.725,1924.45 637.5,1925.5C 637.347,1931.85 637.014,1938.18 636.5,1944.5C 628.167,1943.83 619.833,1943.17 611.5,1942.5C 612.058,1934.51 612.558,1926.51 613,1918.5C 613.48,1916.87 614.313,1915.53 615.5,1914.5 Z"/></g>
<g><path style="opacity:1" fill="#3d8e6e" d="M 862.5,1921.5 C 866.24,1920.74 867.907,1922.24 867.5,1926C 866.441,1930.96 864.941,1935.79 863,1940.5C 862.042,1945.12 861.375,1949.79 861,1954.5C 856.833,1958.67 852.667,1962.83 848.5,1967C 847.833,1967.67 847.167,1967.67 846.5,1967C 851.158,1957.86 854.825,1948.36 857.5,1938.5C 856.5,1938.5 855.5,1938.5 854.5,1938.5C 849.904,1951.03 844.737,1963.36 839,1975.5C 833.365,1980.13 828.032,1985.13 823,1990.5C 824.336,1983.79 827.502,1977.96 832.5,1973C 831.725,1971.77 830.725,1971.44 829.5,1972C 827.212,1974.74 825.045,1977.58 823,1980.5C 820.257,1986.99 817.257,1993.32 814,1999.5C 810.484,1997.07 807.151,1994.41 804,1991.5C 802.207,1987.95 800.707,1984.29 799.5,1980.5C 811.337,1976.84 821.17,1970.17 829,1960.5C 836.279,1949.55 843.946,1938.89 852,1928.5C 855.308,1925.77 858.808,1923.44 862.5,1921.5 Z"/></g>
<g><path style="opacity:1" fill="#3c8e6e" d="M 1023.5,2244.5 C 1017.17,2244.5 1010.83,2244.5 1004.5,2244.5C 1005.34,2239.21 1005.68,2233.88 1005.5,2228.5C 1004.5,2228.5 1003.5,2228.5 1002.5,2228.5C 1002.53,2233.86 1002.19,2239.2 1001.5,2244.5C 1000.5,2244.5 999.5,2244.5 998.5,2244.5C 998.2,2236.78 998.533,2229.11 999.5,2221.5C 998.062,2179.21 990.895,2137.87 978,2097.5C 969.194,2070.75 960.194,2044.08 951,2017.5C 945.357,1986.04 944.024,1954.37 947,1922.5C 947.689,1921.64 948.522,1920.98 949.5,1920.5C 954.894,1927.03 961.894,1930.7 970.5,1931.5C 970.752,1940.86 970.419,1950.19 969.5,1959.5C 969.744,1980.53 972.577,2001.2 978,2021.5C 992.081,2057.74 1003.75,2094.74 1013,2132.5C 1021.7,2169.34 1025.2,2206.67 1023.5,2244.5 Z"/></g>
<g><path style="opacity:1" fill="#3c8f6f" d="M 935.5,1926.5 C 938.167,1926.5 940.833,1926.5 943.5,1926.5C 942.779,1935.81 942.279,1945.14 942,1954.5C 933.597,1966.9 923.764,1978.07 912.5,1988C 902.817,1995.67 892.151,2001.67 880.5,2006C 872.5,2006.67 864.5,2006.67 856.5,2006C 862.126,1996.58 867.626,1987.08 873,1977.5C 875.703,1974.46 878.703,1971.8 882,1969.5C 882.601,1968.03 882.101,1967.03 880.5,1966.5C 876.558,1968.94 873.058,1971.94 870,1975.5C 864.293,1985.75 858.46,1995.91 852.5,2006C 840.659,2007.36 829.326,2005.69 818.5,2001C 838.242,1979.92 859.242,1960.26 881.5,1942C 887.264,1938.78 893.264,1936.12 899.5,1934C 911.524,1930.95 923.524,1928.45 935.5,1926.5 Z"/></g>
<g><path style="opacity:1" fill="#3c8e6e" d="M 996.5,1925.5 C 997.239,1925.37 997.906,1925.54 998.5,1926C 994.145,1935.88 989.645,1945.71 985,1955.5C 982.247,1960.34 978.58,1964.34 974,1967.5C 973.229,1955.47 973.395,1943.47 974.5,1931.5C 981.489,1932.09 988.156,1930.93 994.5,1928C 995.381,1927.29 996.047,1926.46 996.5,1925.5 Z"/></g>
<g><path style="opacity:1" fill="#3c8f6f" d="M 1197.5,1927.5 C 1198.5,1927.41 1199.33,1927.75 1200,1928.5C 1200.17,1929.83 1200.33,1931.17 1200.5,1932.5C 1197.95,1939.98 1196.12,1947.65 1195,1955.5C 1193.96,1975.15 1193.29,1994.82 1193,2014.5C 1191.26,2024.31 1187.6,2033.31 1182,2041.5C 1175.87,2048.64 1169.37,2055.47 1162.5,2062C 1149.05,2069.77 1137.05,2079.44 1126.5,2091C 1097.62,2116.21 1064.62,2123.54 1027.5,2113C 1021.84,2112.5 1016.18,2112.33 1010.5,2112.5C 1009.54,2105.84 1007.88,2099.34 1005.5,2093C 1008.78,2088.02 1013.45,2085.02 1019.5,2084C 1022.15,2083.44 1024.82,2082.94 1027.5,2082.5C 1039.59,2084.22 1051.59,2086.38 1063.5,2089C 1069.16,2089.5 1074.82,2089.67 1080.5,2089.5C 1080.5,2088.5 1080.5,2087.5 1080.5,2086.5C 1075.16,2086.67 1069.82,2086.5 1064.5,2086C 1054.51,2084 1044.51,2082 1034.5,2080C 1028.05,2079.4 1021.72,2079.73 1015.5,2081C 1035.33,2067.37 1057.33,2060.87 1081.5,2061.5C 1096.19,2062.22 1110.85,2063.22 1125.5,2064.5C 1134.16,2064.67 1142.16,2062.67 1149.5,2058.5C 1148.67,2058.17 1147.83,2057.83 1147,2057.5C 1140.17,2059.73 1133.17,2061.07 1126,2061.5C 1105.21,2058.83 1084.38,2058 1063.5,2059C 1077.28,2053.41 1091.28,2048.41 1105.5,2044C 1123.94,2039.71 1142.28,2035.05 1160.5,2030C 1168.05,2026.98 1174.88,2022.81 1181,2017.5C 1181.75,2016.36 1181.58,2015.36 1180.5,2014.5C 1164.45,2026.35 1146.45,2033.18 1126.5,2035C 1160.01,2013.36 1181.01,1983.19 1189.5,1944.5C 1185.11,1953.62 1180.94,1962.95 1177,1972.5C 1170.33,1988.54 1160.83,2001.87 1148.5,2012.5C 1151.9,2004.46 1155.4,1996.46 1159,1988.5C 1161.17,1985.5 1163.33,1982.5 1165.5,1979.5C 1165.19,1978.69 1164.69,1978.03 1164,1977.5C 1160.85,1980.47 1158.19,1983.8 1156,1987.5C 1151.53,1998.44 1146.53,2009.11 1141,2019.5C 1131.21,2029.94 1119.38,2037.11 1105.5,2041C 1097.46,2043.57 1089.46,2045.91 1081.5,2048C 1087.3,2043.2 1092.8,2038.03 1098,2032.5C 1103.89,2021.69 1112.23,2013.36 1123,2007.5C 1123.43,2006.4 1122.93,2005.73 1121.5,2005.5C 1114.55,2008.24 1108.72,2012.57 1104,2018.5C 1094.11,2034.2 1080.94,2046.36 1064.5,2055C 1051.72,2060.07 1039.06,2065.07 1026.5,2070C 1034.58,2060.56 1041.08,2050.06 1046,2038.5C 1048.67,2034.5 1052,2031.17 1056,2028.5C 1056.56,2027.28 1056.23,2026.28 1055,2025.5C 1045.41,2032.64 1038.75,2041.98 1035,2053.5C 1032,2057.83 1029,2062.17 1026,2066.5C 1018.32,2073.01 1011.16,2080.01 1004.5,2087.5C 1002.17,2080.84 999.835,2074.17 997.5,2067.5C 1001.99,2055.37 1009.33,2045.2 1019.5,2037C 1031.5,2026.33 1043.5,2015.67 1055.5,2005C 1061.49,2001.51 1067.82,1998.84 1074.5,1997C 1091.45,1993.74 1108.45,1990.74 1125.5,1988C 1139.61,1985.53 1151.44,1979.03 1161,1968.5C 1169.56,1955.89 1178.73,1943.72 1188.5,1932C 1191.44,1930.2 1194.44,1928.7 1197.5,1927.5 Z"/></g>
<g><path style="opacity:1" fill="#bab4a3" d="M 640.5,1938.5 C 640.5,1940.17 640.5,1941.83 640.5,1943.5C 649.017,1943.17 657.35,1943.51 665.5,1944.5C 656.833,1944.5 648.167,1944.5 639.5,1944.5C 639.205,1942.26 639.539,1940.26 640.5,1938.5 Z"/></g>
<g><path style="opacity:1" fill="#5a4f27" d="M 948.5,1950.5 C 949.5,1950.5 950.5,1950.5 951.5,1950.5C 950.79,1978.44 954.456,2005.78 962.5,2032.5C 962.167,2033.5 961.5,2034.17 960.5,2034.5C 957.237,2026.46 954.737,2018.13 953,2009.5C 949.662,1989.97 948.162,1970.3 948.5,1950.5 Z"/></g>
<g><path style="opacity:1" fill="#3c8f6f" d="M 424.5,1954.5 C 430.092,1954.09 435.092,1955.59 439.5,1959C 449.779,1969.28 460.113,1979.61 470.5,1990C 481.251,1998.7 493.584,2003.03 507.5,2003C 522.844,2003.17 538.178,2003.67 553.5,2004.5C 563.407,2020.91 576.741,2033.74 593.5,2043C 599,2049.83 604.5,2056.67 610,2063.5C 612.445,2064.98 614.612,2066.81 616.5,2069C 603.171,2066.34 589.838,2063.34 576.5,2060C 566.562,2056.03 557.229,2051.03 548.5,2045C 541.167,2038.33 533.833,2031.67 526.5,2025C 522.392,2022.61 518.059,2020.78 513.5,2019.5C 511.431,2019.82 511.098,2020.66 512.5,2022C 516.953,2023.73 521.286,2025.73 525.5,2028C 532.136,2033.63 538.469,2039.63 544.5,2046C 549.833,2049.33 555.167,2052.67 560.5,2056C 548.097,2054.77 535.764,2052.77 523.5,2050C 511.717,2046.86 501.55,2041.03 493,2032.5C 486.61,2020.88 479.11,2010.05 470.5,2000C 467.715,1997.49 466.548,1997.99 467,2001.5C 476,2009.91 482.5,2019.57 486.5,2030.5C 478.214,2023.72 470.381,2016.38 463,2008.5C 454.487,1995.46 445.987,1982.46 437.5,1969.5C 436.401,1972.36 436.901,1975.03 439,1977.5C 446.591,1990.35 454.924,2002.69 464,2014.5C 477.272,2029.05 492.772,2040.55 510.5,2049C 490.955,2050.59 472.621,2046.76 455.5,2037.5C 455.281,2038.68 455.614,2039.68 456.5,2040.5C 463.689,2044.76 471.356,2047.93 479.5,2050C 513.192,2052.05 546.526,2056.72 579.5,2064C 558.048,2065.61 537.048,2069.61 516.5,2076C 508.783,2076.4 501.116,2075.9 493.5,2074.5C 493.5,2075.5 493.5,2076.5 493.5,2077.5C 501.764,2079.14 510.098,2079.64 518.5,2079C 542.204,2070.99 566.538,2067.32 591.5,2068C 605.081,2069.64 618.081,2073.31 630.5,2079C 626.216,2078.54 621.882,2078.54 617.5,2079C 605.227,2082.2 593.227,2086.2 581.5,2091C 576.565,2092.27 571.565,2093.1 566.5,2093.5C 566.5,2094.5 566.5,2095.5 566.5,2096.5C 571.937,2096.38 577.27,2095.55 582.5,2094C 592.965,2089.77 603.632,2086.1 614.5,2083C 622.348,2081.91 630.015,2082.58 637.5,2085C 638.333,2085.83 639.167,2086.67 640,2087.5C 642.559,2094.67 644.393,2102.01 645.5,2109.5C 638.77,2109.23 632.103,2109.73 625.5,2111C 611.965,2116.51 597.965,2120.18 583.5,2122C 562.299,2123.12 542.633,2118.12 524.5,2107C 518.5,2102.67 512.5,2098.33 506.5,2094C 486.662,2086.34 469.495,2074.84 455,2059.5C 448.157,2050.65 443.823,2040.65 442,2029.5C 439.705,2013.43 437.038,1997.43 434,1981.5C 432.08,1974.33 429.08,1967.66 425,1961.5C 424.503,1959.19 424.337,1956.86 424.5,1954.5 Z"/></g>
<g><path style="opacity:1" fill="#3c8f6f" d="M 758.5,1960.5 C 765.037,1960.44 770.703,1962.6 775.5,1967C 784.136,1976.64 793.136,1985.97 802.5,1995C 811.945,2003.22 822.945,2007.89 835.5,2009C 850.167,2009.33 864.833,2009.67 879.5,2010C 894.092,2009.65 907.758,2012.98 920.5,2020C 931.892,2028.39 943.559,2036.39 955.5,2044C 961.55,2057.49 966.384,2071.32 970,2085.5C 953.05,2076.22 939.717,2063.22 930,2046.5C 926.46,2041.78 921.96,2038.45 916.5,2036.5C 915.068,2036.73 914.568,2037.4 915,2038.5C 924.735,2044.9 932.401,2053.24 938,2063.5C 941.833,2067.33 945.667,2071.17 949.5,2075C 924.775,2072.73 902.108,2064.73 881.5,2051C 874.765,2043.59 867.432,2036.93 859.5,2031C 855.137,2028.32 850.47,2026.48 845.5,2025.5C 845.281,2026.68 845.614,2027.68 846.5,2028.5C 850.619,2030.06 854.619,2031.89 858.5,2034C 864.802,2039.3 870.802,2044.97 876.5,2051C 881.996,2054.92 887.663,2058.58 893.5,2062C 873.028,2061.44 853.695,2056.44 835.5,2047C 831,2043.83 827.167,2040 824,2035.5C 818.522,2024.71 811.689,2014.87 803.5,2006C 801.034,2003.82 799.867,2004.32 800,2007.5C 803.667,2009.83 806.667,2012.83 809,2016.5C 813.332,2023.52 817.332,2030.52 821,2037.5C 800.237,2021.31 784.237,2001.31 773,1977.5C 771.684,1974.97 770.517,1974.97 769.5,1977.5C 777.957,1993.45 787.79,2008.45 799,2022.5C 812.637,2036.81 828.47,2047.97 846.5,2056C 834.033,2056.14 821.699,2054.81 809.5,2052C 802.756,2050.03 796.423,2047.2 790.5,2043.5C 789.417,2044.36 789.251,2045.36 790,2046.5C 798.09,2051.75 806.924,2055.25 816.5,2057C 848.565,2058.53 880.232,2062.87 911.5,2070C 891.091,2071.95 871.091,2075.95 851.5,2082C 843.421,2082.68 835.421,2082.18 827.5,2080.5C 827.281,2081.68 827.614,2082.68 828.5,2083.5C 836.051,2085.42 843.718,2085.92 851.5,2085C 872.689,2078.45 894.356,2074.62 916.5,2073.5C 932.911,2074.35 948.578,2078.19 963.5,2085C 956.77,2085.17 950.103,2085.84 943.5,2087C 934.167,2090.33 924.833,2093.67 915.5,2097C 910.552,2098.26 905.552,2099.26 900.5,2100C 900.043,2100.41 899.709,2100.91 899.5,2101.5C 905.28,2102.73 910.947,2102.23 916.5,2100C 926.965,2095.77 937.632,2092.1 948.5,2089C 957.07,2087.69 965.237,2088.86 973,2092.5C 975.27,2099.81 977.437,2107.14 979.5,2114.5C 973.189,2115.48 966.856,2116.32 960.5,2117C 947.728,2121.48 934.728,2125.15 921.5,2128C 898.499,2130.22 877.166,2125.22 857.5,2113C 844.152,2102.32 829.486,2093.65 813.5,2087C 798.897,2078.4 787.731,2066.56 780,2051.5C 777.573,2045.37 775.907,2039.03 775,2032.5C 772.592,2014.98 769.259,1997.64 765,1980.5C 762.651,1975.8 760.318,1971.14 758,1966.5C 757.322,1964.4 757.489,1962.4 758.5,1960.5 Z"/></g>
<g><path style="opacity:1" fill="#3d8d6d" d="M 941.5,1960.5 C 942.492,1968.32 942.826,1976.32 942.5,1984.5C 931.772,1987.8 921.106,1990.97 910.5,1994C 923.133,1984.87 933.466,1973.7 941.5,1960.5 Z"/></g>
<g><path style="opacity:1" fill="#3c8e6e" d="M 939.5,1988.5 C 940.833,1988.5 942.167,1988.5 943.5,1988.5C 944.021,1994.85 944.687,2001.19 945.5,2007.5C 926.465,2005.11 907.465,2004.94 888.5,2007C 905.382,2000.21 922.382,1994.05 939.5,1988.5 Z"/></g>
<g><path style="opacity:1" fill="#3d8e6e" d="M 905.5,2010.5 C 919.081,2009.05 932.748,2009.55 946.5,2012C 948.827,2021.3 951.327,2030.47 954,2039.5C 941.5,2031 929,2022.5 916.5,2014C 912.979,2012.33 909.313,2011.16 905.5,2010.5 Z"/></g>
<g><path style="opacity:1" fill="#3d8e6d" d="M 602.5,2049.5 C 602.56,2048.96 602.893,2048.62 603.5,2048.5C 613.284,2052.89 622.618,2058.06 631.5,2064C 634.159,2069.31 635.992,2074.81 637,2080.5C 631.277,2075.39 625.11,2070.89 618.5,2067C 612.563,2061.57 607.23,2055.74 602.5,2049.5 Z"/></g>
<g><path style="opacity:1" fill="#3c8e6e" d="M 689.5,2244.5 C 683.167,2244.5 676.833,2244.5 670.5,2244.5C 671.277,2237.18 671.943,2229.85 672.5,2222.5C 671.178,2222.33 670.011,2222.66 669,2223.5C 668.5,2230.51 668,2237.51 667.5,2244.5C 666.167,2244.5 664.833,2244.5 663.5,2244.5C 667.082,2207.48 664.582,2170.81 656,2134.5C 650.367,2112.29 644.367,2090.29 638,2068.5C 647.111,2075.81 657.278,2081.14 668.5,2084.5C 672.639,2099.06 676.472,2113.72 680,2128.5C 688.99,2166.69 692.156,2205.36 689.5,2244.5 Z"/></g>
<g><path style="opacity:1" fill="#3c8f6f" d="M 772.5,2077.5 C 779.167,2077.5 785.833,2077.5 792.5,2077.5C 793.167,2079.82 793.334,2082.15 793,2084.5C 764.644,2109.44 732.144,2116.94 695.5,2107C 689.509,2106.5 683.509,2106.33 677.5,2106.5C 675.98,2099.76 674.48,2093.1 673,2086.5C 696.393,2094.3 719.893,2094.47 743.5,2087C 753.254,2083.69 762.921,2080.53 772.5,2077.5 Z"/></g>
<g><path style="opacity:1" fill="#5a4f27" d="M 645.5,2079.5 C 646.496,2079.41 647.329,2079.75 648,2080.5C 661.16,2119.13 668.994,2158.8 671.5,2199.5C 670.5,2199.5 669.5,2199.5 668.5,2199.5C 667.647,2181.34 665.48,2163.34 662,2145.5C 656.81,2123.41 651.31,2101.41 645.5,2079.5 Z"/></g>
<g><path style="opacity:1" fill="#3c8f6e" d="M 840.5,2244.5 C 833.167,2244.5 825.833,2244.5 818.5,2244.5C 819.623,2234.69 820.623,2224.85 821.5,2215C 821.618,2211.97 821.118,2209.14 820,2206.5C 817.939,2219.04 816.106,2231.71 814.5,2244.5C 813.167,2244.5 811.833,2244.5 810.5,2244.5C 813.414,2220.26 814.247,2195.93 813,2171.5C 810.094,2139.98 804.761,2108.98 797,2078.5C 798.709,2080.18 800.376,2081.84 802,2083.5C 810.317,2115.21 815.817,2147.38 818.5,2180C 819.449,2180.62 820.282,2180.45 821,2179.5C 819.743,2148.29 814.909,2117.62 806.5,2087.5C 807.002,2086.48 807.668,2086.31 808.5,2087C 816.252,2091.63 824.085,2096.13 832,2100.5C 843.179,2148.02 846.013,2196.02 840.5,2244.5 Z"/></g>
<g><path style="opacity:1" fill="#5a4f27" d="M 978.5,2085.5 C 979.496,2085.41 980.329,2085.75 981,2086.5C 994.028,2124.31 1002.19,2163.14 1005.5,2203C 1005.49,2204.4 1004.99,2205.57 1004,2206.5C 1002.88,2205.05 1002.22,2203.38 1002,2201.5C 1000.32,2182.69 997.649,2164.03 994,2145.5C 989.452,2125.31 984.286,2105.31 978.5,2085.5 Z"/></g>
<g><path style="opacity:1" fill="#fefefe" d="M 806.5,2244.5 C 768.5,2244.5 730.5,2244.5 692.5,2244.5C 695.775,2198.81 691.109,2153.98 678.5,2110C 683.5,2109.33 688.5,2109.33 693.5,2110C 731.24,2120.59 764.74,2113.09 794,2087.5C 809.276,2138.93 813.443,2191.26 806.5,2244.5 Z"/></g>
<g><path style="opacity:1" fill="#fefefe" d="M 994.5,2244.5 C 944.5,2244.5 894.5,2244.5 844.5,2244.5C 849.849,2197.39 847.182,2150.73 836.5,2104.5C 836.833,2103.83 837.167,2103.17 837.5,2102.5C 847.096,2109.59 857.096,2116.09 867.5,2122C 885.26,2130.55 903.926,2133.55 923.5,2131C 936.349,2127.94 949.016,2124.27 961.5,2120C 967.813,2118.48 974.146,2118.31 980.5,2119.5C 992.648,2160.35 997.314,2202.01 994.5,2244.5 Z"/></g>
<g><path style="opacity:1" fill="#5b4d25" d="M 818.5,2244.5 C 817.167,2244.5 815.833,2244.5 814.5,2244.5C 816.106,2231.71 817.939,2219.04 820,2206.5C 821.118,2209.14 821.618,2211.97 821.5,2215C 820.623,2224.85 819.623,2234.69 818.5,2244.5 Z"/></g>
<g><path style="opacity:1" fill="#5a5028" d="M 670.5,2244.5 C 669.5,2244.5 668.5,2244.5 667.5,2244.5C 668,2237.51 668.5,2230.51 669,2223.5C 670.011,2222.66 671.178,2222.33 672.5,2222.5C 671.943,2229.85 671.277,2237.18 670.5,2244.5 Z"/></g>
<g><path style="opacity:1" fill="#5a4d26" d="M 1004.5,2244.5 C 1003.5,2244.5 1002.5,2244.5 1001.5,2244.5C 1002.19,2239.2 1002.53,2233.86 1002.5,2228.5C 1003.5,2228.5 1004.5,2228.5 1005.5,2228.5C 1005.68,2233.88 1005.34,2239.21 1004.5,2244.5 Z"/></g>
</svg>
