<?xml version="1.0" encoding="UTF-8"?>
<!DOCTYPE svg PUBLIC "-//W3C//DTD SVG 1.1//EN" "http://www.w3.org/Graphics/SVG/1.1/DTD/svg11.dtd">
<svg xmlns="http://www.w3.org/2000/svg" version="1.1" width="1587px" height="2245px" style="shape-rendering:geometricPrecision; text-rendering:geometricPrecision; image-rendering:optimizeQuality; fill-rule:evenodd; clip-rule:evenodd" xmlns:xlink="http://www.w3.org/1999/xlink">
<g><path style="opacity:1" fill="#fefefe" d="M -0.5,-0.5 C 296.833,-0.5 594.167,-0.5 891.5,-0.5C 880.966,94.17 891.133,186.503 922,276.5C 942.663,333.362 974.497,382.862 1017.5,425C 1038.02,441.428 1058.35,458.094 1078.5,475C 1108.06,501.547 1133.56,531.38 1155,564.5C 1185.26,614.186 1201.59,668.186 1204,726.5C 1200.76,863.882 1230.76,993.548 1294,1115.5C 1325.96,1177.81 1368.13,1232.31 1420.5,1279C 1468.85,1320.68 1524.18,1349.51 1586.5,1365.5C 1586.5,1390.17 1586.5,1414.83 1586.5,1439.5C 1517.76,1504.65 1477.92,1584.65 1467,1679.5C 1454.73,1734.68 1431.73,1784.68 1398,1829.5C 1374.07,1858.53 1346.24,1883.03 1314.5,1903C 1288.82,1917.84 1262.82,1932.17 1236.5,1946C 1154.16,1999.34 1083.66,2065.5 1025,2144.5C 1002.37,2176.07 982.541,2209.4 965.5,2244.5C 886.5,2244.5 807.5,2244.5 728.5,2244.5C 727.568,2230.48 725.568,2216.64 722.5,2203C 726.833,2202.33 731.167,2202.33 735.5,2203C 780.329,2218.57 819.662,2209.9 853.5,2177C 871.593,2168.25 887.427,2156.41 901,2141.5C 908.382,2132.07 913.048,2121.4 915,2109.5C 916.139,2092.11 917.805,2074.78 920,2057.5C 920.939,2050.35 923.272,2043.68 927,2037.5C 927.667,2034.17 927.667,2030.83 927,2027.5C 925.261,2026.11 923.261,2025.44 921,2025.5C 916.917,2026.29 913.084,2027.79 909.5,2030C 900.585,2038.91 892.418,2048.41 885,2058.5C 875.765,2069.87 863.931,2076.7 849.5,2079C 832.871,2081.06 816.205,2082.73 799.5,2084C 788.045,2085.48 777.378,2089.15 767.5,2095C 757.758,2102.95 747.924,2110.79 738,2118.5C 740.439,2111.76 742.439,2104.76 744,2097.5C 745.639,2076.13 747.639,2054.8 750,2033.5C 751.585,2024.66 754.585,2016.33 759,2008.5C 759.667,2005.17 759.667,2001.83 759,1998.5C 757.38,1996.27 755.214,1994.94 752.5,1994.5C 743.559,1996.39 736.059,2000.72 730,2007.5C 719.786,2021.39 708.452,2034.39 696,2046.5C 695.987,2036.11 696.82,2025.78 698.5,2015.5C 715.747,2018.3 727.58,2011.63 734,1995.5C 741.186,1997.33 747.353,1995.5 752.5,1990C 757.132,1990.39 761.799,1990.39 766.5,1990C 771.097,1988.41 775.764,1987.08 780.5,1986C 785.149,1983.54 787.983,1979.71 789,1974.5C 806.685,1974.87 819.351,1966.87 827,1950.5C 827.667,1944.83 827.667,1939.17 827,1933.5C 826.64,1931.58 825.806,1929.91 824.5,1928.5C 830.495,1923.18 833.828,1916.51 834.5,1908.5C 836.937,1907.2 839.104,1905.53 841,1903.5C 843.73,1897.71 846.73,1892.04 850,1886.5C 850.925,1881.98 850.092,1877.81 847.5,1874C 858.362,1863.41 862.195,1850.58 859,1835.5C 855.7,1825.7 849.2,1819.03 839.5,1815.5C 839.828,1807.97 837.328,1801.64 832,1796.5C 832.95,1785.22 830.45,1774.72 824.5,1765C 821.491,1763.5 818.491,1762 815.5,1760.5C 816.615,1754.93 815.781,1749.6 813,1744.5C 808.112,1735.28 800.945,1728.45 791.5,1724C 783.4,1722.77 775.567,1723.6 768,1726.5C 765.178,1724.35 762.344,1722.18 759.5,1720C 751.49,1718.66 743.49,1717.33 735.5,1716C 729.193,1702.85 718.86,1695.35 704.5,1693.5C 692.789,1694.02 683.789,1699.19 677.5,1709C 670.872,1708.5 664.205,1708.5 657.5,1709C 652.688,1709.99 648.521,1712.16 645,1715.5C 644.463,1705.09 642.13,1695.09 638,1685.5C 634.827,1680.66 630.327,1677.99 624.5,1677.5C 624.187,1656.06 614.187,1640.89 594.5,1632C 588.167,1631.33 581.833,1631.33 575.5,1632C 572.287,1632.61 569.287,1633.77 566.5,1635.5C 563.634,1631.72 559.967,1628.89 555.5,1627C 546.254,1624.97 536.921,1623.47 527.5,1622.5C 513.319,1595.6 492.986,1589.44 466.5,1604C 462.607,1607.39 459.273,1611.22 456.5,1615.5C 440.615,1610.26 426.782,1613.6 415,1625.5C 413.441,1627.22 412.608,1629.22 412.5,1631.5C 404.942,1632.61 398.942,1636.28 394.5,1642.5C 375.762,1635.43 359.596,1639.09 346,1653.5C 343.746,1657.01 341.746,1660.67 340,1664.5C 338.513,1672.53 338.013,1680.53 338.5,1688.5C 327.958,1694.89 320.958,1704.05 317.5,1716C 314.18,1715.74 311.513,1714.07 309.5,1711C 307.913,1710.14 306.246,1709.47 304.5,1709C 297.224,1707.63 289.891,1706.8 282.5,1706.5C 277.858,1695.03 269.525,1687.53 257.5,1684C 243.775,1682.53 233.108,1687.53 225.5,1699C 218.872,1698.5 212.205,1698.5 205.5,1699C 197.35,1700.65 191.35,1705.15 187.5,1712.5C 181.083,1714.08 176.249,1717.75 173,1723.5C 154.335,1715.72 139.668,1720.39 129,1737.5C 126.519,1745.06 125.852,1752.73 127,1760.5C 113.399,1768.37 107.899,1780.04 110.5,1795.5C 107.62,1801.14 106.954,1806.97 108.5,1813C 85.7685,1824.86 80.6019,1842.03 93,1864.5C 95.6381,1867.32 98.6381,1869.65 102,1871.5C 100.778,1880.38 101.778,1889.05 105,1897.5C 107.695,1903.03 111.862,1907.03 117.5,1909.5C 119.375,1915.27 122.708,1919.93 127.5,1923.5C 122.349,1938.87 125.682,1952.04 137.5,1963C 146.289,1969.16 155.789,1970.66 166,1967.5C 172.557,1977.38 181.724,1983.22 193.5,1985C 200.661,1989.91 208.328,1993.75 216.5,1996.5C 209.384,2035.01 209.884,2073.34 218,2111.5C 208.224,2104.02 198.724,2096.19 189.5,2088C 178.796,2080.21 166.796,2075.54 153.5,2074C 136.123,2072.73 118.79,2071.06 101.5,2069C 92.4782,2067.44 84.4782,2063.78 77.5,2058C 66.5,2045.67 55.5,2033.33 44.5,2021C 39.5221,2016.9 33.8554,2015.23 27.5,2016C 25.7029,2017.59 24.7029,2019.59 24.5,2022C 27.1185,2028.75 29.6185,2035.58 32,2042.5C 34.5999,2061.1 36.5999,2079.77 38,2098.5C 39.6531,2110.8 44.3198,2121.8 52,2131.5C 65.5732,2146.41 81.4065,2158.25 99.5,2167C 132.94,2200.11 171.94,2208.77 216.5,2193C 224.159,2192.5 231.826,2192.33 239.5,2192.5C 241.836,2209.85 244.169,2227.18 246.5,2244.5C 164.167,2244.5 81.8333,2244.5 -0.5,2244.5C -0.5,1496.17 -0.5,747.833 -0.5,-0.5 Z"/></g>
<g><path style="opacity:1" fill="#b4ccea" d="M 891.5,-0.5 C 1067.17,-0.5 1242.83,-0.5 1418.5,-0.5C 1420.19,2.64536 1420.69,5.9787 1420,9.5C 1395.74,58.6245 1379.74,110.291 1372,164.5C 1369.16,190.25 1372.16,215.25 1381,239.5C 1386.2,251.042 1393.7,260.875 1403.5,269C 1428.86,282.337 1452.86,297.67 1475.5,315C 1500.47,335.988 1516.31,362.488 1523,394.5C 1528.14,422.946 1529.8,451.612 1528,480.5C 1526.53,514.502 1525.03,548.502 1523.5,582.5C 1523.14,606.365 1527.31,629.365 1536,651.5C 1546.52,672.839 1563.35,686.172 1586.5,691.5C 1586.5,695.5 1586.5,699.5 1586.5,703.5C 1555.15,697.321 1533.65,679.321 1522,649.5C 1514.26,626.49 1510.76,602.823 1511.5,578.5C 1512.63,547.484 1514.13,516.484 1516,485.5C 1517.85,455.943 1516.18,426.61 1511,397.5C 1504.35,365.695 1488.18,339.861 1462.5,320C 1442.34,305.747 1421.34,292.747 1399.5,281C 1379.93,266.73 1367.76,247.563 1363,223.5C 1357.88,192.703 1358.55,162.037 1365,131.5C 1374.48,88.5503 1388.65,47.217 1407.5,7.5C 1343.5,5.91382 1279.5,4.58049 1215.5,3.5C 1213.63,3.50681 1211.96,3.84014 1210.5,4.5C 1166.59,4.16976 1122.76,4.5031 1079,5.5C 1043.03,70.0359 1038.7,136.703 1066,205.5C 1084.89,247.3 1110.22,284.633 1142,317.5C 1176.92,352.443 1214.76,383.61 1255.5,411C 1308.68,454.14 1341.85,509.64 1355,577.5C 1362.33,613.83 1367.33,650.497 1370,687.5C 1373.93,749.862 1378.26,812.196 1383,874.5C 1392.57,957.485 1428.41,1026.65 1490.5,1082C 1519.93,1107.25 1551.93,1128.75 1586.5,1146.5C 1586.5,1219.5 1586.5,1292.5 1586.5,1365.5C 1524.18,1349.51 1468.85,1320.68 1420.5,1279C 1368.13,1232.31 1325.96,1177.81 1294,1115.5C 1230.76,993.548 1200.76,863.882 1204,726.5C 1201.59,668.186 1185.26,614.186 1155,564.5C 1133.56,531.38 1108.06,501.547 1078.5,475C 1058.35,458.094 1038.02,441.428 1017.5,425C 974.497,382.862 942.663,333.362 922,276.5C 891.133,186.503 880.966,94.17 891.5,-0.5 Z"/></g>
<g><path style="opacity:1" fill="#fefefe" d="M 1418.5,-0.5 C 1474.5,-0.5 1530.5,-0.5 1586.5,-0.5C 1586.5,230.167 1586.5,460.833 1586.5,691.5C 1563.35,686.172 1546.52,672.839 1536,651.5C 1527.31,629.365 1523.14,606.365 1523.5,582.5C 1525.03,548.502 1526.53,514.502 1528,480.5C 1529.8,451.612 1528.14,422.946 1523,394.5C 1516.31,362.488 1500.47,335.988 1475.5,315C 1452.86,297.67 1428.86,282.337 1403.5,269C 1393.7,260.875 1386.2,251.042 1381,239.5C 1372.16,215.25 1369.16,190.25 1372,164.5C 1379.74,110.291 1395.74,58.6245 1420,9.5C 1420.69,5.9787 1420.19,2.64536 1418.5,-0.5 Z"/></g>
<g><path style="opacity:1" fill="#484fa2" d="M 1210.5,4.5 C 1186.62,55.8067 1178.78,109.473 1187,165.5C 1194.3,201.935 1211.8,232.435 1239.5,257C 1250.98,266.905 1262.65,276.572 1274.5,286C 1309.35,310.514 1343.35,336.181 1376.5,363C 1393.57,378.053 1408.4,394.887 1421,413.5C 1434.89,435.489 1442.55,459.489 1444,485.5C 1443.52,526.927 1445.18,568.26 1449,609.5C 1452.6,649.011 1461.26,687.344 1475,724.5C 1487.21,758.128 1506.71,786.628 1533.5,810C 1549.49,822.329 1567.16,831.496 1586.5,837.5C 1586.5,940.5 1586.5,1043.5 1586.5,1146.5C 1551.93,1128.75 1519.93,1107.25 1490.5,1082C 1428.41,1026.65 1392.57,957.485 1383,874.5C 1378.26,812.196 1373.93,749.862 1370,687.5C 1367.33,650.497 1362.33,613.83 1355,577.5C 1341.85,509.64 1308.68,454.14 1255.5,411C 1214.76,383.61 1176.92,352.443 1142,317.5C 1110.22,284.633 1084.89,247.3 1066,205.5C 1038.7,136.703 1043.03,70.0359 1079,5.5C 1122.76,4.5031 1166.59,4.16976 1210.5,4.5 Z"/></g>
<g><path style="opacity:1" fill="#3e299b" d="M 1586.5,703.5 C 1586.5,748.167 1586.5,792.833 1586.5,837.5C 1567.16,831.496 1549.49,822.329 1533.5,810C 1506.71,786.628 1487.21,758.128 1475,724.5C 1461.26,687.344 1452.6,649.011 1449,609.5C 1445.18,568.26 1443.52,526.927 1444,485.5C 1442.55,459.489 1434.89,435.489 1421,413.5C 1408.4,394.887 1393.57,378.053 1376.5,363C 1343.35,336.181 1309.35,310.514 1274.5,286C 1262.65,276.572 1250.98,266.905 1239.5,257C 1211.8,232.435 1194.3,201.935 1187,165.5C 1178.78,109.473 1186.62,55.8067 1210.5,4.5C 1211.96,3.84014 1213.63,3.50681 1215.5,3.5C 1279.5,4.58049 1343.5,5.91382 1407.5,7.5C 1388.65,47.217 1374.48,88.5503 1365,131.5C 1358.55,162.037 1357.88,192.703 1363,223.5C 1367.76,247.563 1379.93,266.73 1399.5,281C 1421.34,292.747 1442.34,305.747 1462.5,320C 1488.18,339.861 1504.35,365.695 1511,397.5C 1516.18,426.61 1517.85,455.943 1516,485.5C 1514.13,516.484 1512.63,547.484 1511.5,578.5C 1510.76,602.823 1514.26,626.49 1522,649.5C 1533.65,679.321 1555.15,697.321 1586.5,703.5 Z"/></g>
<g><path style="opacity:1" fill="#4e50a0" d="M 1020.5,1137.5 C 1037.75,1135.94 1051.25,1142.27 1061,1156.5C 1068.17,1166.83 1074.83,1177.5 1081,1188.5C 1085.13,1193.63 1089.63,1198.47 1094.5,1203C 1107.8,1210.33 1121.13,1217.66 1134.5,1225C 1152.43,1239.93 1157.1,1258.1 1148.5,1279.5C 1158.48,1280.33 1168.48,1280.83 1178.5,1281C 1188.47,1283.31 1196.64,1288.47 1203,1296.5C 1211.71,1312.58 1222.38,1327.25 1235,1340.5C 1239.13,1345.47 1240.47,1351.14 1239,1357.5C 1235.8,1368.07 1229.97,1376.9 1221.5,1384C 1206.54,1397.15 1189.2,1405.48 1169.5,1409C 1162.83,1409.67 1156.17,1409.67 1149.5,1409C 1141.9,1407.46 1134.24,1406.63 1126.5,1406.5C 1127.2,1410.8 1125.87,1414.3 1122.5,1417C 1117.59,1418.49 1112.59,1418.83 1107.5,1418C 1102.38,1415.94 1097.38,1413.61 1092.5,1411C 1080.5,1402.67 1068.5,1394.33 1056.5,1386C 1045.67,1380.61 1034.67,1375.61 1023.5,1371C 1020.5,1368 1017.5,1365 1014.5,1362C 995.634,1356.63 976.634,1356.13 957.5,1360.5C 957.33,1359.18 957.663,1358.01 958.5,1357C 975.609,1352.58 992.775,1352.41 1010,1356.5C 1013.25,1357.08 1014.75,1355.75 1014.5,1352.5C 1014.43,1351.23 1014.1,1350.06 1013.5,1349C 995.873,1340.12 977.206,1335.12 957.5,1334C 956.663,1332.99 956.33,1331.82 956.5,1330.5C 976.466,1331.24 995.466,1335.91 1013.5,1344.5C 1013.83,1344.17 1014.17,1343.83 1014.5,1343.5C 980.936,1311.7 954.77,1274.7 936,1232.5C 930.559,1220.23 927.725,1207.4 927.5,1194C 926.537,1183.61 929.537,1174.61 936.5,1167C 941.666,1163.65 947.332,1162.65 953.5,1164C 962.167,1168.67 970.833,1173.33 979.5,1178C 982.871,1179.07 986.204,1180.23 989.5,1181.5C 992.462,1166.41 999.462,1153.57 1010.5,1143C 1013.77,1140.87 1017.1,1139.04 1020.5,1137.5 Z"/></g>
<g><path style="opacity:1" fill="#fd6740" d="M 1015.5,1158.5 C 1030.42,1157.72 1040.59,1164.39 1046,1178.5C 1046.67,1181.17 1046.67,1183.83 1046,1186.5C 1038.36,1198.41 1033.7,1211.41 1032,1225.5C 1031.44,1240.53 1031.44,1255.53 1032,1270.5C 1015.85,1248.86 1004.51,1224.86 998,1198.5C 997.333,1190.83 997.333,1183.17 998,1175.5C 999.787,1171.42 1001.95,1167.59 1004.5,1164C 1008.02,1161.67 1011.68,1159.84 1015.5,1158.5 Z"/></g>
<g><path style="opacity:1" fill="#faaa37" d="M 1047.5,1191.5 C 1049.02,1191.51 1050.18,1192.18 1051,1193.5C 1053.31,1200.06 1055.31,1206.73 1057,1213.5C 1062.59,1227.42 1072.76,1235.92 1087.5,1239C 1088.33,1239.83 1089.17,1240.67 1090,1241.5C 1093.53,1250.31 1094.53,1259.31 1093,1268.5C 1087.73,1263.75 1081.56,1262.25 1074.5,1264C 1071.71,1265.3 1069.04,1266.8 1066.5,1268.5C 1065.03,1262.58 1062.86,1256.91 1060,1251.5C 1052.03,1243.3 1044.36,1243.64 1037,1252.5C 1033.76,1230.99 1037.26,1210.66 1047.5,1191.5 Z"/></g>
<g><path style="opacity:1" fill="#fc6741" d="M 950.5,1198.5 C 956.694,1196.99 961.194,1198.99 964,1204.5C 972.1,1219.56 975.1,1235.56 973,1252.5C 979.681,1271.19 991.014,1286.53 1007,1298.5C 1012.45,1312.07 1018.45,1325.4 1025,1338.5C 1024.46,1342.58 1022.29,1343.42 1018.5,1341C 984.27,1309.38 957.77,1272.22 939,1229.5C 935.778,1222.45 935.778,1215.45 939,1208.5C 942.435,1204.55 946.268,1201.22 950.5,1198.5 Z"/></g>
<g><path style="opacity:1" fill="#f9aa38" d="M 967.5,1200.5 C 974.22,1203.26 981.22,1204.6 988.5,1204.5C 989.299,1213.14 989.632,1221.81 989.5,1230.5C 985.247,1229.99 981.413,1230.99 978,1233.5C 976.207,1222.01 972.707,1211.01 967.5,1200.5 Z"/></g>
<g><path style="opacity:1" fill="#faab37" d="M 992.5,1201.5 C 993.497,1201.47 994.164,1201.97 994.5,1203C 997.952,1216.35 1002.78,1229.19 1009,1241.5C 1018,1256.5 1027,1271.5 1036,1286.5C 1044.71,1306.46 1050.88,1327.12 1054.5,1348.5C 1047.08,1346.29 1039.75,1343.79 1032.5,1341C 1030.64,1339.44 1029.14,1337.61 1028,1335.5C 1006.47,1293.4 994.632,1248.73 992.5,1201.5 Z"/></g>
<g><path style="opacity:1" fill="#f8a4b0" d="M 983.5,1234.5 C 986.365,1234.05 988.865,1234.72 991,1236.5C 994.414,1254.82 998.747,1272.82 1004,1290.5C 991.942,1280.44 982.942,1268.1 977,1253.5C 974.772,1245.49 976.939,1239.16 983.5,1234.5 Z"/></g>
<g><path style="opacity:1" fill="#fb6742" d="M 1094.5,1240.5 C 1100.11,1241.55 1105.61,1242.88 1111,1244.5C 1114.94,1266.12 1110.94,1286.12 1099,1304.5C 1085.76,1317.4 1074.43,1331.73 1065,1347.5C 1064.52,1345.09 1064.85,1342.75 1066,1340.5C 1073,1327.16 1081,1314.49 1090,1302.5C 1099.28,1282.39 1100.78,1261.72 1094.5,1240.5 Z"/></g>
<g><path style="opacity:1" fill="#f9a938" d="M 1116.5,1247.5 C 1128.03,1254.57 1133.2,1264.91 1132,1278.5C 1131.15,1281.7 1129.65,1284.53 1127.5,1287C 1120.97,1291.26 1114.31,1294.92 1107.5,1298C 1115.51,1282.11 1118.51,1265.27 1116.5,1247.5 Z"/></g>
<g><path style="opacity:1" fill="#fca7b1" d="M 1045.5,1249.5 C 1053.43,1249.58 1058.26,1253.58 1060,1261.5C 1060.19,1267.42 1060.69,1273.25 1061.5,1279C 1062.17,1279.67 1062.83,1279.67 1063.5,1279C 1066.55,1274.28 1070.55,1270.62 1075.5,1268C 1089.28,1266.45 1094.78,1272.62 1092,1286.5C 1091,1289.5 1090,1292.5 1089,1295.5C 1082.33,1305.5 1075.67,1315.5 1069,1325.5C 1066.06,1331.72 1062.89,1337.72 1059.5,1343.5C 1053.04,1321.29 1045.87,1299.29 1038,1277.5C 1036.87,1269.95 1037.54,1262.62 1040,1255.5C 1042.04,1253.63 1043.87,1251.63 1045.5,1249.5 Z"/></g>
<g><path style="opacity:1" fill="#fd6741" d="M 1149.5,1284.5 C 1162.63,1283.81 1170.8,1289.81 1174,1302.5C 1174.83,1309.81 1175.33,1317.15 1175.5,1324.5C 1165.52,1321.8 1155.35,1320.13 1145,1319.5C 1138.41,1319.63 1131.91,1320.46 1125.5,1322C 1105.63,1330.55 1087.3,1341.55 1070.5,1355C 1069.06,1355.78 1067.72,1355.61 1066.5,1354.5C 1083.9,1318.75 1111.56,1295.42 1149.5,1284.5 Z"/></g>
<g><path style="opacity:1" fill="#fca7b1" d="M 1129.5,1324.5 C 1134.84,1324.33 1140.18,1324.5 1145.5,1325C 1152.92,1328.89 1154.42,1334.39 1150,1341.5C 1145.22,1345.13 1140.39,1348.63 1135.5,1352C 1135.64,1352.77 1135.98,1353.44 1136.5,1354C 1147.72,1353.7 1157.55,1357.2 1166,1364.5C 1170.83,1371.2 1170.66,1377.7 1165.5,1384C 1159.42,1386.47 1153.08,1387.14 1146.5,1386C 1128.04,1379.44 1110.04,1371.77 1092.5,1363C 1086.38,1361.47 1080.38,1359.64 1074.5,1357.5C 1084.45,1349.85 1094.78,1342.69 1105.5,1336C 1113.21,1331.31 1121.21,1327.48 1129.5,1324.5 Z"/></g>
<g><path style="opacity:1" fill="#faab37" d="M 1153.5,1325.5 C 1161.94,1325.11 1169.94,1327.28 1177.5,1332C 1182.98,1339.81 1189.98,1345.81 1198.5,1350C 1194.33,1362.01 1186.66,1371.18 1175.5,1377.5C 1174.56,1369.46 1170.9,1362.96 1164.5,1358C 1158.73,1354.78 1152.73,1352.11 1146.5,1350C 1150.72,1347.45 1153.89,1343.95 1156,1339.5C 1157.19,1334.33 1156.36,1329.66 1153.5,1325.5 Z"/></g>
<g><path style="opacity:1" fill="#9ca93a" d="M 1024.5,1346.5 C 1034.26,1345.48 1043.26,1347.64 1051.5,1353C 1072.02,1368.51 1093.35,1382.84 1115.5,1396C 1121.38,1399.6 1123.55,1404.77 1122,1411.5C 1119.69,1413.89 1116.86,1414.89 1113.5,1414.5C 1109.94,1414.56 1106.61,1413.72 1103.5,1412C 1086.9,1401.73 1070.56,1391.06 1054.5,1380C 1044.72,1375.94 1035.05,1371.61 1025.5,1367C 1016.81,1360.15 1016.47,1353.32 1024.5,1346.5 Z"/></g>
<g><path style="opacity:1" fill="#fc6741" d="M 1202.5,1353.5 C 1205.2,1353.93 1207.36,1355.27 1209,1357.5C 1215.78,1365.77 1217.11,1374.77 1213,1384.5C 1188.57,1405.5 1160.73,1411.33 1129.5,1402C 1117.65,1392.49 1104.98,1384.15 1091.5,1377C 1085.83,1372.83 1080.17,1368.67 1074.5,1364.5C 1081.41,1363.72 1088.08,1364.89 1094.5,1368C 1109.58,1376.37 1125.24,1383.37 1141.5,1389C 1151.12,1391.53 1160.45,1390.87 1169.5,1387C 1184.05,1379.29 1195.05,1368.12 1202.5,1353.5 Z"/></g>
<g><path style="opacity:1" fill="#b5ccea" d="M 1586.5,1439.5 C 1586.5,1580.17 1586.5,1720.83 1586.5,1861.5C 1568.75,1901.77 1543.09,1936.27 1509.5,1965C 1484.63,1985.87 1458.63,2005.21 1431.5,2023C 1380.43,2055.06 1329.1,2086.73 1277.5,2118C 1225.65,2149.01 1185.65,2191.18 1157.5,2244.5C 1093.5,2244.5 1029.5,2244.5 965.5,2244.5C 982.541,2209.4 1002.37,2176.07 1025,2144.5C 1083.66,2065.5 1154.16,1999.34 1236.5,1946C 1262.82,1932.17 1288.82,1917.84 1314.5,1903C 1346.24,1883.03 1374.07,1858.53 1398,1829.5C 1431.73,1784.68 1454.73,1734.68 1467,1679.5C 1477.92,1584.65 1517.76,1504.65 1586.5,1439.5 Z"/></g>
<g><path style="opacity:1" fill="#5f512b" d="M 728.5,2244.5 C 727.5,2244.5 726.5,2244.5 725.5,2244.5C 722.307,2213.67 716.641,2183.34 708.5,2153.5C 701.338,2158.58 694.005,2163.42 686.5,2168C 693.264,2193.08 697.931,2218.58 700.5,2244.5C 699.5,2244.5 698.5,2244.5 697.5,2244.5C 695.663,2230.47 693.663,2216.47 691.5,2202.5C 683.826,2202.33 676.159,2202.5 668.5,2203C 652.28,2208.44 635.614,2211.11 618.5,2211C 600.665,2217.79 582.332,2219.79 563.5,2217C 551.729,2214.81 540.062,2212.14 528.5,2209C 523.22,2207.91 517.887,2207.41 512.5,2207.5C 514.741,2219.76 516.407,2232.09 517.5,2244.5C 516.5,2244.5 515.5,2244.5 514.5,2244.5C 507.439,2194.25 496.272,2144.92 481,2096.5C 472.912,2058.63 472.412,2020.63 479.5,1982.5C 469.182,1980.93 461.016,1975.93 455,1967.5C 454,1968.17 453,1968.83 452,1969.5C 443.576,2009.29 442.576,2049.29 449,2089.5C 457.201,2120.44 465.201,2151.44 473,2182.5C 477.469,2203.01 480.969,2223.68 483.5,2244.5C 482.167,2244.5 480.833,2244.5 479.5,2244.5C 478.207,2232.45 476.54,2220.45 474.5,2208.5C 465.494,2208.33 456.494,2208.5 447.5,2209C 433.331,2212.79 418.997,2215.79 404.5,2218C 380.138,2219.24 357.472,2213.58 336.5,2201C 318.391,2201.26 300.724,2198.59 283.5,2193C 279.167,2192.33 274.833,2192.33 270.5,2193C 273.996,2209.97 276.329,2227.14 277.5,2244.5C 276.5,2244.5 275.5,2244.5 274.5,2244.5C 271.566,2210.66 265.733,2177.33 257,2144.5C 244.205,2131.25 235.872,2115.58 232,2097.5C 230.541,2076.45 228.541,2055.45 226,2034.5C 224.933,2025.97 222.266,2017.97 218,2010.5C 212.945,2041.59 213.612,2072.59 220,2103.5C 234.56,2149.54 244.394,2196.54 249.5,2244.5C 248.5,2244.5 247.5,2244.5 246.5,2244.5C 244.169,2227.18 241.836,2209.85 239.5,2192.5C 231.826,2192.33 224.159,2192.5 216.5,2193C 171.94,2208.77 132.94,2200.11 99.5,2167C 81.4065,2158.25 65.5732,2146.41 52,2131.5C 44.3198,2121.8 39.6531,2110.8 38,2098.5C 36.5999,2079.77 34.5999,2061.1 32,2042.5C 29.6185,2035.58 27.1185,2028.75 24.5,2022C 24.7029,2019.59 25.7029,2017.59 27.5,2016C 33.8554,2015.23 39.5221,2016.9 44.5,2021C 55.5,2033.33 66.5,2045.67 77.5,2058C 84.4782,2063.78 92.4782,2067.44 101.5,2069C 118.79,2071.06 136.123,2072.73 153.5,2074C 166.796,2075.54 178.796,2080.21 189.5,2088C 198.724,2096.19 208.224,2104.02 218,2111.5C 209.884,2073.34 209.384,2035.01 216.5,1996.5C 208.328,1993.75 200.661,1989.91 193.5,1985C 181.724,1983.22 172.557,1977.38 166,1967.5C 155.789,1970.66 146.289,1969.16 137.5,1963C 125.682,1952.04 122.349,1938.87 127.5,1923.5C 122.708,1919.93 119.375,1915.27 117.5,1909.5C 111.862,1907.03 107.695,1903.03 105,1897.5C 101.778,1889.05 100.778,1880.38 102,1871.5C 98.6381,1869.65 95.6381,1867.32 93,1864.5C 80.6019,1842.03 85.7685,1824.86 108.5,1813C 106.954,1806.97 107.62,1801.14 110.5,1795.5C 107.899,1780.04 113.399,1768.37 127,1760.5C 125.852,1752.73 126.519,1745.06 129,1737.5C 139.668,1720.39 154.335,1715.72 173,1723.5C 176.249,1717.75 181.083,1714.08 187.5,1712.5C 191.35,1705.15 197.35,1700.65 205.5,1699C 212.205,1698.5 218.872,1698.5 225.5,1699C 233.108,1687.53 243.775,1682.53 257.5,1684C 269.525,1687.53 277.858,1695.03 282.5,1706.5C 289.891,1706.8 297.224,1707.63 304.5,1709C 306.246,1709.47 307.913,1710.14 309.5,1711C 311.513,1714.07 314.18,1715.74 317.5,1716C 320.958,1704.05 327.958,1694.89 338.5,1688.5C 338.013,1680.53 338.513,1672.53 340,1664.5C 341.746,1660.67 343.746,1657.01 346,1653.5C 359.596,1639.09 375.762,1635.43 394.5,1642.5C 398.942,1636.28 404.942,1632.61 412.5,1631.5C 412.608,1629.22 413.441,1627.22 415,1625.5C 426.782,1613.6 440.615,1610.26 456.5,1615.5C 459.273,1611.22 462.607,1607.39 466.5,1604C 492.986,1589.44 513.319,1595.6 527.5,1622.5C 536.921,1623.47 546.254,1624.97 555.5,1627C 559.967,1628.89 563.634,1631.72 566.5,1635.5C 569.287,1633.77 572.287,1632.61 575.5,1632C 581.833,1631.33 588.167,1631.33 594.5,1632C 614.187,1640.89 624.187,1656.06 624.5,1677.5C 630.327,1677.99 634.827,1680.66 638,1685.5C 642.13,1695.09 644.463,1705.09 645,1715.5C 648.521,1712.16 652.688,1709.99 657.5,1709C 664.205,1708.5 670.872,1708.5 677.5,1709C 683.789,1699.19 692.789,1694.02 704.5,1693.5C 718.86,1695.35 729.193,1702.85 735.5,1716C 743.49,1717.33 751.49,1718.66 759.5,1720C 762.344,1722.18 765.178,1724.35 768,1726.5C 775.567,1723.6 783.4,1722.77 791.5,1724C 800.945,1728.45 808.112,1735.28 813,1744.5C 815.781,1749.6 816.615,1754.93 815.5,1760.5C 818.491,1762 821.491,1763.5 824.5,1765C 830.45,1774.72 832.95,1785.22 832,1796.5C 837.328,1801.64 839.828,1807.97 839.5,1815.5C 849.2,1819.03 855.7,1825.7 859,1835.5C 862.195,1850.58 858.362,1863.41 847.5,1874C 850.092,1877.81 850.925,1881.98 850,1886.5C 846.73,1892.04 843.73,1897.71 841,1903.5C 839.104,1905.53 836.937,1907.2 834.5,1908.5C 833.828,1916.51 830.495,1923.18 824.5,1928.5C 825.806,1929.91 826.64,1931.58 827,1933.5C 827.667,1939.17 827.667,1944.83 827,1950.5C 819.351,1966.87 806.685,1974.87 789,1974.5C 787.983,1979.71 785.149,1983.54 780.5,1986C 775.764,1987.08 771.097,1988.41 766.5,1990C 761.799,1990.39 757.132,1990.39 752.5,1990C 747.353,1995.5 741.186,1997.33 734,1995.5C 727.58,2011.63 715.747,2018.3 698.5,2015.5C 696.82,2025.78 695.987,2036.11 696,2046.5C 708.452,2034.39 719.786,2021.39 730,2007.5C 736.059,2000.72 743.559,1996.39 752.5,1994.5C 755.214,1994.94 757.38,1996.27 759,1998.5C 759.667,2001.83 759.667,2005.17 759,2008.5C 754.585,2016.33 751.585,2024.66 750,2033.5C 747.639,2054.8 745.639,2076.13 744,2097.5C 742.439,2104.76 740.439,2111.76 738,2118.5C 747.924,2110.79 757.758,2102.95 767.5,2095C 777.378,2089.15 788.045,2085.48 799.5,2084C 816.205,2082.73 832.871,2081.06 849.5,2079C 863.931,2076.7 875.765,2069.87 885,2058.5C 892.418,2048.41 900.585,2038.91 909.5,2030C 913.084,2027.79 916.917,2026.29 921,2025.5C 923.261,2025.44 925.261,2026.11 927,2027.5C 927.667,2030.83 927.667,2034.17 927,2037.5C 923.272,2043.68 920.939,2050.35 920,2057.5C 917.805,2074.78 916.139,2092.11 915,2109.5C 913.048,2121.4 908.382,2132.07 901,2141.5C 887.427,2156.41 871.593,2168.25 853.5,2177C 819.662,2209.9 780.329,2218.57 735.5,2203C 731.167,2202.33 726.833,2202.33 722.5,2203C 725.568,2216.64 727.568,2230.48 728.5,2244.5 Z"/></g>
<g><path style="opacity:1" fill="#b4cce9" d="M 484.5,1599.5 C 500.071,1598.7 512.238,1604.7 521,1617.5C 522.746,1620.83 523.913,1624.33 524.5,1628C 542.084,1624.4 552.084,1631.57 554.5,1649.5C 553.422,1657.48 551.256,1665.14 548,1672.5C 543.194,1683.45 537.861,1694.11 532,1704.5C 529.461,1711.95 526.628,1719.28 523.5,1726.5C 522.833,1726.83 522.167,1727.17 521.5,1727.5C 516.281,1725.43 510.948,1723.76 505.5,1722.5C 512.89,1699.77 516.556,1676.44 516.5,1652.5C 515.178,1652.33 514.011,1652.66 513,1653.5C 512.724,1676.16 508.891,1698.16 501.5,1719.5C 493.503,1720.26 485.503,1720.93 477.5,1721.5C 474.582,1720.42 472.415,1718.42 471,1715.5C 465.473,1705.78 460.473,1695.78 456,1685.5C 452.445,1672.06 450.278,1658.39 449.5,1644.5C 448.167,1644.5 446.833,1644.5 445.5,1644.5C 445.66,1666.14 450.827,1686.48 461,1705.5C 464.5,1711.17 468,1716.83 471.5,1722.5C 467.542,1724.65 463.376,1726.32 459,1727.5C 457.395,1726.9 456.062,1725.9 455,1724.5C 445.667,1709.83 436.333,1695.17 427,1680.5C 420.015,1669.04 415.515,1656.71 413.5,1643.5C 413.36,1634.28 417.027,1627.11 424.5,1622C 430.162,1619.06 436.162,1617.22 442.5,1616.5C 448.279,1617.21 453.945,1618.04 459.5,1619C 464.908,1608.64 473.242,1602.14 484.5,1599.5 Z"/></g>
<g><path style="opacity:1" fill="#b4cbe9" d="M 550.5,1630.5 C 552.771,1629.95 555.104,1630.45 557.5,1632C 560.704,1634.87 563.537,1638.04 566,1641.5C 578.911,1632.04 591.744,1632.2 604.5,1642C 612.411,1648.57 617.911,1656.74 621,1666.5C 621.363,1670.87 621.363,1675.2 621,1679.5C 628.147,1680.31 633.147,1683.98 636,1690.5C 636.464,1695.1 637.797,1699.43 640,1703.5C 640.499,1707.49 640.666,1711.49 640.5,1715.5C 626.063,1710.88 612.397,1712.72 599.5,1721C 594.013,1725.58 588.347,1729.91 582.5,1734C 570.843,1736.44 559.677,1740.27 549,1745.5C 547.225,1744.73 545.725,1743.56 544.5,1742C 562.767,1731.07 576.934,1716.23 587,1697.5C 588.781,1693.6 590.281,1689.6 591.5,1685.5C 591.378,1683.01 590.378,1682.34 588.5,1683.5C 579.904,1706.59 565.237,1724.76 544.5,1738C 540.336,1738.42 537.003,1736.92 534.5,1733.5C 538.71,1721.42 543.71,1709.76 549.5,1698.5C 548.448,1698.35 547.448,1698.52 546.5,1699C 540.313,1708.88 535.313,1719.38 531.5,1730.5C 529.635,1731.67 527.968,1731.33 526.5,1729.5C 530.098,1720.54 533.598,1711.54 537,1702.5C 544.685,1689.46 551.018,1675.8 556,1661.5C 557.441,1654.89 557.774,1648.22 557,1641.5C 555.828,1637.14 553.661,1633.48 550.5,1630.5 Z"/></g>
<g><path style="opacity:1" fill="#b4cce9" d="M 408.5,1635.5 C 410.256,1654.91 416.756,1672.91 428,1689.5C 436.631,1702.6 445.131,1715.76 453.5,1729C 449.53,1731.66 445.53,1734.32 441.5,1737C 440.5,1737.67 439.5,1737.67 438.5,1737C 427.15,1722.81 413.816,1710.98 398.5,1701.5C 396.899,1702.03 396.399,1703.03 397,1704.5C 412.374,1714.2 425.541,1726.37 436.5,1741C 432.928,1744.82 429.595,1748.82 426.5,1753C 420.708,1753.12 415.374,1751.45 410.5,1748C 404.221,1744.05 398.221,1739.72 392.5,1735C 391.552,1734.52 390.552,1734.35 389.5,1734.5C 389.393,1736.9 390.393,1738.74 392.5,1740C 401.978,1748.07 412.645,1754.07 424.5,1758C 423.167,1760.33 421.833,1762.67 420.5,1765C 401.115,1761.99 381.781,1758.32 362.5,1754C 351.739,1751.28 341.739,1746.95 332.5,1741C 319.636,1729.53 318.136,1716.7 328,1702.5C 332.671,1696.81 338.171,1692.31 344.5,1689C 339.425,1673.88 342.758,1660.88 354.5,1650C 365.713,1643.35 377.713,1641.68 390.5,1645C 392.305,1645.97 393.972,1647.14 395.5,1648.5C 398.855,1643.15 403.188,1638.81 408.5,1635.5 Z"/></g>
<g><path style="opacity:1" fill="#b4cce9" d="M 250.5,1686.5 C 266.19,1687.53 276.19,1695.53 280.5,1710.5C 295.06,1707.45 303.394,1713.28 305.5,1728C 304.548,1733.98 303.048,1739.81 301,1745.5C 292.646,1761.2 285.146,1777.2 278.5,1793.5C 273.681,1791.95 269.014,1790.12 264.5,1788C 271.013,1769.75 274.18,1750.91 274,1731.5C 273,1730.17 272,1730.17 271,1731.5C 270.983,1750.41 267.816,1768.75 261.5,1786.5C 254.475,1787.2 247.475,1787.87 240.5,1788.5C 225.974,1769.76 218.474,1748.43 218,1724.5C 217.586,1724.04 217.086,1723.71 216.5,1723.5C 215.205,1743.98 220.038,1762.98 231,1780.5C 232.709,1783.42 234.542,1786.25 236.5,1789C 232.973,1790.95 229.307,1792.28 225.5,1793C 213.082,1776.56 202.248,1759.06 193,1740.5C 189.859,1733.46 188.525,1726.13 189,1718.5C 193.007,1706.36 201.507,1700.69 214.5,1701.5C 218.614,1701.72 222.614,1702.22 226.5,1703C 231.975,1693.67 239.975,1688.17 250.5,1686.5 Z"/></g>
<g><path style="opacity:1" fill="#b4cce9" d="M 696.5,1697.5 C 712.957,1695.31 724.79,1701.64 732,1716.5C 732.49,1717.79 732.657,1719.13 732.5,1720.5C 746.256,1717.54 754.59,1722.87 757.5,1736.5C 754.921,1752.73 749.088,1767.73 740,1781.5C 737.53,1788.58 734.863,1795.58 732,1802.5C 731.586,1802.96 731.086,1803.29 730.5,1803.5C 725.828,1801.83 721.161,1800.16 716.5,1798.5C 723.788,1779.49 726.455,1760.16 724.5,1740.5C 723.914,1740.71 723.414,1741.04 723,1741.5C 722.857,1760.31 719.857,1778.65 714,1796.5C 706.53,1797.42 699.03,1797.92 691.5,1798C 678.707,1778.77 671.54,1757.6 670,1734.5C 669.586,1734.04 669.086,1733.71 668.5,1733.5C 668.167,1735.33 667.833,1737.17 667.5,1739C 668.323,1743.21 668.323,1747.38 667.5,1751.5C 663.04,1746.88 657.707,1743.71 651.5,1742C 652.622,1738.59 652.789,1735.09 652,1731.5C 650.61,1727.05 648.444,1723.05 645.5,1719.5C 649.216,1715.41 653.883,1712.91 659.5,1712C 665.963,1711.32 672.296,1711.65 678.5,1713C 682.553,1705.44 688.553,1700.27 696.5,1697.5 Z"/></g>
<g><path style="opacity:1" fill="#b2c9e4" d="M 301.5,1712.5 C 307.154,1712.7 311.487,1715.53 314.5,1721C 315.449,1721.62 316.282,1721.45 317,1720.5C 317.833,1723.83 318.667,1727.17 319.5,1730.5C 315.606,1737.44 314.606,1744.78 316.5,1752.5C 304.981,1756.85 296.815,1764.85 292,1776.5C 290.925,1783.56 288.759,1790.22 285.5,1796.5C 284.328,1796.08 283.328,1795.41 282.5,1794.5C 285.491,1788.03 287.991,1781.36 290,1774.5C 298.198,1761.44 304.198,1747.44 308,1732.5C 309.304,1724.58 307.137,1717.91 301.5,1712.5 Z"/></g>
<g><path style="opacity:1" fill="#b4ccea" d="M 621.5,1716.5 C 641.425,1716.25 650.258,1725.92 648,1745.5C 660.799,1748.3 669.132,1755.96 673,1768.5C 675.073,1780.95 673.073,1792.61 667,1803.5C 664.629,1806.21 661.963,1808.54 659,1810.5C 659.086,1813.7 660.086,1816.7 662,1819.5C 662.667,1822.17 662.667,1824.83 662,1827.5C 658.25,1832.74 655.25,1838.4 653,1844.5C 650.933,1847.07 648.433,1849.07 645.5,1850.5C 642.486,1842.32 637.153,1836.15 629.5,1832C 625.286,1829.73 620.953,1827.73 616.5,1826C 601.952,1826.04 588.952,1821.71 577.5,1813C 572.916,1810.86 568.25,1809.03 563.5,1807.5C 563.765,1803.15 564.265,1798.81 565,1794.5C 566.067,1795.19 567.234,1795.69 568.5,1796C 581.5,1796.67 594.5,1796.67 607.5,1796C 613.089,1795.45 618.589,1794.62 624,1793.5C 624.617,1792.55 624.451,1791.72 623.5,1791C 622.167,1790.83 620.833,1790.67 619.5,1790.5C 602.225,1792.51 584.892,1793.01 567.5,1792C 566.584,1791.63 565.75,1791.13 565,1790.5C 564.745,1783.47 563.579,1776.64 561.5,1770C 562.833,1768.67 564.167,1767.33 565.5,1766C 580.23,1759.2 595.563,1754.2 611.5,1751C 614.124,1750.42 614.791,1749.09 613.5,1747C 600.005,1749.71 586.671,1753.38 573.5,1758C 568.547,1759.48 564.213,1761.98 560.5,1765.5C 557.547,1759.76 554.214,1754.26 550.5,1749C 560.815,1744.34 571.482,1740.67 582.5,1738C 589.677,1734.49 596.01,1729.82 601.5,1724C 608.021,1720.78 614.688,1718.28 621.5,1716.5 Z"/></g>
<g><path style="opacity:1" fill="#b4cce9" d="M 185.5,1716.5 C 185.084,1724.95 186.584,1733.28 190,1741.5C 199.642,1760.12 210.475,1777.96 222.5,1795C 218.143,1797.35 213.81,1799.35 209.5,1801C 200.009,1789.19 188.843,1779.35 176,1771.5C 174.77,1772.28 174.437,1773.28 175,1774.5C 187.38,1782.54 198.213,1792.38 207.5,1804C 204.309,1807.85 201.143,1811.69 198,1815.5C 188.975,1812.07 180.808,1807.24 173.5,1801C 171.854,1799.6 170.187,1799.43 168.5,1800.5C 176.852,1808.68 186.519,1814.85 197.5,1819C 196.5,1820.67 195.5,1822.33 194.5,1824C 178.081,1821.76 161.748,1818.76 145.5,1815C 137.925,1812.59 130.592,1809.59 123.5,1806C 110.159,1795.09 108.992,1782.92 120,1769.5C 123.419,1766.25 127.253,1763.58 131.5,1761.5C 127.17,1733.66 139.17,1721.16 167.5,1724C 169.869,1724.54 171.869,1725.7 173.5,1727.5C 176.268,1722.4 180.268,1718.73 185.5,1716.5 Z"/></g>
<g><path style="opacity:1" fill="#b4cbe9" d="M 755.5,1722.5 C 757.593,1723.04 759.593,1723.88 761.5,1725C 763.393,1727.3 765.393,1729.47 767.5,1731.5C 771.729,1727.65 776.729,1725.98 782.5,1726.5C 788.652,1726.05 793.985,1727.88 798.5,1732C 809.113,1739.84 813.946,1750.34 813,1763.5C 817.233,1764.45 820.9,1766.45 824,1769.5C 825.831,1775.83 827.664,1782.16 829.5,1788.5C 829.563,1790.48 828.896,1792.15 827.5,1793.5C 815.849,1789.91 804.849,1791.41 794.5,1798C 785.766,1807.03 775.1,1812.37 762.5,1814C 759.316,1815.5 756.149,1817 753,1818.5C 751.833,1817.33 750.667,1816.17 749.5,1815C 754.982,1812.42 759.982,1809.09 764.5,1805C 775.945,1794.27 783.945,1781.43 788.5,1766.5C 787.325,1766.28 786.325,1766.61 785.5,1767.5C 779.261,1782.79 769.928,1795.96 757.5,1807C 754.22,1809.29 750.72,1811.12 747,1812.5C 744.678,1811.34 742.844,1809.68 741.5,1807.5C 744.69,1798.12 748.69,1789.12 753.5,1780.5C 753.192,1779.69 752.692,1779.03 752,1778.5C 751,1779.5 750,1780.5 749,1781.5C 745.15,1789.86 741.317,1798.2 737.5,1806.5C 736.328,1806.08 735.328,1805.41 734.5,1804.5C 737.765,1796.54 740.931,1788.54 744,1780.5C 752.357,1767.59 757.857,1753.59 760.5,1738.5C 760.393,1735.43 759.893,1732.43 759,1729.5C 757.295,1727.42 756.128,1725.09 755.5,1722.5 Z"/></g>
<g><path style="opacity:1" fill="#f9b837" d="M 478.5,1724.5 C 501.542,1722.92 522.209,1729.09 540.5,1743C 559.977,1763.47 565.477,1787.3 557,1814.5C 551.929,1830.18 542.096,1841.68 527.5,1849C 508.053,1858.3 487.72,1860.96 466.5,1857C 446.592,1849.09 431.758,1835.59 422,1816.5C 415.24,1791.39 419.573,1768.39 435,1747.5C 438.833,1744.33 442.667,1741.17 446.5,1738C 456.92,1732.61 467.587,1728.11 478.5,1724.5 Z"/></g>
<g><path style="opacity:1" fill="#b4cce9" d="M 321.5,1735.5 C 328.618,1743.56 337.284,1749.4 347.5,1753C 370.739,1760.15 394.406,1765.31 418.5,1768.5C 417.596,1773.04 416.596,1777.54 415.5,1782C 403.356,1782.17 391.356,1780.84 379.5,1778C 372.45,1777.8 365.45,1777.3 358.5,1776.5C 351.356,1776.58 344.69,1778.42 338.5,1782C 337.663,1783.01 337.33,1784.18 337.5,1785.5C 340.908,1784.63 344.242,1783.47 347.5,1782C 351.445,1781.08 355.445,1780.58 359.5,1780.5C 378.207,1782.29 396.874,1784.29 415.5,1786.5C 415.829,1792.54 415.496,1798.54 414.5,1804.5C 396.94,1812.14 378.607,1816.47 359.5,1817.5C 359.5,1818.83 359.5,1820.17 359.5,1821.5C 378.81,1820.07 397.476,1815.73 415.5,1808.5C 416.756,1812.36 418.09,1816.19 419.5,1820C 400.065,1835.9 379.065,1849.56 356.5,1861C 326.447,1870.9 311.947,1860.06 313,1828.5C 313.375,1826 314.208,1823.67 315.5,1821.5C 293.64,1809.09 288.473,1791.76 300,1769.5C 303.833,1765.67 307.667,1761.83 311.5,1758C 314.513,1756.34 317.68,1755.17 321,1754.5C 320.231,1751.31 319.731,1747.97 319.5,1744.5C 319.449,1741.31 320.116,1738.31 321.5,1735.5 Z"/></g>
<g><path style="opacity:1" fill="#635024" d="M 429.5,1763.5 C 430.5,1763.5 431.5,1763.5 432.5,1763.5C 429.825,1769.7 428.159,1776.2 427.5,1783C 428.78,1796.67 432.78,1809.51 439.5,1821.5C 439.167,1822.5 438.5,1823.17 437.5,1823.5C 427.066,1808.85 422.899,1792.52 425,1774.5C 426.027,1770.57 427.527,1766.91 429.5,1763.5 Z"/></g>
<g><path style="opacity:1" fill="#b2c9e5" d="M 677.5,1780.5 C 681.266,1786.52 684.933,1792.69 688.5,1799C 685.243,1800.59 681.91,1802.09 678.5,1803.5C 676.175,1802.35 674.842,1800.51 674.5,1798C 676.082,1792.26 677.082,1786.42 677.5,1780.5 Z"/></g>
<g><path style="opacity:1" fill="#f9b837" d="M 243.5,1790.5 C 260.987,1789.83 276.987,1794.33 291.5,1804C 297.441,1810.61 302.608,1817.77 307,1825.5C 316.973,1872.88 297.806,1898.54 249.5,1902.5C 228.391,1902.03 211.891,1893.03 200,1875.5C 196.873,1870.58 194.873,1865.25 194,1859.5C 190.437,1821.92 206.937,1798.92 243.5,1790.5 Z"/></g>
<g><path style="opacity:1" fill="#b4cce9" d="M 810.5,1794.5 C 829.05,1792.38 837.05,1800.38 834.5,1818.5C 843.971,1819.79 850.804,1824.79 855,1833.5C 857.782,1845.02 856.448,1856.02 851,1866.5C 848.554,1868.96 846.054,1871.29 843.5,1873.5C 846.167,1877.14 847.334,1881.14 847,1885.5C 843.793,1892.09 839.959,1898.25 835.5,1904C 834.584,1904.37 833.75,1904.87 833,1905.5C 828.718,1895.92 821.551,1889.42 811.5,1886C 804.606,1884.16 797.606,1882.83 790.5,1882C 785.54,1879.85 780.873,1877.19 776.5,1874C 772.578,1872.2 768.578,1870.7 764.5,1869.5C 765.207,1866.21 765.54,1862.88 765.5,1859.5C 777.8,1860.61 790.134,1860.77 802.5,1860C 806.956,1859.74 811.289,1858.9 815.5,1857.5C 814.473,1855.98 812.973,1855.31 811,1855.5C 797.223,1857.41 783.389,1857.91 769.5,1857C 768.234,1856.69 767.067,1856.19 766,1855.5C 765.88,1849.71 765.046,1844.04 763.5,1838.5C 767.847,1834.66 772.847,1831.82 778.5,1830C 787.13,1827.54 795.797,1825.21 804.5,1823C 805.91,1822.63 806.91,1821.8 807.5,1820.5C 793.735,1821.8 780.401,1825.3 767.5,1831C 765.833,1832.17 764.167,1833.33 762.5,1834.5C 759.963,1829.93 757.296,1825.43 754.5,1821C 762.814,1817.01 771.481,1814.01 780.5,1812C 786.444,1808.39 792.111,1804.39 797.5,1800C 801.893,1798.04 806.226,1796.21 810.5,1794.5 Z"/></g>
<g><path style="opacity:1" fill="#b4cce9" d="M 112.5,1799.5 C 117.821,1806.01 124.488,1810.85 132.5,1814C 152.497,1820.07 172.831,1824.73 193.5,1828C 191.792,1831.29 190.792,1834.79 190.5,1838.5C 179.996,1838.86 169.662,1837.69 159.5,1835C 151.167,1834.33 142.833,1834.33 134.5,1835C 131.716,1835.89 129.05,1837.06 126.5,1838.5C 125.614,1839.32 125.281,1840.32 125.5,1841.5C 131.523,1838.89 137.856,1837.56 144.5,1837.5C 159.557,1838.68 174.557,1840.35 189.5,1842.5C 189.223,1847.23 189.557,1851.9 190.5,1856.5C 175.815,1862.84 160.482,1866.67 144.5,1868C 143.167,1869 143.167,1870 144.5,1871C 160.068,1870.09 175.068,1866.59 189.5,1860.5C 191.349,1863.32 192.683,1866.49 193.5,1870C 177.266,1882.88 159.932,1894.21 141.5,1904C 119.168,1912.34 106.835,1904.67 104.5,1881C 104.647,1877.73 105.314,1874.56 106.5,1871.5C 101.242,1868.08 96.7415,1863.74 93,1858.5C 87.7606,1847.72 88.4272,1837.39 95,1827.5C 98.5338,1823.63 102.367,1820.13 106.5,1817C 108.134,1816.51 109.801,1816.34 111.5,1816.5C 109.989,1810.67 110.323,1805 112.5,1799.5 Z"/></g>
<g><path style="opacity:1" fill="#f9b837" d="M 695.5,1800.5 C 711.692,1799.73 726.692,1803.57 740.5,1812C 761.038,1828.29 767.538,1849.12 760,1874.5C 756.405,1885.21 750.239,1894.04 741.5,1901C 727.184,1909.08 711.85,1912.75 695.5,1912C 673.463,1909.22 657.63,1897.72 648,1877.5C 644.615,1869.25 644.782,1861.25 648.5,1853.5C 650.716,1863.31 654.216,1872.65 659,1881.5C 660.297,1882.78 661.464,1882.62 662.5,1881C 656.98,1872.11 653.646,1862.44 652.5,1852C 657.114,1843.94 661.614,1835.78 666,1827.5C 666.813,1823.34 666.313,1819.34 664.5,1815.5C 667.458,1812.06 671.124,1809.56 675.5,1808C 682.304,1805.57 688.971,1803.07 695.5,1800.5 Z"/></g>
<g><path style="opacity:1" fill="#abbfd6" d="M 671.5,1802.5 C 672.922,1802.75 673.922,1803.58 674.5,1805C 668.229,1808.89 667.229,1808.05 671.5,1802.5 Z"/></g>
<g><path style="opacity:1" fill="#b4cce9" d="M 561.5,1810.5 C 571.702,1814.27 581.369,1819.1 590.5,1825C 599.111,1826.85 607.778,1828.51 616.5,1830C 626.467,1833.06 634.301,1838.89 640,1847.5C 644.854,1860.27 641.354,1870.1 629.5,1877C 639.596,1893.85 636.929,1908.51 621.5,1921C 612.242,1929.09 601.576,1932.09 589.5,1930C 588.199,1933.56 586.699,1937.06 585,1940.5C 583.786,1942.05 582.286,1943.22 580.5,1944C 572.986,1945.84 565.486,1947.67 558,1949.5C 555.855,1949.6 554.021,1948.94 552.5,1947.5C 558.144,1927.59 553.644,1910.26 539,1895.5C 535.664,1888.17 533.331,1880.5 532,1872.5C 529.833,1866.67 527.667,1860.83 525.5,1855C 527.801,1852.84 530.467,1851.18 533.5,1850C 534.635,1849.25 535.635,1849.42 536.5,1850.5C 543.04,1865.76 551.707,1879.6 562.5,1892C 563.448,1892.48 564.448,1892.65 565.5,1892.5C 555.612,1878.42 546.946,1863.42 539.5,1847.5C 544.564,1842.61 549.064,1837.27 553,1831.5C 562.943,1838.44 571.943,1846.44 580,1855.5C 582.527,1859.22 584.527,1863.22 586,1867.5C 587.011,1868.34 588.178,1868.67 589.5,1868.5C 586.279,1857.08 579.946,1847.58 570.5,1840C 565.167,1836 559.833,1832 554.5,1828C 558.099,1822.64 560.432,1816.81 561.5,1810.5 Z"/></g>
<g><path style="opacity:1" fill="#645124" d="M 201.5,1823.5 C 202.5,1823.5 203.5,1823.5 204.5,1823.5C 199.669,1834.16 199.336,1844.99 203.5,1856C 205.295,1861.26 207.628,1866.26 210.5,1871C 209.975,1871.69 209.308,1872.19 208.5,1872.5C 197.198,1857.35 194.865,1841.02 201.5,1823.5 Z"/></g>
<g><path style="opacity:1" fill="#b4cbe9" d="M 420.5,1824.5 C 422.384,1825.38 423.717,1826.88 424.5,1829C 418.33,1832.92 411.997,1836.59 405.5,1840C 395.831,1846.86 389.831,1856.02 387.5,1867.5C 388.675,1867.72 389.675,1867.39 390.5,1866.5C 393.489,1857.36 398.822,1849.86 406.5,1844C 413.33,1840.42 419.997,1836.59 426.5,1832.5C 431.324,1838.16 436.657,1843.32 442.5,1848C 432.717,1863.56 421.717,1878.23 409.5,1892C 402.289,1895.85 394.956,1899.52 387.5,1903C 386.179,1904.54 386.512,1905.71 388.5,1906.5C 397.607,1902.78 406.274,1898.28 414.5,1893C 425.61,1879.28 436.11,1865.11 446,1850.5C 448.813,1852.15 451.313,1854.15 453.5,1856.5C 443.993,1874.49 433.493,1891.82 422,1908.5C 414.898,1920.24 411.898,1932.91 413,1946.5C 413.303,1948.89 414.137,1951.06 415.5,1953C 408.74,1952.29 402.74,1949.62 397.5,1945C 393.857,1941.21 390.857,1937.04 388.5,1932.5C 365.636,1939.65 350.136,1931.98 342,1909.5C 341.333,1903.17 341.333,1896.83 342,1890.5C 342.773,1887.79 343.94,1885.29 345.5,1883C 339.662,1879.99 335.328,1875.49 332.5,1869.5C 345.728,1869.15 358.062,1865.65 369.5,1859C 386.951,1848.03 403.951,1836.53 420.5,1824.5 Z"/></g>
<g><path style="opacity:1" fill="#624f23" d="M 440.5,1832.5 C 441.552,1832.35 442.552,1832.52 443.5,1833C 446.846,1836.67 450.846,1839.34 455.5,1841C 456.841,1842.83 456.341,1843.99 454,1844.5C 447.374,1842.7 442.874,1838.7 440.5,1832.5 Z"/></g>
<g><path style="opacity:1" fill="#adc2da" d="M 313.5,1855.5 C 314.933,1856.83 316.267,1858.33 317.5,1860C 315.893,1859.98 314.226,1859.81 312.5,1859.5C 312.433,1858.04 312.766,1856.71 313.5,1855.5 Z"/></g>
<g><path style="opacity:1" fill="#b4cce9" d="M 520.5,1855.5 C 526.394,1866.02 530.228,1877.35 532,1889.5C 535.922,1897.02 540.589,1904.02 546,1910.5C 551.048,1919.93 552.715,1929.93 551,1940.5C 545.837,1954 536.337,1958.83 522.5,1955C 522.095,1959.25 520.595,1963.08 518,1966.5C 514.833,1969.67 511.667,1972.83 508.5,1976C 505.754,1977.75 502.754,1978.75 499.5,1979C 486.492,1981.43 474.492,1979.09 463.5,1972C 460.77,1969.87 458.77,1967.2 457.5,1964C 452.321,1965.58 446.988,1966.58 441.5,1967C 435.33,1963.08 428.997,1959.41 422.5,1956C 415.167,1947.53 413.667,1938.03 418,1927.5C 425.538,1908.66 435.538,1891.32 448,1875.5C 450.912,1869.34 454.079,1863.34 457.5,1857.5C 461.96,1859.62 466.627,1861.12 471.5,1862C 461.121,1884.44 457.288,1907.94 460,1932.5C 460.71,1933.97 461.876,1934.64 463.5,1934.5C 461.061,1909.8 464.895,1886.13 475,1863.5C 483.446,1862.72 491.946,1862.06 500.5,1861.5C 503.733,1878.36 506.066,1895.36 507.5,1912.5C 506.799,1916.81 506.466,1921.14 506.5,1925.5C 508.124,1925.64 509.29,1924.97 510,1923.5C 511.451,1902.45 509.285,1881.78 503.5,1861.5C 509.399,1859.87 515.066,1857.87 520.5,1855.5 Z"/></g>
<g><path style="opacity:1" fill="#b4cbe9" d="M 311.5,1862.5 C 316.701,1864.1 321.701,1866.26 326.5,1869C 330.086,1874.92 334.753,1879.92 340.5,1884C 331.892,1913.29 342.225,1932.12 371.5,1940.5C 365.68,1951.16 357.013,1958.32 345.5,1962C 341.49,1962.36 337.49,1962.19 333.5,1961.5C 333.219,1966.23 331.219,1970.06 327.5,1973C 322.677,1973.83 318.011,1975.16 313.5,1977C 309.967,1977.9 306.633,1977.57 303.5,1976C 307.892,1964.86 307.059,1954.03 301,1943.5C 297.667,1938.83 294.333,1934.17 291,1929.5C 288.33,1918.66 285.164,1907.99 281.5,1897.5C 284.354,1897.08 287.021,1896.08 289.5,1894.5C 295.081,1904.66 300.914,1914.66 307,1924.5C 309.145,1927.17 311.645,1929.17 314.5,1930.5C 314.649,1929.45 314.483,1928.45 314,1927.5C 305.271,1917.22 298.438,1905.72 293.5,1893C 297.368,1888.8 300.868,1884.3 304,1879.5C 311.883,1884.38 318.883,1890.38 325,1897.5C 328.238,1901.31 330.404,1905.64 331.5,1910.5C 332.5,1910.5 333.5,1910.5 334.5,1910.5C 334.201,1906.89 333.035,1903.56 331,1900.5C 324.511,1891.26 316.511,1883.59 307,1877.5C 308.369,1872.55 309.869,1867.55 311.5,1862.5 Z"/></g>
<g><path style="opacity:1" fill="#484fa2" d="M 1586.5,1861.5 C 1586.5,1915.83 1586.5,1970.17 1586.5,2024.5C 1543.93,2047.58 1503.93,2074.42 1466.5,2105C 1438.42,2129.06 1415.59,2157.23 1398,2189.5C 1389.48,2206.89 1384.31,2225.22 1382.5,2244.5C 1307.5,2244.5 1232.5,2244.5 1157.5,2244.5C 1185.65,2191.18 1225.65,2149.01 1277.5,2118C 1329.1,2086.73 1380.43,2055.06 1431.5,2023C 1458.63,2005.21 1484.63,1985.87 1509.5,1965C 1543.09,1936.27 1568.75,1901.77 1586.5,1861.5 Z"/></g>
<g><path style="opacity:1" fill="#b0c5e0" d="M 641.5,1870.5 C 647.442,1876.95 646.442,1881.95 638.5,1885.5C 637.82,1882.64 636.487,1880.14 634.5,1878C 637.739,1876.26 640.073,1873.76 641.5,1870.5 Z"/></g>
<g><path style="opacity:1" fill="#b4cce9" d="M 763.5,1872.5 C 771.702,1875.27 779.369,1879.1 786.5,1884C 793.404,1885.8 800.404,1887.13 807.5,1888C 818.455,1890.63 825.955,1897.13 830,1907.5C 830.965,1916.57 827.465,1923.24 819.5,1927.5C 825.45,1936.47 825.95,1945.8 821,1955.5C 814.216,1964.72 805.216,1970.39 794,1972.5C 791.183,1971.97 788.35,1971.64 785.5,1971.5C 785.192,1976.28 783.192,1980.12 779.5,1983C 773.282,1984.36 767.116,1985.86 761,1987.5C 759.033,1987.46 757.199,1986.96 755.5,1986C 760.098,1974.03 758.931,1962.53 752,1951.5C 744.027,1943.94 739.694,1934.61 739,1923.5C 737.265,1918.79 735.431,1914.13 733.5,1909.5C 736.024,1906.9 739.024,1905.4 742.5,1905C 747.868,1917.58 754.868,1929.08 763.5,1939.5C 764.325,1940.39 765.325,1940.72 766.5,1940.5C 758.95,1929.09 752.117,1917.09 746,1904.5C 745.333,1903.5 745.333,1902.5 746,1901.5C 749.536,1898.3 752.703,1894.8 755.5,1891C 756.5,1890.33 757.5,1890.33 758.5,1891C 765.262,1895.76 771.429,1901.26 777,1907.5C 780.238,1911.31 782.404,1915.64 783.5,1920.5C 784.5,1920.5 785.5,1920.5 786.5,1920.5C 785.185,1913.54 782.018,1907.54 777,1902.5C 771.292,1897.12 765.292,1892.12 759,1887.5C 760.444,1882.58 761.944,1877.58 763.5,1872.5 Z"/></g>
<g><path style="opacity:1" fill="#b4cbe8" d="M 194.5,1873.5 C 195.965,1874.41 196.965,1875.74 197.5,1877.5C 187.84,1882.25 179.34,1888.58 172,1896.5C 169.181,1900.12 167.514,1904.12 167,1908.5C 167.893,1909.71 168.726,1909.71 169.5,1908.5C 172.103,1901.73 176.103,1895.89 181.5,1891C 187.336,1887.25 193.336,1883.75 199.5,1880.5C 203.5,1885.17 207.833,1889.5 212.5,1893.5C 205.333,1903.83 198.167,1914.17 191,1924.5C 184.209,1930.82 176.376,1935.48 167.5,1938.5C 166.614,1939.32 166.281,1940.32 166.5,1941.5C 179.777,1938.62 190.277,1931.62 198,1920.5C 203.5,1912.33 209,1904.17 214.5,1896C 216.503,1896.42 218.503,1897.25 220.5,1898.5C 221.583,1899.36 221.749,1900.36 221,1901.5C 214.671,1914.17 207.337,1926.17 199,1937.5C 192.77,1947.13 188.937,1957.63 187.5,1969C 187.409,1973.3 188.409,1977.3 190.5,1981C 184.951,1980.06 179.951,1977.73 175.5,1974C 172.458,1970.73 169.791,1967.23 167.5,1963.5C 139.77,1968.61 126.937,1956.95 129,1928.5C 129.536,1926.13 130.703,1924.13 132.5,1922.5C 127.861,1919.86 124.194,1916.19 121.5,1911.5C 134.113,1910.57 145.779,1906.74 156.5,1900C 169.408,1891.39 182.074,1882.56 194.5,1873.5 Z"/></g>
<g><path style="opacity:1" fill="#665124" d="M 210.5,1880.5 C 211.552,1880.35 212.552,1880.52 213.5,1881C 216.908,1884.08 220.575,1886.75 224.5,1889C 222.586,1890.83 220.586,1890.83 218.5,1889C 214.93,1886.93 212.263,1884.1 210.5,1880.5 Z"/></g>
<g><path style="opacity:1" fill="#b0c6e0" d="M 646.5,1883.5 C 647.965,1884.41 648.965,1885.74 649.5,1887.5C 646.498,1890 643.165,1892 639.5,1893.5C 638.386,1892.28 638.219,1890.94 639,1889.5C 641.688,1887.64 644.188,1885.64 646.5,1883.5 Z"/></g>
<g><path style="opacity:1" fill="#655124" d="M 662.5,1890.5 C 663.552,1890.35 664.552,1890.52 665.5,1891C 668.908,1894.08 672.575,1896.75 676.5,1899C 674.586,1900.83 672.586,1900.83 670.5,1899C 666.93,1896.93 664.263,1894.1 662.5,1890.5 Z"/></g>
<g><path style="opacity:1" fill="#b3cbe8" d="M 650.5,1890.5 C 654.76,1894.58 659.26,1898.58 664,1902.5C 658.064,1913.66 651.064,1924.33 643,1934.5C 636.545,1940.65 629.045,1945.15 620.5,1948C 618.441,1949.19 618.274,1950.35 620,1951.5C 630.637,1948.35 639.637,1942.69 647,1934.5C 653.833,1924.83 660.667,1915.17 667.5,1905.5C 669.71,1906.77 671.71,1908.27 673.5,1910C 666.806,1923.89 658.973,1937.06 650,1949.5C 644.502,1958.66 641.002,1968.5 639.5,1979C 639.409,1983.3 640.409,1987.3 642.5,1991C 636.951,1990.06 631.951,1987.73 627.5,1984C 624.61,1980.62 621.944,1977.12 619.5,1973.5C 608.669,1977.75 598.669,1976.25 589.5,1969C 583.681,1963.05 580.681,1955.88 580.5,1947.5C 586.15,1945.51 589.816,1941.51 591.5,1935.5C 610.134,1934.93 624.634,1926.93 635,1911.5C 637.403,1907.12 638.903,1902.46 639.5,1897.5C 643.401,1895.39 647.067,1893.06 650.5,1890.5 Z"/></g>
<g><path style="opacity:1" fill="#b4cce9" d="M 276.5,1899.5 C 277.376,1899.37 278.043,1899.7 278.5,1900.5C 282.441,1909.49 285.275,1918.82 287,1928.5C 291,1934.5 295,1940.5 299,1946.5C 303.059,1954.84 304.059,1963.51 302,1972.5C 297.081,1981.58 289.748,1984.58 280,1981.5C 273.021,2000.9 259.521,2007.4 239.5,2001C 232.78,1998.49 227.447,1994.32 223.5,1988.5C 219.832,1990.92 215.832,1992.08 211.5,1992C 204.901,1988.45 198.735,1984.29 193,1979.5C 189.824,1972.21 189.824,1964.87 193,1957.5C 199.221,1942.72 207.221,1929.05 217,1916.5C 219.372,1911.59 221.872,1906.75 224.5,1902C 228.56,1902.63 232.56,1903.79 236.5,1905.5C 226.896,1924.76 224.396,1944.76 229,1965.5C 229.991,1964.57 230.491,1963.4 230.5,1962C 228.393,1942.7 231.393,1924.2 239.5,1906.5C 246.506,1905.72 253.506,1905.06 260.5,1904.5C 264.87,1921.94 266.536,1939.6 265.5,1957.5C 267.124,1957.64 268.29,1956.97 269,1955.5C 269.47,1937.93 267.637,1920.59 263.5,1903.5C 268.264,1903.23 272.597,1901.9 276.5,1899.5 Z"/></g>
<g><path style="opacity:1" fill="#b4cce9" d="M 728.5,1909.5 C 729.75,1909.58 730.583,1910.24 731,1911.5C 735.043,1920.09 737.71,1929.09 739,1938.5C 742.276,1944.11 745.943,1949.44 750,1954.5C 755.208,1963.32 756.541,1972.65 754,1982.5C 749.192,1991.91 741.859,1994.91 732,1991.5C 726.219,2009.31 714.053,2016.15 695.5,2012C 686.783,2010.44 680.117,2005.94 675.5,1998.5C 672.559,2000.74 669.226,2002.07 665.5,2002.5C 660.315,1999.5 654.982,1996.67 649.5,1994C 642.978,1987.74 641.144,1980.24 644,1971.5C 646.168,1964.16 649.168,1957.16 653,1950.5C 661.681,1937.8 669.848,1924.8 677.5,1911.5C 681.172,1912.84 684.839,1914.17 688.5,1915.5C 678.894,1934.77 676.394,1954.77 681,1975.5C 681.944,1974.74 682.444,1973.74 682.5,1972.5C 680.472,1953.03 683.472,1934.37 691.5,1916.5C 698.389,1915.82 705.222,1915.15 712,1914.5C 717.065,1931.85 718.898,1949.52 717.5,1967.5C 718.5,1967.5 719.5,1967.5 720.5,1967.5C 721.916,1949.24 720.249,1931.24 715.5,1913.5C 720.289,1913.35 724.622,1912.01 728.5,1909.5 Z"/></g>
<g><path style="opacity:1" fill="#fefefe" d="M 384.5,1937.5 C 387.713,1938.16 389.879,1940.16 391,1943.5C 398.926,1952.21 408.759,1957.38 420.5,1959C 426.5,1962.67 432.5,1966.33 438.5,1970C 441.553,1970.18 444.553,1970.68 447.5,1971.5C 443.142,1993.6 440.976,2015.93 441,2038.5C 432.969,2050.53 422.469,2059.7 409.5,2066C 403.82,2067.94 397.986,2069.1 392,2069.5C 367.679,2065.23 343.179,2062.39 318.5,2061C 304.863,2060.23 292.53,2055.9 281.5,2048C 267.672,2035.36 256.006,2021.2 246.5,2005.5C 259.653,2008.34 270.153,2004.34 278,1993.5C 279.247,1990.67 280.747,1988 282.5,1985.5C 289.536,1987.21 295.536,1985.38 300.5,1980C 310.918,1981.09 320.918,1979.42 330.5,1975C 333.293,1971.92 335.46,1968.42 337,1964.5C 347.088,1965.92 355.921,1963.08 363.5,1956C 368.633,1951.39 372.3,1945.89 374.5,1939.5C 378.16,1939.84 381.493,1939.17 384.5,1937.5 Z"/></g>
<g><path style="opacity:1" fill="#fefefe" d="M 576.5,1948.5 C 580.928,1972.05 594.928,1981.71 618.5,1977.5C 624.87,1988.03 634.203,1993.86 646.5,1995C 651.833,1998.33 657.167,2001.67 662.5,2005C 664.473,2005.5 666.473,2005.66 668.5,2005.5C 665.235,2023.68 663.569,2042.01 663.5,2060.5C 641.431,2061.94 619.431,2064.11 597.5,2067C 591.411,2068.36 585.411,2070.02 579.5,2072C 573.862,2074.73 568.362,2077.57 563,2080.5C 550.58,2079.47 539.413,2075.31 529.5,2068C 518.5,2055.67 507.5,2043.33 496.5,2031C 490.881,2026.9 484.881,2024.9 478.5,2025C 479.672,2011.11 481.339,1997.28 483.5,1983.5C 503.299,1986.27 517.299,1978.6 525.5,1960.5C 535.098,1960.86 543.432,1957.86 550.5,1951.5C 553.235,1952.56 556.069,1953.23 559,1953.5C 565.156,1952.5 570.99,1950.83 576.5,1948.5 Z"/></g>
<g><path style="opacity:1" fill="#3c8f6f" d="M 514.5,2244.5 C 506.833,2244.5 499.167,2244.5 491.5,2244.5C 488.944,2219.17 484.444,2194.17 478,2169.5C 476.174,2168.16 475.007,2168.66 474.5,2171C 480.53,2195.28 485.197,2219.78 488.5,2244.5C 486.833,2244.5 485.167,2244.5 483.5,2244.5C 480.969,2223.68 477.469,2203.01 473,2182.5C 465.201,2151.44 457.201,2120.44 449,2089.5C 442.576,2049.29 443.576,2009.29 452,1969.5C 453,1968.83 454,1968.17 455,1967.5C 461.016,1975.93 469.182,1980.93 479.5,1982.5C 472.412,2020.63 472.912,2058.63 481,2096.5C 496.272,2144.92 507.439,2194.25 514.5,2244.5 Z"/></g>
<g><path style="opacity:1" fill="#3c8f6f" d="M 221.5,1998.5 C 226.98,1999.05 231.98,2000.88 236.5,2004C 245.732,2012.66 253.898,2022.16 261,2032.5C 273.618,2049.73 290.452,2060.23 311.5,2064C 332.179,2065.83 352.846,2067.83 373.5,2070C 385.709,2071.62 397.042,2075.62 407.5,2082C 422.045,2094.21 436.878,2106.05 452,2117.5C 457.135,2134.37 461.468,2151.37 465,2168.5C 454.956,2160.3 445.29,2151.64 436,2142.5C 429.418,2133 423.085,2123.34 417,2113.5C 413.019,2108.77 408.185,2105.44 402.5,2103.5C 403.306,2107.27 405.639,2109.77 409.5,2111C 417.78,2121.28 425.28,2132.12 432,2143.5C 435.934,2146.89 438.767,2150.55 440.5,2154.5C 425.943,2149.37 411.277,2144.54 396.5,2140C 385.173,2134.67 374.506,2128.34 364.5,2121C 355.73,2111.47 346.73,2102.14 337.5,2093C 332.718,2089.52 327.552,2086.69 322,2084.5C 319.659,2085.01 319.159,2086.17 320.5,2088C 326.449,2089.97 331.783,2092.97 336.5,2097C 343.5,2104.67 350.5,2112.33 357.5,2120C 363.221,2124.72 369.221,2129.05 375.5,2133C 355.119,2129.99 335.453,2124.32 316.5,2116C 310.035,2112.35 304.202,2107.85 299,2102.5C 291.826,2090.82 285.159,2078.82 279,2066.5C 275.992,2062.33 272.492,2058.66 268.5,2055.5C 266.899,2056.03 266.399,2057.03 267,2058.5C 271.087,2061.92 274.42,2065.92 277,2070.5C 281.706,2079.41 286.54,2088.25 291.5,2097C 290.833,2097.67 290.167,2097.67 289.5,2097C 266.101,2075.25 248.601,2049.42 237,2019.5C 235.989,2018.66 234.822,2018.33 233.5,2018.5C 245.503,2052.98 265.503,2081.82 293.5,2105C 301.565,2110.73 309.899,2116.06 318.5,2121C 294.624,2120.7 272.624,2114.2 252.5,2101.5C 250.512,2102.29 250.179,2103.46 251.5,2105C 260.219,2111.53 269.886,2116.19 280.5,2119C 298.683,2122.87 317.017,2125.87 335.5,2128C 356.121,2132.24 376.454,2137.57 396.5,2144C 369.845,2144.46 343.511,2147.62 317.5,2153.5C 310.096,2152.55 302.763,2151.22 295.5,2149.5C 292.149,2149.99 291.816,2151.15 294.5,2153C 301.689,2155.13 309.023,2156.3 316.5,2156.5C 331.492,2154.4 346.492,2152.24 361.5,2150C 392.048,2145.59 421.382,2149.59 449.5,2162C 452.167,2163.67 454.833,2165.33 457.5,2167C 452.881,2166.62 448.215,2166.12 443.5,2165.5C 428.829,2167.58 414.496,2171.08 400.5,2176C 393.554,2177.37 386.554,2178.37 379.5,2179C 378.549,2179.72 378.383,2180.55 379,2181.5C 382.744,2182.63 386.577,2182.79 390.5,2182C 406.512,2178 422.512,2174 438.5,2170C 446.39,2169.18 454.056,2170.18 461.5,2173C 464.102,2173.88 466.269,2175.38 468,2177.5C 469.835,2186.51 471.668,2195.51 473.5,2204.5C 456.663,2202.94 440.329,2205.11 424.5,2211C 391.883,2218.68 361.55,2213.34 333.5,2195C 323.833,2187.33 314.167,2179.67 304.5,2172C 283.808,2162.24 265.975,2148.74 251,2131.5C 243.287,2121.4 238.287,2110.07 236,2097.5C 234.421,2076.46 232.421,2055.46 230,2034.5C 228.708,2025.25 225.708,2016.58 221,2008.5C 220.253,2005.08 220.42,2001.74 221.5,1998.5 Z"/></g>
<g><path style="opacity:1" fill="#3c8f6f" d="M 749.5,1998.5 C 754.239,1997.41 756.239,1999.24 755.5,2004C 752.078,2012.6 749.245,2021.43 747,2030.5C 744.299,2055.88 741.299,2081.21 738,2106.5C 729.859,2127.61 716.359,2144.44 697.5,2157C 687.169,2162.5 677.169,2168.5 667.5,2175C 627.521,2213.73 581.188,2223.73 528.5,2205C 522.843,2204.5 517.176,2204.33 511.5,2204.5C 510.475,2196.04 508.808,2187.71 506.5,2179.5C 510.029,2174.9 514.696,2172.06 520.5,2171C 526.097,2169.54 531.763,2169.21 537.5,2170C 551.659,2173.05 565.659,2176.72 579.5,2181C 585.119,2182.3 590.786,2182.63 596.5,2182C 597.833,2181 597.833,2180 596.5,2179C 589.078,2178.65 581.744,2177.65 574.5,2176C 560.204,2170.93 545.537,2167.43 530.5,2165.5C 526.437,2166.02 522.437,2166.52 518.5,2167C 545.078,2151.39 573.744,2145.39 604.5,2149C 622.883,2151.29 641.216,2153.79 659.5,2156.5C 666.936,2156.08 674.269,2154.91 681.5,2153C 684.011,2150.62 683.344,2149.45 679.5,2149.5C 672.551,2151.09 665.551,2152.42 658.5,2153.5C 632.451,2147.95 606.117,2144.79 579.5,2144C 597.892,2137.98 616.559,2132.98 635.5,2129C 656.634,2126.08 677.634,2122.41 698.5,2118C 708.254,2115.21 717.088,2110.71 725,2104.5C 725.483,2103.55 725.649,2102.55 725.5,2101.5C 716.834,2106.16 707.834,2110.33 698.5,2114C 685.068,2117.96 671.401,2120.29 657.5,2121C 684.528,2105.97 706.361,2085.47 723,2059.5C 727.824,2049.18 733.158,2039.18 739,2029.5C 740.759,2025.99 741.926,2022.32 742.5,2018.5C 741.178,2018.33 740.011,2018.66 739,2019.5C 729.954,2040.6 718.621,2060.27 705,2078.5C 699.167,2084.33 693.333,2090.17 687.5,2096C 686.833,2096.67 686.167,2096.67 685.5,2096C 692.276,2081.91 700.11,2068.74 709,2056.5C 708.282,2055.55 707.449,2055.38 706.5,2056C 701.494,2060.53 697.327,2065.69 694,2071.5C 689.095,2082.31 683.428,2092.65 677,2102.5C 666.483,2112.99 653.983,2120.16 639.5,2124C 626.527,2127.49 613.527,2130.49 600.5,2133C 606.779,2129.05 612.779,2124.72 618.5,2120C 625.5,2112.33 632.5,2104.67 639.5,2097C 644.901,2092.97 650.567,2089.47 656.5,2086.5C 656.113,2085.28 655.28,2084.61 654,2084.5C 648.448,2086.69 643.282,2089.52 638.5,2093C 629.73,2102.53 620.73,2111.86 611.5,2121C 602.163,2128.01 592.163,2134.01 581.5,2139C 565.723,2144.04 550.057,2149.04 534.5,2154C 544.263,2143.64 552.43,2132.14 559,2119.5C 562.712,2114.12 567.379,2109.79 573,2106.5C 573.483,2105.55 573.649,2104.55 573.5,2103.5C 567.815,2105.44 562.981,2108.77 559,2113.5C 550.803,2129.04 540.303,2142.87 527.5,2155C 519.211,2160.23 512.044,2166.73 506,2174.5C 503.835,2165.84 501.668,2157.17 499.5,2148.5C 501.189,2143.59 503.356,2138.93 506,2134.5C 511.531,2128.63 517.365,2123.13 523.5,2118C 538.789,2106.38 553.789,2094.38 568.5,2082C 577.11,2076.57 586.443,2072.91 596.5,2071C 619.104,2068.11 641.77,2065.77 664.5,2064C 685.56,2060.22 702.393,2049.72 715,2032.5C 722.102,2022.16 730.268,2012.66 739.5,2004C 742.767,2001.87 746.1,2000.04 749.5,1998.5 Z"/></g>
<g><path style="opacity:1" fill="#5a4e26" d="M 451.5,2003.5 C 452.5,2003.5 453.5,2003.5 454.5,2003.5C 451.266,2036.42 452.932,2069.08 459.5,2101.5C 459.103,2106.11 457.936,2106.44 456,2102.5C 449.241,2069.71 447.741,2036.71 451.5,2003.5 Z"/></g>
<g><path style="opacity:1" fill="#3c8e6e" d="M 674.5,2002.5 C 679.441,2009.25 686.108,2013.41 694.5,2015C 695.059,2015.72 695.392,2016.56 695.5,2017.5C 693.508,2028.11 692.175,2038.78 691.5,2049.5C 686.236,2053.8 680.236,2056.46 673.5,2057.5C 673.782,2049.16 674.116,2040.83 674.5,2032.5C 673.5,2032.5 672.5,2032.5 671.5,2032.5C 670.913,2041.16 670.413,2049.82 670,2058.5C 668.989,2059.34 667.822,2059.67 666.5,2059.5C 667.013,2041.04 668.846,2022.7 672,2004.5C 672.995,2003.93 673.828,2003.27 674.5,2002.5 Z"/></g>
<g><path style="opacity:1" fill="#3d8e6e" d="M 274.5,2244.5 C 268.5,2244.5 262.5,2244.5 256.5,2244.5C 253.881,2217.23 249.381,2190.23 243,2163.5C 242.366,2159.41 241.199,2158.91 239.5,2162C 246.264,2189.12 250.597,2216.62 252.5,2244.5C 251.5,2244.5 250.5,2244.5 249.5,2244.5C 244.394,2196.54 234.56,2149.54 220,2103.5C 213.612,2072.59 212.945,2041.59 218,2010.5C 222.266,2017.97 224.933,2025.97 226,2034.5C 228.541,2055.45 230.541,2076.45 232,2097.5C 235.872,2115.58 244.205,2131.25 257,2144.5C 265.733,2177.33 271.566,2210.66 274.5,2244.5 Z"/></g>
<g><path style="opacity:1" fill="#3c8f6f" d="M 29.5,2018.5 C 34.7083,2018.94 39.375,2020.77 43.5,2024C 52.3764,2033.87 60.8764,2044.04 69,2054.5C 77.5671,2063.72 88.0671,2069.55 100.5,2072C 122.599,2073.88 144.599,2076.54 166.5,2080C 173.501,2081.67 179.834,2084.67 185.5,2089C 197.022,2098.69 208.688,2108.19 220.5,2117.5C 224.399,2130.59 228.065,2143.76 231.5,2157C 231.15,2158.26 230.483,2158.59 229.5,2158C 221.401,2151.9 213.901,2145.07 207,2137.5C 201.834,2130.51 197.167,2123.17 193,2115.5C 189.418,2110.73 184.918,2107.39 179.5,2105.5C 179.281,2106.68 179.614,2107.68 180.5,2108.5C 185.144,2111.31 188.977,2114.98 192,2119.5C 197.149,2129.63 203.649,2138.8 211.5,2147C 193.475,2142.82 176.142,2136.48 159.5,2128C 154.833,2124.67 150.167,2121.33 145.5,2118C 139.833,2111.67 134.167,2105.33 128.5,2099C 123.662,2095.08 118.329,2091.91 112.5,2089.5C 109.972,2090.52 109.972,2091.68 112.5,2093C 116.327,2094.75 119.993,2096.75 123.5,2099C 130.833,2106.67 138.167,2114.33 145.5,2122C 149.5,2124.67 153.5,2127.33 157.5,2130C 137.161,2127.66 118.161,2121.33 100.5,2111C 97.6667,2108.17 94.8333,2105.33 92,2102.5C 87.3333,2093.83 82.6667,2085.17 78,2076.5C 75.766,2072.54 72.9327,2069.04 69.5,2066C 68.2752,2065.44 67.2752,2065.77 66.5,2067C 74.2189,2076.24 80.5523,2086.4 85.5,2097.5C 84.9984,2098.52 84.3317,2098.69 83.5,2098C 74.8373,2089.48 67.004,2080.32 60,2070.5C 53.7237,2058.27 47.2237,2046.27 40.5,2034.5C 51.8099,2072.5 75.1432,2101 110.5,2120C 90.2705,2120.14 71.7705,2114.64 55,2103.5C 53.3831,2104.54 53.2164,2105.7 54.5,2107C 61.4969,2112 69.1635,2115.66 77.5,2118C 110.379,2122.44 142.712,2129.44 174.5,2139C 164.139,2139.27 153.805,2139.94 143.5,2141C 131.819,2142.84 120.152,2144.67 108.5,2146.5C 101.746,2146.02 95.0798,2145.02 88.5,2143.5C 88.5,2144.5 88.5,2145.5 88.5,2146.5C 95.2001,2148.34 102.033,2149.34 109,2149.5C 120.892,2148.16 132.726,2146.32 144.5,2144C 168.252,2140.51 191.252,2143.18 213.5,2152C 217.327,2153.75 220.993,2155.75 224.5,2158C 216.504,2157.13 208.504,2157.47 200.5,2159C 186.834,2163.33 173.167,2166.83 159.5,2169.5C 163.795,2170.66 168.129,2170.83 172.5,2170C 182.224,2167.54 191.891,2164.87 201.5,2162C 212.509,2159.1 223.009,2160.27 233,2165.5C 235.151,2173.42 236.984,2181.42 238.5,2189.5C 231.159,2189.33 223.826,2189.5 216.5,2190C 205.296,2192.97 193.963,2195.3 182.5,2197C 160.415,2198.42 140.082,2193.08 121.5,2181C 108.548,2169.05 94.2146,2159.05 78.5,2151C 61.4941,2140.67 49.6608,2126.17 43,2107.5C 40.3016,2086.88 37.9683,2066.21 36,2045.5C 34.5167,2038.86 32.1834,2032.53 29,2026.5C 28.2782,2023.74 28.4448,2021.07 29.5,2018.5 Z"/></g>
<g><path style="opacity:1" fill="#5a4e27" d="M 219.5,2022.5 C 220.5,2022.5 221.5,2022.5 222.5,2022.5C 220.171,2049.53 221.505,2076.36 226.5,2103C 226.167,2104.17 225.833,2105.33 225.5,2106.5C 224.914,2106.29 224.414,2105.96 224,2105.5C 221.777,2095.94 220.11,2086.27 219,2076.5C 218.25,2058.48 218.417,2040.48 219.5,2022.5 Z"/></g>
<g><path style="opacity:1" fill="#3e299b" d="M 1586.5,2024.5 C 1586.5,2049.17 1586.5,2073.83 1586.5,2098.5C 1560.14,2109.93 1536.97,2125.93 1517,2146.5C 1492.2,2176.76 1488.7,2209.42 1506.5,2244.5C 1465.17,2244.5 1423.83,2244.5 1382.5,2244.5C 1384.31,2225.22 1389.48,2206.89 1398,2189.5C 1415.59,2157.23 1438.42,2129.06 1466.5,2105C 1503.93,2074.42 1543.93,2047.58 1586.5,2024.5 Z"/></g>
<g><path style="opacity:1" fill="#3c8e6e" d="M 481.5,2028.5 C 486.708,2028.94 491.375,2030.77 495.5,2034C 504.709,2044.21 513.543,2054.71 522,2065.5C 527.217,2070.53 533.05,2074.69 539.5,2078C 546.091,2080.31 552.758,2082.31 559.5,2084C 552.869,2090.31 545.869,2096.14 538.5,2101.5C 533.95,2092.23 528.283,2083.73 521.5,2076C 520.275,2075.44 519.275,2075.77 518.5,2077C 525.547,2084.89 531.214,2093.73 535.5,2103.5C 534.965,2105.1 533.965,2105.6 532.5,2105C 524.914,2097.42 518.081,2089.25 512,2080.5C 505.738,2068.31 499.238,2056.31 492.5,2044.5C 492.167,2045.17 491.833,2045.83 491.5,2046.5C 500.231,2069.64 513.231,2089.98 530.5,2107.5C 525.833,2111.5 521.167,2115.5 516.5,2119.5C 513.249,2117.62 510.082,2115.62 507,2113.5C 505.77,2114.28 505.437,2115.28 506,2116.5C 508.589,2118.21 511.089,2120.04 513.5,2122C 509.749,2125.52 506.083,2129.02 502.5,2132.5C 497.836,2126.69 495.003,2120.03 494,2112.5C 492.361,2093.8 490.361,2075.14 488,2056.5C 487.061,2049.35 484.728,2042.68 481,2036.5C 480.278,2033.74 480.445,2031.07 481.5,2028.5 Z"/></g>
<g><path style="opacity:1" fill="#3c8f6f" d="M 918.5,2028.5 C 920.199,2028.34 921.866,2028.51 923.5,2029C 924.097,2030.06 924.43,2031.23 924.5,2032.5C 921.728,2039.72 919.228,2047.05 917,2054.5C 914.7,2073.47 912.7,2092.47 911,2111.5C 908.934,2123.3 903.934,2133.63 896,2142.5C 883.18,2155.33 868.68,2165.83 852.5,2174C 819.331,2206.62 780.664,2215.29 736.5,2200C 731.833,2199.67 727.167,2199.33 722.5,2199C 720.427,2191.63 719.26,2184.13 719,2176.5C 724.933,2172.24 731.6,2170.24 739,2170.5C 752.719,2172.64 766.219,2175.8 779.5,2180C 784.202,2180.83 788.869,2180.66 793.5,2179.5C 778.173,2176.46 762.84,2172.63 747.5,2168C 741.089,2167.42 734.756,2167.42 728.5,2168C 748.785,2155.8 770.785,2150.8 794.5,2153C 810.923,2154.59 827.257,2156.76 843.5,2159.5C 850.896,2159.59 857.896,2158.09 864.5,2155C 863.737,2154.06 862.737,2153.56 861.5,2153.5C 855.423,2155.08 849.257,2156.08 843,2156.5C 821.693,2152.47 800.193,2149.97 778.5,2149C 794.625,2143.91 810.959,2139.57 827.5,2136C 844.691,2134.06 861.691,2131.06 878.5,2127C 886.434,2124.7 893.434,2120.87 899.5,2115.5C 899.167,2114.5 898.5,2113.83 897.5,2113.5C 890.67,2118.91 883.004,2122.75 874.5,2125C 864.244,2127.45 853.91,2129.12 843.5,2130C 877.933,2110.43 900.933,2081.93 912.5,2044.5C 906.095,2055.64 899.928,2066.97 894,2078.5C 886.769,2089.73 878.102,2099.73 868,2108.5C 871.857,2096.96 877.691,2086.46 885.5,2077C 885.15,2075.74 884.483,2075.41 883.5,2076C 880.628,2078.54 878.128,2081.37 876,2084.5C 870.92,2094.33 865.587,2103.99 860,2113.5C 849.784,2124.36 837.284,2131.19 822.5,2134C 814.192,2136.16 805.859,2137.83 797.5,2139C 800.833,2136.67 804.167,2134.33 807.5,2132C 814.469,2124.03 821.802,2116.36 829.5,2109C 834.001,2106.58 838.334,2103.92 842.5,2101C 841.975,2100.31 841.308,2099.81 840.5,2099.5C 834.704,2101.9 829.37,2105.06 824.5,2109C 812.773,2125.06 797.773,2137.06 779.5,2145C 766.857,2149.44 754.19,2153.44 741.5,2157C 749.833,2147.66 757,2137.5 763,2126.5C 765.727,2123.27 768.894,2120.6 772.5,2118.5C 773.386,2117.68 773.719,2116.68 773.5,2115.5C 768.082,2117.39 763.582,2120.73 760,2125.5C 749.467,2145.67 734.967,2161.17 716.5,2172C 715.571,2166.78 714.405,2161.62 713,2156.5C 712.245,2153.7 712.578,2151.03 714,2148.5C 721.289,2142.22 727.456,2135.05 732.5,2127C 743.533,2118.81 754.2,2110.15 764.5,2101C 772.126,2094.86 780.793,2090.86 790.5,2089C 808.762,2086.46 827.095,2084.46 845.5,2083C 856.441,2081.77 866.441,2078.1 875.5,2072C 885.964,2062.53 895.13,2052.03 903,2040.5C 907.423,2035.39 912.59,2031.39 918.5,2028.5 Z"/></g>
<g><path style="opacity:1" fill="#f6f5f3" d="M 493.5,2124.5 C 483.08,2097.22 478.246,2068.88 479,2039.5C 481.852,2044.87 483.852,2050.54 485,2056.5C 487.033,2073.8 488.7,2091.13 490,2108.5C 491.172,2113.85 492.339,2119.19 493.5,2124.5 Z"/></g>
<g><path style="opacity:1" fill="#3d8d6d" d="M 440.5,2043.5 C 441.657,2051.99 441.824,2060.66 441,2069.5C 436.441,2076.78 431.274,2083.62 425.5,2090C 423.583,2089.97 421.916,2089.14 420.5,2087.5C 423.672,2080.48 427.839,2074.15 433,2068.5C 433.749,2067.36 433.583,2066.36 432.5,2065.5C 425.966,2070.89 421.132,2077.56 418,2085.5C 412.094,2080.46 405.594,2076.29 398.5,2073C 416.183,2068.49 430.183,2058.66 440.5,2043.5 Z"/></g>
<g><path style="opacity:1" fill="#3d8d6d" d="M 441.5,2073.5 C 442.222,2073.92 442.722,2074.58 443,2075.5C 444.818,2087.26 446.818,2098.93 449,2110.5C 447.926,2109.38 446.76,2108.38 445.5,2107.5C 447.335,2106.57 447.668,2105.41 446.5,2104C 445.004,2103.49 443.837,2103.99 443,2105.5C 437.369,2101.7 432.203,2097.37 427.5,2092.5C 432.988,2086.69 437.655,2080.36 441.5,2073.5 Z"/></g>
<g><path style="opacity:1" fill="#b4cbea" d="M 1586.5,2098.5 C 1586.5,2102.83 1586.5,2107.17 1586.5,2111.5C 1562.57,2122.21 1541.74,2137.21 1524,2156.5C 1503.18,2184.94 1502.02,2214.27 1520.5,2244.5C 1515.83,2244.5 1511.17,2244.5 1506.5,2244.5C 1488.7,2209.42 1492.2,2176.76 1517,2146.5C 1536.97,2125.93 1560.14,2109.93 1586.5,2098.5 Z"/></g>
<g><path style="opacity:1" fill="#fefefe" d="M 1586.5,2111.5 C 1586.5,2155.83 1586.5,2200.17 1586.5,2244.5C 1564.5,2244.5 1542.5,2244.5 1520.5,2244.5C 1502.02,2214.27 1503.18,2184.94 1524,2156.5C 1541.74,2137.21 1562.57,2122.21 1586.5,2111.5 Z"/></g>
<g><path style="opacity:1" fill="#f6f5f2" d="M 493.5,2124.5 C 495.807,2128.44 498.14,2132.44 500.5,2136.5C 499.667,2138.17 498.833,2139.83 498,2141.5C 496.028,2135.94 494.528,2130.28 493.5,2124.5 Z"/></g>
<g><path style="opacity:1" fill="#3e8c6c" d="M 261.5,2148.5 C 265.103,2150.76 268.436,2153.43 271.5,2156.5C 269.144,2159.02 266.977,2161.69 265,2164.5C 263.519,2159.23 262.352,2153.89 261.5,2148.5 Z"/></g>
<g><path style="opacity:1" fill="#3c8e6e" d="M 725.5,2244.5 C 719.5,2244.5 713.5,2244.5 707.5,2244.5C 704.775,2220.6 700.609,2196.93 695,2173.5C 694.366,2169.41 693.199,2168.91 691.5,2172C 697.393,2195.86 701.393,2220.02 703.5,2244.5C 702.5,2244.5 701.5,2244.5 700.5,2244.5C 697.931,2218.58 693.264,2193.08 686.5,2168C 694.005,2163.42 701.338,2158.58 708.5,2153.5C 716.641,2183.34 722.307,2213.67 725.5,2244.5 Z"/></g>
<g><path style="opacity:1" fill="#5a4f27" d="M 256.5,2244.5 C 255.167,2244.5 253.833,2244.5 252.5,2244.5C 250.597,2216.62 246.264,2189.12 239.5,2162C 241.199,2158.91 242.366,2159.41 243,2163.5C 249.381,2190.23 253.881,2217.23 256.5,2244.5 Z"/></g>
<g><path style="opacity:1" fill="#3c8e6e" d="M 275.5,2161.5 C 276.873,2161.34 278.207,2161.51 279.5,2162C 285.5,2165.33 291.5,2168.67 297.5,2172C 308.5,2180.33 319.5,2188.67 330.5,2197C 314.867,2196.93 299.534,2194.6 284.5,2190C 279.833,2189.67 275.167,2189.33 270.5,2189C 268.423,2181.62 267.257,2174.12 267,2166.5C 269.682,2164.41 272.516,2162.75 275.5,2161.5 Z"/></g>
<g><path style="opacity:1" fill="#5a4f27" d="M 491.5,2244.5 C 490.5,2244.5 489.5,2244.5 488.5,2244.5C 485.197,2219.78 480.53,2195.28 474.5,2171C 475.007,2168.66 476.174,2168.16 478,2169.5C 484.444,2194.17 488.944,2219.17 491.5,2244.5 Z"/></g>
<g><path style="opacity:1" fill="#5a4f28" d="M 707.5,2244.5 C 706.167,2244.5 704.833,2244.5 703.5,2244.5C 701.393,2220.02 697.393,2195.86 691.5,2172C 693.199,2168.91 694.366,2169.41 695,2173.5C 700.609,2196.93 704.775,2220.6 707.5,2244.5 Z"/></g>
<g><path style="opacity:1" fill="#3d8e6e" d="M 677.5,2172.5 C 681.221,2172.78 684.054,2174.45 686,2177.5C 687.695,2184.81 689.195,2192.14 690.5,2199.5C 682.826,2199.33 675.159,2199.5 667.5,2200C 654.414,2204.02 641.08,2206.35 627.5,2207C 635.653,2203.43 643.32,2199.09 650.5,2194C 659.111,2186.21 668.111,2179.04 677.5,2172.5 Z"/></g>
<g><path style="opacity:1" fill="#fefefe" d="M 479.5,2244.5 C 412.167,2244.5 344.833,2244.5 277.5,2244.5C 276.329,2227.14 273.996,2209.97 270.5,2193C 274.833,2192.33 279.167,2192.33 283.5,2193C 300.724,2198.59 318.391,2201.26 336.5,2201C 357.472,2213.58 380.138,2219.24 404.5,2218C 418.997,2215.79 433.331,2212.79 447.5,2209C 456.494,2208.5 465.494,2208.33 474.5,2208.5C 476.54,2220.45 478.207,2232.45 479.5,2244.5 Z"/></g>
<g><path style="opacity:1" fill="#fefefe" d="M 697.5,2244.5 C 637.5,2244.5 577.5,2244.5 517.5,2244.5C 516.407,2232.09 514.741,2219.76 512.5,2207.5C 517.887,2207.41 523.22,2207.91 528.5,2209C 540.062,2212.14 551.729,2214.81 563.5,2217C 582.332,2219.79 600.665,2217.79 618.5,2211C 635.614,2211.11 652.28,2208.44 668.5,2203C 676.159,2202.5 683.826,2202.33 691.5,2202.5C 693.663,2216.47 695.663,2230.47 697.5,2244.5 Z"/></g>
</svg>
