<?xml version="1.0" encoding="UTF-8"?>
<!DOCTYPE svg PUBLIC "-//W3C//DTD SVG 1.1//EN" "http://www.w3.org/Graphics/SVG/1.1/DTD/svg11.dtd">
<svg xmlns="http://www.w3.org/2000/svg" version="1.1" width="1587px" height="2245px" style="shape-rendering:geometricPrecision; text-rendering:geometricPrecision; image-rendering:optimizeQuality; fill-rule:evenodd; clip-rule:evenodd" xmlns:xlink="http://www.w3.org/1999/xlink">
<g><path style="opacity:1" fill="#fefefe" d="M -0.5,-0.5 C 290.5,-0.5 581.5,-0.5 872.5,-0.5C 862.668,89.8564 871.835,178.19 900,264.5C 920.874,326.121 954.708,379.288 1001.5,424C 1040.4,452.558 1075.9,485.058 1108,521.5C 1156.19,580.285 1181.86,647.951 1185,724.5C 1181.76,809.889 1193.09,893.222 1219,974.5C 1246.16,1066.16 1289.49,1148.83 1349,1222.5C 1402.35,1285.27 1468.18,1329.77 1546.5,1356C 1505.71,1386.46 1469.87,1421.96 1439,1462.5C 1410.11,1501.96 1390.11,1545.63 1379,1593.5C 1371.38,1650.98 1354.05,1705.31 1327,1756.5C 1306.61,1791.23 1280.77,1821.4 1249.5,1847C 1237.78,1855.72 1225.78,1864.06 1213.5,1872C 1187.82,1886.84 1161.82,1901.17 1135.5,1915C 1105.14,1934.02 1076.47,1955.36 1049.5,1979C 996.454,2025.03 950.288,2076.86 911,2134.5C 887.609,2168.94 868.109,2205.61 852.5,2244.5C 808.833,2244.5 765.167,2244.5 721.5,2244.5C 730.486,2207.64 732.986,2170.31 729,2132.5C 727.399,2117.79 725.566,2103.13 723.5,2088.5C 727.514,2088.33 731.514,2088.5 735.5,2089C 780.334,2104.57 819.667,2095.9 853.5,2063C 864.669,2056.25 875.669,2049.25 886.5,2042C 897.729,2032.45 906.229,2020.95 912,2007.5C 913.317,2002.9 914.317,1998.23 915,1993.5C 916.306,1976.46 917.973,1959.46 920,1942.5C 921.145,1935.73 923.478,1929.4 927,1923.5C 928.831,1911.13 923.998,1907.96 912.5,1914C 907.366,1918.13 902.532,1922.63 898,1927.5C 891.585,1936.59 884.418,1945.09 876.5,1953C 866.321,1961.14 854.654,1965.47 841.5,1966C 825.1,1967.06 808.767,1968.73 792.5,1971C 784.73,1972.48 777.396,1975.15 770.5,1979C 753.317,1992.43 736.317,2006.09 719.5,2020C 715.885,2023.62 713.051,2027.79 711,2032.5C 707.241,2019.96 703.407,2007.46 699.5,1995C 718.266,1980.31 729.432,1961.14 733,1937.5C 734.633,1919.17 736.133,1900.84 737.5,1882.5C 740.271,1882.58 742.937,1882.08 745.5,1881C 748.656,1879.33 751.656,1877.49 754.5,1875.5C 758.465,1876.53 762.465,1876.7 766.5,1876C 771.037,1874.24 775.704,1872.91 780.5,1872C 784.65,1869.22 787.484,1865.39 789,1860.5C 806.692,1860.86 819.359,1852.86 827,1836.5C 827.667,1830.83 827.667,1825.17 827,1819.5C 826.64,1817.58 825.806,1815.91 824.5,1814.5C 830.619,1809.26 833.785,1802.59 834,1794.5C 836.172,1793.41 838.172,1792.08 840,1790.5C 843.333,1784.5 846.667,1778.5 850,1772.5C 850.925,1767.98 850.092,1763.81 847.5,1760C 858.362,1749.41 862.195,1736.58 859,1721.5C 855.726,1711.73 849.226,1705.06 839.5,1701.5C 839.828,1693.97 837.328,1687.64 832,1682.5C 832.95,1671.22 830.45,1660.72 824.5,1651C 821.491,1649.5 818.491,1648 815.5,1646.5C 816.647,1641.72 816.147,1637.05 814,1632.5C 808.687,1621.19 800.187,1613.35 788.5,1609C 781.354,1608.58 774.521,1609.75 768,1612.5C 765.551,1611.06 763.385,1609.22 761.5,1607C 759.913,1606.14 758.246,1605.47 756.5,1605C 749.524,1603.84 742.524,1602.84 735.5,1602C 727.826,1586.63 715.493,1579.3 698.5,1580C 689.243,1581.94 682.243,1586.94 677.5,1595C 670.128,1594.41 662.794,1594.41 655.5,1595C 651.133,1590.82 646.133,1587.65 640.5,1585.5C 642.16,1575.97 639.16,1568.14 631.5,1562C 633.386,1558.03 633.886,1553.87 633,1549.5C 630.931,1543.96 629.264,1538.29 628,1532.5C 625.289,1525.95 620.455,1522.28 613.5,1521.5C 613.097,1501.54 604.097,1486.71 586.5,1477C 575.828,1473.35 565.495,1474.18 555.5,1479.5C 551.77,1474.93 547.103,1471.77 541.5,1470C 534.942,1469.88 528.609,1468.71 522.5,1466.5C 520.142,1466.75 517.808,1467.09 515.5,1467.5C 514.101,1460.91 510.767,1455.41 505.5,1451C 487.183,1435.52 469.017,1435.68 451,1451.5C 449.5,1453.67 448,1455.83 446.5,1458C 433.931,1455.11 421.931,1456.78 410.5,1463C 405.996,1466 402.663,1470 400.5,1475C 393.088,1476.45 387.255,1480.29 383,1486.5C 380.889,1485.53 378.722,1484.69 376.5,1484C 355.466,1479.77 339.966,1486.94 330,1505.5C 326.18,1513.84 325.68,1522.34 328.5,1531C 315.728,1538.6 308.394,1549.77 306.5,1564.5C 306.428,1568.15 307.095,1571.65 308.5,1575C 304.953,1580.97 303.619,1587.47 304.5,1594.5C 297.534,1593.57 290.534,1592.74 283.5,1592C 272.395,1570.74 256.062,1565.08 234.5,1575C 230.44,1577.96 226.94,1581.46 224,1585.5C 212.519,1582.3 202.019,1584.3 192.5,1591.5C 190.445,1593.55 188.779,1595.89 187.5,1598.5C 184.721,1599.39 182.055,1600.56 179.5,1602C 177.317,1604.35 174.984,1606.52 172.5,1608.5C 153.823,1601.89 139.323,1606.89 129,1623.5C 126.398,1630.7 125.898,1638.03 127.5,1645.5C 113.566,1653.72 107.899,1665.72 110.5,1681.5C 107.637,1686.94 106.97,1692.6 108.5,1698.5C 85.2081,1711.2 80.3747,1728.87 94,1751.5C 96.6667,1753.5 99.3333,1755.5 102,1757.5C 100.118,1769.09 102.451,1779.76 109,1789.5C 111.695,1791.69 114.528,1793.69 117.5,1795.5C 119.375,1801.27 122.708,1805.93 127.5,1809.5C 120.998,1835.18 130.664,1850.51 156.5,1855.5C 159.749,1855.23 162.916,1854.56 166,1853.5C 172.651,1863.24 181.817,1869.08 193.5,1871C 199.331,1874.08 204.998,1877.41 210.5,1881C 212.134,1881.49 213.801,1881.66 215.5,1881.5C 214.417,1893.16 213.251,1904.83 212,1916.5C 211.333,1931.17 211.333,1945.83 212,1960.5C 213.629,1972.97 215.629,1985.3 218,1997.5C 209.833,1990.67 201.667,1983.83 193.5,1977C 181.7,1967.06 168.034,1961.39 152.5,1960C 135.817,1958.49 119.15,1956.82 102.5,1955C 88.5128,1952.34 77.0128,1945.51 68,1934.5C 60.5816,1924.41 52.415,1914.91 43.5,1906C 38.044,1901.42 32.2107,1900.59 26,1903.5C 25.3333,1906.83 25.3333,1910.17 26,1913.5C 28.5903,1918.27 30.5903,1923.27 32,1928.5C 34.6593,1947.09 36.6593,1965.76 38,1984.5C 39.6591,1996.81 44.3258,2007.81 52,2017.5C 56.8333,2022.33 61.6667,2027.17 66.5,2032C 77.3308,2039.25 88.3308,2046.25 99.5,2053C 116.955,2070.56 137.955,2081.56 162.5,2086C 180.93,2087.13 198.93,2084.8 216.5,2079C 224.159,2078.5 231.826,2078.33 239.5,2078.5C 242.179,2095.09 244.345,2111.75 246,2128.5C 250.518,2168.29 246.018,2206.95 232.5,2244.5C 154.833,2244.5 77.1667,2244.5 -0.5,2244.5C -0.5,1496.17 -0.5,747.833 -0.5,-0.5 Z"/></g>
<g><path style="opacity:1" fill="#b4ccea" d="M 872.5,-0.5 C 930.833,-0.5 989.167,-0.5 1047.5,-0.5C 1051.63,0.484888 1055.97,0.818222 1060.5,0.5C 1023.3,67.2224 1019.47,135.889 1049,206.5C 1066.55,244.304 1089.55,278.304 1118,308.5C 1138.6,329.437 1160.1,349.271 1182.5,368C 1202.83,383 1223.17,398 1243.5,413C 1291.58,454.622 1322.08,506.789 1335,569.5C 1343.03,606.777 1348.36,644.443 1351,682.5C 1354.5,748.578 1359.17,814.578 1365,880.5C 1375.82,953.987 1407.66,1016.49 1460.5,1068C 1497.61,1103.07 1539.61,1130.9 1586.5,1151.5C 1586.5,1277.5 1586.5,1403.5 1586.5,1529.5C 1559.54,1566.43 1539.7,1607.1 1527,1651.5C 1515.28,1691.76 1507.28,1732.76 1503,1774.5C 1494.68,1822.81 1474.34,1865.14 1442,1901.5C 1420.62,1924.23 1397.45,1944.73 1372.5,1963C 1352.34,1976.91 1332.01,1990.58 1311.5,2004C 1256.83,2036.67 1202.83,2070.33 1149.5,2105C 1101.12,2141.24 1066.46,2187.74 1045.5,2244.5C 981.167,2244.5 916.833,2244.5 852.5,2244.5C 868.109,2205.61 887.609,2168.94 911,2134.5C 950.288,2076.86 996.454,2025.03 1049.5,1979C 1076.47,1955.36 1105.14,1934.02 1135.5,1915C 1161.82,1901.17 1187.82,1886.84 1213.5,1872C 1225.78,1864.06 1237.78,1855.72 1249.5,1847C 1280.77,1821.4 1306.61,1791.23 1327,1756.5C 1354.05,1705.31 1371.38,1650.98 1379,1593.5C 1390.11,1545.63 1410.11,1501.96 1439,1462.5C 1469.87,1421.96 1505.71,1386.46 1546.5,1356C 1468.18,1329.77 1402.35,1285.27 1349,1222.5C 1289.49,1148.83 1246.16,1066.16 1219,974.5C 1193.09,893.222 1181.76,809.889 1185,724.5C 1181.86,647.951 1156.19,580.285 1108,521.5C 1075.9,485.058 1040.4,452.558 1001.5,424C 954.708,379.288 920.874,326.121 900,264.5C 871.835,178.19 862.668,89.8564 872.5,-0.5 Z"/></g>
<g><path style="opacity:1" fill="#b3cae9" d="M 1047.5,-0.5 C 1165.5,-0.5 1283.5,-0.5 1401.5,-0.5C 1401.66,1.5273 1401.5,3.5273 1401,5.5C 1376.74,54.6039 1360.74,106.271 1353,160.5C 1350.26,185.493 1352.93,209.827 1361,233.5C 1366.15,246.648 1374.32,257.482 1385.5,266C 1410.86,279.337 1434.86,294.67 1457.5,312C 1481.85,332.867 1497.35,359.034 1504,390.5C 1509.21,421.623 1510.88,452.956 1509,484.5C 1507.17,515.485 1505.67,546.485 1504.5,577.5C 1503.33,604.17 1508.5,629.503 1520,653.5C 1535.31,677.909 1557.48,689.909 1586.5,689.5C 1586.5,693.5 1586.5,697.5 1586.5,701.5C 1542.07,700.541 1513.24,678.875 1500,636.5C 1494.39,616.216 1491.89,595.55 1492.5,574.5C 1494.94,535.875 1496.6,497.208 1497.5,458.5C 1498.38,432.066 1495.55,406.066 1489,380.5C 1480.56,355.451 1466.06,334.618 1445.5,318C 1423.85,302.167 1401.18,287.834 1377.5,275C 1359.84,260.538 1348.68,242.038 1344,219.5C 1338.95,188.721 1339.62,158.054 1346,127.5C 1355.49,84.5345 1369.65,43.2011 1388.5,3.5C 1322.85,1.68131 1257.18,0.681313 1191.5,0.5C 1147.83,0.5 1104.17,0.5 1060.5,0.5C 1055.97,0.818222 1051.63,0.484888 1047.5,-0.5 Z"/></g>
<g><path style="opacity:1" fill="#fefefe" d="M 1401.5,-0.5 C 1463.17,-0.5 1524.83,-0.5 1586.5,-0.5C 1586.5,229.5 1586.5,459.5 1586.5,689.5C 1557.48,689.909 1535.31,677.909 1520,653.5C 1508.5,629.503 1503.33,604.17 1504.5,577.5C 1505.67,546.485 1507.17,515.485 1509,484.5C 1510.88,452.956 1509.21,421.623 1504,390.5C 1497.35,359.034 1481.85,332.867 1457.5,312C 1434.86,294.67 1410.86,279.337 1385.5,266C 1374.32,257.482 1366.15,246.648 1361,233.5C 1352.93,209.827 1350.26,185.493 1353,160.5C 1360.74,106.271 1376.74,54.6039 1401,5.5C 1401.5,3.5273 1401.66,1.5273 1401.5,-0.5 Z"/></g>
<g><path style="opacity:1" fill="#484fa2" d="M 1060.5,0.5 C 1104.17,0.5 1147.83,0.5 1191.5,0.5C 1167.79,51.5043 1159.96,104.838 1168,160.5C 1175.29,198.92 1193.79,230.753 1223.5,256C 1251.09,279.124 1279.76,300.791 1309.5,321C 1335.44,339.59 1359.6,360.423 1382,383.5C 1403.05,406.255 1416.71,432.922 1423,463.5C 1423.85,469.814 1424.51,476.147 1425,482.5C 1424.19,526.646 1426.19,570.646 1431,614.5C 1435.79,663.328 1449.12,709.661 1471,753.5C 1496.34,799.669 1534.84,828.002 1586.5,838.5C 1586.5,942.833 1586.5,1047.17 1586.5,1151.5C 1539.61,1130.9 1497.61,1103.07 1460.5,1068C 1407.66,1016.49 1375.82,953.987 1365,880.5C 1359.17,814.578 1354.5,748.578 1351,682.5C 1348.36,644.443 1343.03,606.777 1335,569.5C 1322.08,506.789 1291.58,454.622 1243.5,413C 1223.17,398 1202.83,383 1182.5,368C 1160.1,349.271 1138.6,329.437 1118,308.5C 1089.55,278.304 1066.55,244.304 1049,206.5C 1019.47,135.889 1023.3,67.2224 1060.5,0.5 Z"/></g>
<g><path style="opacity:1" fill="#3e299b" d="M 1191.5,0.5 C 1257.18,0.681313 1322.85,1.68131 1388.5,3.5C 1369.65,43.2011 1355.49,84.5345 1346,127.5C 1339.62,158.054 1338.95,188.721 1344,219.5C 1348.68,242.038 1359.84,260.538 1377.5,275C 1401.18,287.834 1423.85,302.167 1445.5,318C 1466.06,334.618 1480.56,355.451 1489,380.5C 1495.55,406.066 1498.38,432.066 1497.5,458.5C 1496.6,497.208 1494.94,535.875 1492.5,574.5C 1491.89,595.55 1494.39,616.216 1500,636.5C 1513.24,678.875 1542.07,700.541 1586.5,701.5C 1586.5,747.167 1586.5,792.833 1586.5,838.5C 1534.84,828.002 1496.34,799.669 1471,753.5C 1449.12,709.661 1435.79,663.328 1431,614.5C 1426.19,570.646 1424.19,526.646 1425,482.5C 1424.51,476.147 1423.85,469.814 1423,463.5C 1416.71,432.922 1403.05,406.255 1382,383.5C 1359.6,360.423 1335.44,339.59 1309.5,321C 1279.76,300.791 1251.09,279.124 1223.5,256C 1193.79,230.753 1175.29,198.92 1168,160.5C 1159.96,104.838 1167.79,51.5043 1191.5,0.5 Z"/></g>
<g><path style="opacity:1" fill="#4e50a0" d="M 651.5,1226.5 C 662.004,1225.63 671.337,1228.46 679.5,1235C 682.667,1238.17 685.833,1241.33 689,1244.5C 696.583,1256 703.917,1267.66 711,1279.5C 717.205,1287.52 724.705,1294.02 733.5,1299C 744.769,1303.63 755.436,1309.3 765.5,1316C 777.246,1326.99 782.746,1340.49 782,1356.5C 781.032,1360.88 779.532,1365.05 777.5,1369C 786.833,1369.33 796.167,1369.67 805.5,1370C 816.882,1372.44 826.049,1378.27 833,1387.5C 837.503,1393.84 841.503,1400.5 845,1407.5C 852.907,1416.98 860.574,1426.65 868,1436.5C 869.283,1445.32 867.283,1453.32 862,1460.5C 841.135,1486.68 813.968,1499.52 780.5,1499C 772.248,1497.23 763.915,1496.06 755.5,1495.5C 756.572,1500.59 754.905,1504.42 750.5,1507C 746.594,1508.43 742.594,1508.77 738.5,1508C 732.933,1506.22 727.599,1503.88 722.5,1501C 708.339,1491.09 694.006,1481.42 679.5,1472C 670.602,1468.88 661.936,1465.22 653.5,1461C 649.833,1458.67 646.833,1455.67 644.5,1452C 634.498,1448.56 624.165,1447.06 613.5,1447.5C 604.628,1447.29 595.962,1448.12 587.5,1450C 586.273,1448.41 586.606,1447.08 588.5,1446C 591.789,1445.12 595.123,1444.45 598.5,1444C 613.215,1443.22 627.882,1443.72 642.5,1445.5C 643.014,1443.49 643.18,1441.49 643,1439.5C 633.175,1433.78 622.675,1429.61 611.5,1427C 602.927,1425.11 594.261,1423.94 585.5,1423.5C 585.5,1422.17 585.5,1420.83 585.5,1419.5C 593.931,1419.86 602.264,1421.02 610.5,1423C 621.67,1426.17 632.67,1429.5 643.5,1433C 615.397,1405.58 591.897,1374.74 573,1340.5C 565.953,1325.74 560.619,1310.41 557,1294.5C 555.05,1282.55 556.717,1271.21 562,1260.5C 567.461,1252.69 574.627,1250.52 583.5,1254C 592.167,1258.67 600.833,1263.33 609.5,1268C 612.768,1269.15 616.101,1269.98 619.5,1270.5C 621.53,1254.26 628.864,1241.1 641.5,1231C 644.815,1229.17 648.149,1227.67 651.5,1226.5 Z"/></g>
<g><path style="opacity:1" fill="#fd6740" d="M 642.5,1248.5 C 662.346,1246.86 673.18,1255.86 675,1275.5C 667.352,1287.45 662.685,1300.45 661,1314.5C 660.626,1329.56 660.46,1344.56 660.5,1359.5C 644.519,1338.2 633.352,1314.53 627,1288.5C 626.124,1279.77 626.458,1271.1 628,1262.5C 630.774,1255.56 635.607,1250.89 642.5,1248.5 Z"/></g>
<g><path style="opacity:1" fill="#faab36" d="M 676.5,1281.5 C 677.822,1281.33 678.989,1281.66 680,1282.5C 682.176,1293.88 686.176,1304.55 692,1314.5C 699.353,1322.26 708.186,1327.59 718.5,1330.5C 722.279,1339.17 723.279,1348.17 721.5,1357.5C 712.47,1350.63 703.637,1350.96 695,1358.5C 693.937,1352.98 692.27,1347.64 690,1342.5C 682.305,1333.6 674.305,1333.26 666,1341.5C 662.665,1320.36 666.165,1300.36 676.5,1281.5 Z"/></g>
<g><path style="opacity:1" fill="#fd6741" d="M 581.5,1287.5 C 583.527,1287.34 585.527,1287.5 587.5,1288C 594.849,1295.68 599.349,1304.85 601,1315.5C 597.949,1335 602.616,1352.33 615,1367.5C 621.667,1375.5 629,1382.83 637,1389.5C 641.704,1402.62 647.371,1415.29 654,1427.5C 654.684,1428.78 654.517,1429.95 653.5,1431C 650.449,1431.86 647.783,1431.19 645.5,1429C 610.695,1396.22 584.195,1357.72 566,1313.5C 564.233,1300.7 569.4,1292.03 581.5,1287.5 Z"/></g>
<g><path style="opacity:1" fill="#f8a939" d="M 618.5,1318.5 C 616.5,1319.17 614.5,1319.83 612.5,1320.5C 610.243,1320.96 608.243,1321.96 606.5,1323.5C 605.278,1312 601.945,1301.17 596.5,1291C 603.294,1292.88 610.294,1293.71 617.5,1293.5C 618.185,1301.82 618.518,1310.15 618.5,1318.5 Z"/></g>
<g><path style="opacity:1" fill="#faab37" d="M 622.5,1291.5 C 625.671,1301.17 629.171,1310.84 633,1320.5C 643.494,1340.16 654.494,1359.49 666,1378.5C 674.58,1397.74 680.413,1417.74 683.5,1438.5C 675.745,1435.69 668.079,1432.69 660.5,1429.5C 639.134,1391.23 626.3,1350.23 622,1306.5C 621.222,1301.42 621.389,1296.42 622.5,1291.5 Z"/></g>
<g><path style="opacity:1" fill="#9a6574" d="M 618.5,1318.5 C 619.043,1318.56 619.376,1318.89 619.5,1319.5C 617.257,1320.47 614.924,1320.81 612.5,1320.5C 614.5,1319.83 616.5,1319.17 618.5,1318.5 Z"/></g>
<g><path style="opacity:1" fill="#f9a4b0" d="M 613.5,1323.5 C 616.325,1323.08 618.491,1324.08 620,1326.5C 623.457,1344.8 627.79,1362.8 633,1380.5C 620.77,1369.7 611.77,1356.7 606,1341.5C 603.899,1333.39 606.399,1327.39 613.5,1323.5 Z"/></g>
<g><path style="opacity:1" fill="#fb6742" d="M 723.5,1330.5 C 728.526,1331.12 733.526,1331.95 738.5,1333C 743.861,1354.01 740.694,1373.84 729,1392.5C 715.071,1405.92 703.238,1420.92 693.5,1437.5C 692.417,1436.64 692.251,1435.64 693,1434.5C 699.714,1419.8 708.047,1406.13 718,1393.5C 720.804,1389.56 722.804,1385.22 724,1380.5C 728.725,1363.73 728.558,1347.07 723.5,1330.5 Z"/></g>
<g><path style="opacity:1" fill="#f8a938" d="M 745.5,1337.5 C 756.735,1344.3 761.902,1354.3 761,1367.5C 760.064,1371.21 758.231,1374.37 755.5,1377C 749.418,1380.12 743.585,1383.62 738,1387.5C 740.287,1380.36 742.287,1373.03 744,1365.5C 745.276,1356.21 745.776,1346.88 745.5,1337.5 Z"/></g>
<g><path style="opacity:1" fill="#fca7b1" d="M 673.5,1339.5 C 677.839,1338.85 681.673,1339.85 685,1342.5C 689.183,1350.62 690.683,1359.28 689.5,1368.5C 694.118,1366.41 698.118,1363.25 701.5,1359C 713.33,1353.75 719.997,1357.58 721.5,1370.5C 720.779,1377.62 718.612,1384.28 715,1390.5C 704.794,1404.38 695.794,1418.38 688,1432.5C 681.607,1410.32 674.607,1388.32 667,1366.5C 666.333,1360.83 666.333,1355.17 667,1349.5C 668.418,1345.66 670.585,1342.33 673.5,1339.5 Z"/></g>
<g><path style="opacity:1" fill="#fc6741" d="M 778.5,1373.5 C 791.741,1373.24 799.908,1379.57 803,1392.5C 803.832,1399.81 804.332,1407.15 804.5,1414.5C 788.824,1409.44 772.824,1408.27 756.5,1411C 749.152,1413.17 742.152,1416.17 735.5,1420C 722.994,1428.09 710.661,1436.42 698.5,1445C 697.552,1445.48 696.552,1445.65 695.5,1445.5C 712.051,1408.61 739.718,1384.61 778.5,1373.5 Z"/></g>
<g><path style="opacity:1" fill="#fca6b1" d="M 760.5,1413.5 C 767.812,1412.31 774.312,1413.97 780,1418.5C 782,1422.17 782,1425.83 780,1429.5C 775.726,1433.77 770.893,1437.27 765.5,1440C 764.663,1441.01 764.33,1442.18 764.5,1443.5C 776.8,1442.9 787.3,1446.9 796,1455.5C 801.713,1468.38 797.38,1475.38 783,1476.5C 776.594,1476.02 770.427,1474.52 764.5,1472C 751.829,1467.11 739.495,1461.44 727.5,1455C 720.076,1451.89 712.409,1449.56 704.5,1448C 704.043,1447.59 703.709,1447.09 703.5,1446.5C 715.03,1438.47 726.697,1430.64 738.5,1423C 745.594,1418.94 752.927,1415.78 760.5,1413.5 Z"/></g>
<g><path style="opacity:1" fill="#fbab36" d="M 782.5,1415.5 C 795.975,1414.4 806.641,1419.57 814.5,1431C 818.852,1434.03 823.185,1437.03 827.5,1440C 823.82,1449.69 817.82,1457.69 809.5,1464C 807.783,1465.56 805.783,1466.39 803.5,1466.5C 802.983,1455.65 797.65,1448.15 787.5,1444C 783.385,1442.77 779.385,1441.27 775.5,1439.5C 783.273,1434.96 786.439,1428.29 785,1419.5C 784.392,1417.93 783.558,1416.6 782.5,1415.5 Z"/></g>
<g><path style="opacity:1" fill="#9ca93a" d="M 654.5,1435.5 C 663.434,1435.31 671.768,1437.48 679.5,1442C 701.288,1457.78 723.621,1472.78 746.5,1487C 751.179,1490.93 752.512,1495.77 750.5,1501.5C 748.395,1503.47 745.895,1504.47 743,1504.5C 738.985,1503.94 735.152,1502.77 731.5,1501C 715.319,1491.41 699.653,1481.08 684.5,1470C 674.017,1465.59 663.684,1460.92 653.5,1456C 645.229,1448.33 645.562,1441.5 654.5,1435.5 Z"/></g>
<g><path style="opacity:1" fill="#5f512b" d="M 721.5,2244.5 C 720.167,2244.5 718.833,2244.5 717.5,2244.5C 727.371,2208.12 730.204,2171.12 726,2133.5C 720.77,2087.1 710.936,2041.77 696.5,1997.5C 689.638,2002.76 682.638,2007.76 675.5,2012.5C 694.751,2071.34 703.584,2131.67 702,2193.5C 700.547,2210.97 697.047,2227.97 691.5,2244.5C 690.5,2244.5 689.5,2244.5 688.5,2244.5C 699.402,2206.14 702.235,2167.14 697,2127.5C 695.165,2114.49 693.332,2101.49 691.5,2088.5C 683.493,2088.33 675.493,2088.5 667.5,2089C 636.507,2100.8 606.507,2098.8 577.5,2083C 567.167,2075.33 556.833,2067.67 546.5,2060C 535.167,2057.33 523.833,2054.67 512.5,2052C 508.848,2051.5 505.182,2051.33 501.5,2051.5C 509.028,2092.17 511.861,2133.17 510,2174.5C 509.171,2198.48 505.005,2221.81 497.5,2244.5C 496.5,2244.5 495.5,2244.5 494.5,2244.5C 505.403,2204.2 509.236,2163.2 506,2121.5C 501.13,2061.48 489.463,2002.82 471,1945.5C 461.878,1906.16 461.045,1866.66 468.5,1827C 458.26,1824.88 449.927,1819.71 443.5,1811.5C 442.252,1812.04 441.085,1812.71 440,1813.5C 431.871,1855.8 431.537,1898.13 439,1940.5C 454.16,1989.63 465.493,2039.63 473,2090.5C 478.286,2131.62 477.619,2172.62 471,2213.5C 468.319,2223.89 465.486,2234.22 462.5,2244.5C 461.167,2244.5 459.833,2244.5 458.5,2244.5C 473.139,2196.76 476.973,2148.09 470,2098.5C 467.721,2083.16 465.555,2067.83 463.5,2052.5C 455.869,2051.44 448.202,2051.27 440.5,2052C 424.087,2056.6 407.42,2059.94 390.5,2062C 358.532,2087.55 323.198,2093.22 284.5,2079C 279.833,2078.33 275.167,2078.33 270.5,2079C 279.244,2121.87 280.744,2165.04 275,2208.5C 272.763,2220.78 269.596,2232.78 265.5,2244.5C 264.5,2244.5 263.5,2244.5 262.5,2244.5C 273.26,2211.01 277.427,2176.67 275,2141.5C 271.161,2088.97 261.161,2037.64 245,1987.5C 233.943,1975.77 226.276,1962.1 222,1946.5C 221.824,1961.41 223.657,1976.08 227.5,1990.5C 226.711,1992.49 225.545,1992.82 224,1991.5C 221.495,1980.96 219.828,1970.3 219,1959.5C 218.906,1940.47 218.24,1921.47 217,1902.5C 213.687,1926.5 213.687,1950.5 217,1974.5C 223.351,2000.57 230.018,2026.57 237,2052.5C 246.974,2093.93 251.307,2135.93 250,2178.5C 248.941,2201.39 244.108,2223.39 235.5,2244.5C 234.5,2244.5 233.5,2244.5 232.5,2244.5C 246.018,2206.95 250.518,2168.29 246,2128.5C 244.345,2111.75 242.179,2095.09 239.5,2078.5C 231.826,2078.33 224.159,2078.5 216.5,2079C 198.93,2084.8 180.93,2087.13 162.5,2086C 137.955,2081.56 116.955,2070.56 99.5,2053C 88.3308,2046.25 77.3308,2039.25 66.5,2032C 61.6667,2027.17 56.8333,2022.33 52,2017.5C 44.3258,2007.81 39.6591,1996.81 38,1984.5C 36.6593,1965.76 34.6593,1947.09 32,1928.5C 30.5903,1923.27 28.5903,1918.27 26,1913.5C 25.3333,1910.17 25.3333,1906.83 26,1903.5C 32.2107,1900.59 38.044,1901.42 43.5,1906C 52.415,1914.91 60.5816,1924.41 68,1934.5C 77.0128,1945.51 88.5128,1952.34 102.5,1955C 119.15,1956.82 135.817,1958.49 152.5,1960C 168.034,1961.39 181.7,1967.06 193.5,1977C 201.667,1983.83 209.833,1990.67 218,1997.5C 215.629,1985.3 213.629,1972.97 212,1960.5C 211.333,1945.83 211.333,1931.17 212,1916.5C 213.251,1904.83 214.417,1893.16 215.5,1881.5C 213.801,1881.66 212.134,1881.49 210.5,1881C 204.998,1877.41 199.331,1874.08 193.5,1871C 181.817,1869.08 172.651,1863.24 166,1853.5C 162.916,1854.56 159.749,1855.23 156.5,1855.5C 130.664,1850.51 120.998,1835.18 127.5,1809.5C 122.708,1805.93 119.375,1801.27 117.5,1795.5C 114.528,1793.69 111.695,1791.69 109,1789.5C 102.451,1779.76 100.118,1769.09 102,1757.5C 99.3333,1755.5 96.6667,1753.5 94,1751.5C 80.3747,1728.87 85.2081,1711.2 108.5,1698.5C 106.97,1692.6 107.637,1686.94 110.5,1681.5C 107.899,1665.72 113.566,1653.72 127.5,1645.5C 125.898,1638.03 126.398,1630.7 129,1623.5C 139.323,1606.89 153.823,1601.89 172.5,1608.5C 174.984,1606.52 177.317,1604.35 179.5,1602C 182.055,1600.56 184.721,1599.39 187.5,1598.5C 188.779,1595.89 190.445,1593.55 192.5,1591.5C 202.019,1584.3 212.519,1582.3 224,1585.5C 226.94,1581.46 230.44,1577.96 234.5,1575C 256.062,1565.08 272.395,1570.74 283.5,1592C 290.534,1592.74 297.534,1593.57 304.5,1594.5C 303.619,1587.47 304.953,1580.97 308.5,1575C 307.095,1571.65 306.428,1568.15 306.5,1564.5C 308.394,1549.77 315.728,1538.6 328.5,1531C 325.68,1522.34 326.18,1513.84 330,1505.5C 339.966,1486.94 355.466,1479.77 376.5,1484C 378.722,1484.69 380.889,1485.53 383,1486.5C 387.255,1480.29 393.088,1476.45 400.5,1475C 402.663,1470 405.996,1466 410.5,1463C 421.931,1456.78 433.931,1455.11 446.5,1458C 448,1455.83 449.5,1453.67 451,1451.5C 469.017,1435.68 487.183,1435.52 505.5,1451C 510.767,1455.41 514.101,1460.91 515.5,1467.5C 517.808,1467.09 520.142,1466.75 522.5,1466.5C 528.609,1468.71 534.942,1469.88 541.5,1470C 547.103,1471.77 551.77,1474.93 555.5,1479.5C 565.495,1474.18 575.828,1473.35 586.5,1477C 604.097,1486.71 613.097,1501.54 613.5,1521.5C 620.455,1522.28 625.289,1525.95 628,1532.5C 629.264,1538.29 630.931,1543.96 633,1549.5C 633.886,1553.87 633.386,1558.03 631.5,1562C 639.16,1568.14 642.16,1575.97 640.5,1585.5C 646.133,1587.65 651.133,1590.82 655.5,1595C 662.794,1594.41 670.128,1594.41 677.5,1595C 682.243,1586.94 689.243,1581.94 698.5,1580C 715.493,1579.3 727.826,1586.63 735.5,1602C 742.524,1602.84 749.524,1603.84 756.5,1605C 758.246,1605.47 759.913,1606.14 761.5,1607C 763.385,1609.22 765.551,1611.06 768,1612.5C 774.521,1609.75 781.354,1608.58 788.5,1609C 800.187,1613.35 808.687,1621.19 814,1632.5C 816.147,1637.05 816.647,1641.72 815.5,1646.5C 818.491,1648 821.491,1649.5 824.5,1651C 830.45,1660.72 832.95,1671.22 832,1682.5C 837.328,1687.64 839.828,1693.97 839.5,1701.5C 849.226,1705.06 855.726,1711.73 859,1721.5C 862.195,1736.58 858.362,1749.41 847.5,1760C 850.092,1763.81 850.925,1767.98 850,1772.5C 846.667,1778.5 843.333,1784.5 840,1790.5C 838.172,1792.08 836.172,1793.41 834,1794.5C 833.785,1802.59 830.619,1809.26 824.5,1814.5C 825.806,1815.91 826.64,1817.58 827,1819.5C 827.667,1825.17 827.667,1830.83 827,1836.5C 819.359,1852.86 806.692,1860.86 789,1860.5C 787.484,1865.39 784.65,1869.22 780.5,1872C 775.704,1872.91 771.037,1874.24 766.5,1876C 762.465,1876.7 758.465,1876.53 754.5,1875.5C 751.656,1877.49 748.656,1879.33 745.5,1881C 742.937,1882.08 740.271,1882.58 737.5,1882.5C 736.133,1900.84 734.633,1919.17 733,1937.5C 729.432,1961.14 718.266,1980.31 699.5,1995C 703.407,2007.46 707.241,2019.96 711,2032.5C 713.051,2027.79 715.885,2023.62 719.5,2020C 736.317,2006.09 753.317,1992.43 770.5,1979C 777.396,1975.15 784.73,1972.48 792.5,1971C 808.767,1968.73 825.1,1967.06 841.5,1966C 854.654,1965.47 866.321,1961.14 876.5,1953C 884.418,1945.09 891.585,1936.59 898,1927.5C 902.532,1922.63 907.366,1918.13 912.5,1914C 923.998,1907.96 928.831,1911.13 927,1923.5C 923.478,1929.4 921.145,1935.73 920,1942.5C 917.973,1959.46 916.306,1976.46 915,1993.5C 914.317,1998.23 913.317,2002.9 912,2007.5C 906.229,2020.95 897.729,2032.45 886.5,2042C 875.669,2049.25 864.669,2056.25 853.5,2063C 819.667,2095.9 780.334,2104.57 735.5,2089C 731.514,2088.5 727.514,2088.33 723.5,2088.5C 725.566,2103.13 727.399,2117.79 729,2132.5C 732.986,2170.31 730.486,2207.64 721.5,2244.5 Z"/></g>
<g><path style="opacity:1" fill="#b4cce9" d="M 472.5,1443.5 C 480.669,1442.55 488.335,1444.05 495.5,1448C 504.655,1453.8 510.655,1461.8 513.5,1472C 527.326,1468.16 536.826,1473 542,1486.5C 543.083,1494.76 542.083,1502.76 539,1510.5C 533.801,1523.23 527.801,1535.56 521,1547.5C 518.265,1555.21 515.432,1562.87 512.5,1570.5C 511.277,1571.61 509.944,1571.78 508.5,1571C 503.533,1569.07 498.533,1567.23 493.5,1565.5C 501.399,1543.21 505.399,1520.21 505.5,1496.5C 504.167,1496.5 502.833,1496.5 501.5,1496.5C 501.29,1519.76 497.623,1542.43 490.5,1564.5C 481.221,1564.64 472.054,1564.64 463,1564.5C 453.578,1550.65 446.578,1535.65 442,1519.5C 440.375,1509.54 439.041,1499.54 438,1489.5C 437.333,1488.83 436.667,1488.17 436,1487.5C 434.936,1488.94 434.436,1490.61 434.5,1492.5C 435.509,1503.24 437.009,1513.91 439,1524.5C 444.459,1539.58 451.626,1553.75 460.5,1567C 456.124,1568.4 451.79,1569.9 447.5,1571.5C 446.833,1571.17 446.167,1570.83 445.5,1570.5C 434.803,1554.3 424.303,1537.97 414,1521.5C 409.212,1512.59 405.546,1503.26 403,1493.5C 401.451,1471.88 411.618,1460.88 433.5,1460.5C 438.022,1460.71 442.356,1461.71 446.5,1463.5C 449.885,1458.61 453.885,1454.11 458.5,1450C 463.034,1447.33 467.7,1445.17 472.5,1443.5 Z"/></g>
<g><path style="opacity:1" fill="#fc6741" d="M 830.5,1443.5 C 835.95,1444.77 839.783,1448.1 842,1453.5C 847.201,1465.23 844.367,1474.39 833.5,1481C 809.838,1496.4 784.505,1499.73 757.5,1491C 747.36,1482.43 736.36,1475.09 724.5,1469C 716.812,1464.16 709.479,1458.82 702.5,1453C 710.117,1453.07 717.45,1454.74 724.5,1458C 737.807,1465.15 751.473,1471.49 765.5,1477C 774.346,1480.38 783.346,1481.05 792.5,1479C 809.565,1471.77 822.231,1459.93 830.5,1443.5 Z"/></g>
<g><path style="opacity:1" fill="#b4cce9" d="M 539.5,1473.5 C 541.924,1474.03 544.257,1474.86 546.5,1476C 549.4,1478.9 552.233,1481.73 555,1484.5C 568.801,1475.69 581.967,1476.53 594.5,1487C 603.426,1494.25 608.426,1503.59 609.5,1515C 609.406,1517.38 609.072,1519.71 608.5,1522C 613.599,1524.27 618.433,1527.1 623,1530.5C 625.184,1538.19 627.351,1545.86 629.5,1553.5C 629.333,1555.17 629.167,1556.83 629,1558.5C 628.586,1558.96 628.086,1559.29 627.5,1559.5C 614.276,1555.42 601.61,1556.92 589.5,1564C 583.448,1569.05 577.115,1573.72 570.5,1578C 559.109,1580.74 548.109,1584.57 537.5,1589.5C 536.019,1588.52 534.685,1587.35 533.5,1586C 555.704,1572.46 571.37,1553.46 580.5,1529C 579.993,1526.66 578.826,1526.16 577,1527.5C 569.814,1547.35 557.98,1563.85 541.5,1577C 538.221,1579.22 534.721,1581.06 531,1582.5C 527.89,1581.37 525.39,1579.54 523.5,1577C 527.896,1565.29 532.563,1553.79 537.5,1542.5C 536.178,1542.33 535.011,1542.66 534,1543.5C 528.102,1553.62 523.602,1564.29 520.5,1575.5C 517.243,1575.83 515.743,1574.49 516,1571.5C 519.667,1562.17 523.333,1552.83 527,1543.5C 535.228,1530.04 541.561,1515.71 546,1500.5C 546.667,1495.83 546.667,1491.17 546,1486.5C 544.334,1481.83 542.167,1477.5 539.5,1473.5 Z"/></g>
<g><path style="opacity:1" fill="#b4cce9" d="M 396.5,1479.5 C 397.5,1479.5 398.5,1479.5 399.5,1479.5C 398.066,1489.9 399.566,1499.9 404,1509.5C 415.161,1531.17 427.828,1551.84 442,1571.5C 442.483,1572.45 442.649,1573.45 442.5,1574.5C 437.202,1576.23 432.368,1578.9 428,1582.5C 416.672,1566.66 402.505,1554.32 385.5,1545.5C 385.238,1546.98 385.571,1548.31 386.5,1549.5C 401.652,1558.42 414.319,1570.09 424.5,1584.5C 421.472,1588.36 418.639,1592.36 416,1596.5C 414.938,1597.1 413.772,1597.43 412.5,1597.5C 400.93,1593.38 390.597,1587.22 381.5,1579C 380.552,1578.52 379.552,1578.35 378.5,1578.5C 378.351,1579.55 378.517,1580.55 379,1581.5C 388.995,1590.32 400.162,1597.32 412.5,1602.5C 411.487,1605.2 409.987,1607.54 408,1609.5C 389.157,1605.67 370.323,1601.83 351.5,1598C 341.233,1595.36 331.567,1591.36 322.5,1586C 307.797,1573.07 306.631,1558.9 319,1543.5C 322.67,1539.5 327.004,1536.5 332,1534.5C 327.494,1518.01 331.661,1504.18 344.5,1493C 354.548,1487.82 365.215,1486.15 376.5,1488C 379.548,1488.61 382.048,1490.11 384,1492.5C 387.025,1486.98 391.191,1482.64 396.5,1479.5 Z"/></g>
<g><path style="opacity:1" fill="#484fa2" d="M 1586.5,1529.5 C 1586.5,1652.83 1586.5,1776.17 1586.5,1899.5C 1577.45,1920.42 1564.78,1938.92 1548.5,1955C 1541.52,1960.82 1534.19,1966.16 1526.5,1971C 1487.18,1991.32 1449.18,2013.65 1412.5,2038C 1383.24,2058.57 1356.41,2082.07 1332,2108.5C 1310.61,2132.94 1295.61,2160.94 1287,2192.5C 1283.49,2209.71 1282.66,2227.04 1284.5,2244.5C 1204.83,2244.5 1125.17,2244.5 1045.5,2244.5C 1066.46,2187.74 1101.12,2141.24 1149.5,2105C 1202.83,2070.33 1256.83,2036.67 1311.5,2004C 1332.01,1990.58 1352.34,1976.91 1372.5,1963C 1397.45,1944.73 1420.62,1924.23 1442,1901.5C 1474.34,1865.14 1494.68,1822.81 1503,1774.5C 1507.28,1732.76 1515.28,1691.76 1527,1651.5C 1539.7,1607.1 1559.54,1566.43 1586.5,1529.5 Z"/></g>
<g><path style="opacity:1" fill="#b4cce9" d="M 610.5,1560.5 C 630.399,1560.23 639.232,1569.89 637,1589.5C 650.667,1592.5 659,1600.83 662,1614.5C 663.527,1626.68 661.193,1638.02 655,1648.5C 652.035,1650.72 649.202,1653.06 646.5,1655.5C 650.131,1659.89 651.631,1664.89 651,1670.5C 647.412,1676.68 644.078,1683.01 641,1689.5C 639.104,1691.53 636.937,1693.2 634.5,1694.5C 628.409,1682.25 618.742,1674.09 605.5,1670C 590.958,1670.04 577.958,1665.71 566.5,1657C 561.156,1654.99 556.156,1652.49 551.5,1649.5C 552.101,1645.84 552.767,1642.17 553.5,1638.5C 554.795,1639.1 556.128,1639.6 557.5,1640C 576.153,1641.19 594.653,1640.36 613,1637.5C 613.617,1636.55 613.451,1635.72 612.5,1635C 611,1634.83 609.5,1634.67 608,1634.5C 590.883,1636.45 573.716,1636.95 556.5,1636C 555.069,1635.53 553.903,1634.7 553,1633.5C 552.827,1626.9 551.993,1620.4 550.5,1614C 550.759,1612.74 551.426,1611.74 552.5,1611C 568.43,1603.41 585.097,1597.91 602.5,1594.5C 602.5,1593.17 602.5,1591.83 602.5,1590.5C 589.764,1593.68 577.097,1597.18 564.5,1601C 558.804,1602.93 553.637,1605.76 549,1609.5C 546.465,1603.59 543.298,1598.09 539.5,1593C 550.28,1587.47 561.614,1583.47 573.5,1581C 579.167,1576.67 584.833,1572.33 590.5,1568C 597.021,1564.78 603.688,1562.28 610.5,1560.5 Z"/></g>
<g><path style="opacity:1" fill="#f9b837" d="M 473.5,1567.5 C 494.274,1568.15 512.941,1574.65 529.5,1587C 552.38,1613.14 555.547,1641.64 539,1672.5C 533.244,1682.81 524.744,1689.98 513.5,1694C 472.64,1712.52 439.474,1703.69 414,1667.5C 402.844,1640.79 405.844,1615.79 423,1592.5C 429.425,1585.09 437.259,1579.59 446.5,1576C 455.409,1572.42 464.409,1569.58 473.5,1567.5 Z"/></g>
<g><path style="opacity:1" fill="#b4cbe9" d="M 247.5,1572.5 C 264.491,1572.48 275.491,1580.48 280.5,1596.5C 286.912,1594.68 292.912,1595.51 298.5,1599C 276.127,1615.22 272.46,1634.89 287.5,1658C 285.411,1665.66 282.411,1672.83 278.5,1679.5C 273.717,1677.69 269.05,1675.69 264.5,1673.5C 271.093,1655.43 274.259,1636.76 274,1617.5C 273,1616.17 272,1616.17 271,1617.5C 270.984,1636.41 267.817,1654.74 261.5,1672.5C 254.475,1673.2 247.475,1673.87 240.5,1674.5C 225.974,1655.75 218.474,1634.42 218,1610.5C 217.586,1610.04 217.086,1609.71 216.5,1609.5C 215.177,1629.21 219.677,1647.54 230,1664.5C 232.041,1668.08 234.208,1671.58 236.5,1675C 233.099,1676.69 229.599,1678.19 226,1679.5C 213.748,1662.67 202.748,1645.01 193,1626.5C 183.586,1595.91 194.753,1583.41 226.5,1589C 231.308,1580.61 238.308,1575.11 247.5,1572.5 Z"/></g>
<g><path style="opacity:1" fill="#b4ccea" d="M 310.5,1579.5 C 317.543,1587.54 326.209,1593.37 336.5,1597C 359.742,1604.15 383.409,1609.31 407.5,1612.5C 406.185,1617.09 405.185,1621.76 404.5,1626.5C 386.177,1624.51 367.844,1622.51 349.5,1620.5C 343.755,1620.82 338.088,1621.65 332.5,1623C 329.79,1624.02 327.457,1625.52 325.5,1627.5C 325.887,1628.72 326.72,1629.39 328,1629.5C 334.217,1626.24 340.883,1624.57 348,1624.5C 366.538,1626.17 385.038,1628.17 403.5,1630.5C 403.192,1636.43 403.525,1642.26 404.5,1648C 385.885,1655.23 366.885,1660.4 347.5,1663.5C 347.709,1664.09 348.043,1664.59 348.5,1665C 367.468,1663.84 385.801,1659.68 403.5,1652.5C 405.384,1656.14 407.05,1659.97 408.5,1664C 389.918,1678.57 370.251,1691.57 349.5,1703C 312.981,1715.82 297.481,1702.99 303,1664.5C 287.082,1656.33 280.416,1643.33 283,1625.5C 286.616,1614.45 293.449,1605.95 303.5,1600C 305.473,1599.5 307.473,1599.34 309.5,1599.5C 309.112,1595.85 308.779,1592.18 308.5,1588.5C 308.346,1585.26 309.013,1582.26 310.5,1579.5 Z"/></g>
<g><path style="opacity:1" fill="#b4cce9" d="M 702.5,1582.5 C 718.2,1583.55 728.2,1591.55 732.5,1606.5C 747.111,1603.47 755.444,1609.3 757.5,1624C 756.348,1631.79 754.181,1639.29 751,1646.5C 743.042,1660.41 736.208,1674.75 730.5,1689.5C 725.792,1687.66 721.125,1685.83 716.5,1684C 723.198,1665.79 726.364,1646.95 726,1627.5C 725,1626.17 724,1626.17 723,1627.5C 722.857,1646.31 719.857,1664.65 714,1682.5C 707.044,1683.2 700.044,1683.87 693,1684.5C 678.054,1665.91 670.387,1644.58 670,1620.5C 669.586,1620.04 669.086,1619.71 668.5,1619.5C 667.09,1643.61 673.757,1665.27 688.5,1684.5C 688.291,1685.09 687.957,1685.59 687.5,1686C 684.117,1687.24 680.784,1688.24 677.5,1689C 669.461,1677.76 661.795,1666.26 654.5,1654.5C 665.262,1641.29 668.762,1626.29 665,1609.5C 664.209,1605.28 662.375,1601.61 659.5,1598.5C 661.667,1598.17 663.833,1597.83 666,1597.5C 670.291,1597.65 674.457,1598.15 678.5,1599C 683.975,1589.67 691.975,1584.17 702.5,1582.5 Z"/></g>
<g><path style="opacity:1" fill="#b4cce9" d="M 184.5,1602.5 C 185.376,1602.37 186.043,1602.7 186.5,1603.5C 185.253,1611.78 186.42,1619.78 190,1627.5C 199.445,1646.09 210.278,1663.76 222.5,1680.5C 218.5,1682.83 214.5,1685.17 210.5,1687.5C 200.892,1676.06 189.892,1666.22 177.5,1658C 176.552,1657.52 175.552,1657.35 174.5,1657.5C 174.33,1658.82 174.663,1659.99 175.5,1661C 187.713,1668.88 198.379,1678.54 207.5,1690C 204.833,1693.33 202.167,1696.67 199.5,1700C 195.091,1700.8 191.091,1699.8 187.5,1697C 181.403,1693.2 175.569,1689.03 170,1684.5C 168.049,1686.14 168.216,1687.64 170.5,1689C 178.597,1695.72 187.597,1700.88 197.5,1704.5C 196.741,1707.41 195.074,1709.41 192.5,1710.5C 177.153,1707.4 161.82,1704.23 146.5,1701C 134.506,1698.76 124.34,1693.26 116,1684.5C 110.771,1674.55 111.771,1665.22 119,1656.5C 122.753,1652.72 126.919,1649.55 131.5,1647C 126.237,1629.19 132.237,1616.86 149.5,1610C 155.5,1609.33 161.5,1609.33 167.5,1610C 169.869,1610.54 171.869,1611.7 173.5,1613.5C 176.188,1608.81 179.855,1605.15 184.5,1602.5 Z"/></g>
<g><path style="opacity:1" fill="#645024" d="M 418.5,1607.5 C 419.995,1607.41 420.995,1608.08 421.5,1609.5C 415.75,1620.42 414.917,1631.75 419,1643.5C 421.883,1651.24 424.716,1658.91 427.5,1666.5C 426.178,1666.67 425.011,1666.34 424,1665.5C 415.795,1651.56 412.128,1636.56 413,1620.5C 414.164,1615.83 415.997,1611.5 418.5,1607.5 Z"/></g>
<g><path style="opacity:1" fill="#b4cbe9" d="M 753.5,1608.5 C 753.56,1607.96 753.893,1607.62 754.5,1607.5C 756.833,1608.67 759.167,1609.83 761.5,1611C 763.393,1613.3 765.393,1615.47 767.5,1617.5C 771.881,1613.54 777.048,1611.87 783,1612.5C 788.516,1611.84 793.35,1613.34 797.5,1617C 803.135,1621.63 807.635,1627.13 811,1633.5C 812.174,1638.75 812.841,1644.08 813,1649.5C 817.233,1650.45 820.9,1652.45 824,1655.5C 825.819,1661.81 827.652,1668.15 829.5,1674.5C 829.563,1676.48 828.896,1678.15 827.5,1679.5C 815.828,1675.82 804.828,1677.32 794.5,1684C 790.062,1688.44 785.062,1692.11 779.5,1695C 770.216,1696.98 761.382,1700.15 753,1704.5C 751.833,1703.33 750.667,1702.17 749.5,1701C 764.739,1691.76 776.572,1679.26 785,1663.5C 786.759,1659.99 787.926,1656.32 788.5,1652.5C 787.325,1652.28 786.325,1652.61 785.5,1653.5C 779.25,1668.83 769.916,1681.99 757.5,1693C 754.221,1695.22 750.721,1697.06 747,1698.5C 744.678,1697.34 742.844,1695.68 741.5,1693.5C 744.69,1684.12 748.69,1675.12 753.5,1666.5C 753.167,1665.5 752.5,1664.83 751.5,1664.5C 745.836,1672.83 741.503,1681.83 738.5,1691.5C 737.038,1692.47 735.705,1692.14 734.5,1690.5C 742.438,1671.4 750.605,1652.4 759,1633.5C 761.501,1625.85 760.834,1618.51 757,1611.5C 755.961,1610.29 754.794,1609.29 753.5,1608.5 Z"/></g>
<g><path style="opacity:1" fill="#b4ccea" d="M 550.5,1654.5 C 560.702,1658.27 570.369,1663.1 579.5,1669C 587.006,1671.13 594.673,1672.46 602.5,1673C 612.036,1676.02 620.203,1681.18 627,1688.5C 633.932,1702.05 631.099,1712.89 618.5,1721C 622.681,1726.05 624.348,1731.88 623.5,1738.5C 624.335,1744.82 622.835,1750.49 619,1755.5C 612.979,1763.18 605.479,1769.02 596.5,1773C 590.493,1774.56 584.493,1774.89 578.5,1774C 576.833,1777.84 574.999,1781.67 573,1785.5C 572.097,1786.7 570.931,1787.53 569.5,1788C 561.837,1789.83 554.17,1791.66 546.5,1793.5C 544.423,1793.31 542.423,1792.81 540.5,1792C 544.741,1783.88 545.574,1775.38 543,1766.5C 541.448,1760.51 539.115,1754.84 536,1749.5C 526.981,1740.8 521.981,1730.13 521,1717.5C 519.054,1710.94 516.554,1704.61 513.5,1698.5C 516.491,1697 519.491,1695.5 522.5,1694C 523.635,1693.25 524.635,1693.42 525.5,1694.5C 532.199,1709.41 540.532,1723.25 550.5,1736C 551.793,1736.49 553.127,1736.66 554.5,1736.5C 554.649,1735.45 554.483,1734.45 554,1733.5C 548.175,1728.01 543.509,1721.68 540,1714.5C 535.706,1706.75 531.539,1698.91 527.5,1691C 533.378,1686.79 538.211,1681.62 542,1675.5C 554.333,1683.83 564.667,1694.17 573,1706.5C 573.813,1708.44 574.313,1710.44 574.5,1712.5C 575.833,1712.5 577.167,1712.5 578.5,1712.5C 576.249,1704.67 572.416,1697.67 567,1691.5C 559.582,1684.24 551.749,1677.57 543.5,1671.5C 546.681,1666.14 549.015,1660.48 550.5,1654.5 Z"/></g>
<g><path style="opacity:1" fill="#b1c6e1" d="M 289.5,1660.5 C 291.595,1660.76 292.928,1661.93 293.5,1664C 290.966,1670.23 288.299,1676.4 285.5,1682.5C 284.328,1682.08 283.328,1681.41 282.5,1680.5C 285.633,1674.1 287.967,1667.43 289.5,1660.5 Z"/></g>
<g><path style="opacity:1" fill="#b3cae7" d="M 653.5,1659.5 C 660.724,1669.59 667.724,1679.93 674.5,1690.5C 670.5,1692.83 666.5,1695.17 662.5,1697.5C 657.861,1692.53 653.195,1687.53 648.5,1682.5C 650.667,1678.83 652.833,1675.17 655,1671.5C 655.669,1667.35 655.169,1663.35 653.5,1659.5 Z"/></g>
<g><path style="opacity:1" fill="#b1c7e2" d="M 296.5,1665.5 C 297.756,1665.46 298.756,1665.96 299.5,1667C 297.273,1673.19 296.94,1679.52 298.5,1686C 297.788,1687.44 296.621,1688.28 295,1688.5C 292.678,1687.34 290.844,1685.68 289.5,1683.5C 291.291,1677.26 293.625,1671.26 296.5,1665.5 Z"/></g>
<g><path style="opacity:1" fill="#b4cbe9" d="M 408.5,1668.5 C 410.682,1669.3 412.349,1670.8 413.5,1673C 406.167,1677.33 398.833,1681.67 391.5,1686C 383.623,1692.62 378.457,1700.78 376,1710.5C 377,1711.83 378,1711.83 379,1710.5C 381.872,1702.59 386.372,1695.75 392.5,1690C 400.167,1685.5 407.833,1681 415.5,1676.5C 420.351,1682.18 425.684,1687.35 431.5,1692C 422.79,1704.59 413.956,1717.09 405,1729.5C 396.708,1737.07 387.208,1742.73 376.5,1746.5C 375.269,1747.65 375.269,1748.82 376.5,1750C 392.863,1745.89 405.696,1736.72 415,1722.5C 421.291,1713.42 427.457,1704.25 433.5,1695C 436.801,1695.82 439.801,1697.49 442.5,1700C 434.38,1716.42 424.88,1731.92 414,1746.5C 407.706,1756.75 403.373,1767.75 401,1779.5C 399.994,1785.44 400.827,1791.1 403.5,1796.5C 403,1796.83 402.5,1797.17 402,1797.5C 390.578,1794.07 382.245,1787.07 377,1776.5C 357.919,1783.03 343.252,1777.7 333,1760.5C 329.967,1752.4 328.967,1744.07 330,1735.5C 330.848,1732.3 332.348,1729.47 334.5,1727C 330.084,1724.59 326.251,1721.42 323,1717.5C 321.991,1715.98 321.491,1714.31 321.5,1712.5C 328.639,1712.82 335.639,1711.99 342.5,1710C 348.954,1707.27 355.288,1704.27 361.5,1701C 377.621,1690.69 393.288,1679.86 408.5,1668.5 Z"/></g>
<g><path style="opacity:1" fill="#f9b837" d="M 243.5,1676.5 C 258.4,1675.63 272.4,1678.8 285.5,1686C 310.057,1703.72 316.89,1726.88 306,1755.5C 301.818,1765.73 294.985,1773.56 285.5,1779C 269.391,1787.09 252.391,1789.76 234.5,1787C 198.973,1773.78 186.473,1748.95 197,1712.5C 200.956,1702.56 207.123,1694.39 215.5,1688C 224.605,1683.27 233.938,1679.44 243.5,1676.5 Z"/></g>
<g><path style="opacity:1" fill="#655124" d="M 429.5,1676.5 C 432.787,1677.26 435.454,1679.1 437.5,1682C 439.5,1683 441.5,1684 443.5,1685C 444.337,1686.01 444.67,1687.18 444.5,1688.5C 437.696,1687.19 432.362,1683.69 428.5,1678C 429.056,1677.62 429.389,1677.12 429.5,1676.5 Z"/></g>
<g><path style="opacity:1" fill="#b4cce9" d="M 810.5,1680.5 C 829.05,1678.38 837.05,1686.38 834.5,1704.5C 843.934,1705.74 850.767,1710.74 855,1719.5C 858.052,1731.59 856.385,1742.92 850,1753.5C 847.894,1755.46 845.727,1757.29 843.5,1759C 846.3,1762.73 847.467,1766.9 847,1771.5C 843.793,1778.09 839.959,1784.25 835.5,1790C 834.584,1790.37 833.75,1790.87 833,1791.5C 827.533,1780.38 818.7,1773.22 806.5,1770C 801.133,1769.6 795.799,1768.93 790.5,1768C 784.5,1764.67 778.5,1761.33 772.5,1758C 769.904,1756.86 767.237,1756.03 764.5,1755.5C 765.207,1752.21 765.54,1748.88 765.5,1745.5C 782.209,1747.02 798.876,1746.69 815.5,1744.5C 815.5,1743.5 815.5,1742.5 815.5,1741.5C 805.355,1742.42 795.188,1743.09 785,1743.5C 778.717,1743.67 772.55,1743 766.5,1741.5C 765.883,1735.75 764.883,1730.08 763.5,1724.5C 766.655,1720.75 770.655,1718.25 775.5,1717C 784.732,1714.02 794.066,1711.36 803.5,1709C 807.585,1708.37 808.085,1707.2 805,1705.5C 792.907,1708.15 781.074,1711.65 769.5,1716C 767.167,1717.5 764.833,1719 762.5,1720.5C 760.44,1715.61 757.773,1711.11 754.5,1707C 762.814,1703.01 771.481,1700.01 780.5,1698C 786.062,1695.11 791.062,1691.44 795.5,1687C 800.477,1684.52 805.477,1682.35 810.5,1680.5 Z"/></g>
<g><path style="opacity:1" fill="#b4cce9" d="M 112.5,1685.5 C 118.368,1693.12 126.035,1698.28 135.5,1701C 154.586,1706.4 173.92,1710.74 193.5,1714C 191.792,1717.29 190.792,1720.79 190.5,1724.5C 179.436,1724.05 168.436,1722.89 157.5,1721C 149.833,1720.33 142.167,1720.33 134.5,1721C 131.624,1721.44 128.957,1722.44 126.5,1724C 125.663,1725.01 125.33,1726.18 125.5,1727.5C 128.675,1726.09 132.009,1724.92 135.5,1724C 138.333,1723.83 141.167,1723.67 144,1723.5C 159.22,1724.71 174.387,1726.38 189.5,1728.5C 189.223,1733.23 189.557,1737.9 190.5,1742.5C 175.132,1748.59 159.465,1752.92 143.5,1755.5C 143.887,1756.72 144.72,1757.39 146,1757.5C 161.003,1755.8 175.503,1752.13 189.5,1746.5C 191.274,1749.19 192.607,1752.19 193.5,1755.5C 178.077,1768.39 161.41,1779.56 143.5,1789C 120.541,1799.02 107.541,1791.69 104.5,1767C 104.647,1763.73 105.314,1760.56 106.5,1757.5C 89.7627,1746.89 85.5961,1732.56 94,1714.5C 97.1667,1711.33 100.333,1708.17 103.5,1705C 105.909,1703.29 108.575,1702.46 111.5,1702.5C 109.987,1696.66 110.321,1691 112.5,1685.5 Z"/></g>
<g><path style="opacity:1" fill="#b3cae7" d="M 646.5,1686.5 C 651.33,1690.5 655.664,1695 659.5,1700C 656.309,1703.85 653.143,1707.69 650,1711.5C 645.164,1710 640.664,1707.83 636.5,1705C 634.604,1703.19 634.104,1701.03 635,1698.5C 640.407,1695.93 644.24,1691.93 646.5,1686.5 Z"/></g>
<g><path style="opacity:1" fill="#f9b837" d="M 696.5,1686.5 C 713.616,1686.04 729.283,1690.54 743.5,1700C 763.231,1718.43 768.064,1740.27 758,1765.5C 754.29,1776.1 747.457,1783.94 737.5,1789C 721.349,1797.29 704.349,1799.96 686.5,1797C 669.024,1791.19 656.191,1780.03 648,1763.5C 639.425,1721.94 655.592,1696.28 696.5,1686.5 Z"/></g>
<g><path style="opacity:1" fill="#b4ccea" d="M 508.5,1699.5 C 509.376,1699.37 510.043,1699.7 510.5,1700.5C 515.509,1711.36 519.009,1722.69 521,1734.5C 526,1742.17 531,1749.83 536,1757.5C 541.846,1769.25 541.846,1780.91 536,1792.5C 529.072,1799.61 520.905,1801.77 511.5,1799C 503.52,1821.48 487.853,1829.14 464.5,1822C 460.714,1820.61 457.048,1818.94 453.5,1817C 450.262,1813.93 447.262,1810.77 444.5,1807.5C 440.696,1808.93 436.863,1810.27 433,1811.5C 431.112,1811.2 429.278,1810.7 427.5,1810C 422.997,1806.25 417.997,1803.25 412.5,1801C 406.995,1796.49 404.328,1790.66 404.5,1783.5C 406.047,1771.73 409.881,1760.73 416,1750.5C 422.667,1740.5 429.333,1730.5 436,1720.5C 439.008,1713.81 442.508,1707.48 446.5,1701.5C 450.96,1703.62 455.627,1705.12 460.5,1706C 449.18,1728.6 445.347,1752.44 449,1777.5C 451.645,1778.71 452.812,1777.71 452.5,1774.5C 450.117,1751.18 453.784,1728.85 463.5,1707.5C 471.527,1706.8 479.527,1706.14 487.5,1705.5C 494.072,1725.65 496.405,1746.31 494.5,1767.5C 495.463,1769.49 496.796,1769.82 498.5,1768.5C 500.07,1746.87 498.07,1725.54 492.5,1704.5C 498.301,1704.01 503.634,1702.34 508.5,1699.5 Z"/></g>
<g><path style="opacity:1" fill="#a3b1c1" d="M 308.5,1706.5 C 309.683,1707.5 311.016,1708.34 312.5,1709C 310.032,1710.76 308.698,1709.92 308.5,1706.5 Z"/></g>
<g><path style="opacity:1" fill="#b2c9e5" d="M 633.5,1707.5 C 638.66,1710.25 643.994,1712.75 649.5,1715C 648.54,1716.42 647.707,1717.92 647,1719.5C 640.82,1719.74 634.653,1718.91 628.5,1717C 631.359,1714.45 633.026,1711.28 633.5,1707.5 Z"/></g>
<g><path style="opacity:1" fill="#645024" d="M 201.5,1709.5 C 202.5,1709.5 203.5,1709.5 204.5,1709.5C 198.572,1726.14 200.572,1741.98 210.5,1757C 209.975,1757.69 209.308,1758.19 208.5,1758.5C 197.272,1743.3 194.939,1726.97 201.5,1709.5 Z"/></g>
<g><path style="opacity:1" fill="#b3c9e6" d="M 314.5,1710.5 C 315.496,1710.41 316.329,1710.75 317,1711.5C 318.639,1718.96 322.806,1724.46 329.5,1728C 328.13,1729.44 327.13,1731.11 326.5,1733C 322.395,1733.48 318.395,1732.98 314.5,1731.5C 313.696,1725.79 312.696,1720.12 311.5,1714.5C 312.524,1713.15 313.524,1711.81 314.5,1710.5 Z"/></g>
<g><path style="opacity:1" fill="#655124" d="M 653.5,1719.5 C 654.5,1719.5 655.5,1719.5 656.5,1719.5C 651.801,1729.24 651.301,1739.24 655,1749.5C 656.545,1755.75 659.045,1761.59 662.5,1767C 661.975,1767.69 661.308,1768.19 660.5,1768.5C 652.008,1756.54 648.508,1743.2 650,1728.5C 650.889,1725.32 652.055,1722.32 653.5,1719.5 Z"/></g>
<g><path style="opacity:1" fill="#b3cae7" d="M 623.5,1720.5 C 630.871,1721.34 638.204,1722.51 645.5,1724C 643.958,1727.33 642.958,1730.83 642.5,1734.5C 637.767,1734.78 633.1,1734.44 628.5,1733.5C 626.984,1729.1 625.318,1724.77 623.5,1720.5 Z"/></g>
<g><path style="opacity:1" fill="#b1c7e3" d="M 313.5,1734.5 C 317.631,1736.18 321.964,1736.85 326.5,1736.5C 326.827,1741.21 326.493,1745.88 325.5,1750.5C 321.157,1748.5 316.823,1746.5 312.5,1744.5C 313.417,1741.24 313.751,1737.91 313.5,1734.5 Z"/></g>
<g><path style="opacity:1" fill="#b4cbe9" d="M 635.5,1737.5 C 637.265,1738.46 639.265,1738.79 641.5,1738.5C 641.183,1742.7 641.517,1746.7 642.5,1750.5C 642.5,1751.5 642.5,1752.5 642.5,1753.5C 635.236,1755.87 627.902,1757.7 620.5,1759C 626.13,1752.94 628.463,1745.78 627.5,1737.5C 630.167,1737.5 632.833,1737.5 635.5,1737.5 Z"/></g>
<g><path style="opacity:1" fill="#8a8d8a" d="M 635.5,1737.5 C 637.833,1737.5 640.167,1737.5 642.5,1737.5C 642.5,1741.83 642.5,1746.17 642.5,1750.5C 641.517,1746.7 641.183,1742.7 641.5,1738.5C 639.265,1738.79 637.265,1738.46 635.5,1737.5 Z"/></g>
<g><path style="opacity:1" fill="#b4cce9" d="M 311.5,1748.5 C 316.786,1749.99 321.786,1752.15 326.5,1755C 335.309,1777.32 351.475,1786.15 375,1781.5C 376.927,1783.02 378.094,1785.02 378.5,1787.5C 377.29,1794.61 373.624,1799.94 367.5,1803.5C 371.217,1807.52 372.884,1812.36 372.5,1818C 372.617,1823.37 371.117,1828.2 368,1832.5C 362.788,1839.73 355.955,1844.56 347.5,1847C 342.845,1847.5 338.179,1847.67 333.5,1847.5C 333.324,1852.69 330.991,1856.52 326.5,1859C 320.526,1860.6 314.526,1862.1 308.5,1863.5C 306.701,1863.42 305.034,1862.92 303.5,1862C 308.098,1850.03 306.931,1838.53 300,1827.5C 296.615,1823.78 293.615,1819.78 291,1815.5C 288.684,1804.55 285.517,1793.88 281.5,1783.5C 284.354,1783.08 287.021,1782.08 289.5,1780.5C 294.238,1788.3 298.738,1796.3 303,1804.5C 305.803,1809.1 309.303,1813.1 313.5,1816.5C 314.583,1815.64 314.749,1814.64 314,1813.5C 305.558,1803.03 298.725,1791.53 293.5,1779C 297.368,1774.8 300.868,1770.3 304,1765.5C 311.883,1770.38 318.883,1776.38 325,1783.5C 328.238,1787.31 330.404,1791.64 331.5,1796.5C 332.5,1796.5 333.5,1796.5 334.5,1796.5C 333.185,1789.54 330.018,1783.54 325,1778.5C 319.292,1773.12 313.292,1768.12 307,1763.5C 308.365,1758.56 309.865,1753.56 311.5,1748.5 Z"/></g>
<g><path style="opacity:1" fill="#b3cbe8" d="M 640.5,1756.5 C 641.5,1756.5 642.5,1756.5 643.5,1756.5C 643.462,1759.81 644.128,1762.97 645.5,1766C 629.266,1778.88 611.932,1790.21 593.5,1800C 584.412,1804.39 575.412,1804.39 566.5,1800C 564.649,1798.32 562.982,1796.48 561.5,1794.5C 571.317,1793.51 577.65,1788.34 580.5,1779C 586.994,1778.93 593.327,1777.93 599.5,1776C 606.044,1772.78 612.044,1768.78 617.5,1764C 625.627,1762.56 633.293,1760.06 640.5,1756.5 Z"/></g>
<g><path style="opacity:1" fill="#b4cce9" d="M 763.5,1758.5 C 772.499,1761.83 781.166,1766 789.5,1771C 804.275,1770.92 816.775,1776.08 827,1786.5C 832.526,1797.39 830.36,1806.39 820.5,1813.5C 825.894,1823.3 825.728,1832.97 820,1842.5C 813.276,1851.4 804.443,1856.74 793.5,1858.5C 791.168,1857.83 788.834,1857.66 786.5,1858C 785.287,1862.77 782.621,1866.44 778.5,1869C 772.526,1870.6 766.526,1872.1 760.5,1873.5C 758.701,1873.42 757.034,1872.92 755.5,1872C 759.989,1860.06 758.822,1848.56 752,1837.5C 748.615,1833.78 745.615,1829.78 743,1825.5C 740.731,1814.53 737.564,1803.86 733.5,1793.5C 736.354,1793.08 739.021,1792.08 741.5,1790.5C 746.651,1799.46 751.818,1808.46 757,1817.5C 759.312,1820.98 762.146,1823.98 765.5,1826.5C 766.583,1825.64 766.749,1824.64 766,1823.5C 757.558,1813.03 750.725,1801.53 745.5,1789C 749.022,1784.48 752.855,1780.31 757,1776.5C 764.872,1781.36 771.872,1787.36 778,1794.5C 780.656,1798.14 782.489,1802.14 783.5,1806.5C 784.5,1806.5 785.5,1806.5 786.5,1806.5C 785.273,1800.05 782.44,1794.38 778,1789.5C 771.96,1783.79 765.626,1778.46 759,1773.5C 760.444,1768.58 761.944,1763.58 763.5,1758.5 Z"/></g>
<g><path style="opacity:1" fill="#b4cbe9" d="M 194.5,1759.5 C 195.965,1760.41 196.965,1761.74 197.5,1763.5C 189.907,1767.54 182.74,1772.21 176,1777.5C 174,1780.17 172,1782.83 170,1785.5C 168.168,1788.33 167.168,1791.33 167,1794.5C 167.893,1795.71 168.726,1795.71 169.5,1794.5C 172.442,1787.39 176.775,1781.22 182.5,1776C 188.167,1772.83 193.833,1769.67 199.5,1766.5C 203.5,1771.17 207.833,1775.5 212.5,1779.5C 205.246,1790.34 197.746,1801.01 190,1811.5C 183.367,1817.24 175.867,1821.57 167.5,1824.5C 166.614,1825.32 166.281,1826.32 166.5,1827.5C 179.432,1824.12 189.932,1817.12 198,1806.5C 203.5,1798.33 209,1790.17 214.5,1782C 216.503,1782.42 218.503,1783.25 220.5,1784.5C 221.583,1785.36 221.749,1786.36 221,1787.5C 215.921,1798.67 209.588,1809 202,1818.5C 195.154,1828.19 190.488,1838.86 188,1850.5C 187.18,1855.64 187.68,1860.64 189.5,1865.5C 189,1865.83 188.5,1866.17 188,1866.5C 178.675,1863.76 171.841,1858.1 167.5,1849.5C 139.725,1854.57 126.891,1842.9 129,1814.5C 129.536,1812.13 130.703,1810.13 132.5,1808.5C 127.861,1805.86 124.194,1802.19 121.5,1797.5C 133.356,1796.71 144.356,1793.21 154.5,1787C 168.287,1778.36 181.62,1769.19 194.5,1759.5 Z"/></g>
<g><path style="opacity:1" fill="#655124" d="M 210.5,1766.5 C 211.552,1766.35 212.552,1766.52 213.5,1767C 216.99,1769.91 220.656,1772.58 224.5,1775C 223.975,1775.69 223.308,1776.19 222.5,1776.5C 216.923,1774.91 212.923,1771.58 210.5,1766.5 Z"/></g>
<g><path style="opacity:1" fill="#b4cbe9" d="M 646.5,1769.5 C 647.965,1770.41 648.965,1771.74 649.5,1773.5C 639.84,1778.25 631.34,1784.58 624,1792.5C 621.181,1796.12 619.514,1800.12 619,1804.5C 620,1805.83 621,1805.83 622,1804.5C 624.2,1797.63 628.033,1791.79 633.5,1787C 639.336,1783.25 645.336,1779.75 651.5,1776.5C 655.5,1781.17 659.833,1785.5 664.5,1789.5C 657.246,1800.34 649.746,1811.01 642,1821.5C 635.367,1827.24 627.867,1831.57 619.5,1834.5C 618.614,1835.32 618.281,1836.32 618.5,1837.5C 631.777,1834.62 642.277,1827.62 650,1816.5C 655.5,1808.33 661,1800.17 666.5,1792C 668.503,1792.42 670.503,1793.25 672.5,1794.5C 673.583,1795.36 673.749,1796.36 673,1797.5C 666.671,1810.17 659.337,1822.17 651,1833.5C 644.751,1843.16 640.917,1853.66 639.5,1865C 639.338,1869.19 640.338,1873.02 642.5,1876.5C 642.167,1876.83 641.833,1877.17 641.5,1877.5C 632.005,1873.99 624.672,1867.99 619.5,1859.5C 603.426,1864.7 591.259,1860.04 583,1845.5C 580.755,1838.65 580.088,1831.65 581,1824.5C 581.914,1822.34 583.081,1820.34 584.5,1818.5C 579.668,1815.83 576.002,1812 573.5,1807C 586.159,1806.56 597.825,1802.89 608.5,1796C 621.408,1787.39 634.074,1778.56 646.5,1769.5 Z"/></g>
<g><path style="opacity:1" fill="#655124" d="M 662.5,1776.5 C 663.552,1776.35 664.552,1776.52 665.5,1777C 668.99,1779.91 672.656,1782.58 676.5,1785C 675.975,1785.69 675.308,1786.19 674.5,1786.5C 668.923,1784.91 664.923,1781.58 662.5,1776.5 Z"/></g>
<g><path style="opacity:1" fill="#b4cce9" d="M 276.5,1785.5 C 277.376,1785.37 278.043,1785.7 278.5,1786.5C 282.441,1795.49 285.275,1804.82 287,1814.5C 291,1820.5 295,1826.5 299,1832.5C 303.934,1841.56 304.601,1850.89 301,1860.5C 295.35,1868.24 287.85,1870.57 278.5,1867.5C 277.164,1875.35 273.164,1881.51 266.5,1886C 265.5,1886.67 264.5,1886.67 263.5,1886C 253.04,1873.2 242.207,1860.7 231,1848.5C 228.281,1829.03 231.114,1810.37 239.5,1792.5C 246.191,1791.8 252.857,1791.13 259.5,1790.5C 264.859,1807.78 266.859,1825.44 265.5,1843.5C 267.124,1843.64 268.29,1842.97 269,1841.5C 269.739,1823.89 267.906,1806.56 263.5,1789.5C 268.165,1788.94 272.498,1787.61 276.5,1785.5 Z"/></g>
<g><path style="opacity:1" fill="#b3cbe8" d="M 224.5,1787.5 C 228.696,1788.23 232.696,1789.57 236.5,1791.5C 228.71,1808.28 225.21,1825.95 226,1844.5C 220.226,1839.63 213.893,1838.3 207,1840.5C 205.217,1842.29 204.384,1844.46 204.5,1847C 206.898,1854.64 209.731,1862.14 213,1869.5C 213.502,1872.51 214.002,1875.51 214.5,1878.5C 208.771,1875.97 203.104,1873.14 197.5,1870C 190.606,1863.46 188.772,1855.63 192,1846.5C 193.667,1842.17 195.333,1837.83 197,1833.5C 206.933,1818.64 216.1,1803.3 224.5,1787.5 Z"/></g>
<g><path style="opacity:1" fill="#fefefe" d="M 381.5,1789.5 C 389.344,1796.92 398.678,1801.42 409.5,1803C 415.743,1806.24 421.743,1809.9 427.5,1814C 430.146,1814.5 432.813,1814.66 435.5,1814.5C 430.579,1843.97 428.746,1873.64 430,1903.5C 430.802,1913.05 431.969,1922.55 433.5,1932C 431.607,1935.9 428.941,1939.23 425.5,1942C 424.167,1942.67 422.833,1942.67 421.5,1942C 412.741,1933.9 403.407,1926.57 393.5,1920C 383.729,1914.97 373.396,1911.64 362.5,1910C 344.207,1907.87 325.874,1906.2 307.5,1905C 292.314,1904.07 278.981,1898.73 267.5,1889C 274.126,1884.54 279.126,1878.71 282.5,1871.5C 286.159,1872.48 289.826,1872.31 293.5,1871C 296.656,1869.33 299.656,1867.49 302.5,1865.5C 306.465,1866.53 310.465,1866.7 314.5,1866C 318.981,1864.05 323.648,1862.71 328.5,1862C 332.65,1859.22 335.484,1855.39 337,1850.5C 355.108,1850.77 367.775,1842.43 375,1825.5C 376.195,1818.06 375.361,1810.89 372.5,1804C 377.408,1800.35 380.408,1795.52 381.5,1789.5 Z"/></g>
<g><path style="opacity:1" fill="#fefefe" d="M 537.5,1795.5 C 540.821,1796.16 544.154,1796.83 547.5,1797.5C 551.15,1796.5 554.816,1796 558.5,1796C 561.424,1800.22 565.258,1803.39 570,1805.5C 571.434,1811.37 574.6,1816.04 579.5,1819.5C 574.786,1834.78 578.119,1847.94 589.5,1859C 598.345,1865.09 607.845,1866.59 618,1863.5C 624.651,1873.24 633.817,1879.08 645.5,1881C 651.331,1884.08 656.998,1887.41 662.5,1891C 664.473,1891.5 666.473,1891.66 668.5,1891.5C 667.841,1894.46 667.508,1897.46 667.5,1900.5C 662.228,1901.85 656.895,1903.02 651.5,1904C 633.526,1905.92 615.526,1907.58 597.5,1909C 582.772,1910.13 569.105,1914.47 556.5,1922C 545.921,1930.87 535.088,1939.37 524,1947.5C 514.94,1936.76 505.44,1926.26 495.5,1916C 490.044,1911.42 484.211,1910.59 478,1913.5C 477.333,1916.83 477.333,1920.17 478,1923.5C 480.551,1927.93 482.551,1932.6 484,1937.5C 486.583,1952.41 487.916,1967.41 488,1982.5C 487.692,1983.31 487.192,1983.97 486.5,1984.5C 481.033,1966.26 475.867,1947.93 471,1929.5C 470.333,1926.83 470.333,1924.17 471,1921.5C 474.824,1916.03 476.158,1910.03 475,1903.5C 472.865,1901.72 470.365,1901.05 467.5,1901.5C 467.007,1876.72 468.34,1852.06 471.5,1827.5C 487.455,1830.24 500.288,1825.24 510,1812.5C 511.953,1809.74 513.12,1806.74 513.5,1803.5C 520.549,1804.28 527.216,1803.12 533.5,1800C 535.041,1798.63 536.375,1797.13 537.5,1795.5 Z"/></g>
<g><path style="opacity:1" fill="#b3cbe8" d="M 728.5,1795.5 C 729.75,1795.58 730.583,1796.24 731,1797.5C 735.081,1806.82 738.081,1816.49 740,1826.5C 742.615,1830.78 745.615,1834.78 749,1838.5C 755.301,1848.64 756.634,1859.31 753,1870.5C 749.837,1876.5 745.003,1878.83 738.5,1877.5C 739.847,1869.29 742.68,1861.63 747,1854.5C 750.236,1839.19 744.736,1835.02 730.5,1842C 727.577,1844.05 724.743,1846.21 722,1848.5C 721.547,1831.92 719.381,1815.59 715.5,1799.5C 720.264,1799.23 724.597,1797.9 728.5,1795.5 Z"/></g>
<g><path style="opacity:1" fill="#b4cce9" d="M 676.5,1797.5 C 680.696,1798.23 684.696,1799.57 688.5,1801.5C 679.931,1819.58 676.764,1838.58 679,1858.5C 679.71,1859.97 680.876,1860.64 682.5,1860.5C 680.282,1840.36 683.282,1821.03 691.5,1802.5C 698.191,1801.8 704.857,1801.13 711.5,1800.5C 714.386,1808.57 716.22,1816.9 717,1825.5C 718.671,1834.86 718.671,1844.19 717,1853.5C 710.093,1861.65 703.426,1869.98 697,1878.5C 692.614,1883.39 687.78,1887.72 682.5,1891.5C 679.939,1889.36 677.605,1887.03 675.5,1884.5C 672.557,1886.32 669.391,1887.65 666,1888.5C 660.538,1885.73 655.038,1882.9 649.5,1880C 642.845,1873.41 641.012,1865.58 644,1856.5C 650.281,1840.6 658.614,1825.93 669,1812.5C 671.513,1807.47 674.013,1802.47 676.5,1797.5 Z"/></g>
<g><path style="opacity:1" fill="#3c8f6f" d="M 494.5,2244.5 C 486.5,2244.5 478.5,2244.5 470.5,2244.5C 477.041,2225.67 481.375,2206.33 483.5,2186.5C 482.167,2186.5 480.833,2186.5 479.5,2186.5C 477.464,2206.35 473.13,2225.68 466.5,2244.5C 465.167,2244.5 463.833,2244.5 462.5,2244.5C 465.486,2234.22 468.319,2223.89 471,2213.5C 477.619,2172.62 478.286,2131.62 473,2090.5C 465.493,2039.63 454.16,1989.63 439,1940.5C 431.537,1898.13 431.871,1855.8 440,1813.5C 441.085,1812.71 442.252,1812.04 443.5,1811.5C 449.927,1819.71 458.26,1824.88 468.5,1827C 461.045,1866.66 461.878,1906.16 471,1945.5C 489.463,2002.82 501.13,2061.48 506,2121.5C 509.236,2163.2 505.403,2204.2 494.5,2244.5 Z"/></g>
<g><path style="opacity:1" fill="#3c8f6f" d="M 210.5,1842.5 C 216.114,1842.65 221.114,1844.48 225.5,1848C 236.125,1858.29 245.625,1869.45 254,1881.5C 264.777,1894.94 278.61,1903.44 295.5,1907C 315.436,1909.58 335.436,1911.58 355.5,1913C 372.065,1914.19 387.065,1919.52 400.5,1929C 412.211,1939.05 424.211,1948.71 436.5,1958C 439.135,1959.96 440.969,1962.46 442,1965.5C 446.806,1981.06 450.806,1996.73 454,2012.5C 446,2005.83 438,1999.17 430,1992.5C 420.681,1981.2 412.347,1969.2 405,1956.5C 401.958,1953.07 398.458,1950.23 394.5,1948C 392.926,1947.3 391.593,1947.63 390.5,1949C 395.634,1953.13 400.468,1957.63 405,1962.5C 412.562,1975.45 420.729,1987.45 429.5,1998.5C 414.933,1993.37 400.266,1988.53 385.5,1984C 371.766,1977.58 359.099,1969.58 347.5,1960C 339.833,1949.67 330.833,1940.67 320.5,1933C 316.797,1930.65 312.797,1929.15 308.5,1928.5C 308.33,1929.82 308.663,1930.99 309.5,1932C 315.628,1934.56 321.295,1937.9 326.5,1942C 333.5,1949.67 340.5,1957.33 347.5,1965C 352.889,1969.39 358.556,1973.39 364.5,1977C 344.127,1973.99 324.46,1968.32 305.5,1960C 298.517,1956.25 292.351,1951.42 287,1945.5C 279.826,1933.82 273.159,1921.82 267,1909.5C 264.18,1904.84 260.346,1901.5 255.5,1899.5C 255.351,1900.55 255.517,1901.55 256,1902.5C 260.149,1906.8 263.816,1911.47 267,1916.5C 271.348,1924.86 275.348,1933.19 279,1941.5C 265.416,1929.93 254.082,1916.6 245,1901.5C 238.227,1888.28 231.227,1875.28 224,1862.5C 222.941,1862.63 222.108,1863.13 221.5,1864C 230.756,1884.69 241.923,1904.19 255,1922.5C 270.132,1939.64 287.632,1953.81 307.5,1965C 294.67,1964.31 282.003,1962.31 269.5,1959C 259.051,1955.27 249.051,1950.77 239.5,1945.5C 239.33,1946.82 239.663,1947.99 240.5,1949C 249.219,1955.53 258.886,1960.19 269.5,1963C 290.794,1966.88 312.127,1970.55 333.5,1974C 351.09,1977.73 368.424,1982.4 385.5,1988C 373.817,1988.39 362.151,1989.06 350.5,1990C 335.534,1992.5 320.534,1994.66 305.5,1996.5C 297.425,1996.02 289.425,1995.02 281.5,1993.5C 281.36,1995.12 282.027,1996.29 283.5,1997C 290.824,1999.33 298.324,2000.5 306,2000.5C 320.456,1998.26 334.956,1996.1 349.5,1994C 373.542,1990.81 397.208,1992.48 420.5,1999C 429.676,2001.92 438.343,2005.92 446.5,2011C 440.591,2009.88 434.591,2009.54 428.5,2010C 414.938,2012.39 401.605,2015.72 388.5,2020C 381.579,2021.54 374.579,2022.37 367.5,2022.5C 367.33,2023.82 367.663,2024.99 368.5,2026C 384.606,2025.06 400.272,2021.73 415.5,2016C 425.113,2013.34 434.78,2013 444.5,2015C 448.805,2015.9 452.639,2017.74 456,2020.5C 458.326,2029.47 460.492,2038.47 462.5,2047.5C 453.518,2048.33 444.518,2048.83 435.5,2049C 415.973,2055.27 395.973,2058.27 375.5,2058C 345.148,2053.49 319.148,2040.49 297.5,2019C 286.666,2012.08 275.666,2005.42 264.5,1999C 249.761,1988.6 238.261,1975.43 230,1959.5C 228.131,1954.23 226.465,1948.89 225,1943.5C 223.078,1920.46 220.745,1897.46 218,1874.5C 216.124,1866.08 213.124,1858.08 209,1850.5C 208.109,1847.5 208.609,1844.84 210.5,1842.5 Z"/></g>
<g><path style="opacity:1" fill="#3c8f6f" d="M 737.5,1842.5 C 739.527,1842.34 741.527,1842.5 743.5,1843C 744.116,1844.4 744.449,1845.9 744.5,1847.5C 740.777,1856.96 737.61,1866.62 735,1876.5C 732.459,1897.45 730.459,1918.45 729,1939.5C 727.013,1951.47 722.68,1962.47 716,1972.5C 706.758,1983.74 696.258,1993.58 684.5,2002C 667.934,2010.11 652.934,2020.45 639.5,2033C 609.88,2055.43 576.88,2062.76 540.5,2055C 527.503,2050.58 514.17,2048.42 500.5,2048.5C 499.027,2040.3 497.361,2032.14 495.5,2024C 495.99,2022.02 496.99,2020.35 498.5,2019C 507.652,2014.42 517.319,2012.75 527.5,2014C 541.276,2017.26 554.942,2020.93 568.5,2025C 574.372,2026.41 580.206,2026.58 586,2025.5C 586.617,2024.55 586.451,2023.72 585.5,2023C 578.397,2022.72 571.397,2021.72 564.5,2020C 551.699,2015.88 538.699,2012.55 525.5,2010C 519.36,2009.35 513.36,2009.68 507.5,2011C 528.489,1998.21 551.322,1992.04 576,1992.5C 585.187,1992.63 594.354,1993.13 603.5,1994C 618.13,1996.49 632.797,1998.66 647.5,2000.5C 654.961,2000.17 662.295,1999.01 669.5,1997C 670.973,1996.29 671.64,1995.12 671.5,1993.5C 666.125,1994.01 660.792,1994.84 655.5,1996C 649.167,1996.67 642.833,1996.67 636.5,1996C 613.814,1990.79 590.814,1988.12 567.5,1988C 605.37,1976.02 644.037,1967.69 683.5,1963C 694.448,1960.03 704.448,1955.19 713.5,1948.5C 714.44,1945.95 713.44,1945.11 710.5,1946C 701.444,1952.58 691.444,1957.25 680.5,1960C 669.24,1962.51 657.907,1964.18 646.5,1965C 687.734,1941.59 716.067,1907.43 731.5,1862.5C 730.178,1862.33 729.011,1862.66 728,1863.5C 720.667,1877.5 713.333,1891.5 706,1905.5C 697.095,1918.41 686.762,1930.07 675,1940.5C 680.235,1926.71 687.568,1914.04 697,1902.5C 697.483,1901.55 697.649,1900.55 697.5,1899.5C 696.448,1899.35 695.448,1899.52 694.5,1900C 684.682,1911.51 676.849,1924.35 671,1938.5C 659.713,1954.75 644.213,1964.92 624.5,1969C 612.49,1972 600.49,1974.67 588.5,1977C 593.672,1973.91 598.672,1970.58 603.5,1967C 612.136,1957.36 621.136,1948.03 630.5,1939C 635.666,1936.25 640.666,1933.25 645.5,1930C 644.892,1929.13 644.059,1928.63 643,1928.5C 636.313,1931.09 630.146,1934.59 624.5,1939C 617.167,1947 609.833,1955 602.5,1963C 591.861,1971.62 580.195,1978.62 567.5,1984C 552.432,1988.84 537.432,1993.51 522.5,1998C 533.212,1986.62 542.378,1974.12 550,1960.5C 553.416,1956.41 557.416,1953.08 562,1950.5C 562.483,1949.55 562.649,1948.55 562.5,1947.5C 559.984,1947.76 557.65,1948.59 555.5,1950C 552.333,1953.17 549.167,1956.33 546,1959.5C 540.413,1969.68 534.079,1979.35 527,1988.5C 516.175,1997.66 505.675,2007.16 495.5,2017C 495.167,2017.17 494.833,2017.33 494.5,2017.5C 492.247,2009.24 490.247,2000.9 488.5,1992.5C 489.77,1987.96 491.603,1983.62 494,1979.5C 500.811,1972.36 507.978,1965.52 515.5,1959C 529.198,1948.81 542.532,1938.15 555.5,1927C 564.356,1921.07 574.023,1917.07 584.5,1915C 607.125,1912.34 629.792,1910 652.5,1908C 672.358,1904.82 688.524,1895.32 701,1879.5C 709.068,1867.43 718.568,1856.6 729.5,1847C 732.391,1845.73 735.058,1844.23 737.5,1842.5 Z"/></g>
<g><path style="opacity:1" fill="#5a4f28" d="M 439.5,1847.5 C 440.833,1847.5 442.167,1847.5 443.5,1847.5C 440.124,1881.43 441.79,1915.1 448.5,1948.5C 447.178,1948.67 446.011,1948.34 445,1947.5C 437.422,1914.5 435.589,1881.17 439.5,1847.5 Z"/></g>
<g><path style="opacity:1" fill="#3d8d6c" d="M 674.5,1888.5 C 676.033,1890.35 677.7,1892.19 679.5,1894C 676.718,1896.42 673.718,1897.58 670.5,1897.5C 671.213,1895.22 671.713,1892.89 672,1890.5C 672.995,1889.93 673.828,1889.27 674.5,1888.5 Z"/></g>
<g><path style="opacity:1" fill="#3e299b" d="M 1586.5,1899.5 C 1586.5,1939.5 1586.5,1979.5 1586.5,2019.5C 1545.99,2039.28 1505.32,2058.78 1464.5,2078C 1442,2090 1423.5,2106.5 1409,2127.5C 1393.59,2156.56 1393.92,2185.56 1410,2214.5C 1413.44,2220.28 1417.28,2225.78 1421.5,2231C 1413.28,2235.27 1405.28,2239.77 1397.5,2244.5C 1359.83,2244.5 1322.17,2244.5 1284.5,2244.5C 1282.66,2227.04 1283.49,2209.71 1287,2192.5C 1295.61,2160.94 1310.61,2132.94 1332,2108.5C 1356.41,2082.07 1383.24,2058.57 1412.5,2038C 1449.18,2013.65 1487.18,1991.32 1526.5,1971C 1534.19,1966.16 1541.52,1960.82 1548.5,1955C 1564.78,1938.92 1577.45,1920.42 1586.5,1899.5 Z"/></g>
<g><path style="opacity:1" fill="#3c8e6e" d="M 262.5,2244.5 C 253.5,2244.5 244.5,2244.5 235.5,2244.5C 244.108,2223.39 248.941,2201.39 250,2178.5C 251.307,2135.93 246.974,2093.93 237,2052.5C 230.018,2026.57 223.351,2000.57 217,1974.5C 213.687,1950.5 213.687,1926.5 217,1902.5C 218.24,1921.47 218.906,1940.47 219,1959.5C 219.828,1970.3 221.495,1980.96 224,1991.5C 225.545,1992.82 226.711,1992.49 227.5,1990.5C 223.657,1976.08 221.824,1961.41 222,1946.5C 226.276,1962.1 233.943,1975.77 245,1987.5C 261.161,2037.64 271.161,2088.97 275,2141.5C 277.427,2176.67 273.26,2211.01 262.5,2244.5 Z"/></g>
<g><path style="opacity:1" fill="#3c8f6f" d="M 28.5,1904.5 C 34.2803,1904.26 39.2803,1906.09 43.5,1910C 53.7581,1922.93 64.7581,1935.26 76.5,1947C 83.9276,1952.59 92.2609,1956.26 101.5,1958C 120.472,1960.25 139.472,1962.25 158.5,1964C 167.805,1965.77 176.472,1969.1 184.5,1974C 196.044,1983.88 207.878,1993.38 220,2002.5C 224.716,2016.3 228.383,2030.3 231,2044.5C 214.416,2033.59 201.75,2019.25 193,2001.5C 189.418,1996.73 184.918,1993.39 179.5,1991.5C 179.281,1992.68 179.614,1993.68 180.5,1994.5C 185.144,1997.31 188.977,2000.98 192,2005.5C 197.149,2015.63 203.649,2024.8 211.5,2033C 194.335,2028.61 177.669,2022.61 161.5,2015C 155.556,2011.39 149.889,2007.39 144.5,2003C 138.833,1996.67 133.167,1990.33 127.5,1984C 123.118,1980.14 118.118,1977.31 112.5,1975.5C 109.972,1976.52 109.972,1977.68 112.5,1979C 116.059,1980.23 119.392,1981.89 122.5,1984C 130.198,1991.36 137.531,1999.03 144.5,2007C 148.659,2010.25 152.992,2013.25 157.5,2016C 138.579,2013.43 120.579,2007.77 103.5,1999C 99.7012,1996.2 96.2012,1993.04 93,1989.5C 87.4129,1979.99 82.0795,1970.33 77,1960.5C 74.872,1957.37 72.372,1954.54 69.5,1952C 68.2752,1951.44 67.2752,1951.77 66.5,1953C 75.1396,1962.12 81.3062,1972.62 85,1984.5C 74.8978,1975.73 66.2311,1965.73 59,1954.5C 53.057,1942.94 46.8903,1931.61 40.5,1920.5C 40.1667,1921.17 39.8333,1921.83 39.5,1922.5C 49.758,1950.58 66.4247,1974.08 89.5,1993C 95.9971,1998.09 102.997,2002.42 110.5,2006C 99.7775,2004.99 89.1108,2003.32 78.5,2001C 69.5712,1998.18 61.2378,1994.35 53.5,1989.5C 53.9209,1991.91 55.2542,1993.74 57.5,1995C 63.7132,1998.96 70.3799,2001.96 77.5,2004C 95.0693,2007.54 112.736,2010.54 130.5,2013C 145.337,2016.38 160.004,2020.38 174.5,2025C 163.816,2025.4 153.15,2026.07 142.5,2027C 131.327,2028.83 120.161,2030.67 109,2032.5C 102.92,2031.96 96.9201,2030.96 91,2029.5C 87.9165,2030.59 88.0832,2031.76 91.5,2033C 96.8937,2034.56 102.394,2035.39 108,2035.5C 126.868,2032.29 145.868,2029.96 165,2028.5C 186.738,2027.76 206.905,2032.92 225.5,2044C 221.874,2043.68 218.207,2043.18 214.5,2042.5C 201.557,2044.54 188.89,2047.7 176.5,2052C 171.185,2052.81 165.852,2053.48 160.5,2054C 160.043,2054.41 159.709,2054.91 159.5,2055.5C 165.509,2056.58 171.509,2056.41 177.5,2055C 186.999,2051.72 196.665,2049.06 206.5,2047C 215.611,2045.6 224.278,2046.93 232.5,2051C 235.502,2058.51 237.169,2066.35 237.5,2074.5C 231.491,2074.33 225.491,2074.5 219.5,2075C 201.899,2080.52 183.899,2083.19 165.5,2083C 140.115,2079.14 118.449,2068.14 100.5,2050C 84.3197,2041.83 69.8197,2031.33 57,2018.5C 47.5775,2007.98 42.2442,1995.65 41,1981.5C 39.4652,1964.82 37.7985,1948.15 36,1931.5C 34.8536,1924.73 32.5202,1918.39 29,1912.5C 28.5026,1909.85 28.3359,1907.19 28.5,1904.5 Z"/></g>
<g><path style="opacity:1" fill="#3d8d6c" d="M 468.5,1904.5 C 471.488,1904.15 472.821,1905.49 472.5,1908.5C 472.283,1911.49 471.283,1914.15 469.5,1916.5C 468.509,1912.55 468.176,1908.55 468.5,1904.5 Z"/></g>
<g><path style="opacity:1" fill="#3c8e6e" d="M 481.5,1914.5 C 486.69,1914.93 491.357,1916.76 495.5,1920C 504.167,1930 512.833,1940 521.5,1950C 517.833,1953 514.167,1956 510.5,1959C 509.833,1959.67 509.167,1959.67 508.5,1959C 503.278,1949.38 497.945,1939.88 492.5,1930.5C 491.386,1931.72 491.219,1933.06 492,1934.5C 496.451,1943.9 501.284,1953.07 506.5,1962C 501,1966.17 496.167,1971 492,1976.5C 490.845,1963.1 489.178,1949.77 487,1936.5C 485.551,1931.6 483.551,1926.93 481,1922.5C 480.278,1919.74 480.445,1917.07 481.5,1914.5 Z"/></g>
<g><path style="opacity:1" fill="#3c8f6f" d="M 918.5,1914.5 C 920.199,1914.34 921.866,1914.51 923.5,1915C 924.097,1916.06 924.43,1917.23 924.5,1918.5C 921.728,1925.72 919.228,1933.05 917,1940.5C 914.58,1960.12 912.58,1979.79 911,1999.5C 905.226,2018.61 894.059,2033.78 877.5,2045C 869.5,2049.67 861.5,2054.33 853.5,2059C 846.167,2065 838.833,2071 831.5,2077C 801.378,2095.37 769.711,2098.37 736.5,2086C 731.552,2084.95 726.552,2084.45 721.5,2084.5C 720.331,2077.17 719.498,2069.84 719,2062.5C 722.361,2059.74 726.195,2057.9 730.5,2057C 737.541,2056.34 744.541,2056.67 751.5,2058C 761.339,2061.29 771.339,2063.96 781.5,2066C 785.541,2066.83 789.541,2066.66 793.5,2065.5C 779.744,2063.14 766.077,2059.64 752.5,2055C 744.156,2053.51 735.823,2053.18 727.5,2054C 748.875,2041.82 771.875,2036.82 796.5,2039C 812.365,2041.01 828.199,2043.17 844,2045.5C 851.192,2045.43 858.026,2043.93 864.5,2041C 863.57,2040.01 862.404,2039.51 861,2039.5C 855.41,2040.93 849.743,2041.93 844,2042.5C 822.343,2038.39 800.51,2035.89 778.5,2035C 805.805,2025.84 833.805,2019.84 862.5,2017C 876.295,2015.1 888.628,2009.93 899.5,2001.5C 899.167,2000.5 898.5,1999.83 897.5,1999.5C 890.435,2005.2 882.435,2009.03 873.5,2011C 863.3,2013.79 852.966,2015.46 842.5,2016C 877.551,1996.81 900.885,1968.31 912.5,1930.5C 906.095,1941.64 899.928,1952.97 894,1964.5C 886.769,1975.73 878.102,1985.73 868,1994.5C 871.694,1982.62 877.86,1972.12 886.5,1963C 885.725,1961.77 884.725,1961.44 883.5,1962C 879.578,1965.25 876.412,1969.08 874,1973.5C 869.842,1982.49 865.175,1991.15 860,1999.5C 851.516,2008.33 841.349,2014.5 829.5,2018C 818.143,2021.01 806.809,2023.67 795.5,2026C 799.833,2023 804.167,2020 808.5,2017C 815.469,2009.03 822.802,2001.36 830.5,1994C 834.532,1991.65 838.532,1989.32 842.5,1987C 841.975,1986.31 841.308,1985.81 840.5,1985.5C 834.882,1987.31 829.882,1990.14 825.5,1994C 820.167,2000 814.833,2006 809.5,2012C 800.302,2019.52 790.302,2025.85 779.5,2031C 766.724,2035.04 754.057,2039.04 741.5,2043C 749.833,2033.66 757,2023.5 763,2012.5C 765.727,2009.27 768.894,2006.6 772.5,2004.5C 773.386,2003.68 773.719,2002.68 773.5,2001.5C 769.444,2002.21 766.11,2004.21 763.5,2007.5C 757.333,2016.5 751.167,2025.5 745,2034.5C 737.967,2041.59 730.467,2048.09 722.5,2054C 720.291,2055.87 718.458,2058.04 717,2060.5C 715.578,2053.31 714.078,2046.15 712.5,2039C 713.289,2034.92 714.789,2031.08 717,2027.5C 733.58,2012.25 750.747,1997.75 768.5,1984C 780.452,1976.76 793.452,1972.76 807.5,1972C 819.859,1971.31 832.192,1970.31 844.5,1969C 862.863,1967.24 877.696,1959.07 889,1944.5C 895.415,1935.41 902.582,1926.91 910.5,1919C 913.099,1917.2 915.766,1915.7 918.5,1914.5 Z"/></g>
<g><path style="opacity:1" fill="#3e8b6b" d="M 433.5,1937.5 C 435.944,1942.88 437.444,1948.54 438,1954.5C 434.257,1951.38 430.424,1948.38 426.5,1945.5C 428.856,1942.81 431.189,1940.15 433.5,1937.5 Z"/></g>
<g><path style="opacity:1" fill="#faf9f8" d="M 249.5,1991.5 C 255.778,1997.61 262.778,2002.77 270.5,2007C 265.813,2011.54 261.98,2016.71 259,2022.5C 255.686,2012.25 252.519,2001.92 249.5,1991.5 Z"/></g>
<g><path style="opacity:1" fill="#3c8f6e" d="M 717.5,2244.5 C 711.167,2244.5 704.833,2244.5 698.5,2244.5C 702.998,2231.01 705.998,2217.17 707.5,2203C 707.167,2201.83 706.833,2200.67 706.5,2199.5C 705.914,2199.71 705.414,2200.04 705,2200.5C 703.044,2215.45 699.877,2230.12 695.5,2244.5C 694.167,2244.5 692.833,2244.5 691.5,2244.5C 697.047,2227.97 700.547,2210.97 702,2193.5C 703.584,2131.67 694.751,2071.34 675.5,2012.5C 682.638,2007.76 689.638,2002.76 696.5,1997.5C 710.936,2041.77 720.77,2087.1 726,2133.5C 730.204,2171.12 727.371,2208.12 717.5,2244.5 Z"/></g>
<g><path style="opacity:1" fill="#3c8f6f" d="M 272.5,2009.5 C 280.548,2012.36 287.881,2016.53 294.5,2022C 291.536,2025.97 288.203,2029.63 284.5,2033C 277.698,2037.97 271.365,2043.47 265.5,2049.5C 263.501,2042.51 261.501,2035.51 259.5,2028.5C 261.333,2024.83 263.167,2021.17 265,2017.5C 267.705,2014.96 270.205,2012.3 272.5,2009.5 Z"/></g>
<g><path style="opacity:1" fill="#5a4f27" d="M 463.5,2012.5 C 464.675,2012.28 465.675,2012.61 466.5,2013.5C 478.912,2061.04 485.078,2109.37 485,2158.5C 484,2159.83 483,2159.83 482,2158.5C 481.557,2134.41 479.89,2110.41 477,2086.5C 472.948,2061.74 468.448,2037.07 463.5,2012.5 Z"/></g>
<g><path style="opacity:1" fill="#3c8e6e" d="M 670.5,2013.5 C 671.496,2013.41 672.329,2013.75 673,2014.5C 677.184,2027.7 680.517,2041.03 683,2054.5C 671.541,2046.71 661.708,2037.21 653.5,2026C 659.068,2021.58 664.735,2017.42 670.5,2013.5 Z"/></g>
<g><path style="opacity:1" fill="#b4cbea" d="M 1586.5,2019.5 C 1586.5,2023.83 1586.5,2028.17 1586.5,2032.5C 1548.18,2051.45 1509.52,2069.95 1470.5,2088C 1453.99,2096.84 1439.49,2108.34 1427,2122.5C 1405.4,2150.84 1403.74,2180.51 1422,2211.5C 1425.67,2216.83 1429.33,2222.17 1433,2227.5C 1433.74,2231.4 1433.07,2235.07 1431,2238.5C 1428.01,2240.4 1425.18,2242.4 1422.5,2244.5C 1414.17,2244.5 1405.83,2244.5 1397.5,2244.5C 1405.28,2239.77 1413.28,2235.27 1421.5,2231C 1417.28,2225.78 1413.44,2220.28 1410,2214.5C 1393.92,2185.56 1393.59,2156.56 1409,2127.5C 1423.5,2106.5 1442,2090 1464.5,2078C 1505.32,2058.78 1545.99,2039.28 1586.5,2019.5 Z"/></g>
<g><path style="opacity:1" fill="#3f8b6a" d="M 296.5,2024.5 C 299.168,2024.83 301.168,2026.17 302.5,2028.5C 298.241,2030.53 293.908,2032.03 289.5,2033C 291.668,2030 294.001,2027.17 296.5,2024.5 Z"/></g>
<g><path style="opacity:1" fill="#3e8c6c" d="M 649.5,2028.5 C 650.675,2028.28 651.675,2028.61 652.5,2029.5C 655.977,2034.15 659.644,2038.65 663.5,2043C 656.071,2041.3 648.737,2038.97 641.5,2036C 644.666,2034 647.332,2031.5 649.5,2028.5 Z"/></g>
<g><path style="opacity:1" fill="#fefefe" d="M 1586.5,2032.5 C 1586.5,2103.17 1586.5,2173.83 1586.5,2244.5C 1531.83,2244.5 1477.17,2244.5 1422.5,2244.5C 1425.18,2242.4 1428.01,2240.4 1431,2238.5C 1433.07,2235.07 1433.74,2231.4 1433,2227.5C 1429.33,2222.17 1425.67,2216.83 1422,2211.5C 1403.74,2180.51 1405.4,2150.84 1427,2122.5C 1439.49,2108.34 1453.99,2096.84 1470.5,2088C 1509.52,2069.95 1548.18,2051.45 1586.5,2032.5 Z"/></g>
<g><path style="opacity:1" fill="#3c8f6f" d="M 635.5,2039.5 C 650.38,2041.85 664.38,2046.68 677.5,2054C 669.157,2053.09 660.824,2053.42 652.5,2055C 639.517,2059.58 626.183,2062.58 612.5,2064C 611.167,2064.67 611.167,2065.33 612.5,2066C 616.167,2066.67 619.833,2066.67 623.5,2066C 635.519,2063 647.519,2060 659.5,2057C 668.281,2055.65 676.614,2056.98 684.5,2061C 687.321,2068.93 689.321,2077.1 690.5,2085.5C 686.476,2085.5 682.476,2085.16 678.5,2084.5C 665.772,2086.68 653.106,2089.18 640.5,2092C 607.307,2095.71 578.974,2085.71 555.5,2062C 580.651,2063.51 604.318,2058.18 626.5,2046C 629.921,2044.3 632.921,2042.13 635.5,2039.5 Z"/></g>
<g><path style="opacity:1" fill="#5a4f28" d="M 239.5,2045.5 C 240.5,2045.5 241.5,2045.5 242.5,2045.5C 251.046,2080.99 256.046,2116.99 257.5,2153.5C 257.333,2157.83 257.167,2162.17 257,2166.5C 256.586,2166.96 256.086,2167.29 255.5,2167.5C 253.933,2126.29 248.6,2085.63 239.5,2045.5 Z"/></g>
<g><path style="opacity:1" fill="#3c8f6f" d="M 303.5,2031.5 C 304.873,2031.34 306.207,2031.51 307.5,2032C 329.762,2050.54 355.429,2060.87 384.5,2063C 353.622,2085.1 320.288,2089.43 284.5,2076C 279.552,2074.95 274.552,2074.45 269.5,2074.5C 268.332,2067.17 267.498,2059.84 267,2052.5C 275.316,2046.85 284.483,2045.02 294.5,2047C 306.067,2050.41 317.734,2053.41 329.5,2056C 333.691,2056.92 337.691,2056.59 341.5,2055C 335.999,2053.57 330.332,2052.57 324.5,2052C 311.765,2047.73 298.765,2044.57 285.5,2042.5C 282.199,2043.55 278.865,2044.05 275.5,2044C 284.539,2038.98 293.872,2034.81 303.5,2031.5 Z"/></g>
<g><path style="opacity:1" fill="#fefefe" d="M 458.5,2244.5 C 394.167,2244.5 329.833,2244.5 265.5,2244.5C 269.596,2232.78 272.763,2220.78 275,2208.5C 280.744,2165.04 279.244,2121.87 270.5,2079C 275.167,2078.33 279.833,2078.33 284.5,2079C 323.198,2093.22 358.532,2087.55 390.5,2062C 407.42,2059.94 424.087,2056.6 440.5,2052C 448.202,2051.27 455.869,2051.44 463.5,2052.5C 465.555,2067.83 467.721,2083.16 470,2098.5C 476.973,2148.09 473.139,2196.76 458.5,2244.5 Z"/></g>
<g><path style="opacity:1" fill="#fefefe" d="M 688.5,2244.5 C 624.833,2244.5 561.167,2244.5 497.5,2244.5C 505.005,2221.81 509.171,2198.48 510,2174.5C 511.861,2133.17 509.028,2092.17 501.5,2051.5C 505.182,2051.33 508.848,2051.5 512.5,2052C 523.833,2054.67 535.167,2057.33 546.5,2060C 556.833,2067.67 567.167,2075.33 577.5,2083C 606.507,2098.8 636.507,2100.8 667.5,2089C 675.493,2088.5 683.493,2088.33 691.5,2088.5C 693.332,2101.49 695.165,2114.49 697,2127.5C 702.235,2167.14 699.402,2206.14 688.5,2244.5 Z"/></g>
<g><path style="opacity:1" fill="#5a4f27" d="M 691.5,2055.5 C 692.496,2055.41 693.329,2055.75 694,2056.5C 704.596,2095.81 709.596,2135.81 709,2176.5C 708.586,2176.96 708.086,2177.29 707.5,2177.5C 705.997,2136.31 700.663,2095.65 691.5,2055.5 Z"/></g>
<g><path style="opacity:1" fill="#5a4e26" d="M 470.5,2244.5 C 469.167,2244.5 467.833,2244.5 466.5,2244.5C 473.13,2225.68 477.464,2206.35 479.5,2186.5C 480.833,2186.5 482.167,2186.5 483.5,2186.5C 481.375,2206.33 477.041,2225.67 470.5,2244.5 Z"/></g>
<g><path style="opacity:1" fill="#5a4e26" d="M 253.5,2189.5 C 254.748,2190.33 255.415,2191.67 255.5,2193.5C 254.267,2205.76 251.767,2217.76 248,2229.5C 247.093,2233.57 245.426,2237.24 243,2240.5C 242.308,2239.97 241.808,2239.31 241.5,2238.5C 247.539,2222.63 251.539,2206.3 253.5,2189.5 Z"/></g>
<g><path style="opacity:1" fill="#5a4f27" d="M 698.5,2244.5 C 697.5,2244.5 696.5,2244.5 695.5,2244.5C 699.877,2230.12 703.044,2215.45 705,2200.5C 705.414,2200.04 705.914,2199.71 706.5,2199.5C 706.833,2200.67 707.167,2201.83 707.5,2203C 705.998,2217.17 702.998,2231.01 698.5,2244.5 Z"/></g>
</svg>
