<?xml version="1.0" encoding="UTF-8"?>
<!DOCTYPE svg PUBLIC "-//W3C//DTD SVG 1.1//EN" "http://www.w3.org/Graphics/SVG/1.1/DTD/svg11.dtd">
<svg xmlns="http://www.w3.org/2000/svg" version="1.1" width="666px" height="375px" style="shape-rendering:geometricPrecision; text-rendering:geometricPrecision; image-rendering:optimizeQuality; fill-rule:evenodd; clip-rule:evenodd" xmlns:xlink="http://www.w3.org/1999/xlink">
<g><path style="opacity:1" fill="#fee18a" d="M 25.5,-0.5 C 26.8333,-0.5 28.1667,-0.5 29.5,-0.5C 33.7189,0.597641 38.0522,1.59764 42.5,2.5C 42.5,4.16667 42.5,5.83333 42.5,7.5C 38.105,27.2036 34.7716,47.2036 32.5,67.5C 31.4502,71.4586 30.9502,75.4586 31,79.5C 33.126,81.3766 35.626,82.3766 38.5,82.5C 64.6105,87.6864 90.9438,92.3531 117.5,96.5C 142.2,100.573 166.866,104.906 191.5,109.5C 193.601,109.368 195.101,108.368 196,106.5C 196.455,103.146 196.955,99.8131 197.5,96.5C 201.46,76.7386 204.794,56.7386 207.5,36.5C 208.309,34.9724 208.976,33.3057 209.5,31.5C 214.484,32.2751 219.484,32.9418 224.5,33.5C 224.5,34.5 224.5,35.5 224.5,36.5C 219.991,65.8747 215.157,95.2081 210,124.5C 208.499,126.584 206.499,127.917 204,128.5C 141.889,117.432 79.7219,106.598 17.5,96C 12.8567,95.5271 10.5234,93.0271 10.5,88.5C 15.6096,58.8424 20.6096,29.1758 25.5,-0.5 Z M 32.5,67.5 C 34.1172,68.038 35.7839,68.3713 37.5,68.5C 39.6708,73.8971 43.0041,78.2304 47.5,81.5C 44.5719,82.4841 41.5719,82.8174 38.5,82.5C 35.626,82.3766 33.126,81.3766 31,79.5C 30.9502,75.4586 31.4502,71.4586 32.5,67.5 Z M 134.5,85.5 C 155.547,88.8878 176.547,92.5544 197.5,96.5C 196.955,99.8131 196.455,103.146 196,106.5C 195.101,108.368 193.601,109.368 191.5,109.5C 166.866,104.906 142.2,100.573 117.5,96.5C 116.697,95.5768 116.53,94.5768 117,93.5C 121.55,87.9744 127.383,85.3077 134.5,85.5 Z"/></g>
<g><path style="opacity:1" fill="#473f32" d="M 29.5,-0.5 C 45.1667,-0.5 60.8333,-0.5 76.5,-0.5C 76.5,0.5 76.5,1.5 76.5,2.5C 109.381,8.00776 142.214,13.6744 175,19.5C 176.107,19.4148 177.107,19.0814 178,18.5C 182.358,12.4435 186.192,6.1102 189.5,-0.5C 193.5,-0.5 197.5,-0.5 201.5,-0.5C 210.949,1.68671 220.616,3.35338 230.5,4.5C 231.152,5.4486 231.486,6.61527 231.5,8C 230.111,15.8361 228.777,23.6695 227.5,31.5C 226.778,32.5511 225.778,33.2178 224.5,33.5C 219.484,32.9418 214.484,32.2751 209.5,31.5C 153.824,21.7208 98.1572,12.0542 42.5,2.5C 38.0522,1.59764 33.7189,0.597641 29.5,-0.5 Z M 156.5,1.5 C 161.328,1.38524 162.661,3.55191 160.5,8C 154.738,8.41781 153.404,6.25114 156.5,1.5 Z"/></g>
<g><path style="opacity:1" fill="#84754e" d="M 76.5,-0.5 C 108.5,-0.5 140.5,-0.5 172.5,-0.5C 173.134,0.94678 174.301,1.61345 176,1.5C 177.376,1.31577 178.209,0.649106 178.5,-0.5C 182.167,-0.5 185.833,-0.5 189.5,-0.5C 186.192,6.1102 182.358,12.4435 178,18.5C 177.107,19.0814 176.107,19.4148 175,19.5C 142.214,13.6744 109.381,8.00776 76.5,2.5C 76.5,1.5 76.5,0.5 76.5,-0.5 Z M 156.5,1.5 C 153.404,6.25114 154.738,8.41781 160.5,8C 162.661,3.55191 161.328,1.38524 156.5,1.5 Z"/></g>
<g><path style="opacity:1" fill="#f0d480" d="M 201.5,-0.5 C 211.167,-0.5 220.833,-0.5 230.5,-0.5C 230.5,1.16667 230.5,2.83333 230.5,4.5C 220.616,3.35338 210.949,1.68671 201.5,-0.5 Z"/></g>
<g><path style="opacity:1" fill="#8877a5" d="M 290.5,-0.5 C 296.167,-0.5 301.833,-0.5 307.5,-0.5C 308.159,2.45517 308.492,5.45517 308.5,8.5C 312.667,28.1641 316.667,47.8308 320.5,67.5C 320.402,69.5529 321.069,71.2196 322.5,72.5C 317.007,73.7651 311.34,74.7651 305.5,75.5C 300.751,50.0898 295.751,24.7565 290.5,-0.5 Z"/></g>
<g><path style="opacity:1" fill="#fdfdfd" d="M 307.5,-0.5 C 324.5,-0.5 341.5,-0.5 358.5,-0.5C 343.017,3.06488 327.35,6.39822 311.5,9.5C 310.416,9.31499 309.416,8.98166 308.5,8.5C 308.492,5.45517 308.159,2.45517 307.5,-0.5 Z"/></g>
<g><path style="opacity:1" fill="#89acb6" d="M 358.5,-0.5 C 390.5,-0.5 422.5,-0.5 454.5,-0.5C 452.631,0.164619 450.631,0.831285 448.5,1.5C 452.712,2.11381 456.712,1.44714 460.5,-0.5C 465.167,-0.5 469.833,-0.5 474.5,-0.5C 476.629,12.1462 478.629,24.8128 480.5,37.5C 427.041,46.8542 373.708,56.8542 320.5,67.5C 316.667,47.8308 312.667,28.1641 308.5,8.5C 309.416,8.98166 310.416,9.31499 311.5,9.5C 327.35,6.39822 343.017,3.06488 358.5,-0.5 Z"/></g>
<g><path style="opacity:1" fill="#8775a4" d="M 474.5,-0.5 C 480.167,-0.5 485.833,-0.5 491.5,-0.5C 493.105,13.1505 495.772,26.4838 499.5,39.5C 493.459,39.8444 487.459,40.511 481.5,41.5C 481.567,40.0413 481.234,38.7079 480.5,37.5C 478.629,24.8128 476.629,12.1462 474.5,-0.5 Z"/></g>
<g><path style="opacity:1" fill="#dfe8eb" d="M 454.5,-0.5 C 456.5,-0.5 458.5,-0.5 460.5,-0.5C 456.712,1.44714 452.712,2.11381 448.5,1.5C 450.631,0.831285 452.631,0.164619 454.5,-0.5 Z"/></g>
<g><path style="opacity:1" fill="#8a8a8d" d="M 396.5,37.5 C 398.494,28.4476 397.327,19.781 393,11.5C 391.989,10.6634 390.822,10.33 389.5,10.5C 405.219,7.12849 421.052,3.79516 437,0.5C 439.923,0.7952 442.257,2.12853 444,4.5C 445.325,10.1339 446.492,15.8005 447.5,21.5C 447.594,23.9116 446.594,25.745 444.5,27C 428.545,30.8227 412.545,34.3227 396.5,37.5 Z"/></g>
<g><path style="opacity:1" fill="#fbf6f5" d="M 42.5,2.5 C 98.1572,12.0542 153.824,21.7208 209.5,31.5C 208.976,33.3057 208.309,34.9724 207.5,36.5C 152.409,27.1517 97.4085,17.4851 42.5,7.5C 42.5,5.83333 42.5,4.16667 42.5,2.5 Z"/></g>
<g><path style="opacity:1" fill="#ec988b" d="M 665.5,36.5 C 665.5,42.1667 665.5,47.8333 665.5,53.5C 639.106,43.3677 612.773,33.0344 586.5,22.5C 584.617,22.8757 583.117,23.8757 582,25.5C 581.119,28.6469 579.953,31.6469 578.5,34.5C 571.302,52.0943 564.302,69.761 557.5,87.5C 556.596,88.209 556.263,89.209 556.5,90.5C 555.89,91.391 555.557,92.391 555.5,93.5C 550.265,91.871 545.265,89.871 540.5,87.5C 551.159,59.703 562.326,32.0364 574,4.5C 575.242,3.12794 576.742,2.12794 578.5,1.5C 607.378,13.4381 636.378,25.1047 665.5,36.5 Z"/></g>
<g><path style="opacity:1" fill="#f0f0f0" d="M 428.5,4.5 C 439.886,4.04816 444.72,9.38149 443,20.5C 439.064,27.0522 433.564,28.8855 426.5,26C 418.021,18.0275 418.688,10.8608 428.5,4.5 Z"/></g>
<g><path style="opacity:1" fill="#dae5e8" d="M 466.5,2.5 C 467.675,2.28099 468.675,2.61432 469.5,3.5C 463.017,5.85813 456.35,7.02479 449.5,7C 455.278,5.49187 460.944,3.99187 466.5,2.5 Z"/></g>
<g><path style="opacity:1" fill="#606163" d="M 428.5,7.5 C 429.156,8.27775 429.989,8.94442 431,9.5C 432.3,8.29272 433.8,7.62606 435.5,7.5C 435.354,9.94238 436.187,10.6091 438,9.5C 440.827,11.0856 440.993,12.7522 438.5,14.5C 439.325,15.3857 440.325,15.719 441.5,15.5C 441.824,18.694 440.658,19.694 438,18.5C 438.698,20.7638 438.198,22.5972 436.5,24C 435.258,24.3114 434.258,23.8114 433.5,22.5C 432.158,24.0049 430.492,24.6715 428.5,24.5C 428.719,23.325 428.386,22.325 427.5,21.5C 426.575,22.6405 425.741,22.6405 425,21.5C 424.405,20.1011 424.572,18.7678 425.5,17.5C 423.599,16.065 423.266,14.3983 424.5,12.5C 427.261,13.3498 427.928,12.3498 426.5,9.5C 427.243,8.81815 427.909,8.15149 428.5,7.5 Z"/></g>
<g><path style="opacity:1" fill="#eb978a" d="M 42.5,7.5 C 97.4085,17.4851 152.409,27.1517 207.5,36.5C 204.794,56.7386 201.46,76.7386 197.5,96.5C 176.547,92.5544 155.547,88.8878 134.5,85.5C 102.352,79.725 70.0186,74.0584 37.5,68.5C 35.7839,68.3713 34.1172,68.038 32.5,67.5C 34.7716,47.2036 38.105,27.2036 42.5,7.5 Z"/></g>
<g><path style="opacity:1" fill="#615d5d" d="M 578.5,8.5 C 584.33,8.16052 586.83,10.8272 586,16.5C 582.333,20.5 578.667,20.5 575,16.5C 574.279,12.9463 575.446,10.2796 578.5,8.5 Z"/></g>
<g><path style="opacity:1" fill="#585a5c" d="M 389.5,10.5 C 390.822,10.33 391.989,10.6634 393,11.5C 397.327,19.781 398.494,28.4476 396.5,37.5C 387.169,39.1657 377.835,40.8324 368.5,42.5C 377.76,31.5578 376.094,22.7245 363.5,16C 364.056,15.6174 364.389,15.1174 364.5,14.5C 372.866,13.1625 381.199,11.8292 389.5,10.5 Z"/></g>
<g><path style="opacity:1" fill="#dfe9ec" d="M 463.5,8.5 C 465.857,8.33669 468.19,8.50335 470.5,9C 464.127,10.3432 457.794,11.8432 451.5,13.5C 451.167,13.1667 450.833,12.8333 450.5,12.5C 454.855,10.9057 459.188,9.57232 463.5,8.5 Z"/></g>
<g><path style="opacity:1" fill="#e1eaec" d="M 467.5,13.5 C 468.978,13.238 470.311,13.5713 471.5,14.5C 464.845,16.5718 458.178,17.5718 451.5,17.5C 456.986,16.2753 462.32,14.942 467.5,13.5 Z"/></g>
<g><path style="opacity:1" fill="#848587" d="M 364.5,14.5 C 364.389,15.1174 364.056,15.6174 363.5,16C 376.094,22.7245 377.76,31.5578 368.5,42.5C 362.497,43.6775 356.497,44.5109 350.5,45C 348.274,43.7727 346.774,41.9393 346,39.5C 344.541,33.554 343.874,27.554 344,21.5C 345.167,20.3333 346.333,19.1667 347.5,18C 353.213,16.9706 358.88,15.804 364.5,14.5 Z"/></g>
<g><path style="opacity:1" fill="#edeeee" d="M 355.5,18.5 C 366.153,17.905 370.987,22.905 370,33.5C 365.85,41.7229 359.684,43.5562 351.5,39C 345.249,30.6682 346.583,23.8348 355.5,18.5 Z"/></g>
<g><path style="opacity:1" fill="#5d5e60" d="M 359.5,21.5 C 360.5,21.5 361.5,21.5 362.5,21.5C 362.117,24.462 363.117,25.462 365.5,24.5C 368.039,25.8552 368.039,27.3552 365.5,29C 366.707,30.3002 367.374,31.8002 367.5,33.5C 365.058,33.3537 364.391,34.187 365.5,36C 363.914,38.8268 362.248,38.9935 360.5,36.5C 359.065,38.4011 357.398,38.7345 355.5,37.5C 356.153,34.3418 355.319,34.0085 353,36.5C 351.228,35.0099 351.061,33.3432 352.5,31.5C 350.995,30.1585 350.328,28.4918 350.5,26.5C 351.978,26.762 353.311,26.4287 354.5,25.5C 353.975,24.8076 353.308,24.3076 352.5,24C 354.138,22.1987 355.972,22.0321 358,23.5C 359.03,23.1639 359.53,22.4972 359.5,21.5 Z"/></g>
<g><path style="opacity:1" fill="#e6eef0" d="M 466.5,19.5 C 468.527,19.3379 470.527,19.5045 472.5,20C 465.988,22.2159 459.321,23.2159 452.5,23C 457.295,21.8011 461.962,20.6345 466.5,19.5 Z"/></g>
<g><path style="opacity:1" fill="#fdfdfd" d="M 665.5,53.5 C 665.5,58.5 665.5,63.5 665.5,68.5C 636.5,57.1667 607.5,45.8333 578.5,34.5C 579.953,31.6469 581.119,28.6469 582,25.5C 583.117,23.8757 584.617,22.8757 586.5,22.5C 612.773,33.0344 639.106,43.3677 665.5,53.5 Z"/></g>
<g><path style="opacity:1" fill="#e1eaec" d="M 333.5,22.5 C 335.199,22.3398 336.866,22.5065 338.5,23C 332.465,24.7433 326.299,26.2433 320,27.5C 319.5,27.1667 319,26.8333 318.5,26.5C 323.619,25.1506 328.619,23.8173 333.5,22.5 Z"/></g>
<g><path style="opacity:1" fill="#fbe7e4" d="M 43.5,27.5 C 43.9169,26.8761 44.5836,26.5427 45.5,26.5C 51.8383,27.8343 58.1716,29.1676 64.5,30.5C 57.3823,30.9268 50.3823,29.9268 43.5,27.5 Z"/></g>
<g><path style="opacity:1" fill="#8c8a8c" d="M 124.5,38.5 C 123.504,38.4142 122.671,38.7476 122,39.5C 117.661,47.7498 116.494,56.4165 118.5,65.5C 102.416,63.6471 86.4157,61.1471 70.5,58C 67.124,55.9348 65.7906,52.9348 66.5,49C 67.0914,43.7994 67.9247,38.6328 69,33.5C 70.6195,31.2738 72.7862,29.9404 75.5,29.5C 91.9463,32.6277 108.28,35.6277 124.5,38.5 Z"/></g>
<g><path style="opacity:1" fill="#e1eaec" d="M 335.5,27.5 C 336.978,27.238 338.311,27.5713 339.5,28.5C 332.965,30.6414 326.298,31.808 319.5,32C 324.977,30.5994 330.311,29.0994 335.5,27.5 Z"/></g>
<g><path style="opacity:1" fill="#fae0dc" d="M 42.5,33.5 C 49.4525,32.9822 56.4525,33.8155 63.5,36C 56.41,36.0412 49.41,35.2079 42.5,33.5 Z"/></g>
<g><path style="opacity:1" fill="#eaeaea" d="M 77.5,33.5 C 90.1991,33.2484 95.0324,39.2484 92,51.5C 83.3314,60.1661 75.9981,59.1661 70,48.5C 69.3333,46.1667 69.3333,43.8333 70,41.5C 72.0282,38.3078 74.5282,35.6411 77.5,33.5 Z"/></g>
<g><path style="opacity:0.682" fill="#b7af9b" d="M 227.5,31.5 C 227.279,33.6636 226.279,35.3303 224.5,36.5C 224.5,35.5 224.5,34.5 224.5,33.5C 225.778,33.2178 226.778,32.5511 227.5,31.5 Z"/></g>
<g><path style="opacity:1" fill="#e0e9eb" d="M 333.5,33.5 C 335.857,33.3367 338.19,33.5034 340.5,34C 334.14,35.306 327.807,36.806 321.5,38.5C 321.167,38.1667 320.833,37.8333 320.5,37.5C 324.899,35.9899 329.232,34.6566 333.5,33.5 Z"/></g>
<g><path style="opacity:1" fill="#89acb6" d="M 578.5,34.5 C 607.5,45.8333 636.5,57.1667 665.5,68.5C 665.5,74.1667 665.5,79.8333 665.5,85.5C 659.833,83.5 654.167,81.5 648.5,79.5C 639.91,75.8524 631.243,72.1857 622.5,68.5C 617.192,66.2281 611.692,64.2281 606,62.5C 601.69,62.3204 599.024,64.3204 598,68.5C 596.352,72.9598 594.852,77.4598 593.5,82C 593.625,83.6268 594.125,85.1268 595,86.5C 600.516,89.8396 606.349,92.5063 612.5,94.5C 620.721,98.1102 629.054,101.443 637.5,104.5C 646.611,108.541 655.945,112.208 665.5,115.5C 665.5,121.167 665.5,126.833 665.5,132.5C 630.151,118.438 594.817,104.271 559.5,90C 558.244,89.5831 557.577,88.7498 557.5,87.5C 564.302,69.761 571.302,52.0943 578.5,34.5 Z"/></g>
<g><path style="opacity:1" fill="#5b5c5e" d="M 77.5,36.5 C 78.8333,36.5 80.1667,36.5 81.5,36.5C 81.5,37.5 81.5,38.5 81.5,39.5C 82.5,39.5 83.5,39.5 84.5,39.5C 84.678,35.8979 85.678,35.8979 87.5,39.5C 86.5,41.8333 87.1667,42.5 89.5,41.5C 90.4287,42.6888 90.762,44.0222 90.5,45.5C 89.5,45.5 88.5,45.5 87.5,45.5C 88.0134,47.2895 88.5134,48.9562 89,50.5C 88,51.8333 87,51.8333 86,50.5C 84.8808,51.5521 84.3808,52.7188 84.5,54C 83.552,54.4828 82.552,54.6495 81.5,54.5C 81.5,53.5 81.5,52.5 81.5,51.5C 79.7105,52.0134 78.0438,52.5134 76.5,53C 75.2889,51.8869 75.2889,50.7202 76.5,49.5C 75.7261,48.2888 74.8928,48.2888 74,49.5C 71.5017,46.8986 72.0017,45.5653 75.5,45.5C 75.5198,43.857 74.8532,42.5237 73.5,41.5C 73.8333,40.5 74.5,39.8333 75.5,39.5C 76.6086,40.5896 77.6086,40.5896 78.5,39.5C 77.8728,38.5832 77.5394,37.5832 77.5,36.5 Z"/></g>
<g><path style="opacity:1" fill="#f6f7f8" d="M 480.5,37.5 C 481.234,38.7079 481.567,40.0413 481.5,41.5C 428.673,52.1982 375.673,62.5316 322.5,72.5C 321.069,71.2196 320.402,69.5529 320.5,67.5C 373.708,56.8542 427.041,46.8542 480.5,37.5 Z"/></g>
<g><path style="opacity:1" fill="#fae4e0" d="M 41.5,37.5 C 48.5064,38.7236 55.5064,40.057 62.5,41.5C 58.8709,42.2378 55.2043,42.0712 51.5,41C 47.6762,40.5672 44.3428,39.4006 41.5,37.5 Z"/></g>
<g><path style="opacity:1" fill="#59595b" d="M 124.5,38.5 C 133.449,40.1582 142.449,41.4915 151.5,42.5C 149.877,44.951 147.711,46.951 145,48.5C 139.966,55.8956 140.466,62.8956 146.5,69.5C 146.043,70.2975 145.376,70.6309 144.5,70.5C 135.586,69.4619 126.919,67.7952 118.5,65.5C 116.494,56.4165 117.661,47.7498 122,39.5C 122.671,38.7476 123.504,38.4142 124.5,38.5 Z"/></g>
<g><path style="opacity:1" fill="#342d36" d="M 499.5,39.5 C 502.012,48.5614 503.678,57.8948 504.5,67.5C 491.446,69.6819 478.446,72.0152 465.5,74.5C 461.221,66.9255 456.221,59.9255 450.5,53.5C 418.377,59.4644 386.377,65.9644 354.5,73C 352.47,81.3582 350.137,89.5249 347.5,97.5C 334.851,99.5928 322.184,101.593 309.5,103.5C 307.89,95.0098 306.223,86.5098 304.5,78C 304.528,76.9302 304.861,76.0968 305.5,75.5C 311.34,74.7651 317.007,73.7651 322.5,72.5C 375.673,62.5316 428.673,52.1982 481.5,41.5C 487.459,40.511 493.459,39.8444 499.5,39.5 Z"/></g>
<g><path style="opacity:1" fill="#dbe6e9" d="M 337.5,38.5 C 338.978,38.238 340.311,38.5713 341.5,39.5C 335.349,40.8865 329.183,42.2198 323,43.5C 322.5,43.1667 322,42.8333 321.5,42.5C 326.953,41.1563 332.286,39.823 337.5,38.5 Z"/></g>
<g><path style="opacity:1" fill="#868486" d="M 151.5,42.5 C 157.102,43.8789 162.769,45.0456 168.5,46C 169.931,46.4652 171.097,47.2986 172,48.5C 172.323,55.5695 171.657,62.5695 170,69.5C 168.734,72.6351 166.401,74.3017 163,74.5C 156.689,73.2046 150.522,71.8713 144.5,70.5C 145.376,70.6309 146.043,70.2975 146.5,69.5C 140.466,62.8956 139.966,55.8956 145,48.5C 147.711,46.951 149.877,44.951 151.5,42.5 Z"/></g>
<g><path style="opacity:1" fill="#fcece9" d="M 41.5,44.5 C 41.9169,43.8761 42.5836,43.5427 43.5,43.5C 49.5363,44.5285 55.5363,45.6952 61.5,47C 54.6569,47.454 47.9902,46.6207 41.5,44.5 Z"/></g>
<g><path style="opacity:1" fill="#efefef" d="M 153.5,46.5 C 166.758,46.5934 171.258,52.9267 167,65.5C 158.812,72.7957 151.812,71.7957 146,62.5C 143.965,54.9068 146.465,49.5735 153.5,46.5 Z"/></g>
<g><path style="opacity:1" fill="#e6edef" d="M 335.5,44.5 C 337.857,44.3367 340.19,44.5034 342.5,45C 335.935,46.9147 329.268,47.9147 322.5,48C 326.974,46.8802 331.307,45.7135 335.5,44.5 Z"/></g>
<g><path style="opacity:1" fill="#fae3df" d="M 40.5,48.5 C 47.2181,49.5552 53.8847,50.8885 60.5,52.5C 59.8333,52.8333 59.1667,53.1667 58.5,53.5C 53.8541,52.559 49.1875,51.7257 44.5,51C 42.563,50.8784 41.2297,50.045 40.5,48.5 Z"/></g>
<g><path style="opacity:1" fill="#5f6062" d="M 153.5,49.5 C 155.492,49.3285 157.158,49.9951 158.5,51.5C 162.01,49.7909 163.343,50.6242 162.5,54C 163.482,55.0544 164.649,55.5544 166,55.5C 166.483,56.448 166.649,57.448 166.5,58.5C 163.104,58.6329 162.771,59.6329 165.5,61.5C 164.924,64.1242 163.59,64.7908 161.5,63.5C 160.996,66.3418 159.329,67.6751 156.5,67.5C 156.367,64.1043 155.367,63.7709 153.5,66.5C 150.388,65.6495 150.054,64.4828 152.5,63C 151.464,61.3831 150.297,61.2164 149,62.5C 147.991,60.9751 147.491,59.3084 147.5,57.5C 150.718,57.3491 151.051,56.5158 148.5,55C 149.468,51.5953 150.968,51.0953 153,53.5C 154.511,52.436 154.677,51.1026 153.5,49.5 Z"/></g>
<g><path style="opacity:1" fill="#fae0dc" d="M 178.5,51.5 C 179.622,50.8442 180.955,50.5108 182.5,50.5C 188.238,51.4373 193.905,52.604 199.5,54C 192.41,54.0412 185.41,53.2079 178.5,51.5 Z"/></g>
<g><path style="opacity:1" fill="#50475c" d="M 465.5,74.5 C 467.604,76.3718 468.937,78.7052 469.5,81.5C 429.571,89.3778 389.571,97.0444 349.5,104.5C 348.833,102.167 348.167,99.8333 347.5,97.5C 350.137,89.5249 352.47,81.3582 354.5,73C 386.377,65.9644 418.377,59.4644 450.5,53.5C 456.221,59.9255 461.221,66.9255 465.5,74.5 Z"/></g>
<g><path style="opacity:1" fill="#e3ebee" d="M 577.5,52.5 C 583.814,55.1618 590.147,57.8285 596.5,60.5C 596.167,60.8333 595.833,61.1667 595.5,61.5C 590.873,59.5687 586.206,57.7353 581.5,56C 579.456,55.5017 578.122,54.335 577.5,52.5 Z"/></g>
<g><path style="opacity:1" fill="#f9d9d5" d="M 177.5,55.5 C 184.606,56.2954 191.606,57.6287 198.5,59.5C 197.667,59.8333 196.833,60.1667 196,60.5C 191.176,59.6127 186.343,58.7794 181.5,58C 179.563,57.8784 178.23,57.045 177.5,55.5 Z"/></g>
<g><path style="opacity:1" fill="#e3ebee" d="M 575.5,59.5 C 575.735,58.9033 576.235,58.5699 577,58.5C 582.95,60.8136 588.783,63.3136 594.5,66C 588.044,64.451 581.71,62.2844 575.5,59.5 Z"/></g>
<g><path style="opacity:1" fill="#f9d8d3" d="M 176.5,62.5 C 177.097,61.8614 177.93,61.528 179,61.5C 185.358,62.1435 191.525,63.4768 197.5,65.5C 190.47,65.4976 183.47,64.4976 176.5,62.5 Z"/></g>
<g><path style="opacity:1" fill="#848588" d="M 622.5,68.5 C 621.947,69.8231 622.447,71.1564 624,72.5C 625.589,79.2002 624.089,85.0335 619.5,90C 616.761,91.0259 614.428,92.5259 612.5,94.5C 606.349,92.5063 600.516,89.8396 595,86.5C 594.125,85.1268 593.625,83.6268 593.5,82C 594.852,77.4598 596.352,72.9598 598,68.5C 599.024,64.3204 601.69,62.3204 606,62.5C 611.692,64.2281 617.192,66.2281 622.5,68.5 Z"/></g>
<g><path style="opacity:1" fill="#f9f8f9" d="M 432.5,65.5 C 437.328,65.3852 438.661,67.5519 436.5,72C 430.738,72.4178 429.404,70.2511 432.5,65.5 Z"/></g>
<g><path style="opacity:1" fill="#e4ecee" d="M 573.5,64.5 C 579.948,65.3426 586.281,67.5093 592.5,71C 586.074,69.3573 579.74,67.1906 573.5,64.5 Z"/></g>
<g><path style="opacity:1" fill="#fbeae7" d="M 175.5,66.5 C 182.664,67.5433 189.664,69.0433 196.5,71C 190.456,70.8275 184.456,69.9942 178.5,68.5C 176.97,68.3601 175.97,67.6935 175.5,66.5 Z"/></g>
<g><path style="opacity:1" fill="#8877a4" d="M 504.5,67.5 C 504.456,71.0897 502.789,73.5897 499.5,75C 489.336,76.5988 479.336,78.7655 469.5,81.5C 468.937,78.7052 467.604,76.3718 465.5,74.5C 478.446,72.0152 491.446,69.6819 504.5,67.5 Z"/></g>
<g><path style="opacity:1" fill="#ededee" d="M 606.5,66.5 C 618.506,66.9946 623.006,72.9946 620,84.5C 613.333,91.1667 606.667,91.1667 600,84.5C 596.82,76.5325 598.987,70.5325 606.5,66.5 Z"/></g>
<g><path style="opacity:0.94" fill="#fefdfc" d="M 37.5,68.5 C 70.0186,74.0584 102.352,79.725 134.5,85.5C 127.383,85.3077 121.55,87.9744 117,93.5C 116.53,94.5768 116.697,95.5768 117.5,96.5C 90.9438,92.3531 64.6105,87.6864 38.5,82.5C 41.5719,82.8174 44.5719,82.4841 47.5,81.5C 43.0041,78.2304 39.6708,73.8971 37.5,68.5 Z"/></g>
<g><path style="opacity:1" fill="#595a5c" d="M 622.5,68.5 C 631.243,72.1857 639.91,75.8524 648.5,79.5C 647.787,89.2482 644.121,97.5815 637.5,104.5C 629.054,101.443 620.721,98.1102 612.5,94.5C 614.428,92.5259 616.761,91.0259 619.5,90C 624.089,85.0335 625.589,79.2002 624,72.5C 622.447,71.1564 621.947,69.8231 622.5,68.5 Z"/></g>
<g><path style="opacity:1" fill="#5d5e60" d="M 608.5,69.5 C 609.833,69.5 611.167,69.5 612.5,69.5C 612.281,70.675 612.614,71.675 613.5,72.5C 617.438,71.4331 618.104,72.4331 615.5,75.5C 616.325,76.3857 617.325,76.719 618.5,76.5C 618.5,77.8333 618.5,79.1667 618.5,80.5C 615.282,80.6509 614.949,81.4842 617.5,83C 616.083,85.8262 614.583,85.9928 613,83.5C 611.812,84.5634 611.312,85.8967 611.5,87.5C 610.5,87.5 609.5,87.5 608.5,87.5C 608.719,86.325 608.386,85.325 607.5,84.5C 605.411,85.8034 603.744,85.3034 602.5,83C 605.051,81.4842 604.718,80.6509 601.5,80.5C 601.5,79.1667 601.5,77.8333 601.5,76.5C 602.675,76.719 603.675,76.3857 604.5,75.5C 603.167,72.1667 604.167,71.1667 607.5,72.5C 608.386,71.675 608.719,70.675 608.5,69.5 Z"/></g>
<g><path style="opacity:1" fill="#f6f5f6" d="M 449.5,71.5 C 454.328,71.3852 455.661,73.5519 453.5,78C 447.738,78.4178 446.404,76.2511 449.5,71.5 Z"/></g>
<g><path style="opacity:1" fill="#e5edef" d="M 571.5,69.5 C 572.251,68.4265 573.251,68.2599 574.5,69C 579.864,71.3505 585.197,73.6839 590.5,76C 584.039,74.4481 577.706,72.2815 571.5,69.5 Z"/></g>
<g><path style="opacity:1" fill="#fbe9e6" d="M 174.5,73.5 C 181.413,73.1971 188.413,74.0304 195.5,76C 188.384,76.2591 181.384,75.4258 174.5,73.5 Z"/></g>
<g><path style="opacity:1" fill="#f5f5f6" d="M 374.5,75.5 C 380.016,75.4734 381.349,77.64 378.5,82C 372.738,82.4178 371.404,80.2511 374.5,75.5 Z"/></g>
<g><path style="opacity:1" fill="#e6edf0" d="M 569.5,74.5 C 575.948,75.3426 582.281,77.5093 588.5,81C 582.039,79.4481 575.706,77.2815 569.5,74.5 Z"/></g>
<g><path style="opacity:1" fill="#898a8c" d="M 648.5,79.5 C 654.167,81.5 659.833,83.5 665.5,85.5C 665.5,95.5 665.5,105.5 665.5,115.5C 655.945,112.208 646.611,108.541 637.5,104.5C 644.121,97.5815 647.787,89.2482 648.5,79.5 Z"/></g>
<g><path style="opacity:1" fill="#5f5e5d" d="M 18.5,80.5 C 25.7975,80.617 27.9641,83.9503 25,90.5C 18.0355,93.5053 15.0355,91.172 16,83.5C 17.045,82.6266 17.8783,81.6266 18.5,80.5 Z"/></g>
<g><path style="opacity:1" fill="#f2f1f2" d="M 360.5,87.5 C 366.158,86.6794 367.825,88.846 365.5,94C 359.741,95.1387 358.074,92.972 360.5,87.5 Z"/></g>
<g><path style="opacity:1" fill="#443432" d="M 540.5,87.5 C 545.265,89.871 550.265,91.871 555.5,93.5C 558.406,94.7866 561.406,95.7866 564.5,96.5C 564.5,97.1667 564.833,97.5 565.5,97.5C 565.842,98.3382 566.508,98.6716 567.5,98.5C 571.279,99.5578 574.946,100.891 578.5,102.5C 607.322,114.739 636.322,126.739 665.5,138.5C 665.5,140.5 665.5,142.5 665.5,144.5C 638.356,133.614 611.189,122.614 584,111.5C 577.401,116.698 571.235,122.365 565.5,128.5C 553.167,123.833 540.833,119.167 528.5,114.5C 530.757,106.647 533.59,98.9804 537,91.5C 537.498,89.4556 538.665,88.1223 540.5,87.5 Z"/></g>
<g><path style="opacity:0.934" fill="#f7f7f7" d="M 557.5,87.5 C 557.577,88.7498 558.244,89.5831 559.5,90C 594.817,104.271 630.151,118.438 665.5,132.5C 665.5,134.5 665.5,136.5 665.5,138.5C 636.322,126.739 607.322,114.739 578.5,102.5C 576.708,99.2337 573.875,97.2337 570,96.5C 568.624,96.6842 567.791,97.3509 567.5,98.5C 566.508,98.6716 565.842,98.3382 565.5,97.5C 564.833,97.5 564.5,97.1667 564.5,96.5C 562.14,94.1468 559.473,92.1468 556.5,90.5C 556.263,89.209 556.596,88.209 557.5,87.5 Z"/></g>
<g><path style="opacity:1" fill="#8877a3" d="M 347.5,97.5 C 348.167,99.8333 348.833,102.167 349.5,104.5C 339.279,106.062 328.779,107.729 318,109.5C 313.63,109.624 310.796,107.624 309.5,103.5C 322.184,101.593 334.851,99.5928 347.5,97.5 Z"/></g>
<g><path style="opacity:1" fill="#5f5e5c" d="M 198.5,110.5 C 206.605,111.543 208.272,115.377 203.5,122C 197.171,122.668 194.671,119.834 196,113.5C 197.045,112.627 197.878,111.627 198.5,110.5 Z"/></g>
<g><path style="opacity:1" fill="#7e5651" d="M 665.5,144.5 C 665.5,150.833 665.5,157.167 665.5,163.5C 662.551,161.875 660.551,162.708 659.5,166C 660.789,168.817 662.789,169.65 665.5,168.5C 665.5,171.5 665.5,174.5 665.5,177.5C 630.091,163.955 595.091,149.622 560.5,134.5C 562.167,132.5 563.833,130.5 565.5,128.5C 571.235,122.365 577.401,116.698 584,111.5C 611.189,122.614 638.356,133.614 665.5,144.5 Z M 595.5,125.5 C 601.555,124.942 602.888,127.109 599.5,132C 594.795,132.106 593.462,129.939 595.5,125.5 Z M 579.5,127.5 C 583.264,128.385 584.264,130.552 582.5,134C 576.17,134.176 575.17,132.009 579.5,127.5 Z M 649.5,148.5 C 655.555,147.942 656.888,150.109 653.5,155C 650.678,155.699 649.012,154.532 648.5,151.5C 649.127,150.583 649.461,149.583 649.5,148.5 Z"/></g>
<g><path style="opacity:1" fill="#ea988c" d="M 528.5,114.5 C 540.833,119.167 553.167,123.833 565.5,128.5C 563.833,130.5 562.167,132.5 560.5,134.5C 549.655,130.492 539.155,125.825 529,120.5C 528.505,118.527 528.338,116.527 528.5,114.5 Z"/></g>
<g><path style="opacity:1" fill="#8876a5" d="M 113.5,273.5 C 108.723,275.874 103.723,277.874 98.5,279.5C 97.6554,278.329 96.9887,276.995 96.5,275.5C 89.4052,256.991 82.0719,238.658 74.5,220.5C 73.6332,217.092 72.4665,213.758 71,210.5C 70.196,209.196 69.0293,208.529 67.5,208.5C 44.9045,217.365 22.2378,226.032 -0.5,234.5C -0.5,228.833 -0.5,223.167 -0.5,217.5C 23.3275,208.834 46.9942,199.667 70.5,190C 76.5032,186.844 80.6698,188.344 83,194.5C 93.1798,220.854 103.347,247.188 113.5,273.5 Z"/></g>
<g><path style="opacity:1" fill="#59595d" d="M 71.5,193.5 C 79.8185,193.987 81.4851,197.487 76.5,204C 68.0878,203.812 66.4211,200.312 71.5,193.5 Z"/></g>
<g><path style="opacity:1" fill="#fcfcfd" d="M 74.5,220.5 C 49.6533,230.342 24.6533,240.008 -0.5,249.5C -0.5,244.5 -0.5,239.5 -0.5,234.5C 22.2378,226.032 44.9045,217.365 67.5,208.5C 69.0293,208.529 70.196,209.196 71,210.5C 72.4665,213.758 73.6332,217.092 74.5,220.5 Z"/></g>
<g><path style="opacity:1" fill="#89acb6" d="M 74.5,220.5 C 82.0719,238.658 89.4052,256.991 96.5,275.5C 64.1149,287.853 31.7816,300.519 -0.5,313.5C -0.5,307.833 -0.5,302.167 -0.5,296.5C 4.16667,294.833 8.83333,293.167 13.5,291.5C 28.0286,285.405 42.6953,279.572 57.5,274C 59.8333,272.667 60.8333,270.667 60.5,268C 59.461,260.929 56.7943,254.595 52.5,249C 49.8333,248.333 47.1667,248.333 44.5,249C 30.6936,254.429 17.0269,259.929 3.5,265.5C 2.16667,265.833 0.833333,266.167 -0.5,266.5C -0.5,260.833 -0.5,255.167 -0.5,249.5C 24.6533,240.008 49.6533,230.342 74.5,220.5 Z"/></g>
<g><path style="opacity:1" fill="#e5edee" d="M 73.5,239.5 C 74.8734,239.343 76.2068,239.51 77.5,240C 73.9851,241.843 70.3184,242.843 66.5,243C 68.9252,241.787 71.2585,240.621 73.5,239.5 Z"/></g>
<g><path style="opacity:1" fill="#fbdf8a" d="M 618.5,246.5 C 605.555,249.986 592.555,253.32 579.5,256.5C 579.575,253.794 579.908,251.127 580.5,248.5C 591.064,246.147 601.564,243.48 612,240.5C 615.306,241.307 617.473,243.307 618.5,246.5 Z"/></g>
<g><path style="opacity:1" fill="#e1eaed" d="M 76.5,244.5 C 78.7349,245.248 78.4016,246.081 75.5,247C 70.2613,249.304 64.9279,250.97 59.5,252C 65.1921,249.387 70.8588,246.887 76.5,244.5 Z"/></g>
<g><path style="opacity:1" fill="#463e30" d="M 618.5,246.5 C 622.036,255.465 624.702,264.798 626.5,274.5C 620.681,275.704 615.014,277.371 609.5,279.5C 554.976,293.855 500.643,308.522 446.5,323.5C 440.717,324.362 435.05,325.696 429.5,327.5C 426.084,318.858 423.417,309.858 421.5,300.5C 421.543,299.584 421.876,298.917 422.5,298.5C 434.425,295.186 446.425,292.186 458.5,289.5C 459.978,289.238 461.311,289.571 462.5,290.5C 466.982,297.159 472.148,303.159 478,308.5C 510.821,299.962 543.488,290.962 576,281.5C 576.855,273.075 578.021,264.742 579.5,256.5C 592.555,253.32 605.555,249.986 618.5,246.5 Z"/></g>
<g><path style="opacity:1" fill="#8a8b8d" d="M 13.5,291.5 C 14.035,281.253 10.7016,272.587 3.5,265.5C 17.0269,259.929 30.6936,254.429 44.5,249C 47.1667,248.333 49.8333,248.333 52.5,249C 56.7943,254.595 59.461,260.929 60.5,268C 60.8333,270.667 59.8333,272.667 57.5,274C 42.6953,279.572 28.0286,285.405 13.5,291.5 Z"/></g>
<g><path style="opacity:1" fill="#867750" d="M 580.5,248.5 C 579.908,251.127 579.575,253.794 579.5,256.5C 578.021,264.742 576.855,273.075 576,281.5C 543.488,290.962 510.821,299.962 478,308.5C 472.148,303.159 466.982,297.159 462.5,290.5C 461.311,289.571 459.978,289.238 458.5,289.5C 459.091,288.849 459.757,288.182 460.5,287.5C 458.722,285.736 457.389,283.736 456.5,281.5C 497.731,270.192 539.064,259.192 580.5,248.5 Z M 563.5,260.5 C 566.55,259.923 568.55,261.09 569.5,264C 566.678,268.518 564.011,268.518 561.5,264C 562.305,262.887 562.972,261.721 563.5,260.5 Z M 551.5,273.5 C 555.473,274.075 556.473,276.242 554.5,280C 550.494,280.987 548.661,279.487 549,275.5C 549.995,274.934 550.828,274.267 551.5,273.5 Z"/></g>
<g><path style="opacity:1" fill="#f0f0f0" d="M 40.5,252.5 C 47.6625,251.331 52.8292,253.998 56,260.5C 55.7032,273.472 49.5366,277.639 37.5,273C 31.4322,265.03 32.4322,258.197 40.5,252.5 Z"/></g>
<g><path style="opacity:1" fill="#e6eef0" d="M 77.5,249.5 C 78.8734,249.343 80.2068,249.51 81.5,250C 74.9371,252.964 68.2704,255.297 61.5,257C 66.752,254.228 72.0853,251.728 77.5,249.5 Z"/></g>
<g><path style="opacity:1" fill="#5f6062" d="M 43.5,255.5 C 45.5922,255.561 47.0922,256.561 48,258.5C 49.5826,256.007 51.0826,256.174 52.5,259C 49.5315,261.178 49.8649,262.344 53.5,262.5C 53.5,263.5 53.5,264.5 53.5,265.5C 52.325,265.281 51.325,265.614 50.5,266.5C 52.0234,268.586 51.69,270.252 49.5,271.5C 47.6329,268.771 46.6329,269.104 46.5,272.5C 45.1667,272.5 43.8333,272.5 42.5,272.5C 42.3491,269.282 41.5158,268.949 40,271.5C 37.6966,270.256 37.1966,268.589 38.5,266.5C 37.675,265.614 36.675,265.281 35.5,265.5C 35.5,264.167 35.5,262.833 35.5,261.5C 36.675,261.719 37.675,261.386 38.5,260.5C 37.4104,259.391 37.4104,258.391 38.5,257.5C 39.8333,256.167 41.1667,256.167 42.5,257.5C 43.2975,257.043 43.6309,256.376 43.5,255.5 Z"/></g>
<g><path style="opacity:1" fill="#ec988b" d="M 354.5,374.5 C 348.833,374.5 343.167,374.5 337.5,374.5C 341.009,358.129 344.676,341.796 348.5,325.5C 349.163,322.179 349.83,318.846 350.5,315.5C 350.61,313.626 349.944,312.126 348.5,311C 297.576,298.526 246.576,286.359 195.5,274.5C 193.971,274.529 192.804,275.196 192,276.5C 190.951,280.133 190.118,283.799 189.5,287.5C 184.858,306.07 180.525,324.736 176.5,343.5C 175.542,345.302 174.875,347.302 174.5,349.5C 169.158,348.496 163.825,347.496 158.5,346.5C 166.103,317.333 173.269,287.999 180,258.5C 181.351,256.99 183.018,255.99 185,255.5C 246.319,269.788 307.485,284.622 368.5,300C 370.478,302.497 370.978,305.331 370,308.5C 364.518,330.442 359.351,352.442 354.5,374.5 Z"/></g>
<g><path style="opacity:1" fill="#e2ebed" d="M 80.5,254.5 C 81.552,254.351 82.552,254.517 83.5,255C 77.3321,258.332 70.9988,260.499 64.5,261.5C 69.9247,259.145 75.2581,256.812 80.5,254.5 Z"/></g>
<g><path style="opacity:1" fill="#e4ecee" d="M 82.5,259.5 C 83.552,259.351 84.552,259.517 85.5,260C 79.3832,263.239 73.0498,265.572 66.5,267C 71.9438,264.582 77.2771,262.082 82.5,259.5 Z"/></g>
<g><path style="opacity:1" fill="#5e5b5c" d="M 186.5,261.5 C 193.574,262.482 195.24,265.982 191.5,272C 185.07,274.219 182.237,272.053 183,265.5C 184.102,264.051 185.269,262.718 186.5,261.5 Z"/></g>
<g><path style="opacity:1" fill="#58595b" d="M 3.5,265.5 C 10.7016,272.587 14.035,281.253 13.5,291.5C 8.83333,293.167 4.16667,294.833 -0.5,296.5C -0.5,286.5 -0.5,276.5 -0.5,266.5C 0.833333,266.167 2.16667,265.833 3.5,265.5 Z"/></g>
<g><path style="opacity:1" fill="#342d36" d="M 113.5,273.5 C 114.496,273.414 115.329,273.748 116,274.5C 119.465,283.09 122.632,291.756 125.5,300.5C 113.388,304.98 101.388,309.647 89.5,314.5C 82.8799,309.052 76.3799,303.385 70,297.5C 46.3582,306.431 22.8582,315.431 -0.5,324.5C -0.5,322.5 -0.5,320.5 -0.5,318.5C 32.8012,306.07 65.8012,293.07 98.5,279.5C 103.723,277.874 108.723,275.874 113.5,273.5 Z"/></g>
<g><path style="opacity:1" fill="#fdfdfd" d="M 348.5,325.5 C 295.538,312.728 242.538,300.061 189.5,287.5C 190.118,283.799 190.951,280.133 192,276.5C 192.804,275.196 193.971,274.529 195.5,274.5C 246.576,286.359 297.576,298.526 348.5,311C 349.944,312.126 350.61,313.626 350.5,315.5C 349.83,318.846 349.163,322.179 348.5,325.5 Z"/></g>
<g><path style="opacity:1" fill="#f7f8f9" d="M 96.5,275.5 C 96.9887,276.995 97.6554,278.329 98.5,279.5C 65.8012,293.07 32.8012,306.07 -0.5,318.5C -0.5,316.833 -0.5,315.167 -0.5,313.5C 31.7816,300.519 64.1149,287.853 96.5,275.5 Z"/></g>
<g><path style="opacity:1" fill="#fee08a" d="M 626.5,274.5 C 626.338,276.527 626.505,278.527 627,280.5C 634.732,308.259 642.232,336.092 649.5,364C 649.385,365.895 648.718,367.562 647.5,369C 641.751,370.973 636.084,372.806 630.5,374.5C 609.5,374.5 588.5,374.5 567.5,374.5C 569.936,373.129 572.603,372.129 575.5,371.5C 575.833,371.5 576.167,371.5 576.5,371.5C 593.814,366.671 611.148,361.838 628.5,357C 629.449,352.247 628.782,347.747 626.5,343.5C 621.697,323.761 616.697,304.095 611.5,284.5C 611.107,282.716 610.441,281.05 609.5,279.5C 615.014,277.371 620.681,275.704 626.5,274.5 Z"/></g>
<g><path style="opacity:1" fill="#f7f5f4" d="M 609.5,279.5 C 610.441,281.05 611.107,282.716 611.5,284.5C 557.226,298.985 502.893,313.319 448.5,327.5C 448.011,326.005 447.345,324.671 446.5,323.5C 500.643,308.522 554.976,293.855 609.5,279.5 Z"/></g>
<g><path style="opacity:1" fill="#fcdf8b" d="M 456.5,281.5 C 457.389,283.736 458.722,285.736 460.5,287.5C 459.757,288.182 459.091,288.849 458.5,289.5C 446.425,292.186 434.425,295.186 422.5,298.5C 421.209,296.169 421.542,294.003 423.5,292C 434.549,288.595 445.549,285.095 456.5,281.5 Z"/></g>
<g><path style="opacity:1" fill="#f6f5f3" d="M 473.5,283.5 C 479.158,282.679 480.825,284.846 478.5,290C 472.244,290.934 470.577,288.767 473.5,283.5 Z"/></g>
<g><path style="opacity:1" fill="#eb978a" d="M 611.5,284.5 C 616.697,304.095 621.697,323.761 626.5,343.5C 588.149,352.919 550.149,363.252 512.5,374.5C 495.167,374.5 477.833,374.5 460.5,374.5C 456.208,358.914 452.208,343.247 448.5,327.5C 502.893,313.319 557.226,298.985 611.5,284.5 Z"/></g>
<g><path style="opacity:1" fill="#89acb6" d="M 189.5,287.5 C 242.538,300.061 295.538,312.728 348.5,325.5C 344.676,341.796 341.009,358.129 337.5,374.5C 324.833,374.5 312.167,374.5 299.5,374.5C 261.426,364.921 223.093,355.754 184.5,347C 181.428,346.422 178.761,345.255 176.5,343.5C 180.525,324.736 184.858,306.07 189.5,287.5 Z"/></g>
<g><path style="opacity:1" fill="#f7f6f4" d="M 491.5,288.5 C 496.214,288.201 497.88,290.201 496.5,294.5C 490.29,295.967 488.623,293.967 491.5,288.5 Z"/></g>
<g><path style="opacity:1" fill="#50475c" d="M 89.5,314.5 C 90.8333,316.833 92.1667,319.167 93.5,321.5C 62.1667,333.833 30.8333,346.167 -0.5,358.5C -0.5,352.167 -0.5,345.833 -0.5,339.5C 4.89462,340.445 6.56129,338.445 4.5,333.5C 2.92908,332.691 1.26241,332.357 -0.5,332.5C -0.5,329.833 -0.5,327.167 -0.5,324.5C 22.8582,315.431 46.3582,306.431 70,297.5C 76.3799,303.385 82.8799,309.052 89.5,314.5 Z M 55.5,311.5 C 58.3213,311.316 59.9879,312.649 60.5,315.5C 58.9916,318.418 56.8249,319.084 54,317.5C 53.2516,315.16 53.7516,313.16 55.5,311.5 Z"/></g>
<g><path style="opacity:1" fill="#8876a4" d="M 125.5,300.5 C 126.125,303.97 125.125,306.804 122.5,309C 112.517,312.707 102.85,316.874 93.5,321.5C 92.1667,319.167 90.8333,316.833 89.5,314.5C 101.388,309.647 113.388,304.98 125.5,300.5 Z"/></g>
<g><path style="opacity:1" fill="#5c5a5c" d="M 358.5,301.5 C 365.03,301.243 367.197,304.243 365,310.5C 357.478,314.325 354.478,311.992 356,303.5C 356.995,302.934 357.828,302.267 358.5,301.5 Z"/></g>
<g><path style="opacity:1" fill="#f9deda" d="M 608.5,303.5 C 611.113,304.095 611.113,304.929 608.5,306C 602.195,307.829 595.861,309.163 589.5,310C 595.847,307.669 602.18,305.502 608.5,303.5 Z"/></g>
<g><path style="opacity:1" fill="#e4ecee" d="M 190.5,307.5 C 197.235,307.008 203.902,308.175 210.5,311C 203.801,310.295 197.134,309.128 190.5,307.5 Z"/></g>
<g><path style="opacity:1" fill="#858688" d="M 236.5,314.5 C 243.135,322.304 243.135,330.137 236.5,338C 234.075,339.213 231.741,340.379 229.5,341.5C 224.505,340.337 219.505,339.17 214.5,338C 213.667,337.167 212.833,336.333 212,335.5C 211.485,329.065 212.152,322.731 214,316.5C 215.445,313.383 217.778,311.383 221,310.5C 226.099,312.145 231.265,313.478 236.5,314.5 Z"/></g>
<g><path style="opacity:1" fill="#898788" d="M 571.5,341.5 C 561.534,338.586 557.368,331.919 559,321.5C 559.883,318.898 561.383,316.731 563.5,315C 563.272,314.601 562.938,314.435 562.5,314.5C 567.873,312.776 573.373,311.11 579,309.5C 581.923,309.795 584.257,311.129 586,313.5C 587.657,319.13 589.157,324.796 590.5,330.5C 590.451,334.104 588.784,336.604 585.5,338C 580.719,338.862 576.053,340.029 571.5,341.5 Z"/></g>
<g><path style="opacity:1" fill="#e1eaec" d="M 189.5,311.5 C 196.288,312.658 202.955,314.325 209.5,316.5C 209.167,316.833 208.833,317.167 208.5,317.5C 203.029,316.091 197.529,314.757 192,313.5C 190.624,313.316 189.791,312.649 189.5,311.5 Z"/></g>
<g><path style="opacity:1" fill="#fbe7e4" d="M 607.5,309.5 C 608.873,309.343 610.207,309.51 611.5,310C 605.181,313.107 598.514,314.774 591.5,315C 597.051,313.456 602.384,311.622 607.5,309.5 Z"/></g>
<g><path style="opacity:1" fill="#f2f2f3" d="M 72.5,314.5 C 78.0159,314.473 79.3492,316.64 76.5,321C 70.6815,321.526 69.3481,319.359 72.5,314.5 Z"/></g>
<g><path style="opacity:1" fill="#f2f2f2" d="M 569.5,314.5 C 580.845,313.347 586.012,318.347 585,329.5C 582.033,336.453 576.867,338.953 569.5,337C 563.092,333.677 560.925,328.511 563,321.5C 564.425,318.394 566.592,316.06 569.5,314.5 Z"/></g>
<g><path style="opacity:1" fill="#ededed" d="M 223.5,314.5 C 234.185,314.68 239.018,320.013 238,330.5C 234.638,336.842 229.472,339.008 222.5,337C 216.397,333.96 214.231,329.126 216,322.5C 218.028,319.308 220.528,316.641 223.5,314.5 Z"/></g>
<g><path style="opacity:1" fill="#595a5c" d="M 236.5,314.5 C 246.267,316.515 255.934,318.848 265.5,321.5C 266.135,331.294 263.802,340.294 258.5,348.5C 248.903,345.97 239.236,343.636 229.5,341.5C 231.741,340.379 234.075,339.213 236.5,338C 243.135,330.137 243.135,322.304 236.5,314.5 Z"/></g>
<g><path style="opacity:1" fill="#595a5b" d="M 562.5,314.5 C 562.938,314.435 563.272,314.601 563.5,315C 561.383,316.731 559.883,318.898 559,321.5C 557.368,331.919 561.534,338.586 571.5,341.5C 561.459,343.957 551.459,346.624 541.5,349.5C 536.513,341.22 534.18,332.22 534.5,322.5C 543.552,319.215 552.886,316.548 562.5,314.5 Z"/></g>
<g><path style="opacity:1" fill="#5e5f61" d="M 223.5,317.5 C 224.833,317.5 226.167,317.5 227.5,317.5C 227.633,320.896 228.633,321.229 230.5,318.5C 233.124,319.076 233.791,320.41 232.5,322.5C 233.325,323.386 234.325,323.719 235.5,323.5C 235.297,325.638 234.297,327.305 232.5,328.5C 235.104,331.567 234.438,332.567 230.5,331.5C 229.289,332.274 229.289,333.107 230.5,334C 229.437,335.188 228.103,335.688 226.5,335.5C 226.5,334.5 226.5,333.5 226.5,332.5C 224.876,332.36 223.71,333.027 223,334.5C 221.024,333.457 220.524,332.123 221.5,330.5C 220.675,329.614 219.675,329.281 218.5,329.5C 220.28,326.294 221.114,322.961 221,319.5C 223.864,321.81 224.698,321.144 223.5,317.5 Z"/></g>
<g><path style="opacity:1" fill="#5f6062" d="M 572.5,316.5 C 573.873,316.343 575.207,316.51 576.5,317C 576.727,318.135 577.06,319.302 577.5,320.5C 581.08,319.25 582.08,320.417 580.5,324C 582.064,325.605 582.564,327.438 582,329.5C 580.844,328.007 580.01,328.174 579.5,330C 580.667,332.071 580.001,333.571 577.5,334.5C 576.833,333.833 576.167,333.167 575.5,332.5C 574.146,334.184 572.479,334.684 570.5,334C 571.993,332.844 571.826,332.01 570,331.5C 565.413,332.666 564.58,331.333 567.5,327.5C 566.675,326.614 565.675,326.281 564.5,326.5C 564.238,325.022 564.571,323.689 565.5,322.5C 568.996,323.478 569.33,322.644 566.5,320C 568.365,317.635 570.032,317.468 571.5,319.5C 572.386,318.675 572.719,317.675 572.5,316.5 Z"/></g>
<g><path style="opacity:1" fill="#fbe6e3" d="M 611.5,314.5 C 613.705,314.846 613.872,315.513 612,316.5C 605.435,318.101 598.935,319.601 592.5,321C 598.738,318.363 605.071,316.196 611.5,314.5 Z"/></g>
<g><path style="opacity:1" fill="#dee8eb" d="M 188.5,317.5 C 188.56,316.957 188.893,316.624 189.5,316.5C 196.02,317.878 202.353,319.711 208.5,322C 201.723,321.14 195.056,319.64 188.5,317.5 Z"/></g>
<g><path style="opacity:1" fill="#8a8b8d" d="M 265.5,321.5 C 281.319,324.692 296.986,328.526 312.5,333C 314.891,337.344 315.058,341.844 313,346.5C 312,349.833 311,353.167 310,356.5C 308.178,358.045 306.011,358.712 303.5,358.5C 288.518,355.175 273.518,351.842 258.5,348.5C 263.802,340.294 266.135,331.294 265.5,321.5 Z"/></g>
<g><path style="opacity:1" fill="#8c8a8c" d="M 534.5,322.5 C 534.18,332.22 536.513,341.22 541.5,349.5C 525.976,353.894 510.31,357.894 494.5,361.5C 492.407,361.514 490.574,360.848 489,359.5C 486.706,353.33 484.873,346.996 483.5,340.5C 483.848,338.303 484.848,336.47 486.5,335C 502.184,329.579 518.184,325.412 534.5,322.5 Z"/></g>
<g><path style="opacity:1" fill="#fee089" d="M 446.5,323.5 C 447.345,324.671 448.011,326.005 448.5,327.5C 452.208,343.247 456.208,358.914 460.5,374.5C 454.5,374.5 448.5,374.5 442.5,374.5C 438.626,358.668 434.293,343.002 429.5,327.5C 435.05,325.696 440.717,324.362 446.5,323.5 Z"/></g>
<g><path style="opacity:1" fill="#fae3df" d="M 611.5,320.5 C 612.552,320.351 613.552,320.517 614.5,321C 608.137,323.924 601.47,325.591 594.5,326C 600.181,324.001 605.847,322.168 611.5,320.5 Z"/></g>
<g><path style="opacity:1" fill="#dde7ea" d="M 187.5,323.5 C 188.097,322.861 188.93,322.528 190,322.5C 195.699,323.502 201.199,325.002 206.5,327C 200.102,326.421 193.769,325.254 187.5,323.5 Z"/></g>
<g><path style="opacity:1" fill="#fae5e1" d="M 613.5,325.5 C 614.552,325.351 615.552,325.517 616.5,326C 610.033,328.655 603.366,330.822 596.5,332.5C 596.167,332.167 595.833,331.833 595.5,331.5C 601.592,329.437 607.592,327.437 613.5,325.5 Z"/></g>
<g><path style="opacity:1" fill="#dee8eb" d="M 185.5,328.5 C 185.917,327.876 186.584,327.543 187.5,327.5C 193.62,328.862 199.62,330.529 205.5,332.5C 198.897,331.859 192.231,330.526 185.5,328.5 Z"/></g>
<g><path style="opacity:1" fill="#f5f4f6" d="M -0.5,332.5 C 1.26241,332.357 2.92908,332.691 4.5,333.5C 6.56129,338.445 4.89462,340.445 -0.5,339.5C -0.5,337.167 -0.5,334.833 -0.5,332.5 Z"/></g>
<g><path style="opacity:1" fill="#f0f0f1" d="M 294.5,332.5 C 307.183,331.674 312.017,337.341 309,349.5C 300.655,358.098 293.655,357.098 288,346.5C 287.209,340.417 289.376,335.75 294.5,332.5 Z"/></g>
<g><path style="opacity:1" fill="#f1f1f1" d="M 495.5,334.5 C 508.684,333.846 513.517,339.846 510,352.5C 505.402,357.645 499.902,358.812 493.5,356C 485.204,347.985 485.871,340.818 495.5,334.5 Z"/></g>
<g><path style="opacity:1" fill="#606163" d="M 296.5,334.5 C 297.833,334.5 299.167,334.5 300.5,334.5C 300.633,337.896 301.633,338.229 303.5,335.5C 305.62,336.403 305.954,337.737 304.5,339.5C 307.342,340.004 308.675,341.671 308.5,344.5C 305.513,344.422 304.847,345.589 306.5,348C 305.676,351.058 304.342,351.224 302.5,348.5C 301.289,349.274 301.289,350.107 302.5,351C 301.437,352.188 300.103,352.688 298.5,352.5C 298.367,349.104 297.367,348.771 295.5,351.5C 293.238,350.655 292.571,349.322 293.5,347.5C 292.675,346.614 291.675,346.281 290.5,346.5C 290.328,344.508 290.995,342.842 292.5,341.5C 291.266,339.602 291.599,337.935 293.5,336.5C 295.714,338.924 296.714,338.257 296.5,334.5 Z"/></g>
<g><path style="opacity:1" fill="#606163" d="M 498.5,336.5 C 500.308,336.491 501.975,336.991 503.5,338C 502.398,340.391 503.064,340.891 505.5,339.5C 506.646,340.145 507.646,340.978 508.5,342C 507.027,342.71 506.36,343.876 506.5,345.5C 507.5,345.5 508.5,345.5 509.5,345.5C 509.675,348.329 508.342,349.996 505.5,350.5C 506.429,352.322 505.762,353.655 503.5,354.5C 501.633,351.771 500.633,352.104 500.5,355.5C 499.167,355.5 497.833,355.5 496.5,355.5C 496.762,354.022 496.429,352.689 495.5,351.5C 493.877,352.476 492.543,351.976 491.5,350C 493.973,348.258 493.973,346.425 491.5,344.5C 491.667,343.833 491.833,343.167 492,342.5C 494.391,343.602 494.891,342.936 493.5,340.5C 494.725,337.34 496.225,337.006 498,339.5C 498.5,339.333 499,339.167 499.5,339C 498.748,338.329 498.414,337.496 498.5,336.5 Z"/></g>
<g><path style="opacity:1" fill="#dbe5e9" d="M 319.5,336.5 C 326.298,338.032 332.965,339.865 339.5,342C 333.802,341.529 328.135,340.529 322.5,339C 320.881,338.764 319.881,337.931 319.5,336.5 Z"/></g>
<g><path style="opacity:1" fill="#f9dfdb" d="M 475.5,339.5 C 479.1,340.179 478.767,341.013 474.5,342C 469.227,343.655 463.893,344.655 458.5,345C 464.181,343.001 469.847,341.168 475.5,339.5 Z"/></g>
<g><path style="opacity:0.968" fill="#fefdfc" d="M 626.5,343.5 C 628.782,347.747 629.449,352.247 628.5,357C 611.148,361.838 593.814,366.671 576.5,371.5C 576.167,370.167 575.833,370.167 575.5,371.5C 572.603,372.129 569.936,373.129 567.5,374.5C 549.167,374.5 530.833,374.5 512.5,374.5C 550.149,363.252 588.149,352.919 626.5,343.5 Z"/></g>
<g><path style="opacity:1" fill="#f5f5f5" d="M 176.5,343.5 C 178.761,345.255 181.428,346.422 184.5,347C 223.093,355.754 261.426,364.921 299.5,374.5C 291.5,374.5 283.5,374.5 275.5,374.5C 241.947,366.029 208.281,357.695 174.5,349.5C 174.875,347.302 175.542,345.302 176.5,343.5 Z"/></g>
<g><path style="opacity:1" fill="#e5ecef" d="M 318.5,343.5 C 325.158,343.313 331.825,344.48 338.5,347C 331.766,346.487 325.099,345.32 318.5,343.5 Z"/></g>
<g><path style="opacity:1" fill="#433331" d="M 158.5,346.5 C 163.825,347.496 169.158,348.496 174.5,349.5C 208.281,357.695 241.947,366.029 275.5,374.5C 267.833,374.5 260.167,374.5 252.5,374.5C 237.882,370.362 223.049,366.695 208,363.5C 206.833,363.667 205.667,363.833 204.5,364C 201.617,367.376 198.951,370.876 196.5,374.5C 181.5,374.5 166.5,374.5 151.5,374.5C 152.919,364.822 155.253,355.489 158.5,346.5 Z"/></g>
<g><path style="opacity:1" fill="#fbe8e5" d="M 474.5,345.5 C 480.948,345.435 480.948,346.268 474.5,348C 469.8,349.067 465.134,350.234 460.5,351.5C 460.167,351.167 459.833,350.833 459.5,350.5C 464.656,348.969 469.656,347.303 474.5,345.5 Z"/></g>
<g><path style="opacity:1" fill="#dde7ea" d="M 317.5,348.5 C 324.138,348.627 330.805,349.961 337.5,352.5C 330.815,352.171 324.148,350.838 317.5,348.5 Z"/></g>
<g><path style="opacity:1" fill="#fcebe8" d="M 477.5,350.5 C 478.873,350.343 480.207,350.51 481.5,351C 480.833,351.333 480.167,351.667 479.5,352C 473.57,353.984 467.57,355.318 461.5,356C 466.798,353.848 472.131,352.015 477.5,350.5 Z"/></g>
<g><path style="opacity:1" fill="#e5edef" d="M 316.5,352.5 C 322.931,354.149 329.265,355.983 335.5,358C 329.808,357.498 324.142,356.498 318.5,355C 317.244,354.583 316.577,353.75 316.5,352.5 Z"/></g>
<g><path style="opacity:1" fill="#5d5d5c" d="M 635.5,354.5 C 643.303,354.789 645.303,358.289 641.5,365C 632.051,365.866 630.051,362.366 635.5,354.5 Z"/></g>
<g><path style="opacity:1" fill="#f8d6d1" d="M 474.5,358.5 C 476.681,356.982 479.181,355.982 482,355.5C 482.5,355.833 483,356.167 483.5,356.5C 480.673,357.932 477.673,358.599 474.5,358.5 Z"/></g>
<g><path style="opacity:1" fill="#fae0dc" d="M 474.5,358.5 C 471.047,360.075 467.38,361.409 463.5,362.5C 463.167,362.167 462.833,361.833 462.5,361.5C 466.228,359.652 470.228,358.652 474.5,358.5 Z"/></g>
<g><path style="opacity:1" fill="#e0e9ec" d="M 314.5,359.5 C 321.24,359.009 327.907,360.176 334.5,363C 332.5,363.667 330.5,363.667 328.5,363C 323.899,361.516 319.232,360.35 314.5,359.5 Z"/></g>
<g><path style="opacity:1" fill="#7b534e" d="M 252.5,374.5 C 233.833,374.5 215.167,374.5 196.5,374.5C 198.951,370.876 201.617,367.376 204.5,364C 205.667,363.833 206.833,363.667 208,363.5C 223.049,366.695 237.882,370.362 252.5,374.5 Z"/></g>
<g><path style="opacity:1" fill="#f9ddd8" d="M 480.5,361.5 C 481.873,361.343 483.207,361.51 484.5,362C 477.705,364.783 470.705,366.449 463.5,367C 469.227,364.993 474.893,363.159 480.5,361.5 Z"/></g>
</svg>
