<?xml version="1.0" encoding="UTF-8"?>
<!DOCTYPE svg PUBLIC "-//W3C//DTD SVG 1.1//EN" "http://www.w3.org/Graphics/SVG/1.1/DTD/svg11.dtd">
<svg xmlns="http://www.w3.org/2000/svg" version="1.1" width="1920px" height="1080px" style="shape-rendering:geometricPrecision; text-rendering:geometricPrecision; image-rendering:optimizeQuality; fill-rule:evenodd; clip-rule:evenodd" xmlns:xlink="http://www.w3.org/1999/xlink">
<g><path style="opacity:1" fill="#303030" d="M -0.5,-0.5 C 358.833,-0.5 718.167,-0.5 1077.5,-0.5C 1079.58,2.70152 1082.58,4.03486 1086.5,3.5C 1090.27,4.20931 1092.93,2.87597 1094.5,-0.5C 1114.5,-0.5 1134.5,-0.5 1154.5,-0.5C 1156.25,2.91205 1159.08,4.24538 1163,3.5C 1166.92,4.24538 1169.75,2.91205 1171.5,-0.5C 1420.83,-0.5 1670.17,-0.5 1919.5,-0.5C 1919.5,2.83333 1919.5,6.16667 1919.5,9.5C 1913.48,1.93912 1906.98,1.60579 1900,8.5C 1898.15,20.3168 1902.98,24.8168 1914.5,22C 1916.4,20.2703 1918.07,18.437 1919.5,16.5C 1919.5,273.167 1919.5,529.833 1919.5,786.5C 1900.5,757.833 1881.5,729.167 1862.5,700.5C 1861.72,698.073 1860.55,698.073 1859,700.5C 1841.82,724.196 1824.66,747.863 1807.5,771.5C 1796.86,785.651 1786.36,799.984 1776,814.5C 1774.69,816.192 1773.19,817.525 1771.5,818.5C 1723.53,743.874 1675.19,669.541 1626.5,595.5C 1624.63,595.859 1623.13,596.859 1622,598.5C 1584.9,649.048 1548.07,699.715 1511.5,750.5C 1489.5,780.167 1467.5,809.833 1445.5,839.5C 1441.5,834.833 1437.5,830.167 1433.5,825.5C 1397.57,777.314 1360.9,729.647 1323.5,682.5C 1322.89,682.624 1322.56,682.957 1322.5,683.5C 1296.6,718.284 1270.93,753.284 1245.5,788.5C 1223.26,818.648 1201.26,848.981 1179.5,879.5C 1179.17,879.5 1178.83,879.5 1178.5,879.5C 1052.83,879.5 927.167,879.5 801.5,879.5C 746.069,793.626 690.402,707.96 634.5,622.5C 612.651,588.121 590.317,554.121 567.5,520.5C 567.631,519.624 567.298,518.957 566.5,518.5C 544.993,546.871 523.993,575.537 503.5,604.5C 490.197,621.983 477.03,639.65 464,657.5C 463.184,658.823 462.017,659.489 460.5,659.5C 437.704,624.722 415.37,589.722 393.5,554.5C 400.421,552.329 402.921,547.663 401,540.5C 397.345,535.725 392.512,534.225 386.5,536C 385.429,536.852 384.429,537.685 383.5,538.5C 382.504,538.586 381.671,538.252 381,537.5C 351.03,490.388 320.53,443.721 289.5,397.5C 289.103,396.475 288.437,396.308 287.5,397C 242.204,457.783 197.537,518.949 153.5,580.5C 127.845,615.129 102.178,649.795 76.5,684.5C 71.4607,679.463 66.794,674.129 62.5,668.5C 41.9731,640.767 20.9731,613.434 -0.5,586.5C -0.5,508.833 -0.5,431.167 -0.5,353.5C 3.263,360.73 8.92967,362.397 16.5,358.5C 19.4244,354.685 20.2577,350.351 19,345.5C 12.0239,338.606 5.52387,338.939 -0.5,346.5C -0.5,230.833 -0.5,115.167 -0.5,-0.5 Z"/></g>
<g><path style="opacity:1" fill="#ebebeb" d="M 1077.5,-0.5 C 1083.17,-0.5 1088.83,-0.5 1094.5,-0.5C 1092.93,2.87597 1090.27,4.20931 1086.5,3.5C 1082.58,4.03486 1079.58,2.70152 1077.5,-0.5 Z"/></g>
<g><path style="opacity:1" fill="#eaeaea" d="M 1154.5,-0.5 C 1160.17,-0.5 1165.83,-0.5 1171.5,-0.5C 1169.75,2.91205 1166.92,4.24538 1163,3.5C 1159.08,4.24538 1156.25,2.91205 1154.5,-0.5 Z"/></g>
<g><path style="opacity:1" fill="#ececec" d="M 1919.5,9.5 C 1919.5,11.8333 1919.5,14.1667 1919.5,16.5C 1918.07,18.437 1916.4,20.2703 1914.5,22C 1902.98,24.8168 1898.15,20.3168 1900,8.5C 1906.98,1.60579 1913.48,1.93912 1919.5,9.5 Z"/></g>
<g><path style="opacity:1" fill="#eaeaea" d="M 179.5,15.5 C 191.327,14.1527 195.827,19.1527 193,30.5C 187,37.1667 181,37.1667 175,30.5C 173.75,27.9234 173.416,25.2567 174,22.5C 175.316,19.6925 177.15,17.3592 179.5,15.5 Z"/></g>
<g><path style="opacity:1" fill="#eaeaea" d="M 637.5,17.5 C 649.327,16.1527 653.827,21.1527 651,32.5C 643.774,39.6823 637.441,39.0157 632,30.5C 630.831,24.8527 632.665,20.5194 637.5,17.5 Z"/></g>
<g><path style="opacity:1" fill="#e9e9e9" d="M 33.5,45.5 C 39.4992,45.002 41.6659,47.6687 40,53.5C 37.2935,56.9779 34.2935,57.3112 31,54.5C 30.1307,51.0072 30.964,48.0072 33.5,45.5 Z"/></g>
<g><path style="opacity:1" fill="#ececec" d="M 1896.5,75.5 C 1909.22,75.7863 1912.89,81.6197 1907.5,93C 1895.08,97.9058 1889.58,93.7392 1891,80.5C 1892.81,78.6997 1894.65,77.0331 1896.5,75.5 Z"/></g>
<g><path style="opacity:1" fill="#ececec" d="M 767.5,85.5 C 778.041,84.5387 782.541,89.2054 781,99.5C 775.361,106.998 769.361,107.331 763,100.5C 760.064,94.0578 761.564,89.0578 767.5,85.5 Z"/></g>
<g><path style="opacity:1" fill="#ededed" d="M 1805.5,90.5 C 1819.18,90.0219 1822.84,95.8552 1816.5,108C 1805.2,112.116 1799.7,108.283 1800,96.5C 1801.36,93.9774 1803.19,91.9774 1805.5,90.5 Z"/></g>
<g><path style="opacity:1" fill="#ececec" d="M 620.5,122.5 C 630.988,121.487 635.488,126.154 634,136.5C 630.945,141.635 626.445,143.468 620.5,142C 614.975,139.081 613.142,134.581 615,128.5C 616.36,125.977 618.193,123.977 620.5,122.5 Z"/></g>
<g><path style="opacity:1" fill="#eeeeee" d="M 299.5,262.5 C 313.213,262.098 316.879,267.931 310.5,280C 298.818,284.595 293.318,280.762 294,268.5C 295.36,265.977 297.193,263.977 299.5,262.5 Z"/></g>
<g><path style="opacity:1" fill="#ececec" d="M 866.5,281.5 C 876.992,279.834 881.826,284.167 881,294.5C 876.128,302.341 870.128,303.341 863,297.5C 861.496,293.961 861.163,290.295 862,286.5C 863.193,284.503 864.693,282.836 866.5,281.5 Z"/></g>
<g><path style="opacity:1" fill="#ececec" d="M 432.5,290.5 C 445.312,290.141 449.146,295.808 444,307.5C 437.697,311.98 432.03,311.313 427,305.5C 424.958,298.873 426.792,293.873 432.5,290.5 Z"/></g>
<g><path style="opacity:1" fill="#eeeeee" d="M 76.5,335.5 C 86.9904,333.832 91.8238,338.165 91,348.5C 87.7231,354.109 82.8897,355.942 76.5,354C 71.7795,350.702 70.2795,346.202 72,340.5C 73.1932,338.503 74.6932,336.836 76.5,335.5 Z"/></g>
<g><path style="opacity:1" fill="#ebebeb" d="M -0.5,353.5 C -0.5,351.167 -0.5,348.833 -0.5,346.5C 5.52387,338.939 12.0239,338.606 19,345.5C 20.2577,350.351 19.4244,354.685 16.5,358.5C 8.92967,362.397 3.263,360.73 -0.5,353.5 Z"/></g>
<g><path style="opacity:1" fill="#eaeaea" d="M 289.5,397.5 C 306.723,473.157 324.056,548.823 341.5,624.5C 335.349,621.288 329.015,618.788 322.5,617C 293.756,632.787 265.256,648.954 237,665.5C 209.299,636.967 181.466,608.633 153.5,580.5C 197.537,518.949 242.204,457.783 287.5,397C 288.437,396.308 289.103,396.475 289.5,397.5 Z"/></g>
<g><path style="opacity:1" fill="#e2d2d0" d="M 289.5,397.5 C 320.53,443.721 351.03,490.388 381,537.5C 381.671,538.252 382.504,538.586 383.5,538.5C 380.226,544.456 381.226,549.623 386.5,554C 388.81,554.497 391.143,554.663 393.5,554.5C 415.37,589.722 437.704,624.722 460.5,659.5C 466.5,668.833 472.5,678.167 478.5,687.5C 432.941,667.16 387.274,646.16 341.5,624.5C 324.056,548.823 306.723,473.157 289.5,397.5 Z"/></g>
<g><path style="opacity:1" fill="#ececec" d="M 1794.5,419.5 C 1804.5,417.681 1809.33,421.681 1809,431.5C 1806.27,438.053 1801.44,440.22 1794.5,438C 1789.58,435.259 1787.75,431.092 1789,425.5C 1790.36,422.977 1792.19,420.977 1794.5,419.5 Z"/></g>
<g><path style="opacity:1" fill="#eeeeee" d="M 348.5,438.5 C 359.041,437.539 363.541,442.205 362,452.5C 360.063,456.386 356.897,458.053 352.5,457.5C 344.526,456.934 341.36,452.601 343,444.5C 344.36,441.977 346.193,439.977 348.5,438.5 Z"/></g>
<g><path style="opacity:1" fill="#eaeaea" d="M 1861.5,455.5 C 1874.14,454.484 1878.3,459.817 1874,471.5C 1866.81,477.525 1860.81,476.525 1856,468.5C 1854.57,462.7 1856.4,458.367 1861.5,455.5 Z"/></g>
<g><path style="opacity:1" fill="#eaeaea" d="M 1783.5,462.5 C 1788.16,461.804 1792.33,462.804 1796,465.5C 1800.28,472.679 1798.78,478.179 1791.5,482C 1782.16,482.987 1777.66,478.821 1778,469.5C 1779.32,466.692 1781.15,464.359 1783.5,462.5 Z"/></g>
<g><path style="opacity:1" fill="#ececec" d="M 1409.5,468.5 C 1419.5,466.681 1424.33,470.681 1424,480.5C 1421.27,487.053 1416.44,489.22 1409.5,487C 1404.58,484.259 1402.75,480.092 1404,474.5C 1405.36,471.977 1407.19,469.977 1409.5,468.5 Z"/></g>
<g><path style="opacity:1" fill="#ececec" d="M 1508.5,490.5 C 1516.87,488.671 1521.87,491.837 1523.5,500C 1521.83,508.342 1516.83,511.342 1508.5,509C 1503.58,506.259 1501.75,502.092 1503,496.5C 1504.36,493.977 1506.19,491.977 1508.5,490.5 Z"/></g>
<g><path style="opacity:1" fill="#ececec" d="M 427.5,506.5 C 437.496,504.681 442.329,508.681 442,518.5C 439.315,525.057 434.481,527.223 427.5,525C 419.535,518.755 419.535,512.588 427.5,506.5 Z"/></g>
<g><path style="opacity:1" fill="#ededed" d="M 15.5,507.5 C 26.0412,506.539 30.5412,511.205 29,521.5C 25.8803,526.419 21.3803,528.252 15.5,527C 10.3652,523.945 8.53191,519.445 10,513.5C 11.3597,510.977 13.193,508.977 15.5,507.5 Z"/></g>
<g><path style="opacity:1" fill="#eaeaea" d="M 567.5,520.5 C 579.973,559.918 592.639,599.251 605.5,638.5C 605.5,638.833 605.5,639.167 605.5,639.5C 592.91,645.128 580.577,651.295 568.5,658C 567.5,658.667 566.5,658.667 565.5,658C 544.961,639.957 524.295,622.124 503.5,604.5C 523.993,575.537 544.993,546.871 566.5,518.5C 567.298,518.957 567.631,519.624 567.5,520.5 Z"/></g>
<g><path style="opacity:1" fill="#e1d1cf" d="M 567.5,520.5 C 590.317,554.121 612.651,588.121 634.5,622.5C 634.631,623.376 634.298,624.043 633.5,624.5C 624.114,629.193 614.78,633.86 605.5,638.5C 592.639,599.251 579.973,559.918 567.5,520.5 Z"/></g>
<g><path style="opacity:1" fill="#f0eded" d="M 393.5,554.5 C 391.143,554.663 388.81,554.497 386.5,554C 381.226,549.623 380.226,544.456 383.5,538.5C 384.429,537.685 385.429,536.852 386.5,536C 392.512,534.225 397.345,535.725 401,540.5C 402.921,547.663 400.421,552.329 393.5,554.5 Z"/></g>
<g><path style="opacity:1" fill="#eaeaea" d="M 1421.5,564.5 C 1433.61,564.76 1437.45,570.427 1433,581.5C 1427.6,585.432 1422.26,585.432 1417,581.5C 1412.76,574.274 1414.26,568.607 1421.5,564.5 Z"/></g>
<g><path style="opacity:1" fill="#e0d0ce" d="M -0.5,586.5 C 20.9731,613.434 41.9731,640.767 62.5,668.5C 41.3604,655.762 20.3604,642.762 -0.5,629.5C -0.5,615.167 -0.5,600.833 -0.5,586.5 Z"/></g>
<g><path style="opacity:1" fill="#eaeaea" d="M 1626.5,595.5 C 1640.65,659.939 1655.32,724.273 1670.5,788.5C 1665.61,785.98 1660.61,783.646 1655.5,781.5C 1647.15,786.195 1638.82,790.861 1630.5,795.5C 1629.8,788.638 1625.97,784.972 1619,784.5C 1611.53,784.632 1608.53,788.299 1610,795.5C 1611.08,799.418 1613.58,801.752 1617.5,802.5C 1607,808.803 1596.34,814.97 1585.5,821C 1583.96,822.187 1582.29,822.52 1580.5,822C 1557.3,798.298 1534.3,774.465 1511.5,750.5C 1548.07,699.715 1584.9,649.048 1622,598.5C 1623.13,596.859 1624.63,595.859 1626.5,595.5 Z"/></g>
<g><path style="opacity:1" fill="#7fa586" d="M 153.5,580.5 C 181.466,608.633 209.299,636.967 237,665.5C 265.256,648.954 293.756,632.787 322.5,617C 329.015,618.788 335.349,621.288 341.5,624.5C 359.776,702.669 377.776,781.669 395.5,861.5C 388.675,859.823 385.842,862.49 387,869.5C 389.408,875.533 393.241,876.867 398.5,873.5C 399.341,875.379 399.675,877.379 399.5,879.5C 328.167,879.5 256.833,879.5 185.5,879.5C 188.325,873.751 188.158,868.084 185,862.5C 179.095,859.369 175.261,861.036 173.5,867.5C 137.166,812.477 101.166,757.143 65.5,701.5C 69.6131,696.067 73.2797,690.401 76.5,684.5C 102.178,649.795 127.845,615.129 153.5,580.5 Z"/></g>
<g><path style="opacity:1" fill="#e2d2d0" d="M 1626.5,595.5 C 1675.19,669.541 1723.53,743.874 1771.5,818.5C 1776.75,825.996 1781.75,833.663 1786.5,841.5C 1747.91,824.555 1709.25,806.889 1670.5,788.5C 1655.32,724.273 1640.65,659.939 1626.5,595.5 Z"/></g>
<g><path style="opacity:1" fill="#7fa586" d="M 503.5,604.5 C 524.295,622.124 544.961,639.957 565.5,658C 566.5,658.667 567.5,658.667 568.5,658C 580.577,651.295 592.91,645.128 605.5,639.5C 631.803,719.409 658.136,799.409 684.5,879.5C 657.5,879.5 630.5,879.5 603.5,879.5C 562.613,814.955 520.946,750.955 478.5,687.5C 472.5,678.167 466.5,668.833 460.5,659.5C 462.017,659.489 463.184,658.823 464,657.5C 477.03,639.65 490.197,621.983 503.5,604.5 Z"/></g>
<g><path style="opacity:1" fill="#86977a" d="M 634.5,622.5 C 690.402,707.96 746.069,793.626 801.5,879.5C 762.5,879.5 723.5,879.5 684.5,879.5C 658.136,799.409 631.803,719.409 605.5,639.5C 605.5,639.167 605.5,638.833 605.5,638.5C 614.78,633.86 624.114,629.193 633.5,624.5C 634.298,624.043 634.631,623.376 634.5,622.5 Z"/></g>
<g><path style="opacity:1" fill="#87987b" d="M 341.5,624.5 C 387.274,646.16 432.941,667.16 478.5,687.5C 520.946,750.955 562.613,814.955 603.5,879.5C 581.5,879.5 559.5,879.5 537.5,879.5C 419.337,880.794 301.337,880.794 183.5,879.5C 184.167,879.5 184.833,879.5 185.5,879.5C 256.833,879.5 328.167,879.5 399.5,879.5C 399.675,877.379 399.341,875.379 398.5,873.5C 397.918,869.287 396.918,865.287 395.5,861.5C 377.776,781.669 359.776,702.669 341.5,624.5 Z"/></g>
<g><path style="opacity:1" fill="#eaeaea" d="M 1322.5,683.5 C 1323.41,685.019 1324.24,686.685 1325,688.5C 1331.59,727.729 1337.43,767.062 1342.5,806.5C 1320.53,820.489 1298.53,834.489 1276.5,848.5C 1265.65,828.795 1255.31,808.795 1245.5,788.5C 1270.93,753.284 1296.6,718.284 1322.5,683.5 Z"/></g>
<g><path style="opacity:1" fill="#e1d1cf" d="M 1322.5,683.5 C 1322.56,682.957 1322.89,682.624 1323.5,682.5C 1360.9,729.647 1397.57,777.314 1433.5,825.5C 1413.05,813.106 1392.72,800.439 1372.5,787.5C 1362.52,793.5 1352.86,799.833 1343.5,806.5C 1343.17,806.5 1342.83,806.5 1342.5,806.5C 1337.43,767.062 1331.59,727.729 1325,688.5C 1324.24,686.685 1323.41,685.019 1322.5,683.5 Z"/></g>
<g><path style="opacity:1" fill="#92b899" d="M 237.5,696.5 C 247.988,695.487 252.488,700.154 251,710.5C 246.411,717.099 240.744,718.099 234,713.5C 229.856,706.643 231.023,700.977 237.5,696.5 Z"/></g>
<g><path style="opacity:1" fill="#eaeaea" d="M 1862.5,700.5 C 1873.37,733.783 1884.04,767.117 1894.5,800.5C 1893.83,800.5 1893.5,800.833 1893.5,801.5C 1882.89,806.807 1872.22,812.14 1861.5,817.5C 1843.77,801.769 1825.77,786.436 1807.5,771.5C 1824.66,747.863 1841.82,724.196 1859,700.5C 1860.55,698.073 1861.72,698.073 1862.5,700.5 Z"/></g>
<g><path style="opacity:1" fill="#80a586" d="M -0.5,879.5 C -0.5,849.5 -0.5,819.5 -0.5,789.5C 21.1424,760.852 42.8091,732.185 64.5,703.5C 78.8081,762.014 92.4748,820.681 105.5,879.5C 70.1667,879.5 34.8333,879.5 -0.5,879.5 Z"/></g>
<g><path style="opacity:1" fill="#e1d1cf" d="M 1862.5,700.5 C 1881.5,729.167 1900.5,757.833 1919.5,786.5C 1919.5,787.167 1919.5,787.833 1919.5,788.5C 1911.04,792.23 1902.71,796.23 1894.5,800.5C 1884.04,767.117 1873.37,733.783 1862.5,700.5 Z"/></g>
<g><path style="opacity:1" fill="#87987b" d="M -0.5,629.5 C 20.3604,642.762 41.3604,655.762 62.5,668.5C 66.794,674.129 71.4607,679.463 76.5,684.5C 73.2797,690.401 69.6131,696.067 65.5,701.5C 101.166,757.143 137.166,812.477 173.5,867.5C 175.861,871.517 178.194,875.517 180.5,879.5C 120.189,880.485 59.8561,880.818 -0.5,880.5C -0.5,880.167 -0.5,879.833 -0.5,879.5C 34.8333,879.5 70.1667,879.5 105.5,879.5C 92.4748,820.681 78.8081,762.014 64.5,703.5C 42.8091,732.185 21.1424,760.852 -0.5,789.5C -0.5,736.167 -0.5,682.833 -0.5,629.5 Z"/></g>
<g><path style="opacity:1" fill="#ededed" d="M 855.5,748.5 C 868.636,748.139 874.136,754.472 872,767.5C 867.351,772.792 861.518,774.626 854.5,773C 846.655,769.803 844.488,764.303 848,756.5C 849.69,752.979 852.19,750.312 855.5,748.5 Z"/></g>
<g><path style="opacity:1" fill="#7fa586" d="M 1511.5,750.5 C 1534.3,774.465 1557.3,798.298 1580.5,822C 1582.29,822.52 1583.96,822.187 1585.5,821C 1596.34,814.97 1607,808.803 1617.5,802.5C 1621.97,800.434 1626.3,798.1 1630.5,795.5C 1638.82,790.861 1647.15,786.195 1655.5,781.5C 1660.61,783.646 1665.61,785.98 1670.5,788.5C 1677.18,818.918 1684.18,849.251 1691.5,879.5C 1611.83,879.5 1532.17,879.5 1452.5,879.5C 1447.56,871.383 1442.39,863.383 1437,855.5C 1438.17,863.505 1439.67,871.505 1441.5,879.5C 1433.5,879.5 1425.5,879.5 1417.5,879.5C 1426.17,866.84 1435.34,854.506 1445,842.5C 1445.48,841.552 1445.65,840.552 1445.5,839.5C 1467.5,809.833 1489.5,780.167 1511.5,750.5 Z"/></g>
<g><path style="opacity:1" fill="#fdfdfd" d="M 1630.5,795.5 C 1626.3,798.1 1621.97,800.434 1617.5,802.5C 1613.58,801.752 1611.08,799.418 1610,795.5C 1608.53,788.299 1611.53,784.632 1619,784.5C 1625.97,784.972 1629.8,788.638 1630.5,795.5 Z"/></g>
<g><path style="opacity:1" fill="#7fa586" d="M 1807.5,771.5 C 1825.77,786.436 1843.77,801.769 1861.5,817.5C 1872.22,812.14 1882.89,806.807 1893.5,801.5C 1894.5,801.47 1895.16,801.97 1895.5,803C 1903.12,827.02 1911.12,851.187 1919.5,875.5C 1919.5,876.833 1919.5,878.167 1919.5,879.5C 1883.5,879.5 1847.5,879.5 1811.5,879.5C 1803.65,866.454 1795.32,853.787 1786.5,841.5C 1781.75,833.663 1776.75,825.996 1771.5,818.5C 1773.19,817.525 1774.69,816.192 1776,814.5C 1786.36,799.984 1796.86,785.651 1807.5,771.5 Z"/></g>
<g><path style="opacity:1" fill="#ececec" d="M 767.5,791.5 C 781.213,791.098 784.879,796.931 778.5,809C 767.035,813.686 761.535,809.852 762,797.5C 763.36,794.977 765.193,792.977 767.5,791.5 Z"/></g>
<g><path style="opacity:1" fill="#92b899" d="M 228.5,802.5 C 237.158,801.327 240.992,804.994 240,813.5C 239.215,815.286 238.049,816.786 236.5,818C 227.229,820.394 223.395,816.894 225,807.5C 225.997,805.677 227.164,804.01 228.5,802.5 Z"/></g>
<g><path style="opacity:1" fill="#7fa586" d="M 1245.5,788.5 C 1255.31,808.795 1265.65,828.795 1276.5,848.5C 1298.53,834.489 1320.53,820.489 1342.5,806.5C 1342.83,806.5 1343.17,806.5 1343.5,806.5C 1347.55,830.751 1351.22,855.084 1354.5,879.5C 1296.17,879.5 1237.83,879.5 1179.5,879.5C 1201.26,848.981 1223.26,818.648 1245.5,788.5 Z"/></g>
<g><path style="opacity:1" fill="#86977a" d="M 1433.5,825.5 C 1437.5,830.167 1441.5,834.833 1445.5,839.5C 1445.65,840.552 1445.48,841.552 1445,842.5C 1435.34,854.506 1426.17,866.84 1417.5,879.5C 1396.5,879.5 1375.5,879.5 1354.5,879.5C 1351.22,855.084 1347.55,830.751 1343.5,806.5C 1352.86,799.833 1362.52,793.5 1372.5,787.5C 1392.72,800.439 1413.05,813.106 1433.5,825.5 Z"/></g>
<g><path style="opacity:1" fill="#86977a" d="M 1919.5,788.5 C 1919.5,817.5 1919.5,846.5 1919.5,875.5C 1911.12,851.187 1903.12,827.02 1895.5,803C 1895.16,801.97 1894.5,801.47 1893.5,801.5C 1893.5,800.833 1893.83,800.5 1894.5,800.5C 1902.71,796.23 1911.04,792.23 1919.5,788.5 Z"/></g>
<g><path style="opacity:1" fill="#86977a" d="M 1670.5,788.5 C 1709.25,806.889 1747.91,824.555 1786.5,841.5C 1795.32,853.787 1803.65,866.454 1811.5,879.5C 1808.15,879.665 1804.82,879.498 1801.5,879C 1802.52,868.701 1797.86,864.701 1787.5,867C 1782.44,869.629 1780.44,873.796 1781.5,879.5C 1751.5,879.5 1721.5,879.5 1691.5,879.5C 1684.18,849.251 1677.18,818.918 1670.5,788.5 Z"/></g>
<g><path style="opacity:1" fill="#86987b" d="M 1452.5,879.5 C 1448.83,879.5 1445.17,879.5 1441.5,879.5C 1439.67,871.505 1438.17,863.505 1437,855.5C 1442.39,863.383 1447.56,871.383 1452.5,879.5 Z"/></g>
<g><path style="opacity:1" fill="#92b899" d="M 185.5,879.5 C 184.833,879.5 184.167,879.5 183.5,879.5C 182.5,879.5 181.5,879.5 180.5,879.5C 178.194,875.517 175.861,871.517 173.5,867.5C 175.261,861.036 179.095,859.369 185,862.5C 188.158,868.084 188.325,873.751 185.5,879.5 Z"/></g>
<g><path style="opacity:1" fill="#92b898" d="M 395.5,861.5 C 396.918,865.287 397.918,869.287 398.5,873.5C 393.241,876.867 389.408,875.533 387,869.5C 385.842,862.49 388.675,859.823 395.5,861.5 Z"/></g>
<g><path style="opacity:1" fill="#aabba3" d="M 1811.5,879.5 C 1847.5,879.5 1883.5,879.5 1919.5,879.5C 1919.5,879.833 1919.5,880.167 1919.5,880.5C 1672.5,880.5 1425.5,880.5 1178.5,880.5C 1178.5,880.167 1178.5,879.833 1178.5,879.5C 1178.83,879.5 1179.17,879.5 1179.5,879.5C 1237.83,879.5 1296.17,879.5 1354.5,879.5C 1375.5,879.5 1396.5,879.5 1417.5,879.5C 1425.5,879.5 1433.5,879.5 1441.5,879.5C 1445.17,879.5 1448.83,879.5 1452.5,879.5C 1532.17,879.5 1611.83,879.5 1691.5,879.5C 1721.5,879.5 1751.5,879.5 1781.5,879.5C 1780.44,873.796 1782.44,869.629 1787.5,867C 1797.86,864.701 1802.52,868.701 1801.5,879C 1804.82,879.498 1808.15,879.665 1811.5,879.5 Z"/></g>
<g><path style="opacity:1" fill="#9fa09e" d="M 537.5,879.5 C 559.5,879.5 581.5,879.5 603.5,879.5C 630.5,879.5 657.5,879.5 684.5,879.5C 723.5,879.5 762.5,879.5 801.5,879.5C 927.167,879.5 1052.83,879.5 1178.5,879.5C 1178.5,879.833 1178.5,880.167 1178.5,880.5C 1031.17,880.333 883.833,880.5 736.5,881C 737.056,881.383 737.389,881.883 737.5,882.5C 732.195,881.806 726.862,881.472 721.5,881.5C 660.167,880.833 598.833,880.167 537.5,879.5 Z"/></g>
<g><path style="opacity:1" fill="#f9f9f9" d="M 180.5,879.5 C 181.5,879.5 182.5,879.5 183.5,879.5C 301.337,880.794 419.337,880.794 537.5,879.5C 598.833,880.167 660.167,880.833 721.5,881.5C 717.519,882.021 713.519,882.354 709.5,882.5C 706.252,881.459 703.252,882.126 700.5,884.5C 695.737,884.774 691.07,884.441 686.5,883.5C 681.767,883.777 677.1,883.443 672.5,882.5C 669.924,883.883 670.258,884.717 673.5,885C 672.906,885.464 672.239,885.631 671.5,885.5C 655.846,885.399 640.179,885.065 624.5,884.5C 622.801,884.38 621.135,884.046 619.5,883.5C 617.823,884.187 616.156,884.854 614.5,885.5C 570.491,885.006 526.491,884.84 482.5,885C 479.455,882.081 476.455,881.914 473.5,884.5C 467.848,885.032 462.181,885.365 456.5,885.5C 446.835,885.122 437.169,884.789 427.5,884.5C 421.324,884.551 414.991,884.218 408.5,883.5C 407.833,883.667 407.167,883.833 406.5,884C 407.737,884.232 408.737,884.732 409.5,885.5C 407.139,885.326 404.806,884.993 402.5,884.5C 398.865,883.886 395.198,883.552 391.5,883.5C 389.379,883.325 387.379,883.659 385.5,884.5C 381.155,883.274 376.822,883.274 372.5,884.5C 368.251,884.317 364.251,884.317 360.5,884.5C 353.412,884.362 346.412,884.696 339.5,885.5C 338.833,885.5 338.167,885.5 337.5,885.5C 330.02,885.12 322.353,885.12 314.5,885.5C 308.171,885.1 301.838,884.767 295.5,884.5C 288.976,883.268 282.309,883.268 275.5,884.5C 274.167,884.5 272.833,884.5 271.5,884.5C 266.071,882.988 260.404,882.321 254.5,882.5C 253.508,882.328 252.842,882.662 252.5,883.5C 251.088,884.533 249.422,885.199 247.5,885.5C 243.68,884.281 240.013,884.281 236.5,885.5C 215.531,885.674 194.531,885.008 173.5,883.5C 169.215,882.705 164.881,882.372 160.5,882.5C 134.746,881.757 108.746,881.757 82.5,882.5C 77.0606,882.178 71.7273,882.178 66.5,882.5C 44.8545,883.503 23.1878,883.503 1.5,882.5C 1.43704,900.376 1.43704,918.042 1.5,935.5C 1.35016,945.8 1.35016,956.133 1.5,966.5C 0.535653,1003.52 0.535653,1040.52 1.5,1077.5C 13.8378,1077.33 26.1712,1077.5 38.5,1078C 39.4158,1078.28 40.0825,1078.78 40.5,1079.5C 26.8333,1079.5 13.1667,1079.5 -0.5,1079.5C -0.5,1013.17 -0.5,946.833 -0.5,880.5C 59.8561,880.818 120.189,880.485 180.5,879.5 Z"/></g>
<g><path style="opacity:1" fill="#fbfbfb" d="M 1178.5,880.5 C 1425.5,880.5 1672.5,880.5 1919.5,880.5C 1919.5,881.833 1919.5,883.167 1919.5,884.5C 1917.83,884.5 1916.17,884.5 1914.5,884.5C 1912.66,884.277 1910.82,883.943 1909,883.5C 1907.12,883.525 1905.62,884.191 1904.5,885.5C 1882.46,884.505 1860.46,884.505 1838.5,885.5C 1833.17,884.167 1827.83,884.167 1822.5,885.5C 1738.44,884.819 1654.11,884.819 1569.5,885.5C 1565.07,884.603 1560.57,883.936 1556,883.5C 1553.83,883.667 1551.67,883.833 1549.5,884C 1550.42,884.278 1551.08,884.778 1551.5,885.5C 1526.83,885.5 1502.17,885.5 1477.5,885.5C 1473.09,885.242 1468.76,885.242 1464.5,885.5C 1433.93,884.993 1403.27,884.66 1372.5,884.5C 1368.17,883.167 1363.83,883.167 1359.5,884.5C 1356.54,885.159 1353.54,885.492 1350.5,885.5C 1344.81,884.773 1338.98,884.106 1333,883.5C 1332.24,883.57 1331.74,883.903 1331.5,884.5C 1318.54,884.252 1305.54,884.585 1292.5,885.5C 1287.99,884.501 1283.33,884.501 1278.5,885.5C 1273.31,885.821 1268.31,885.487 1263.5,884.5C 1263.61,883.883 1263.94,883.383 1264.5,883C 1260.51,882.501 1256.51,882.334 1252.5,882.5C 1246.19,883.983 1239.02,884.65 1231,884.5C 1225.48,884.425 1219.98,884.092 1214.5,883.5C 1212.06,884.376 1209.56,885.043 1207,885.5C 1188.95,885.54 1170.78,885.206 1152.5,884.5C 1149.7,883.888 1146.7,883.888 1143.5,884.5C 1125.66,884.651 1107.82,884.317 1090,883.5C 1084.19,883.329 1078.53,883.996 1073,885.5C 1054.37,885.08 1035.7,885.08 1017,885.5C 1002.17,885.333 987.333,885.167 972.5,885C 971,884.5 969.5,884 968,883.5C 965.065,885.192 961.898,885.858 958.5,885.5C 947.971,885.324 937.637,885.324 927.5,885.5C 924.287,885.81 921.287,885.477 918.5,884.5C 905.02,884.223 891.353,883.556 877.5,882.5C 874.116,882.586 870.783,882.919 867.5,883.5C 845.548,883.141 823.548,883.141 801.5,883.5C 797.946,882.016 794.112,881.349 790,881.5C 785.159,881.812 780.326,882.145 775.5,882.5C 762.833,882.5 750.167,882.5 737.5,882.5C 737.389,881.883 737.056,881.383 736.5,881C 883.833,880.5 1031.17,880.333 1178.5,880.5 Z"/></g>
<g><path style="opacity:1" fill="#666666" d="M 66.5,882.5 C 71.8333,883.833 77.1667,883.833 82.5,882.5C 108.746,881.757 134.746,881.757 160.5,882.5C 164.841,885.325 169.174,885.658 173.5,883.5C 194.531,885.008 215.531,885.674 236.5,885.5C 243.528,886.931 250.528,886.765 257.5,885C 255.753,884.648 254.086,884.148 252.5,883.5C 252.842,882.662 253.508,882.328 254.5,882.5C 258.908,883.293 263.408,884.293 268,885.5C 269.138,885.011 270.305,884.678 271.5,884.5C 272.833,884.5 274.167,884.5 275.5,884.5C 281.966,884.749 288.632,884.749 295.5,884.5C 301.838,884.767 308.171,885.1 314.5,885.5C 322.007,886.562 329.674,886.562 337.5,885.5C 338.167,885.5 338.833,885.5 339.5,885.5C 345.199,885.312 350.866,885.645 356.5,886.5C 358.355,886.66 359.688,885.993 360.5,884.5C 364.251,884.317 368.251,884.317 372.5,884.5C 376.833,885.833 381.167,885.833 385.5,884.5C 387.379,883.659 389.379,883.325 391.5,883.5C 395.198,883.552 398.865,883.886 402.5,884.5C 404.806,884.993 407.139,885.326 409.5,885.5C 415.545,885.697 421.545,885.363 427.5,884.5C 437.169,884.789 446.835,885.122 456.5,885.5C 463.07,886.893 469.737,886.726 476.5,885C 475.552,884.517 474.552,884.351 473.5,884.5C 476.455,881.914 479.455,882.081 482.5,885C 526.491,884.84 570.491,885.006 614.5,885.5C 615.964,886.16 617.631,886.493 619.5,886.5C 621.64,886.444 623.306,885.777 624.5,884.5C 640.179,885.065 655.846,885.399 671.5,885.5C 673.7,885.666 676.033,885.999 678.5,886.5C 681.211,885.268 683.877,884.268 686.5,883.5C 691.07,884.441 695.737,884.774 700.5,884.5C 703.785,884.79 706.785,884.123 709.5,882.5C 713.519,882.354 717.519,882.021 721.5,881.5C 726.862,881.472 732.195,881.806 737.5,882.5C 750.167,882.5 762.833,882.5 775.5,882.5C 778.84,883.664 782.34,883.664 786,882.5C 787.551,883.054 789.051,883.72 790.5,884.5C 794.118,883.654 797.785,883.32 801.5,883.5C 823.548,883.141 845.548,883.141 867.5,883.5C 868.777,884.898 870.443,885.564 872.5,885.5C 875.389,885.069 878.222,884.403 881,883.5C 893.467,885.406 905.967,885.739 918.5,884.5C 921.287,885.477 924.287,885.81 927.5,885.5C 937.985,886.717 948.318,886.717 958.5,885.5C 961.898,885.858 965.065,885.192 968,883.5C 969.5,884 971,884.5 972.5,885C 987.333,885.167 1002.17,885.333 1017,885.5C 1035.7,885.08 1054.37,885.08 1073,885.5C 1078.53,883.996 1084.19,883.329 1090,883.5C 1107.82,884.317 1125.66,884.651 1143.5,884.5C 1146.5,885.833 1149.5,885.833 1152.5,884.5C 1170.78,885.206 1188.95,885.54 1207,885.5C 1209.56,885.043 1212.06,884.376 1214.5,883.5C 1219.98,884.092 1225.48,884.425 1231,884.5C 1239.02,884.65 1246.19,883.983 1252.5,882.5C 1253.95,883.825 1253.62,884.658 1251.5,885C 1254.66,885.602 1257.66,885.102 1260.5,883.5C 1261.58,883.685 1262.58,884.018 1263.5,884.5C 1268.31,885.487 1273.31,885.821 1278.5,885.5C 1283.01,886.499 1287.67,886.499 1292.5,885.5C 1305.54,884.585 1318.54,884.252 1331.5,884.5C 1337.74,885.458 1344.08,885.791 1350.5,885.5C 1353.54,885.492 1356.54,885.159 1359.5,884.5C 1363.98,885.662 1368.31,885.662 1372.5,884.5C 1403.27,884.66 1433.93,884.993 1464.5,885.5C 1468.98,886.662 1473.31,886.662 1477.5,885.5C 1502.17,885.5 1526.83,885.5 1551.5,885.5C 1557.59,885.782 1563.59,885.782 1569.5,885.5C 1654.11,884.819 1738.44,884.819 1822.5,885.5C 1827.8,886.618 1833.14,886.618 1838.5,885.5C 1860.46,884.505 1882.46,884.505 1904.5,885.5C 1908.04,885.813 1911.38,885.479 1914.5,884.5C 1916.17,884.5 1917.83,884.5 1919.5,884.5C 1919.5,889.833 1919.5,895.167 1919.5,900.5C 1918.19,902.915 1917.52,905.748 1917.5,909C 1918,927.788 1918,946.622 1917.5,965.5C 1917.03,971.491 1916.7,977.491 1916.5,983.5C 1917.84,995.845 1917.68,1008.18 1916,1020.5C 1913.75,1036.19 1911.25,1051.85 1908.5,1067.5C 1896.49,1066 1885.16,1067.83 1874.5,1073C 1853.96,1076.64 1833.29,1077.47 1812.5,1075.5C 1805.68,1074.97 1798.68,1074.97 1791.5,1075.5C 1787.57,1076.36 1783.57,1076.69 1779.5,1076.5C 1774.15,1075.77 1768.65,1075.1 1763,1074.5C 1761.77,1075.62 1760.6,1075.62 1759.5,1074.5C 1758.26,1074.94 1757.26,1075.61 1756.5,1076.5C 1756.17,1076.5 1755.83,1076.5 1755.5,1076.5C 1753.03,1075.37 1750.37,1075.2 1747.5,1076C 1748.42,1076.28 1749.08,1076.78 1749.5,1077.5C 1740.15,1078.55 1730.82,1078.55 1721.5,1077.5C 1720.55,1076.85 1719.38,1076.51 1718,1076.5C 1711.63,1077.14 1705.47,1078.14 1699.5,1079.5C 1697.17,1079.5 1694.83,1079.5 1692.5,1079.5C 1678.31,1078.77 1663.98,1078.1 1649.5,1077.5C 1648.49,1076.33 1647.15,1075.66 1645.5,1075.5C 1634.49,1076.73 1623.49,1076.73 1612.5,1075.5C 1611.26,1075.56 1610.26,1076.06 1609.5,1077C 1594.9,1077.86 1580.4,1077.36 1566,1075.5C 1563.96,1076.42 1561.79,1076.76 1559.5,1076.5C 1558.21,1074.63 1556.88,1074.47 1555.5,1076C 1551.83,1076.33 1548.17,1076.67 1544.5,1077C 1545.74,1077.23 1546.74,1077.73 1547.5,1078.5C 1536.85,1077.76 1526.18,1077.43 1515.5,1077.5C 1510.35,1076.94 1505.02,1076.94 1499.5,1077.5C 1498.04,1077.57 1496.71,1077.23 1495.5,1076.5C 1494.23,1075.77 1492.73,1075.77 1491,1076.5C 1489.62,1076.68 1488.79,1077.35 1488.5,1078.5C 1473.65,1078.39 1458.82,1077.39 1444,1075.5C 1438.85,1076.26 1433.69,1076.92 1428.5,1077.5C 1417.2,1077.52 1405.87,1077.19 1394.5,1076.5C 1388.05,1075.8 1381.55,1076.46 1375,1078.5C 1371.13,1076.58 1367.3,1076.25 1363.5,1077.5C 1358.18,1077.91 1352.84,1078.24 1347.5,1078.5C 1336.33,1077.54 1325.16,1076.54 1314,1075.5C 1285.1,1075.7 1256.27,1076.04 1227.5,1076.5C 1224.48,1076.34 1221.48,1076.5 1218.5,1077C 1217.94,1077.38 1217.61,1077.88 1217.5,1078.5C 1207.84,1077.22 1198.17,1077.22 1188.5,1078.5C 1179.64,1078.12 1170.81,1077.45 1162,1076.5C 1160.47,1076.77 1158.97,1077.11 1157.5,1077.5C 1155.78,1076.2 1153.61,1075.53 1151,1075.5C 1148.83,1075.67 1146.67,1075.83 1144.5,1076C 1145.5,1076.33 1146.5,1076.67 1147.5,1077C 1145.29,1077.19 1143.29,1077.69 1141.5,1078.5C 1134.19,1077.48 1126.86,1077.32 1119.5,1078C 1120.42,1078.28 1121.08,1078.78 1121.5,1079.5C 1097.5,1079.5 1073.5,1079.5 1049.5,1079.5C 1038.84,1077.05 1028.18,1077.05 1017.5,1079.5C 1015.83,1079.5 1014.17,1079.5 1012.5,1079.5C 1011.47,1078.75 1010.3,1078.08 1009,1077.5C 1002.07,1078.15 995.234,1078.82 988.5,1079.5C 980.167,1079.5 971.833,1079.5 963.5,1079.5C 963.082,1078.78 962.416,1078.28 961.5,1078C 963.595,1077.44 963.762,1076.94 962,1076.5C 954.687,1077.71 947.353,1077.71 940,1076.5C 937.719,1076.82 935.552,1077.49 933.5,1078.5C 929.277,1077.09 924.943,1076.42 920.5,1076.5C 916.19,1075.92 911.857,1075.59 907.5,1075.5C 904.603,1075.68 901.77,1075.35 899,1074.5C 896.97,1074.95 895.137,1075.62 893.5,1076.5C 889.396,1077.01 885.396,1077.01 881.5,1076.5C 880.305,1076.68 879.138,1077.01 878,1077.5C 877.619,1076.52 876.786,1075.85 875.5,1075.5C 873.5,1076 871.5,1076.5 869.5,1077C 870.167,1077.33 870.833,1077.67 871.5,1078C 860.506,1078.06 849.506,1077.89 838.5,1077.5C 837.85,1077.8 837.183,1078.14 836.5,1078.5C 833.083,1076.21 829.416,1075.87 825.5,1077.5C 824.287,1077.75 823.62,1078.41 823.5,1079.5C 822.5,1079.5 821.5,1079.5 820.5,1079.5C 820.423,1078.25 819.756,1077.42 818.5,1077C 815.333,1076.83 812.167,1076.67 809,1076.5C 800.969,1077.43 792.969,1077.43 785,1076.5C 779.225,1078.5 773.391,1078.83 767.5,1077.5C 763.84,1077.16 760.507,1077.83 757.5,1079.5C 751.833,1079.5 746.167,1079.5 740.5,1079.5C 739.666,1078.25 738.333,1077.59 736.5,1077.5C 735.167,1077.67 733.833,1077.83 732.5,1078C 733.737,1078.23 734.737,1078.73 735.5,1079.5C 693.5,1079.5 651.5,1079.5 609.5,1079.5C 605.354,1078.55 601.02,1077.89 596.5,1077.5C 592.81,1078.58 589.143,1078.58 585.5,1077.5C 584.833,1077.67 584.167,1077.83 583.5,1078C 584.416,1078.28 585.082,1078.78 585.5,1079.5C 559.833,1079.5 534.167,1079.5 508.5,1079.5C 500.534,1078.31 492.534,1076.98 484.5,1075.5C 462.062,1076.59 439.562,1076.59 417,1075.5C 400.034,1077.45 383.034,1077.45 366,1075.5C 363.143,1076.76 360.143,1077.43 357,1077.5C 327.486,1076.75 297.986,1076.08 268.5,1075.5C 267.726,1074.85 266.726,1074.52 265.5,1074.5C 260.731,1074.94 256.064,1075.77 251.5,1077C 253.473,1077.5 255.473,1077.66 257.5,1077.5C 256.036,1078.16 254.369,1078.49 252.5,1078.5C 242.397,1076.3 232.231,1075.97 222,1077.5C 213.497,1076.8 204.997,1076.13 196.5,1075.5C 188.987,1074.33 181.32,1074.33 173.5,1075.5C 158.5,1075.5 143.5,1075.5 128.5,1075.5C 122.83,1075.91 117.164,1076.25 111.5,1076.5C 105.876,1075.98 100.376,1075.64 95,1075.5C 86.028,1076.62 77.1947,1077.95 68.5,1079.5C 64.5,1079.5 60.5,1079.5 56.5,1079.5C 56.3893,1078.88 56.056,1078.38 55.5,1078C 52.8333,1077.33 50.1667,1077.33 47.5,1078C 48.056,1078.38 48.3893,1078.88 48.5,1079.5C 45.8333,1079.5 43.1667,1079.5 40.5,1079.5C 40.0825,1078.78 39.4158,1078.28 38.5,1078C 26.1712,1077.5 13.8378,1077.33 1.5,1077.5C 0.535653,1040.52 0.535653,1003.52 1.5,966.5C 2.29301,962.661 2.95967,958.661 3.5,954.5C 3.1413,948.191 2.47464,941.857 1.5,935.5C 1.43704,918.042 1.43704,900.376 1.5,882.5C 23.1878,883.503 44.8545,883.503 66.5,882.5 Z"/></g>
<g><path style="opacity:1" fill="#9c9c9c" d="M 709.5,882.5 C 706.785,884.123 703.785,884.79 700.5,884.5C 703.252,882.126 706.252,881.459 709.5,882.5 Z"/></g>
<g><path style="opacity:1" fill="#bbbbbb" d="M 82.5,882.5 C 77.1667,883.833 71.8333,883.833 66.5,882.5C 71.7273,882.178 77.0606,882.178 82.5,882.5 Z"/></g>
<g><path style="opacity:1" fill="#bcbcbc" d="M 1252.5,882.5 C 1256.51,882.334 1260.51,882.501 1264.5,883C 1263.94,883.383 1263.61,883.883 1263.5,884.5C 1262.58,884.018 1261.58,883.685 1260.5,883.5C 1257.66,885.102 1254.66,885.602 1251.5,885C 1253.62,884.658 1253.95,883.825 1252.5,882.5 Z"/></g>
<g><path style="opacity:1" fill="#bdbdbd" d="M 160.5,882.5 C 164.881,882.372 169.215,882.705 173.5,883.5C 169.174,885.658 164.841,885.325 160.5,882.5 Z"/></g>
<g><path style="opacity:1" fill="#a9a9a9" d="M 295.5,884.5 C 288.632,884.749 281.966,884.749 275.5,884.5C 282.309,883.268 288.976,883.268 295.5,884.5 Z"/></g>
<g><path style="opacity:1" fill="#acacac" d="M 427.5,884.5 C 421.545,885.363 415.545,885.697 409.5,885.5C 408.737,884.732 407.737,884.232 406.5,884C 407.167,883.833 407.833,883.667 408.5,883.5C 414.991,884.218 421.324,884.551 427.5,884.5 Z"/></g>
<g><path style="opacity:1" fill="#9c9c9c" d="M 686.5,883.5 C 683.877,884.268 681.211,885.268 678.5,886.5C 676.033,885.999 673.7,885.666 671.5,885.5C 672.239,885.631 672.906,885.464 673.5,885C 670.258,884.717 669.924,883.883 672.5,882.5C 677.1,883.443 681.767,883.777 686.5,883.5 Z"/></g>
<g><path style="opacity:1" fill="#bcbcbc" d="M 801.5,883.5 C 797.785,883.32 794.118,883.654 790.5,884.5C 789.051,883.72 787.551,883.054 786,882.5C 782.34,883.664 778.84,883.664 775.5,882.5C 780.326,882.145 785.159,881.812 790,881.5C 794.112,881.349 797.946,882.016 801.5,883.5 Z"/></g>
<g><path style="opacity:1" fill="#a7a7a7" d="M 1359.5,884.5 C 1363.83,883.167 1368.17,883.167 1372.5,884.5C 1368.31,885.662 1363.98,885.662 1359.5,884.5 Z"/></g>
<g><path style="opacity:1" fill="#b4b4b4" d="M 1914.5,884.5 C 1911.38,885.479 1908.04,885.813 1904.5,885.5C 1905.62,884.191 1907.12,883.525 1909,883.5C 1910.82,883.943 1912.66,884.277 1914.5,884.5 Z"/></g>
<g><path style="opacity:1" fill="#a3a3a3" d="M 252.5,883.5 C 254.086,884.148 255.753,884.648 257.5,885C 250.528,886.765 243.528,886.931 236.5,885.5C 240.013,884.281 243.68,884.281 247.5,885.5C 249.422,885.199 251.088,884.533 252.5,883.5 Z"/></g>
<g><path style="opacity:1" fill="#c1c1c1" d="M 254.5,882.5 C 260.404,882.321 266.071,882.988 271.5,884.5C 270.305,884.678 269.138,885.011 268,885.5C 263.408,884.293 258.908,883.293 254.5,882.5 Z"/></g>
<g><path style="opacity:1" fill="#aaaaaa" d="M 339.5,885.5 C 346.412,884.696 353.412,884.362 360.5,884.5C 359.688,885.993 358.355,886.66 356.5,886.5C 350.866,885.645 345.199,885.312 339.5,885.5 Z"/></g>
<g><path style="opacity:1" fill="#949494" d="M 385.5,884.5 C 381.167,885.833 376.833,885.833 372.5,884.5C 376.822,883.274 381.155,883.274 385.5,884.5 Z"/></g>
<g><path style="opacity:1" fill="#9c9c9c" d="M 391.5,883.5 C 395.198,883.552 398.865,883.886 402.5,884.5C 400.866,885.161 399.033,885.494 397,885.5C 394.705,885.453 392.871,884.787 391.5,883.5 Z"/></g>
<g><path style="opacity:1" fill="#9c9c9c" d="M 624.5,884.5 C 623.306,885.777 621.64,886.444 619.5,886.5C 617.631,886.493 615.964,886.16 614.5,885.5C 616.156,884.854 617.823,884.187 619.5,883.5C 621.135,884.046 622.801,884.38 624.5,884.5 Z"/></g>
<g><path style="opacity:1" fill="#bfbfbf" d="M 918.5,884.5 C 905.967,885.739 893.467,885.406 881,883.5C 878.222,884.403 875.389,885.069 872.5,885.5C 870.443,885.564 868.777,884.898 867.5,883.5C 870.783,882.919 874.116,882.586 877.5,882.5C 891.353,883.556 905.02,884.223 918.5,884.5 Z"/></g>
<g><path style="opacity:1" fill="#ababab" d="M 1152.5,884.5 C 1149.5,885.833 1146.5,885.833 1143.5,884.5C 1146.7,883.888 1149.7,883.888 1152.5,884.5 Z"/></g>
<g><path style="opacity:1" fill="#c6c6c6" d="M 1331.5,884.5 C 1331.74,883.903 1332.24,883.57 1333,883.5C 1338.98,884.106 1344.81,884.773 1350.5,885.5C 1344.08,885.791 1337.74,885.458 1331.5,884.5 Z"/></g>
<g><path style="opacity:1" fill="#9c9c9c" d="M 1569.5,885.5 C 1563.59,885.782 1557.59,885.782 1551.5,885.5C 1551.08,884.778 1550.42,884.278 1549.5,884C 1551.67,883.833 1553.83,883.667 1556,883.5C 1560.57,883.936 1565.07,884.603 1569.5,885.5 Z"/></g>
<g><path style="opacity:1" fill="#a3a3a3" d="M 1822.5,885.5 C 1827.83,884.167 1833.17,884.167 1838.5,885.5C 1833.14,886.618 1827.8,886.618 1822.5,885.5 Z"/></g>
<g><path style="opacity:1" fill="#b8b8b8" d="M 337.5,885.5 C 329.674,886.562 322.007,886.562 314.5,885.5C 322.353,885.12 330.02,885.12 337.5,885.5 Z"/></g>
<g><path style="opacity:1" fill="#979797" d="M 473.5,884.5 C 474.552,884.351 475.552,884.517 476.5,885C 469.737,886.726 463.07,886.893 456.5,885.5C 462.181,885.365 467.848,885.032 473.5,884.5 Z"/></g>
<g><path style="opacity:1" fill="#8c8c8c" d="M 927.5,885.5 C 937.637,885.324 947.971,885.324 958.5,885.5C 948.318,886.717 937.985,886.717 927.5,885.5 Z"/></g>
<g><path style="opacity:1" fill="#979797" d="M 1292.5,885.5 C 1287.67,886.499 1283.01,886.499 1278.5,885.5C 1283.33,884.501 1287.99,884.501 1292.5,885.5 Z"/></g>
<g><path style="opacity:1" fill="#959595" d="M 1464.5,885.5 C 1468.76,885.242 1473.09,885.242 1477.5,885.5C 1473.31,886.662 1468.98,886.662 1464.5,885.5 Z"/></g>
<g><path style="opacity:1" fill="#f5f5f5" d="M 1919.5,900.5 C 1919.5,922.167 1919.5,943.833 1919.5,965.5C 1918.83,965.5 1918.17,965.5 1917.5,965.5C 1918,946.622 1918,927.788 1917.5,909C 1917.52,905.748 1918.19,902.915 1919.5,900.5 Z"/></g>
<g><path style="opacity:1" fill="#9f9f9f" d="M 1.5,935.5 C 2.47464,941.857 3.1413,948.191 3.5,954.5C 2.95967,958.661 2.29301,962.661 1.5,966.5C 1.35016,956.133 1.35016,945.8 1.5,935.5 Z"/></g>
<g><path style="opacity:1" fill="#fce8c8" d="M 59.5,968.5 C 83.7017,968.134 107.868,968.801 132,970.5C 138.48,969.576 144.98,968.91 151.5,968.5C 151.392,975.524 150.892,982.524 150,989.5C 149.25,990.126 148.416,990.626 147.5,991C 118.491,992.334 89.4911,992.834 60.5,992.5C 59.7237,984.525 59.3903,976.525 59.5,968.5 Z"/></g>
<g><path style="opacity:1" fill="#7eac4c" d="M 363.5,969.5 C 366.5,969.5 369.5,969.5 372.5,969.5C 372.5,972.167 372.5,974.833 372.5,977.5C 371.92,981.81 371.586,986.143 371.5,990.5C 340.185,992.309 308.852,992.976 277.5,992.5C 277.5,984.167 277.5,975.833 277.5,967.5C 302.498,968.182 327.498,969.182 352.5,970.5C 356.19,970.308 359.857,969.975 363.5,969.5 Z"/></g>
<g><path style="opacity:1" fill="#fce8c8" d="M 534.5,968.5 C 555.833,968.5 577.167,968.5 598.5,968.5C 598.5,976.833 598.5,985.167 598.5,993.5C 572.489,992.925 546.489,991.925 520.5,990.5C 512.503,991.262 504.503,991.928 496.5,992.5C 496.301,985.084 496.968,977.751 498.5,970.5C 510.628,969.852 522.628,969.185 534.5,968.5 Z"/></g>
<g><path style="opacity:1" fill="#fce8c8" d="M 930.5,967.5 C 964.492,969.106 998.492,969.439 1032.5,968.5C 1032.27,975.515 1031.77,982.515 1031,989.5C 1029.93,990.191 1028.77,990.691 1027.5,991C 995.165,992.473 962.832,992.973 930.5,992.5C 930.5,984.167 930.5,975.833 930.5,967.5 Z"/></g>
<g><path style="opacity:1" fill="#fce8c8" d="M 1399.5,991.5 C 1394.17,991.5 1388.83,991.5 1383.5,991.5C 1383.81,988.287 1383.48,985.287 1382.5,982.5C 1382.5,977.5 1382.5,972.5 1382.5,967.5C 1411.16,969.061 1439.83,969.395 1468.5,968.5C 1468,975.849 1467.33,983.183 1466.5,990.5C 1444.19,992.194 1421.86,992.528 1399.5,991.5 Z"/></g>
<g><path style="opacity:1" fill="#afa696" d="M 1768.5,968.5 C 1765.5,968.5 1762.5,968.5 1759.5,968.5C 1759.5,974.167 1759.5,979.833 1759.5,985.5C 1758.51,979.69 1758.18,973.69 1758.5,967.5C 1762.04,967.187 1765.38,967.521 1768.5,968.5 Z"/></g>
<g><path style="opacity:1" fill="#fce9c8" d="M 1768.5,968.5 C 1799.51,969.262 1830.51,969.262 1861.5,968.5C 1861.21,975.75 1860.55,982.917 1859.5,990C 1841.88,991.342 1824.21,992.176 1806.5,992.5C 1790.84,991.783 1775.17,991.45 1759.5,991.5C 1759.5,989.5 1759.5,987.5 1759.5,985.5C 1759.5,979.833 1759.5,974.167 1759.5,968.5C 1762.5,968.5 1765.5,968.5 1768.5,968.5 Z"/></g>
<g><path style="opacity:1" fill="#728759" d="M 363.5,969.5 C 366.625,968.521 369.958,968.187 373.5,968.5C 373.81,971.713 373.477,974.713 372.5,977.5C 372.5,974.833 372.5,972.167 372.5,969.5C 369.5,969.5 366.5,969.5 363.5,969.5 Z"/></g>
<g><path style="opacity:1" fill="#fbfbfb" d="M 1919.5,968.5 C 1919.5,1005.5 1919.5,1042.5 1919.5,1079.5C 1852.83,1079.5 1786.17,1079.5 1719.5,1079.5C 1720.17,1078.83 1720.83,1078.17 1721.5,1077.5C 1730.82,1078.55 1740.15,1078.55 1749.5,1077.5C 1752.07,1078.56 1754.74,1078.72 1757.5,1078C 1755.5,1077.67 1753.5,1077.33 1751.5,1077C 1752.79,1076.51 1754.13,1076.34 1755.5,1076.5C 1755.83,1076.5 1756.17,1076.5 1756.5,1076.5C 1764.17,1076.5 1771.83,1076.5 1779.5,1076.5C 1783.57,1076.69 1787.57,1076.36 1791.5,1075.5C 1798.37,1076.78 1805.37,1076.78 1812.5,1075.5C 1833.29,1077.47 1853.96,1076.64 1874.5,1073C 1885.16,1067.83 1896.49,1066 1908.5,1067.5C 1911.25,1051.85 1913.75,1036.19 1916,1020.5C 1917.68,1008.18 1917.84,995.845 1916.5,983.5C 1917.83,978.557 1918.83,973.557 1919.5,968.5 Z"/></g>
<g><path style="opacity:1" fill="#7eac4c" d="M 766.5,970.5 C 776.653,971.494 786.986,971.828 797.5,971.5C 797.205,973.735 797.539,975.735 798.5,977.5C 798.5,983.5 798.5,989.5 798.5,995.5C 773.51,994.545 748.51,993.879 723.5,993.5C 720.5,993.5 717.5,993.5 714.5,993.5C 714.5,989.833 714.5,986.167 714.5,982.5C 714.833,979.167 715.167,975.833 715.5,972.5C 732.464,971.39 749.464,970.724 766.5,970.5 Z"/></g>
<g><path style="opacity:1" fill="#6f805c" d="M 766.5,970.5 C 777.167,970.5 787.833,970.5 798.5,970.5C 798.5,972.833 798.5,975.167 798.5,977.5C 797.539,975.735 797.205,973.735 797.5,971.5C 786.986,971.828 776.653,971.494 766.5,970.5 Z"/></g>
<g><path style="opacity:1" fill="#70845a" d="M 1156.5,970.5 C 1153.83,970.5 1151.17,970.5 1148.5,970.5C 1148.5,976.833 1148.5,983.167 1148.5,989.5C 1147.51,983.021 1147.18,976.354 1147.5,969.5C 1150.71,969.19 1153.71,969.523 1156.5,970.5 Z"/></g>
<g><path style="opacity:1" fill="#7eab4c" d="M 1156.5,970.5 C 1179.2,970.198 1201.86,970.864 1224.5,972.5C 1233.15,971.797 1241.82,971.464 1250.5,971.5C 1250.21,978.178 1249.71,984.844 1249,991.5C 1247.93,992.191 1246.77,992.691 1245.5,993C 1213.18,994.172 1180.84,994.672 1148.5,994.5C 1148.5,992.833 1148.5,991.167 1148.5,989.5C 1148.5,983.167 1148.5,976.833 1148.5,970.5C 1151.17,970.5 1153.83,970.5 1156.5,970.5 Z"/></g>
<g><path style="opacity:1" fill="#759156" d="M 1590.5,970.5 C 1588.17,970.5 1585.83,970.5 1583.5,970.5C 1583.5,975.5 1583.5,980.5 1583.5,985.5C 1582.51,980.36 1582.18,975.026 1582.5,969.5C 1585.39,969.194 1588.05,969.527 1590.5,970.5 Z"/></g>
<g><path style="opacity:1" fill="#7eac4c" d="M 1590.5,970.5 C 1610.36,970.334 1630.19,971.001 1650,972.5C 1657.5,972.083 1665,971.75 1672.5,971.5C 1672.23,978.504 1671.89,985.504 1671.5,992.5C 1642.5,994.464 1613.5,995.13 1584.5,994.5C 1583.52,991.572 1583.18,988.572 1583.5,985.5C 1583.5,980.5 1583.5,975.5 1583.5,970.5C 1585.83,970.5 1588.17,970.5 1590.5,970.5 Z"/></g>
<g><path style="opacity:1" fill="#bbbbbb" d="M 1917.5,965.5 C 1918.17,965.5 1918.83,965.5 1919.5,965.5C 1919.5,966.5 1919.5,967.5 1919.5,968.5C 1918.83,973.557 1917.83,978.557 1916.5,983.5C 1916.7,977.491 1917.03,971.491 1917.5,965.5 Z"/></g>
<g><path style="opacity:1" fill="#9a9388" d="M 1382.5,982.5 C 1383.48,985.287 1383.81,988.287 1383.5,991.5C 1388.83,991.5 1394.17,991.5 1399.5,991.5C 1394.02,992.489 1388.36,992.822 1382.5,992.5C 1382.5,989.167 1382.5,985.833 1382.5,982.5 Z"/></g>
<g><path style="opacity:1" fill="#769355" d="M 714.5,982.5 C 714.5,986.167 714.5,989.833 714.5,993.5C 717.5,993.5 720.5,993.5 723.5,993.5C 720.375,994.479 717.042,994.813 713.5,994.5C 713.183,990.298 713.517,986.298 714.5,982.5 Z"/></g>
<g><path style="opacity:1" fill="#b5b5b5" d="M 196.5,1075.5 C 188.65,1075.95 180.984,1075.95 173.5,1075.5C 181.32,1074.33 188.987,1074.33 196.5,1075.5 Z"/></g>
<g><path style="opacity:1" fill="#878787" d="M 907.5,1075.5 C 909.5,1076.17 911.5,1076.83 913.5,1077.5C 907.5,1077.5 901.5,1077.5 895.5,1077.5C 895.158,1076.66 894.492,1076.33 893.5,1076.5C 895.137,1075.62 896.97,1074.95 899,1074.5C 901.77,1075.35 904.603,1075.68 907.5,1075.5 Z"/></g>
<g><path style="opacity:1" fill="#adadad" d="M 1779.5,1076.5 C 1771.83,1076.5 1764.17,1076.5 1756.5,1076.5C 1757.26,1075.61 1758.26,1074.94 1759.5,1074.5C 1760.6,1075.62 1761.77,1075.62 1763,1074.5C 1768.65,1075.1 1774.15,1075.77 1779.5,1076.5 Z"/></g>
<g><path style="opacity:1" fill="#c3c3c3" d="M 268.5,1075.5 C 264.833,1076.17 261.167,1076.83 257.5,1077.5C 255.473,1077.66 253.473,1077.5 251.5,1077C 256.064,1075.77 260.731,1074.94 265.5,1074.5C 266.726,1074.52 267.726,1074.85 268.5,1075.5 Z"/></g>
<g><path style="opacity:1" fill="#f8f8f8" d="M 111.5,1076.5 C 118.662,1078.89 125.995,1079.05 133.5,1077C 131.618,1076.8 129.952,1076.3 128.5,1075.5C 143.5,1075.5 158.5,1075.5 173.5,1075.5C 180.984,1075.95 188.65,1075.95 196.5,1075.5C 204.997,1076.13 213.497,1076.8 222,1077.5C 232.231,1075.97 242.397,1076.3 252.5,1078.5C 254.369,1078.49 256.036,1078.16 257.5,1077.5C 261.167,1076.83 264.833,1076.17 268.5,1075.5C 297.986,1076.08 327.486,1076.75 357,1077.5C 360.143,1077.43 363.143,1076.76 366,1075.5C 383.034,1077.45 400.034,1077.45 417,1075.5C 439.562,1076.59 462.062,1076.59 484.5,1075.5C 492.534,1076.98 500.534,1078.31 508.5,1079.5C 361.833,1079.5 215.167,1079.5 68.5,1079.5C 77.1947,1077.95 86.028,1076.62 95,1075.5C 100.376,1075.64 105.876,1075.98 111.5,1076.5 Z"/></g>
<g><path style="opacity:1" fill="#c6c6c6" d="M 907.5,1075.5 C 911.857,1075.59 916.19,1075.92 920.5,1076.5C 918.393,1077.47 916.059,1077.8 913.5,1077.5C 911.5,1076.83 909.5,1076.17 907.5,1075.5 Z"/></g>
<g><path style="opacity:1" fill="#f7f7f7" d="M 1363.5,1077.5 C 1366.78,1077.42 1369.78,1078.09 1372.5,1079.5C 1323.5,1079.5 1274.5,1079.5 1225.5,1079.5C 1225.39,1078.88 1225.06,1078.38 1224.5,1078C 1225.74,1077.77 1226.74,1077.27 1227.5,1076.5C 1256.27,1076.04 1285.1,1075.7 1314,1075.5C 1325.16,1076.54 1336.33,1077.54 1347.5,1078.5C 1352.84,1078.24 1358.18,1077.91 1363.5,1077.5 Z"/></g>
<g><path style="opacity:1" fill="#adadad" d="M 1812.5,1075.5 C 1805.37,1076.78 1798.37,1076.78 1791.5,1075.5C 1798.68,1074.97 1805.68,1074.97 1812.5,1075.5 Z"/></g>
<g><path style="opacity:1" fill="#efefef" d="M 820.5,1079.5 C 802.167,1079.5 783.833,1079.5 765.5,1079.5C 766.167,1078.83 766.833,1078.17 767.5,1077.5C 773.391,1078.83 779.225,1078.5 785,1076.5C 792.969,1077.43 800.969,1077.43 809,1076.5C 812.167,1076.67 815.333,1076.83 818.5,1077C 819.756,1077.42 820.423,1078.25 820.5,1079.5 Z"/></g>
<g><path style="opacity:1" fill="#999999" d="M 838.5,1077.5 C 838.5,1078.17 838.5,1078.83 838.5,1079.5C 833.5,1079.5 828.5,1079.5 823.5,1079.5C 823.62,1078.41 824.287,1077.75 825.5,1077.5C 829.416,1075.87 833.083,1076.21 836.5,1078.5C 837.183,1078.14 837.85,1077.8 838.5,1077.5 Z"/></g>
<g><path style="opacity:1" fill="#f3f3f3" d="M 881.5,1076.5 C 882.152,1077.73 883.319,1078.39 885,1078.5C 888.473,1077.84 891.973,1077.5 895.5,1077.5C 901.5,1077.5 907.5,1077.5 913.5,1077.5C 916.059,1077.8 918.393,1077.47 920.5,1076.5C 924.943,1076.42 929.277,1077.09 933.5,1078.5C 935.552,1077.49 937.719,1076.82 940,1076.5C 947.353,1077.71 954.687,1077.71 962,1076.5C 963.762,1076.94 963.595,1077.44 961.5,1078C 962.416,1078.28 963.082,1078.78 963.5,1079.5C 921.833,1079.5 880.167,1079.5 838.5,1079.5C 838.5,1078.83 838.5,1078.17 838.5,1077.5C 849.506,1077.89 860.506,1078.06 871.5,1078C 870.833,1077.67 870.167,1077.33 869.5,1077C 871.5,1076.5 873.5,1076 875.5,1075.5C 876.786,1075.85 877.619,1076.52 878,1077.5C 879.138,1077.01 880.305,1076.68 881.5,1076.5 Z"/></g>
<g><path style="opacity:1" fill="#b9b9b9" d="M 881.5,1076.5 C 885.396,1077.01 889.396,1077.01 893.5,1076.5C 894.492,1076.33 895.158,1076.66 895.5,1077.5C 891.973,1077.5 888.473,1077.84 885,1078.5C 883.319,1078.39 882.152,1077.73 881.5,1076.5 Z"/></g>
<g><path style="opacity:1" fill="#ababab" d="M 1157.5,1077.5 C 1155.22,1076.61 1152.88,1076.44 1150.5,1077C 1151.5,1077.33 1152.5,1077.67 1153.5,1078C 1149.51,1078.5 1145.51,1078.67 1141.5,1078.5C 1143.29,1077.69 1145.29,1077.19 1147.5,1077C 1146.5,1076.67 1145.5,1076.33 1144.5,1076C 1146.67,1075.83 1148.83,1075.67 1151,1075.5C 1153.61,1075.53 1155.78,1076.2 1157.5,1077.5 Z"/></g>
<g><path style="opacity:1" fill="#f6f6f6" d="M 1488.5,1078.5 C 1491.01,1078.07 1493.34,1077.41 1495.5,1076.5C 1496.71,1077.23 1498.04,1077.57 1499.5,1077.5C 1502.17,1078.17 1504.83,1078.83 1507.5,1079.5C 1465.83,1079.5 1424.17,1079.5 1382.5,1079.5C 1383.18,1077.19 1384.51,1076.85 1386.5,1078.5C 1389.02,1077.21 1391.69,1076.55 1394.5,1076.5C 1405.87,1077.19 1417.2,1077.52 1428.5,1077.5C 1433.69,1076.92 1438.85,1076.26 1444,1075.5C 1458.82,1077.39 1473.65,1078.39 1488.5,1078.5 Z"/></g>
<g><path style="opacity:1" fill="#aeaeae" d="M 1495.5,1076.5 C 1493.34,1077.41 1491.01,1078.07 1488.5,1078.5C 1488.79,1077.35 1489.62,1076.68 1491,1076.5C 1492.73,1075.77 1494.23,1075.77 1495.5,1076.5 Z"/></g>
<g><path style="opacity:1" fill="#a4a4a4" d="M 1559.5,1076.5 C 1555.7,1078.14 1551.7,1078.81 1547.5,1078.5C 1546.74,1077.73 1545.74,1077.23 1544.5,1077C 1548.17,1076.67 1551.83,1076.33 1555.5,1076C 1556.88,1074.47 1558.21,1074.63 1559.5,1076.5 Z"/></g>
<g><path style="opacity:1" fill="#f5f5f5" d="M 1645.5,1075.5 C 1644.28,1076.16 1642.95,1076.83 1641.5,1077.5C 1642.95,1078.17 1644.28,1078.84 1645.5,1079.5C 1601.83,1079.5 1558.17,1079.5 1514.5,1079.5C 1513.74,1078.73 1512.74,1078.23 1511.5,1078C 1512.79,1077.51 1514.13,1077.34 1515.5,1077.5C 1526.18,1077.43 1536.85,1077.76 1547.5,1078.5C 1551.7,1078.81 1555.7,1078.14 1559.5,1076.5C 1561.79,1076.76 1563.96,1076.42 1566,1075.5C 1580.4,1077.36 1594.9,1077.86 1609.5,1077C 1610.26,1076.06 1611.26,1075.56 1612.5,1075.5C 1623.49,1076.73 1634.49,1076.73 1645.5,1075.5 Z"/></g>
<g><path style="opacity:1" fill="#979797" d="M 1645.5,1075.5 C 1647.15,1075.66 1648.49,1076.33 1649.5,1077.5C 1648.76,1077.37 1648.09,1077.54 1647.5,1078C 1648.42,1078.28 1649.08,1078.78 1649.5,1079.5C 1648.17,1079.5 1646.83,1079.5 1645.5,1079.5C 1644.28,1078.84 1642.95,1078.17 1641.5,1077.5C 1642.95,1076.83 1644.28,1076.16 1645.5,1075.5 Z"/></g>
<g><path style="opacity:1" fill="#f2f2f2" d="M 56.5,1079.5 C 53.8333,1079.5 51.1667,1079.5 48.5,1079.5C 48.3893,1078.88 48.056,1078.38 47.5,1078C 50.1667,1077.33 52.8333,1077.33 55.5,1078C 56.056,1078.38 56.3893,1078.88 56.5,1079.5 Z"/></g>
<g><path style="opacity:1" fill="#a8a8a8" d="M 128.5,1075.5 C 129.952,1076.3 131.618,1076.8 133.5,1077C 125.995,1079.05 118.662,1078.89 111.5,1076.5C 117.164,1076.25 122.83,1075.91 128.5,1075.5 Z"/></g>
<g><path style="opacity:1" fill="#9f9f9f" d="M 609.5,1079.5 C 601.5,1079.5 593.5,1079.5 585.5,1079.5C 585.082,1078.78 584.416,1078.28 583.5,1078C 584.167,1077.83 584.833,1077.67 585.5,1077.5C 589.143,1078.58 592.81,1078.58 596.5,1077.5C 601.02,1077.89 605.354,1078.55 609.5,1079.5 Z"/></g>
<g><path style="opacity:1" fill="#adadad" d="M 740.5,1079.5 C 738.833,1079.5 737.167,1079.5 735.5,1079.5C 734.737,1078.73 733.737,1078.23 732.5,1078C 733.833,1077.83 735.167,1077.67 736.5,1077.5C 738.333,1077.59 739.666,1078.25 740.5,1079.5 Z"/></g>
<g><path style="opacity:1" fill="#a8a8a8" d="M 767.5,1077.5 C 766.833,1078.17 766.167,1078.83 765.5,1079.5C 762.833,1079.5 760.167,1079.5 757.5,1079.5C 760.507,1077.83 763.84,1077.16 767.5,1077.5 Z"/></g>
<g><path style="opacity:1" fill="#9c9c9c" d="M 1049.5,1079.5 C 1038.83,1079.5 1028.17,1079.5 1017.5,1079.5C 1028.18,1077.05 1038.84,1077.05 1049.5,1079.5 Z"/></g>
<g><path style="opacity:1" fill="#f2f2f2" d="M 1157.5,1077.5 C 1158.97,1077.11 1160.47,1076.77 1162,1076.5C 1170.81,1077.45 1179.64,1078.12 1188.5,1078.5C 1198.17,1077.22 1207.84,1077.22 1217.5,1078.5C 1218.17,1078.5 1218.5,1078.83 1218.5,1079.5C 1186.17,1079.5 1153.83,1079.5 1121.5,1079.5C 1121.08,1078.78 1120.42,1078.28 1119.5,1078C 1126.86,1077.32 1134.19,1077.48 1141.5,1078.5C 1145.51,1078.67 1149.51,1078.5 1153.5,1078C 1152.5,1077.67 1151.5,1077.33 1150.5,1077C 1152.88,1076.44 1155.22,1076.61 1157.5,1077.5 Z"/></g>
<g><path style="opacity:1" fill="#afafaf" d="M 1227.5,1076.5 C 1226.74,1077.27 1225.74,1077.77 1224.5,1078C 1225.06,1078.38 1225.39,1078.88 1225.5,1079.5C 1223.17,1079.5 1220.83,1079.5 1218.5,1079.5C 1218.5,1078.83 1218.17,1078.5 1217.5,1078.5C 1217.61,1077.88 1217.94,1077.38 1218.5,1077C 1221.48,1076.5 1224.48,1076.34 1227.5,1076.5 Z"/></g>
<g><path style="opacity:1" fill="#9a9a9a" d="M 1721.5,1077.5 C 1720.83,1078.17 1720.17,1078.83 1719.5,1079.5C 1712.83,1079.5 1706.17,1079.5 1699.5,1079.5C 1705.47,1078.14 1711.63,1077.14 1718,1076.5C 1719.38,1076.51 1720.55,1076.85 1721.5,1077.5 Z"/></g>
<g><path style="opacity:1" fill="#adadad" d="M 1755.5,1076.5 C 1754.13,1076.34 1752.79,1076.51 1751.5,1077C 1753.5,1077.33 1755.5,1077.67 1757.5,1078C 1754.74,1078.72 1752.07,1078.56 1749.5,1077.5C 1749.08,1076.78 1748.42,1076.28 1747.5,1076C 1750.37,1075.2 1753.03,1075.37 1755.5,1076.5 Z"/></g>
<g><path style="opacity:1" fill="#e6e6e6" d="M 1012.5,1079.5 C 1004.5,1079.5 996.5,1079.5 988.5,1079.5C 995.234,1078.82 1002.07,1078.15 1009,1077.5C 1010.3,1078.08 1011.47,1078.75 1012.5,1079.5 Z"/></g>
<g><path style="opacity:1" fill="#a7a7a7" d="M 1394.5,1076.5 C 1391.69,1076.55 1389.02,1077.21 1386.5,1078.5C 1384.51,1076.85 1383.18,1077.19 1382.5,1079.5C 1379.17,1079.5 1375.83,1079.5 1372.5,1079.5C 1369.78,1078.09 1366.78,1077.42 1363.5,1077.5C 1367.3,1076.25 1371.13,1076.58 1375,1078.5C 1381.55,1076.46 1388.05,1075.8 1394.5,1076.5 Z"/></g>
<g><path style="opacity:1" fill="#b4b4b4" d="M 1515.5,1077.5 C 1514.13,1077.34 1512.79,1077.51 1511.5,1078C 1512.74,1078.23 1513.74,1078.73 1514.5,1079.5C 1512.17,1079.5 1509.83,1079.5 1507.5,1079.5C 1504.83,1078.83 1502.17,1078.17 1499.5,1077.5C 1505.02,1076.94 1510.35,1076.94 1515.5,1077.5 Z"/></g>
<g><path style="opacity:1" fill="#e5e5e5" d="M 1649.5,1077.5 C 1663.98,1078.1 1678.31,1078.77 1692.5,1079.5C 1678.17,1079.5 1663.83,1079.5 1649.5,1079.5C 1649.08,1078.78 1648.42,1078.28 1647.5,1078C 1648.09,1077.54 1648.76,1077.37 1649.5,1077.5 Z"/></g>
</svg>
