<?xml version="1.0" encoding="UTF-8"?>
<!DOCTYPE svg PUBLIC "-//W3C//DTD SVG 1.1//EN" "http://www.w3.org/Graphics/SVG/1.1/DTD/svg11.dtd">
<svg xmlns="http://www.w3.org/2000/svg" version="1.1" width="1587px" height="2245px" style="shape-rendering:geometricPrecision; text-rendering:geometricPrecision; image-rendering:optimizeQuality; fill-rule:evenodd; clip-rule:evenodd" xmlns:xlink="http://www.w3.org/1999/xlink">
<g><path style="opacity:1" fill="#fefefe" d="M -0.5,-0.5 C 13.1667,-0.5 26.8333,-0.5 40.5,-0.5C 56.1618,34.4903 73.1618,68.8236 91.5,102.5C 140.83,103.667 190.163,103.833 239.5,103C 220.437,70.0417 204.771,35.5417 192.5,-0.5C 253.5,-0.5 314.5,-0.5 375.5,-0.5C 399.912,39.7546 430.912,74.2546 468.5,103C 728.5,103.667 988.5,103.667 1248.5,103C 1226.92,71.4623 1197.25,51.7956 1159.5,44C 1133.1,38.6301 1106.44,35.2968 1079.5,34C 1025.17,32.0215 970.833,30.0215 916.5,28C 863.677,25.7748 811.677,18.1081 760.5,5C 754.949,3.45552 749.616,1.62219 744.5,-0.5C 944.5,-0.5 1144.5,-0.5 1344.5,-0.5C 1365.6,31.0795 1380.93,65.4128 1390.5,102.5C 1422.49,103.5 1454.49,103.833 1486.5,103.5C 1477.89,67.6627 1465.89,32.996 1450.5,-0.5C 1478.5,-0.5 1506.5,-0.5 1534.5,-0.5C 1555.12,45.4076 1571.78,92.741 1584.5,141.5C 1584.43,143.027 1585.09,144.027 1586.5,144.5C 1586.5,609.833 1586.5,1075.17 1586.5,1540.5C 1585.51,1540.33 1584.84,1540.66 1584.5,1541.5C 1552.44,1549.75 1522.77,1544.75 1495.5,1526.5C 1494.5,1623.5 1494.17,1720.5 1494.5,1817.5C 1522.19,1823.78 1550.19,1828.12 1578.5,1830.5C 1580.95,1831.47 1583.61,1831.81 1586.5,1831.5C 1586.5,1863.17 1586.5,1894.83 1586.5,1926.5C 1584.26,1926.21 1582.26,1926.54 1580.5,1927.5C 1551.86,1929.25 1523.2,1930.25 1494.5,1930.5C 1494.5,1964.5 1494.5,1998.5 1494.5,2032.5C 1524.83,2030.5 1555.17,2028.5 1585.5,2026.5C 1585.83,2026.5 1586.17,2026.5 1586.5,2026.5C 1586.5,2060.17 1586.5,2093.83 1586.5,2127.5C 1586.17,2127.5 1585.83,2127.5 1585.5,2127.5C 1555.15,2129.93 1524.81,2132.59 1494.5,2135.5C 1494.5,2137.17 1494.5,2138.83 1494.5,2140.5C 1473.83,2140.33 1453.16,2140.5 1432.5,2141C 1352.35,2148.94 1272.02,2151.94 1191.5,2150C 1158.04,2148.32 1124.71,2145.32 1091.5,2141C 976.833,2140.33 862.167,2140.33 747.5,2141C 786.124,2180.83 831.79,2209.83 884.5,2228C 903.017,2234.45 921.684,2239.95 940.5,2244.5C 844.167,2244.5 747.833,2244.5 651.5,2244.5C 624.846,2213.88 604.846,2179.22 591.5,2140.5C 556.167,2140.5 520.833,2140.5 485.5,2140.5C 489.438,2176.14 497.438,2210.8 509.5,2244.5C 473.167,2244.5 436.833,2244.5 400.5,2244.5C 397.948,2215.89 396.281,2187.22 395.5,2158.5C 395.5,2152.5 395.5,2146.5 395.5,2140.5C 370.661,2140.17 345.994,2140.5 321.5,2141.5C 318.429,2175.76 317.095,2210.09 317.5,2244.5C 290.833,2244.5 264.167,2244.5 237.5,2244.5C 240.507,2210.75 244.174,2177.09 248.5,2143.5C 249.404,2142.79 249.737,2141.79 249.5,2140.5C 225.143,2139.84 201.143,2140.51 177.5,2142.5C 170.85,2176.38 164.85,2210.38 159.5,2244.5C 134.833,2244.5 110.167,2244.5 85.5,2244.5C 92.2876,2210.44 99.2876,2176.44 106.5,2142.5C 107.043,2142.44 107.376,2142.11 107.5,2141.5C 102.208,2140.51 96.8746,2140.17 91.5,2140.5C 91.6667,1804.5 91.5,1468.5 91,1132.5C 62.7942,1108.81 32.2942,1088.47 -0.5,1071.5C -0.5,1008.5 -0.5,945.5 -0.5,882.5C 30.7643,891.921 61.4309,902.921 91.5,915.5C 91.5,860.833 91.5,806.167 91.5,751.5C 60.7907,743.042 30.124,734.375 -0.5,725.5C -0.5,683.167 -0.5,640.833 -0.5,598.5C 25.2404,606.358 50.907,614.524 76.5,623C 81.4023,624.642 86.4023,625.809 91.5,626.5C 91.8332,591.827 91.4999,557.16 90.5,522.5C 59.7971,510.314 29.4637,497.314 -0.5,483.5C -0.5,443.167 -0.5,402.833 -0.5,362.5C 28.7581,382.726 59.0915,401.393 90.5,418.5C 91.6666,377.504 91.8333,336.504 91,295.5C 58.5594,265.562 28.0594,233.895 -0.5,200.5C -0.5,133.5 -0.5,66.5 -0.5,-0.5 Z"/></g>
<g><path style="opacity:1" fill="#3c7f72" d="M 40.5,-0.5 C 91.1667,-0.5 141.833,-0.5 192.5,-0.5C 204.771,35.5417 220.437,70.0417 239.5,103C 190.163,103.833 140.83,103.667 91.5,102.5C 73.1618,68.8236 56.1618,34.4903 40.5,-0.5 Z"/></g>
<g><path style="opacity:1" fill="#3c7f72" d="M 375.5,-0.5 C 498.5,-0.5 621.5,-0.5 744.5,-0.5C 749.616,1.62219 754.949,3.45552 760.5,5C 811.677,18.1081 863.677,25.7748 916.5,28C 970.833,30.0215 1025.17,32.0215 1079.5,34C 1106.44,35.2968 1133.1,38.6301 1159.5,44C 1197.25,51.7956 1226.92,71.4623 1248.5,103C 988.5,103.667 728.5,103.667 468.5,103C 430.912,74.2546 399.912,39.7546 375.5,-0.5 Z"/></g>
<g><path style="opacity:1" fill="#3d7f72" d="M 1344.5,-0.5 C 1379.83,-0.5 1415.17,-0.5 1450.5,-0.5C 1465.89,32.996 1477.89,67.6627 1486.5,103.5C 1454.49,103.833 1422.49,103.5 1390.5,102.5C 1380.93,65.4128 1365.6,31.0795 1344.5,-0.5 Z"/></g>
<g><path style="opacity:1" fill="#3c7f72" d="M 1534.5,-0.5 C 1551.5,-0.5 1568.5,-0.5 1585.5,-0.5C 1585.83,47.0029 1585.5,94.3363 1584.5,141.5C 1571.78,92.741 1555.12,45.4076 1534.5,-0.5 Z"/></g>
<g><path style="opacity:1" fill="#c3d7d3" d="M 1585.5,-0.5 C 1585.83,-0.5 1586.17,-0.5 1586.5,-0.5C 1586.5,47.8333 1586.5,96.1667 1586.5,144.5C 1585.09,144.027 1584.43,143.027 1584.5,141.5C 1585.5,94.3363 1585.83,47.0029 1585.5,-0.5 Z"/></g>
<g><path style="opacity:1" fill="#3e8073" d="M 1494.5,135.5 C 1503.21,174.595 1509.04,214.262 1512,254.5C 1517.78,337.155 1517.78,419.822 1512,502.5C 1507.54,576.6 1501.88,650.6 1495,724.5C 1494.5,528.167 1494.33,331.834 1494.5,135.5 Z"/></g>
<g><path style="opacity:1" fill="#3c7f72" d="M -0.5,200.5 C 28.0594,233.895 58.5594,265.562 91,295.5C 91.8333,336.504 91.6666,377.504 90.5,418.5C 59.0915,401.393 28.7581,382.726 -0.5,362.5C -0.5,308.5 -0.5,254.5 -0.5,200.5 Z"/></g>
<g><path style="opacity:1" fill="#3c7f72" d="M -0.5,483.5 C 29.4637,497.314 59.7971,510.314 90.5,522.5C 91.4999,557.16 91.8332,591.827 91.5,626.5C 86.4023,625.809 81.4023,624.642 76.5,623C 50.907,614.524 25.2404,606.358 -0.5,598.5C -0.5,560.167 -0.5,521.833 -0.5,483.5 Z"/></g>
<g><path style="opacity:1" fill="#3c7f72" d="M -0.5,725.5 C 30.124,734.375 60.7907,743.042 91.5,751.5C 91.5,806.167 91.5,860.833 91.5,915.5C 61.4309,902.921 30.7643,891.921 -0.5,882.5C -0.5,830.167 -0.5,777.833 -0.5,725.5 Z"/></g>
<g><path style="opacity:1" fill="#3c7f72" d="M -0.5,1071.5 C 32.2942,1088.47 62.7942,1108.81 91,1132.5C 91.5,1468.5 91.6667,1804.5 91.5,2140.5C 96.5,2141.17 101.5,2141.83 106.5,2142.5C 99.2876,2176.44 92.2876,2210.44 85.5,2244.5C 56.8333,2244.5 28.1667,2244.5 -0.5,2244.5C -0.5,2215.5 -0.5,2186.5 -0.5,2157.5C 20.8623,2032.3 40.0289,1906.63 57,1780.5C 66.4673,1697.09 70.134,1613.42 68,1529.5C 66.3958,1482.06 61.0624,1435.06 52,1388.5C 44.2234,1353.95 32.2234,1320.95 16,1289.5C 11.2248,1280.26 5.72478,1271.59 -0.5,1263.5C -0.5,1199.5 -0.5,1135.5 -0.5,1071.5 Z"/></g>
<g><path style="opacity:1" fill="#fefefe" d="M -0.5,1263.5 C 5.72478,1271.59 11.2248,1280.26 16,1289.5C 32.2234,1320.95 44.2234,1353.95 52,1388.5C 61.0624,1435.06 66.3958,1482.06 68,1529.5C 70.134,1613.42 66.4673,1697.09 57,1780.5C 40.0289,1906.63 20.8623,2032.3 -0.5,2157.5C -0.5,1859.5 -0.5,1561.5 -0.5,1263.5 Z"/></g>
<g><path style="opacity:1" fill="#3c7f72" d="M 1584.5,1541.5 C 1585.5,1637.67 1585.83,1734 1585.5,1830.5C 1583.17,1830.5 1580.83,1830.5 1578.5,1830.5C 1550.19,1828.12 1522.19,1823.78 1494.5,1817.5C 1494.17,1720.5 1494.5,1623.5 1495.5,1526.5C 1522.77,1544.75 1552.44,1549.75 1584.5,1541.5 Z"/></g>
<g><path style="opacity:1" fill="#c2d7d3" d="M 1584.5,1541.5 C 1584.84,1540.66 1585.51,1540.33 1586.5,1540.5C 1586.5,1637.5 1586.5,1734.5 1586.5,1831.5C 1583.61,1831.81 1580.95,1831.47 1578.5,1830.5C 1580.83,1830.5 1583.17,1830.5 1585.5,1830.5C 1585.83,1734 1585.5,1637.67 1584.5,1541.5 Z"/></g>
<g><path style="opacity:1" fill="#3c7f72" d="M 1580.5,1927.5 C 1582.17,1927.5 1583.83,1927.5 1585.5,1927.5C 1585.5,1960.5 1585.5,1993.5 1585.5,2026.5C 1555.17,2028.5 1524.83,2030.5 1494.5,2032.5C 1494.5,1998.5 1494.5,1964.5 1494.5,1930.5C 1523.2,1930.25 1551.86,1929.25 1580.5,1927.5 Z"/></g>
<g><path style="opacity:1" fill="#c1d6d2" d="M 1580.5,1927.5 C 1582.26,1926.54 1584.26,1926.21 1586.5,1926.5C 1586.5,1959.83 1586.5,1993.17 1586.5,2026.5C 1586.17,2026.5 1585.83,2026.5 1585.5,2026.5C 1585.5,1993.5 1585.5,1960.5 1585.5,1927.5C 1583.83,1927.5 1582.17,1927.5 1580.5,1927.5 Z"/></g>
<g><path style="opacity:1" fill="#3c7f72" d="M 1585.5,2127.5 C 1585.5,2158.83 1585.5,2190.17 1585.5,2221.5C 1506.11,2226.64 1427.11,2234.3 1348.5,2244.5C 1212.5,2244.5 1076.5,2244.5 940.5,2244.5C 921.684,2239.95 903.017,2234.45 884.5,2228C 831.79,2209.83 786.124,2180.83 747.5,2141C 862.167,2140.33 976.833,2140.33 1091.5,2141C 1124.71,2145.32 1158.04,2148.32 1191.5,2150C 1272.02,2151.94 1352.35,2148.94 1432.5,2141C 1453.16,2140.5 1473.83,2140.33 1494.5,2140.5C 1494.5,2138.83 1494.5,2137.17 1494.5,2135.5C 1524.81,2132.59 1555.15,2129.93 1585.5,2127.5 Z"/></g>
<g><path style="opacity:1" fill="#6fa097" d="M 91.5,2140.5 C 96.8746,2140.17 102.208,2140.51 107.5,2141.5C 107.376,2142.11 107.043,2142.44 106.5,2142.5C 101.5,2141.83 96.5,2141.17 91.5,2140.5 Z"/></g>
<g><path style="opacity:1" fill="#6d9f95" d="M 248.5,2143.5 C 237.186,2142.17 225.52,2141.5 213.5,2141.5C 201.426,2141.51 189.426,2141.84 177.5,2142.5C 201.143,2140.51 225.143,2139.84 249.5,2140.5C 249.737,2141.79 249.404,2142.79 248.5,2143.5 Z"/></g>
<g><path style="opacity:1" fill="#71a198" d="M 321.5,2141.5 C 345.994,2140.5 370.661,2140.17 395.5,2140.5C 395.5,2146.5 395.5,2152.5 395.5,2158.5C 394.511,2153.02 394.178,2147.36 394.5,2141.5C 370.167,2141.5 345.833,2141.5 321.5,2141.5 Z"/></g>
<g><path style="opacity:1" fill="#3c7f72" d="M 248.5,2143.5 C 244.174,2177.09 240.507,2210.75 237.5,2244.5C 211.5,2244.5 185.5,2244.5 159.5,2244.5C 164.85,2210.38 170.85,2176.38 177.5,2142.5C 189.426,2141.84 201.426,2141.51 213.5,2141.5C 225.52,2141.5 237.186,2142.17 248.5,2143.5 Z"/></g>
<g><path style="opacity:1" fill="#3c7f72" d="M 321.5,2141.5 C 345.833,2141.5 370.167,2141.5 394.5,2141.5C 394.178,2147.36 394.511,2153.02 395.5,2158.5C 396.281,2187.22 397.948,2215.89 400.5,2244.5C 372.833,2244.5 345.167,2244.5 317.5,2244.5C 317.095,2210.09 318.429,2175.76 321.5,2141.5 Z"/></g>
<g><path style="opacity:1" fill="#3c7f72" d="M 651.5,2244.5 C 604.167,2244.5 556.833,2244.5 509.5,2244.5C 497.438,2210.8 489.438,2176.14 485.5,2140.5C 520.833,2140.5 556.167,2140.5 591.5,2140.5C 604.846,2179.22 624.846,2213.88 651.5,2244.5 Z"/></g>
<g><path style="opacity:1" fill="#fbfcfc" d="M 1585.5,2127.5 C 1585.83,2127.5 1586.17,2127.5 1586.5,2127.5C 1586.5,2166.5 1586.5,2205.5 1586.5,2244.5C 1507.17,2244.5 1427.83,2244.5 1348.5,2244.5C 1427.11,2234.3 1506.11,2226.64 1585.5,2221.5C 1585.5,2190.17 1585.5,2158.83 1585.5,2127.5 Z"/></g>
</svg>
