<?xml version="1.0" encoding="UTF-8"?>
<!DOCTYPE svg PUBLIC "-//W3C//DTD SVG 1.1//EN" "http://www.w3.org/Graphics/SVG/1.1/DTD/svg11.dtd">
<svg xmlns="http://www.w3.org/2000/svg" version="1.1" width="1009px" height="247px" style="shape-rendering:geometricPrecision; text-rendering:geometricPrecision; image-rendering:optimizeQuality; fill-rule:evenodd; clip-rule:evenodd" xmlns:xlink="http://www.w3.org/1999/xlink">
<g><path style="opacity:0.612" fill="#9b9b9b" d="M 812.5,16.5 C 808.167,16.5 803.833,16.5 799.5,16.5C 803.783,14.2464 808.117,14.2464 812.5,16.5 Z"/></g>
<g><path style="opacity:0.69" fill="#8d8d8d" d="M 883.5,16.5 C 879.486,16.3345 875.486,16.5012 871.5,17C 869.63,19.0396 867.63,20.8729 865.5,22.5C 867.521,17.3237 871.354,14.657 877,14.5C 879.346,14.9902 881.513,15.6568 883.5,16.5 Z"/></g>
<g><path style="opacity:0.702" fill="#8c8c8c" d="M 955.5,16.5 C 950.77,16.2834 946.103,16.6167 941.5,17.5C 943.428,15.8875 945.762,14.8875 948.5,14.5C 950.982,15.0671 953.316,15.7337 955.5,16.5 Z"/></g>
<g><path style="opacity:1" fill="#111111" d="M 799.5,16.5 C 803.833,16.5 808.167,16.5 812.5,16.5C 812.833,16.5 813.167,16.5 813.5,16.5C 814.806,17.4674 815.473,18.8007 815.5,20.5C 790.581,58.6716 765.914,97.0049 741.5,135.5C 740.5,135.833 739.833,136.5 739.5,137.5C 738.942,138.79 737.942,139.623 736.5,140C 733.167,140.833 729.833,141.667 726.5,142.5C 724.829,142.332 723.496,141.665 722.5,140.5C 722.572,136.374 723.239,132.374 724.5,128.5C 725.992,124.182 727.992,120.182 730.5,116.5C 731.906,116.027 732.573,115.027 732.5,113.5C 732.328,112.508 732.662,111.842 733.5,111.5C 734.906,111.027 735.573,110.027 735.5,108.5C 735.328,107.508 735.662,106.842 736.5,106.5C 737.906,106.027 738.573,105.027 738.5,103.5C 739.906,103.027 740.573,102.027 740.5,100.5C 740.328,99.5084 740.662,98.8417 741.5,98.5C 742.906,98.0269 743.573,97.0269 743.5,95.5C 743.328,94.5084 743.662,93.8417 744.5,93.5C 745.906,93.0269 746.573,92.0269 746.5,90.5C 747.906,90.0269 748.573,89.0269 748.5,87.5C 749.906,87.0269 750.573,86.0269 750.5,84.5C 751.906,84.0269 752.573,83.0269 752.5,81.5C 752.328,80.5084 752.662,79.8417 753.5,79.5C 755.262,78.7377 756.262,77.4044 756.5,75.5C 757.906,75.0269 758.573,74.0269 758.5,72.5C 758.328,71.5084 758.662,70.8417 759.5,70.5C 761.262,69.7377 762.262,68.4044 762.5,66.5C 762.328,65.5084 762.662,64.8417 763.5,64.5C 764.906,64.0269 765.573,63.0269 765.5,61.5C 766.906,61.0269 767.573,60.0269 767.5,58.5C 769.262,57.7377 770.262,56.4044 770.5,54.5C 771.906,54.0269 772.573,53.0269 772.5,51.5C 773.906,51.0269 774.573,50.0269 774.5,48.5C 776.262,47.7377 777.262,46.4044 777.5,44.5C 778.906,44.0269 779.573,43.0269 779.5,41.5C 780.906,41.0269 781.573,40.0269 781.5,38.5C 783.262,37.7377 784.262,36.4044 784.5,34.5C 786.016,31.4669 788.016,28.8003 790.5,26.5C 791.906,26.0269 792.573,25.0269 792.5,23.5C 792.833,22.5 793.5,21.8333 794.5,21.5C 796.5,20.1667 798.167,18.5 799.5,16.5 Z"/></g>
<g><path style="opacity:1" fill="#101010" d="M 883.5,16.5 C 884.5,16.5 885.5,16.5 886.5,16.5C 887.234,17.7079 887.567,19.0413 887.5,20.5C 880.402,31.7089 873.068,42.7089 865.5,53.5C 864.094,53.9731 863.427,54.9731 863.5,56.5C 846.829,82.6828 830.329,109.016 814,135.5C 809.6,139.779 804.267,142.112 798,142.5C 796.301,142.613 795.134,141.947 794.5,140.5C 794.616,137.14 794.949,133.807 795.5,130.5C 795.557,129.391 795.89,128.391 796.5,127.5C 797.906,127.027 798.573,126.027 798.5,124.5C 798.5,124.167 798.5,123.833 798.5,123.5C 799.906,123.027 800.573,122.027 800.5,120.5C 800.5,120.167 800.5,119.833 800.5,119.5C 801.906,119.027 802.573,118.027 802.5,116.5C 802.328,115.508 802.662,114.842 803.5,114.5C 804.906,114.027 805.573,113.027 805.5,111.5C 805.328,110.508 805.662,109.842 806.5,109.5C 807.906,109.027 808.573,108.027 808.5,106.5C 808.328,105.508 808.662,104.842 809.5,104.5C 810.906,104.027 811.573,103.027 811.5,101.5C 812.906,101.027 813.573,100.027 813.5,98.5C 813.328,97.5084 813.662,96.8417 814.5,96.5C 815.906,96.0269 816.573,95.0269 816.5,93.5C 817.906,93.0269 818.573,92.0269 818.5,90.5C 818.328,89.5084 818.662,88.8417 819.5,88.5C 821.262,87.7377 822.262,86.4044 822.5,84.5C 822.328,83.5084 822.662,82.8417 823.5,82.5C 824.906,82.0269 825.573,81.0269 825.5,79.5C 826.906,79.0269 827.573,78.0269 827.5,76.5C 828.906,76.0269 829.573,75.0269 829.5,73.5C 830.906,73.0269 831.573,72.0269 831.5,70.5C 832.906,70.0269 833.573,69.0269 833.5,67.5C 834.906,67.0269 835.573,66.0269 835.5,64.5C 836.906,64.0269 837.573,63.0269 837.5,61.5C 838.906,61.0269 839.573,60.0269 839.5,58.5C 840.906,58.0269 841.573,57.0269 841.5,55.5C 842.906,55.0269 843.573,54.0269 843.5,52.5C 845.262,51.7377 846.262,50.4044 846.5,48.5C 846.328,47.5084 846.662,46.8417 847.5,46.5C 849.262,45.7377 850.262,44.4044 850.5,42.5C 851.906,42.0269 852.573,41.0269 852.5,39.5C 854.262,38.7377 855.262,37.4044 855.5,35.5C 857.262,34.7377 858.262,33.4044 858.5,31.5C 860.262,30.7377 861.262,29.4044 861.5,27.5C 862.906,27.0269 863.573,26.0269 863.5,24.5C 863.833,23.5 864.5,22.8333 865.5,22.5C 867.63,20.8729 869.63,19.0396 871.5,17C 875.486,16.5012 879.486,16.3345 883.5,16.5 Z"/></g>
<g><path style="opacity:1" fill="#121212" d="M 955.5,16.5 C 956.5,16.5 957.5,16.5 958.5,16.5C 959.234,17.7079 959.567,19.0413 959.5,20.5C 934.04,58.1457 909.54,96.4791 886,135.5C 881.6,139.779 876.267,142.112 870,142.5C 868.301,142.613 867.134,141.947 866.5,140.5C 866.552,136.802 866.886,133.135 867.5,129.5C 868.659,125.849 870.326,122.515 872.5,119.5C 873.906,119.027 874.573,118.027 874.5,116.5C 874.66,114.847 875.326,113.514 876.5,112.5C 877.906,112.027 878.573,111.027 878.5,109.5C 878.328,108.508 878.662,107.842 879.5,107.5C 880.906,107.027 881.573,106.027 881.5,104.5C 881.328,103.508 881.662,102.842 882.5,102.5C 883.906,102.027 884.573,101.027 884.5,99.5C 885.906,99.0269 886.573,98.0269 886.5,96.5C 887.906,96.0269 888.573,95.0269 888.5,93.5C 888.328,92.5084 888.662,91.8417 889.5,91.5C 890.906,91.0269 891.573,90.0269 891.5,88.5C 892.906,88.0269 893.573,87.0269 893.5,85.5C 894.906,85.0269 895.573,84.0269 895.5,82.5C 896.906,82.0269 897.573,81.0269 897.5,79.5C 897.328,78.5084 897.662,77.8417 898.5,77.5C 899.906,77.0269 900.573,76.0269 900.5,74.5C 902.262,73.7377 903.262,72.4044 903.5,70.5C 903.328,69.5084 903.662,68.8417 904.5,68.5C 905.906,68.0269 906.573,67.0269 906.5,65.5C 907.906,65.0269 908.573,64.0269 908.5,62.5C 909.906,62.0269 910.573,61.0269 910.5,59.5C 911.906,59.0269 912.573,58.0269 912.5,56.5C 914.262,55.7377 915.262,54.4044 915.5,52.5C 916.906,52.0269 917.573,51.0269 917.5,49.5C 918.906,49.0269 919.573,48.0269 919.5,46.5C 921.262,45.7377 922.262,44.4044 922.5,42.5C 923.906,42.0269 924.573,41.0269 924.5,39.5C 926.262,38.7377 927.262,37.4044 927.5,35.5C 928.906,35.0269 929.573,34.0269 929.5,32.5C 931.262,31.7377 932.262,30.4044 932.5,28.5C 934.587,27.4154 935.92,25.7488 936.5,23.5C 938.262,22.7377 939.262,21.4044 939.5,19.5C 939.833,18.5 940.5,17.8333 941.5,17.5C 946.103,16.6167 950.77,16.2834 955.5,16.5 Z"/></g>
<g><path style="opacity:0.443" fill="#a4a4a4" d="M 813.5,16.5 C 814.5,16.5 815.5,16.5 816.5,16.5C 816.768,18.099 816.434,19.4324 815.5,20.5C 815.473,18.8007 814.806,17.4674 813.5,16.5 Z"/></g>
<g><path style="opacity:0.651" fill="#919191" d="M 799.5,16.5 C 798.167,18.5 796.5,20.1667 794.5,21.5C 795.167,18.8333 796.833,17.1667 799.5,16.5 Z"/></g>
<g><path style="opacity:0.329" fill="#c5c5c5" d="M 886.5,16.5 C 887.586,16.62 888.253,17.2867 888.5,18.5C 888.457,19.4164 888.124,20.0831 887.5,20.5C 887.567,19.0413 887.234,17.7079 886.5,16.5 Z"/></g>
<g><path style="opacity:0.184" fill="#dddddd" d="M 958.5,16.5 C 959.586,16.62 960.253,17.2867 960.5,18.5C 960.457,19.4164 960.124,20.0831 959.5,20.5C 959.567,19.0413 959.234,17.7079 958.5,16.5 Z"/></g>
<g><path style="opacity:0.094" fill="#d8d8d8" d="M 229.5,20.5 C 231.304,19.838 233.304,19.5046 235.5,19.5C 238.814,19.3425 241.814,20.0092 244.5,21.5C 239.537,20.746 234.537,20.4126 229.5,20.5 Z"/></g>
<g><path style="opacity:1" fill="#0f0f0f" d="M 228.5,20.5 C 228.833,20.5 229.167,20.5 229.5,20.5C 234.537,20.4126 239.537,20.746 244.5,21.5C 246.933,21.2729 248.599,22.2729 249.5,24.5C 249.427,26.0269 250.094,27.0269 251.5,27.5C 254.037,30.6942 254.87,34.3609 254,38.5C 252.862,43.4426 250.695,47.7759 247.5,51.5C 246.094,51.9731 245.427,52.9731 245.5,54.5C 244.833,55.8333 243.833,56.8333 242.5,57.5C 241.094,57.9731 240.427,58.9731 240.5,60.5C 232.535,69.1394 223.202,75.806 212.5,80.5C 208.227,80.919 204.227,80.2524 200.5,78.5C 198.738,77.7377 197.738,76.4044 197.5,74.5C 197.336,71.8127 197.503,69.146 198,66.5C 199.622,65.9011 201.122,65.2344 202.5,64.5C 204.517,63.4706 206.517,62.4706 208.5,61.5C 210.404,61.2624 211.738,60.2624 212.5,58.5C 214.749,57.9202 216.415,56.5869 217.5,54.5C 221.1,52.5698 224.1,49.9031 226.5,46.5C 228.914,45.0892 230.581,43.0892 231.5,40.5C 231.167,39.5 230.5,38.8333 229.5,38.5C 227.102,38.2594 225.102,38.9261 223.5,40.5C 219.524,43.4686 215.524,46.4686 211.5,49.5C 209.973,49.427 208.973,50.0937 208.5,51.5C 206.5,54.1667 204.167,56.5 201.5,58.5C 200.094,58.9731 199.427,59.9731 199.5,61.5C 198.833,62.5 198.167,63.5 197.5,64.5C 196.833,64.5 196.5,64.8333 196.5,65.5C 188.785,74.5463 181.452,83.8796 174.5,93.5C 173.094,93.9731 172.427,94.9731 172.5,96.5C 161.562,114.058 149.895,131.058 137.5,147.5C 136.957,147.56 136.624,147.893 136.5,148.5C 137.325,149.386 138.325,149.719 139.5,149.5C 145.299,150.367 150.966,151.7 156.5,153.5C 158.515,154.924 160.848,155.59 163.5,155.5C 164.167,155.5 164.833,155.5 165.5,155.5C 167.515,156.924 169.848,157.59 172.5,157.5C 178.618,157.991 184.618,158.991 190.5,160.5C 194.545,162.177 198.878,162.844 203.5,162.5C 209.833,162.5 216.167,162.5 222.5,162.5C 223.657,159.727 224.324,156.727 224.5,153.5C 225.906,153.027 226.573,152.027 226.5,150.5C 228.5,149.167 230.167,147.5 231.5,145.5C 231.973,144.094 232.973,143.427 234.5,143.5C 236.027,143.573 237.027,142.906 237.5,141.5C 237.842,140.662 238.508,140.328 239.5,140.5C 244.025,140.041 244.358,139.041 240.5,137.5C 240.167,136.5 239.5,135.833 238.5,135.5C 237.596,134.791 237.263,133.791 237.5,132.5C 237.437,127.797 237.771,123.13 238.5,118.5C 238.328,117.508 238.662,116.842 239.5,116.5C 241.262,115.738 242.262,114.404 242.5,112.5C 242.833,111.5 243.5,110.833 244.5,110.5C 245.833,109.833 246.833,108.833 247.5,107.5C 249.443,104.529 252.109,102.529 255.5,101.5C 257.027,101.573 258.027,100.906 258.5,99.5C 266.765,94.5462 275.765,91.5462 285.5,90.5C 289.198,90.5524 292.865,90.8857 296.5,91.5C 297.791,91.2627 298.791,91.596 299.5,92.5C 300.379,94.228 301.046,96.0614 301.5,98C 300.923,100.137 300.59,102.304 300.5,104.5C 295.681,113.428 288.681,116.428 279.5,113.5C 279.5,111.5 279.5,109.5 279.5,107.5C 278.209,107.263 277.209,107.596 276.5,108.5C 269.838,112.826 263.172,117.159 256.5,121.5C 255.5,121.833 254.833,122.5 254.5,123.5C 254.672,124.492 254.338,125.158 253.5,125.5C 252.26,127.314 252.927,128.314 255.5,128.5C 257.422,128.199 259.088,127.533 260.5,126.5C 265.523,125.31 270.523,125.31 275.5,126.5C 276.265,129.096 276.599,131.763 276.5,134.5C 265.069,140.385 254.069,147.052 243.5,154.5C 242.094,154.973 241.427,155.973 241.5,157.5C 241.731,160.588 243.064,162.921 245.5,164.5C 245.918,165.222 246.584,165.722 247.5,166C 251.821,166.499 256.154,166.666 260.5,166.5C 263.272,166.241 265.605,165.241 267.5,163.5C 268.209,162.596 269.209,162.263 270.5,162.5C 272.027,162.573 273.027,161.906 273.5,160.5C 277.223,157.449 281.223,154.782 285.5,152.5C 287.749,151.92 289.415,150.587 290.5,148.5C 292.74,146.034 295.407,144.034 298.5,142.5C 299.107,142.624 299.44,142.957 299.5,143.5C 299.56,144.043 299.893,144.376 300.5,144.5C 301.386,143.675 301.719,142.675 301.5,141.5C 304.046,134.077 307.379,127.077 311.5,120.5C 312.906,120.027 313.573,119.027 313.5,117.5C 313.66,115.847 314.326,114.514 315.5,113.5C 316.906,113.027 317.573,112.027 317.5,110.5C 317.328,109.508 317.662,108.842 318.5,108.5C 319.906,108.027 320.573,107.027 320.5,105.5C 320.66,103.847 321.326,102.514 322.5,101.5C 323.906,101.027 324.573,100.027 324.5,98.5C 324.328,97.5084 324.662,96.8417 325.5,96.5C 326.906,96.0269 327.573,95.0269 327.5,93.5C 327.328,92.5084 327.662,91.8417 328.5,91.5C 329.906,91.0269 330.573,90.0269 330.5,88.5C 331.906,88.0269 332.573,87.0269 332.5,85.5C 332.328,84.5084 332.662,83.8417 333.5,83.5C 334.837,82.6851 335.837,81.5185 336.5,80C 331.978,79.7745 327.645,80.2745 323.5,81.5C 318.12,83.1629 313.12,82.4963 308.5,79.5C 308.5,77.8333 308.5,76.1667 308.5,74.5C 310.262,73.7377 311.262,72.4044 311.5,70.5C 313.167,69.5 314.5,68.1667 315.5,66.5C 315.842,65.6618 316.508,65.3284 317.5,65.5C 319.027,65.573 320.027,64.9063 320.5,63.5C 330.229,63.4775 339.562,62.4775 348.5,60.5C 350.262,59.7377 351.262,58.4044 351.5,56.5C 352.906,56.0269 353.573,55.0269 353.5,53.5C 354.906,53.0269 355.573,52.0269 355.5,50.5C 357.262,49.7377 358.262,48.4044 358.5,46.5C 360.587,45.4154 361.92,43.7488 362.5,41.5C 366.015,40.0807 369.681,39.414 373.5,39.5C 375.099,39.2322 376.432,39.5655 377.5,40.5C 377.5,42.1667 377.5,43.8333 377.5,45.5C 375.582,50.3434 372.916,54.6767 369.5,58.5C 368.733,59.172 368.066,60.0053 367.5,61C 371.835,61.2632 376.168,61.0965 380.5,60.5C 382.302,61.4582 384.302,62.1249 386.5,62.5C 387.08,64.7488 388.413,66.4154 390.5,67.5C 392.377,68.6591 392.877,70.3258 392,72.5C 390.421,74.0412 388.587,75.2078 386.5,76C 375.936,77.3822 365.436,78.8822 355,80.5C 340.855,103.124 328.022,126.458 316.5,150.5C 314.735,153.123 314.068,156.123 314.5,159.5C 314.962,162.112 316.462,163.779 319,164.5C 322.576,163.292 326.076,161.959 329.5,160.5C 331.027,160.573 332.027,159.906 332.5,158.5C 334.404,158.262 335.738,157.262 336.5,155.5C 339.764,153.906 342.431,151.573 344.5,148.5C 347.089,147.581 349.089,145.914 350.5,143.5C 351.189,142.226 352.023,142.226 353,143.5C 354.228,149.434 355.895,155.101 358,160.5C 359.145,161.636 360.312,162.636 361.5,163.5C 362.622,164.156 363.955,164.489 365.5,164.5C 369.5,164 373.5,163.5 377.5,163C 380.666,162.678 383.333,161.511 385.5,159.5C 386.93,158.463 388.597,157.796 390.5,157.5C 392.833,157.167 394.167,155.833 394.5,153.5C 394.229,151.57 393.229,150.236 391.5,149.5C 388.619,147.32 385.286,146.32 381.5,146.5C 378.012,146.46 374.679,145.793 371.5,144.5C 369.898,142.926 367.898,142.259 365.5,142.5C 365.167,142.5 364.833,142.5 364.5,142.5C 363.365,140.787 361.698,140.12 359.5,140.5C 358.738,138.738 357.404,137.738 355.5,137.5C 355.144,135.81 354.144,134.81 352.5,134.5C 351.596,133.791 351.263,132.791 351.5,131.5C 351.646,127.481 351.979,123.481 352.5,119.5C 352.328,118.508 352.662,117.842 353.5,117.5C 354.906,117.027 355.573,116.027 355.5,114.5C 357.587,113.415 358.92,111.749 359.5,109.5C 359.833,108.5 360.5,107.833 361.5,107.5C 363.749,106.92 365.415,105.587 366.5,103.5C 368.027,103.573 369.027,102.906 369.5,101.5C 371.027,101.573 372.027,100.906 372.5,99.5C 377.746,96.0448 383.413,93.3782 389.5,91.5C 391.698,91.8799 393.365,91.2132 394.5,89.5C 394.833,89.5 395.167,89.5 395.5,89.5C 398.152,89.5905 400.485,88.9238 402.5,87.5C 410.845,86.2437 419.178,86.2437 427.5,87.5C 428.492,87.3284 429.158,87.6618 429.5,88.5C 429.427,90.0269 430.094,91.0269 431.5,91.5C 433.92,101.793 429.92,108.46 419.5,111.5C 416.214,112.207 412.881,112.54 409.5,112.5C 409.027,111.094 408.027,110.427 406.5,110.5C 405.113,108.511 405.447,106.678 407.5,105C 395.941,105.443 385.607,109.276 376.5,116.5C 374.973,116.427 373.973,117.094 373.5,118.5C 371.856,120.481 370.19,122.481 368.5,124.5C 370.577,126.082 372.91,127.082 375.5,127.5C 377.838,129.04 380.505,129.706 383.5,129.5C 391.422,130.307 398.755,132.641 405.5,136.5C 406.035,138.446 407.368,139.446 409.5,139.5C 409.738,141.404 410.738,142.738 412.5,143.5C 413.338,143.842 413.672,144.508 413.5,145.5C 413.5,148.5 413.5,151.5 413.5,154.5C 413.598,156.553 412.931,158.22 411.5,159.5C 410.094,159.973 409.427,160.973 409.5,162.5C 399.668,172.584 387.668,178.751 373.5,181C 367.651,181.818 361.985,181.652 356.5,180.5C 354.485,179.076 352.152,178.41 349.5,178.5C 349.027,177.094 348.027,176.427 346.5,176.5C 344.738,175.738 343.738,174.404 343.5,172.5C 343.785,170.712 343.452,169.045 342.5,167.5C 341.478,167.855 340.811,168.522 340.5,169.5C 335.533,174.789 329.533,178.455 322.5,180.5C 317.463,180.587 312.463,180.254 307.5,179.5C 305.847,179.34 304.514,178.674 303.5,177.5C 302.738,175.738 301.404,174.738 299.5,174.5C 297.722,172.171 296.722,169.504 296.5,166.5C 296.657,165.127 296.49,163.793 296,162.5C 295.283,163.044 294.783,163.711 294.5,164.5C 282.462,174.847 268.462,180.847 252.5,182.5C 247.066,181.892 241.732,180.892 236.5,179.5C 236.027,178.094 235.027,177.427 233.5,177.5C 232.508,177.672 231.842,177.338 231.5,176.5C 230.738,174.738 229.404,173.738 227.5,173.5C 219.813,179.632 210.98,181.965 201,180.5C 188.447,180.662 176.28,178.995 164.5,175.5C 160.8,173.719 156.8,172.719 152.5,172.5C 152.167,172.5 151.833,172.5 151.5,172.5C 149.898,170.926 147.898,170.259 145.5,170.5C 145.167,170.5 144.833,170.5 144.5,170.5C 142.898,168.926 140.898,168.259 138.5,168.5C 138.167,168.5 137.833,168.5 137.5,168.5C 134.619,166.32 131.286,165.32 127.5,165.5C 127.167,165.5 126.833,165.5 126.5,165.5C 125.295,163.862 123.962,163.529 122.5,164.5C 117.646,169.341 111.98,173.007 105.5,175.5C 103.447,175.402 101.78,176.069 100.5,177.5C 88.1148,182.575 75.4482,183.575 62.5,180.5C 60.8984,178.926 58.8984,178.259 56.5,178.5C 56.0269,177.094 55.0269,176.427 53.5,176.5C 53.0269,175.094 52.0269,174.427 50.5,174.5C 49.6618,174.158 49.3284,173.492 49.5,172.5C 47.8754,166.969 47.2087,161.303 47.5,155.5C 47.8449,152.802 49.1782,150.802 51.5,149.5C 53.7488,148.92 55.4154,147.587 56.5,145.5C 56.8417,144.662 57.5084,144.328 58.5,144.5C 63.4385,143.769 68.1051,142.435 72.5,140.5C 72.8333,140.5 73.1667,140.5 73.5,140.5C 83.521,140.371 93.521,140.704 103.5,141.5C 103.833,141.5 104.167,141.5 104.5,141.5C 107.273,142.657 110.273,143.324 113.5,143.5C 114.5,142.833 115.5,142.167 116.5,141.5C 118.587,140.415 119.92,138.749 120.5,136.5C 122.262,135.738 123.262,134.404 123.5,132.5C 125.262,131.738 126.262,130.404 126.5,128.5C 127.906,128.027 128.573,127.027 128.5,125.5C 129.906,125.027 130.573,124.027 130.5,122.5C 131.906,122.027 132.573,121.027 132.5,119.5C 133.906,119.027 134.573,118.027 134.5,116.5C 135.906,116.027 136.573,115.027 136.5,113.5C 137.906,113.027 138.573,112.027 138.5,110.5C 139.906,110.027 140.573,109.027 140.5,107.5C 140.328,106.508 140.662,105.842 141.5,105.5C 142.906,105.027 143.573,104.027 143.5,102.5C 144.906,102.027 145.573,101.027 145.5,99.5C 146.906,99.0269 147.573,98.0269 147.5,96.5C 148.906,96.0269 149.573,95.0269 149.5,93.5C 150.906,93.0269 151.573,92.0269 151.5,90.5C 152.906,90.0269 153.573,89.0269 153.5,87.5C 154.906,87.0269 155.573,86.0269 155.5,84.5C 156.906,84.0269 157.573,83.0269 157.5,81.5C 159.262,80.7377 160.262,79.4044 160.5,77.5C 162.262,76.7377 163.262,75.4044 163.5,73.5C 165.262,72.7377 166.262,71.4044 166.5,69.5C 168.587,68.4154 169.92,66.7488 170.5,64.5C 172.262,63.7377 173.262,62.4044 173.5,60.5C 173.833,59.5 174.5,58.8333 175.5,58.5C 177.262,57.7377 178.262,56.4044 178.5,54.5C 181.5,50.8333 184.833,47.5 188.5,44.5C 192.436,42.2343 195.769,39.2343 198.5,35.5C 200.404,35.2624 201.738,34.2624 202.5,32.5C 202.973,31.0937 203.973,30.427 205.5,30.5C 207.027,30.573 208.027,29.9063 208.5,28.5C 210.027,28.573 211.027,27.9063 211.5,26.5C 212.514,25.3263 213.847,24.6596 215.5,24.5C 217.698,24.8799 219.365,24.2132 220.5,22.5C 220.833,22.5 221.167,22.5 221.5,22.5C 224.152,22.5905 226.485,21.9238 228.5,20.5 Z M 229.5,38.5 C 230.5,38.8333 231.167,39.5 231.5,40.5C 229.086,41.9108 227.419,43.9108 226.5,46.5C 222.9,48.4302 219.9,51.0969 217.5,54.5C 215.251,55.0798 213.585,56.4131 212.5,58.5C 210.596,58.7376 209.262,59.7376 208.5,61.5C 206.517,62.4706 204.517,63.4706 202.5,64.5C 200.833,64.5 199.167,64.5 197.5,64.5C 198.167,63.5 198.833,62.5 199.5,61.5C 200.906,61.0269 201.573,60.0269 201.5,58.5C 204.167,56.5 206.5,54.1667 208.5,51.5C 210.027,51.573 211.027,50.9063 211.5,49.5C 215.524,46.4686 219.524,43.4686 223.5,40.5C 225.786,40.405 227.786,39.7384 229.5,38.5 Z M 84.5,157.5 C 87.8333,158.167 91.1667,158.833 94.5,159.5C 91.341,160.331 88.341,161.331 85.5,162.5C 80.8215,162.666 76.1548,162.499 71.5,162C 70.1667,161 70.1667,160 71.5,159C 75.882,158.708 80.2153,158.208 84.5,157.5 Z"/></g>
<g><path style="opacity:0.733" fill="#8e8e8e" d="M 939.5,19.5 C 939.262,21.4044 938.262,22.7377 936.5,23.5C 936.738,21.5956 937.738,20.2623 939.5,19.5 Z"/></g>
<g><path style="opacity:0.808" fill="#818181" d="M 228.5,20.5 C 226.485,21.9238 224.152,22.5905 221.5,22.5C 223.515,21.0762 225.848,20.4095 228.5,20.5 Z"/></g>
<g><path style="opacity:1" fill="#101010" d="M 643.5,28.5 C 643.427,30.0269 644.094,31.0269 645.5,31.5C 646.292,37.1302 646.625,42.7969 646.5,48.5C 643.211,55.3046 638.544,61.1379 632.5,66C 625.275,72.1126 617.275,76.9459 608.5,80.5C 607.244,80.4614 606.244,80.9614 605.5,82C 608.146,82.4974 610.813,82.6641 613.5,82.5C 614.791,82.2627 615.791,82.596 616.5,83.5C 617.038,85.1172 617.371,86.7839 617.5,88.5C 614.641,92.8784 611.308,96.8784 607.5,100.5C 606.094,100.973 605.427,101.973 605.5,103.5C 598.846,112.151 591.846,120.484 584.5,128.5C 583.094,128.973 582.427,129.973 582.5,131.5C 577.087,138.24 572.087,145.24 567.5,152.5C 566.833,152.5 566.5,152.833 566.5,153.5C 565.833,153.5 565.5,153.833 565.5,154.5C 565.167,154.5 564.833,154.5 564.5,154.5C 563.404,156.103 562.07,157.603 560.5,159C 562.772,158.923 564.438,157.757 565.5,155.5C 568.089,154.581 570.089,152.914 571.5,150.5C 574.764,148.906 577.431,146.573 579.5,143.5C 581.027,143.573 582.027,142.906 582.5,141.5C 586.3,139.484 590.3,139.151 594.5,140.5C 595.038,142.117 595.371,143.784 595.5,145.5C 574.42,163.543 552.753,180.877 530.5,197.5C 529.5,197.833 528.833,198.5 528.5,199.5C 524.227,205.442 519.227,210.776 513.5,215.5C 512.5,215.833 511.833,216.5 511.5,217.5C 510.094,217.973 509.427,218.973 509.5,220.5C 505.623,225.543 500.957,229.71 495.5,233C 490.639,235.033 485.973,234.866 481.5,232.5C 481.027,231.094 480.027,230.427 478.5,230.5C 477.004,226.822 477.671,223.489 480.5,220.5C 481.906,220.027 482.573,219.027 482.5,217.5C 484.587,216.415 485.92,214.749 486.5,212.5C 487.5,210.833 488.833,209.5 490.5,208.5C 493.764,206.906 496.431,204.573 498.5,201.5C 501.089,200.581 503.089,198.914 504.5,196.5C 506.749,195.92 508.415,194.587 509.5,192.5C 511.749,191.92 513.415,190.587 514.5,188.5C 515.167,187.167 516.167,186.167 517.5,185.5C 520.573,183.431 522.906,180.764 524.5,177.5C 525.5,175.833 526.833,174.5 528.5,173.5C 531.573,171.431 533.906,168.764 535.5,165.5C 536.833,163.5 538.5,161.833 540.5,160.5C 542.914,159.089 544.581,157.089 545.5,154.5C 546.5,152.833 547.833,151.5 549.5,150.5C 551.914,149.089 553.581,147.089 554.5,144.5C 554.833,143.5 555.5,142.833 556.5,142.5C 558.262,141.738 559.262,140.404 559.5,138.5C 562.073,137.121 563.573,135.121 564,132.5C 562.293,134.037 560.793,135.704 559.5,137.5C 558.833,137.5 558.5,137.833 558.5,138.5C 557.833,138.5 557.5,138.833 557.5,139.5C 556.833,139.5 556.5,139.833 556.5,140.5C 543.206,152.822 528.206,162.655 511.5,170C 509.187,170.662 506.854,171.162 504.5,171.5C 499.5,171.5 494.5,171.5 489.5,171.5C 487.326,171.25 485.659,170.25 484.5,168.5C 483.118,166.451 481.452,164.785 479.5,163.5C 476.706,158.827 475.372,153.66 475.5,148C 475.379,144.218 476.046,140.718 477.5,137.5C 479.277,134.495 480.277,131.162 480.5,127.5C 482.044,122.081 484.378,117.081 487.5,112.5C 488.906,112.027 489.573,111.027 489.5,109.5C 490.906,109.027 491.573,108.027 491.5,106.5C 492.906,106.027 493.573,105.027 493.5,103.5C 494.906,103.027 495.573,102.027 495.5,100.5C 497.016,97.4669 499.016,94.8003 501.5,92.5C 503.587,91.4154 504.92,89.7488 505.5,87.5C 505.833,86.5 506.5,85.8333 507.5,85.5C 509.914,84.0892 511.581,82.0892 512.5,79.5C 517.105,76.5643 521.105,72.8976 524.5,68.5C 527.089,67.5806 529.089,65.914 530.5,63.5C 533.089,62.5806 535.089,60.914 536.5,58.5C 538.749,57.9202 540.415,56.5869 541.5,54.5C 543.027,54.573 544.027,53.9063 544.5,52.5C 546.404,52.2624 547.738,51.2624 548.5,49.5C 550.027,49.573 551.027,48.9063 551.5,47.5C 553.027,47.573 554.027,46.9063 554.5,45.5C 554.842,44.6618 555.508,44.3284 556.5,44.5C 558.027,44.573 559.027,43.9063 559.5,42.5C 559.842,41.6618 560.508,41.3284 561.5,41.5C 563.027,41.573 564.027,40.9063 564.5,39.5C 571.288,35.1082 578.622,31.7748 586.5,29.5C 588.698,29.8799 590.365,29.2132 591.5,27.5C 594.228,27.8294 596.562,27.1628 598.5,25.5C 609.443,21.8734 620.777,20.7068 632.5,22C 637.223,22.6832 640.89,24.8499 643.5,28.5 Z M 623.5,36.5 C 625.042,37.3007 626.708,37.634 628.5,37.5C 629.301,39.0418 629.634,40.7085 629.5,42.5C 628.18,44.4632 626.846,46.4632 625.5,48.5C 623.167,50.1667 621.167,52.1667 619.5,54.5C 617.596,54.7376 616.262,55.7376 615.5,57.5C 613.973,57.427 612.973,58.0937 612.5,59.5C 608,61.5826 603.666,63.9159 599.5,66.5C 594.976,68.1308 590.309,69.1308 585.5,69.5C 585.539,68.4168 585.873,67.4168 586.5,66.5C 584.701,65.2121 583.035,65.2121 581.5,66.5C 575.249,69.9774 573.249,74.9774 575.5,81.5C 575.5,82.8333 576.167,83.5 577.5,83.5C 578.659,85.2503 580.326,86.2503 582.5,86.5C 583.964,87.1599 585.631,87.4932 587.5,87.5C 590.486,87.6183 593.152,86.9517 595.5,85.5C 596.492,85.3284 597.158,85.6618 597.5,86.5C 594.167,89.1667 591.167,92.1667 588.5,95.5C 587.833,95.5 587.5,95.8333 587.5,96.5C 584.236,98.0941 581.569,100.427 579.5,103.5C 576.911,104.419 574.911,106.086 573.5,108.5C 571.251,109.08 569.585,110.413 568.5,112.5C 567.5,112.833 566.833,113.5 566.5,114.5C 564.251,115.08 562.585,116.413 561.5,118.5C 559.251,119.08 557.585,120.413 556.5,122.5C 554.596,122.738 553.262,123.738 552.5,125.5C 550.596,125.738 549.262,126.738 548.5,128.5C 546.596,128.738 545.262,129.738 544.5,131.5C 542.973,131.427 541.973,132.094 541.5,133.5C 539.596,133.738 538.262,134.738 537.5,136.5C 535.566,137.11 533.899,138.11 532.5,139.5C 530.973,139.427 529.973,140.094 529.5,141.5C 527.973,141.427 526.973,142.094 526.5,143.5C 524.181,143.992 522.181,144.992 520.5,146.5C 518.973,146.427 517.973,147.094 517.5,148.5C 516.209,148.263 515.209,148.596 514.5,149.5C 512.597,149.796 510.93,150.463 509.5,151.5C 498.416,154.96 493.75,150.96 495.5,139.5C 496.738,137.786 497.405,135.786 497.5,133.5C 498.931,132.22 499.598,130.553 499.5,128.5C 502.819,123.203 506.153,117.869 509.5,112.5C 510.906,112.027 511.573,111.027 511.5,109.5C 512.167,109.5 512.5,109.167 512.5,108.5C 513.906,108.027 514.573,107.027 514.5,105.5C 524.5,94.8333 534.833,84.5 545.5,74.5C 547.027,74.573 548.027,73.9063 548.5,72.5C 562.81,61.1867 578.143,51.5201 594.5,43.5C 596.553,43.5979 598.22,42.9313 599.5,41.5C 603.239,40.6972 606.905,39.6972 610.5,38.5C 615.01,38.1156 619.343,37.4489 623.5,36.5 Z"/></g>
<g><path style="opacity:0.859" fill="#7f7f7f" d="M 220.5,22.5 C 219.365,24.2132 217.698,24.8799 215.5,24.5C 216.93,23.4625 218.597,22.7959 220.5,22.5 Z"/></g>
<g><path style="opacity:0.698" fill="#909090" d="M 792.5,23.5 C 792.573,25.0269 791.906,26.0269 790.5,26.5C 790.427,24.9731 791.094,23.9731 792.5,23.5 Z"/></g>
<g><path style="opacity:0.506" fill="#949494" d="M 249.5,24.5 C 250.906,24.9731 251.573,25.9731 251.5,27.5C 250.094,27.0269 249.427,26.0269 249.5,24.5 Z"/></g>
<g><path style="opacity:0.851" fill="#7f7f7f" d="M 598.5,25.5 C 596.562,27.1628 594.228,27.8294 591.5,27.5C 593.599,26.3882 595.933,25.7215 598.5,25.5 Z"/></g>
<g><path style="opacity:0.478" fill="#9b9b9b" d="M 863.5,24.5 C 863.573,26.0269 862.906,27.0269 861.5,27.5C 861.427,25.9731 862.094,24.9731 863.5,24.5 Z"/></g>
<g><path style="opacity:0.682" fill="#919191" d="M 211.5,26.5 C 211.027,27.9063 210.027,28.573 208.5,28.5C 208.973,27.0937 209.973,26.427 211.5,26.5 Z"/></g>
<g><path style="opacity:0.396" fill="#8e8e8e" d="M 936.5,23.5 C 935.92,25.7488 934.587,27.4154 932.5,28.5C 933.08,26.2512 934.413,24.5846 936.5,23.5 Z"/></g>
<g><path style="opacity:0.875" fill="#757575" d="M 591.5,27.5 C 590.365,29.2132 588.698,29.8799 586.5,29.5C 587.93,28.4625 589.597,27.7959 591.5,27.5 Z"/></g>
<g><path style="opacity:0.863" fill="#787878" d="M 861.5,27.5 C 861.262,29.4044 860.262,30.7377 858.5,31.5C 858.738,29.5956 859.738,28.2623 861.5,27.5 Z"/></g>
<g><path style="opacity:0.804" fill="#6e6e6e" d="M 208.5,28.5 C 208.027,29.9063 207.027,30.573 205.5,30.5C 205.973,29.0937 206.973,28.427 208.5,28.5 Z"/></g>
<g><path style="opacity:0.361" fill="#9a9a9a" d="M 643.5,28.5 C 644.906,28.9731 645.573,29.9731 645.5,31.5C 644.094,31.0269 643.427,30.0269 643.5,28.5 Z"/></g>
<g><path style="opacity:0.627" fill="#8a8a8a" d="M 932.5,28.5 C 932.262,30.4044 931.262,31.7377 929.5,32.5C 929.738,30.5956 930.738,29.2623 932.5,28.5 Z"/></g>
<g><path style="opacity:0.718" fill="#757575" d="M 202.5,32.5 C 201.738,34.2624 200.404,35.2624 198.5,35.5C 199.262,33.7376 200.596,32.7376 202.5,32.5 Z"/></g>
<g><path style="opacity:0.667" fill="#828282" d="M 858.5,31.5 C 858.262,33.4044 857.262,34.7377 855.5,35.5C 855.738,33.5956 856.738,32.2623 858.5,31.5 Z"/></g>
<g><path style="opacity:0.569" fill="#858585" d="M 929.5,32.5 C 929.573,34.0269 928.906,35.0269 927.5,35.5C 927.427,33.9731 928.094,32.9731 929.5,32.5 Z"/></g>
<g><path style="opacity:0.667" fill="#808080" d="M 784.5,34.5 C 784.262,36.4044 783.262,37.7377 781.5,38.5C 781.738,36.5956 782.738,35.2623 784.5,34.5 Z"/></g>
<g><path style="opacity:0.027" fill="#cdcdcd" d="M 623.5,36.5 C 619.343,37.4489 615.01,38.1156 610.5,38.5C 611.263,37.7321 612.263,37.2321 613.5,37C 616.817,36.5017 620.15,36.335 623.5,36.5 Z"/></g>
<g><path style="opacity:0.565" fill="#959595" d="M 855.5,35.5 C 855.262,37.4044 854.262,38.7377 852.5,39.5C 852.738,37.5956 853.738,36.2623 855.5,35.5 Z"/></g>
<g><path style="opacity:0.69" fill="#797979" d="M 927.5,35.5 C 927.262,37.4044 926.262,38.7377 924.5,39.5C 924.738,37.5956 925.738,36.2623 927.5,35.5 Z"/></g>
<g><path style="opacity:0.149" fill="#c2c2c2" d="M 229.5,38.5 C 227.786,39.7384 225.786,40.405 223.5,40.5C 225.102,38.9261 227.102,38.2594 229.5,38.5 Z"/></g>
<g><path style="opacity:0.141" fill="#aeaeae" d="M 628.5,37.5 C 629.649,37.7911 630.316,38.6244 630.5,40C 630.472,41.0698 630.139,41.9032 629.5,42.5C 629.634,40.7085 629.301,39.0418 628.5,37.5 Z"/></g>
<g><path style="opacity:0.847" fill="#8c8c8c" d="M 373.5,39.5 C 369.681,39.414 366.015,40.0807 362.5,41.5C 363.347,40.0337 364.68,39.2004 366.5,39C 369.039,38.2042 371.372,38.3709 373.5,39.5 Z"/></g>
<g><path style="opacity:0.729" fill="#848484" d="M 564.5,39.5 C 564.027,40.9063 563.027,41.573 561.5,41.5C 561.973,40.0937 562.973,39.427 564.5,39.5 Z"/></g>
<g><path style="opacity:0.549" fill="#898989" d="M 781.5,38.5 C 781.573,40.0269 780.906,41.0269 779.5,41.5C 779.427,39.9731 780.094,38.9731 781.5,38.5 Z"/></g>
<g><path style="opacity:0.42" fill="#a0a0a0" d="M 852.5,39.5 C 852.573,41.0269 851.906,42.0269 850.5,42.5C 850.427,40.9731 851.094,39.9731 852.5,39.5 Z"/></g>
<g><path style="opacity:0.561" fill="#848484" d="M 924.5,39.5 C 924.573,41.0269 923.906,42.0269 922.5,42.5C 922.427,40.9731 923.094,39.9731 924.5,39.5 Z"/></g>
<g><path style="opacity:0.941" fill="#565656" d="M 198.5,35.5 C 195.769,39.2343 192.436,42.2343 188.5,44.5C 191.231,40.7657 194.564,37.7657 198.5,35.5 Z"/></g>
<g><path style="opacity:0.157" fill="#b9b9b9" d="M 599.5,41.5 C 598.22,42.9313 596.553,43.5979 594.5,43.5C 595.78,42.0687 597.447,41.4021 599.5,41.5 Z"/></g>
<g><path style="opacity:0.78" fill="#6f6f6f" d="M 645.5,31.5 C 647.019,34.5256 647.685,37.8589 647.5,41.5C 647.497,44.0254 647.163,46.3587 646.5,48.5C 646.625,42.7969 646.292,37.1302 645.5,31.5 Z"/></g>
<g><path style="opacity:0.518" fill="#9b9b9b" d="M 377.5,40.5 C 380.167,42.1667 380.167,43.8333 377.5,45.5C 377.5,43.8333 377.5,42.1667 377.5,40.5 Z"/></g>
<g><path style="opacity:0.773" fill="#797979" d="M 559.5,42.5 C 559.027,43.9063 558.027,44.573 556.5,44.5C 556.973,43.0937 557.973,42.427 559.5,42.5 Z"/></g>
<g><path style="opacity:0.635" fill="#747474" d="M 779.5,41.5 C 779.573,43.0269 778.906,44.0269 777.5,44.5C 777.427,42.9731 778.094,41.9731 779.5,41.5 Z"/></g>
<g><path style="opacity:0.592" fill="#979797" d="M 362.5,41.5 C 361.92,43.7488 360.587,45.4154 358.5,46.5C 359.08,44.2512 360.413,42.5846 362.5,41.5 Z"/></g>
<g><path style="opacity:0.514" fill="#9f9f9f" d="M 850.5,42.5 C 850.262,44.4044 849.262,45.7377 847.5,46.5C 847.738,44.5956 848.738,43.2623 850.5,42.5 Z"/></g>
<g><path style="opacity:0.659" fill="#818181" d="M 922.5,42.5 C 922.262,44.4044 921.262,45.7377 919.5,46.5C 919.738,44.5956 920.738,43.2623 922.5,42.5 Z"/></g>
<g><path style="opacity:0.51" fill="#929292" d="M 231.5,40.5 C 230.581,43.0892 228.914,45.0892 226.5,46.5C 227.419,43.9108 229.086,41.9108 231.5,40.5 Z"/></g>
<g><path style="opacity:0.631" fill="#9a9a9a" d="M 554.5,45.5 C 554.027,46.9063 553.027,47.573 551.5,47.5C 551.973,46.0937 552.973,45.427 554.5,45.5 Z"/></g>
<g><path style="opacity:0.702" fill="#767676" d="M 777.5,44.5 C 777.262,46.4044 776.262,47.7377 774.5,48.5C 774.738,46.5956 775.738,45.2623 777.5,44.5 Z"/></g>
<g><path style="opacity:0.659" fill="#828282" d="M 358.5,46.5 C 358.262,48.4044 357.262,49.7377 355.5,50.5C 355.738,48.5956 356.738,47.2623 358.5,46.5 Z"/></g>
<g><path style="opacity:0.686" fill="#8f8f8f" d="M 551.5,47.5 C 551.027,48.9063 550.027,49.573 548.5,49.5C 548.973,48.0937 549.973,47.427 551.5,47.5 Z"/></g>
<g><path style="opacity:0.455" fill="#9a9a9a" d="M 919.5,46.5 C 919.573,48.0269 918.906,49.0269 917.5,49.5C 917.427,47.9731 918.094,46.9731 919.5,46.5 Z"/></g>
<g><path style="opacity:0.004" fill="#d0d0d0" d="M 211.5,49.5 C 211.027,50.9063 210.027,51.573 208.5,51.5C 208.973,50.0937 209.973,49.427 211.5,49.5 Z"/></g>
<g><path style="opacity:0.588" fill="#8f8f8f" d="M 548.5,49.5 C 547.738,51.2624 546.404,52.2624 544.5,52.5C 545.262,50.7376 546.596,49.7376 548.5,49.5 Z"/></g>
<g><path style="opacity:0.502" fill="#919191" d="M 774.5,48.5 C 774.573,50.0269 773.906,51.0269 772.5,51.5C 772.427,49.9731 773.094,48.9731 774.5,48.5 Z"/></g>
<g><path style="opacity:0.643" fill="#868686" d="M 846.5,48.5 C 846.262,50.4044 845.262,51.7377 843.5,52.5C 843.738,50.5956 844.738,49.2623 846.5,48.5 Z"/></g>
<g><path style="opacity:0.78" fill="#6f6f6f" d="M 226.5,46.5 C 224.1,49.9031 221.1,52.5698 217.5,54.5C 219.9,51.0969 222.9,48.4302 226.5,46.5 Z"/></g>
<g><path style="opacity:0.51" fill="#8d8d8d" d="M 917.5,49.5 C 917.573,51.0269 916.906,52.0269 915.5,52.5C 915.427,50.9731 916.094,49.9731 917.5,49.5 Z"/></g>
<g><path style="opacity:0.004" fill="#cfcfcf" d="M 247.5,51.5 C 247.573,53.0269 246.906,54.0269 245.5,54.5C 245.427,52.9731 246.094,51.9731 247.5,51.5 Z"/></g>
<g><path style="opacity:0.529" fill="#8b8b8b" d="M 355.5,50.5 C 355.573,52.0269 354.906,53.0269 353.5,53.5C 353.427,51.9731 354.094,50.9731 355.5,50.5 Z"/></g>
<g><path style="opacity:0.725" fill="#818181" d="M 544.5,52.5 C 544.027,53.9063 543.027,54.573 541.5,54.5C 541.973,53.0937 542.973,52.427 544.5,52.5 Z"/></g>
<g><path style="opacity:0.918" fill="#545454" d="M 625.5,48.5 C 624.5,51.5 622.5,53.5 619.5,54.5C 621.167,52.1667 623.167,50.1667 625.5,48.5 Z"/></g>
<g><path style="opacity:0.553" fill="#848484" d="M 772.5,51.5 C 772.573,53.0269 771.906,54.0269 770.5,54.5C 770.427,52.9731 771.094,51.9731 772.5,51.5 Z"/></g>
<g><path style="opacity:0.416" fill="#a1a1a1" d="M 843.5,52.5 C 843.573,54.0269 842.906,55.0269 841.5,55.5C 841.427,53.9731 842.094,52.9731 843.5,52.5 Z"/></g>
<g><path style="opacity:0.004" fill="#d4d4d4" d="M 865.5,53.5 C 865.573,55.0269 864.906,56.0269 863.5,56.5C 863.427,54.9731 864.094,53.9731 865.5,53.5 Z"/></g>
<g><path style="opacity:0.576" fill="#929292" d="M 915.5,52.5 C 915.262,54.4044 914.262,55.7377 912.5,56.5C 912.738,54.5956 913.738,53.2623 915.5,52.5 Z"/></g>
<g><path style="opacity:0.714" fill="#909090" d="M 178.5,54.5 C 178.262,56.4044 177.262,57.7377 175.5,58.5C 175.738,56.5956 176.738,55.2623 178.5,54.5 Z"/></g>
<g><path style="opacity:0.596" fill="#7b7b7b" d="M 353.5,53.5 C 353.573,55.0269 352.906,56.0269 351.5,56.5C 351.427,54.9731 352.094,53.9731 353.5,53.5 Z"/></g>
<g><path style="opacity:0.725" fill="#727272" d="M 619.5,54.5 C 618.738,56.2624 617.404,57.2624 615.5,57.5C 616.262,55.7376 617.596,54.7376 619.5,54.5 Z"/></g>
<g><path style="opacity:0.612" fill="#8a8a8a" d="M 770.5,54.5 C 770.262,56.4044 769.262,57.7377 767.5,58.5C 767.738,56.5956 768.738,55.2623 770.5,54.5 Z"/></g>
<g><path style="opacity:0.89" fill="#656565" d="M 217.5,54.5 C 216.415,56.5869 214.749,57.9202 212.5,58.5C 213.585,56.4131 215.251,55.0798 217.5,54.5 Z"/></g>
<g><path style="opacity:0.855" fill="#747474" d="M 541.5,54.5 C 540.415,56.5869 538.749,57.9202 536.5,58.5C 537.585,56.4131 539.251,55.0798 541.5,54.5 Z"/></g>
<g><path style="opacity:0.467" fill="#969696" d="M 841.5,55.5 C 841.573,57.0269 840.906,58.0269 839.5,58.5C 839.427,56.9731 840.094,55.9731 841.5,55.5 Z"/></g>
<g><path style="opacity:0.02" fill="#c1c1c1" d="M 242.5,57.5 C 242.573,59.0269 241.906,60.0269 240.5,60.5C 240.427,58.9731 241.094,57.9731 242.5,57.5 Z"/></g>
<g><path style="opacity:0.639" fill="#858585" d="M 351.5,56.5 C 351.262,58.4044 350.262,59.7377 348.5,60.5C 348.738,58.5956 349.738,57.2623 351.5,56.5 Z"/></g>
<g><path style="opacity:0.776" fill="#767676" d="M 615.5,57.5 C 615.027,58.9063 614.027,59.573 612.5,59.5C 612.973,58.0937 613.973,57.427 615.5,57.5 Z"/></g>
<g><path style="opacity:0.353" fill="#aeaeae" d="M 912.5,56.5 C 912.573,58.0269 911.906,59.0269 910.5,59.5C 910.427,57.9731 911.094,56.9731 912.5,56.5 Z"/></g>
<g><path style="opacity:0.008" fill="#c6c6c6" d="M 201.5,58.5 C 201.573,60.0269 200.906,61.0269 199.5,61.5C 199.427,59.9731 200.094,58.9731 201.5,58.5 Z"/></g>
<g><path style="opacity:0.706" fill="#747474" d="M 212.5,58.5 C 211.738,60.2624 210.404,61.2624 208.5,61.5C 209.262,59.7376 210.596,58.7376 212.5,58.5 Z"/></g>
<g><path style="opacity:0.667" fill="#a3a3a3" d="M 369.5,58.5 C 369.62,59.5862 370.287,60.2528 371.5,60.5C 375.32,59.2812 378.987,59.2812 382.5,60.5C 381.833,60.5 381.167,60.5 380.5,60.5C 376.168,61.0965 371.835,61.2632 367.5,61C 368.066,60.0053 368.733,59.172 369.5,58.5 Z"/></g>
<g><path style="opacity:0.706" fill="#7a7a7a" d="M 380.5,60.5 C 381.167,60.5 381.833,60.5 382.5,60.5C 384.38,60.2291 385.713,60.8958 386.5,62.5C 384.302,62.1249 382.302,61.4582 380.5,60.5 Z"/></g>
<g><path style="opacity:0.357" fill="#acacac" d="M 767.5,58.5 C 767.573,60.0269 766.906,61.0269 765.5,61.5C 765.427,59.9731 766.094,58.9731 767.5,58.5 Z"/></g>
<g><path style="opacity:0.502" fill="#8e8e8e" d="M 839.5,58.5 C 839.573,60.0269 838.906,61.0269 837.5,61.5C 837.427,59.9731 838.094,58.9731 839.5,58.5 Z"/></g>
<g><path style="opacity:0.765" fill="#8d8d8d" d="M 173.5,60.5 C 173.262,62.4044 172.262,63.7377 170.5,64.5C 170.738,62.5956 171.738,61.2623 173.5,60.5 Z"/></g>
<g><path style="opacity:0.631" fill="#858585" d="M 348.5,60.5 C 339.562,62.4775 330.229,63.4775 320.5,63.5C 329.689,62.0352 339.022,61.0352 348.5,60.5 Z"/></g>
<g><path style="opacity:0.89" fill="#5e5e5e" d="M 536.5,58.5 C 535.089,60.914 533.089,62.5806 530.5,63.5C 531.911,61.086 533.911,59.4194 536.5,58.5 Z"/></g>
<g><path style="opacity:0.345" fill="#acacac" d="M 910.5,59.5 C 910.573,61.0269 909.906,62.0269 908.5,62.5C 908.427,60.9731 909.094,59.9731 910.5,59.5 Z"/></g>
<g><path style="opacity:0.69" fill="#a5a5a5" d="M 386.5,62.5 C 388.587,63.5846 389.92,65.2512 390.5,67.5C 388.413,66.4154 387.08,64.7488 386.5,62.5 Z"/></g>
<g><path style="opacity:0.349" fill="#acacac" d="M 765.5,61.5 C 765.573,63.0269 764.906,64.0269 763.5,64.5C 763.427,62.9731 764.094,61.9731 765.5,61.5 Z"/></g>
<g><path style="opacity:0.502" fill="#8d8d8d" d="M 837.5,61.5 C 837.573,63.0269 836.906,64.0269 835.5,64.5C 835.427,62.9731 836.094,61.9731 837.5,61.5 Z"/></g>
<g><path style="opacity:0.551" fill="#9c9c9c" d="M 197.5,64.5 C 199.167,64.5 200.833,64.5 202.5,64.5C 201.122,65.2344 199.622,65.9011 198,66.5C 197.503,69.146 197.336,71.8127 197.5,74.5C 196.523,71.7131 196.19,68.7131 196.5,65.5C 197.167,65.5 197.5,65.1667 197.5,64.5 Z"/></g>
<g><path style="opacity:0.804" fill="#767676" d="M 320.5,63.5 C 320.027,64.9063 319.027,65.573 317.5,65.5C 317.973,64.0937 318.973,63.427 320.5,63.5 Z"/></g>
<g><path style="opacity:0.349" fill="#adadad" d="M 908.5,62.5 C 908.573,64.0269 907.906,65.0269 906.5,65.5C 906.427,63.9731 907.094,62.9731 908.5,62.5 Z"/></g>
<g><path style="opacity:0.349" fill="#a2a2a2" d="M 581.5,66.5 C 583.035,65.2121 584.701,65.2121 586.5,66.5C 585.873,67.4168 585.539,68.4168 585.5,69.5C 584.596,68.791 584.263,67.791 584.5,66.5C 583.5,66.5 582.5,66.5 581.5,66.5 Z"/></g>
<g><path style="opacity:0.902" fill="#575757" d="M 530.5,63.5 C 529.089,65.914 527.089,67.5806 524.5,68.5C 525.911,66.086 527.911,64.4194 530.5,63.5 Z"/></g>
<g><path style="opacity:0.498" fill="#8e8e8e" d="M 835.5,64.5 C 835.573,66.0269 834.906,67.0269 833.5,67.5C 833.427,65.9731 834.094,64.9731 835.5,64.5 Z"/></g>
<g><path style="opacity:0.624" fill="#8b8b8b" d="M 170.5,64.5 C 169.92,66.7488 168.587,68.4154 166.5,69.5C 167.08,67.2512 168.413,65.5846 170.5,64.5 Z"/></g>
<g><path style="opacity:0.604" fill="#959595" d="M 315.5,66.5 C 314.5,68.1667 313.167,69.5 311.5,70.5C 311.833,68.1667 313.167,66.8333 315.5,66.5 Z"/></g>
<g><path style="opacity:0.349" fill="#acacac" d="M 906.5,65.5 C 906.573,67.0269 905.906,68.0269 904.5,68.5C 904.427,66.9731 905.094,65.9731 906.5,65.5 Z"/></g>
<g><path style="opacity:0.651" fill="#828282" d="M 762.5,66.5 C 762.262,68.4044 761.262,69.7377 759.5,70.5C 759.738,68.5956 760.738,67.2623 762.5,66.5 Z"/></g>
<g><path style="opacity:0.553" fill="#8a8a8a" d="M 599.5,66.5 C 597.333,68.5113 594.666,69.6779 591.5,70C 589.288,70.7891 587.288,70.6225 585.5,69.5C 590.309,69.1308 594.976,68.1308 599.5,66.5 Z"/></g>
<g><path style="opacity:0.494" fill="#8f8f8f" d="M 833.5,67.5 C 833.573,69.0269 832.906,70.0269 831.5,70.5C 831.427,68.9731 832.094,67.9731 833.5,67.5 Z"/></g>
<g><path style="opacity:0.882" fill="#717171" d="M 166.5,69.5 C 166.262,71.4044 165.262,72.7377 163.5,73.5C 163.738,71.5956 164.738,70.2623 166.5,69.5 Z"/></g>
<g><path style="opacity:0.561" fill="#979797" d="M 311.5,70.5 C 311.262,72.4044 310.262,73.7377 308.5,74.5C 308.738,72.5956 309.738,71.2623 311.5,70.5 Z"/></g>
<g><path style="opacity:0.494" fill="#8f8f8f" d="M 831.5,70.5 C 831.573,72.0269 830.906,73.0269 829.5,73.5C 829.427,71.9731 830.094,70.9731 831.5,70.5 Z"/></g>
<g><path style="opacity:0.643" fill="#848484" d="M 903.5,70.5 C 903.262,72.4044 902.262,73.7377 900.5,74.5C 900.738,72.5956 901.738,71.2623 903.5,70.5 Z"/></g>
<g><path style="opacity:0.004" fill="#d3d3d3" d="M 548.5,72.5 C 548.027,73.9063 547.027,74.573 545.5,74.5C 545.973,73.0937 546.973,72.427 548.5,72.5 Z"/></g>
<g><path style="opacity:0.855" fill="#797979" d="M 163.5,73.5 C 163.262,75.4044 162.262,76.7377 160.5,77.5C 160.738,75.5956 161.738,74.2623 163.5,73.5 Z"/></g>
<g><path style="opacity:0.616" fill="#747474" d="M 758.5,72.5 C 758.573,74.0269 757.906,75.0269 756.5,75.5C 756.427,73.9731 757.094,72.9731 758.5,72.5 Z"/></g>
<g><path style="opacity:0.765" fill="#7e7e7e" d="M 524.5,68.5 C 521.105,72.8976 517.105,76.5643 512.5,79.5C 515.895,75.1024 519.895,71.4357 524.5,68.5 Z"/></g>
<g><path style="opacity:0.447" fill="#989898" d="M 829.5,73.5 C 829.573,75.0269 828.906,76.0269 827.5,76.5C 827.427,74.9731 828.094,73.9731 829.5,73.5 Z"/></g>
<g><path style="opacity:0.733" fill="#828282" d="M 308.5,74.5 C 308.5,76.1667 308.5,77.8333 308.5,79.5C 305.833,77.8333 305.833,76.1667 308.5,74.5 Z"/></g>
<g><path style="opacity:0.286" fill="#b7b7b7" d="M 900.5,74.5 C 900.573,76.0269 899.906,77.0269 898.5,77.5C 898.427,75.9731 899.094,74.9731 900.5,74.5 Z"/></g>
<g><path style="opacity:0.569" fill="#929292" d="M 756.5,75.5 C 756.262,77.4044 755.262,78.7377 753.5,79.5C 753.738,77.5956 754.738,76.2623 756.5,75.5 Z"/></g>
<g><path style="opacity:0.4" fill="#a0a0a0" d="M 827.5,76.5 C 827.573,78.0269 826.906,79.0269 825.5,79.5C 825.427,77.9731 826.094,76.9731 827.5,76.5 Z"/></g>
<g><path style="opacity:0.627" fill="#898989" d="M 160.5,77.5 C 160.262,79.4044 159.262,80.7377 157.5,81.5C 157.738,79.5956 158.738,78.2623 160.5,77.5 Z"/></g>
<g><path style="opacity:0.678" fill="#8d8d8d" d="M 333.5,83.5 C 334.087,82.2334 334.087,81.2334 333.5,80.5C 330.242,81.4173 326.909,81.7507 323.5,81.5C 327.645,80.2745 331.978,79.7745 336.5,80C 335.837,81.5185 334.837,82.6851 333.5,83.5 Z"/></g>
<g><path style="opacity:0.855" fill="#5d5d5d" d="M 200.5,78.5 C 204.227,80.2524 208.227,80.919 212.5,80.5C 209.36,81.6408 206.027,81.8075 202.5,81C 201.619,80.2917 200.953,79.4584 200.5,78.5 Z"/></g>
<g><path style="opacity:0.402" fill="#ababab" d="M 608.5,80.5 C 610.167,81.1667 611.833,81.8333 613.5,82.5C 610.813,82.6641 608.146,82.4974 605.5,82C 606.244,80.9614 607.244,80.4614 608.5,80.5 Z"/></g>
<g><path style="opacity:0.345" fill="#ababab" d="M 825.5,79.5 C 825.573,81.0269 824.906,82.0269 823.5,82.5C 823.427,80.9731 824.094,79.9731 825.5,79.5 Z"/></g>
<g><path style="opacity:0.494" fill="#8d8d8d" d="M 897.5,79.5 C 897.573,81.0269 896.906,82.0269 895.5,82.5C 895.427,80.9731 896.094,79.9731 897.5,79.5 Z"/></g>
<g><path style="opacity:0.612" fill="#989898" d="M 512.5,79.5 C 511.581,82.0892 509.914,84.0892 507.5,85.5C 508.419,82.9108 510.086,80.9108 512.5,79.5 Z"/></g>
<g><path style="opacity:0.004" fill="#cdcdcd" d="M 575.5,81.5 C 576.5,81.8333 577.167,82.5 577.5,83.5C 576.167,83.5 575.5,82.8333 575.5,81.5 Z"/></g>
<g><path style="opacity:0.482" fill="#949494" d="M 157.5,81.5 C 157.573,83.0269 156.906,84.0269 155.5,84.5C 155.427,82.9731 156.094,81.9731 157.5,81.5 Z"/></g>
<g><path style="opacity:0.467" fill="#939393" d="M 752.5,81.5 C 752.573,83.0269 751.906,84.0269 750.5,84.5C 750.427,82.9731 751.094,81.9731 752.5,81.5 Z"/></g>
<g><path style="opacity:0.141" fill="#9c9c9c" d="M 597.5,86.5 C 597.158,85.6618 596.492,85.3284 595.5,85.5C 597.225,84.095 599.225,83.595 601.5,84C 600.307,85.0946 598.973,85.928 597.5,86.5 Z"/></g>
<g><path style="opacity:0.451" fill="#979797" d="M 895.5,82.5 C 895.573,84.0269 894.906,85.0269 893.5,85.5C 893.427,83.9731 894.094,82.9731 895.5,82.5 Z"/></g>
<g><path style="opacity:0.651" fill="#7d7d7d" d="M 427.5,87.5 C 419.178,86.2437 410.845,86.2437 402.5,87.5C 406.956,86.0673 411.623,85.0673 416.5,84.5C 420.451,84.9344 424.118,85.9344 427.5,87.5 Z"/></g>
<g><path style="opacity:0.514" fill="#8c8c8c" d="M 155.5,84.5 C 155.573,86.0269 154.906,87.0269 153.5,87.5C 153.427,85.9731 154.094,84.9731 155.5,84.5 Z"/></g>
<g><path style="opacity:0.186" fill="#d1d1d1" d="M 595.5,85.5 C 593.152,86.9517 590.486,87.6183 587.5,87.5C 585.631,87.4932 583.964,87.1599 582.5,86.5C 586.869,86.5328 591.202,86.1995 595.5,85.5 Z"/></g>
<g><path style="opacity:0.839" fill="#636363" d="M 616.5,83.5 C 619.726,84.8767 620.059,86.5434 617.5,88.5C 617.371,86.7839 617.038,85.1172 616.5,83.5 Z"/></g>
<g><path style="opacity:0.416" fill="#9d9d9d" d="M 750.5,84.5 C 750.573,86.0269 749.906,87.0269 748.5,87.5C 748.427,85.9731 749.094,84.9731 750.5,84.5 Z"/></g>
<g><path style="opacity:0.569" fill="#929292" d="M 822.5,84.5 C 822.262,86.4044 821.262,87.7377 819.5,88.5C 819.738,86.5956 820.738,85.2623 822.5,84.5 Z"/></g>
<g><path style="opacity:0.522" fill="#858585" d="M 332.5,85.5 C 332.573,87.0269 331.906,88.0269 330.5,88.5C 330.427,86.9731 331.094,85.9731 332.5,85.5 Z"/></g>
<g><path style="opacity:0.384" fill="#a2a2a2" d="M 893.5,85.5 C 893.573,87.0269 892.906,88.0269 891.5,88.5C 891.427,86.9731 892.094,85.9731 893.5,85.5 Z"/></g>
<g><path style="opacity:0.894" fill="#686868" d="M 402.5,87.5 C 400.485,88.9238 398.152,89.5905 395.5,89.5C 397.438,87.8372 399.772,87.1706 402.5,87.5 Z"/></g>
<g><path style="opacity:0.514" fill="#8b8b8b" d="M 153.5,87.5 C 153.573,89.0269 152.906,90.0269 151.5,90.5C 151.427,88.9731 152.094,87.9731 153.5,87.5 Z"/></g>
<g><path style="opacity:0.122" fill="#cbcbcb" d="M 285.5,90.5 C 289.29,89.0976 292.956,89.4309 296.5,91.5C 292.865,90.8857 289.198,90.5524 285.5,90.5 Z"/></g>
<g><path style="opacity:0.333" fill="#acacac" d="M 748.5,87.5 C 748.573,89.0269 747.906,90.0269 746.5,90.5C 746.427,88.9731 747.094,87.9731 748.5,87.5 Z"/></g>
<g><path style="opacity:0.365" fill="#a3a3a3" d="M 330.5,88.5 C 330.573,90.0269 329.906,91.0269 328.5,91.5C 328.427,89.9731 329.094,88.9731 330.5,88.5 Z"/></g>
<g><path style="opacity:0.89" fill="#747474" d="M 394.5,89.5 C 393.365,91.2132 391.698,91.8799 389.5,91.5C 390.93,90.4625 392.597,89.7959 394.5,89.5 Z"/></g>
<g><path style="opacity:0.431" fill="#9c9c9c" d="M 429.5,88.5 C 430.906,88.9731 431.573,89.9731 431.5,91.5C 430.094,91.0269 429.427,90.0269 429.5,88.5 Z"/></g>
<g><path style="opacity:0.588" fill="#939393" d="M 505.5,87.5 C 504.92,89.7488 503.587,91.4154 501.5,92.5C 502.08,90.2512 503.413,88.5846 505.5,87.5 Z"/></g>
<g><path style="opacity:0.29" fill="#b4b4b4" d="M 891.5,88.5 C 891.573,90.0269 890.906,91.0269 889.5,91.5C 889.427,89.9731 890.094,88.9731 891.5,88.5 Z"/></g>
<g><path style="opacity:0.812" fill="#646464" d="M 597.5,86.5 C 595.5,90.5 592.5,93.5 588.5,95.5C 591.167,92.1667 594.167,89.1667 597.5,86.5 Z"/></g>
<g><path style="opacity:0.918" fill="#757575" d="M 674.5,91.5 C 668.471,91.4255 662.471,91.7588 656.5,92.5C 662.39,89.177 668.39,88.8436 674.5,91.5 Z"/></g>
<g><path style="opacity:1" fill="#101010" d="M 674.5,91.5 C 675.492,91.3284 676.158,91.6618 676.5,92.5C 676.414,93.4959 676.748,94.3292 677.5,95C 679.81,95.4966 682.143,95.6633 684.5,95.5C 686.674,95.7497 688.341,96.7497 689.5,98.5C 689.833,99.5 690.5,100.167 691.5,100.5C 692.338,100.842 692.672,101.508 692.5,102.5C 692.619,109.021 691.619,115.355 689.5,121.5C 687.092,128.66 683.426,134.993 678.5,140.5C 677.094,140.973 676.427,141.973 676.5,143.5C 674.528,147.105 671.861,150.105 668.5,152.5C 667.094,152.973 666.427,153.973 666.5,155.5C 656.786,167.549 644.452,175.549 629.5,179.5C 624.797,179.563 620.13,179.229 615.5,178.5C 613.596,178.262 612.262,177.262 611.5,175.5C 611.167,174.5 610.5,173.833 609.5,173.5C 608.21,172.942 607.377,171.942 607,170.5C 603.84,163.558 603.673,156.558 606.5,149.5C 608.074,147.898 608.741,145.898 608.5,143.5C 610.213,142.365 610.88,140.698 610.5,138.5C 610.557,137.391 610.89,136.391 611.5,135.5C 612.906,135.027 613.573,134.027 613.5,132.5C 613.66,130.847 614.326,129.514 615.5,128.5C 616.906,128.027 617.573,127.027 617.5,125.5C 619.262,124.738 620.262,123.404 620.5,121.5C 622.587,120.415 623.92,118.749 624.5,116.5C 625.5,114.833 626.833,113.5 628.5,112.5C 632.436,110.234 635.769,107.234 638.5,103.5C 640.404,103.262 641.738,102.262 642.5,100.5C 644.027,100.573 645.027,99.9063 645.5,98.5C 647.027,98.573 648.027,97.9063 648.5,96.5C 650.849,94.659 653.515,93.3257 656.5,92.5C 662.471,91.7588 668.471,91.4255 674.5,91.5 Z M 668.5,108.5 C 669.287,110.104 670.62,110.771 672.5,110.5C 672.178,115.465 670.844,120.132 668.5,124.5C 667.094,124.973 666.427,125.973 666.5,127.5C 665.094,127.973 664.427,128.973 664.5,130.5C 663.094,130.973 662.427,131.973 662.5,133.5C 661.094,133.973 660.427,134.973 660.5,136.5C 658.738,137.262 657.738,138.596 657.5,140.5C 656.5,140.833 655.833,141.5 655.5,142.5C 653.738,143.262 652.738,144.596 652.5,146.5C 650.167,148.167 648.167,150.167 646.5,152.5C 643.911,153.419 641.911,155.086 640.5,157.5C 637.996,158.584 635.663,159.917 633.5,161.5C 631.597,161.796 629.93,162.463 628.5,163.5C 626.708,163.634 625.042,163.301 623.5,162.5C 622.38,158.528 622.38,154.528 623.5,150.5C 631.531,131.467 644.531,116.8 662.5,106.5C 663.93,106.579 665.264,106.246 666.5,105.5C 667.176,106.602 667.842,107.602 668.5,108.5 Z"/></g>
<g><path style="opacity:0.498" fill="#8e8e8e" d="M 151.5,90.5 C 151.573,92.0269 150.906,93.0269 149.5,93.5C 149.427,91.9731 150.094,90.9731 151.5,90.5 Z"/></g>
<g><path style="opacity:0.247" fill="#bebebe" d="M 746.5,90.5 C 746.573,92.0269 745.906,93.0269 744.5,93.5C 744.427,91.9731 745.094,90.9731 746.5,90.5 Z"/></g>
<g><path style="opacity:0.388" fill="#a1a1a1" d="M 818.5,90.5 C 818.573,92.0269 817.906,93.0269 816.5,93.5C 816.427,91.9731 817.094,90.9731 818.5,90.5 Z"/></g>
<g><path style="opacity:0.012" fill="#cecece" d="M 174.5,93.5 C 174.573,95.0269 173.906,96.0269 172.5,96.5C 172.427,94.9731 173.094,93.9731 174.5,93.5 Z"/></g>
<g><path style="opacity:0.071" fill="#c8c8c8" d="M 676.5,92.5 C 679.061,93.9177 681.728,94.9177 684.5,95.5C 682.143,95.6633 679.81,95.4966 677.5,95C 676.748,94.3292 676.414,93.4959 676.5,92.5 Z"/></g>
<g><path style="opacity:0.486" fill="#919191" d="M 149.5,93.5 C 149.573,95.0269 148.906,96.0269 147.5,96.5C 147.427,94.9731 148.094,93.9731 149.5,93.5 Z"/></g>
<g><path style="opacity:0.376" fill="#9f9f9f" d="M 327.5,93.5 C 327.573,95.0269 326.906,96.0269 325.5,96.5C 325.427,94.9731 326.094,93.9731 327.5,93.5 Z"/></g>
<g><path style="opacity:0.31" fill="#b2b2b2" d="M 816.5,93.5 C 816.573,95.0269 815.906,96.0269 814.5,96.5C 814.427,94.9731 815.094,93.9731 816.5,93.5 Z"/></g>
<g><path style="opacity:0.451" fill="#959595" d="M 888.5,93.5 C 888.573,95.0269 887.906,96.0269 886.5,96.5C 886.427,94.9731 887.094,93.9731 888.5,93.5 Z"/></g>
<g><path style="opacity:0.208" fill="#b8b8b8" d="M 299.5,92.5 C 301.876,93.512 302.876,95.3454 302.5,98C 302.503,100.484 301.837,102.651 300.5,104.5C 300.59,102.304 300.923,100.137 301.5,98C 301.046,96.0614 300.379,94.228 299.5,92.5 Z"/></g>
<g><path style="opacity:0.729" fill="#838383" d="M 648.5,96.5 C 648.027,97.9063 647.027,98.573 645.5,98.5C 645.973,97.0937 646.973,96.427 648.5,96.5 Z"/></g>
<g><path style="opacity:0.384" fill="#a1a1a1" d="M 743.5,95.5 C 743.573,97.0269 742.906,98.0269 741.5,98.5C 741.427,96.9731 742.094,95.9731 743.5,95.5 Z"/></g>
<g><path style="opacity:0.447" fill="#979797" d="M 147.5,96.5 C 147.573,98.0269 146.906,99.0269 145.5,99.5C 145.427,97.9731 146.094,96.9731 147.5,96.5 Z"/></g>
<g><path style="opacity:0.008" fill="#c7c7c7" d="M 689.5,98.5 C 690.833,98.5 691.5,99.1667 691.5,100.5C 690.5,100.167 689.833,99.5 689.5,98.5 Z"/></g>
<g><path style="opacity:0.361" fill="#a7a7a7" d="M 886.5,96.5 C 886.573,98.0269 885.906,99.0269 884.5,99.5C 884.427,97.9731 885.094,96.9731 886.5,96.5 Z"/></g>
<g><path style="opacity:0.784" fill="#686868" d="M 587.5,96.5 C 585.431,99.5725 582.764,101.906 579.5,103.5C 581.569,100.427 584.236,98.0941 587.5,96.5 Z"/></g>
<g><path style="opacity:0.765" fill="#787878" d="M 645.5,98.5 C 645.027,99.9063 644.027,100.573 642.5,100.5C 642.973,99.0937 643.973,98.427 645.5,98.5 Z"/></g>
<g><path style="opacity:0.675" fill="#949494" d="M 258.5,99.5 C 258.027,100.906 257.027,101.573 255.5,101.5C 255.973,100.094 256.973,99.427 258.5,99.5 Z"/></g>
<g><path style="opacity:0.369" fill="#a1a1a1" d="M 324.5,98.5 C 324.573,100.027 323.906,101.027 322.5,101.5C 322.427,99.9731 323.094,98.9731 324.5,98.5 Z"/></g>
<g><path style="opacity:0.655" fill="#959595" d="M 372.5,99.5 C 372.027,100.906 371.027,101.573 369.5,101.5C 369.973,100.094 370.973,99.427 372.5,99.5 Z"/></g>
<g><path style="opacity:0.451" fill="#959595" d="M 813.5,98.5 C 813.573,100.027 812.906,101.027 811.5,101.5C 811.427,99.9731 812.094,98.9731 813.5,98.5 Z"/></g>
<g><path style="opacity:0.4" fill="#a1a1a1" d="M 145.5,99.5 C 145.573,101.027 144.906,102.027 143.5,102.5C 143.427,100.973 144.094,99.9731 145.5,99.5 Z"/></g>
<g><path style="opacity:0.012" fill="#cacaca" d="M 607.5,100.5 C 607.573,102.027 606.906,103.027 605.5,103.5C 605.427,101.973 606.094,100.973 607.5,100.5 Z"/></g>
<g><path style="opacity:0.663" fill="#818181" d="M 642.5,100.5 C 641.738,102.262 640.404,103.262 638.5,103.5C 639.262,101.738 640.596,100.738 642.5,100.5 Z"/></g>
<g><path style="opacity:0.259" fill="#bababa" d="M 884.5,99.5 C 884.573,101.027 883.906,102.027 882.5,102.5C 882.427,100.973 883.094,99.9731 884.5,99.5 Z"/></g>
<g><path style="opacity:0.729" fill="#818181" d="M 369.5,101.5 C 369.027,102.906 368.027,103.573 366.5,103.5C 366.973,102.094 367.973,101.427 369.5,101.5 Z"/></g>
<g><path style="opacity:0.616" fill="#767676" d="M 495.5,100.5 C 495.573,102.027 494.906,103.027 493.5,103.5C 493.427,101.973 494.094,100.973 495.5,100.5 Z"/></g>
<g><path style="opacity:0.498" fill="#888888" d="M 740.5,100.5 C 740.573,102.027 739.906,103.027 738.5,103.5C 738.427,101.973 739.094,100.973 740.5,100.5 Z"/></g>
<g><path style="opacity:0.314" fill="#b0b0b0" d="M 811.5,101.5 C 811.573,103.027 810.906,104.027 809.5,104.5C 809.427,102.973 810.094,101.973 811.5,101.5 Z"/></g>
<g><path style="opacity:0.349" fill="#ababab" d="M 143.5,102.5 C 143.573,104.027 142.906,105.027 141.5,105.5C 141.427,103.973 142.094,102.973 143.5,102.5 Z"/></g>
<g><path style="opacity:0.608" fill="#777777" d="M 493.5,103.5 C 493.573,105.027 492.906,106.027 491.5,106.5C 491.427,104.973 492.094,103.973 493.5,103.5 Z"/></g>
<g><path style="opacity:0.808" fill="#747474" d="M 668.5,108.5 C 667.842,107.602 667.176,106.602 666.5,105.5C 665.264,106.246 663.93,106.579 662.5,106.5C 664.102,104.926 666.102,104.259 668.5,104.5C 668.5,105.833 668.5,107.167 668.5,108.5 Z"/></g>
<g><path style="opacity:0.227" fill="#c5c5c5" d="M 692.5,102.5 C 694.194,109.201 693.194,115.534 689.5,121.5C 691.619,115.355 692.619,109.021 692.5,102.5 Z"/></g>
<g><path style="opacity:0.357" fill="#a6a6a6" d="M 738.5,103.5 C 738.573,105.027 737.906,106.027 736.5,106.5C 736.427,104.973 737.094,103.973 738.5,103.5 Z"/></g>
<g><path style="opacity:0.827" fill="#767676" d="M 366.5,103.5 C 365.415,105.587 363.749,106.92 361.5,107.5C 362.585,105.413 364.251,104.08 366.5,103.5 Z"/></g>
<g><path style="opacity:0.02" fill="#c5c5c5" d="M 514.5,105.5 C 514.573,107.027 513.906,108.027 512.5,108.5C 512.427,106.973 513.094,105.973 514.5,105.5 Z"/></g>
<g><path style="opacity:0.816" fill="#6c6c6c" d="M 579.5,103.5 C 578.089,105.914 576.089,107.581 573.5,108.5C 574.911,106.086 576.911,104.419 579.5,103.5 Z"/></g>
<g><path style="opacity:0.306" fill="#b0b0b0" d="M 881.5,104.5 C 881.573,106.027 880.906,107.027 879.5,107.5C 879.427,105.973 880.094,104.973 881.5,104.5 Z"/></g>
<g><path style="opacity:0.443" fill="#919191" d="M 320.5,105.5 C 320.573,107.027 319.906,108.027 318.5,108.5C 318.427,106.973 319.094,105.973 320.5,105.5 Z"/></g>
<g><path style="opacity:0.525" fill="#818181" d="M 491.5,106.5 C 491.573,108.027 490.906,109.027 489.5,109.5C 489.427,107.973 490.094,106.973 491.5,106.5 Z"/></g>
<g><path style="opacity:0.341" fill="#a7a7a7" d="M 808.5,106.5 C 808.573,108.027 807.906,109.027 806.5,109.5C 806.427,107.973 807.094,106.973 808.5,106.5 Z"/></g>
<g><path style="opacity:0.545" fill="#818181" d="M 140.5,107.5 C 140.573,109.027 139.906,110.027 138.5,110.5C 138.427,108.973 139.094,107.973 140.5,107.5 Z"/></g>
<g><path style="opacity:0.518" fill="#9c9c9c" d="M 247.5,107.5 C 246.833,108.833 245.833,109.833 244.5,110.5C 244.5,108.5 245.5,107.5 247.5,107.5 Z"/></g>
<g><path style="opacity:0.288" fill="#bdbdbd" d="M 276.5,108.5 C 277.209,107.596 278.209,107.263 279.5,107.5C 279.5,109.5 279.5,111.5 279.5,113.5C 279.028,111.469 278.028,109.802 276.5,108.5 Z"/></g>
<g><path style="opacity:0.812" fill="#828282" d="M 359.5,109.5 C 358.92,111.749 357.587,113.415 355.5,114.5C 356.08,112.251 357.413,110.585 359.5,109.5 Z"/></g>
<g><path style="opacity:0.553" fill="#a9a9a9" d="M 406.5,110.5 C 408.027,110.427 409.027,111.094 409.5,112.5C 407.973,112.573 406.973,111.906 406.5,110.5 Z"/></g>
<g><path style="opacity:0.004" fill="#cbcbcb" d="M 511.5,109.5 C 511.573,111.027 510.906,112.027 509.5,112.5C 509.427,110.973 510.094,109.973 511.5,109.5 Z"/></g>
<g><path style="opacity:0.933" fill="#585858" d="M 638.5,103.5 C 635.769,107.234 632.436,110.234 628.5,112.5C 631.231,108.766 634.564,105.766 638.5,103.5 Z"/></g>
<g><path style="opacity:0.361" fill="#a3a3a3" d="M 735.5,108.5 C 735.573,110.027 734.906,111.027 733.5,111.5C 733.427,109.973 734.094,108.973 735.5,108.5 Z"/></g>
<g><path style="opacity:0.298" fill="#afafaf" d="M 489.5,109.5 C 489.573,111.027 488.906,112.027 487.5,112.5C 487.427,110.973 488.094,109.973 489.5,109.5 Z"/></g>
<g><path style="opacity:0.773" fill="#848484" d="M 573.5,108.5 C 572.415,110.587 570.749,111.92 568.5,112.5C 569.585,110.413 571.251,109.08 573.5,108.5 Z"/></g>
<g><path style="opacity:0.282" fill="#b3b3b3" d="M 878.5,109.5 C 878.573,111.027 877.906,112.027 876.5,112.5C 876.427,110.973 877.094,109.973 878.5,109.5 Z"/></g>
<g><path style="opacity:0.471" fill="#919191" d="M 138.5,110.5 C 138.573,112.027 137.906,113.027 136.5,113.5C 136.427,111.973 137.094,110.973 138.5,110.5 Z"/></g>
<g><path style="opacity:0.329" fill="#a8a8a8" d="M 317.5,110.5 C 317.573,112.027 316.906,113.027 315.5,113.5C 315.427,111.973 316.094,110.973 317.5,110.5 Z"/></g>
<g><path style="opacity:0.059" fill="#c5c5c5" d="M 419.5,111.5 C 417.883,112.972 415.883,113.639 413.5,113.5C 411.955,113.489 410.622,113.156 409.5,112.5C 412.881,112.54 416.214,112.207 419.5,111.5 Z"/></g>
<g><path style="opacity:0.302" fill="#afafaf" d="M 805.5,111.5 C 805.573,113.027 804.906,114.027 803.5,114.5C 803.427,112.973 804.094,111.973 805.5,111.5 Z"/></g>
<g><path style="opacity:0.596" fill="#949494" d="M 242.5,112.5 C 242.262,114.404 241.262,115.738 239.5,116.5C 239.738,114.596 240.738,113.262 242.5,112.5 Z"/></g>
<g><path style="opacity:0.42" fill="#9c9c9c" d="M 136.5,113.5 C 136.573,115.027 135.906,116.027 134.5,116.5C 134.427,114.973 135.094,113.973 136.5,113.5 Z"/></g>
<g><path style="opacity:0.271" fill="#b2b2b2" d="M 732.5,113.5 C 732.573,115.027 731.906,116.027 730.5,116.5C 730.427,114.973 731.094,113.973 732.5,113.5 Z"/></g>
<g><path style="opacity:0.388" fill="#a1a1a1" d="M 355.5,114.5 C 355.573,116.027 354.906,117.027 353.5,117.5C 353.427,115.973 354.094,114.973 355.5,114.5 Z"/></g>
<g><path style="opacity:0.008" fill="#d3d3d3" d="M 376.5,116.5 C 376.027,117.906 375.027,118.573 373.5,118.5C 373.973,117.094 374.973,116.427 376.5,116.5 Z"/></g>
<g><path style="opacity:0.902" fill="#606060" d="M 566.5,114.5 C 565.415,116.587 563.749,117.92 561.5,118.5C 562.585,116.413 564.251,115.08 566.5,114.5 Z"/></g>
<g><path style="opacity:0.71" fill="#999999" d="M 624.5,116.5 C 623.92,118.749 622.587,120.415 620.5,121.5C 621.08,119.251 622.413,117.585 624.5,116.5 Z"/></g>
<g><path style="opacity:0.388" fill="#a3a3a3" d="M 134.5,116.5 C 134.573,118.027 133.906,119.027 132.5,119.5C 132.427,117.973 133.094,116.973 134.5,116.5 Z"/></g>
<g><path style="opacity:0.165" fill="#c9c9c9" d="M 802.5,116.5 C 802.573,118.027 801.906,119.027 800.5,119.5C 800.427,117.973 801.094,116.973 802.5,116.5 Z"/></g>
<g><path style="opacity:0.282" fill="#b0b0b0" d="M 874.5,116.5 C 874.573,118.027 873.906,119.027 872.5,119.5C 872.427,117.973 873.094,116.973 874.5,116.5 Z"/></g>
<g><path style="opacity:0.282" fill="#adadad" d="M 313.5,117.5 C 313.573,119.027 312.906,120.027 311.5,120.5C 311.427,118.973 312.094,117.973 313.5,117.5 Z"/></g>
<g><path style="opacity:0.4" fill="#a3a3a3" d="M 132.5,119.5 C 132.573,121.027 131.906,122.027 130.5,122.5C 130.427,120.973 131.094,119.973 132.5,119.5 Z"/></g>
<g><path style="opacity:0.894" fill="#636363" d="M 561.5,118.5 C 560.415,120.587 558.749,121.92 556.5,122.5C 557.585,120.413 559.251,119.08 561.5,118.5 Z"/></g>
<g><path style="opacity:0.004" fill="#c4c4c4" d="M 256.5,121.5 C 256.5,122.833 255.833,123.5 254.5,123.5C 254.833,122.5 255.5,121.833 256.5,121.5 Z"/></g>
<g><path style="opacity:0.231" fill="#b5b5b5" d="M 800.5,120.5 C 800.573,122.027 799.906,123.027 798.5,123.5C 798.427,121.973 799.094,120.973 800.5,120.5 Z"/></g>
<g><path style="opacity:0.714" fill="#767676" d="M 556.5,122.5 C 555.738,124.262 554.404,125.262 552.5,125.5C 553.262,123.738 554.596,122.738 556.5,122.5 Z"/></g>
<g><path style="opacity:0.612" fill="#8e8e8e" d="M 620.5,121.5 C 620.262,123.404 619.262,124.738 617.5,125.5C 617.738,123.596 618.738,122.262 620.5,121.5 Z"/></g>
<g><path style="opacity:0.443" fill="#9c9c9c" d="M 130.5,122.5 C 130.573,124.027 129.906,125.027 128.5,125.5C 128.427,123.973 129.094,122.973 130.5,122.5 Z"/></g>
<g><path style="opacity:0.955" fill="#5f5f5f" d="M 275.5,126.5 C 270.523,125.31 265.523,125.31 260.5,126.5C 264.477,124.26 268.811,123.427 273.5,124C 274.381,124.708 275.047,125.542 275.5,126.5 Z"/></g>
<g><path style="opacity:0.349" fill="#afafaf" d="M 238.5,118.5 C 237.771,123.13 237.437,127.797 237.5,132.5C 236.839,130.866 236.506,129.033 236.5,127C 236.36,123.85 237.027,121.017 238.5,118.5 Z"/></g>
<g><path style="opacity:0.286" fill="#acacac" d="M 352.5,119.5 C 351.979,123.481 351.646,127.481 351.5,131.5C 350.177,127.402 350.511,123.402 352.5,119.5 Z"/></g>
<g><path style="opacity:0.667" fill="#818181" d="M 552.5,125.5 C 551.738,127.262 550.404,128.262 548.5,128.5C 549.262,126.738 550.596,125.738 552.5,125.5 Z"/></g>
<g><path style="opacity:0.392" fill="#9d9d9d" d="M 668.5,124.5 C 668.573,126.027 667.906,127.027 666.5,127.5C 666.427,125.973 667.094,124.973 668.5,124.5 Z"/></g>
<g><path style="opacity:0.216" fill="#b4b4b4" d="M 798.5,124.5 C 798.573,126.027 797.906,127.027 796.5,127.5C 796.427,125.973 797.094,124.973 798.5,124.5 Z"/></g>
<g><path style="opacity:0.514" fill="#8f8f8f" d="M 128.5,125.5 C 128.573,127.027 127.906,128.027 126.5,128.5C 126.427,126.973 127.094,125.973 128.5,125.5 Z"/></g>
<g><path style="opacity:0.757" fill="#717171" d="M 253.5,125.5 C 253.783,126.289 254.283,126.956 255,127.5C 256.699,126.594 258.533,126.261 260.5,126.5C 259.088,127.533 257.422,128.199 255.5,128.5C 252.927,128.314 252.26,127.314 253.5,125.5 Z"/></g>
<g><path style="opacity:0.306" fill="#b2b2b2" d="M 617.5,125.5 C 617.573,127.027 616.906,128.027 615.5,128.5C 615.427,126.973 616.094,125.973 617.5,125.5 Z"/></g>
<g><path style="opacity:0.235" fill="#b7b7b7" d="M 375.5,127.5 C 378.428,127.565 381.095,128.232 383.5,129.5C 380.505,129.706 377.838,129.04 375.5,127.5 Z"/></g>
<g><path style="opacity:0.675" fill="#7e7e7e" d="M 548.5,128.5 C 547.738,130.262 546.404,131.262 544.5,131.5C 545.262,129.738 546.596,128.738 548.5,128.5 Z"/></g>
<g><path style="opacity:0.016" fill="#c4c4c4" d="M 584.5,128.5 C 584.573,130.027 583.906,131.027 582.5,131.5C 582.427,129.973 583.094,128.973 584.5,128.5 Z"/></g>
<g><path style="opacity:0.333" fill="#afafaf" d="M 666.5,127.5 C 666.573,129.027 665.906,130.027 664.5,130.5C 664.427,128.973 665.094,127.973 666.5,127.5 Z"/></g>
<g><path style="opacity:0.647" fill="#838383" d="M 126.5,128.5 C 126.262,130.404 125.262,131.738 123.5,132.5C 123.738,130.596 124.738,129.262 126.5,128.5 Z"/></g>
<g><path style="opacity:0.847" fill="#8a8a8a" d="M 275.5,126.5 C 278.466,128.996 278.799,131.662 276.5,134.5C 276.599,131.763 276.265,129.096 275.5,126.5 Z"/></g>
<g><path style="opacity:0.937" fill="#676767" d="M 480.5,127.5 C 480.277,131.162 479.277,134.495 477.5,137.5C 477.723,133.838 478.723,130.505 480.5,127.5 Z"/></g>
<g><path style="opacity:0.251" fill="#bababa" d="M 499.5,128.5 C 499.598,130.553 498.931,132.22 497.5,133.5C 497.402,131.447 498.069,129.78 499.5,128.5 Z"/></g>
<g><path style="opacity:0.749" fill="#7c7c7c" d="M 544.5,131.5 C 544.027,132.906 543.027,133.573 541.5,133.5C 541.973,132.094 542.973,131.427 544.5,131.5 Z"/></g>
<g><path style="opacity:0.322" fill="#b3b3b3" d="M 664.5,130.5 C 664.573,132.027 663.906,133.027 662.5,133.5C 662.427,131.973 663.094,130.973 664.5,130.5 Z"/></g>
<g><path style="opacity:0.808" fill="#868686" d="M 123.5,132.5 C 123.262,134.404 122.262,135.738 120.5,136.5C 120.738,134.596 121.738,133.262 123.5,132.5 Z"/></g>
<g><path style="opacity:0.776" fill="#7e7e7e" d="M 724.5,128.5 C 723.239,132.374 722.572,136.374 722.5,140.5C 721.019,136.211 721.685,132.211 724.5,128.5 Z"/></g>
<g><path style="opacity:0.675" fill="#7d7d7d" d="M 541.5,133.5 C 540.738,135.262 539.404,136.262 537.5,136.5C 538.262,134.738 539.596,133.738 541.5,133.5 Z"/></g>
<g><path style="opacity:0.161" fill="#c1c1c1" d="M 613.5,132.5 C 613.573,134.027 612.906,135.027 611.5,135.5C 611.427,133.973 612.094,132.973 613.5,132.5 Z"/></g>
<g><path style="opacity:0.478" fill="#989898" d="M 662.5,133.5 C 662.573,135.027 661.906,136.027 660.5,136.5C 660.427,134.973 661.094,133.973 662.5,133.5 Z"/></g>
<g><path style="opacity:0.008" fill="#cacaca" d="M 238.5,135.5 C 239.5,135.833 240.167,136.5 240.5,137.5C 239.167,137.5 238.5,136.833 238.5,135.5 Z"/></g>
<g><path style="opacity:0.439" fill="#909090" d="M 352.5,134.5 C 354.144,134.81 355.144,135.81 355.5,137.5C 353.856,137.19 352.856,136.19 352.5,134.5 Z"/></g>
<g><path style="opacity:0.439" fill="#aaaaaa" d="M 497.5,133.5 C 497.405,135.786 496.738,137.786 495.5,139.5C 495.259,137.102 495.926,135.102 497.5,133.5 Z"/></g>
<g><path style="opacity:0.329" fill="#acacac" d="M 559.5,138.5 C 559.5,138.167 559.5,137.833 559.5,137.5C 560.793,135.704 562.293,134.037 564,132.5C 563.573,135.121 562.073,137.121 559.5,138.5 Z"/></g>
<g><path style="opacity:0.004" fill="#cecece" d="M 741.5,135.5 C 741.5,136.833 740.833,137.5 739.5,137.5C 739.833,136.5 740.5,135.833 741.5,135.5 Z"/></g>
<g><path style="opacity:0.622" fill="#808080" d="M 795.5,130.5 C 794.949,133.807 794.616,137.14 794.5,140.5C 793.135,137.041 793.469,133.708 795.5,130.5 Z"/></g>
<g><path style="opacity:0.749" fill="#888888" d="M 867.5,129.5 C 866.886,133.135 866.552,136.802 866.5,140.5C 865.475,139.626 864.808,138.459 864.5,137C 865.233,134.28 866.233,131.78 867.5,129.5 Z"/></g>
<g><path style="opacity:0.953" fill="#727272" d="M 405.5,136.5 C 407.23,137.026 408.564,138.026 409.5,139.5C 407.368,139.446 406.035,138.446 405.5,136.5 Z"/></g>
<g><path style="opacity:0.851" fill="#777777" d="M 660.5,136.5 C 660.262,138.404 659.262,139.738 657.5,140.5C 657.738,138.596 658.738,137.262 660.5,136.5 Z"/></g>
<g><path style="opacity:0.592" fill="#8b8b8b" d="M 240.5,137.5 C 244.358,139.041 244.025,140.041 239.5,140.5C 239.918,139.778 240.584,139.278 241.5,139C 240.944,138.617 240.611,138.117 240.5,137.5 Z"/></g>
<g><path style="opacity:0.682" fill="#7b7b7b" d="M 355.5,137.5 C 357.404,137.738 358.738,138.738 359.5,140.5C 357.596,140.262 356.262,139.262 355.5,137.5 Z"/></g>
<g><path style="opacity:0.498" fill="#9d9d9d" d="M 73.5,140.5 C 77.4861,139.834 81.6528,139.501 86,139.5C 92.0829,139.299 97.9163,139.966 103.5,141.5C 93.521,140.704 83.521,140.371 73.5,140.5 Z"/></g>
<g><path style="opacity:0.604" fill="#8f8f8f" d="M 120.5,136.5 C 119.92,138.749 118.587,140.415 116.5,141.5C 117.08,139.251 118.413,137.585 120.5,136.5 Z"/></g>
<g><path style="opacity:0.745" fill="#8e8e8e" d="M 558.5,138.5 C 558.833,138.5 559.167,138.5 559.5,138.5C 559.262,140.404 558.262,141.738 556.5,142.5C 556.5,141.833 556.5,141.167 556.5,140.5C 557.167,140.5 557.5,140.167 557.5,139.5C 558.167,139.5 558.5,139.167 558.5,138.5 Z"/></g>
<g><path style="opacity:0.8" fill="#898989" d="M 359.5,140.5 C 361.698,140.12 363.365,140.787 364.5,142.5C 362.597,142.204 360.93,141.537 359.5,140.5 Z"/></g>
<g><path style="opacity:0.851" fill="#7b7b7b" d="M 409.5,139.5 C 411.262,140.262 412.262,141.596 412.5,143.5C 410.738,142.738 409.738,141.404 409.5,139.5 Z"/></g>
<g><path style="opacity:0.675" fill="#919191" d="M 532.5,139.5 C 532.027,140.906 531.027,141.573 529.5,141.5C 529.973,140.094 530.973,139.427 532.5,139.5 Z"/></g>
<g><path style="opacity:0.149" fill="#b2b2b2" d="M 104.5,141.5 C 107.829,141.215 110.829,141.882 113.5,143.5C 110.273,143.324 107.273,142.657 104.5,141.5 Z"/></g>
<g><path style="opacity:0.918" fill="#747474" d="M 610.5,138.5 C 610.88,140.698 610.213,142.365 608.5,143.5C 608.402,141.447 609.069,139.78 610.5,138.5 Z"/></g>
<g><path style="opacity:0.012" fill="#cdcdcd" d="M 678.5,140.5 C 678.573,142.027 677.906,143.027 676.5,143.5C 676.427,141.973 677.094,140.973 678.5,140.5 Z"/></g>
<g><path style="opacity:0.749" fill="#808080" d="M 237.5,141.5 C 237.027,142.906 236.027,143.573 234.5,143.5C 234.973,142.094 235.973,141.427 237.5,141.5 Z"/></g>
<g><path style="opacity:0.843" fill="#7e7e7e" d="M 365.5,142.5 C 367.898,142.259 369.898,142.926 371.5,144.5C 369.214,144.405 367.214,143.738 365.5,142.5 Z"/></g>
<g><path style="opacity:0.753" fill="#7c7c7c" d="M 529.5,141.5 C 529.027,142.906 528.027,143.573 526.5,143.5C 526.973,142.094 527.973,141.427 529.5,141.5 Z"/></g>
<g><path style="opacity:0.757" fill="#838383" d="M 582.5,141.5 C 582.027,142.906 581.027,143.573 579.5,143.5C 579.973,142.094 580.973,141.427 582.5,141.5 Z"/></g>
<g><path style="opacity:0.376" fill="#b0b0b0" d="M 594.5,140.5 C 596.597,141.879 596.93,143.545 595.5,145.5C 595.371,143.784 595.038,142.117 594.5,140.5 Z"/></g>
<g><path style="opacity:0.875" fill="#6d6d6d" d="M 72.5,140.5 C 68.1051,142.435 63.4385,143.769 58.5,144.5C 62.8047,142.254 67.4713,140.92 72.5,140.5 Z"/></g>
<g><path style="opacity:0.682" fill="#888888" d="M 301.5,141.5 C 301.719,142.675 301.386,143.675 300.5,144.5C 299.893,144.376 299.56,144.043 299.5,143.5C 300.167,142.833 300.833,142.167 301.5,141.5 Z"/></g>
<g><path style="opacity:0.702" fill="#949494" d="M 655.5,142.5 C 655.262,144.404 654.262,145.738 652.5,146.5C 652.738,144.596 653.738,143.262 655.5,142.5 Z"/></g>
<g><path style="opacity:0.616" fill="#969696" d="M 231.5,145.5 C 230.167,147.5 228.5,149.167 226.5,150.5C 227.167,147.833 228.833,146.167 231.5,145.5 Z"/></g>
<g><path style="opacity:0.902" fill="#555555" d="M 350.5,143.5 C 349.089,145.914 347.089,147.581 344.5,148.5C 345.911,146.086 347.911,144.419 350.5,143.5 Z"/></g>
<g><path style="opacity:0.89" fill="#7e7e7e" d="M 381.5,146.5 C 385.286,146.32 388.619,147.32 391.5,149.5C 387.952,148.87 384.619,147.87 381.5,146.5 Z"/></g>
<g><path style="opacity:0.678" fill="#828282" d="M 579.5,143.5 C 577.431,146.573 574.764,148.906 571.5,150.5C 573.569,147.427 576.236,145.094 579.5,143.5 Z"/></g>
<g><path style="opacity:0.722" fill="#9a9a9a" d="M 608.5,143.5 C 608.741,145.898 608.074,147.898 606.5,149.5C 606.595,147.214 607.262,145.214 608.5,143.5 Z"/></g>
<g><path style="opacity:0.694" fill="#8e8e8e" d="M 520.5,146.5 C 520.027,147.906 519.027,148.573 517.5,148.5C 517.973,147.094 518.973,146.427 520.5,146.5 Z"/></g>
<g><path style="opacity:0.682" fill="#8a8a8a" d="M 554.5,144.5 C 553.581,147.089 551.914,149.089 549.5,150.5C 550.419,147.911 552.086,145.911 554.5,144.5 Z"/></g>
<g><path style="opacity:0.949" fill="#5e5e5e" d="M 56.5,145.5 C 55.4154,147.587 53.7488,148.92 51.5,149.5C 52.5846,147.413 54.2512,146.08 56.5,145.5 Z"/></g>
<g><path style="opacity:0.082" fill="#c4c4c4" d="M 137.5,147.5 C 138.167,148.167 138.833,148.833 139.5,149.5C 138.325,149.719 137.325,149.386 136.5,148.5C 136.624,147.893 136.957,147.56 137.5,147.5 Z"/></g>
<g><path style="opacity:0.886" fill="#757575" d="M 514.5,149.5 C 513.365,151.213 511.698,151.88 509.5,151.5C 510.93,150.463 512.597,149.796 514.5,149.5 Z"/></g>
<g><path style="opacity:0.906" fill="#626262" d="M 290.5,148.5 C 289.415,150.587 287.749,151.92 285.5,152.5C 286.585,150.413 288.251,149.08 290.5,148.5 Z"/></g>
<g><path style="opacity:0.8" fill="#656565" d="M 344.5,148.5 C 342.431,151.573 339.764,153.906 336.5,155.5C 338.569,152.427 341.236,150.094 344.5,148.5 Z"/></g>
<g><path style="opacity:0.522" fill="#8b8b8b" d="M 413.5,145.5 C 414.234,146.878 414.901,148.378 415.5,150C 414.901,151.622 414.234,153.122 413.5,154.5C 413.5,151.5 413.5,148.5 413.5,145.5 Z"/></g>
<g><path style="opacity:0.302" fill="#a9a9a9" d="M 226.5,150.5 C 226.573,152.027 225.906,153.027 224.5,153.5C 224.427,151.973 225.094,150.973 226.5,150.5 Z"/></g>
<g><path style="opacity:0.78" fill="#797979" d="M 571.5,150.5 C 570.089,152.914 568.089,154.581 565.5,155.5C 565.5,155.167 565.5,154.833 565.5,154.5C 566.167,154.5 566.5,154.167 566.5,153.5C 567.167,153.5 567.5,153.167 567.5,152.5C 568.605,151.4 569.938,150.733 571.5,150.5 Z"/></g>
<g><path style="opacity:0.016" fill="#c6c6c6" d="M 668.5,152.5 C 668.573,154.027 667.906,155.027 666.5,155.5C 666.427,153.973 667.094,152.973 668.5,152.5 Z"/></g>
<g><path style="opacity:0.129" fill="#bdbdbd" d="M 156.5,153.5 C 159.152,153.41 161.485,154.076 163.5,155.5C 160.848,155.59 158.515,154.924 156.5,153.5 Z"/></g>
<g><path style="opacity:0.004" fill="#c4c4c4" d="M 243.5,154.5 C 243.573,156.027 242.906,157.027 241.5,157.5C 241.427,155.973 242.094,154.973 243.5,154.5 Z"/></g>
<g><path style="opacity:0.631" fill="#858585" d="M 394.5,153.5 C 394.167,155.833 392.833,157.167 390.5,157.5C 391.5,155.833 392.833,154.5 394.5,153.5 Z"/></g>
<g><path style="opacity:0.122" fill="#bfbfbf" d="M 165.5,155.5 C 168.152,155.41 170.485,156.076 172.5,157.5C 169.848,157.59 167.515,156.924 165.5,155.5 Z"/></g>
<g><path style="opacity:0.706" fill="#787878" d="M 336.5,155.5 C 335.738,157.262 334.404,158.262 332.5,158.5C 333.262,156.738 334.596,155.738 336.5,155.5 Z"/></g>
<g><path style="opacity:0.42" fill="#979797" d="M 623.5,150.5 C 622.38,154.528 622.38,158.528 623.5,162.5C 622.883,162.389 622.383,162.056 622,161.5C 621.121,157.523 621.621,153.856 623.5,150.5 Z"/></g>
<g><path style="opacity:0.918" fill="#686868" d="M 646.5,152.5 C 645.089,154.914 643.089,156.581 640.5,157.5C 641.911,155.086 643.911,153.419 646.5,152.5 Z"/></g>
<g><path style="opacity:0.073" fill="#d4d4d4" d="M 84.5,157.5 C 88.5546,157.176 92.5546,157.509 96.5,158.5C 96.0431,159.298 95.3764,159.631 94.5,159.5C 91.1667,158.833 87.8333,158.167 84.5,157.5 Z"/></g>
<g><path style="opacity:0.039" fill="#cdcdcd" d="M 316.5,150.5 C 316.142,153.689 315.475,156.689 314.5,159.5C 314.068,156.123 314.735,153.123 316.5,150.5 Z"/></g>
<g><path style="opacity:0.639" fill="#929292" d="M 545.5,154.5 C 544.581,157.089 542.914,159.089 540.5,160.5C 541.419,157.911 543.086,155.911 545.5,154.5 Z"/></g>
<g><path style="opacity:0.835" fill="#626262" d="M 564.5,154.5 C 564.5,155.167 564.833,155.5 565.5,155.5C 564.438,157.757 562.772,158.923 560.5,159C 562.07,157.603 563.404,156.103 564.5,154.5 Z"/></g>
<g><path style="opacity:0.29" fill="#a9a9a9" d="M 224.5,153.5 C 224.324,156.727 223.657,159.727 222.5,162.5C 222.215,159.171 222.882,156.171 224.5,153.5 Z"/></g>
<g><path style="opacity:0.761" fill="#797979" d="M 332.5,158.5 C 332.027,159.906 331.027,160.573 329.5,160.5C 329.973,159.094 330.973,158.427 332.5,158.5 Z"/></g>
<g><path style="opacity:0.71" fill="#ababab" d="M 719.5,159.5 C 716.833,159.833 714.167,160.167 711.5,160.5C 714.04,158.587 716.707,158.254 719.5,159.5 Z"/></g>
<g><path style="opacity:0.922" fill="#787878" d="M 865.5,160.5 C 862.167,160.5 858.833,160.5 855.5,160.5C 858.868,157.954 862.201,157.954 865.5,160.5 Z"/></g>
<g><path style="opacity:0.012" fill="#cccccc" d="M 411.5,159.5 C 411.573,161.027 410.906,162.027 409.5,162.5C 409.427,160.973 410.094,159.973 411.5,159.5 Z"/></g>
<g><path style="opacity:1" fill="#161616" d="M 719.5,159.5 C 720.492,159.328 721.158,159.662 721.5,160.5C 721.833,161.5 722.5,162.167 723.5,162.5C 725.238,167.961 723.905,172.628 719.5,176.5C 718.094,176.973 717.427,177.973 717.5,179.5C 712.114,185.07 706.281,185.737 700,181.5C 699.253,178.076 699.42,174.743 700.5,171.5C 701.906,171.027 702.573,170.027 702.5,168.5C 704.833,166.833 706.833,164.833 708.5,162.5C 710.027,162.573 711.027,161.906 711.5,160.5C 714.167,160.167 716.833,159.833 719.5,159.5 Z"/></g>
<g><path style="opacity:0.004" fill="#c8c8c8" d="M 721.5,160.5 C 722.833,160.5 723.5,161.167 723.5,162.5C 722.5,162.167 721.833,161.5 721.5,160.5 Z"/></g>
<g><path style="opacity:0.973" fill="#707070" d="M 793.5,160.5 C 789.466,160.505 785.466,160.838 781.5,161.5C 785.355,158.253 789.355,157.92 793.5,160.5 Z"/></g>
<g><path style="opacity:1" fill="#131313" d="M 793.5,160.5 C 794.458,160.953 795.292,161.619 796,162.5C 796.961,168.568 795.128,173.568 790.5,177.5C 789.5,177.833 788.833,178.5 788.5,179.5C 784.72,184.213 780.054,185.547 774.5,183.5C 774.167,182.5 773.5,181.833 772.5,181.5C 772.5,178.5 772.5,175.5 772.5,172.5C 772.5,172.167 772.5,171.833 772.5,171.5C 773.906,171.027 774.573,170.027 774.5,168.5C 776.262,167.738 777.262,166.404 777.5,164.5C 779.404,164.262 780.738,163.262 781.5,161.5C 785.466,160.838 789.466,160.505 793.5,160.5 Z"/></g>
<g><path style="opacity:1" fill="#121212" d="M 855.5,160.5 C 858.833,160.5 862.167,160.5 865.5,160.5C 867.043,161.736 868.043,163.402 868.5,165.5C 867.175,174.152 862.508,180.152 854.5,183.5C 851.098,183.658 847.764,183.324 844.5,182.5C 844.5,178.833 844.5,175.167 844.5,171.5C 844.328,170.508 844.662,169.842 845.5,169.5C 847.262,168.738 848.262,167.404 848.5,165.5C 850.749,164.92 852.415,163.587 853.5,161.5C 853.842,160.662 854.508,160.328 855.5,160.5 Z"/></g>
<g><path style="opacity:0.839" fill="#737373" d="M 94.5,159.5 C 92.081,161.862 89.081,162.862 85.5,162.5C 88.341,161.331 91.341,160.331 94.5,159.5 Z"/></g>
<g><path style="opacity:0.502" fill="#9a9a9a" d="M 190.5,160.5 C 195.049,160.624 199.382,161.291 203.5,162.5C 198.878,162.844 194.545,162.177 190.5,160.5 Z"/></g>
<g><path style="opacity:0.741" fill="#828282" d="M 273.5,160.5 C 273.027,161.906 272.027,162.573 270.5,162.5C 270.973,161.094 271.973,160.427 273.5,160.5 Z"/></g>
<g><path style="opacity:0.91" fill="#6b6b6b" d="M 385.5,159.5 C 383.333,161.511 380.666,162.678 377.5,163C 373.5,163.5 369.5,164 365.5,164.5C 363.955,164.489 362.622,164.156 361.5,163.5C 369.712,163.308 377.712,161.974 385.5,159.5 Z"/></g>
<g><path style="opacity:0.729" fill="#868686" d="M 711.5,160.5 C 711.027,161.906 710.027,162.573 708.5,162.5C 708.973,161.094 709.973,160.427 711.5,160.5 Z"/></g>
<g><path style="opacity:0.847" fill="#7c7c7c" d="M 633.5,161.5 C 632.365,163.213 630.698,163.88 628.5,163.5C 629.93,162.463 631.597,161.796 633.5,161.5 Z"/></g>
<g><path style="opacity:0.643" fill="#919191" d="M 781.5,161.5 C 780.738,163.262 779.404,164.262 777.5,164.5C 778.262,162.738 779.596,161.738 781.5,161.5 Z"/></g>
<g><path style="opacity:0.29" fill="#acacac" d="M 47.5,155.5 C 47.2087,161.303 47.8754,166.969 49.5,172.5C 47.9328,171.319 47.0995,169.653 47,167.5C 46.1881,163.311 46.3547,159.311 47.5,155.5 Z"/></g>
<g><path style="opacity:0.918" fill="#888888" d="M 479.5,163.5 C 481.452,164.785 483.118,166.451 484.5,168.5C 481.856,167.856 480.189,166.189 479.5,163.5 Z"/></g>
<g><path style="opacity:0.09" fill="#bfbfbf" d="M 122.5,164.5 C 123.962,163.529 125.295,163.862 126.5,165.5C 125.041,165.567 123.708,165.234 122.5,164.5 Z"/></g>
<g><path style="opacity:0.882" fill="#777777" d="M 267.5,163.5 C 265.605,165.241 263.272,166.241 260.5,166.5C 260.5,166.167 260.5,165.833 260.5,165.5C 262.772,164.681 265.106,164.015 267.5,163.5 Z"/></g>
<g><path style="opacity:0.886" fill="#636363" d="M 853.5,161.5 C 852.415,163.587 850.749,164.92 848.5,165.5C 849.585,163.413 851.251,162.08 853.5,161.5 Z"/></g>
<g><path style="opacity:0.886" fill="#858585" d="M 127.5,165.5 C 131.286,165.32 134.619,166.32 137.5,168.5C 133.952,167.87 130.619,166.87 127.5,165.5 Z"/></g>
<g><path style="opacity:0.026" fill="#cccccc" d="M 245.5,164.5 C 250.453,165.329 255.453,165.663 260.5,165.5C 260.5,165.833 260.5,166.167 260.5,166.5C 256.154,166.666 251.821,166.499 247.5,166C 246.584,165.722 245.918,165.222 245.5,164.5 Z"/></g>
<g><path style="opacity:0.012" fill="#ececec" d="M 296.5,166.5 C 295.833,165.833 295.167,165.167 294.5,164.5C 294.783,163.711 295.283,163.044 296,162.5C 296.49,163.793 296.657,165.127 296.5,166.5 Z"/></g>
<g><path style="opacity:0.69" fill="#8d8d8d" d="M 708.5,162.5 C 706.833,164.833 704.833,166.833 702.5,168.5C 703.5,165.5 705.5,163.5 708.5,162.5 Z"/></g>
<g><path style="opacity:0.8" fill="#7c7c7c" d="M 777.5,164.5 C 777.262,166.404 776.262,167.738 774.5,168.5C 774.738,166.596 775.738,165.262 777.5,164.5 Z"/></g>
<g><path style="opacity:0.827" fill="#828282" d="M 848.5,165.5 C 848.262,167.404 847.262,168.738 845.5,169.5C 845.738,167.596 846.738,166.262 848.5,165.5 Z"/></g>
<g><path style="opacity:0.816" fill="#787878" d="M 343.5,172.5 C 342.9,171.1 341.9,170.1 340.5,169.5C 340.811,168.522 341.478,167.855 342.5,167.5C 343.452,169.045 343.785,170.712 343.5,172.5 Z"/></g>
<g><path style="opacity:0.722" fill="#969696" d="M 138.5,168.5 C 140.898,168.259 142.898,168.926 144.5,170.5C 142.214,170.405 140.214,169.738 138.5,168.5 Z"/></g>
<g><path style="opacity:0.702" fill="#8b8b8b" d="M 535.5,165.5 C 533.906,168.764 531.573,171.431 528.5,173.5C 530.094,170.236 532.427,167.569 535.5,165.5 Z"/></g>
<g><path style="opacity:0.737" fill="#959595" d="M 145.5,170.5 C 147.898,170.259 149.898,170.926 151.5,172.5C 149.214,172.405 147.214,171.738 145.5,170.5 Z"/></g>
<g><path style="opacity:0.235" fill="#b9b9b9" d="M 702.5,168.5 C 702.573,170.027 701.906,171.027 700.5,171.5C 700.427,169.973 701.094,168.973 702.5,168.5 Z"/></g>
<g><path style="opacity:0.376" fill="#9b9b9b" d="M 774.5,168.5 C 774.573,170.027 773.906,171.027 772.5,171.5C 772.427,169.973 773.094,168.973 774.5,168.5 Z"/></g>
<g><path style="opacity:0.776" fill="#858585" d="M 489.5,171.5 C 494.5,171.5 499.5,171.5 504.5,171.5C 499.459,173.872 494.459,173.872 489.5,171.5 Z"/></g>
<g><path style="opacity:0.914" fill="#818181" d="M 152.5,172.5 C 156.8,172.719 160.8,173.719 164.5,175.5C 160.163,175.416 156.163,174.416 152.5,172.5 Z"/></g>
<g><path style="opacity:0.827" fill="#7c7c7c" d="M 227.5,173.5 C 229.404,173.738 230.738,174.738 231.5,176.5C 229.596,176.262 228.262,175.262 227.5,173.5 Z"/></g>
<g><path style="opacity:0.663" fill="#9a9a9a" d="M 50.5,174.5 C 52.0269,174.427 53.0269,175.094 53.5,176.5C 51.9731,176.573 50.9731,175.906 50.5,174.5 Z"/></g>
<g><path style="opacity:0.584" fill="#afafaf" d="M 299.5,174.5 C 301.404,174.738 302.738,175.738 303.5,177.5C 301.596,177.262 300.262,176.262 299.5,174.5 Z"/></g>
<g><path style="opacity:0.024" fill="#b8b8b8" d="M 609.5,173.5 C 610.5,173.833 611.167,174.5 611.5,175.5C 610.167,175.5 609.5,174.833 609.5,173.5 Z"/></g>
<g><path style="opacity:0.165" fill="#bdbdbd" d="M 105.5,175.5 C 104.22,176.931 102.553,177.598 100.5,177.5C 101.78,176.069 103.447,175.402 105.5,175.5 Z"/></g>
<g><path style="opacity:0.804" fill="#7e7e7e" d="M 844.5,171.5 C 844.5,175.167 844.5,178.833 844.5,182.5C 841.833,178.833 841.833,175.167 844.5,171.5 Z"/></g>
<g><path style="opacity:0.337" fill="#a3a3a3" d="M 53.5,176.5 C 55.0269,176.427 56.0269,177.094 56.5,178.5C 54.9731,178.573 53.9731,177.906 53.5,176.5 Z"/></g>
<g><path style="opacity:0.49" fill="#898989" d="M 346.5,176.5 C 348.027,176.427 349.027,177.094 349.5,178.5C 347.973,178.573 346.973,177.906 346.5,176.5 Z"/></g>
<g><path style="opacity:0.008" fill="#c8c8c8" d="M 719.5,176.5 C 719.573,178.027 718.906,179.027 717.5,179.5C 717.427,177.973 718.094,176.973 719.5,176.5 Z"/></g>
<g><path style="opacity:0.675" fill="#888888" d="M 772.5,172.5 C 772.5,175.5 772.5,178.5 772.5,181.5C 770.12,178.553 770.12,175.553 772.5,172.5 Z"/></g>
<g><path style="opacity:0.839" fill="#7e7e7e" d="M 56.5,178.5 C 58.8984,178.259 60.8984,178.926 62.5,180.5C 60.2143,180.405 58.2143,179.738 56.5,178.5 Z"/></g>
<g><path style="opacity:0.129" fill="#c0c0c0" d="M 233.5,177.5 C 235.027,177.427 236.027,178.094 236.5,179.5C 234.973,179.573 233.973,178.906 233.5,177.5 Z"/></g>
<g><path style="opacity:0.89" fill="#656565" d="M 349.5,178.5 C 352.152,178.41 354.485,179.076 356.5,180.5C 353.848,180.59 351.515,179.924 349.5,178.5 Z"/></g>
<g><path style="opacity:0.004" fill="#c5c5c5" d="M 790.5,177.5 C 790.5,178.833 789.833,179.5 788.5,179.5C 788.833,178.5 789.5,177.833 790.5,177.5 Z"/></g>
<g><path style="opacity:0.329" fill="#a3a3a3" d="M 615.5,178.5 C 620.13,179.229 624.797,179.563 629.5,179.5C 627.866,180.161 626.033,180.494 624,180.5C 620.85,180.64 618.017,179.973 615.5,178.5 Z"/></g>
<g><path style="opacity:0.525" fill="#8c8c8c" d="M 307.5,179.5 C 312.463,180.254 317.463,180.587 322.5,180.5C 320.696,181.162 318.696,181.495 316.5,181.5C 313.186,181.657 310.186,180.991 307.5,179.5 Z"/></g>
<g><path style="opacity:0.592" fill="#919191" d="M 524.5,177.5 C 522.906,180.764 520.573,183.431 517.5,185.5C 519.094,182.236 521.427,179.569 524.5,177.5 Z"/></g>
<g><path style="opacity:0.027" fill="#bbbbbb" d="M 772.5,181.5 C 773.5,181.833 774.167,182.5 774.5,183.5C 773.167,183.5 772.5,182.833 772.5,181.5 Z"/></g>
<g><path style="opacity:0.498" fill="#a4a4a4" d="M 844.5,182.5 C 847.764,183.324 851.098,183.658 854.5,183.5C 851.696,184.638 848.696,184.805 845.5,184C 844.944,183.617 844.611,183.117 844.5,182.5 Z"/></g>
<g><path style="opacity:0.882" fill="#6c6c6c" d="M 514.5,188.5 C 513.415,190.587 511.749,191.92 509.5,192.5C 510.585,190.413 512.251,189.08 514.5,188.5 Z"/></g>
<g><path style="opacity:0.894" fill="#626262" d="M 509.5,192.5 C 508.415,194.587 506.749,195.92 504.5,196.5C 505.585,194.413 507.251,193.08 509.5,192.5 Z"/></g>
<g><path style="opacity:0.008" fill="#c2c2c2" d="M 530.5,197.5 C 530.5,198.833 529.833,199.5 528.5,199.5C 528.833,198.5 529.5,197.833 530.5,197.5 Z"/></g>
<g><path style="opacity:0.859" fill="#646464" d="M 504.5,196.5 C 503.089,198.914 501.089,200.581 498.5,201.5C 499.911,199.086 501.911,197.419 504.5,196.5 Z"/></g>
<g><path style="opacity:0.733" fill="#787878" d="M 498.5,201.5 C 496.431,204.573 493.764,206.906 490.5,208.5C 492.569,205.427 495.236,203.094 498.5,201.5 Z"/></g>
<g><path style="opacity:0.796" fill="#8c8c8c" d="M 486.5,212.5 C 485.92,214.749 484.587,216.415 482.5,217.5C 483.08,215.251 484.413,213.585 486.5,212.5 Z"/></g>
<g><path style="opacity:0.004" fill="#c4c4c4" d="M 513.5,215.5 C 513.5,216.833 512.833,217.5 511.5,217.5C 511.833,216.5 512.5,215.833 513.5,215.5 Z"/></g>
<g><path style="opacity:0.004" fill="#c8c8c8" d="M 511.5,217.5 C 511.573,219.027 510.906,220.027 509.5,220.5C 509.427,218.973 510.094,217.973 511.5,217.5 Z"/></g>
<g><path style="opacity:0.388" fill="#a7a7a7" d="M 482.5,217.5 C 482.573,219.027 481.906,220.027 480.5,220.5C 480.427,218.973 481.094,217.973 482.5,217.5 Z"/></g>
<g><path style="opacity:0.357" fill="#b0b0b0" d="M 478.5,230.5 C 480.027,230.427 481.027,231.094 481.5,232.5C 479.973,232.573 478.973,231.906 478.5,230.5 Z"/></g>
</svg>
