<?xml version="1.0" encoding="UTF-8"?>
<!DOCTYPE svg PUBLIC "-//W3C//DTD SVG 1.1//EN" "http://www.w3.org/Graphics/SVG/1.1/DTD/svg11.dtd">
<svg xmlns="http://www.w3.org/2000/svg" version="1.1" width="1587px" height="2245px" style="shape-rendering:geometricPrecision; text-rendering:geometricPrecision; image-rendering:optimizeQuality; fill-rule:evenodd; clip-rule:evenodd" xmlns:xlink="http://www.w3.org/1999/xlink">
<g><path style="opacity:1" fill="#b5ccea" d="M -0.5,-0.5 C 136.5,-0.5 273.5,-0.5 410.5,-0.5C 394.622,61.7995 360.955,111.966 309.5,150C 279.491,169.588 246.491,178.755 210.5,177.5C 181.595,177.084 152.928,174.251 124.5,169C 98.2484,165.865 71.9151,164.865 45.5,166C 29.2849,168.128 13.9516,172.961 -0.5,180.5C -0.5,120.167 -0.5,59.8333 -0.5,-0.5 Z"/></g>
<g><path style="opacity:1" fill="#c3a1c1" d="M 410.5,-0.5 C 505.167,-0.5 599.833,-0.5 694.5,-0.5C 691.799,103.809 657.299,195.809 591,275.5C 562.551,308.465 528.718,334.298 489.5,353C 462.748,364.794 434.748,371.46 405.5,373C 382.819,373.702 360.153,373.369 337.5,372C 300.84,367.668 264.174,363.334 227.5,359C 198.57,355.929 169.57,354.929 140.5,356C 111.167,358.835 83.5005,367.168 57.5,381C 36.539,392.977 17.2057,407.144 -0.5,423.5C -0.5,342.5 -0.5,261.5 -0.5,180.5C 13.9516,172.961 29.2849,168.128 45.5,166C 71.9151,164.865 98.2484,165.865 124.5,169C 152.928,174.251 181.595,177.084 210.5,177.5C 246.491,178.755 279.491,169.588 309.5,150C 360.955,111.966 394.622,61.7995 410.5,-0.5 Z"/></g>
<g><path style="opacity:1" fill="#fefefe" d="M 694.5,-0.5 C 785.5,-0.5 876.5,-0.5 967.5,-0.5C 973.304,87.7781 962.137,173.778 934,257.5C 901.683,348.707 849.183,425.874 776.5,489C 710.425,543.58 634.259,570.08 548,568.5C 485.876,565.338 424.042,559.171 362.5,550C 315.996,543.738 269.329,542.071 222.5,545C 179.489,549.679 139.823,563.679 103.5,587C 64.7081,612.614 30.0414,643.114 -0.5,678.5C -0.5,593.5 -0.5,508.5 -0.5,423.5C 17.2057,407.144 36.539,392.977 57.5,381C 83.5005,367.168 111.167,358.835 140.5,356C 169.57,354.929 198.57,355.929 227.5,359C 264.174,363.334 300.84,367.668 337.5,372C 360.153,373.369 382.819,373.702 405.5,373C 434.748,371.46 462.748,364.794 489.5,353C 528.718,334.298 562.551,308.465 591,275.5C 657.299,195.809 691.799,103.809 694.5,-0.5 Z"/></g>
<g><path style="opacity:1" fill="#b5cdeb" d="M 967.5,-0.5 C 1057.17,-0.5 1146.83,-0.5 1236.5,-0.5C 1243.32,71.5148 1243.16,143.515 1236,215.5C 1217.75,367.413 1158.09,500.079 1057,613.5C 1022.82,650.621 984.317,682.121 941.5,708C 871.444,748.798 795.777,767.631 714.5,764.5C 672.335,763.56 630.335,760.393 588.5,755C 524.456,745.514 460.123,738.514 395.5,734C 297.636,724.79 209.636,749.456 131.5,808C 82.0219,847.161 38.0219,891.661 -0.5,941.5C -0.5,853.833 -0.5,766.167 -0.5,678.5C 30.0414,643.114 64.7081,612.614 103.5,587C 139.823,563.679 179.489,549.679 222.5,545C 269.329,542.071 315.996,543.738 362.5,550C 424.042,559.171 485.876,565.338 548,568.5C 634.259,570.08 710.425,543.58 776.5,489C 849.183,425.874 901.683,348.707 934,257.5C 962.137,173.778 973.304,87.7781 967.5,-0.5 Z"/></g>
<g><path style="opacity:1" fill="#fefefe" d="M 1236.5,-0.5 C 1353.17,-0.5 1469.83,-0.5 1586.5,-0.5C 1586.5,747.833 1586.5,1496.17 1586.5,2244.5C 1392.83,2244.5 1199.17,2244.5 1005.5,2244.5C 1007.61,2201.91 1002.95,2160.07 991.5,2119C 991.905,2118.05 992.572,2117.39 993.5,2117C 995.167,2116.83 996.833,2116.67 998.5,2116.5C 1008.49,2118.06 1018.49,2119.56 1028.5,2121C 1054.79,2123.46 1078.46,2116.79 1099.5,2101C 1107.5,2093.67 1115.5,2086.33 1123.5,2079C 1138.14,2070.36 1150.98,2059.53 1162,2046.5C 1168.52,2037.46 1172.85,2027.46 1175,2016.5C 1175.77,1996.84 1176.44,1977.17 1177,1957.5C 1178.29,1949.26 1180.46,1941.26 1183.5,1933.5C 1182.99,1927.81 1179.99,1925.31 1174.5,1926C 1167.87,1928.63 1162.37,1932.8 1158,1938.5C 1149.69,1952.15 1139.86,1964.65 1128.5,1976C 1120.9,1981.09 1112.56,1984.43 1103.5,1986C 1086.39,1988.44 1069.39,1991.44 1052.5,1995C 1045.12,1997.19 1038.12,2000.19 1031.5,2004C 1014.36,2019.47 997.531,2035.3 981,2051.5C 978.473,2055.22 976.473,2059.22 975,2063.5C 971.462,2053.05 967.628,2042.72 963.5,2032.5C 972.618,2025.43 981.951,2018.6 991.5,2012C 1005.5,2000.35 1016,1986.18 1023,1969.5C 1024.81,1963.94 1026.14,1958.28 1027,1952.5C 1027.05,1934.45 1027.88,1916.45 1029.5,1898.5C 1035.48,1896.2 1038.82,1891.87 1039.5,1885.5C 1054.87,1884.99 1066.37,1877.99 1074,1864.5C 1077.61,1854.8 1077.11,1845.3 1072.5,1836C 1078.2,1830.43 1081.03,1823.59 1081,1815.5C 1082.96,1814.55 1084.62,1813.21 1086,1811.5C 1088.86,1805.92 1091.53,1800.25 1094,1794.5C 1095.09,1789.48 1094.26,1784.81 1091.5,1780.5C 1102.11,1767.23 1104.27,1752.56 1098,1736.5C 1092.98,1729.24 1086.14,1724.91 1077.5,1723.5C 1078.79,1715.76 1076.46,1709.43 1070.5,1704.5C 1069.89,1693.44 1066.55,1683.27 1060.5,1674C 1057.69,1672.26 1054.69,1671.09 1051.5,1670.5C 1050.03,1654.18 1041.7,1642.68 1026.5,1636C 1017.36,1633.42 1008.69,1634.59 1000.5,1639.5C 997.461,1636.31 993.794,1634.15 989.5,1633C 982.28,1631.73 975.114,1631.57 968,1632.5C 958.855,1614.84 944.689,1608.51 925.5,1613.5C 921.233,1610.7 916.566,1609.03 911.5,1608.5C 912.325,1599.13 909.159,1591.47 902,1585.5C 901.667,1580.83 901.333,1576.17 901,1571.5C 898.138,1565.25 895.472,1558.91 893,1552.5C 889.505,1548.28 885.005,1546.28 879.5,1546.5C 879.705,1532.74 874.372,1521.57 863.5,1513C 849.698,1501.64 835.031,1500.47 819.5,1509.5C 815.729,1504.61 810.729,1501.78 804.5,1501C 796.977,1499.91 789.477,1499.75 782,1500.5C 774.609,1487.78 763.776,1479.61 749.5,1476C 732.128,1475.2 719.128,1482.37 710.5,1497.5C 695.59,1494.1 682.756,1497.77 672,1508.5C 670.007,1510.82 668.841,1513.48 668.5,1516.5C 660.817,1518.01 655.317,1522.34 652,1529.5C 634.056,1523.38 618.723,1527.38 606,1541.5C 598.027,1552.55 596.527,1564.38 601.5,1577C 587.822,1586.05 580.989,1598.89 581,1615.5C 578.513,1617.81 576.513,1620.48 575,1623.5C 562.03,1620.33 551.03,1623.66 542,1633.5C 540.441,1635.22 539.608,1637.22 539.5,1639.5C 536.984,1639.76 534.65,1640.59 532.5,1642C 529.958,1644.71 527.291,1647.21 524.5,1649.5C 502.481,1644.42 487.981,1652.42 481,1673.5C 480.277,1679.1 480.777,1684.6 482.5,1690C 469.128,1699.45 464.461,1712.12 468.5,1728C 466.388,1733.4 466.055,1738.9 467.5,1744.5C 449.604,1755.03 444.104,1770.03 451,1789.5C 454.36,1795.69 459.193,1800.36 465.5,1803.5C 465.038,1813.32 467.205,1822.65 472,1831.5C 475.025,1836.04 479.191,1838.7 484.5,1839.5C 485.741,1845.91 489.408,1850.41 495.5,1853C 491.574,1866.87 494.574,1879.04 504.5,1889.5C 503.415,1892.77 503.248,1896.11 504,1899.5C 507.865,1906.56 511.198,1913.9 514,1921.5C 517.99,1942.44 521.656,1963.44 525,1984.5C 526.041,1990.29 527.874,1995.79 530.5,2001C 516.5,2001.67 502.5,2001.67 488.5,2001C 473.093,2001.31 459.76,1996.31 448.5,1986C 440.197,1976.7 431.531,1967.7 422.5,1959C 416.804,1953.77 410.137,1951.77 402.5,1953C 400.477,1956.18 399.977,1959.68 401,1963.5C 404.47,1968.77 407.136,1974.44 409,1980.5C 412.463,1997.74 415.463,2015.08 418,2032.5C 422.563,2052.06 433.063,2067.56 449.5,2079C 461.845,2086.51 474.512,2093.51 487.5,2100C 523.49,2129.71 562.823,2134.71 605.5,2115C 612.437,2113.71 619.437,2113.21 626.5,2113.5C 635.293,2147.26 640.293,2181.6 641.5,2216.5C 641.582,2225.94 640.915,2235.28 639.5,2244.5C 426.167,2244.5 212.833,2244.5 -0.5,2244.5C -0.5,1810.17 -0.5,1375.83 -0.5,941.5C 38.0219,891.661 82.0219,847.161 131.5,808C 209.636,749.456 297.636,724.79 395.5,734C 460.123,738.514 524.456,745.514 588.5,755C 630.335,760.393 672.335,763.56 714.5,764.5C 795.777,767.631 871.444,748.798 941.5,708C 984.317,682.121 1022.82,650.621 1057,613.5C 1158.09,500.079 1217.75,367.413 1236,215.5C 1243.16,143.515 1243.32,71.5148 1236.5,-0.5 Z"/></g>
<g><path style="opacity:1" fill="#fbf9fb" d="M 94.5,259.5 C 95.4959,259.414 96.3292,259.748 97,260.5C 97.7644,266.733 100.931,271.067 106.5,273.5C 104.219,274.277 102.052,275.277 100,276.5C 98.3527,280.107 97.0194,283.774 96,287.5C 95,284.5 94,281.5 93,278.5C 90.4193,276.484 87.5859,274.984 84.5,274C 92.113,272.31 95.4463,267.477 94.5,259.5 Z"/></g>
<g><path style="opacity:1" fill="#fcfbfc" d="M 70.5,270.5 C 73.213,276.429 76.0463,282.429 79,288.5C 82.1793,291.006 85.6793,292.839 89.5,294C 78.2194,296.016 72.7194,302.85 73,314.5C 72,315.833 71,315.833 70,314.5C 69.6736,309.854 68.3403,305.521 66,301.5C 61.9492,298.88 57.7825,296.546 53.5,294.5C 55.9716,293.104 58.6383,292.27 61.5,292C 63.3333,290.833 64.8333,289.333 66,287.5C 67.5683,281.814 69.0683,276.147 70.5,270.5 Z"/></g>
<g><path style="opacity:1" fill="#fcfafc" d="M 97.5,299.5 C 98.1174,299.611 98.6174,299.944 99,300.5C 98.887,307.719 102.387,311.886 109.5,313C 106.99,314.09 104.49,315.257 102,316.5C 100.68,320.114 99.5129,323.781 98.5,327.5C 97.0247,321.034 93.358,316.367 87.5,313.5C 89.7812,312.723 91.9479,311.723 94,310.5C 95.8006,307.006 96.9673,303.34 97.5,299.5 Z"/></g>
<g><path style="opacity:1" fill="#fcfdfe" d="M 874.5,438.5 C 875.496,438.414 876.329,438.748 877,439.5C 878.161,448.99 882.327,456.824 889.5,463C 892.119,463.151 894.453,463.985 896.5,465.5C 887.644,465.668 882.144,470.001 880,478.5C 879.612,482.219 878.945,485.886 878,489.5C 876.286,490.925 874.953,490.592 874,488.5C 874.205,476.379 868.371,469.546 856.5,468C 855.833,467.333 855.167,466.667 854.5,466C 860.297,465.399 865.13,462.899 869,458.5C 871.521,452.005 873.354,445.338 874.5,438.5 Z"/></g>
<g><path style="opacity:1" fill="#fdfefe" d="M 827.5,460.5 C 828.822,460.33 829.989,460.663 831,461.5C 833.488,472.132 837.488,482.132 843,491.5C 848.424,497.96 855.257,501.96 863.5,503.5C 859.822,505.588 855.822,506.755 851.5,507C 842.636,510.56 837.47,517.06 836,526.5C 835.916,532.017 834.916,537.351 833,542.5C 829.55,545.226 827.55,544.226 827,539.5C 826.954,520.849 817.787,510.349 799.5,508C 796.654,507.121 795.987,505.454 797.5,503C 812.044,502.783 820.878,495.616 824,481.5C 824.761,474.407 825.927,467.407 827.5,460.5 Z"/></g>
<g><path style="opacity:1" fill="#fdfdfe" d="M 878.5,514.5 C 880.411,514.574 881.578,515.574 882,517.5C 881.806,530.137 887.972,536.803 900.5,537.5C 900.5,538.5 900.5,539.5 900.5,540.5C 890.58,540.578 884.747,545.578 883,555.5C 881.548,569.964 879.215,569.964 876,555.5C 874.587,552.339 872.92,549.339 871,546.5C 867.381,543.697 863.548,541.364 859.5,539.5C 864.533,538.55 869.033,536.55 873,533.5C 875.395,527.272 877.228,520.938 878.5,514.5 Z"/></g>
<g><path style="opacity:1" fill="#5051a0" d="M 934.5,1131.5 C 942.64,1130.28 949.973,1132.12 956.5,1137C 959.667,1140.17 962.833,1143.33 966,1146.5C 971.917,1155.33 977.583,1164.33 983,1173.5C 986.167,1176.67 989.333,1179.83 992.5,1183C 1002.96,1188.4 1013.3,1194.06 1023.5,1200C 1036.35,1211.56 1039.68,1225.39 1033.5,1241.5C 1040.33,1241.43 1047.33,1241.59 1054.5,1242C 1064.09,1243.7 1071.59,1248.54 1077,1256.5C 1080.67,1262.5 1084.33,1268.5 1088,1274.5C 1093.38,1280.21 1098.38,1286.21 1103,1292.5C 1104.67,1300.18 1103.01,1307.18 1098,1313.5C 1076.43,1339.19 1049.26,1347.86 1016.5,1339.5C 1015.94,1348.3 1011.27,1351.47 1002.5,1349C 988.19,1342.18 974.857,1333.85 962.5,1324C 954.333,1319.94 945.999,1316.28 937.5,1313C 934.28,1310.53 931.28,1307.87 928.5,1305C 914.198,1301.86 899.864,1301.69 885.5,1304.5C 886.077,1301.36 888.077,1299.86 891.5,1300C 904.181,1299.34 916.848,1299.51 929.5,1300.5C 929.739,1298.53 929.406,1296.7 928.5,1295C 914.487,1288.66 899.821,1284.83 884.5,1283.5C 884.5,1282.5 884.5,1281.5 884.5,1280.5C 890.895,1280.82 897.228,1281.65 903.5,1283C 912.276,1285.69 920.943,1288.35 929.5,1291C 907.573,1269.95 889.406,1246.12 875,1219.5C 870.012,1208.87 866.012,1197.87 863,1186.5C 862.333,1179.5 862.333,1172.5 863,1165.5C 866.094,1154.04 873.261,1149.87 884.5,1153C 890.5,1156.33 896.5,1159.67 902.5,1163C 905.432,1164.14 908.432,1164.98 911.5,1165.5C 912.945,1149.76 920.611,1138.43 934.5,1131.5 Z"/></g>
<g><path style="opacity:1" fill="#fd6740" d="M 931.5,1147.5 C 943.652,1148.31 951.319,1154.65 954.5,1166.5C 952.561,1172.38 950.061,1178.05 947,1183.5C 945.687,1187.42 944.687,1191.42 944,1195.5C 942.387,1208.49 942.053,1221.49 943,1234.5C 930.855,1217.87 922.188,1199.54 917,1179.5C 916.333,1173.17 916.333,1166.83 917,1160.5C 919.541,1153.45 924.374,1149.12 931.5,1147.5 Z"/></g>
<g><path style="opacity:1" fill="#faab37" d="M 955.5,1173.5 C 956.496,1173.41 957.329,1173.75 958,1174.5C 959.72,1184.33 963.386,1193.33 969,1201.5C 974.361,1206.26 980.528,1209.6 987.5,1211.5C 990.969,1218.17 991.969,1225.17 990.5,1232.5C 987.737,1230.2 984.57,1228.87 981,1228.5C 977.037,1229.58 973.204,1230.75 969.5,1232C 968.832,1225.33 965.832,1219.99 960.5,1216C 954.938,1214.42 950.438,1215.92 947,1220.5C 944.26,1203.71 947.093,1188.04 955.5,1173.5 Z"/></g>
<g><path style="opacity:1" fill="#fc6741" d="M 880.5,1178.5 C 884.594,1177.7 887.761,1179.04 890,1182.5C 896.341,1192.7 898.508,1203.7 896.5,1215.5C 900.663,1232.49 909.83,1246.15 924,1256.5C 927.945,1266.33 932.279,1276 937,1285.5C 938.254,1289.11 937.088,1290.61 933.5,1290C 904.109,1263.21 882.442,1231.21 868.5,1194C 870.064,1186.94 874.064,1181.77 880.5,1178.5 Z"/></g>
<g><path style="opacity:1" fill="#f9aa38" d="M 893.5,1180.5 C 898.586,1182.75 903.919,1183.75 909.5,1183.5C 910.139,1190.15 910.473,1196.81 910.5,1203.5C 906.808,1202.97 903.642,1203.97 901,1206.5C 899.81,1197.43 897.31,1188.77 893.5,1180.5 Z"/></g>
<g><path style="opacity:1" fill="#faaa37" d="M 914.5,1182.5 C 916.023,1188.57 917.857,1194.57 920,1200.5C 928.493,1216.82 937.493,1232.82 947,1248.5C 952.91,1262.56 957.41,1277.06 960.5,1292C 960.167,1293.17 959.833,1294.33 959.5,1295.5C 954.287,1293.04 948.954,1290.87 943.5,1289C 926.389,1259.5 916.389,1227.66 913.5,1193.5C 913.185,1189.63 913.518,1185.96 914.5,1182.5 Z"/></g>
<g><path style="opacity:1" fill="#ac7269" d="M 914.5,1182.5 C 913.518,1185.96 913.185,1189.63 913.5,1193.5C 912.191,1189.65 912.191,1185.65 913.5,1181.5C 914.107,1181.62 914.44,1181.96 914.5,1182.5 Z"/></g>
<g><path style="opacity:1" fill="#f7a3af" d="M 905.5,1206.5 C 908.808,1205.97 910.974,1207.31 912,1210.5C 914.285,1224.02 917.785,1237.18 922.5,1250C 913.488,1243.6 906.654,1235.1 902,1224.5C 900.543,1220.26 900.209,1215.93 901,1211.5C 902.025,1209.31 903.525,1207.65 905.5,1206.5 Z"/></g>
<g><path style="opacity:1" fill="#fa6743" d="M 991.5,1211.5 C 996.272,1212.15 1000.77,1213.48 1005,1215.5C 1007.27,1231.31 1004.27,1245.98 996,1259.5C 985.386,1270.08 976.22,1281.74 968.5,1294.5C 968.824,1290.03 970.324,1285.7 973,1281.5C 977.609,1273.89 982.609,1266.56 988,1259.5C 994.973,1243.93 996.14,1227.93 991.5,1211.5 Z"/></g>
<g><path style="opacity:1" fill="#f8a939" d="M 1008.5,1216.5 C 1020.76,1224.74 1023.42,1235.24 1016.5,1248C 1012.04,1250.3 1007.7,1252.8 1003.5,1255.5C 1003.17,1255.17 1002.83,1254.83 1002.5,1254.5C 1007.94,1242.41 1009.94,1229.74 1008.5,1216.5 Z"/></g>
<g><path style="opacity:1" fill="#fca7b1" d="M 953.5,1218.5 C 959.73,1218.21 963.563,1221.21 965,1227.5C 965.059,1232.35 965.726,1237.01 967,1241.5C 969.869,1238.3 973.035,1235.46 976.5,1233C 981.526,1231.51 985.692,1232.67 989,1236.5C 990.061,1242.72 989.394,1248.72 987,1254.5C 981.667,1262.5 976.333,1270.5 971,1278.5C 968.726,1282.71 966.726,1287.05 965,1291.5C 959.548,1274.14 953.881,1256.81 948,1239.5C 947.333,1235.17 947.333,1230.83 948,1226.5C 949.117,1223.24 950.95,1220.57 953.5,1218.5 Z"/></g>
<g><path style="opacity:1" fill="#fc6741" d="M 1033.5,1245.5 C 1043.45,1244.72 1049.95,1249.06 1053,1258.5C 1053.83,1264.48 1054.33,1270.48 1054.5,1276.5C 1034.4,1269.44 1015.4,1271.61 997.5,1283C 989.659,1288.09 981.992,1293.42 974.5,1299C 972.956,1300.19 971.289,1300.52 969.5,1300C 983.098,1272.56 1004.43,1254.39 1033.5,1245.5 Z"/></g>
<g><path style="opacity:1" fill="#fba6b1" d="M 1017.5,1276.5 C 1021.85,1276.33 1026.18,1276.5 1030.5,1277C 1036.06,1278.46 1037.89,1281.96 1036,1287.5C 1032.88,1291.45 1029.05,1294.45 1024.5,1296.5C 1023.61,1297.32 1023.28,1298.32 1023.5,1299.5C 1033.99,1298.82 1042.49,1302.49 1049,1310.5C 1051.51,1315.62 1050.34,1319.79 1045.5,1323C 1038.71,1325.19 1032.04,1324.85 1025.5,1322C 1014.91,1317.92 1004.58,1313.25 994.5,1308C 988.202,1305.84 981.869,1303.84 975.5,1302C 988.797,1292.19 1002.8,1283.69 1017.5,1276.5 Z"/></g>
<g><path style="opacity:1" fill="#faaa37" d="M 1037.5,1276.5 C 1048.16,1276.83 1056.49,1281.33 1062.5,1290C 1065.42,1291.71 1068.25,1293.54 1071,1295.5C 1071.12,1299.62 1069.78,1303.28 1067,1306.5C 1063.28,1310.72 1059.11,1314.39 1054.5,1317.5C 1053.7,1311.06 1050.7,1305.89 1045.5,1302C 1040.95,1299.6 1036.29,1297.6 1031.5,1296C 1039.64,1291.43 1041.64,1284.93 1037.5,1276.5 Z"/></g>
<g><path style="opacity:1" fill="#9da83b" d="M 936.5,1293.5 C 944.05,1292.54 951.05,1294.04 957.5,1298C 974.143,1310.66 991.476,1322.32 1009.5,1333C 1014.25,1337.12 1014.58,1341.45 1010.5,1346C 1007.07,1346.7 1003.74,1346.37 1000.5,1345C 986.16,1336.5 972.16,1327.5 958.5,1318C 951.172,1315.78 944.172,1312.78 937.5,1309C 931.362,1304.06 931.029,1298.9 936.5,1293.5 Z"/></g>
<g><path style="opacity:1" fill="#fb6742" d="M 1074.5,1299.5 C 1076.72,1299.18 1078.56,1299.84 1080,1301.5C 1089.31,1314.4 1086.81,1324.23 1072.5,1331C 1054.94,1340.41 1036.6,1342.08 1017.5,1336C 1014.54,1334.04 1011.87,1331.71 1009.5,1329C 997.628,1322.45 986.295,1315.12 975.5,1307C 981.031,1306.71 986.364,1307.71 991.5,1310C 1001.93,1315.55 1012.59,1320.55 1023.5,1325C 1036.37,1329.83 1048.04,1327.83 1058.5,1319C 1065.37,1313.74 1070.71,1307.24 1074.5,1299.5 Z"/></g>
<g><path style="opacity:1" fill="#5f512b" d="M 1005.5,2244.5 C 1004.5,2244.5 1003.5,2244.5 1002.5,2244.5C 1004.14,2207.01 1000.64,2170.01 992,2133.5C 982.748,2095.74 971.081,2058.74 957,2022.5C 951.577,2002.19 948.743,1981.53 948.5,1960.5C 949.447,1951.2 949.781,1941.87 949.5,1932.5C 940.9,1931.7 933.9,1928.04 928.5,1921.5C 927.522,1921.98 926.689,1922.64 926,1923.5C 922.984,1955.37 924.317,1987.04 930,2018.5C 939.194,2045.08 948.194,2071.75 957,2098.5C 969.893,2138.86 977.059,2180.19 978.5,2222.5C 977.569,2229.8 977.235,2237.13 977.5,2244.5C 976.5,2244.5 975.5,2244.5 974.5,2244.5C 976.231,2202.35 971.231,2161.01 959.5,2120.5C 951.796,2119.71 944.129,2120.21 936.5,2122C 925.41,2126.14 914.076,2129.47 902.5,2132C 882.926,2134.55 864.26,2131.55 846.5,2123C 835.909,2117.12 825.743,2110.62 816,2103.5C 820.913,2129.57 824.247,2155.9 826,2182.5C 826.949,2203.24 826.115,2223.91 823.5,2244.5C 822.167,2244.5 820.833,2244.5 819.5,2244.5C 825.05,2196.35 822.217,2148.69 811,2101.5C 803.085,2097.13 795.252,2092.63 787.5,2088C 786.668,2087.31 786.002,2087.48 785.5,2088.5C 793.908,2118.62 798.742,2149.28 800,2180.5C 799.282,2181.45 798.449,2181.62 797.5,2181C 794.764,2148.4 789.264,2116.23 781,2084.5C 779.376,2082.84 777.709,2081.18 776,2079.5C 782.564,2106.45 787.564,2133.78 791,2161.5C 793.39,2189.24 792.89,2216.91 789.5,2244.5C 788.167,2244.5 786.833,2244.5 785.5,2244.5C 789.614,2219.97 790.447,2195.3 788,2170.5C 786.486,2153.72 784.152,2137.05 781,2120.5C 779.086,2109.58 776.419,2098.91 773,2088.5C 744.07,2114.02 710.903,2121.52 673.5,2111C 668.136,2110.17 662.802,2110.34 657.5,2111.5C 670.074,2155 674.741,2199.33 671.5,2244.5C 670.5,2244.5 669.5,2244.5 668.5,2244.5C 671.109,2205.69 667.942,2167.36 659,2129.5C 655.474,2114.73 651.64,2100.06 647.5,2085.5C 636.278,2082.14 626.111,2076.81 617,2069.5C 622.955,2089.98 628.622,2110.64 634,2131.5C 643.332,2168.65 646.499,2206.32 643.5,2244.5C 642.167,2244.5 640.833,2244.5 639.5,2244.5C 640.915,2235.28 641.582,2225.94 641.5,2216.5C 640.293,2181.6 635.293,2147.26 626.5,2113.5C 619.437,2113.21 612.437,2113.71 605.5,2115C 562.823,2134.71 523.49,2129.71 487.5,2100C 474.512,2093.51 461.845,2086.51 449.5,2079C 433.063,2067.56 422.563,2052.06 418,2032.5C 415.463,2015.08 412.463,1997.74 409,1980.5C 407.136,1974.44 404.47,1968.77 401,1963.5C 399.977,1959.68 400.477,1956.18 402.5,1953C 410.137,1951.77 416.804,1953.77 422.5,1959C 431.531,1967.7 440.197,1976.7 448.5,1986C 459.76,1996.31 473.093,2001.31 488.5,2001C 502.5,2001.67 516.5,2001.67 530.5,2001C 527.874,1995.79 526.041,1990.29 525,1984.5C 521.656,1963.44 517.99,1942.44 514,1921.5C 511.198,1913.9 507.865,1906.56 504,1899.5C 503.248,1896.11 503.415,1892.77 504.5,1889.5C 494.574,1879.04 491.574,1866.87 495.5,1853C 489.408,1850.41 485.741,1845.91 484.5,1839.5C 479.191,1838.7 475.025,1836.04 472,1831.5C 467.205,1822.65 465.038,1813.32 465.5,1803.5C 459.193,1800.36 454.36,1795.69 451,1789.5C 444.104,1770.03 449.604,1755.03 467.5,1744.5C 466.055,1738.9 466.388,1733.4 468.5,1728C 464.461,1712.12 469.128,1699.45 482.5,1690C 480.777,1684.6 480.277,1679.1 481,1673.5C 487.981,1652.42 502.481,1644.42 524.5,1649.5C 527.291,1647.21 529.958,1644.71 532.5,1642C 534.65,1640.59 536.984,1639.76 539.5,1639.5C 539.608,1637.22 540.441,1635.22 542,1633.5C 551.03,1623.66 562.03,1620.33 575,1623.5C 576.513,1620.48 578.513,1617.81 581,1615.5C 580.989,1598.89 587.822,1586.05 601.5,1577C 596.527,1564.38 598.027,1552.55 606,1541.5C 618.723,1527.38 634.056,1523.38 652,1529.5C 655.317,1522.34 660.817,1518.01 668.5,1516.5C 668.841,1513.48 670.007,1510.82 672,1508.5C 682.756,1497.77 695.59,1494.1 710.5,1497.5C 719.128,1482.37 732.128,1475.2 749.5,1476C 763.776,1479.61 774.609,1487.78 782,1500.5C 789.477,1499.75 796.977,1499.91 804.5,1501C 810.729,1501.78 815.729,1504.61 819.5,1509.5C 835.031,1500.47 849.698,1501.64 863.5,1513C 874.372,1521.57 879.705,1532.74 879.5,1546.5C 885.005,1546.28 889.505,1548.28 893,1552.5C 895.472,1558.91 898.138,1565.25 901,1571.5C 901.333,1576.17 901.667,1580.83 902,1585.5C 909.159,1591.47 912.325,1599.13 911.5,1608.5C 916.566,1609.03 921.233,1610.7 925.5,1613.5C 944.689,1608.51 958.855,1614.84 968,1632.5C 975.114,1631.57 982.28,1631.73 989.5,1633C 993.794,1634.15 997.461,1636.31 1000.5,1639.5C 1008.69,1634.59 1017.36,1633.42 1026.5,1636C 1041.7,1642.68 1050.03,1654.18 1051.5,1670.5C 1054.69,1671.09 1057.69,1672.26 1060.5,1674C 1066.55,1683.27 1069.89,1693.44 1070.5,1704.5C 1076.46,1709.43 1078.79,1715.76 1077.5,1723.5C 1086.14,1724.91 1092.98,1729.24 1098,1736.5C 1104.27,1752.56 1102.11,1767.23 1091.5,1780.5C 1094.26,1784.81 1095.09,1789.48 1094,1794.5C 1091.53,1800.25 1088.86,1805.92 1086,1811.5C 1084.62,1813.21 1082.96,1814.55 1081,1815.5C 1081.03,1823.59 1078.2,1830.43 1072.5,1836C 1077.11,1845.3 1077.61,1854.8 1074,1864.5C 1066.37,1877.99 1054.87,1884.99 1039.5,1885.5C 1038.82,1891.87 1035.48,1896.2 1029.5,1898.5C 1027.88,1916.45 1027.05,1934.45 1027,1952.5C 1026.14,1958.28 1024.81,1963.94 1023,1969.5C 1016,1986.18 1005.5,2000.35 991.5,2012C 981.951,2018.6 972.618,2025.43 963.5,2032.5C 967.628,2042.72 971.462,2053.05 975,2063.5C 976.473,2059.22 978.473,2055.22 981,2051.5C 997.531,2035.3 1014.36,2019.47 1031.5,2004C 1038.12,2000.19 1045.12,1997.19 1052.5,1995C 1069.39,1991.44 1086.39,1988.44 1103.5,1986C 1112.56,1984.43 1120.9,1981.09 1128.5,1976C 1139.86,1964.65 1149.69,1952.15 1158,1938.5C 1162.37,1932.8 1167.87,1928.63 1174.5,1926C 1179.99,1925.31 1182.99,1927.81 1183.5,1933.5C 1180.46,1941.26 1178.29,1949.26 1177,1957.5C 1176.44,1977.17 1175.77,1996.84 1175,2016.5C 1172.85,2027.46 1168.52,2037.46 1162,2046.5C 1150.98,2059.53 1138.14,2070.36 1123.5,2079C 1115.5,2086.33 1107.5,2093.67 1099.5,2101C 1078.46,2116.79 1054.79,2123.46 1028.5,2121C 1018.49,2119.56 1008.49,2118.06 998.5,2116.5C 996.833,2116.67 995.167,2116.83 993.5,2117C 992.572,2117.39 991.905,2118.05 991.5,2119C 1002.95,2160.07 1007.61,2201.91 1005.5,2244.5 Z"/></g>
<g><path style="opacity:1" fill="#b4ccea" d="M 738.5,1479.5 C 753.621,1478.81 765.788,1484.48 775,1496.5C 776.549,1499.31 777.382,1502.31 777.5,1505.5C 799.896,1500.39 810.063,1509.39 808,1532.5C 804.359,1547.78 799.026,1562.45 792,1576.5C 789.667,1584.5 787.333,1592.5 785,1600.5C 784.632,1601.91 783.799,1602.91 782.5,1603.5C 776.941,1601.46 771.275,1599.79 765.5,1598.5C 771.719,1576.26 773.886,1553.59 772,1530.5C 771,1529.17 770,1529.17 769,1530.5C 769.846,1553.16 767.679,1575.49 762.5,1597.5C 754.13,1596.94 745.963,1597.94 738,1600.5C 736.395,1599.9 735.062,1598.9 734,1597.5C 726.58,1587 719.913,1576 714,1564.5C 710.442,1553.04 707.775,1541.38 706,1529.5C 704.627,1525.87 703.127,1525.7 701.5,1529C 704.562,1556.78 715.229,1581.11 733.5,1602C 728.939,1604.3 724.272,1605.96 719.5,1607C 703.786,1588.62 689.619,1569.12 677,1548.5C 671.982,1539.43 669.982,1529.76 671,1519.5C 674.211,1508.8 681.377,1502.63 692.5,1501C 695.84,1500.55 699.174,1500.05 702.5,1499.5C 706.15,1500.5 709.816,1501 713.5,1501C 718.319,1489.68 726.653,1482.51 738.5,1479.5 Z"/></g>
<g><path style="opacity:1" fill="#b4cbe9" d="M 803.5,1505.5 C 806.532,1505.1 809.532,1505.94 812.5,1508C 814.716,1510.55 817.216,1512.72 820,1514.5C 828.04,1508.2 837.207,1506.03 847.5,1508C 866.064,1515.34 875.564,1528.84 876,1548.5C 881.2,1549.34 885.867,1551.34 890,1554.5C 892.272,1561.31 894.939,1567.98 898,1574.5C 898.43,1577.19 898.263,1579.86 897.5,1582.5C 888.71,1580.01 880.044,1580.51 871.5,1584C 867.5,1586 863.5,1588 859.5,1590C 853.833,1595 848.167,1600 842.5,1605C 831.315,1608.23 820.648,1612.73 810.5,1618.5C 808.77,1617.97 807.436,1616.97 806.5,1615.5C 820.676,1605.48 831.843,1592.81 840,1577.5C 843.521,1570.77 846.354,1563.77 848.5,1556.5C 847.68,1554.89 846.346,1554.22 844.5,1554.5C 838.826,1575.01 828.16,1592.51 812.5,1607C 809.375,1610.07 805.708,1611.73 801.5,1612C 799.032,1610.78 797.032,1609.12 795.5,1607C 799.212,1595.36 803.212,1583.86 807.5,1572.5C 806.178,1572.33 805.011,1572.66 804,1573.5C 799.144,1584.23 794.978,1595.23 791.5,1606.5C 790.264,1605.75 788.93,1605.42 787.5,1605.5C 790.172,1595.82 793.005,1586.15 796,1576.5C 803.516,1562.28 808.85,1547.28 812,1531.5C 813.769,1521.21 810.936,1512.55 803.5,1505.5 Z"/></g>
<g><path style="opacity:1" fill="#b4cce9" d="M 663.5,1521.5 C 664.5,1521.5 665.5,1521.5 666.5,1521.5C 666.681,1532.56 669.514,1542.89 675,1552.5C 687.866,1572.2 701.7,1591.2 716.5,1609.5C 711.555,1612.45 706.888,1615.78 702.5,1619.5C 690.185,1605.85 675.852,1594.85 659.5,1586.5C 657.512,1587.29 657.179,1588.46 658.5,1590C 674.398,1598.07 688.065,1608.9 699.5,1622.5C 696.441,1626.23 693.774,1630.23 691.5,1634.5C 688.124,1635.71 684.791,1635.54 681.5,1634C 671.982,1629.26 662.649,1624.43 653.5,1619.5C 653.33,1620.82 653.663,1621.99 654.5,1623C 661.573,1627.73 668.906,1632.07 676.5,1636C 680.307,1637.88 684.307,1639.05 688.5,1639.5C 687.833,1642.17 687.167,1644.83 686.5,1647.5C 664.716,1645.58 643.049,1642.75 621.5,1639C 609.069,1637.04 598.569,1631.54 590,1622.5C 583.736,1611.5 584.403,1600.84 592,1590.5C 594.19,1588.61 596.023,1586.44 597.5,1584C 600.619,1582.46 603.286,1580.46 605.5,1578C 598.191,1555.96 605.191,1540.63 626.5,1532C 633.11,1530.56 639.776,1530.23 646.5,1531C 648.869,1531.54 650.869,1532.7 652.5,1534.5C 654.485,1532.54 655.985,1530.21 657,1527.5C 659.063,1525.27 661.229,1523.27 663.5,1521.5 Z"/></g>
<g><path style="opacity:1" fill="#b4cce9" d="M 880.5,1584.5 C 899.906,1583.24 908.906,1592.24 907.5,1611.5C 912.467,1611.32 916.8,1612.82 920.5,1616C 915.589,1619.08 911.922,1623.24 909.5,1628.5C 896.832,1626.67 885.665,1630 876,1638.5C 874.456,1640.47 873.289,1642.63 872.5,1645C 866.443,1647.1 861.943,1650.93 859,1656.5C 848.957,1653.45 839.123,1654.12 829.5,1658.5C 827.521,1652.26 826.354,1645.93 826,1639.5C 831.092,1635.7 836.592,1632.53 842.5,1630C 852.833,1626.33 863.167,1622.67 873.5,1619C 874.337,1617.99 874.67,1616.82 874.5,1615.5C 859.724,1619.37 845.39,1624.54 831.5,1631C 828.577,1633.05 825.743,1635.21 823,1637.5C 819.891,1632.06 816.391,1626.89 812.5,1622C 822.636,1616.17 833.302,1611.51 844.5,1608C 850.76,1603.74 856.427,1598.74 861.5,1593C 867.687,1589.57 874.021,1586.73 880.5,1584.5 Z"/></g>
<g><path style="opacity:1" fill="#f9b837" d="M 746.5,1601.5 C 764.893,1601.26 782.226,1605.43 798.5,1614C 813.934,1625.53 822.934,1640.87 825.5,1660C 820.791,1665.06 817.291,1670.89 815,1677.5C 814.021,1683.98 814.521,1690.32 816.5,1696.5C 808.131,1702.05 802.631,1709.71 800,1719.5C 781.596,1731.45 761.43,1736.28 739.5,1734C 717.068,1728.23 700.568,1715.06 690,1694.5C 681.222,1666.02 687.056,1641.19 707.5,1620C 719.696,1612 732.696,1605.83 746.5,1601.5 Z"/></g>
<g><path style="opacity:1" fill="#b4cce9" d="M 931.5,1614.5 C 948.256,1614.03 959.922,1621.36 966.5,1636.5C 979.598,1632.47 987.765,1637.13 991,1650.5C 991.382,1655.93 990.715,1661.27 989,1666.5C 985.783,1676.82 981.783,1686.82 977,1696.5C 975.071,1704.29 972.738,1711.95 970,1719.5C 965.412,1717.31 960.579,1715.98 955.5,1715.5C 960.079,1696.44 961.579,1677.11 960,1657.5C 959.586,1657.04 959.086,1656.71 958.5,1656.5C 957.668,1666.82 957.168,1677.15 957,1687.5C 956.167,1696.33 954.5,1705 952,1713.5C 945.288,1714.02 938.622,1715.02 932,1716.5C 930.056,1715.56 928.389,1714.23 927,1712.5C 918.46,1700.95 912.127,1688.29 908,1674.5C 906.766,1667.83 905.6,1661.17 904.5,1654.5C 903.5,1654.5 902.5,1654.5 901.5,1654.5C 902.416,1666.17 904.916,1677.5 909,1688.5C 914.291,1698.92 920.458,1708.76 927.5,1718C 923.942,1719.36 920.442,1720.86 917,1722.5C 901.749,1705.89 888.749,1687.56 878,1667.5C 870.077,1648.18 876.244,1636.34 896.5,1632C 900.971,1631.27 905.305,1631.77 909.5,1633.5C 914.414,1624.25 921.747,1617.91 931.5,1614.5 Z"/></g>
<g><path style="opacity:1" fill="#b4cbe9" d="M 582.5,1617.5 C 583.665,1618.5 584.332,1619.83 584.5,1621.5C 581.343,1628.25 580.676,1635.25 582.5,1642.5C 577.768,1643.71 573.934,1646.38 571,1650.5C 570.716,1648.11 569.716,1647.45 568,1648.5C 568.305,1650.44 568.305,1652.44 568,1654.5C 560.394,1663.98 557.727,1674.64 560,1686.5C 549.78,1675.06 543.613,1661.73 541.5,1646.5C 542.377,1634.78 548.71,1627.95 560.5,1626C 565.989,1625.07 571.323,1625.57 576.5,1627.5C 578.511,1624.14 580.511,1620.81 582.5,1617.5 Z"/></g>
<g><path style="opacity:1" fill="#b4cce9" d="M 586.5,1625.5 C 594.424,1632.97 603.758,1638.13 614.5,1641C 637.58,1645.99 660.913,1649.15 684.5,1650.5C 683.704,1655.15 683.037,1659.81 682.5,1664.5C 674.871,1665.1 667.204,1664.93 659.5,1664C 646.167,1663.33 632.833,1663.33 619.5,1664C 614.066,1665.22 609.399,1667.72 605.5,1671.5C 605.833,1672.5 606.5,1673.17 607.5,1673.5C 616.7,1668.04 626.7,1665.7 637.5,1666.5C 652.466,1667.92 667.466,1668.58 682.5,1668.5C 683.221,1674.74 683.221,1680.91 682.5,1687C 666.323,1694.95 649.323,1700.28 631.5,1703C 630.027,1703.71 629.36,1704.88 629.5,1706.5C 638.06,1706.3 646.394,1704.8 654.5,1702C 664.855,1698.15 675.188,1694.32 685.5,1690.5C 686.671,1694.49 687.505,1698.49 688,1702.5C 673.122,1715.05 657.956,1727.21 642.5,1739C 633.629,1744.94 623.963,1748.94 613.5,1751C 599.321,1751.83 590.488,1745.33 587,1731.5C 585.91,1727.38 585.077,1723.22 584.5,1719C 585.244,1715.8 585.744,1712.64 586,1709.5C 564.743,1698.73 558.743,1682.39 568,1660.5C 571.167,1656.67 574.333,1652.83 577.5,1649C 580.359,1646.82 583.526,1645.32 587,1644.5C 586.326,1640.77 585.826,1636.93 585.5,1633C 585.625,1630.45 585.958,1627.95 586.5,1625.5 Z"/></g>
<g><path style="opacity:1" fill="#b4cbe8" d="M 986.5,1636.5 C 986.735,1635.9 987.235,1635.57 988,1635.5C 993.374,1636.93 997.541,1639.93 1000.5,1644.5C 1012.27,1635.18 1023.93,1635.35 1035.5,1645C 1044.49,1652.13 1048.65,1661.3 1048,1672.5C 1052.13,1673.49 1055.96,1675.15 1059.5,1677.5C 1063.61,1685.03 1065.94,1693.03 1066.5,1701.5C 1059.45,1700 1052.45,1700.17 1045.5,1702C 1041.5,1704 1037.5,1706 1033.5,1708C 1029.47,1712.37 1025.13,1716.37 1020.5,1720C 1011.43,1722.69 1002.76,1726.36 994.5,1731C 992.339,1731.72 990.672,1731.05 989.5,1729C 1007.73,1716.27 1019.4,1699.1 1024.5,1677.5C 1023.5,1677.5 1022.5,1677.5 1021.5,1677.5C 1016.47,1694.71 1007.47,1709.55 994.5,1722C 992.194,1724.14 989.527,1725.64 986.5,1726.5C 983.638,1725.75 981.638,1724.09 980.5,1721.5C 983.045,1712.2 986.378,1703.2 990.5,1694.5C 990.167,1693.5 989.5,1692.83 988.5,1692.5C 983.678,1701.81 979.678,1711.48 976.5,1721.5C 975.328,1721.08 974.328,1720.41 973.5,1719.5C 976.922,1705.66 981.755,1692.32 988,1679.5C 992.397,1669.59 994.397,1659.26 994,1648.5C 992.886,1643.57 990.386,1639.57 986.5,1636.5 Z"/></g>
<g><path style="opacity:1" fill="#b4cce9" d="M 537.5,1642.5 C 537.696,1653.58 540.862,1663.92 547,1673.5C 557.559,1688.78 568.725,1703.61 580.5,1718C 576.633,1720.7 572.633,1723.2 568.5,1725.5C 557.631,1714.96 545.631,1705.96 532.5,1698.5C 530.646,1699.18 530.313,1700.18 531.5,1701.5C 544.585,1708.25 555.919,1717.25 565.5,1728.5C 563.141,1733.16 560.141,1737.16 556.5,1740.5C 547.115,1737.31 538.449,1732.81 530.5,1727C 529.056,1726.22 527.723,1726.39 526.5,1727.5C 535.532,1734.69 545.532,1740.35 556.5,1744.5C 555.926,1746.06 555.26,1747.56 554.5,1749C 538.091,1748.36 521.758,1746.7 505.5,1744C 492.932,1742.27 482.099,1737.1 473,1728.5C 468.333,1720.83 468.333,1713.17 473,1705.5C 476,1699.83 480.333,1695.5 486,1692.5C 481.32,1678.91 484.153,1667.07 494.5,1657C 504.784,1650.91 515.451,1650.08 526.5,1654.5C 528.829,1649.18 532.496,1645.18 537.5,1642.5 Z"/></g>
<g><path style="opacity:1" fill="#645024" d="M 694.5,1645.5 C 695.5,1645.5 696.5,1645.5 697.5,1645.5C 694.319,1654.66 693.819,1664 696,1673.5C 699.119,1683.73 703.285,1693.39 708.5,1702.5C 705.358,1702.2 703.191,1700.53 702,1697.5C 695.05,1686.48 691.217,1674.48 690.5,1661.5C 690.812,1655.9 692.146,1650.57 694.5,1645.5 Z"/></g>
<g><path style="opacity:1" fill="#b4cce9" d="M 869.5,1649.5 C 871.312,1660.3 875.146,1670.63 881,1680.5C 891.448,1695.28 902.282,1709.78 913.5,1724C 909.4,1726.47 905.566,1729.3 902,1732.5C 891.185,1721.35 879.018,1712.02 865.5,1704.5C 864.269,1705.65 864.269,1706.82 865.5,1708C 878.273,1715.1 889.606,1724.1 899.5,1735C 896.578,1738.09 894.245,1741.59 892.5,1745.5C 889.81,1746.6 887.143,1746.44 884.5,1745C 876.315,1740.93 868.315,1736.76 860.5,1732.5C 860.33,1733.82 860.663,1734.99 861.5,1736C 870.505,1742 880.171,1746.67 890.5,1750C 889.139,1751.58 888.472,1753.42 888.5,1755.5C 868.639,1754.56 848.973,1752.06 829.5,1748C 820.725,1746.03 813.225,1741.86 807,1735.5C 801.883,1725.79 802.549,1716.45 809,1707.5C 812.415,1703.58 816.249,1700.24 820.5,1697.5C 813.743,1677.51 820.41,1664.35 840.5,1658C 847.18,1656.83 853.513,1657.66 859.5,1660.5C 862.145,1656.19 865.479,1652.52 869.5,1649.5 Z"/></g>
<g><path style="opacity:1" fill="#b4cce9" d="M 1049.5,1703.5 C 1067.2,1701.2 1075.53,1708.87 1074.5,1726.5C 1090.14,1728.48 1098.14,1737.48 1098.5,1753.5C 1097.99,1758.56 1097.16,1763.56 1096,1768.5C 1093.99,1773.05 1091.16,1776.88 1087.5,1780C 1090.88,1783.93 1092.05,1788.43 1091,1793.5C 1088.39,1798.38 1086.06,1803.38 1084,1808.5C 1082.58,1810.64 1080.75,1811.8 1078.5,1812C 1072.62,1802.14 1063.96,1796.14 1052.5,1794C 1046.83,1793.67 1041.17,1793.33 1035.5,1793C 1027.05,1788.78 1018.39,1785.11 1009.5,1782C 1008.38,1778.59 1008.21,1775.09 1009,1771.5C 1024.91,1772.49 1040.74,1771.33 1056.5,1768C 1059.08,1765.97 1058.58,1764.81 1055,1764.5C 1039.95,1767.85 1024.79,1769.19 1009.5,1768.5C 1007.52,1762.26 1006.35,1755.93 1006,1749.5C 1009.75,1746.37 1013.92,1743.87 1018.5,1742C 1027.58,1738.86 1036.58,1735.53 1045.5,1732C 1046.9,1730.66 1046.57,1729.82 1044.5,1729.5C 1029.74,1733.19 1016.07,1739.19 1003.5,1747.5C 1000.87,1743.07 997.868,1738.9 994.5,1735C 1002.88,1729.65 1011.88,1725.65 1021.5,1723C 1025.8,1719.7 1029.8,1716.04 1033.5,1712C 1038.77,1708.87 1044.1,1706.03 1049.5,1703.5 Z"/></g>
<g><path style="opacity:1" fill="#b4cce9" d="M 689.5,1705.5 C 692.323,1706.15 693.823,1707.81 694,1710.5C 685.77,1715.4 678.104,1721.06 671,1727.5C 665.614,1733.94 662.114,1741.27 660.5,1749.5C 661.833,1749.5 663.167,1749.5 664.5,1749.5C 665.866,1741.43 669.366,1734.43 675,1728.5C 682.333,1723.17 689.667,1717.83 697,1712.5C 702.077,1718.08 707.577,1723.08 713.5,1727.5C 706.17,1740.83 698.336,1753.83 690,1766.5C 682.803,1774.19 674.303,1780.02 664.5,1784C 663.663,1785.01 663.33,1786.18 663.5,1787.5C 673.139,1784.05 681.972,1779.05 690,1772.5C 699.625,1758.86 708.458,1744.7 716.5,1730C 719.77,1730.46 722.77,1731.8 725.5,1734C 717.209,1752.29 708.042,1770.12 698,1787.5C 692.477,1798.92 690.144,1810.92 691,1823.5C 691.689,1826.41 692.855,1829.07 694.5,1831.5C 693.833,1831.83 693.167,1832.17 692.5,1832.5C 687.183,1831.01 682.183,1828.84 677.5,1826C 673.596,1822.27 669.929,1818.43 666.5,1814.5C 650.576,1820.73 636.743,1817.73 625,1805.5C 618.751,1795.26 616.751,1784.26 619,1772.5C 619.635,1771.03 620.469,1769.7 621.5,1768.5C 615.805,1766.39 611.305,1762.72 608,1757.5C 607.517,1756.55 607.351,1755.55 607.5,1754.5C 619.976,1754.73 631.309,1751.23 641.5,1744C 658.265,1732.06 674.265,1719.23 689.5,1705.5 Z"/></g>
<g><path style="opacity:1" fill="#a7b7ca" d="M 577.5,1710.5 C 577.56,1709.96 577.893,1709.62 578.5,1709.5C 579.7,1710.53 581.034,1711.36 582.5,1712C 581.874,1712.75 581.374,1713.58 581,1714.5C 580.051,1712.91 578.885,1711.57 577.5,1710.5 Z"/></g>
<g><path style="opacity:1" fill="#645024" d="M 710.5,1711.5 C 715.126,1714.48 720.126,1716.98 725.5,1719C 726.337,1720.01 726.67,1721.18 726.5,1722.5C 720.175,1722.09 715.009,1719.42 711,1714.5C 710.517,1713.55 710.351,1712.55 710.5,1711.5 Z"/></g>
<g><path style="opacity:1" fill="#f9b837" d="M 940.5,1717.5 C 990.533,1719.34 1011.03,1744.67 1002,1793.5C 998.041,1805.45 990.541,1814.28 979.5,1820C 963.084,1828.63 945.751,1831.3 927.5,1828C 894.259,1815.02 882.092,1791.19 891,1756.5C 897.528,1738.46 910.028,1726.63 928.5,1721C 932.543,1719.51 936.543,1718.34 940.5,1717.5 Z"/></g>
<g><path style="opacity:1" fill="#f8b837" d="M 579.5,1721.5 C 581.602,1726.49 583.435,1731.82 585,1737.5C 588.586,1745.42 594.42,1750.92 602.5,1754C 605.02,1761.19 609.687,1766.52 616.5,1770C 611.291,1787.16 615.291,1801.83 628.5,1814C 630.67,1815.59 633.004,1816.92 635.5,1818C 605.051,1830.19 580.218,1823.02 561,1796.5C 551.115,1774.57 552.781,1753.57 566,1733.5C 570.099,1728.89 574.599,1724.89 579.5,1721.5 Z"/></g>
<g><path style="opacity:1" fill="#abbed5" d="M 798.5,1724.5 C 800.207,1727.29 801.54,1730.46 802.5,1734C 802.22,1735.4 801.553,1736.56 800.5,1737.5C 798.374,1734.08 796.374,1730.58 794.5,1727C 796.066,1726.39 797.4,1725.56 798.5,1724.5 Z"/></g>
<g><path style="opacity:1" fill="#b4cbe8" d="M 790.5,1728.5 C 795.136,1734.78 798.469,1741.78 800.5,1749.5C 793.841,1754.67 788.341,1761 784,1768.5C 781.159,1757.47 777.993,1746.47 774.5,1735.5C 780.152,1733.67 785.486,1731.34 790.5,1728.5 Z"/></g>
<g><path style="opacity:1" fill="#b4cbe9" d="M 470.5,1731.5 C 478.693,1738.93 488.36,1743.76 499.5,1746C 517.351,1749.45 535.351,1751.61 553.5,1752.5C 552.207,1756.38 551.541,1760.38 551.5,1764.5C 533.837,1763.77 516.17,1763.6 498.5,1764C 493.74,1764.88 489.74,1767.04 486.5,1770.5C 487,1770.83 487.5,1771.17 488,1771.5C 491.675,1769.61 495.509,1768.11 499.5,1767C 516.835,1766.7 534.168,1766.86 551.5,1767.5C 551.887,1772.77 551.887,1777.93 551.5,1783C 536.935,1789.91 521.935,1795.08 506.5,1798.5C 523.004,1798.17 538.504,1793.84 553,1785.5C 553.97,1788.74 555.137,1791.91 556.5,1795C 542.042,1808.78 526.375,1821.12 509.5,1832C 500.96,1836.84 491.96,1838.18 482.5,1836C 475.254,1832.03 471.087,1825.87 470,1817.5C 469.741,1812.07 469.574,1806.74 469.5,1801.5C 457.539,1796.61 451.206,1787.61 450.5,1774.5C 452.17,1764.66 456.837,1756.5 464.5,1750C 466.659,1749.09 468.825,1748.25 471,1747.5C 470.64,1744.22 470.14,1740.88 469.5,1737.5C 469.672,1735.45 470.005,1733.45 470.5,1731.5 Z"/></g>
<g><path style="opacity:1" fill="#b4ccea" d="M 728.5,1735.5 C 732.417,1736.64 736.417,1737.47 740.5,1738C 741.428,1738.39 742.095,1739.05 742.5,1740C 735.023,1760.94 732.856,1782.44 736,1804.5C 736.473,1806.78 737.473,1808.78 739,1810.5C 739.991,1809.57 740.491,1808.4 740.5,1807C 736.458,1783.61 738.458,1760.78 746.5,1738.5C 754.856,1738.04 763.189,1737.37 771.5,1736.5C 777.494,1755.96 780.827,1775.79 781.5,1796C 786.898,1801.31 793.231,1806.31 800.5,1811C 802.181,1842.64 787.181,1856.31 755.5,1852C 746.924,1850.22 740.258,1845.72 735.5,1838.5C 730.807,1842.34 725.474,1843.84 719.5,1843C 713.748,1839.46 707.748,1836.46 701.5,1834C 694.958,1827.46 692.791,1819.63 695,1810.5C 696.053,1804.34 697.72,1798.34 700,1792.5C 705.889,1779.72 712.556,1767.39 720,1755.5C 722.938,1748.85 725.771,1742.18 728.5,1735.5 Z"/></g>
<g><path style="opacity:1" fill="#b4cce9" d="M 804.5,1737.5 C 814.934,1746.94 827.268,1752.44 841.5,1754C 856.505,1755.86 871.505,1757.7 886.5,1759.5C 885.756,1763.12 885.423,1766.79 885.5,1770.5C 868.168,1769.86 850.835,1769.7 833.5,1770C 829.195,1770.65 825.195,1772.15 821.5,1774.5C 820.614,1775.32 820.281,1776.32 820.5,1777.5C 825.042,1775.74 829.709,1774.24 834.5,1773C 851.197,1772.5 867.864,1773 884.5,1774.5C 885.259,1779.54 885.259,1784.54 884.5,1789.5C 870.893,1796.31 856.559,1800.81 841.5,1803C 840.663,1804.01 840.33,1805.18 840.5,1806.5C 856.236,1804.26 871.236,1799.59 885.5,1792.5C 886.086,1792.71 886.586,1793.04 887,1793.5C 888.354,1796.5 889.354,1799.5 890,1802.5C 878.441,1812.36 866.607,1821.86 854.5,1831C 847.91,1835.46 840.91,1839.13 833.5,1842C 813.855,1845.72 803.522,1837.38 802.5,1817C 802.642,1813.98 803.142,1811.15 804,1808.5C 788.844,1802.2 782.511,1790.86 785,1774.5C 787.911,1767.18 792.411,1761.01 798.5,1756C 800.345,1754.87 802.345,1754.37 804.5,1754.5C 804.076,1750.97 803.409,1747.47 802.5,1744C 802.875,1741.71 803.541,1739.54 804.5,1737.5 Z"/></g>
<g><path style="opacity:1" fill="#665224" d="M 562.5,1747.5 C 563.695,1747.87 564.361,1748.7 564.5,1750C 561.135,1757.29 560.635,1764.79 563,1772.5C 565.728,1780.94 569.228,1788.94 573.5,1796.5C 572.448,1796.65 571.448,1796.48 570.5,1796C 561.449,1783.96 557.615,1770.46 559,1755.5C 559.368,1752.43 560.535,1749.77 562.5,1747.5 Z"/></g>
<g><path style="opacity:1" fill="#675224" d="M 894.5,1754.5 C 895.5,1754.5 896.5,1754.5 897.5,1754.5C 896.315,1758.92 895.315,1763.42 894.5,1768C 895.054,1770.82 895.554,1773.66 896,1776.5C 898.701,1785.56 902.201,1794.22 906.5,1802.5C 904.408,1802.44 902.908,1801.44 902,1799.5C 894.752,1788.17 891.419,1775.84 892,1762.5C 892.941,1759.85 893.774,1757.18 894.5,1754.5 Z"/></g>
<g><path style="opacity:1" fill="#b4cce9" d="M 1007.5,1785.5 C 1009.93,1785.52 1012.26,1786.02 1014.5,1787C 1021.17,1790 1027.83,1793 1034.5,1796C 1049.19,1794.79 1062.02,1798.95 1073,1808.5C 1079.11,1819.24 1077.28,1828.24 1067.5,1835.5C 1075.15,1846.1 1075.32,1856.77 1068,1867.5C 1060.57,1878.3 1050.4,1883.3 1037.5,1882.5C 1036.79,1886.65 1035.12,1890.31 1032.5,1893.5C 1025.84,1895.83 1019.17,1898.16 1012.5,1900.5C 1010.67,1900.42 1009.34,1899.59 1008.5,1898C 1011.3,1881.07 1006.13,1866.9 993,1855.5C 989.372,1844.44 984.872,1833.78 979.5,1823.5C 982.242,1821.71 985.075,1820.04 988,1818.5C 994.96,1831.42 1003.63,1843.08 1014,1853.5C 1015.23,1852.72 1015.56,1851.72 1015,1850.5C 1005.6,1840.43 997.762,1829.26 991.5,1817C 994.862,1813.12 997.862,1808.95 1000.5,1804.5C 1001.36,1803.42 1002.36,1803.25 1003.5,1804C 1015.17,1810.67 1024.51,1819.67 1031.5,1831C 1032.72,1831.56 1033.72,1831.23 1034.5,1830C 1031.36,1822.86 1026.7,1816.86 1020.5,1812C 1014.67,1807.59 1008.67,1803.42 1002.5,1799.5C 1004.97,1795.1 1006.63,1790.44 1007.5,1785.5 Z"/></g>
<g><path style="opacity:1" fill="#b4cbe9" d="M 557.5,1798.5 C 559.257,1799.29 560.591,1800.63 561.5,1802.5C 553.614,1807.21 546.448,1812.88 540,1819.5C 537.565,1822.93 535.565,1826.6 534,1830.5C 533.192,1832.58 533.359,1834.58 534.5,1836.5C 537.111,1830.62 540.278,1824.95 544,1819.5C 550.082,1814.25 556.582,1809.59 563.5,1805.5C 568.207,1809.51 572.874,1813.51 577.5,1817.5C 570.918,1829 564.085,1840.33 557,1851.5C 550.938,1857.12 544.104,1861.62 536.5,1865C 535.663,1866.01 535.33,1867.18 535.5,1868.5C 545.359,1864.98 553.859,1859.31 561,1851.5C 567.177,1840.47 573.844,1829.8 581,1819.5C 583.39,1820.28 585.557,1821.44 587.5,1823C 579.748,1839.34 571.581,1855.5 563,1871.5C 557.818,1882.71 557.318,1894.04 561.5,1905.5C 551.559,1904.25 543.726,1899.25 538,1890.5C 534.962,1891.88 531.796,1892.88 528.5,1893.5C 524.655,1891.41 520.655,1889.58 516.5,1888C 509.372,1889.3 504.206,1886.8 501,1880.5C 496.177,1870.62 495.677,1860.62 499.5,1850.5C 493.915,1849.42 489.915,1846.26 487.5,1841C 498.454,1840.52 508.454,1837.19 517.5,1831C 531.602,1821.06 544.935,1810.23 557.5,1798.5 Z"/></g>
<g><path style="opacity:1" fill="#6d5625" d="M 575.5,1803.5 C 579.149,1806.33 583.149,1808.66 587.5,1810.5C 588.386,1811.32 588.719,1812.32 588.5,1813.5C 582.625,1812.9 577.958,1810.23 574.5,1805.5C 574.863,1804.82 575.196,1804.15 575.5,1803.5 Z"/></g>
<g><path style="opacity:1" fill="#b4cbe9" d="M 891.5,1804.5 C 893.416,1805.67 894.249,1807.33 894,1809.5C 887.823,1813.59 881.823,1817.92 876,1822.5C 870.936,1828.29 867.77,1834.96 866.5,1842.5C 867.5,1842.5 868.5,1842.5 869.5,1842.5C 871.134,1833.74 875.467,1826.57 882.5,1821C 887.419,1817.96 892.252,1814.79 897,1811.5C 901.865,1815.37 906.365,1819.53 910.5,1824C 903.968,1836.23 896.801,1848.07 889,1859.5C 883.253,1863.96 877.086,1867.79 870.5,1871C 868.441,1872.19 868.274,1873.35 870,1874.5C 878.675,1871 886.341,1866 893,1859.5C 899.959,1848.42 906.792,1837.25 913.5,1826C 916.308,1826.07 918.641,1827.24 920.5,1829.5C 913.342,1845.49 905.509,1861.16 897,1876.5C 892.956,1885.43 891.289,1894.77 892,1904.5C 892.598,1907.31 893.765,1909.81 895.5,1912C 885.041,1910.72 877.041,1905.55 871.5,1896.5C 856.872,1902.93 844.706,1899.93 835,1887.5C 830.094,1877.48 829.261,1867.15 832.5,1856.5C 827.378,1855.39 823.712,1852.39 821.5,1847.5C 833.671,1846.39 844.671,1842.22 854.5,1835C 867.314,1825.35 879.647,1815.18 891.5,1804.5 Z"/></g>
<g><path style="opacity:1" fill="#685324" d="M 908.5,1810.5 C 913.251,1812.73 917.918,1815.23 922.5,1818C 919.488,1819.48 916.488,1819.14 913.5,1817C 910.466,1815.81 908.799,1813.64 908.5,1810.5 Z"/></g>
<g><path style="opacity:1" fill="#b4cbe9" d="M 664.5,1818.5 C 673.222,1829.87 684.889,1836.03 699.5,1837C 705.96,1840.06 712.293,1843.4 718.5,1847C 721.429,1847.78 724.263,1847.61 727,1846.5C 726.645,1854.45 725.978,1862.45 725,1870.5C 718.876,1875.21 712.043,1877.04 704.5,1876C 703.142,1879.07 701.975,1882.24 701,1885.5C 695.464,1888.57 689.631,1891.07 683.5,1893C 680.446,1893.82 677.446,1893.65 674.5,1892.5C 677.166,1884.81 677,1877.14 674,1869.5C 670.552,1861.39 665.552,1854.39 659,1848.5C 656.086,1839.42 652.586,1830.59 648.5,1822C 651.861,1821.66 655.194,1821.16 658.5,1820.5C 663.514,1826.03 668.014,1832.03 672,1838.5C 674.714,1841.55 677.714,1844.22 681,1846.5C 682.257,1846.15 682.591,1845.48 682,1844.5C 675.276,1837.38 669.276,1829.71 664,1821.5C 663.53,1820.42 663.697,1819.42 664.5,1818.5 Z"/></g>
<g><path style="opacity:1" fill="#b4ccea" d="M 637.5,1820.5 C 640.119,1820.23 642.619,1820.56 645,1821.5C 649.258,1830.61 652.924,1839.94 656,1849.5C 661.825,1854.99 666.491,1861.32 670,1868.5C 674.509,1877.21 674.509,1885.87 670,1894.5C 664.661,1900.28 658.161,1902.45 650.5,1901C 647.188,1916.77 637.354,1924.27 621,1923.5C 610.67,1923.51 602.337,1919.51 596,1911.5C 591.969,1914.51 587.469,1915.68 582.5,1915C 577.212,1912.07 571.878,1909.24 566.5,1906.5C 561.883,1900.98 560.383,1894.64 562,1887.5C 562.414,1883.34 563.414,1879.34 565,1875.5C 572.063,1861.04 579.396,1846.71 587,1832.5C 588.136,1829.9 588.969,1827.24 589.5,1824.5C 593.851,1825.17 598.184,1826 602.5,1827C 595.912,1844.24 593.745,1862.07 596,1880.5C 596.133,1883.41 597.3,1885.75 599.5,1887.5C 600.238,1883.87 600.071,1880.2 599,1876.5C 597.8,1859.37 599.966,1842.71 605.5,1826.5C 612.515,1826.42 619.515,1826.09 626.5,1825.5C 630.955,1842.97 634.622,1860.14 637.5,1877C 638.635,1872.25 638.802,1867.42 638,1862.5C 635.953,1849.31 633.119,1836.31 629.5,1823.5C 632.542,1823.27 635.208,1822.27 637.5,1820.5 Z"/></g>
<g><path style="opacity:1" fill="#b4cce9" d="M 973.5,1825.5 C 974.978,1825.24 976.311,1825.57 977.5,1826.5C 982.353,1836.23 986.519,1846.23 990,1856.5C 997.604,1863.37 1002.94,1871.71 1006,1881.5C 1009.33,1899.99 1001.83,1908.32 983.5,1906.5C 980.71,1922.61 971.043,1930.27 954.5,1929.5C 943.888,1930.03 935.554,1926.03 929.5,1917.5C 925.374,1920.82 920.708,1921.99 915.5,1921C 908.611,1918.31 902.444,1914.47 897,1909.5C 894.858,1905.03 894.191,1900.36 895,1895.5C 896.328,1887.85 898.661,1880.52 902,1873.5C 909.948,1859.94 917.115,1845.94 923.5,1831.5C 924,1831.17 924.5,1830.83 925,1830.5C 928.35,1831.97 931.85,1832.64 935.5,1832.5C 928.288,1852.06 926.788,1872.06 931,1892.5C 932.297,1893.78 933.464,1893.62 934.5,1892C 930.22,1871.89 931.887,1852.22 939.5,1833C 945.186,1832.69 950.853,1832.19 956.5,1831.5C 957.5,1831.83 958.5,1832.17 959.5,1832.5C 965.197,1849.02 968.197,1866.02 968.5,1883.5C 969.5,1883.5 970.5,1883.5 971.5,1883.5C 971.782,1865.41 968.782,1847.91 962.5,1831C 966.367,1829.44 970.034,1827.61 973.5,1825.5 Z"/></g>
<g><path style="opacity:1" fill="#fefefd" d="M 802.5,1832.5 C 805.52,1839.18 810.52,1843.85 817.5,1846.5C 819.378,1852.38 823.045,1856.71 828.5,1859.5C 824.15,1877.98 830.15,1891.81 846.5,1901C 854.562,1904.33 862.562,1904.16 870.5,1900.5C 877.589,1910.38 887.256,1915.55 899.5,1916C 904.41,1918.86 909.41,1921.52 914.5,1924C 894.006,1925.95 874.673,1931.62 856.5,1941C 852.333,1944.5 848.167,1948 844,1951.5C 843.333,1949.83 843.333,1948.17 844,1946.5C 846.048,1940.03 847.881,1933.53 849.5,1927C 849.427,1920.93 846.427,1918.6 840.5,1920C 834.871,1922.4 830.037,1925.9 826,1930.5C 817.927,1943.47 808.761,1955.64 798.5,1967C 792.061,1972.39 784.727,1975.89 776.5,1977.5C 763.463,1938.17 759.13,1897.84 763.5,1856.5C 782.715,1858.4 795.715,1850.4 802.5,1832.5 Z"/></g>
<g><path style="opacity:1" fill="#3c8f6f" d="M 733.5,1843.5 C 736.667,1846.78 740.334,1849.61 744.5,1852C 749.298,1854.21 754.298,1855.71 759.5,1856.5C 757.448,1885.63 758.614,1914.63 763,1943.5C 766.402,1957.79 770.402,1971.79 775,1985.5C 766.159,1974.48 755.992,1965.15 744.5,1957.5C 738.927,1931.82 736.427,1905.82 737,1879.5C 735.989,1878.66 734.822,1878.33 733.5,1878.5C 732.677,1905.47 735.01,1932.13 740.5,1958.5C 736.962,1958.78 735.129,1957.12 735,1953.5C 729.809,1922.38 728.142,1891.05 730,1859.5C 730.333,1854.83 730.667,1850.17 731,1845.5C 731.995,1844.93 732.828,1844.27 733.5,1843.5 Z"/></g>
<g><path style="opacity:1" fill="#fefefd" d="M 724.5,1874.5 C 724.242,1906.03 727.409,1937.36 734,1968.5C 735.972,1972.94 737.805,1977.44 739.5,1982C 739.167,1982.5 738.833,1983 738.5,1983.5C 725.819,1975.49 713.485,1966.99 701.5,1958C 689.236,1950.6 675.902,1946.6 661.5,1946C 647.171,1945.5 632.837,1945.33 618.5,1945.5C 619.19,1939.19 619.524,1932.86 619.5,1926.5C 636.875,1928.34 647.875,1921 652.5,1904.5C 659.99,1905.12 666.323,1902.78 671.5,1897.5C 676.132,1896.67 680.798,1896.17 685.5,1896C 689.95,1893.74 694.617,1892.07 699.5,1891C 703.361,1888.27 705.695,1884.6 706.5,1880C 713.179,1880 719.179,1878.17 724.5,1874.5 Z"/></g>
<g><path style="opacity:1" fill="#3c8f6f" d="M 508.5,1890.5 C 514.355,1890.84 519.688,1892.67 524.5,1896C 536.446,1907.95 548.446,1919.95 560.5,1932C 571.263,1940.88 583.596,1946.21 597.5,1948C 614.833,1948.33 632.167,1948.67 649.5,1949C 667.292,1948.62 683.958,1952.62 699.5,1961C 713.913,1971.29 728.413,1981.46 743,1991.5C 746.659,2005.08 748.825,2018.75 749.5,2032.5C 733.293,2022.43 720.46,2009.09 711,1992.5C 706.543,1987.28 701.21,1983.28 695,1980.5C 693.941,1980.63 693.108,1981.13 692.5,1982C 697.956,1985.79 703.123,1989.95 708,1994.5C 716.134,2006.85 724.8,2017.85 734,2027.5C 715.986,2023.21 698.153,2018.37 680.5,2013C 672.181,2009.18 664.181,2004.84 656.5,2000C 648.167,1992.33 639.833,1984.67 631.5,1977C 625.724,1972.78 619.391,1969.61 612.5,1967.5C 610.512,1968.29 610.179,1969.46 611.5,1971C 618.008,1973.05 624.008,1976.05 629.5,1980C 641.162,1993.34 654.829,2004.01 670.5,2012C 654.839,2009.74 639.172,2007.07 623.5,2004C 613.186,2000.69 603.52,1996.02 594.5,1990C 591.882,1987.26 589.382,1984.43 587,1981.5C 580.583,1971 573.916,1960.66 567,1950.5C 564.353,1946.65 560.853,1944.32 556.5,1943.5C 556.351,1944.55 556.517,1945.55 557,1946.5C 562.244,1950.32 566.578,1954.99 570,1960.5C 574.041,1967.42 578.208,1974.25 582.5,1981C 581.833,1981.67 581.167,1981.67 580.5,1981C 569.702,1972.54 559.869,1963.04 551,1952.5C 541.917,1938.67 533.083,1924.67 524.5,1910.5C 523.675,1909.61 522.675,1909.28 521.5,1909.5C 521.46,1912.42 522.293,1915.09 524,1917.5C 534.189,1935.22 545.856,1951.88 559,1967.5C 574.873,1982.52 592.706,1994.69 612.5,2004C 594.038,2004.44 576.038,2001.78 558.5,1996C 553.89,1993.53 549.223,1991.36 544.5,1989.5C 544.33,1990.82 544.663,1991.99 545.5,1993C 555.055,1998.94 565.388,2002.94 576.5,2005C 595.458,2007.11 614.458,2008.78 633.5,2010C 653.624,2013.02 673.624,2016.69 693.5,2021C 683.432,2021.34 673.432,2022.34 663.5,2024C 647.055,2027.19 630.722,2030.86 614.5,2035C 606.135,2035.21 597.802,2034.71 589.5,2033.5C 589.33,2034.82 589.663,2035.99 590.5,2037C 596.995,2037.89 603.495,2038.72 610,2039.5C 629.368,2034.78 648.868,2030.62 668.5,2027C 694.575,2022.94 719.908,2025.6 744.5,2035C 746.996,2036.08 749.33,2037.41 751.5,2039C 744.147,2038.05 736.814,2038.38 729.5,2040C 717.027,2043.94 704.694,2048.27 692.5,2053C 687.225,2054.32 681.892,2055.32 676.5,2056C 675.149,2058.13 675.815,2059.29 678.5,2059.5C 684.205,2058.53 689.872,2057.36 695.5,2056C 706.423,2051.8 717.423,2047.8 728.5,2044C 736.111,2042.52 743.778,2042.19 751.5,2043C 755.317,2054.47 761.317,2064.64 769.5,2073.5C 760.75,2074.09 752.084,2075.25 743.5,2077C 725.426,2084.69 706.592,2088.86 687,2089.5C 665.187,2089.34 645.021,2083.51 626.5,2072C 609.118,2058.97 590.452,2047.97 570.5,2039C 554.901,2029.4 542.734,2016.57 534,2000.5C 531.193,1994.08 529.193,1987.41 528,1980.5C 525.169,1959.68 521.502,1939.02 517,1918.5C 514.108,1911.28 510.774,1904.28 507,1897.5C 506.167,1894.83 506.667,1892.5 508.5,1890.5 Z"/></g>
<g><path style="opacity:1" fill="#fcfcfb" d="M 535.5,1894.5 C 538.929,1897.75 542.596,1900.92 546.5,1904C 552.399,1907.45 558.733,1909.45 565.5,1910C 570.833,1912.67 576.167,1915.33 581.5,1918C 583.81,1918.5 586.143,1918.66 588.5,1918.5C 588.332,1926.52 587.832,1934.52 587,1942.5C 571.192,1936.38 557.859,1926.71 547,1913.5C 542.2,1907.7 537.033,1902.2 531.5,1897C 532.858,1896.07 534.192,1895.23 535.5,1894.5 Z"/></g>
<g><path style="opacity:1" fill="#3c8f6f" d="M 1023.5,1899.5 C 1025.11,1919.4 1024.61,1939.4 1022,1959.5C 1016.67,1978.98 1006.17,1995.15 990.5,2008C 981.341,2014.75 972.008,2021.25 962.5,2027.5C 960.529,2022.95 958.862,2018.29 957.5,2013.5C 957.709,2012.91 958.043,2012.41 958.5,2012C 962.535,2010.93 966.535,2009.77 970.5,2008.5C 971.386,2007.68 971.719,2006.68 971.5,2005.5C 966.4,2006.03 961.4,2007.03 956.5,2008.5C 954.844,1999.58 953.844,1990.58 953.5,1981.5C 974.077,1978.59 992.577,1970.93 1009,1958.5C 1009.48,1957.55 1009.65,1956.55 1009.5,1955.5C 1007.69,1955.49 1006.02,1955.99 1004.5,1957C 989.121,1968.51 971.787,1975.35 952.5,1977.5C 952.343,1976.13 952.51,1974.79 953,1973.5C 977.771,1955.62 996.104,1932.62 1008,1904.5C 1013.69,1904.24 1018.85,1902.57 1023.5,1899.5 Z"/></g>
<g><path style="opacity:1" fill="#3d8d6d" d="M 1002.5,1905.5 C 996.129,1923.47 985.629,1939.14 971,1952.5C 973.32,1945.5 975.987,1938.5 979,1931.5C 981.879,1925.29 985.546,1919.63 990,1914.5C 990.483,1913.55 990.649,1912.55 990.5,1911.5C 988.891,1911.91 987.557,1911.91 986.5,1911.5C 990.192,1910.75 993.858,1909.91 997.5,1909C 999.584,1908.3 1001.25,1907.14 1002.5,1905.5 Z"/></g>
<g><path style="opacity:1" fill="#3d8e6e" d="M 594.5,1915.5 C 600.392,1921.78 607.725,1925.45 616.5,1926.5C 615.926,1932.48 615.593,1938.48 615.5,1944.5C 607.138,1944.67 598.805,1944.33 590.5,1943.5C 590.608,1936.48 591.108,1929.48 592,1922.5C 592.168,1919.82 593.001,1917.49 594.5,1915.5 Z"/></g>
<g><path style="opacity:1" fill="#3d8e6e" d="M 841.5,1922.5 C 845.24,1921.74 846.907,1923.24 846.5,1927C 844.674,1933.15 842.841,1939.31 841,1945.5C 840.667,1948.83 840.333,1952.17 840,1955.5C 835.833,1959.67 831.667,1963.83 827.5,1968C 826.833,1968.67 826.167,1968.67 825.5,1968C 830.158,1958.86 833.825,1949.36 836.5,1939.5C 835.5,1939.5 834.5,1939.5 833.5,1939.5C 832.84,1943.31 831.674,1946.98 830,1950.5C 826,1959.17 822,1967.83 818,1976.5C 811.667,1981.5 806,1987.17 801,1993.5C 803.003,1986.34 806.503,1979.84 811.5,1974C 810.725,1972.77 809.725,1972.44 808.5,1973C 805.612,1976.22 803.112,1979.72 801,1983.5C 798.59,1989.32 795.923,1994.98 793,2000.5C 789.484,1998.07 786.151,1995.41 783,1992.5C 781.202,1988.58 779.702,1984.58 778.5,1980.5C 785.493,1979.11 791.826,1976.28 797.5,1972C 808.57,1961.01 818.07,1948.84 826,1935.5C 830.48,1930.17 835.647,1925.84 841.5,1922.5 Z"/></g>
<g><path style="opacity:1" fill="#3c8e6e" d="M 1002.5,2244.5 C 996.167,2244.5 989.833,2244.5 983.5,2244.5C 984.392,2239.56 984.726,2234.56 984.5,2229.5C 983.5,2229.5 982.5,2229.5 981.5,2229.5C 981.663,2234.55 981.329,2239.55 980.5,2244.5C 979.5,2244.5 978.5,2244.5 977.5,2244.5C 977.235,2237.13 977.569,2229.8 978.5,2222.5C 977.059,2180.19 969.893,2138.86 957,2098.5C 948.194,2071.75 939.194,2045.08 930,2018.5C 924.317,1987.04 922.984,1955.37 926,1923.5C 926.689,1922.64 927.522,1921.98 928.5,1921.5C 933.9,1928.04 940.9,1931.7 949.5,1932.5C 949.781,1941.87 949.447,1951.2 948.5,1960.5C 948.743,1981.53 951.577,2002.19 957,2022.5C 971.081,2058.74 982.748,2095.74 992,2133.5C 1000.64,2170.01 1004.14,2207.01 1002.5,2244.5 Z"/></g>
<g><path style="opacity:1" fill="#3c8f6f" d="M 921.5,1926.5 C 922.097,1926.74 922.43,1927.24 922.5,1928C 921.986,1937.9 921.153,1947.73 920,1957.5C 912.916,1967.26 905.083,1976.42 896.5,1985C 885.432,1994.39 873.099,2001.72 859.5,2007C 851.5,2007.67 843.5,2007.67 835.5,2007C 840.713,1998.74 845.546,1990.24 850,1981.5C 853,1977.17 856.667,1973.5 861,1970.5C 861.432,1969.4 860.932,1968.73 859.5,1968.5C 855.315,1970.17 851.815,1972.84 849,1976.5C 843.293,1986.75 837.46,1996.91 831.5,2007C 819.648,2008.4 808.315,2006.74 797.5,2002C 817.463,1981.19 838.463,1961.53 860.5,1943C 866.264,1939.78 872.264,1937.12 878.5,1935C 892.804,1931.31 907.138,1928.47 921.5,1926.5 Z"/></g>
<g><path style="opacity:1" fill="#3d8e6e" d="M 975.5,1926.5 C 976.239,1926.37 976.906,1926.54 977.5,1927C 973.145,1936.88 968.645,1946.71 964,1956.5C 961.247,1961.34 957.58,1965.34 953,1968.5C 952.229,1956.47 952.395,1944.47 953.5,1932.5C 960.462,1932.94 967.129,1931.77 973.5,1929C 974.381,1928.29 975.047,1927.46 975.5,1926.5 Z"/></g>
<g><path style="opacity:1" fill="#3c8f6f" d="M 1173.5,1929.5 C 1175.5,1929.5 1177.5,1929.5 1179.5,1929.5C 1179.55,1936.18 1178.05,1942.52 1175,1948.5C 1174.67,1951.17 1174.33,1953.83 1174,1956.5C 1173.23,1977.86 1172.23,1999.2 1171,2020.5C 1167.11,2034.38 1159.94,2046.21 1149.5,2056C 1139.7,2064.4 1129.37,2072.06 1118.5,2079C 1088.44,2113.8 1051.11,2125.46 1006.5,2114C 1000.84,2113.5 995.176,2113.33 989.5,2113.5C 988.544,2106.84 986.877,2100.34 984.5,2094C 987.781,2089.02 992.448,2086.02 998.5,2085C 1001,2084.5 1003.5,2084 1006,2083.5C 1018.26,2085.15 1030.43,2087.32 1042.5,2090C 1048.16,2090.5 1053.82,2090.67 1059.5,2090.5C 1059.5,2089.5 1059.5,2088.5 1059.5,2087.5C 1054.16,2087.67 1048.82,2087.5 1043.5,2087C 1031.11,2084.19 1018.61,2082.02 1006,2080.5C 1002.11,2081.1 998.281,2081.6 994.5,2082C 1015.19,2068.22 1038.02,2061.72 1063,2062.5C 1076.69,2063.24 1090.35,2064.24 1104,2065.5C 1112.11,2065.51 1119.95,2064.01 1127.5,2061C 1128.74,2059.51 1128.24,2058.68 1126,2058.5C 1119.01,2060.8 1111.84,2062.13 1104.5,2062.5C 1083.86,2059.87 1063.2,2059.03 1042.5,2060C 1058.54,2053.54 1074.88,2047.87 1091.5,2043C 1107.69,2039.76 1123.69,2035.76 1139.5,2031C 1147.05,2027.98 1153.88,2023.81 1160,2018.5C 1160.75,2017.36 1160.58,2016.36 1159.5,2015.5C 1154.01,2020.08 1148.01,2023.92 1141.5,2027C 1129.74,2031.27 1117.74,2034.27 1105.5,2036C 1139.01,2014.36 1160.01,1984.19 1168.5,1945.5C 1162.54,1957.52 1157.04,1969.85 1152,1982.5C 1145.54,1994.3 1137.54,2004.96 1128,2014.5C 1131.6,2002.3 1137.1,1990.97 1144.5,1980.5C 1144.19,1979.69 1143.69,1979.03 1143,1978.5C 1139.51,1982.14 1136.51,1986.14 1134,1990.5C 1130.1,2000.88 1125.43,2010.88 1120,2020.5C 1110.87,2029.98 1100.04,2036.82 1087.5,2041C 1078.46,2043.91 1069.46,2046.57 1060.5,2049C 1066.3,2044.2 1071.8,2039.03 1077,2033.5C 1083.34,2023.12 1091.68,2014.79 1102,2008.5C 1102.43,2007.4 1101.93,2006.73 1100.5,2006.5C 1093.55,2009.24 1087.72,2013.57 1083,2019.5C 1073.35,2035.49 1060.18,2047.65 1043.5,2056C 1030.79,2061.23 1018.12,2066.23 1005.5,2071C 1008.45,2067.59 1011.29,2064.09 1014,2060.5C 1018.41,2052.01 1023.08,2043.67 1028,2035.5C 1030.04,2033.13 1032.37,2031.13 1035,2029.5C 1035.56,2028.28 1035.23,2027.28 1034,2026.5C 1024.41,2033.64 1017.75,2042.98 1014,2054.5C 1011.25,2059.01 1008.25,2063.34 1005,2067.5C 997.323,2074.01 990.156,2081.01 983.5,2088.5C 981.168,2081.84 978.835,2075.17 976.5,2068.5C 980.917,2056.9 987.917,2047.07 997.5,2039C 1009.83,2028 1022.17,2017 1034.5,2006C 1041.7,2001.82 1049.37,1998.82 1057.5,1997C 1074.9,1994.39 1092.23,1991.39 1109.5,1988C 1121.62,1985.03 1131.78,1978.86 1140,1969.5C 1147.58,1959.34 1154.91,1949.01 1162,1938.5C 1165.16,1934.49 1168.99,1931.49 1173.5,1929.5 Z"/></g>
<g><path style="opacity:1" fill="#5a4f28" d="M 927.5,1951.5 C 928.5,1951.5 929.5,1951.5 930.5,1951.5C 930.09,1979.41 933.756,2006.74 941.5,2033.5C 941.167,2034.5 940.5,2035.17 939.5,2035.5C 936.237,2027.46 933.737,2019.13 932,2010.5C 929.009,1990.95 927.509,1971.28 927.5,1951.5 Z"/></g>
<g><path style="opacity:1" fill="#3c8f6f" d="M 403.5,1955.5 C 409.092,1955.09 414.092,1956.59 418.5,1960C 428.779,1970.28 439.113,1980.61 449.5,1991C 459.057,1998.86 470.057,2003.19 482.5,2004C 499.177,2004.17 515.843,2004.67 532.5,2005.5C 542.74,2022.24 556.407,2035.41 573.5,2045C 578.667,2051.5 583.833,2058 589,2064.5C 591.445,2065.98 593.612,2067.81 595.5,2070C 580.376,2067.14 565.376,2063.47 550.5,2059C 534.526,2052.18 520.86,2042.18 509.5,2029C 504.945,2025.55 499.945,2022.89 494.5,2021C 493.056,2020.22 491.723,2020.39 490.5,2021.5C 503.231,2027.56 514.231,2036.06 523.5,2047C 528.833,2050.33 534.167,2053.67 539.5,2057C 525.73,2055.65 512.063,2053.32 498.5,2050C 488.305,2046.65 479.471,2041.15 472,2033.5C 465.61,2021.88 458.11,2011.05 449.5,2001C 446.715,1998.49 445.548,1998.99 446,2002.5C 455,2010.91 461.5,2020.57 465.5,2031.5C 457.214,2024.72 449.381,2017.38 442,2009.5C 433.487,1996.46 424.987,1983.46 416.5,1970.5C 415.401,1973.36 415.901,1976.03 418,1978.5C 425.591,1991.35 433.924,2003.69 443,2015.5C 456.272,2030.05 471.772,2041.55 489.5,2050C 469.965,2051.53 451.631,2047.69 434.5,2038.5C 434.281,2039.68 434.614,2040.68 435.5,2041.5C 442.689,2045.76 450.356,2048.93 458.5,2051C 492.524,2053.13 526.191,2057.79 559.5,2065C 537.432,2066.81 515.766,2070.81 494.5,2077C 488.071,2077.77 481.738,2077.27 475.5,2075.5C 471.43,2077.21 471.764,2078.38 476.5,2079C 483.444,2080.45 490.444,2080.79 497.5,2080C 518.153,2073.34 539.32,2069.5 561,2068.5C 578.019,2068.8 594.185,2072.63 609.5,2080C 605.216,2079.54 600.882,2079.54 596.5,2080C 584.227,2083.2 572.227,2087.2 560.5,2092C 555.565,2093.27 550.565,2094.1 545.5,2094.5C 545.5,2095.5 545.5,2096.5 545.5,2097.5C 550.937,2097.38 556.27,2096.55 561.5,2095C 571.965,2090.77 582.632,2087.1 593.5,2084C 601.348,2082.91 609.015,2083.58 616.5,2086C 617.333,2086.83 618.167,2087.67 619,2088.5C 621.068,2095.54 623.234,2102.54 625.5,2109.5C 618.478,2110.21 611.478,2111.04 604.5,2112C 588.925,2118.44 572.758,2122.27 556,2123.5C 537.204,2122.86 519.704,2117.69 503.5,2108C 490.152,2097.32 475.486,2088.65 459.5,2082C 445.284,2073.45 434.117,2061.95 426,2047.5C 423.928,2041.95 422.262,2036.29 421,2030.5C 418.849,2014.41 416.182,1998.41 413,1982.5C 411.08,1975.33 408.08,1968.66 404,1962.5C 403.503,1960.19 403.337,1957.86 403.5,1955.5 Z"/></g>
<g><path style="opacity:1" fill="#3c8f6f" d="M 737.5,1961.5 C 742.686,1961.46 747.353,1962.96 751.5,1966C 761.446,1975.95 771.446,1985.95 781.5,1996C 791.477,2004.77 803.144,2009.44 816.5,2010C 832.167,2010.33 847.833,2010.67 863.5,2011C 876.358,2011.3 888.358,2014.64 899.5,2021C 910.892,2029.39 922.559,2037.39 934.5,2045C 940.726,2058.51 945.393,2072.35 948.5,2086.5C 931.858,2077.02 918.691,2064.02 909,2047.5C 905.46,2042.78 900.96,2039.45 895.5,2037.5C 894.068,2037.73 893.568,2038.4 894,2039.5C 903.763,2045.93 911.43,2054.26 917,2064.5C 920.833,2068.33 924.667,2072.17 928.5,2076C 903.757,2073.82 881.09,2065.82 860.5,2052C 853.765,2044.59 846.432,2037.93 838.5,2032C 834.137,2029.32 829.47,2027.48 824.5,2026.5C 824.281,2027.68 824.614,2028.68 825.5,2029.5C 829.619,2031.06 833.619,2032.89 837.5,2035C 843.802,2040.3 849.802,2045.97 855.5,2052C 860.996,2055.92 866.663,2059.58 872.5,2063C 859.749,2061.88 847.082,2059.88 834.5,2057C 823.706,2053.69 814.206,2048.19 806,2040.5C 800.604,2032.77 795.604,2024.77 791,2016.5C 788,2012.17 784.333,2008.5 780,2005.5C 778.77,2006.28 778.437,2007.28 779,2008.5C 782.667,2010.83 785.667,2013.83 788,2017.5C 792.332,2024.52 796.332,2031.52 800,2038.5C 779.237,2022.31 763.237,2002.31 752,1978.5C 750.684,1975.97 749.517,1975.97 748.5,1978.5C 756.957,1994.45 766.79,2009.45 778,2023.5C 791.637,2037.81 807.47,2048.97 825.5,2057C 805.552,2058.25 786.885,2054.08 769.5,2044.5C 768.417,2045.36 768.251,2046.36 769,2047.5C 777.095,2052.76 785.929,2056.26 795.5,2058C 827.563,2059.47 859.23,2063.8 890.5,2071C 869.979,2073.49 849.646,2077.49 829.5,2083C 821.764,2083.55 814.097,2083.05 806.5,2081.5C 806.33,2082.82 806.663,2083.99 807.5,2085C 815.452,2086.44 823.452,2086.78 831.5,2086C 846.561,2081.4 861.894,2078.07 877.5,2076C 900.22,2072.75 921.887,2076.08 942.5,2086C 935.77,2086.17 929.103,2086.84 922.5,2088C 912.167,2091.67 901.833,2095.33 891.5,2099C 887.5,2099.67 883.5,2100.33 879.5,2101C 879.043,2101.41 878.709,2101.91 878.5,2102.5C 883.185,2103.63 887.851,2103.46 892.5,2102C 904.103,2097.8 915.77,2093.8 927.5,2090C 932.5,2089.33 937.5,2089.33 942.5,2090C 946.062,2090.74 949.228,2092.24 952,2094.5C 954.469,2101.41 956.636,2108.41 958.5,2115.5C 951.837,2116.36 945.171,2117.19 938.5,2118C 922.463,2124.68 905.796,2128.51 888.5,2129.5C 869.775,2128.99 852.442,2123.82 836.5,2114C 823.152,2103.32 808.486,2094.65 792.5,2088C 777.897,2079.4 766.731,2067.56 759,2052.5C 756.573,2046.37 754.907,2040.03 754,2033.5C 751.592,2015.98 748.259,1998.64 744,1981.5C 741.651,1976.8 739.318,1972.14 737,1967.5C 736.322,1965.4 736.489,1963.4 737.5,1961.5 Z"/></g>
<g><path style="opacity:1" fill="#3e8d6c" d="M 920.5,1961.5 C 921.82,1969.34 921.82,1977.34 920.5,1985.5C 910.164,1989 899.831,1992.17 889.5,1995C 902.133,1985.87 912.466,1974.7 920.5,1961.5 Z"/></g>
<g><path style="opacity:1" fill="#3d8e6e" d="M 918.5,1989.5 C 919.833,1989.5 921.167,1989.5 922.5,1989.5C 923.021,1995.85 923.687,2002.19 924.5,2008.5C 905.467,2006.09 886.467,2005.92 867.5,2008C 884.382,2001.21 901.382,1995.05 918.5,1989.5 Z"/></g>
<g><path style="opacity:1" fill="#3d8e6d" d="M 884.5,2011.5 C 898.099,2010.05 911.766,2010.55 925.5,2013C 927.827,2022.3 930.327,2031.47 933,2040.5C 922.167,2033 911.333,2025.5 900.5,2018C 895.475,2014.98 890.142,2012.82 884.5,2011.5 Z"/></g>
<g><path style="opacity:1" fill="#3d8d6d" d="M 581.5,2050.5 C 581.56,2049.96 581.893,2049.62 582.5,2049.5C 592.284,2053.89 601.618,2059.06 610.5,2065C 613.163,2070.32 614.996,2075.82 616,2081.5C 610.277,2076.39 604.11,2071.89 597.5,2068C 591.563,2062.57 586.23,2056.74 581.5,2050.5 Z"/></g>
<g><path style="opacity:1" fill="#3c8e6e" d="M 668.5,2244.5 C 662.167,2244.5 655.833,2244.5 649.5,2244.5C 650.233,2237.51 650.899,2230.51 651.5,2223.5C 650.178,2223.33 649.011,2223.66 648,2224.5C 647.547,2231.18 647.047,2237.84 646.5,2244.5C 645.5,2244.5 644.5,2244.5 643.5,2244.5C 646.499,2206.32 643.332,2168.65 634,2131.5C 628.622,2110.64 622.955,2089.98 617,2069.5C 626.111,2076.81 636.278,2082.14 647.5,2085.5C 651.64,2100.06 655.474,2114.73 659,2129.5C 667.942,2167.36 671.109,2205.69 668.5,2244.5 Z"/></g>
<g><path style="opacity:1" fill="#3c8f6e" d="M 752.5,2078.5 C 758.833,2078.5 765.167,2078.5 771.5,2078.5C 772.167,2080.82 772.334,2083.15 772,2085.5C 743.342,2110.57 710.509,2118.07 673.5,2108C 667.843,2107.5 662.176,2107.33 656.5,2107.5C 654.667,2100.84 653.167,2094.18 652,2087.5C 675.385,2095.3 698.885,2095.47 722.5,2088C 732.526,2084.49 742.526,2081.32 752.5,2078.5 Z"/></g>
<g><path style="opacity:1" fill="#3c8e6e" d="M 819.5,2244.5 C 812.167,2244.5 804.833,2244.5 797.5,2244.5C 798.938,2235.22 799.938,2225.89 800.5,2216.5C 800.622,2213.31 800.122,2210.31 799,2207.5C 796.771,2219.7 794.938,2232.03 793.5,2244.5C 792.167,2244.5 790.833,2244.5 789.5,2244.5C 792.89,2216.91 793.39,2189.24 791,2161.5C 787.564,2133.78 782.564,2106.45 776,2079.5C 777.709,2081.18 779.376,2082.84 781,2084.5C 789.264,2116.23 794.764,2148.4 797.5,2181C 798.449,2181.62 799.282,2181.45 800,2180.5C 798.742,2149.28 793.908,2118.62 785.5,2088.5C 786.002,2087.48 786.668,2087.31 787.5,2088C 795.252,2092.63 803.085,2097.13 811,2101.5C 822.217,2148.69 825.05,2196.35 819.5,2244.5 Z"/></g>
<g><path style="opacity:1" fill="#5a4f27" d="M 624.5,2080.5 C 625.496,2080.41 626.329,2080.75 627,2081.5C 640.398,2120.09 648.231,2159.75 650.5,2200.5C 649.5,2200.5 648.5,2200.5 647.5,2200.5C 646.647,2182.34 644.48,2164.34 641,2146.5C 635.808,2124.4 630.308,2102.4 624.5,2080.5 Z"/></g>
<g><path style="opacity:1" fill="#5a4f27" d="M 957.5,2086.5 C 958.496,2086.41 959.329,2086.75 960,2087.5C 972.962,2125.14 981.129,2163.81 984.5,2203.5C 983.05,2208.64 981.883,2208.3 981,2202.5C 979.635,2183.65 976.969,2164.98 973,2146.5C 968.452,2126.31 963.286,2106.31 957.5,2086.5 Z"/></g>
<g><path style="opacity:1" fill="#fefefe" d="M 785.5,2244.5 C 747.5,2244.5 709.5,2244.5 671.5,2244.5C 674.741,2199.33 670.074,2155 657.5,2111.5C 662.802,2110.34 668.136,2110.17 673.5,2111C 710.903,2121.52 744.07,2114.02 773,2088.5C 776.419,2098.91 779.086,2109.58 781,2120.5C 784.152,2137.05 786.486,2153.72 788,2170.5C 790.447,2195.3 789.614,2219.97 785.5,2244.5 Z"/></g>
<g><path style="opacity:1" fill="#fefefe" d="M 974.5,2244.5 C 924.167,2244.5 873.833,2244.5 823.5,2244.5C 826.115,2223.91 826.949,2203.24 826,2182.5C 824.247,2155.9 820.913,2129.57 816,2103.5C 825.743,2110.62 835.909,2117.12 846.5,2123C 864.26,2131.55 882.926,2134.55 902.5,2132C 914.076,2129.47 925.41,2126.14 936.5,2122C 944.129,2120.21 951.796,2119.71 959.5,2120.5C 971.231,2161.01 976.231,2202.35 974.5,2244.5 Z"/></g>
<g><path style="opacity:1" fill="#5a4e27" d="M 797.5,2244.5 C 796.167,2244.5 794.833,2244.5 793.5,2244.5C 794.938,2232.03 796.771,2219.7 799,2207.5C 800.122,2210.31 800.622,2213.31 800.5,2216.5C 799.938,2225.89 798.938,2235.22 797.5,2244.5 Z"/></g>
<g><path style="opacity:1" fill="#5a5029" d="M 649.5,2244.5 C 648.5,2244.5 647.5,2244.5 646.5,2244.5C 647.047,2237.84 647.547,2231.18 648,2224.5C 649.011,2223.66 650.178,2223.33 651.5,2223.5C 650.899,2230.51 650.233,2237.51 649.5,2244.5 Z"/></g>
<g><path style="opacity:1" fill="#5a4d26" d="M 983.5,2244.5 C 982.5,2244.5 981.5,2244.5 980.5,2244.5C 981.329,2239.55 981.663,2234.55 981.5,2229.5C 982.5,2229.5 983.5,2229.5 984.5,2229.5C 984.726,2234.56 984.392,2239.56 983.5,2244.5 Z"/></g>
</svg>
