<?xml version="1.0" encoding="UTF-8"?>
<!DOCTYPE svg PUBLIC "-//W3C//DTD SVG 1.1//EN" "http://www.w3.org/Graphics/SVG/1.1/DTD/svg11.dtd">
<svg xmlns="http://www.w3.org/2000/svg" version="1.1" width="1587px" height="2245px" style="shape-rendering:geometricPrecision; text-rendering:geometricPrecision; image-rendering:optimizeQuality; fill-rule:evenodd; clip-rule:evenodd" xmlns:xlink="http://www.w3.org/1999/xlink">
<g><path style="opacity:1" fill="#fefefe" d="M -0.5,-0.5 C 290.5,-0.5 581.5,-0.5 872.5,-0.5C 862.668,89.8564 871.835,178.19 900,264.5C 920.874,326.121 954.708,379.288 1001.5,424C 1034.74,448.897 1065.91,476.397 1095,506.5C 1151.35,567.91 1181.35,640.576 1185,724.5C 1181.95,861.193 1211.95,990.193 1275,1111.5C 1307.36,1174.69 1350.2,1229.86 1403.5,1277C 1456.76,1321.96 1517.76,1351.46 1586.5,1365.5C 1586.5,1533.5 1586.5,1701.5 1586.5,1869.5C 1564.45,1877.85 1541.78,1884.01 1518.5,1888C 1415.93,1884.32 1317.26,1901.98 1222.5,1941C 1167.35,1963.71 1117.68,1994.71 1073.5,2034C 1020.54,2083.01 986.043,2142.84 970,2213.5C 967.511,2222.49 967.177,2231.49 969,2240.5C 970.488,2242.16 972.321,2243.16 974.5,2243.5C 974.5,2243.83 974.5,2244.17 974.5,2244.5C 914.167,2244.5 853.833,2244.5 793.5,2244.5C 796.628,2199.49 791.962,2155.32 779.5,2112C 785.167,2111.33 790.833,2111.33 796.5,2112C 829.505,2121.16 859.838,2115.82 887.5,2096C 902.05,2081.11 918.05,2068.11 935.5,2057C 951.086,2043.99 960.586,2027.49 964,2007.5C 964.228,1987.82 964.894,1968.15 966,1948.5C 966.856,1942.6 968.523,1936.93 971,1931.5C 973.154,1925.28 971.154,1921.62 965,1920.5C 961.591,1920.95 958.424,1922.12 955.5,1924C 945.003,1934.84 935.837,1946.67 928,1959.5C 919.009,1970.58 907.509,1977.41 893.5,1980C 875.042,1982.68 856.708,1986.02 838.5,1990C 832.264,1992.12 826.264,1994.78 820.5,1998C 803.031,2013.8 785.865,2029.97 769,2046.5C 766.909,2049.68 765.075,2053.02 763.5,2056.5C 754.159,2035.64 747.326,2013.98 743,1991.5C 740.501,1970.21 740.001,1948.87 741.5,1927.5C 758.958,1928.66 769.958,1921 774.5,1904.5C 783.048,1905.76 790.048,1903.1 795.5,1896.5C 798.438,1897.57 801.438,1897.74 804.5,1897C 809.761,1895.14 815.095,1893.47 820.5,1892C 824.904,1889.2 827.571,1885.2 828.5,1880C 844.979,1878.67 856.812,1870.5 864,1855.5C 866.514,1846.64 865.347,1838.3 860.5,1830.5C 866.64,1825.31 869.474,1818.64 869,1810.5C 872,1808.83 874.333,1806.5 876,1803.5C 878.613,1797.15 881.113,1790.82 883.5,1784.5C 883.232,1780.86 881.899,1777.69 879.5,1775C 887.157,1767.84 890.49,1759.01 889.5,1748.5C 890.303,1731.74 882.636,1721.41 866.5,1717.5C 867.289,1709.08 864.289,1702.41 857.5,1697.5C 858.575,1694.56 858.741,1691.56 858,1688.5C 855.673,1682.51 853.339,1676.51 851,1670.5C 847.9,1667.45 844.233,1665.45 840,1664.5C 837.59,1647.08 828.09,1635.25 811.5,1629C 803.316,1628.17 795.816,1630 789,1634.5C 786.072,1630.62 782.239,1628.12 777.5,1627C 770.138,1625.94 762.804,1625.77 755.5,1626.5C 746.102,1607.64 731.435,1601.81 711.5,1609C 705.5,1612.33 700.833,1617 697.5,1623C 684.573,1620.86 673.407,1624.36 664,1633.5C 663,1635.5 662,1637.5 661,1639.5C 654.988,1641.5 650.321,1645.17 647,1650.5C 632.3,1646.17 619.633,1649.51 609,1660.5C 602.645,1669.77 601.145,1679.77 604.5,1690.5C 591.347,1700.12 586.68,1712.79 590.5,1728.5C 588.367,1733.92 588.034,1739.42 589.5,1745C 569.947,1756.9 565.114,1773.07 575,1793.5C 578.511,1798.1 582.844,1801.76 588,1804.5C 586.641,1816.89 590.141,1827.73 598.5,1837C 600.579,1838.64 602.912,1839.81 605.5,1840.5C 607.566,1846.73 611.566,1851.23 617.5,1854C 613.388,1868.31 616.722,1880.65 627.5,1891C 636.878,1897.69 647.045,1899.19 658,1895.5C 662.534,1899.7 667.368,1903.53 672.5,1907C 677.59,1909.27 682.923,1910.61 688.5,1911C 695.332,1915.25 702.666,1918.09 710.5,1919.5C 706.356,1958.68 709.856,1997.01 721,2034.5C 710.167,2027 699.333,2019.5 688.5,2012C 676.98,2005.7 664.646,2002.37 651.5,2002C 635.167,2001.67 618.833,2001.33 602.5,2001C 592.148,1999.88 582.815,1996.22 574.5,1990C 563.551,1978.72 552.217,1967.72 540.5,1957C 535.942,1953.81 530.942,1952.48 525.5,1953C 523.323,1954.5 521.99,1956.5 521.5,1959C 524.264,1966.69 527.43,1974.19 531,1981.5C 534.648,1998.72 537.648,2016.05 540,2033.5C 542.024,2044.25 546.357,2053.92 553,2062.5C 567.005,2078.09 583.838,2089.59 603.5,2097C 615.202,2106.19 627.868,2113.85 641.5,2120C 657.957,2126.78 674.957,2128.78 692.5,2126C 704.058,2123.48 715.392,2120.15 726.5,2116C 733.771,2114.7 741.104,2114.2 748.5,2114.5C 757.276,2148.1 762.276,2182.27 763.5,2217C 763.533,2226.23 762.866,2235.4 761.5,2244.5C 634.167,2244.5 506.833,2244.5 379.5,2244.5C 370.961,2211.21 374.295,2179.21 389.5,2148.5C 401.933,2156.55 415.266,2162.72 429.5,2167C 443.614,2168.9 457.614,2168.23 471.5,2165C 484.456,2158.94 491.956,2148.78 494,2134.5C 495.664,2120.15 493.331,2106.49 487,2093.5C 483,2084.83 479,2076.17 475,2067.5C 470.732,2053.36 466.066,2039.36 461,2025.5C 445.391,1995.74 421.891,1987.57 390.5,2001C 378.396,2006.9 366.063,2011.9 353.5,2016C 375.926,1996.55 382.426,1972.72 373,1944.5C 369.835,1938.17 366.169,1932.17 362,1926.5C 353.476,1918.16 344.31,1910.66 334.5,1904C 329.667,1899.17 324.833,1894.33 320,1889.5C 307.504,1871.84 295.504,1853.84 284,1835.5C 264.516,1813.49 241.016,1807.99 213.5,1819C 200.047,1824.81 188.214,1832.98 178,1843.5C 165.511,1861.92 151.011,1878.75 134.5,1894C 119.703,1906.46 105.203,1919.3 91,1932.5C 81.8524,1943.11 78.0191,1955.45 79.5,1969.5C 46.2977,1957.35 19.6311,1965.68 -0.5,1994.5C -0.5,1329.5 -0.5,664.5 -0.5,-0.5 Z"/></g>
<g><path style="opacity:1" fill="#b4ccea" d="M 872.5,-0.5 C 930.833,-0.5 989.167,-0.5 1047.5,-0.5C 1051.63,0.484888 1055.97,0.818222 1060.5,0.5C 1023.3,67.2224 1019.47,135.889 1049,206.5C 1066.55,244.304 1089.55,278.304 1118,308.5C 1138.6,329.437 1160.1,349.271 1182.5,368C 1202.83,383 1223.17,398 1243.5,413C 1291.58,454.622 1322.08,506.789 1335,569.5C 1343.03,606.777 1348.36,644.443 1351,682.5C 1354.5,748.578 1359.17,814.578 1365,880.5C 1375.82,953.987 1407.66,1016.49 1460.5,1068C 1497.61,1103.07 1539.61,1130.9 1586.5,1151.5C 1586.5,1222.83 1586.5,1294.17 1586.5,1365.5C 1517.76,1351.46 1456.76,1321.96 1403.5,1277C 1350.2,1229.86 1307.36,1174.69 1275,1111.5C 1211.95,990.193 1181.95,861.193 1185,724.5C 1181.35,640.576 1151.35,567.91 1095,506.5C 1065.91,476.397 1034.74,448.897 1001.5,424C 954.708,379.288 920.874,326.121 900,264.5C 871.835,178.19 862.668,89.8564 872.5,-0.5 Z"/></g>
<g><path style="opacity:1" fill="#b3cae9" d="M 1047.5,-0.5 C 1165.5,-0.5 1283.5,-0.5 1401.5,-0.5C 1401.66,1.5273 1401.5,3.5273 1401,5.5C 1376.74,54.6039 1360.74,106.271 1353,160.5C 1350.26,185.493 1352.93,209.827 1361,233.5C 1366.15,246.648 1374.32,257.482 1385.5,266C 1410.86,279.337 1434.86,294.67 1457.5,312C 1481.85,332.867 1497.35,359.034 1504,390.5C 1509.21,421.623 1510.88,452.956 1509,484.5C 1507.17,515.485 1505.67,546.485 1504.5,577.5C 1503.33,604.17 1508.5,629.503 1520,653.5C 1535.31,677.909 1557.48,689.909 1586.5,689.5C 1586.5,693.5 1586.5,697.5 1586.5,701.5C 1542.07,700.541 1513.24,678.875 1500,636.5C 1494.39,616.216 1491.89,595.55 1492.5,574.5C 1494.94,535.875 1496.6,497.208 1497.5,458.5C 1498.38,432.066 1495.55,406.066 1489,380.5C 1480.56,355.451 1466.06,334.618 1445.5,318C 1423.85,302.167 1401.18,287.834 1377.5,275C 1359.84,260.538 1348.68,242.038 1344,219.5C 1338.95,188.721 1339.62,158.054 1346,127.5C 1355.49,84.5345 1369.65,43.2011 1388.5,3.5C 1322.85,1.68131 1257.18,0.681313 1191.5,0.5C 1147.83,0.5 1104.17,0.5 1060.5,0.5C 1055.97,0.818222 1051.63,0.484888 1047.5,-0.5 Z"/></g>
<g><path style="opacity:1" fill="#fefefe" d="M 1401.5,-0.5 C 1463.17,-0.5 1524.83,-0.5 1586.5,-0.5C 1586.5,229.5 1586.5,459.5 1586.5,689.5C 1557.48,689.909 1535.31,677.909 1520,653.5C 1508.5,629.503 1503.33,604.17 1504.5,577.5C 1505.67,546.485 1507.17,515.485 1509,484.5C 1510.88,452.956 1509.21,421.623 1504,390.5C 1497.35,359.034 1481.85,332.867 1457.5,312C 1434.86,294.67 1410.86,279.337 1385.5,266C 1374.32,257.482 1366.15,246.648 1361,233.5C 1352.93,209.827 1350.26,185.493 1353,160.5C 1360.74,106.271 1376.74,54.6039 1401,5.5C 1401.5,3.5273 1401.66,1.5273 1401.5,-0.5 Z"/></g>
<g><path style="opacity:1" fill="#484fa2" d="M 1060.5,0.5 C 1104.17,0.5 1147.83,0.5 1191.5,0.5C 1167.79,51.5043 1159.96,104.838 1168,160.5C 1175.29,198.92 1193.79,230.753 1223.5,256C 1251.09,279.124 1279.76,300.791 1309.5,321C 1335.44,339.59 1359.6,360.423 1382,383.5C 1403.05,406.255 1416.71,432.922 1423,463.5C 1423.85,469.814 1424.51,476.147 1425,482.5C 1424.19,526.646 1426.19,570.646 1431,614.5C 1435.79,663.328 1449.12,709.661 1471,753.5C 1496.34,799.669 1534.84,828.002 1586.5,838.5C 1586.5,942.833 1586.5,1047.17 1586.5,1151.5C 1539.61,1130.9 1497.61,1103.07 1460.5,1068C 1407.66,1016.49 1375.82,953.987 1365,880.5C 1359.17,814.578 1354.5,748.578 1351,682.5C 1348.36,644.443 1343.03,606.777 1335,569.5C 1322.08,506.789 1291.58,454.622 1243.5,413C 1223.17,398 1202.83,383 1182.5,368C 1160.1,349.271 1138.6,329.437 1118,308.5C 1089.55,278.304 1066.55,244.304 1049,206.5C 1019.47,135.889 1023.3,67.2224 1060.5,0.5 Z"/></g>
<g><path style="opacity:1" fill="#3e299b" d="M 1191.5,0.5 C 1257.18,0.681313 1322.85,1.68131 1388.5,3.5C 1369.65,43.2011 1355.49,84.5345 1346,127.5C 1339.62,158.054 1338.95,188.721 1344,219.5C 1348.68,242.038 1359.84,260.538 1377.5,275C 1401.18,287.834 1423.85,302.167 1445.5,318C 1466.06,334.618 1480.56,355.451 1489,380.5C 1495.55,406.066 1498.38,432.066 1497.5,458.5C 1496.6,497.208 1494.94,535.875 1492.5,574.5C 1491.89,595.55 1494.39,616.216 1500,636.5C 1513.24,678.875 1542.07,700.541 1586.5,701.5C 1586.5,747.167 1586.5,792.833 1586.5,838.5C 1534.84,828.002 1496.34,799.669 1471,753.5C 1449.12,709.661 1435.79,663.328 1431,614.5C 1426.19,570.646 1424.19,526.646 1425,482.5C 1424.51,476.147 1423.85,469.814 1423,463.5C 1416.71,432.922 1403.05,406.255 1382,383.5C 1359.6,360.423 1335.44,339.59 1309.5,321C 1279.76,300.791 1251.09,279.124 1223.5,256C 1193.79,230.753 1175.29,198.92 1168,160.5C 1159.96,104.838 1167.79,51.5043 1191.5,0.5 Z"/></g>
<g><path style="opacity:1" fill="#4e50a0" d="M 301.5,1561.5 C 317.628,1561.79 330.461,1568.45 340,1581.5C 347.583,1593 354.917,1604.66 362,1616.5C 367.951,1623.46 374.785,1629.29 382.5,1634C 390.885,1637.8 399.218,1641.8 407.5,1646C 425.126,1657.42 432.959,1673.58 431,1694.5C 430.08,1698.26 428.58,1701.76 426.5,1705C 436.516,1704.04 446.516,1704.37 456.5,1706C 468.253,1708.3 477.42,1714.46 484,1724.5C 491.708,1739.25 501.375,1752.58 513,1764.5C 519.104,1771.43 520.104,1779.1 516,1787.5C 510.693,1798.15 503.193,1806.98 493.5,1814C 487.335,1818.25 481.002,1822.25 474.5,1826C 459.942,1833.14 444.609,1835.81 428.5,1834C 420.829,1832.79 413.162,1831.62 405.5,1830.5C 406.187,1836.99 403.52,1841.15 397.5,1843C 386.904,1843.25 377.237,1840.25 368.5,1834C 355.833,1825.33 343.167,1816.67 330.5,1808C 321.167,1804 311.833,1800 302.5,1796C 299.133,1792.3 295.466,1788.96 291.5,1786C 273.198,1781.56 254.865,1781.39 236.5,1785.5C 236.33,1784.18 236.663,1783.01 237.5,1782C 241.029,1780.53 244.695,1779.53 248.5,1779C 262.47,1777.86 276.304,1778.7 290,1781.5C 291.992,1780.77 292.826,1779.27 292.5,1777C 292.441,1775.56 292.108,1774.23 291.5,1773C 273.603,1765.19 254.936,1760.19 235.5,1758C 234.167,1757 234.167,1756 235.5,1755C 254.376,1755.55 272.376,1759.89 289.5,1768C 290.833,1768.67 292.167,1768.67 293.5,1768C 261.548,1737.95 236.048,1703.11 217,1663.5C 212.658,1652.81 209.324,1641.81 207,1630.5C 206.333,1622.5 206.333,1614.5 207,1606.5C 209.357,1596.31 215.524,1589.98 225.5,1587.5C 229.563,1588.35 233.563,1589.52 237.5,1591C 244.337,1595.25 251.337,1599.25 258.5,1603C 262.014,1604.56 265.681,1605.4 269.5,1605.5C 271.514,1584.2 282.18,1569.54 301.5,1561.5 Z"/></g>
<g><path style="opacity:1" fill="#fd6740" d="M 294.5,1583.5 C 310.96,1583.11 321.294,1590.95 325.5,1607C 323.101,1613.3 320.267,1619.47 317,1625.5C 311.528,1640.5 309.028,1656 309.5,1672C 310.395,1679.49 310.562,1686.99 310,1694.5C 293.283,1672.39 281.95,1647.73 276,1620.5C 273.104,1608.03 275.937,1597.19 284.5,1588C 287.703,1586 291.036,1584.5 294.5,1583.5 Z"/></g>
<g><path style="opacity:1" fill="#60522c" d="M 793.5,2244.5 C 792.5,2244.5 791.5,2244.5 790.5,2244.5C 793.221,2201.48 789.054,2159.15 778,2117.5C 769.137,2083.91 758.47,2050.91 746,2018.5C 737.811,1988.32 735.311,1957.65 738.5,1926.5C 729.982,1925.99 722.815,1922.66 717,1916.5C 716.228,1916.64 715.561,1916.98 715,1917.5C 710.729,1951.44 712.396,1985.11 720,2018.5C 728.728,2042.68 737.061,2067.02 745,2091.5C 755.847,2125.73 762.847,2160.73 766,2196.5C 766.7,2212.51 766.533,2228.51 765.5,2244.5C 764.167,2244.5 762.833,2244.5 761.5,2244.5C 762.866,2235.4 763.533,2226.23 763.5,2217C 762.276,2182.27 757.276,2148.1 748.5,2114.5C 741.104,2114.2 733.771,2114.7 726.5,2116C 715.392,2120.15 704.058,2123.48 692.5,2126C 674.957,2128.78 657.957,2126.78 641.5,2120C 627.868,2113.85 615.202,2106.19 603.5,2097C 583.838,2089.59 567.005,2078.09 553,2062.5C 546.357,2053.92 542.024,2044.25 540,2033.5C 537.648,2016.05 534.648,1998.72 531,1981.5C 527.43,1974.19 524.264,1966.69 521.5,1959C 521.99,1956.5 523.323,1954.5 525.5,1953C 530.942,1952.48 535.942,1953.81 540.5,1957C 552.217,1967.72 563.551,1978.72 574.5,1990C 582.815,1996.22 592.148,1999.88 602.5,2001C 618.833,2001.33 635.167,2001.67 651.5,2002C 664.646,2002.37 676.98,2005.7 688.5,2012C 699.333,2019.5 710.167,2027 721,2034.5C 709.856,1997.01 706.356,1958.68 710.5,1919.5C 702.666,1918.09 695.332,1915.25 688.5,1911C 682.923,1910.61 677.59,1909.27 672.5,1907C 667.368,1903.53 662.534,1899.7 658,1895.5C 647.045,1899.19 636.878,1897.69 627.5,1891C 616.722,1880.65 613.388,1868.31 617.5,1854C 611.566,1851.23 607.566,1846.73 605.5,1840.5C 602.912,1839.81 600.579,1838.64 598.5,1837C 590.141,1827.73 586.641,1816.89 588,1804.5C 582.844,1801.76 578.511,1798.1 575,1793.5C 565.114,1773.07 569.947,1756.9 589.5,1745C 588.034,1739.42 588.367,1733.92 590.5,1728.5C 586.68,1712.79 591.347,1700.12 604.5,1690.5C 601.145,1679.77 602.645,1669.77 609,1660.5C 619.633,1649.51 632.3,1646.17 647,1650.5C 650.321,1645.17 654.988,1641.5 661,1639.5C 662,1637.5 663,1635.5 664,1633.5C 673.407,1624.36 684.573,1620.86 697.5,1623C 700.833,1617 705.5,1612.33 711.5,1609C 731.435,1601.81 746.102,1607.64 755.5,1626.5C 762.804,1625.77 770.138,1625.94 777.5,1627C 782.239,1628.12 786.072,1630.62 789,1634.5C 795.816,1630 803.316,1628.17 811.5,1629C 828.09,1635.25 837.59,1647.08 840,1664.5C 844.233,1665.45 847.9,1667.45 851,1670.5C 853.339,1676.51 855.673,1682.51 858,1688.5C 858.741,1691.56 858.575,1694.56 857.5,1697.5C 864.289,1702.41 867.289,1709.08 866.5,1717.5C 882.636,1721.41 890.303,1731.74 889.5,1748.5C 890.49,1759.01 887.157,1767.84 879.5,1775C 881.899,1777.69 883.232,1780.86 883.5,1784.5C 881.113,1790.82 878.613,1797.15 876,1803.5C 874.333,1806.5 872,1808.83 869,1810.5C 869.474,1818.64 866.64,1825.31 860.5,1830.5C 865.347,1838.3 866.514,1846.64 864,1855.5C 856.812,1870.5 844.979,1878.67 828.5,1880C 827.571,1885.2 824.904,1889.2 820.5,1892C 815.095,1893.47 809.761,1895.14 804.5,1897C 801.438,1897.74 798.438,1897.57 795.5,1896.5C 790.048,1903.1 783.048,1905.76 774.5,1904.5C 769.958,1921 758.958,1928.66 741.5,1927.5C 740.001,1948.87 740.501,1970.21 743,1991.5C 747.326,2013.98 754.159,2035.64 763.5,2056.5C 765.075,2053.02 766.909,2049.68 769,2046.5C 785.865,2029.97 803.031,2013.8 820.5,1998C 826.264,1994.78 832.264,1992.12 838.5,1990C 856.708,1986.02 875.042,1982.68 893.5,1980C 907.509,1977.41 919.009,1970.58 928,1959.5C 935.837,1946.67 945.003,1934.84 955.5,1924C 958.424,1922.12 961.591,1920.95 965,1920.5C 971.154,1921.62 973.154,1925.28 971,1931.5C 968.523,1936.93 966.856,1942.6 966,1948.5C 964.894,1968.15 964.228,1987.82 964,2007.5C 960.586,2027.49 951.086,2043.99 935.5,2057C 918.05,2068.11 902.05,2081.11 887.5,2096C 859.838,2115.82 829.505,2121.16 796.5,2112C 790.833,2111.33 785.167,2111.33 779.5,2112C 791.962,2155.32 796.628,2199.49 793.5,2244.5 Z"/></g>
<g><path style="opacity:1" fill="#b4cce9" d="M 722.5,1608.5 C 733.778,1608.39 742.944,1612.72 750,1621.5C 752.05,1624.15 753.216,1627.15 753.5,1630.5C 772.136,1626.63 780.636,1634.29 779,1653.5C 776.36,1666.11 772.026,1678.11 766,1689.5C 763.941,1697.75 761.274,1705.75 758,1713.5C 753.046,1712.22 748.213,1710.55 743.5,1708.5C 748.704,1689.86 750.704,1670.86 749.5,1651.5C 748.5,1651.5 747.5,1651.5 746.5,1651.5C 746.909,1670.08 745.076,1688.41 741,1706.5C 734.396,1708.25 727.563,1709.58 720.5,1710.5C 718.617,1710.12 717.117,1709.12 716,1707.5C 708.701,1697.24 702.701,1686.24 698,1674.5C 696.206,1666.53 694.539,1658.53 693,1650.5C 692.29,1649.03 691.124,1648.36 689.5,1648.5C 691.424,1672.5 700.091,1693.67 715.5,1712C 709.811,1717.61 704.645,1717.44 700,1711.5C 689.224,1698.06 679.224,1684.06 670,1669.5C 663.99,1659.81 662.324,1649.48 665,1638.5C 670.922,1630.12 679.089,1625.79 689.5,1625.5C 692.801,1626.55 696.135,1627.05 699.5,1627C 704.091,1616.9 711.758,1610.73 722.5,1608.5 Z"/></g>
<g><path style="opacity:1" fill="#fbab36" d="M 326.5,1616.5 C 328.017,1616.51 329.184,1617.18 330,1618.5C 331.953,1631.01 336.62,1642.35 344,1652.5C 350.322,1658.58 357.822,1662.41 366.5,1664C 368.652,1666.47 370.152,1669.3 371,1672.5C 372.474,1679.15 372.641,1685.82 371.5,1692.5C 367.95,1689.72 363.95,1688.06 359.5,1687.5C 353.719,1688.53 348.386,1690.53 343.5,1693.5C 344.055,1683.44 340.055,1675.94 331.5,1671C 328.5,1670.33 325.5,1670.33 322.5,1671C 320.023,1672.64 317.69,1674.48 315.5,1676.5C 311.938,1655.07 315.605,1635.07 326.5,1616.5 Z"/></g>
<g><path style="opacity:1" fill="#fc6741" d="M 231.5,1622.5 C 233.989,1622.3 236.323,1622.8 238.5,1624C 249.064,1637.92 253.064,1653.59 250.5,1671C 252.831,1683.49 257.997,1694.66 266,1704.5C 273.027,1711.53 280.027,1718.53 287,1725.5C 291.508,1738.18 296.841,1750.52 303,1762.5C 304.167,1766.67 302.667,1768.17 298.5,1767C 274.9,1745.59 254.734,1721.43 238,1694.5C 229.005,1679.51 221.338,1663.84 215,1647.5C 213.803,1639.05 216.637,1632.22 223.5,1627C 226.099,1625.2 228.766,1623.7 231.5,1622.5 Z"/></g>
<g><path style="opacity:1" fill="#f9a938" d="M 246.5,1625.5 C 253.243,1628.12 260.243,1629.45 267.5,1629.5C 267.833,1638.17 268.167,1646.83 268.5,1655.5C 264.04,1654.88 260.04,1655.88 256.5,1658.5C 254.558,1647.06 251.224,1636.06 246.5,1625.5 Z"/></g>
<g><path style="opacity:1" fill="#faab36" d="M 271.5,1626.5 C 274.761,1633.76 277.595,1641.43 280,1649.5C 283.394,1657.29 287.061,1664.95 291,1672.5C 299.731,1686.24 308.065,1700.24 316,1714.5C 324.17,1733.5 330.003,1753.16 333.5,1773.5C 326.278,1770.93 318.945,1768.43 311.5,1766C 305.509,1757.86 300.676,1749.02 297,1739.5C 281.078,1703.48 272.578,1665.82 271.5,1626.5 Z"/></g>
<g><path style="opacity:1" fill="#b4cbe8" d="M 775.5,1631.5 C 778.253,1630.34 780.919,1630.84 783.5,1633C 785.355,1634.86 787.188,1636.69 789,1638.5C 800.571,1630.36 812.071,1630.53 823.5,1639C 832.842,1646.19 837.509,1655.69 837.5,1667.5C 841.315,1668.03 844.815,1669.36 848,1671.5C 850.925,1678.18 853.425,1685.02 855.5,1692C 855.739,1694.26 854.739,1695.43 852.5,1695.5C 841.632,1693.39 831.632,1695.56 822.5,1702C 818.357,1706.23 814.023,1710.23 809.5,1714C 799.457,1716.94 789.957,1721.1 781,1726.5C 779.978,1725.65 779.145,1724.65 778.5,1723.5C 795.332,1711 806.666,1694.66 812.5,1674.5C 812.167,1673.5 811.833,1672.5 811.5,1671.5C 805.612,1688.43 796.279,1703.26 783.5,1716C 781.5,1717.33 779.5,1718.67 777.5,1720C 773.658,1720.99 770.658,1719.82 768.5,1716.5C 771.569,1706.71 774.902,1697.04 778.5,1687.5C 775.566,1688.29 773.732,1690.29 773,1693.5C 770.268,1700.36 767.934,1707.36 766,1714.5C 764.365,1715.85 762.865,1715.68 761.5,1714C 768.463,1694.57 775.296,1675.07 782,1655.5C 783.31,1648.13 782.31,1641.13 779,1634.5C 777.961,1633.29 776.794,1632.29 775.5,1631.5 Z"/></g>
<g><path style="opacity:1" fill="#b4cce9" d="M 658.5,1643.5 C 659.616,1653.55 662.783,1663.22 668,1672.5C 678.267,1688.03 689.267,1703.03 701,1717.5C 701.667,1718.17 701.667,1718.83 701,1719.5C 697.364,1721.64 693.864,1723.97 690.5,1726.5C 679.89,1715.54 667.89,1706.54 654.5,1699.5C 652.128,1700.36 652.128,1701.53 654.5,1703C 667.163,1709.84 678.163,1718.67 687.5,1729.5C 685.136,1732.7 682.97,1736.03 681,1739.5C 675.526,1740.38 670.359,1739.22 665.5,1736C 660.366,1733.03 655.366,1729.86 650.5,1726.5C 648.512,1727.29 648.179,1728.46 649.5,1730C 658.341,1736.42 668.007,1741.25 678.5,1744.5C 678.238,1748.07 676.405,1750.07 673,1750.5C 654.002,1748.69 635.168,1745.85 616.5,1742C 607.206,1739.78 599.706,1734.95 594,1727.5C 590.557,1718.7 591.557,1710.36 597,1702.5C 600.529,1698.64 604.362,1695.14 608.5,1692C 603.685,1679.74 605.685,1668.74 614.5,1659C 625.419,1651.61 637.086,1649.95 649.5,1654C 651.646,1649.69 654.646,1646.19 658.5,1643.5 Z"/></g>
<g><path style="opacity:1" fill="#f8a4b0" d="M 261.5,1659.5 C 263.857,1659.34 266.19,1659.5 268.5,1660C 272.555,1678.55 277.555,1696.89 283.5,1715C 283.167,1715.17 282.833,1715.33 282.5,1715.5C 271.822,1705.82 263.322,1694.48 257,1681.5C 252.612,1672.8 254.112,1665.47 261.5,1659.5 Z"/></g>
<g><path style="opacity:1" fill="#fa6742" d="M 373.5,1665.5 C 378.666,1666.62 383.833,1667.62 389,1668.5C 395.115,1699.49 386.115,1725.15 362,1745.5C 354.929,1753.97 348.595,1762.97 343,1772.5C 344.492,1765.49 347.159,1758.83 351,1752.5C 357,1743.83 363,1735.17 369,1726.5C 374.611,1715.18 377.111,1703.18 376.5,1690.5C 376.853,1681.99 375.853,1673.65 373.5,1665.5 Z"/></g>
<g><path style="opacity:1" fill="#f9aa37" d="M 395.5,1672.5 C 409.344,1681.53 413.511,1693.87 408,1709.5C 401.272,1714.56 394.272,1719.23 387,1723.5C 389.694,1716.07 392.027,1708.41 394,1700.5C 395.276,1691.21 395.776,1681.88 395.5,1672.5 Z"/></g>
<g><path style="opacity:1" fill="#fca7b1" d="M 324.5,1674.5 C 328.803,1673.8 332.303,1675.13 335,1678.5C 339.098,1686.31 340.598,1694.64 339.5,1703.5C 340.978,1703.76 342.311,1703.43 343.5,1702.5C 347.241,1696.41 352.574,1692.75 359.5,1691.5C 367.451,1692.72 371.118,1697.38 370.5,1705.5C 370.459,1711.88 368.959,1717.88 366,1723.5C 355.324,1737.51 346.157,1752.51 338.5,1768.5C 337.914,1768.29 337.414,1767.96 337,1767.5C 335.645,1760.75 333.978,1754.08 332,1747.5C 326.064,1731.36 320.731,1715.03 316,1698.5C 313.963,1688.59 316.796,1680.59 324.5,1674.5 Z"/></g>
<g><path style="opacity:1" fill="#b4cce9" d="M 840.5,1697.5 C 856.281,1696.78 863.781,1704.12 863,1719.5C 882.515,1724.16 890.182,1736.49 886,1756.5C 884.816,1763.87 881.316,1769.87 875.5,1774.5C 877.822,1777.32 879.488,1780.49 880.5,1784C 878.219,1789.4 876.053,1794.9 874,1800.5C 872.654,1803.18 870.654,1805.18 868,1806.5C 861.027,1795.92 851.193,1789.76 838.5,1788C 833.167,1787.67 827.833,1787.33 822.5,1787C 815.184,1782.84 807.517,1779.51 799.5,1777C 797.638,1773.85 796.971,1770.35 797.5,1766.5C 813.947,1767.08 830.114,1765.41 846,1761.5C 846.167,1761.17 846.333,1760.83 846.5,1760.5C 845.167,1760.17 843.833,1759.83 842.5,1759.5C 827.58,1762.49 812.58,1763.49 797.5,1762.5C 796.311,1756.43 795.144,1750.43 794,1744.5C 797.293,1741.21 801.127,1738.71 805.5,1737C 814.833,1733.67 824.167,1730.33 833.5,1727C 836.165,1724.29 835.498,1723.29 831.5,1724C 819.495,1727.84 807.829,1732.5 796.5,1738C 795.315,1739.35 793.981,1740.52 792.5,1741.5C 789.512,1737.54 786.512,1733.54 783.5,1729.5C 786.801,1726.84 790.468,1724.68 794.5,1723C 799.988,1721.39 805.322,1719.39 810.5,1717C 815.5,1712.67 820.5,1708.33 825.5,1704C 830.367,1701.23 835.367,1699.06 840.5,1697.5 Z"/></g>
<g><path style="opacity:1" fill="#fd6741" d="M 425.5,1709.5 C 441.465,1707.72 450.631,1714.72 453,1730.5C 453.5,1736.82 453.666,1743.16 453.5,1749.5C 427.754,1740.56 403.421,1743.39 380.5,1758C 369.833,1765.33 359.167,1772.67 348.5,1780C 347.552,1780.48 346.552,1780.65 345.5,1780.5C 361.551,1744.78 388.218,1721.11 425.5,1709.5 Z"/></g>
<g><path style="opacity:1" fill="#f9b837" d="M 728.5,1711.5 C 743.272,1711.86 757.272,1715.36 770.5,1722C 793.355,1740.51 799.521,1763.68 789,1791.5C 782.876,1805.62 772.376,1814.79 757.5,1819C 725.045,1830.85 699.545,1822.35 681,1793.5C 669.26,1749.96 685.094,1722.63 728.5,1711.5 Z"/></g>
<g><path style="opacity:1" fill="#b4cce9" d="M 592.5,1731.5 C 604.373,1742.08 618.373,1747.91 634.5,1749C 648.148,1750.81 661.815,1752.48 675.5,1754C 674.586,1757.9 673.253,1761.57 671.5,1765C 655.864,1763.97 640.198,1763.64 624.5,1764C 619.102,1764.47 614.102,1766.13 609.5,1769C 608.663,1770.01 608.33,1771.18 608.5,1772.5C 612.105,1771.04 615.771,1769.54 619.5,1768C 621.833,1767.67 624.167,1767.33 626.5,1767C 642.168,1767.17 657.835,1767.67 673.5,1768.5C 673.849,1773.58 673.849,1778.58 673.5,1783.5C 658.968,1790.18 643.968,1795.34 628.5,1799C 629.6,1800.02 630.933,1800.52 632.5,1800.5C 647.233,1798.03 661.233,1793.37 674.5,1786.5C 676.795,1789.88 677.962,1793.55 678,1797.5C 663.462,1809.85 648.295,1821.35 632.5,1832C 622.591,1837.89 612.257,1838.89 601.5,1835C 592.611,1826.45 589.611,1816.12 592.5,1804C 572.785,1793.2 568.285,1778.03 579,1758.5C 581.281,1755.1 584.114,1752.26 587.5,1750C 589.345,1748.87 591.345,1748.37 593.5,1748.5C 591.471,1742.92 591.138,1737.25 592.5,1731.5 Z"/></g>
<g><path style="opacity:1" fill="#fca7b1" d="M 413.5,1748.5 C 420.999,1747.82 426.832,1750.49 431,1756.5C 431.584,1759.26 431.25,1761.92 430,1764.5C 425.062,1769.12 419.896,1773.29 414.5,1777C 414.645,1777.77 414.978,1778.44 415.5,1779C 428.132,1778.65 438.632,1783.15 447,1792.5C 450.368,1805.15 445.368,1811.49 432,1811.5C 420.452,1809.31 409.286,1805.81 398.5,1801C 384.444,1792.7 369.444,1786.87 353.5,1783.5C 353.561,1781.41 354.561,1779.91 356.5,1779C 370.498,1769 385.165,1760 400.5,1752C 404.919,1750.65 409.252,1749.48 413.5,1748.5 Z"/></g>
<g><path style="opacity:1" fill="#fbab36" d="M 432.5,1749.5 C 439.078,1749.89 445.411,1751.39 451.5,1754C 459.391,1761.73 467.725,1768.89 476.5,1775.5C 472.694,1786.15 466.028,1794.65 456.5,1801C 455.365,1801.75 454.365,1801.58 453.5,1800.5C 452.897,1793.13 449.564,1787.3 443.5,1783C 437.597,1779.36 431.263,1776.7 424.5,1775C 435.146,1768.9 437.812,1760.4 432.5,1749.5 Z"/></g>
<g><path style="opacity:1" fill="#645124" d="M 683.5,1748.5 C 684.5,1748.5 685.5,1748.5 686.5,1748.5C 682.134,1760.78 682.967,1772.78 689,1784.5C 691.167,1788.17 693.333,1791.83 695.5,1795.5C 695.167,1796.5 694.5,1797.17 693.5,1797.5C 681.382,1782.85 678.049,1766.52 683.5,1748.5 Z"/></g>
<g><path style="opacity:1" fill="#9ca93a" d="M 304.5,1770.5 C 313.907,1770.37 322.574,1772.87 330.5,1778C 351.015,1793.51 372.349,1807.84 394.5,1821C 400.05,1824.91 402.05,1830.08 400.5,1836.5C 395.524,1839.95 390.191,1840.45 384.5,1838C 367.022,1827.76 350.022,1816.76 333.5,1805C 322.543,1800.57 311.876,1795.57 301.5,1790C 294.068,1782.01 295.068,1775.51 304.5,1770.5 Z"/></g>
<g><path style="opacity:1" fill="#fc6741" d="M 480.5,1778.5 C 489.577,1782.28 493.91,1789.28 493.5,1799.5C 494.265,1805.8 491.932,1810.64 486.5,1814C 461.944,1831.2 435.277,1835.2 406.5,1826C 395.532,1816.51 383.532,1808.51 370.5,1802C 364.283,1797.73 358.283,1793.23 352.5,1788.5C 354.765,1787.35 357.098,1787.19 359.5,1788C 362.363,1789.4 365.363,1790.4 368.5,1791C 384.478,1799.16 400.812,1806.49 417.5,1813C 427.672,1816.65 437.672,1816.32 447.5,1812C 462.048,1804.29 473.048,1793.12 480.5,1778.5 Z"/></g>
<g><path style="opacity:1" fill="#b4cce9" d="M 796.5,1779.5 C 805.291,1781.93 813.624,1785.43 821.5,1790C 831.538,1789.64 841.204,1791.31 850.5,1795C 864.321,1801.12 868.154,1810.95 862,1824.5C 859.965,1826.24 858.131,1828.07 856.5,1830C 860.545,1835.43 862.545,1841.6 862.5,1848.5C 858.565,1861.6 850.231,1870.77 837.5,1876C 833.514,1876.5 829.514,1876.67 825.5,1876.5C 825.409,1881.05 823.742,1884.88 820.5,1888C 814.898,1890.2 809.231,1892.2 803.5,1894C 800.947,1894.85 798.614,1894.52 796.5,1893C 799.207,1885.49 799.04,1877.99 796,1870.5C 791.899,1861.96 786.566,1854.29 780,1847.5C 777.244,1837.4 773.411,1827.73 768.5,1818.5C 771.208,1816.39 774.041,1814.39 777,1812.5C 783.556,1825.62 792.056,1837.29 802.5,1847.5C 803.308,1847.19 803.975,1846.69 804.5,1846C 794.694,1835.39 786.361,1823.72 779.5,1811C 783.273,1807.28 786.44,1803.12 789,1798.5C 789.718,1797.55 790.551,1797.38 791.5,1798C 804.304,1804.47 814.137,1813.97 821,1826.5C 822.365,1825.41 822.699,1824.07 822,1822.5C 814.567,1810.4 804.567,1801.07 792,1794.5C 793.329,1789.53 794.829,1784.53 796.5,1779.5 Z"/></g>
<g><path style="opacity:1" fill="#b4cbe9" d="M 679.5,1799.5 C 681.134,1800.21 682.468,1801.37 683.5,1803C 676.732,1807.47 670.232,1812.3 664,1817.5C 659.525,1822.78 656.358,1828.78 654.5,1835.5C 655.651,1836.73 656.817,1836.73 658,1835.5C 660.363,1827.28 664.863,1820.44 671.5,1815C 676.34,1812.08 681.006,1808.91 685.5,1805.5C 689.967,1809.79 694.633,1813.96 699.5,1818C 693.377,1829.08 686.877,1839.92 680,1850.5C 673.467,1857.18 665.967,1862.52 657.5,1866.5C 656.289,1867.27 656.289,1868.11 657.5,1869C 662.966,1866.93 668.3,1864.27 673.5,1861C 676.295,1859.21 678.795,1857.04 681,1854.5C 688.668,1843.17 695.835,1831.5 702.5,1819.5C 704.839,1820.84 707.172,1822.18 709.5,1823.5C 700.464,1841.38 691.631,1859.38 683,1877.5C 680.635,1885 679.968,1892.67 681,1900.5C 681.45,1902.52 682.283,1904.35 683.5,1906C 673.612,1905.39 666.279,1900.72 661.5,1892C 655.004,1893.69 648.337,1894.36 641.5,1894C 625.807,1889.28 618.141,1878.62 618.5,1862C 618.892,1858.75 619.892,1855.75 621.5,1853C 617.574,1850.77 614.074,1847.94 611,1844.5C 610.517,1843.55 610.351,1842.55 610.5,1841.5C 619.451,1841.13 627.784,1838.63 635.5,1834C 650.927,1823.4 665.593,1811.9 679.5,1799.5 Z"/></g>
<g><path style="opacity:1" fill="#655124" d="M 697.5,1804.5 C 700.998,1807.42 704.998,1809.59 709.5,1811C 710.784,1812.3 710.617,1813.46 709,1814.5C 703.877,1813.03 699.71,1810.19 696.5,1806C 697.056,1805.62 697.389,1805.12 697.5,1804.5 Z"/></g>
<g><path style="opacity:1" fill="#685428" d="M 379.5,2244.5 C 378.5,2244.5 377.5,2244.5 376.5,2244.5C 368.022,2205.03 373.856,2167.7 394,2132.5C 398.573,2118.22 394.74,2106.72 382.5,2098C 376.833,2096 371.167,2096 365.5,2098C 347.644,2108.86 334.81,2124.02 327,2143.5C 323.894,2150.92 321.56,2158.59 320,2166.5C 315.917,2192.67 311.083,2218.67 305.5,2244.5C 304.5,2244.5 303.5,2244.5 302.5,2244.5C 308.757,2214.97 314.59,2185.3 320,2155.5C 323.516,2143.3 329.016,2132.13 336.5,2122C 324.17,2114.35 313.004,2105.18 303,2094.5C 290.708,2079.39 288.708,2063.05 297,2045.5C 299.128,2042.37 301.628,2039.54 304.5,2037C 290.188,2037.2 275.855,2037.54 261.5,2038C 262.328,2063.43 262.828,2088.93 263,2114.5C 266.577,2150.63 271.244,2186.63 277,2222.5C 279.01,2230.03 281.51,2237.37 284.5,2244.5C 283.5,2244.5 282.5,2244.5 281.5,2244.5C 277.222,2233.16 274.055,2221.5 272,2209.5C 268.83,2184.81 265.497,2160.14 262,2135.5C 260.771,2100.85 259.771,2066.18 259,2031.5C 258.544,2020.06 257.21,2008.73 255,1997.5C 248.747,1979.79 236.58,1973.29 218.5,1978C 198.468,1982.72 190.634,1995.22 195,2015.5C 198.854,2046.48 202.521,2077.48 206,2108.5C 206.786,2130.5 207.619,2152.5 208.5,2174.5C 208.333,2181.83 208.167,2189.17 208,2196.5C 203.825,2212.53 199.658,2228.53 195.5,2244.5C 194.833,2244.5 194.167,2244.5 193.5,2244.5C 197.013,2229.12 200.846,2213.78 205,2198.5C 205.925,2191.36 206.425,2184.2 206.5,2177C 205.193,2152.84 204.027,2128.67 203,2104.5C 200.118,2079.83 197.285,2055.16 194.5,2030.5C 189.702,2030.29 185.036,2030.29 180.5,2030.5C 190.655,2051.89 192.155,2073.89 185,2096.5C 179.75,2108.09 171.917,2117.59 161.5,2125C 155.5,2129 149.5,2133 143.5,2137C 142.426,2137.74 141.759,2138.74 141.5,2140C 144.863,2148.42 148.03,2156.92 151,2165.5C 157.688,2191.92 164.521,2218.25 171.5,2244.5C 170.5,2244.5 169.5,2244.5 168.5,2244.5C 162.183,2220.23 156.016,2195.9 150,2171.5C 144.934,2153.7 137.934,2136.7 129,2120.5C 124.112,2111.28 116.945,2104.45 107.5,2100C 92.1195,2096.35 79.2861,2100.52 69,2112.5C 63.3725,2122.61 63.0392,2132.95 68,2143.5C 72.8095,2153.79 78.1428,2163.79 84,2173.5C 95.336,2195.84 100.503,2219.51 99.5,2244.5C 98.5,2244.5 97.5,2244.5 96.5,2244.5C 97.9464,2214.84 90.6131,2187.5 74.5,2162.5C 63.3176,2167.2 51.651,2169.2 39.5,2168.5C 25.8271,2168.67 12.4938,2166.67 -0.5,2162.5C -0.5,2161.5 -0.5,2160.5 -0.5,2159.5C 24.1412,2168.44 48.8079,2168.61 73.5,2160C 72.3597,2157.54 70.8597,2155.38 69,2153.5C 46.2327,2160.55 23.066,2162.21 -0.5,2158.5C -0.5,2157.83 -0.5,2157.17 -0.5,2156.5C 7.32887,2157.14 15.1622,2157.81 23,2158.5C 33.4975,2157.25 43.9975,2156.08 54.5,2155C 59.3832,2154.11 64.0499,2152.61 68.5,2150.5C 67.1622,2147.82 65.8289,2145.16 64.5,2142.5C 57.1297,2146.3 49.2963,2148.3 41,2148.5C 26.8668,2147.84 13.0335,2145.51 -0.5,2141.5C -0.5,2140.5 -0.5,2139.5 -0.5,2138.5C 15.7461,2143.89 32.4128,2146.06 49.5,2145C 54.2851,2144.29 58.7851,2142.79 63,2140.5C 63.3013,2137.49 63.1346,2134.49 62.5,2131.5C 47.5964,2135.34 33.2631,2133.84 19.5,2127C 12.3161,2123.91 5.64945,2120.08 -0.5,2115.5C -0.5,2114.5 -0.5,2113.5 -0.5,2112.5C 12.6682,2122.5 27.5015,2128.5 44,2130.5C 50.2109,2130.16 56.3776,2129.49 62.5,2128.5C 62.2161,2125.22 62.5495,2122.06 63.5,2119C 45.2846,2114.74 30.6179,2105.24 19.5,2090.5C 12.4458,2095.02 5.7791,2100.02 -0.5,2105.5C -0.5,2104.5 -0.5,2103.5 -0.5,2102.5C 47.4574,2063.67 102.124,2049.17 163.5,2059C 175.441,2063.94 182.608,2072.78 185,2085.5C 189.064,2066.02 186.564,2047.35 177.5,2029.5C 162.888,2027.01 148.222,2024.84 133.5,2023C 105.419,2016.58 87.4194,1999.58 79.5,1972C 45.1889,1959.6 18.5222,1968.77 -0.5,1999.5C -0.5,1997.83 -0.5,1996.17 -0.5,1994.5C 19.6311,1965.68 46.2977,1957.35 79.5,1969.5C 78.0191,1955.45 81.8524,1943.11 91,1932.5C 105.203,1919.3 119.703,1906.46 134.5,1894C 151.011,1878.75 165.511,1861.92 178,1843.5C 188.214,1832.98 200.047,1824.81 213.5,1819C 241.016,1807.99 264.516,1813.49 284,1835.5C 295.504,1853.84 307.504,1871.84 320,1889.5C 324.833,1894.33 329.667,1899.17 334.5,1904C 344.31,1910.66 353.476,1918.16 362,1926.5C 366.169,1932.17 369.835,1938.17 373,1944.5C 382.426,1972.72 375.926,1996.55 353.5,2016C 366.063,2011.9 378.396,2006.9 390.5,2001C 421.891,1987.57 445.391,1995.74 461,2025.5C 466.066,2039.36 470.732,2053.36 475,2067.5C 479,2076.17 483,2084.83 487,2093.5C 493.331,2106.49 495.664,2120.15 494,2134.5C 491.956,2148.78 484.456,2158.94 471.5,2165C 457.614,2168.23 443.614,2168.9 429.5,2167C 415.266,2162.72 401.933,2156.55 389.5,2148.5C 374.295,2179.21 370.961,2211.21 379.5,2244.5 Z"/></g>
<g><path style="opacity:1" fill="#fc802a" d="M 231.5,1816.5 C 255.614,1814.14 274.114,1823.14 287,1843.5C 297.006,1860.85 308.006,1877.52 320,1893.5C 329.29,1903.13 339.456,1911.63 350.5,1919C 376.906,1942.93 381.406,1970.43 364,2001.5C 358.793,2008.37 352.626,2014.21 345.5,2019C 342.455,2019.91 339.455,2020.58 336.5,2021C 345.749,1993.66 339.416,1970.66 317.5,1952C 306.914,1946.18 295.581,1942.52 283.5,1941C 265.186,1938.52 246.853,1936.19 228.5,1934C 211.572,1933.03 194.905,1934.69 178.5,1939C 159.603,1945.28 141.937,1953.95 125.5,1965C 112.081,1976 105.248,1990.17 105,2007.5C 85.1812,1990.56 78.8479,1969.56 86,1944.5C 87.6667,1941.83 89.3333,1939.17 91,1936.5C 112.967,1916.87 134.634,1896.87 156,1876.5C 166.035,1862.13 177.201,1848.63 189.5,1836C 201.937,1825.95 215.937,1819.45 231.5,1816.5 Z"/></g>
<g><path style="opacity:1" fill="#b4cce9" d="M 763.5,1819.5 C 764.496,1819.41 765.329,1819.75 766,1820.5C 770.65,1829.45 774.316,1838.78 777,1848.5C 779.954,1853.39 783.621,1857.72 788,1861.5C 792.191,1867.91 794.691,1874.91 795.5,1882.5C 794.654,1897.25 786.987,1903.41 772.5,1901C 770.701,1912.8 764.034,1920.13 752.5,1923C 738.763,1925.82 727.096,1922.32 717.5,1912.5C 715.203,1913.65 712.87,1914.82 710.5,1916C 708.5,1916.67 706.5,1916.67 704.5,1916C 699.659,1913.08 694.659,1910.41 689.5,1908C 686.533,1905.9 684.7,1903.07 684,1899.5C 682.971,1888.61 684.971,1878.28 690,1868.5C 698.207,1854.09 705.873,1839.42 713,1824.5C 716.702,1825.86 720.535,1826.86 724.5,1827.5C 719.312,1839.8 716.978,1852.63 717.5,1866C 717.45,1872.55 717.95,1879.05 719,1885.5C 719.71,1886.97 720.876,1887.64 722.5,1887.5C 718.803,1867.77 720.303,1848.44 727,1829.5C 728.009,1828.34 729.342,1827.68 731,1827.5C 736.851,1826.86 742.684,1826.2 748.5,1825.5C 752.984,1842.59 756.317,1859.92 758.5,1877.5C 759.086,1877.29 759.586,1876.96 760,1876.5C 760.175,1858.71 757.009,1841.54 750.5,1825C 755.154,1823.67 759.487,1821.83 763.5,1819.5 Z"/></g>
<g><path style="opacity:1" fill="#b5ccea" d="M 1586.5,1869.5 C 1586.5,1918.83 1586.5,1968.17 1586.5,2017.5C 1567.52,2019.75 1548.52,2021.91 1529.5,2024C 1471.14,2027.93 1412.81,2032.26 1354.5,2037C 1291.43,2048.11 1239.26,2077.94 1198,2126.5C 1170.81,2157.91 1149.97,2193.24 1135.5,2232.5C 1134.96,2232.56 1134.62,2232.89 1134.5,2233.5C 1220.83,2234.5 1307.16,2234.83 1393.5,2234.5C 1431.5,2234.5 1469.5,2234.5 1507.5,2234.5C 1507.74,2233.21 1507.4,2232.21 1506.5,2231.5C 1500.7,2180.62 1523.04,2150.45 1573.5,2141C 1577.86,2140.63 1582.2,2140.13 1586.5,2139.5C 1586.5,2142.83 1586.5,2146.17 1586.5,2149.5C 1531.46,2154.71 1507.96,2184.71 1516,2239.5C 1514.79,2241.05 1513.29,2242.22 1511.5,2243C 1332.5,2243.5 1153.5,2243.67 974.5,2243.5C 972.321,2243.16 970.488,2242.16 969,2240.5C 967.177,2231.49 967.511,2222.49 970,2213.5C 986.043,2142.84 1020.54,2083.01 1073.5,2034C 1117.68,1994.71 1167.35,1963.71 1222.5,1941C 1317.26,1901.98 1415.93,1884.32 1518.5,1888C 1541.78,1884.01 1564.45,1877.85 1586.5,1869.5 Z"/></g>
<g><path style="opacity:1" fill="#725b33" d="M 175.5,1893.5 C 181.555,1892.94 182.888,1895.11 179.5,1900C 174.57,1900.43 173.237,1898.26 175.5,1893.5 Z"/></g>
<g><path style="opacity:1" fill="#705a32" d="M 289.5,1893.5 C 294.993,1892.18 297.493,1894.18 297,1899.5C 290.925,1901.57 288.425,1899.57 289.5,1893.5 Z"/></g>
<g><path style="opacity:1" fill="#6b5329" d="M 264.5,1895.5 C 267.862,1895.07 270.695,1896.07 273,1898.5C 274.052,1902.29 272.552,1904.29 268.5,1904.5C 262.977,1903.13 261.644,1900.13 264.5,1895.5 Z"/></g>
<g><path style="opacity:1" fill="#f0dfc8" d="M 265.5,1898.5 C 267.167,1898.5 268.833,1898.5 270.5,1898.5C 270.5,1899.5 270.5,1900.5 270.5,1901.5C 267.715,1902.08 266.048,1901.08 265.5,1898.5 Z"/></g>
<g><path style="opacity:1" fill="#665027" d="M 287.5,1902.5 C 294.996,1901.84 299.996,1905.01 302.5,1912C 302.265,1912.87 301.931,1913.71 301.5,1914.5C 293.825,1916.82 288.159,1914.49 284.5,1907.5C 285.092,1905.58 286.092,1903.91 287.5,1902.5 Z"/></g>
<g><path style="opacity:1" fill="#efdec7" d="M 288.5,1904.5 C 294.85,1904.48 298.516,1907.48 299.5,1913.5C 295.489,1913.5 291.822,1912.33 288.5,1910C 287.248,1908.17 287.248,1906.34 288.5,1904.5 Z"/></g>
<g><path style="opacity:1" fill="#6c5329" d="M 146.5,1906.5 C 158.992,1907.64 160.659,1912.47 151.5,1921C 148.11,1923.24 144.443,1924.24 140.5,1924C 137.797,1922.18 136.964,1919.68 138,1916.5C 139.978,1912.36 142.811,1909.03 146.5,1906.5 Z"/></g>
<g><path style="opacity:1" fill="#f2e1cb" d="M 146.5,1909.5 C 155.878,1910.13 156.878,1913.3 149.5,1919C 146.794,1920.91 143.794,1921.74 140.5,1921.5C 140.407,1916.35 142.407,1912.35 146.5,1909.5 Z"/></g>
<g><path style="opacity:1" fill="#685229" d="M 180.5,1914.5 C 185.039,1913.96 188.873,1915.29 192,1918.5C 192.667,1919.5 192.667,1920.5 192,1921.5C 188.014,1923.7 183.848,1924.03 179.5,1922.5C 176.638,1919.31 176.971,1916.65 180.5,1914.5 Z"/></g>
<g><path style="opacity:1" fill="#3c8f6e" d="M 790.5,2244.5 C 784.167,2244.5 777.833,2244.5 771.5,2244.5C 772.115,2238.5 772.782,2232.5 773.5,2226.5C 773.292,2223.82 772.125,2223.15 770,2224.5C 769.665,2231.19 769.165,2237.86 768.5,2244.5C 767.5,2244.5 766.5,2244.5 765.5,2244.5C 766.533,2228.51 766.7,2212.51 766,2196.5C 762.847,2160.73 755.847,2125.73 745,2091.5C 737.061,2067.02 728.728,2042.68 720,2018.5C 712.396,1985.11 710.729,1951.44 715,1917.5C 715.561,1916.98 716.228,1916.64 717,1916.5C 722.815,1922.66 729.982,1925.99 738.5,1926.5C 735.311,1957.65 737.811,1988.32 746,2018.5C 758.47,2050.91 769.137,2083.91 778,2117.5C 789.054,2159.15 793.221,2201.48 790.5,2244.5 Z"/></g>
<g><path style="opacity:1" fill="#efdec7" d="M 180.5,1917.5 C 183.807,1917.06 186.807,1917.73 189.5,1919.5C 187.133,1921.4 184.466,1921.9 181.5,1921C 180.663,1919.99 180.33,1918.82 180.5,1917.5 Z"/></g>
<g><path style="opacity:1" fill="#745c34" d="M 160.5,1921.5 C 165.068,1921.08 166.568,1923.08 165,1927.5C 161.72,1930.45 158.886,1930.12 156.5,1926.5C 157.16,1924.19 158.493,1922.52 160.5,1921.5 Z"/></g>
<g><path style="opacity:1" fill="#685026" d="M 308.5,1923.5 C 314.641,1922.82 317.808,1925.48 318,1931.5C 312.554,1935.64 308.721,1934.31 306.5,1927.5C 306.752,1925.93 307.418,1924.59 308.5,1923.5 Z"/></g>
<g><path style="opacity:1" fill="#3c8f6f" d="M 962.5,1923.5 C 964.199,1923.34 965.866,1923.51 967.5,1924C 968.097,1925.06 968.43,1926.23 968.5,1927.5C 966.954,1933.59 965.121,1939.59 963,1945.5C 961.782,1965.81 961.116,1986.14 961,2006.5C 959.546,2017.87 955.546,2028.2 949,2037.5C 937.387,2052.04 923.554,2063.87 907.5,2073C 876.597,2108.65 838.263,2120.31 792.5,2108C 787.913,2107.2 783.413,2107.37 779,2108.5C 776.369,2101.31 774.702,2093.98 774,2086.5C 779.888,2081.06 786.888,2078.39 795,2078.5C 808.582,2080.15 822.082,2082.32 835.5,2085C 839.5,2085.67 843.5,2085.67 847.5,2085C 847.957,2084.59 848.291,2084.09 848.5,2083.5C 833.667,2081.97 819.001,2079.47 804.5,2076C 797.011,2075.21 789.677,2075.54 782.5,2077C 802.953,2062.41 825.787,2055.91 851,2057.5C 865.236,2057.51 879.403,2058.51 893.5,2060.5C 901.975,2059.88 909.975,2057.72 917.5,2054C 916.892,2053.13 916.059,2052.63 915,2052.5C 907.846,2054.96 900.513,2056.62 893,2057.5C 872.614,2053.94 852.114,2052.77 831.5,2054C 846.705,2048.27 862.038,2042.93 877.5,2038C 894.03,2034.78 910.364,2030.78 926.5,2026C 935.183,2022.67 942.849,2017.83 949.5,2011.5C 949,2011.17 948.5,2010.83 948,2010.5C 932.288,2021.74 914.788,2028.24 895.5,2030C 927.437,2007.99 948.437,1978.16 958.5,1940.5C 957.325,1940.28 956.325,1940.61 955.5,1941.5C 948.841,1959.82 940.341,1977.15 930,1993.5C 925.333,1998.83 920.667,2004.17 916,2009.5C 919.667,1996.83 925.5,1985.17 933.5,1974.5C 932.635,1973.42 931.635,1973.25 930.5,1974C 928.291,1975.87 926.458,1978.04 925,1980.5C 920,1991.17 915,2001.83 910,2012.5C 902.067,2022.73 891.9,2029.89 879.5,2034C 868.845,2037.78 858.179,2041.11 847.5,2044C 853.928,2039.58 859.761,2034.41 865,2028.5C 869.07,2021.76 873.904,2015.59 879.5,2010C 883.5,2007.33 887.5,2004.67 891.5,2002C 890.975,2001.31 890.308,2000.81 889.5,2000.5C 877.193,2006.97 867.693,2016.31 861,2028.5C 851.959,2037.54 841.792,2045.04 830.5,2051C 818.39,2055.73 806.39,2060.4 794.5,2065C 798.05,2061.12 801.217,2056.95 804,2052.5C 807.492,2044.85 811.492,2037.51 816,2030.5C 818.371,2027.79 821.037,2025.46 824,2023.5C 824.432,2022.4 823.932,2021.73 822.5,2021.5C 816.839,2025 812.339,2029.66 809,2035.5C 805.508,2043.15 801.508,2050.49 797,2057.5C 788.358,2065.81 780.024,2074.48 772,2083.5C 768.95,2076.03 766.95,2068.37 766,2060.5C 767.365,2054.77 770.031,2049.77 774,2045.5C 789.199,2030.63 804.699,2016.13 820.5,2002C 826.439,1998.2 832.773,1995.2 839.5,1993C 857.794,1989.58 876.127,1986.24 894.5,1983C 907.823,1980.66 918.989,1974.5 928,1964.5C 935.579,1954.34 942.912,1944.01 950,1933.5C 953.489,1929.16 957.656,1925.83 962.5,1923.5 Z"/></g>
<g><path style="opacity:1" fill="#6e5328" d="M 108.5,1924.5 C 114.238,1925.38 115.571,1928.21 112.5,1933C 108.642,1935.54 105.976,1934.71 104.5,1930.5C 104.866,1927.74 106.2,1925.74 108.5,1924.5 Z"/></g>
<g><path style="opacity:1" fill="#e4d3bb" d="M 309.5,1925.5 C 313.806,1925.3 315.806,1927.3 315.5,1931.5C 311.167,1931.83 309.167,1929.83 309.5,1925.5 Z"/></g>
<g><path style="opacity:1" fill="#f2e1ca" d="M 108.5,1927.5 C 109.5,1927.5 110.5,1927.5 111.5,1927.5C 111.833,1930.5 110.5,1931.83 107.5,1931.5C 107.433,1930.04 107.766,1928.71 108.5,1927.5 Z"/></g>
<g><path style="opacity:1" fill="#685127" d="M 131.5,1934.5 C 136.989,1934.5 138.822,1937.17 137,1942.5C 134.472,1946.08 131.472,1946.42 128,1943.5C 127.333,1941.83 127.333,1940.17 128,1938.5C 129.376,1937.29 130.542,1935.96 131.5,1934.5 Z"/></g>
<g><path style="opacity:1" fill="#f8b737" d="M 204.5,1936.5 C 212.167,1936.5 219.833,1936.5 227.5,1936.5C 228.891,1948.86 228.724,1961.19 227,1973.5C 224.056,1974.26 221.056,1974.92 218,1975.5C 210.267,1964.67 205.434,1952.5 203.5,1939C 203.743,1938.1 204.077,1937.26 204.5,1936.5 Z"/></g>
<g><path style="opacity:1" fill="#eddcc5" d="M 131.5,1937.5 C 135.82,1937.96 136.487,1939.79 133.5,1943C 132.552,1943.48 131.552,1943.65 130.5,1943.5C 130.325,1941.38 130.659,1939.38 131.5,1937.5 Z"/></g>
<g><path style="opacity:1" fill="#f8b737" d="M 197.5,1937.5 C 198.5,1937.5 199.5,1937.5 200.5,1937.5C 202.689,1951.23 207.356,1964.07 214.5,1976C 210.727,1977.97 206.894,1979.8 203,1981.5C 198.225,1977.32 193.891,1972.65 190,1967.5C 185.636,1959.44 181.802,1951.1 178.5,1942.5C 184.739,1940.02 191.072,1938.36 197.5,1937.5 Z"/></g>
<g><path style="opacity:1" fill="#f7b737" d="M 229.5,1937.5 C 234.854,1937.57 240.187,1937.9 245.5,1938.5C 245.561,1949.6 243.394,1960.26 239,1970.5C 236.996,1974.94 233.829,1975.77 229.5,1973C 230.805,1961.2 230.805,1949.36 229.5,1937.5 Z"/></g>
<g><path style="opacity:1" fill="#f8b737" d="M 247.5,1939.5 C 257.017,1939.74 266.351,1941.08 275.5,1943.5C 271.961,1960.27 263.628,1973.94 250.5,1984.5C 247.596,1980.43 243.929,1977.26 239.5,1975C 245.401,1963.9 248.068,1952.06 247.5,1939.5 Z"/></g>
<g><path style="opacity:1" fill="#f8b737" d="M 174.5,1942.5 C 178.722,1950.57 182.888,1958.9 187,1967.5C 190.251,1972.76 194.251,1977.42 199,1981.5C 198.295,1985.58 196.462,1989.24 193.5,1992.5C 172.777,1986.31 156.11,1974.48 143.5,1957C 153.773,1951.86 164.107,1947.03 174.5,1942.5 Z"/></g>
<g><path style="opacity:1" fill="#f8b737" d="M 277.5,1943.5 C 285.791,1943.89 293.791,1945.56 301.5,1948.5C 294.737,1966.08 283.737,1980.25 268.5,1991C 265.174,1992.91 261.674,1994.41 258,1995.5C 255.93,1993.04 254.097,1990.37 252.5,1987.5C 265.508,1975.48 273.842,1960.82 277.5,1943.5 Z"/></g>
<g><path style="opacity:1" fill="#5a4e26" d="M 716.5,1945.5 C 717.496,1945.41 718.329,1945.75 719,1946.5C 718.648,1974.02 722.148,2001.02 729.5,2027.5C 728.1,2029.93 726.934,2029.59 726,2026.5C 718.617,2000.01 715.451,1973.01 716.5,1945.5 Z"/></g>
<g><path style="opacity:1" fill="#f7b737" d="M 304.5,1948.5 C 312.528,1951.35 319.361,1956.02 325,1962.5C 325.667,1963.17 325.667,1963.83 325,1964.5C 315.475,1975.02 305.642,1985.19 295.5,1995C 284.814,2002.95 272.814,2007.45 259.5,2008.5C 259.099,2005.25 258.432,2002.09 257.5,1999C 274.333,1992.51 287.166,1981.34 296,1965.5C 298.847,1959.81 301.68,1954.14 304.5,1948.5 Z"/></g>
<g><path style="opacity:1" fill="#3c8f6f" d="M 526.5,1955.5 C 532.389,1956.28 537.722,1958.44 542.5,1962C 551.27,1971.53 560.27,1980.86 569.5,1990C 581.226,2000.13 594.893,2005.13 610.5,2005C 626.833,2005.33 643.167,2005.67 659.5,2006C 669.441,2007.15 678.775,2010.15 687.5,2015C 699.404,2023.87 711.571,2032.37 724,2040.5C 728.894,2053.18 733.394,2066.02 737.5,2079C 737.167,2079.5 736.833,2080 736.5,2080.5C 724.96,2073.46 714.793,2064.79 706,2054.5C 701.027,2044.36 693.527,2036.69 683.5,2031.5C 682.692,2031.81 682.025,2032.31 681.5,2033C 691.704,2039.87 699.87,2048.71 706,2059.5C 710.39,2063.34 713.89,2067.34 716.5,2071.5C 701.345,2067.8 686.345,2063.63 671.5,2059C 663.347,2055.43 655.68,2051.09 648.5,2046C 638.983,2034.97 627.65,2026.47 614.5,2020.5C 612.512,2021.29 612.179,2022.46 613.5,2024C 617.729,2025.11 621.729,2026.78 625.5,2029C 631.802,2034.3 637.802,2039.97 643.5,2046C 649.327,2050.75 655.66,2054.75 662.5,2058C 650.163,2056.41 637.83,2054.41 625.5,2052C 613.794,2049.23 603.627,2043.73 595,2035.5C 589,2026.17 583,2016.83 577,2007.5C 574.469,2004.11 571.302,2001.78 567.5,2000.5C 575.202,2010.2 582.202,2020.53 588.5,2031.5C 588.333,2031.83 588.167,2032.17 588,2032.5C 577,2024.17 567.333,2014.5 559,2003.5C 552.402,1992.63 545.569,1981.96 538.5,1971.5C 538.167,1972.17 537.833,1972.83 537.5,1973.5C 545.827,1989.49 555.66,2004.49 567,2018.5C 580.218,2032.05 595.384,2042.88 612.5,2051C 593.175,2052.59 575.009,2048.75 558,2039.5C 556.274,2040.65 556.441,2041.81 558.5,2043C 567.542,2048.13 577.209,2051.46 587.5,2053C 619.306,2054.1 650.639,2058.43 681.5,2066C 670.384,2066.35 659.384,2067.69 648.5,2070C 636.493,2072.84 624.493,2075.67 612.5,2078.5C 606.535,2076.84 600.535,2076.5 594.5,2077.5C 594.709,2078.09 595.043,2078.59 595.5,2079C 602.724,2080.98 610.058,2081.65 617.5,2081C 638.321,2074.27 659.654,2070.44 681.5,2069.5C 699.381,2069.39 716.381,2073.22 732.5,2081C 725.816,2080.05 719.149,2080.38 712.5,2082C 703.026,2084.94 693.692,2088.27 684.5,2092C 679.286,2093.64 673.953,2094.64 668.5,2095C 667.663,2096.01 667.33,2097.18 667.5,2098.5C 673.595,2097.87 679.595,2096.71 685.5,2095C 696.243,2090.53 707.243,2086.86 718.5,2084C 726.41,2082.88 733.744,2084.38 740.5,2088.5C 742.7,2095.1 744.7,2101.77 746.5,2108.5C 746.167,2109.17 745.833,2109.83 745.5,2110.5C 740.219,2111.29 734.885,2111.79 729.5,2112C 712.84,2118.29 695.673,2122.46 678,2124.5C 658.775,2123.42 640.942,2117.92 624.5,2108C 611.152,2097.32 596.486,2088.65 580.5,2082C 560.589,2070.68 548.089,2053.85 543,2031.5C 540.55,2015.46 537.883,1999.46 535,1983.5C 533.08,1976.33 530.08,1969.66 526,1963.5C 525.278,1960.74 525.445,1958.07 526.5,1955.5 Z"/></g>
<g><path style="opacity:1" fill="#f8b737" d="M 139.5,1958.5 C 140.552,1958.35 141.552,1958.52 142.5,1959C 154.44,1976.76 170.773,1988.59 191.5,1994.5C 191.909,1998.07 191.909,2001.74 191.5,2005.5C 171.377,2003.96 152.377,1998.46 134.5,1989C 128.847,1985.34 123.847,1981.01 119.5,1976C 119.862,1974.78 120.362,1973.61 121,1972.5C 126.607,1966.96 132.774,1962.3 139.5,1958.5 Z"/></g>
<g><path style="opacity:1" fill="#685128" d="M 345.5,1957.5 C 351.986,1958.47 354.819,1962.14 354,1968.5C 350.378,1973.74 347.045,1973.4 344,1967.5C 343.037,1963.85 343.537,1960.52 345.5,1957.5 Z"/></g>
<g><path style="opacity:1" fill="#ebdac3" d="M 346.5,1960.5 C 352.945,1961.97 353.945,1964.97 349.5,1969.5C 345.892,1967.3 344.892,1964.3 346.5,1960.5 Z"/></g>
<g><path style="opacity:1" fill="#fc802a" d="M -0.5,2102.5 C -0.5,2096.5 -0.5,2090.5 -0.5,2084.5C 7.52699,2082.63 9.19366,2078.47 4.5,2072C 2.86586,2071.51 1.19919,2071.34 -0.5,2071.5C -0.5,2068.83 -0.5,2066.17 -0.5,2063.5C 5.94388,2064.03 11.1106,2061.7 15,2056.5C 17.6235,2052.03 16.7901,2048.53 12.5,2046C 7.69348,2044.84 3.36015,2045.68 -0.5,2048.5C -0.5,2035.83 -0.5,2023.17 -0.5,2010.5C 6.15773,2013.49 10.1577,2011.16 11.5,2003.5C 11.3304,2000.8 9.99709,1999.13 7.5,1998.5C 4.30751,1999.37 1.64084,2001.03 -0.5,2003.5C -0.5,2002.17 -0.5,2000.83 -0.5,1999.5C 18.5222,1968.77 45.1889,1959.6 79.5,1972C 87.4194,1999.58 105.419,2016.58 133.5,2023C 148.222,2024.84 162.888,2027.01 177.5,2029.5C 186.564,2047.35 189.064,2066.02 185,2085.5C 182.608,2072.78 175.441,2063.94 163.5,2059C 102.124,2049.17 47.4574,2063.67 -0.5,2102.5 Z"/></g>
<g><path style="opacity:1" fill="#f8b737" d="M 326.5,1965.5 C 333.205,1973.93 337.205,1983.59 338.5,1994.5C 338.471,1996.03 337.804,1997.2 336.5,1998C 312.636,2010.45 287.303,2017.95 260.5,2020.5C 260.5,2017.17 260.5,2013.83 260.5,2010.5C 277.736,2009.13 292.57,2002.46 305,1990.5C 312.002,1982 319.169,1973.67 326.5,1965.5 Z"/></g>
<g><path style="opacity:1" fill="#e0bc83" d="M 281.5,2244.5 C 252.833,2244.5 224.167,2244.5 195.5,2244.5C 199.658,2228.53 203.825,2212.53 208,2196.5C 208.167,2189.17 208.333,2181.83 208.5,2174.5C 207.619,2152.5 206.786,2130.5 206,2108.5C 202.521,2077.48 198.854,2046.48 195,2015.5C 190.634,1995.22 198.468,1982.72 218.5,1978C 236.58,1973.29 248.747,1979.79 255,1997.5C 257.21,2008.73 258.544,2020.06 259,2031.5C 259.771,2066.18 260.771,2100.85 262,2135.5C 265.497,2160.14 268.83,2184.81 272,2209.5C 274.055,2221.5 277.222,2233.16 281.5,2244.5 Z"/></g>
<g><path style="opacity:1" fill="#f7b737" d="M 116.5,1977.5 C 123.108,1983.94 130.441,1989.44 138.5,1994C 147.423,1997.53 156.423,2000.86 165.5,2004C 174.172,2005.23 182.839,2006.4 191.5,2007.5C 191.704,2010.52 192.037,2013.52 192.5,2016.5C 188.002,2016.79 183.502,2017.12 179,2017.5C 165.566,2015.58 152.066,2014.41 138.5,2014C 128.27,2012.14 118.27,2009.48 108.5,2006C 107.254,2001.51 107.42,1997.01 109,1992.5C 111.322,1987.36 113.822,1982.36 116.5,1977.5 Z"/></g>
<g><path style="opacity:1" fill="#fc802a" d="M 411.5,1997.5 C 434.46,1996.31 450.294,2006.31 459,2027.5C 463.605,2039.65 467.605,2051.98 471,2064.5C 477.275,2078.05 483.275,2091.72 489,2105.5C 494.259,2121.42 492.926,2136.75 485,2151.5C 477.624,2161.15 467.79,2165.65 455.5,2165C 450.798,2165.83 446.131,2165.66 441.5,2164.5C 444.6,2153.57 443.766,2142.9 439,2132.5C 427.055,2109.22 409.222,2092.06 385.5,2081C 375.989,2076.94 366.322,2073.27 356.5,2070C 339.653,2066.5 323.653,2068.84 308.5,2077C 305.37,2079.13 302.537,2081.63 300,2084.5C 288.852,2057.95 296.685,2039.11 323.5,2028C 336.925,2024.31 350.258,2020.31 363.5,2016C 378.99,2008.12 394.99,2001.95 411.5,1997.5 Z"/></g>
<g><path style="opacity:1" fill="#6a5227" d="M -0.5,2010.5 C -0.5,2008.17 -0.5,2005.83 -0.5,2003.5C 1.64084,2001.03 4.30751,1999.37 7.5,1998.5C 9.99709,1999.13 11.3304,2000.8 11.5,2003.5C 10.1577,2011.16 6.15773,2013.49 -0.5,2010.5 Z"/></g>
<g><path style="opacity:1" fill="#f8b737" d="M 337.5,1999.5 C 338.589,2007.24 337.256,2014.74 333.5,2022C 317.643,2028.09 301.143,2030.93 284,2030.5C 276.509,2029.91 269.009,2029.57 261.5,2029.5C 261.244,2027.21 261.577,2025.04 262.5,2023C 289.215,2020.26 314.215,2012.43 337.5,1999.5 Z"/></g>
<g><path style="opacity:1" fill="#f0dfc9" d="M 5.5,2001.5 C 6.5,2001.5 7.5,2001.5 8.5,2001.5C 8.91333,2006.71 6.57999,2009.38 1.5,2009.5C 1.27757,2005.94 2.6109,2003.28 5.5,2001.5 Z"/></g>
<g><path style="opacity:1" fill="#f4b537" d="M 108.5,2010.5 C 108.735,2009.9 109.235,2009.57 110,2009.5C 118.401,2012.08 126.901,2014.25 135.5,2016C 145.576,2016.25 155.576,2017.25 165.5,2019C 174.036,2019.79 182.536,2019.62 191,2018.5C 191.945,2018.91 192.612,2019.57 193,2020.5C 193.497,2022.81 193.663,2025.14 193.5,2027.5C 172.774,2025.66 152.108,2023.16 131.5,2020C 123.342,2017.9 115.675,2014.73 108.5,2010.5 Z"/></g>
<g><path style="opacity:1" fill="#655027" d="M 96.5,2012.5 C 101.126,2011.7 104.96,2013.03 108,2016.5C 108.056,2020.61 105.889,2022.61 101.5,2022.5C 93.2237,2021.9 91.5571,2018.56 96.5,2012.5 Z"/></g>
<g><path style="opacity:1" fill="#e4d3bb" d="M 97.5,2014.5 C 100.928,2014.55 103.928,2015.71 106.5,2018C 102.806,2021.47 99.4722,2021.3 96.5,2017.5C 96.685,2016.42 97.0183,2015.42 97.5,2014.5 Z"/></g>
<g><path style="opacity:1" fill="#484fa2" d="M 1586.5,2017.5 C 1586.5,2041.17 1586.5,2064.83 1586.5,2088.5C 1543.14,2091.09 1502.14,2102.26 1463.5,2122C 1419.97,2146.39 1396.63,2183.56 1393.5,2233.5C 1307.33,2233.83 1221.33,2233.5 1135.5,2232.5C 1149.97,2193.24 1170.81,2157.91 1198,2126.5C 1239.26,2077.94 1291.43,2048.11 1354.5,2037C 1412.81,2032.26 1471.14,2027.93 1529.5,2024C 1548.52,2021.91 1567.52,2019.75 1586.5,2017.5 Z"/></g>
<g><path style="opacity:1" fill="#fefefd" d="M 193.5,2244.5 C 186.167,2244.5 178.833,2244.5 171.5,2244.5C 164.521,2218.25 157.688,2191.92 151,2165.5C 148.03,2156.92 144.863,2148.42 141.5,2140C 141.759,2138.74 142.426,2137.74 143.5,2137C 149.5,2133 155.5,2129 161.5,2125C 171.917,2117.59 179.75,2108.09 185,2096.5C 192.155,2073.89 190.655,2051.89 180.5,2030.5C 185.036,2030.29 189.702,2030.29 194.5,2030.5C 197.285,2055.16 200.118,2079.83 203,2104.5C 204.027,2128.67 205.193,2152.84 206.5,2177C 206.425,2184.2 205.925,2191.36 205,2198.5C 200.846,2213.78 197.013,2229.12 193.5,2244.5 Z"/></g>
<g><path style="opacity:1" fill="#ecaf36" d="M 261.5,2031.5 C 277.84,2032.65 294.173,2032.81 310.5,2032C 307.956,2033.09 305.289,2033.76 302.5,2034C 288.837,2034.5 275.171,2034.67 261.5,2034.5C 261.5,2033.5 261.5,2032.5 261.5,2031.5 Z"/></g>
<g><path style="opacity:1" fill="#634e24" d="M 403.5,2035.5 C 407.976,2035.82 409.476,2038.16 408,2042.5C 404.509,2045.45 402.342,2044.61 401.5,2040C 401.519,2038.17 402.185,2036.67 403.5,2035.5 Z"/></g>
<g><path style="opacity:1" fill="#fefefe" d="M 302.5,2244.5 C 296.5,2244.5 290.5,2244.5 284.5,2244.5C 281.51,2237.37 279.01,2230.03 277,2222.5C 271.244,2186.63 266.577,2150.63 263,2114.5C 262.828,2088.93 262.328,2063.43 261.5,2038C 275.855,2037.54 290.188,2037.2 304.5,2037C 301.628,2039.54 299.128,2042.37 297,2045.5C 288.708,2063.05 290.708,2079.39 303,2094.5C 313.004,2105.18 324.17,2114.35 336.5,2122C 329.016,2132.13 323.516,2143.3 320,2155.5C 314.59,2185.3 308.757,2214.97 302.5,2244.5 Z"/></g>
<g><path style="opacity:1" fill="#e3d2ba" d="M 403.5,2038.5 C 404.5,2038.5 405.5,2038.5 406.5,2038.5C 406.5,2039.5 406.5,2040.5 406.5,2041.5C 405.5,2041.5 404.5,2041.5 403.5,2041.5C 403.5,2040.5 403.5,2039.5 403.5,2038.5 Z"/></g>
<g><path style="opacity:1" fill="#685127" d="M 359.5,2043.5 C 365.067,2042.75 366.9,2045.09 365,2050.5C 362.667,2053.17 360.333,2053.17 358,2050.5C 357.167,2047.83 357.667,2045.5 359.5,2043.5 Z"/></g>
<g><path style="opacity:1" fill="#665128" d="M -0.5,2063.5 C -0.5,2062.5 -0.5,2061.5 -0.5,2060.5C 6.59952,2061.44 11.5995,2058.44 14.5,2051.5C 9.587,2046.25 4.587,2046.25 -0.5,2051.5C -0.5,2050.5 -0.5,2049.5 -0.5,2048.5C 3.36015,2045.68 7.69348,2044.84 12.5,2046C 16.7901,2048.53 17.6235,2052.03 15,2056.5C 11.1106,2061.7 5.94388,2064.03 -0.5,2063.5 Z"/></g>
<g><path style="opacity:1" fill="#f2e1cb" d="M 361.5,2045.5 C 364.14,2046.79 364.14,2048.13 361.5,2049.5C 359.206,2048.37 359.206,2047.04 361.5,2045.5 Z"/></g>
<g><path style="opacity:1" fill="#f1e0ca" d="M -0.5,2060.5 C -0.5,2057.5 -0.5,2054.5 -0.5,2051.5C 4.587,2046.25 9.587,2046.25 14.5,2051.5C 11.5995,2058.44 6.59952,2061.44 -0.5,2060.5 Z"/></g>
<g><path style="opacity:1" fill="#67542b" d="M 207.5,2047.5 C 208.777,2048.69 209.444,2050.36 209.5,2052.5C 210.186,2072.79 213.52,2092.62 219.5,2112C 219.37,2113.06 218.87,2113.89 218,2114.5C 210.502,2092.86 207.002,2070.53 207.5,2047.5 Z"/></g>
<g><path style="opacity:1" fill="#6b552b" d="M 340.5,2052.5 C 344.192,2051.97 347.358,2052.97 350,2055.5C 350.551,2060.12 348.384,2062.46 343.5,2062.5C 335.605,2060.91 334.605,2057.57 340.5,2052.5 Z"/></g>
<g><path style="opacity:1" fill="#f4e3cd" d="M 340.5,2055.5 C 343.32,2055.25 345.986,2055.75 348.5,2057C 346.316,2059.37 343.649,2060.03 340.5,2059C 339.316,2057.85 339.316,2056.69 340.5,2055.5 Z"/></g>
<g><path style="opacity:1" fill="#665027" d="M 34.5,2059.5 C 39.4585,2058.63 41.6252,2060.63 41,2065.5C 38.2935,2068.98 35.2935,2069.31 32,2066.5C 31.162,2063.52 31.9953,2061.19 34.5,2059.5 Z"/></g>
<g><path style="opacity:1" fill="#f8b737" d="M 138.5,2058.5 C 140.167,2058.5 141.833,2058.5 143.5,2058.5C 142.65,2077.53 135.316,2093.53 121.5,2106.5C 118.786,2103.78 115.786,2101.45 112.5,2099.5C 120.542,2087.33 123.876,2074 122.5,2059.5C 128.026,2059.82 133.36,2059.49 138.5,2058.5 Z"/></g>
<g><path style="opacity:1" fill="#f8b737" d="M 145.5,2059.5 C 151.362,2059.15 157.028,2059.99 162.5,2062C 162.777,2086.95 152.277,2105.79 131,2118.5C 128.5,2115.33 126,2112.17 123.5,2109C 136.986,2095.2 144.319,2078.7 145.5,2059.5 Z"/></g>
<g><path style="opacity:1" fill="#f8b737" d="M 113.5,2059.5 C 115.5,2059.5 117.5,2059.5 119.5,2059.5C 121.32,2073.89 117.987,2086.89 109.5,2098.5C 106.273,2097.09 102.94,2096.09 99.5,2095.5C 100.323,2084.11 98.6566,2073.11 94.5,2062.5C 100.929,2061.22 107.262,2060.22 113.5,2059.5 Z"/></g>
<g><path style="opacity:1" fill="#e7d6be" d="M 35.5,2061.5 C 38.3892,2062 39.0558,2063.5 37.5,2066C 36.552,2066.48 35.552,2066.65 34.5,2066.5C 34.366,2064.71 34.6993,2063.04 35.5,2061.5 Z"/></g>
<g><path style="opacity:1" fill="#f8b737" d="M 88.5,2062.5 C 89.8333,2062.5 91.1667,2062.5 92.5,2062.5C 95.9954,2073.21 97.3287,2084.21 96.5,2095.5C 92.1854,2095.95 88.0187,2096.95 84,2098.5C 81.6774,2087.19 77.1774,2076.86 70.5,2067.5C 76.4352,2065.19 82.4352,2063.52 88.5,2062.5 Z"/></g>
<g><path style="opacity:1" fill="#f7b737" d="M 164.5,2062.5 C 177.148,2066.78 180.648,2074.78 175,2086.5C 167.03,2104.97 153.863,2118.3 135.5,2126.5C 134.289,2124.58 132.956,2122.74 131.5,2121C 154.27,2108.31 165.27,2088.81 164.5,2062.5 Z"/></g>
<g><path style="opacity:1" fill="#665026" d="M 308.5,2062.5 C 314.729,2062.03 316.395,2064.36 313.5,2069.5C 307.805,2070.45 306.138,2068.11 308.5,2062.5 Z"/></g>
<g><path style="opacity:1" fill="#eedcc6" d="M 310.5,2064.5 C 312.048,2064.82 312.715,2065.82 312.5,2067.5C 309.752,2067.6 309.086,2066.6 310.5,2064.5 Z"/></g>
<g><path style="opacity:1" fill="#614d24" d="M 388.5,2065.5 C 393.835,2065.01 396.335,2067.34 396,2072.5C 393,2075.17 390,2075.17 387,2072.5C 386.167,2069.83 386.667,2067.5 388.5,2065.5 Z"/></g>
<g><path style="opacity:1" fill="#685127" d="M 412.5,2067.5 C 414.857,2067.34 417.19,2067.5 419.5,2068C 421.667,2070.17 423.833,2072.33 426,2074.5C 426.77,2081.89 423.604,2084.05 416.5,2081C 414.3,2078.77 412.467,2076.27 411,2073.5C 410.252,2071.16 410.752,2069.16 412.5,2067.5 Z"/></g>
<g><path style="opacity:1" fill="#f7b737" d="M 66.5,2067.5 C 73.722,2076.45 78.722,2086.61 81.5,2098C 78.5201,2100.59 75.3534,2103.09 72,2105.5C 60.4519,2098.29 51.2852,2088.79 44.5,2077C 51.8108,2073.52 59.1441,2070.35 66.5,2067.5 Z"/></g>
<g><path style="opacity:1" fill="#e4d3bb" d="M 389.5,2067.5 C 392.91,2067.38 394.244,2069.05 393.5,2072.5C 389.065,2073.08 387.732,2071.41 389.5,2067.5 Z"/></g>
<g><path style="opacity:1" fill="#efdec8" d="M 414.5,2069.5 C 419.862,2070.37 423.029,2073.37 424,2078.5C 419.233,2080.13 415.9,2078.46 414,2073.5C 413.421,2072.07 413.588,2070.74 414.5,2069.5 Z"/></g>
<g><path style="opacity:1" fill="#f7b737" d="M 339.5,2070.5 C 345.282,2070.31 350.948,2070.98 356.5,2072.5C 355.088,2081.28 356.088,2089.78 359.5,2098C 357.241,2099.71 355.074,2101.55 353,2103.5C 344.903,2094.06 340.403,2083.06 339.5,2070.5 Z"/></g>
<g><path style="opacity:1" fill="#644f26" d="M -0.5,2071.5 C 1.19919,2071.34 2.86586,2071.51 4.5,2072C 9.19366,2078.47 7.52699,2082.63 -0.5,2084.5C -0.5,2083.5 -0.5,2082.5 -0.5,2081.5C 3.79097,2081.07 5.45764,2078.9 4.5,2075C 2.97506,2073.99 1.30839,2073.49 -0.5,2073.5C -0.5,2072.83 -0.5,2072.17 -0.5,2071.5 Z"/></g>
<g><path style="opacity:1" fill="#f7b637" d="M 330.5,2071.5 C 332.833,2071.5 335.167,2071.5 337.5,2071.5C 338.212,2084.15 342.546,2095.31 350.5,2105C 348.983,2106.69 347.316,2108.19 345.5,2109.5C 332.796,2100.77 325.129,2088.77 322.5,2073.5C 325.428,2073.43 328.095,2072.77 330.5,2071.5 Z"/></g>
<g><path style="opacity:1" fill="#ecdbc4" d="M -0.5,2073.5 C 1.30839,2073.49 2.97506,2073.99 4.5,2075C 5.45764,2078.9 3.79097,2081.07 -0.5,2081.5C -0.5,2078.83 -0.5,2076.17 -0.5,2073.5 Z"/></g>
<g><path style="opacity:1" fill="#f7b737" d="M 358.5,2073.5 C 364.183,2074.84 369.516,2077.01 374.5,2080C 372.852,2084.32 372.186,2088.82 372.5,2093.5C 368.668,2093.94 365.168,2095.28 362,2097.5C 359.084,2089.78 357.917,2081.78 358.5,2073.5 Z"/></g>
<g><path style="opacity:1" fill="#f5b537" d="M 316.5,2075.5 C 317.833,2075.5 319.167,2075.5 320.5,2075.5C 323.138,2090.79 330.804,2102.79 343.5,2111.5C 342.826,2113.52 341.659,2115.18 340,2116.5C 330.65,2107.08 321.316,2097.75 312,2088.5C 310.877,2085.75 309.377,2083.25 307.5,2081C 310.564,2079.14 313.564,2077.31 316.5,2075.5 Z"/></g>
<g><path style="opacity:1" fill="#f7b737" d="M 39.5,2078.5 C 47.4395,2086.94 55.7729,2095.44 64.5,2104C 66.0806,2104.71 67.5806,2105.54 69,2106.5C 68.2223,2109.55 66.7223,2112.38 64.5,2115C 46.4609,2112.97 32.4609,2104.31 22.5,2089C 28.0741,2085.24 33.7408,2081.74 39.5,2078.5 Z"/></g>
<g><path style="opacity:1" fill="#f6b637" d="M 179.5,2079.5 C 181.067,2080.68 181.901,2082.35 182,2084.5C 183.87,2093.22 181.87,2100.88 176,2107.5C 165.473,2118.87 153.64,2128.54 140.5,2136.5C 138.914,2134.33 137.58,2132 136.5,2129.5C 146.309,2124.52 155.142,2118.19 163,2110.5C 171.121,2101.59 176.621,2091.26 179.5,2079.5 Z"/></g>
<g><path style="opacity:1" fill="#685229" d="M 439.5,2079.5 C 445.643,2080.03 446.976,2082.86 443.5,2088C 438.504,2088.66 436.67,2086.5 438,2081.5C 438.717,2080.96 439.217,2080.29 439.5,2079.5 Z"/></g>
<g><path style="opacity:1" fill="#f5b637" d="M 376.5,2080.5 C 382.38,2082.44 388.047,2084.94 393.5,2088C 391.533,2091.43 389.199,2094.6 386.5,2097.5C 382.816,2095.16 378.816,2093.83 374.5,2093.5C 374.909,2089.12 375.575,2084.79 376.5,2080.5 Z"/></g>
<g><path style="opacity:1" fill="#5a4f27" d="M 745.5,2081.5 C 746.822,2081.33 747.989,2081.66 749,2082.5C 761.183,2118.75 769.017,2155.92 772.5,2194C 772.167,2196.5 771.833,2199 771.5,2201.5C 766.827,2160.81 758.16,2120.81 745.5,2081.5 Z"/></g>
<g><path style="opacity:1" fill="#e7d6be" d="M 440.5,2081.5 C 441.649,2081.79 442.316,2082.62 442.5,2084C 442.333,2084.83 442.167,2085.67 442,2086.5C 440.731,2085.1 440.231,2083.43 440.5,2081.5 Z"/></g>
<g><path style="opacity:1" fill="#f2b437" d="M 304.5,2082.5 C 307.113,2085.01 309.28,2088.01 311,2091.5C 320.33,2099.83 329.33,2108.5 338,2117.5C 338.688,2118.33 338.521,2119 337.5,2119.5C 326.615,2112.45 316.449,2104.45 307,2095.5C 304.971,2092.97 303.138,2090.3 301.5,2087.5C 302.952,2086.06 303.952,2084.39 304.5,2082.5 Z"/></g>
<g><path style="opacity:1" fill="#3e299b" d="M 1586.5,2088.5 C 1586.5,2105.5 1586.5,2122.5 1586.5,2139.5C 1582.2,2140.13 1577.86,2140.63 1573.5,2141C 1523.04,2150.45 1500.7,2180.62 1506.5,2231.5C 1469.18,2233.49 1431.51,2234.16 1393.5,2233.5C 1396.63,2183.56 1419.97,2146.39 1463.5,2122C 1502.14,2102.26 1543.14,2091.09 1586.5,2088.5 Z"/></g>
<g><path style="opacity:1" fill="#f6b637" d="M 395.5,2089.5 C 399.192,2091.34 402.525,2093.68 405.5,2096.5C 402.877,2100.79 399.544,2104.46 395.5,2107.5C 393.177,2104.87 390.843,2102.21 388.5,2099.5C 390.859,2096.15 393.192,2092.82 395.5,2089.5 Z"/></g>
<g><path style="opacity:1" fill="#f8b837" d="M -0.5,2112.5 C -0.5,2110.17 -0.5,2107.83 -0.5,2105.5C 5.7791,2100.02 12.4458,2095.02 19.5,2090.5C 30.6179,2105.24 45.2846,2114.74 63.5,2119C 62.5495,2122.06 62.2161,2125.22 62.5,2128.5C 56.3776,2129.49 50.2109,2130.16 44,2130.5C 27.5015,2128.5 12.6682,2122.5 -0.5,2112.5 Z"/></g>
<g><path style="opacity:1" fill="#6d562c" d="M 429.5,2090.5 C 437.618,2090.38 439.618,2093.88 435.5,2101C 429.491,2101.99 426.658,2099.49 427,2093.5C 428.045,2092.63 428.878,2091.63 429.5,2090.5 Z"/></g>
<g><path style="opacity:1" fill="#f1e0c9" d="M 429.5,2093.5 C 431.199,2093.34 432.866,2093.51 434.5,2094C 435.995,2097.84 434.661,2099.17 430.5,2098C 429.62,2096.64 429.286,2095.14 429.5,2093.5 Z"/></g>
<g><path style="opacity:1" fill="#e0bc83" d="M 376.5,2244.5 C 352.833,2244.5 329.167,2244.5 305.5,2244.5C 311.083,2218.67 315.917,2192.67 320,2166.5C 321.56,2158.59 323.894,2150.92 327,2143.5C 334.81,2124.02 347.644,2108.86 365.5,2098C 371.167,2096 376.833,2096 382.5,2098C 394.74,2106.72 398.573,2118.22 394,2132.5C 373.856,2167.7 368.022,2205.03 376.5,2244.5 Z"/></g>
<g><path style="opacity:1" fill="#e0bc83" d="M 168.5,2244.5 C 145.5,2244.5 122.5,2244.5 99.5,2244.5C 100.503,2219.51 95.336,2195.84 84,2173.5C 78.1428,2163.79 72.8095,2153.79 68,2143.5C 63.0392,2132.95 63.3725,2122.61 69,2112.5C 79.2861,2100.52 92.1195,2096.35 107.5,2100C 116.945,2104.45 124.112,2111.28 129,2120.5C 137.934,2136.7 144.934,2153.7 150,2171.5C 156.016,2195.9 162.183,2220.23 168.5,2244.5 Z"/></g>
<g><path style="opacity:1" fill="#f7b737" d="M 407.5,2098.5 C 413.527,2102.01 418.86,2106.51 423.5,2112C 416.129,2117.62 407.795,2120.79 398.5,2121.5C 398.642,2117.85 397.975,2114.35 396.5,2111C 400.724,2107.28 404.391,2103.11 407.5,2098.5 Z"/></g>
<g><path style="opacity:1" fill="#f7b737" d="M 423.5,2114.5 C 427.991,2117.75 431.324,2122.09 433.5,2127.5C 433.291,2128.09 432.957,2128.59 432.5,2129C 420.887,2132.76 409.22,2133.26 397.5,2130.5C 398.041,2128.46 398.708,2126.46 399.5,2124.5C 404.912,2123.31 410.245,2121.81 415.5,2120C 418.621,2118.69 421.287,2116.86 423.5,2114.5 Z"/></g>
<g><path style="opacity:1" fill="#f8b737" d="M -0.5,2115.5 C 5.64945,2120.08 12.3161,2123.91 19.5,2127C 33.2631,2133.84 47.5964,2135.34 62.5,2131.5C 63.1346,2134.49 63.3013,2137.49 63,2140.5C 58.7851,2142.79 54.2851,2144.29 49.5,2145C 32.4128,2146.06 15.7461,2143.89 -0.5,2138.5C -0.5,2130.83 -0.5,2123.17 -0.5,2115.5 Z"/></g>
<g><path style="opacity:1" fill="#685329" d="M 450.5,2119.5 C 454.224,2119.05 456.391,2120.72 457,2124.5C 458.026,2129.98 455.859,2132.14 450.5,2131C 446.581,2127.17 446.581,2123.34 450.5,2119.5 Z"/></g>
<g><path style="opacity:1" fill="#f0dfc8" d="M 450.5,2122.5 C 454.225,2122.78 455.392,2124.78 454,2128.5C 453.586,2128.96 453.086,2129.29 452.5,2129.5C 450.829,2127.49 450.162,2125.16 450.5,2122.5 Z"/></g>
<g><path style="opacity:1" fill="#f7b737" d="M 434.5,2130.5 C 436.945,2133.73 438.611,2137.4 439.5,2141.5C 423.736,2144.44 408.069,2144.11 392.5,2140.5C 393.752,2139 394.752,2137.33 395.5,2135.5C 405.483,2134.67 415.483,2134.17 425.5,2134C 428.662,2132.97 431.662,2131.81 434.5,2130.5 Z"/></g>
<g><path style="opacity:1" fill="#68552c" d="M 340.5,2134.5 C 341.478,2134.81 342.145,2135.48 342.5,2136.5C 338.578,2141.34 335.411,2146.67 333,2152.5C 330.585,2159.25 328.085,2165.92 325.5,2172.5C 326.937,2158.54 331.937,2145.87 340.5,2134.5 Z"/></g>
<g><path style="opacity:1" fill="#f7b737" d="M -0.5,2141.5 C 13.0335,2145.51 26.8668,2147.84 41,2148.5C 49.2963,2148.3 57.1297,2146.3 64.5,2142.5C 65.8289,2145.16 67.1622,2147.82 68.5,2150.5C 64.0499,2152.61 59.3832,2154.11 54.5,2155C 43.9975,2156.08 33.4975,2157.25 23,2158.5C 15.1622,2157.81 7.32887,2157.14 -0.5,2156.5C -0.5,2151.5 -0.5,2146.5 -0.5,2141.5 Z"/></g>
<g><path style="opacity:1" fill="#67542b" d="M 78.5,2143.5 C 83.572,2158.33 90.572,2172.33 99.5,2185.5C 99.1667,2185.83 98.8333,2186.17 98.5,2186.5C 94.622,2183.09 91.4553,2179.09 89,2174.5C 84.4696,2165.61 80.6363,2156.44 77.5,2147C 77.6483,2145.74 77.9816,2144.58 78.5,2143.5 Z"/></g>
<g><path style="opacity:1" fill="#f5b537" d="M 391.5,2144.5 C 391.56,2143.96 391.893,2143.62 392.5,2143.5C 408.102,2147.04 423.769,2147.37 439.5,2144.5C 440.487,2147.77 440.82,2151.1 440.5,2154.5C 423.58,2153.85 407.247,2150.52 391.5,2144.5 Z"/></g>
<g><path style="opacity:1" fill="#fdfdfe" d="M 1586.5,2149.5 C 1586.5,2181.17 1586.5,2212.83 1586.5,2244.5C 1382.5,2244.5 1178.5,2244.5 974.5,2244.5C 974.5,2244.17 974.5,2243.83 974.5,2243.5C 1153.5,2243.67 1332.5,2243.5 1511.5,2243C 1513.29,2242.22 1514.79,2241.05 1516,2239.5C 1507.96,2184.71 1531.46,2154.71 1586.5,2149.5 Z"/></g>
<g><path style="opacity:1" fill="#f6b637" d="M 399.5,2151.5 C 400.097,2150.86 400.93,2150.53 402,2150.5C 414.54,2154.46 427.374,2156.79 440.5,2157.5C 440.162,2159.85 439.662,2162.19 439,2164.5C 432.363,2164.89 425.863,2163.73 419.5,2161C 412.659,2158.08 405.993,2154.91 399.5,2151.5 Z"/></g>
<g><path style="opacity:1" fill="#f5b537" d="M -0.5,2159.5 C -0.5,2159.17 -0.5,2158.83 -0.5,2158.5C 23.066,2162.21 46.2327,2160.55 69,2153.5C 70.8597,2155.38 72.3597,2157.54 73.5,2160C 48.8079,2168.61 24.1412,2168.44 -0.5,2159.5 Z"/></g>
<g><path style="opacity:1" fill="#fefefe" d="M -0.5,2162.5 C 12.4938,2166.67 25.8271,2168.67 39.5,2168.5C 51.651,2169.2 63.3176,2167.2 74.5,2162.5C 90.6131,2187.5 97.9464,2214.84 96.5,2244.5C 64.1667,2244.5 31.8333,2244.5 -0.5,2244.5C -0.5,2217.17 -0.5,2189.83 -0.5,2162.5 Z"/></g>
<g><path style="opacity:1" fill="#69562c" d="M 214.5,2183.5 C 215.497,2183.47 216.164,2183.97 216.5,2185C 215.716,2192.46 215.216,2199.96 215,2207.5C 214.375,2215.06 212.875,2222.39 210.5,2229.5C 210.167,2228.17 209.833,2226.83 209.5,2225.5C 211.544,2211.49 213.211,2197.49 214.5,2183.5 Z"/></g>
<g><path style="opacity:1" fill="#68552c" d="M 149.5,2211.5 C 150.496,2211.41 151.329,2211.75 152,2212.5C 155.336,2221.18 157.169,2230.18 157.5,2239.5C 156.5,2239.5 155.5,2239.5 154.5,2239.5C 154.123,2229.9 152.456,2220.57 149.5,2211.5 Z"/></g>
<g><path style="opacity:1" fill="#5a4f27" d="M 771.5,2244.5 C 770.5,2244.5 769.5,2244.5 768.5,2244.5C 769.165,2237.86 769.665,2231.19 770,2224.5C 772.125,2223.15 773.292,2223.82 773.5,2226.5C 772.782,2232.5 772.115,2238.5 771.5,2244.5 Z"/></g>
<g><path style="opacity:1" fill="#636eb4" d="M 1135.5,2232.5 C 1221.33,2233.5 1307.33,2233.83 1393.5,2233.5C 1393.5,2233.83 1393.5,2234.17 1393.5,2234.5C 1307.16,2234.83 1220.83,2234.5 1134.5,2233.5C 1134.62,2232.89 1134.96,2232.56 1135.5,2232.5 Z"/></g>
<g><path style="opacity:1" fill="#5b52af" d="M 1506.5,2231.5 C 1507.4,2232.21 1507.74,2233.21 1507.5,2234.5C 1469.5,2234.5 1431.5,2234.5 1393.5,2234.5C 1393.5,2234.17 1393.5,2233.83 1393.5,2233.5C 1431.51,2234.16 1469.18,2233.49 1506.5,2231.5 Z"/></g>
</svg>
