<?xml version="1.0" encoding="UTF-8"?>
<!DOCTYPE svg PUBLIC "-//W3C//DTD SVG 1.1//EN" "http://www.w3.org/Graphics/SVG/1.1/DTD/svg11.dtd">
<svg xmlns="http://www.w3.org/2000/svg" version="1.1" width="1587px" height="2245px" style="shape-rendering:geometricPrecision; text-rendering:geometricPrecision; image-rendering:optimizeQuality; fill-rule:evenodd; clip-rule:evenodd" xmlns:xlink="http://www.w3.org/1999/xlink">
<g><path style="opacity:1" fill="#b5ccea" d="M -0.5,-0.5 C 136.5,-0.5 273.5,-0.5 410.5,-0.5C 394.622,61.7995 360.955,111.966 309.5,150C 279.491,169.588 246.491,178.755 210.5,177.5C 181.595,177.084 152.928,174.251 124.5,169C 98.2484,165.865 71.9151,164.865 45.5,166C 29.2849,168.128 13.9516,172.961 -0.5,180.5C -0.5,120.167 -0.5,59.8333 -0.5,-0.5 Z"/></g>
<g><path style="opacity:1" fill="#c3a1c1" d="M 410.5,-0.5 C 505.167,-0.5 599.833,-0.5 694.5,-0.5C 691.799,103.809 657.299,195.809 591,275.5C 562.551,308.465 528.718,334.298 489.5,353C 462.748,364.794 434.748,371.46 405.5,373C 382.819,373.702 360.153,373.369 337.5,372C 300.84,367.668 264.174,363.334 227.5,359C 198.57,355.929 169.57,354.929 140.5,356C 111.167,358.835 83.5005,367.168 57.5,381C 36.539,392.977 17.2057,407.144 -0.5,423.5C -0.5,342.5 -0.5,261.5 -0.5,180.5C 13.9516,172.961 29.2849,168.128 45.5,166C 71.9151,164.865 98.2484,165.865 124.5,169C 152.928,174.251 181.595,177.084 210.5,177.5C 246.491,178.755 279.491,169.588 309.5,150C 360.955,111.966 394.622,61.7995 410.5,-0.5 Z"/></g>
<g><path style="opacity:1" fill="#fefefe" d="M 694.5,-0.5 C 785.5,-0.5 876.5,-0.5 967.5,-0.5C 973.304,87.7781 962.137,173.778 934,257.5C 901.683,348.707 849.183,425.874 776.5,489C 710.425,543.58 634.259,570.08 548,568.5C 485.876,565.338 424.042,559.171 362.5,550C 315.996,543.738 269.329,542.071 222.5,545C 179.489,549.679 139.823,563.679 103.5,587C 64.7081,612.614 30.0414,643.114 -0.5,678.5C -0.5,593.5 -0.5,508.5 -0.5,423.5C 17.2057,407.144 36.539,392.977 57.5,381C 83.5005,367.168 111.167,358.835 140.5,356C 169.57,354.929 198.57,355.929 227.5,359C 264.174,363.334 300.84,367.668 337.5,372C 360.153,373.369 382.819,373.702 405.5,373C 434.748,371.46 462.748,364.794 489.5,353C 528.718,334.298 562.551,308.465 591,275.5C 657.299,195.809 691.799,103.809 694.5,-0.5 Z"/></g>
<g><path style="opacity:1" fill="#b5cdeb" d="M 967.5,-0.5 C 1057.17,-0.5 1146.83,-0.5 1236.5,-0.5C 1243.32,71.5148 1243.16,143.515 1236,215.5C 1217.75,367.413 1158.09,500.079 1057,613.5C 1022.82,650.621 984.317,682.121 941.5,708C 871.444,748.798 795.777,767.631 714.5,764.5C 672.335,763.56 630.335,760.393 588.5,755C 524.456,745.514 460.123,738.514 395.5,734C 297.636,724.79 209.636,749.456 131.5,808C 82.0219,847.161 38.0219,891.661 -0.5,941.5C -0.5,853.833 -0.5,766.167 -0.5,678.5C 30.0414,643.114 64.7081,612.614 103.5,587C 139.823,563.679 179.489,549.679 222.5,545C 269.329,542.071 315.996,543.738 362.5,550C 424.042,559.171 485.876,565.338 548,568.5C 634.259,570.08 710.425,543.58 776.5,489C 849.183,425.874 901.683,348.707 934,257.5C 962.137,173.778 973.304,87.7781 967.5,-0.5 Z"/></g>
<g><path style="opacity:1" fill="#fefefe" d="M 1236.5,-0.5 C 1353.17,-0.5 1469.83,-0.5 1586.5,-0.5C 1586.5,747.833 1586.5,1496.17 1586.5,2244.5C 1402.17,2244.5 1217.83,2244.5 1033.5,2244.5C 1036.38,2201.04 1031.71,2158.38 1019.5,2116.5C 1022,2116.17 1024.5,2115.83 1027,2115.5C 1075.42,2129.19 1116.26,2117.36 1149.5,2080C 1163.79,2071.39 1176.62,2060.89 1188,2048.5C 1196.59,2037.99 1201.92,2025.99 1204,2012.5C 1204.28,1992.15 1204.95,1971.82 1206,1951.5C 1207.94,1945.17 1209.78,1938.84 1211.5,1932.5C 1211.9,1927.95 1209.9,1925.29 1205.5,1924.5C 1198.86,1925.98 1193.36,1929.31 1189,1934.5C 1181.42,1944.66 1174.09,1954.99 1167,1965.5C 1158.85,1974.98 1148.68,1981.15 1136.5,1984C 1116.75,1987.26 1097.09,1990.93 1077.5,1995C 1071.93,1996.78 1066.6,1999.12 1061.5,2002C 1044.86,2016.25 1028.69,2031.08 1013,2046.5C 1009.09,2050.65 1005.92,2055.31 1003.5,2060.5C 999.911,2051.57 996.411,2042.57 993,2033.5C 992.219,2032.06 992.386,2030.72 993.5,2029.5C 1006.04,2021.46 1017.88,2012.46 1029,2002.5C 1037.48,1993.55 1044.48,1983.55 1050,1972.5C 1053.09,1965.12 1055.09,1957.46 1056,1949.5C 1056.17,1932.16 1056.67,1914.82 1057.5,1897.5C 1063.59,1895.5 1067.26,1891.33 1068.5,1885C 1081.27,1884.36 1091.44,1878.86 1099,1868.5C 1107.16,1857.76 1107.66,1846.59 1100.5,1835C 1106.63,1829.57 1109.63,1822.74 1109.5,1814.5C 1112.52,1812.31 1115.02,1809.65 1117,1806.5C 1117.9,1802.46 1119.57,1798.8 1122,1795.5C 1124.43,1789.52 1123.6,1784.02 1119.5,1779C 1127.14,1772.11 1130.47,1763.44 1129.5,1753C 1130.13,1736.46 1122.46,1725.96 1106.5,1721.5C 1106.78,1713.39 1103.78,1706.72 1097.5,1701.5C 1098.57,1698.56 1098.74,1695.56 1098,1692.5C 1095.61,1687.32 1093.61,1681.99 1092,1676.5C 1088.92,1672.21 1084.75,1669.87 1079.5,1669.5C 1078.34,1653.38 1070.34,1641.88 1055.5,1635C 1046.3,1632.43 1037.64,1633.59 1029.5,1638.5C 1026.2,1635.7 1022.54,1633.54 1018.5,1632C 1010.81,1631.34 1003.14,1630.51 995.5,1629.5C 985.924,1613.46 972.09,1607.8 954,1612.5C 950.945,1611.39 948.112,1609.89 945.5,1608C 943.527,1607.5 941.527,1607.34 939.5,1607.5C 941.088,1597.74 937.921,1590.08 930,1584.5C 930.434,1580.55 930.434,1576.55 930,1572.5C 927.382,1566.27 925.049,1559.93 923,1553.5C 919.654,1548.49 914.987,1545.49 909,1544.5C 907.812,1529.95 901.312,1518.45 889.5,1510C 876.211,1500.53 862.545,1500.03 848.5,1508.5C 844.4,1504.12 839.4,1501.28 833.5,1500C 825.807,1498.77 818.14,1498.6 810.5,1499.5C 802.087,1484.76 789.421,1476.43 772.5,1474.5C 757.5,1476.32 746.167,1483.66 738.5,1496.5C 724.804,1493.46 712.637,1496.46 702,1505.5C 699.584,1508.66 697.418,1512 695.5,1515.5C 688.636,1517.84 683.469,1522.18 680,1528.5C 666.027,1523.98 652.861,1525.81 640.5,1534C 628.166,1545.51 624.499,1559.34 629.5,1575.5C 616.914,1585 610.414,1597.67 610,1613.5C 607.92,1615.99 606.086,1618.66 604.5,1621.5C 593.801,1619.88 583.801,1622.05 574.5,1628C 571.457,1630.59 569.29,1633.76 568,1637.5C 561.495,1639.41 556.828,1643.41 554,1649.5C 539.426,1644.49 526.759,1647.49 516,1658.5C 509.328,1667.91 507.828,1678.08 511.5,1689C 497.714,1698.36 493.047,1711.03 497.5,1727C 494.016,1732.52 493.683,1738.19 496.5,1744C 476.129,1755.45 471.296,1771.62 482,1792.5C 485.775,1797.11 490.275,1800.78 495.5,1803.5C 493.289,1814.94 495.955,1825.11 503.5,1834C 506.339,1835.92 509.339,1837.59 512.5,1839C 514.527,1844.36 518.027,1848.53 523,1851.5C 522.088,1859.17 522.421,1866.84 524,1874.5C 525.446,1879.61 528.112,1883.94 532,1887.5C 531.631,1890.79 531.631,1894.12 532,1897.5C 535.59,1904.35 538.923,1911.35 542,1918.5C 546.409,1939.36 550.075,1960.36 553,1981.5C 554.539,1987.95 556.372,1994.28 558.5,2000.5C 544.829,2000.67 531.163,2000.5 517.5,2000C 503.205,2000.24 490.538,1995.9 479.5,1987C 469.113,1976.61 458.779,1966.28 448.5,1956C 443.338,1952.39 437.671,1951.05 431.5,1952C 430.333,1952.5 429.5,1953.33 429,1954.5C 428.333,1956.83 428.333,1959.17 429,1961.5C 432.803,1967.44 435.803,1973.77 438,1980.5C 441.426,1999.48 444.759,2018.48 448,2037.5C 453.215,2053.72 462.715,2066.89 476.5,2077C 488.602,2084.93 501.269,2091.93 514.5,2098C 544.458,2123.99 578.458,2131.32 616.5,2120C 622.511,2118 628.511,2116 634.5,2114C 641.126,2112.7 647.792,2112.36 654.5,2113C 667.372,2155.94 672.038,2199.77 668.5,2244.5C 445.5,2244.5 222.5,2244.5 -0.5,2244.5C -0.5,1810.17 -0.5,1375.83 -0.5,941.5C 38.0219,891.661 82.0219,847.161 131.5,808C 209.636,749.456 297.636,724.79 395.5,734C 460.123,738.514 524.456,745.514 588.5,755C 630.335,760.393 672.335,763.56 714.5,764.5C 795.777,767.631 871.444,748.798 941.5,708C 984.317,682.121 1022.82,650.621 1057,613.5C 1158.09,500.079 1217.75,367.413 1236,215.5C 1243.16,143.515 1243.32,71.5148 1236.5,-0.5 Z"/></g>
<g><path style="opacity:1" fill="#fbf9fb" d="M 94.5,259.5 C 95.4959,259.414 96.3292,259.748 97,260.5C 97.7644,266.733 100.931,271.067 106.5,273.5C 104.219,274.277 102.052,275.277 100,276.5C 98.3527,280.107 97.0194,283.774 96,287.5C 95,284.5 94,281.5 93,278.5C 90.4193,276.484 87.5859,274.984 84.5,274C 92.113,272.31 95.4463,267.477 94.5,259.5 Z"/></g>
<g><path style="opacity:1" fill="#fcfbfc" d="M 70.5,270.5 C 73.213,276.429 76.0463,282.429 79,288.5C 82.1793,291.006 85.6793,292.839 89.5,294C 78.2194,296.016 72.7194,302.85 73,314.5C 72,315.833 71,315.833 70,314.5C 69.6736,309.854 68.3403,305.521 66,301.5C 61.9492,298.88 57.7825,296.546 53.5,294.5C 55.9716,293.104 58.6383,292.27 61.5,292C 63.3333,290.833 64.8333,289.333 66,287.5C 67.5683,281.814 69.0683,276.147 70.5,270.5 Z"/></g>
<g><path style="opacity:1" fill="#fcfafc" d="M 97.5,299.5 C 98.1174,299.611 98.6174,299.944 99,300.5C 98.887,307.719 102.387,311.886 109.5,313C 106.99,314.09 104.49,315.257 102,316.5C 100.68,320.114 99.5129,323.781 98.5,327.5C 97.0247,321.034 93.358,316.367 87.5,313.5C 89.7812,312.723 91.9479,311.723 94,310.5C 95.8006,307.006 96.9673,303.34 97.5,299.5 Z"/></g>
<g><path style="opacity:1" fill="#fcfdfe" d="M 874.5,438.5 C 875.496,438.414 876.329,438.748 877,439.5C 878.161,448.99 882.327,456.824 889.5,463C 892.119,463.151 894.453,463.985 896.5,465.5C 887.644,465.668 882.144,470.001 880,478.5C 879.612,482.219 878.945,485.886 878,489.5C 876.286,490.925 874.953,490.592 874,488.5C 874.205,476.379 868.371,469.546 856.5,468C 855.833,467.333 855.167,466.667 854.5,466C 860.297,465.399 865.13,462.899 869,458.5C 871.521,452.005 873.354,445.338 874.5,438.5 Z"/></g>
<g><path style="opacity:1" fill="#fdfefe" d="M 827.5,460.5 C 828.822,460.33 829.989,460.663 831,461.5C 833.488,472.132 837.488,482.132 843,491.5C 848.424,497.96 855.257,501.96 863.5,503.5C 859.822,505.588 855.822,506.755 851.5,507C 842.636,510.56 837.47,517.06 836,526.5C 835.916,532.017 834.916,537.351 833,542.5C 829.55,545.226 827.55,544.226 827,539.5C 826.954,520.849 817.787,510.349 799.5,508C 796.654,507.121 795.987,505.454 797.5,503C 812.044,502.783 820.878,495.616 824,481.5C 824.761,474.407 825.927,467.407 827.5,460.5 Z"/></g>
<g><path style="opacity:1" fill="#fdfdfe" d="M 878.5,514.5 C 880.411,514.574 881.578,515.574 882,517.5C 881.806,530.137 887.972,536.803 900.5,537.5C 900.5,538.5 900.5,539.5 900.5,540.5C 890.58,540.578 884.747,545.578 883,555.5C 881.548,569.964 879.215,569.964 876,555.5C 874.587,552.339 872.92,549.339 871,546.5C 867.381,543.697 863.548,541.364 859.5,539.5C 864.533,538.55 869.033,536.55 873,533.5C 875.395,527.272 877.228,520.938 878.5,514.5 Z"/></g>
<g><path style="opacity:1" fill="#5051a0" d="M 934.5,1131.5 C 942.64,1130.28 949.973,1132.12 956.5,1137C 959.667,1140.17 962.833,1143.33 966,1146.5C 971.917,1155.33 977.583,1164.33 983,1173.5C 986.167,1176.67 989.333,1179.83 992.5,1183C 1002.96,1188.4 1013.3,1194.06 1023.5,1200C 1036.35,1211.56 1039.68,1225.39 1033.5,1241.5C 1040.33,1241.43 1047.33,1241.59 1054.5,1242C 1064.09,1243.7 1071.59,1248.54 1077,1256.5C 1080.67,1262.5 1084.33,1268.5 1088,1274.5C 1093.38,1280.21 1098.38,1286.21 1103,1292.5C 1104.67,1300.18 1103.01,1307.18 1098,1313.5C 1076.43,1339.19 1049.26,1347.86 1016.5,1339.5C 1015.94,1348.3 1011.27,1351.47 1002.5,1349C 988.19,1342.18 974.857,1333.85 962.5,1324C 954.333,1319.94 945.999,1316.28 937.5,1313C 934.28,1310.53 931.28,1307.87 928.5,1305C 914.198,1301.86 899.864,1301.69 885.5,1304.5C 886.077,1301.36 888.077,1299.86 891.5,1300C 904.181,1299.34 916.848,1299.51 929.5,1300.5C 929.739,1298.53 929.406,1296.7 928.5,1295C 914.487,1288.66 899.821,1284.83 884.5,1283.5C 884.5,1282.5 884.5,1281.5 884.5,1280.5C 890.895,1280.82 897.228,1281.65 903.5,1283C 912.276,1285.69 920.943,1288.35 929.5,1291C 907.573,1269.95 889.406,1246.12 875,1219.5C 870.012,1208.87 866.012,1197.87 863,1186.5C 862.333,1179.5 862.333,1172.5 863,1165.5C 866.094,1154.04 873.261,1149.87 884.5,1153C 890.5,1156.33 896.5,1159.67 902.5,1163C 905.432,1164.14 908.432,1164.98 911.5,1165.5C 912.945,1149.76 920.611,1138.43 934.5,1131.5 Z"/></g>
<g><path style="opacity:1" fill="#fd6740" d="M 931.5,1147.5 C 943.652,1148.31 951.319,1154.65 954.5,1166.5C 952.561,1172.38 950.061,1178.05 947,1183.5C 945.687,1187.42 944.687,1191.42 944,1195.5C 942.387,1208.49 942.053,1221.49 943,1234.5C 930.855,1217.87 922.188,1199.54 917,1179.5C 916.333,1173.17 916.333,1166.83 917,1160.5C 919.541,1153.45 924.374,1149.12 931.5,1147.5 Z"/></g>
<g><path style="opacity:1" fill="#faab37" d="M 955.5,1173.5 C 956.496,1173.41 957.329,1173.75 958,1174.5C 959.72,1184.33 963.386,1193.33 969,1201.5C 974.361,1206.26 980.528,1209.6 987.5,1211.5C 990.969,1218.17 991.969,1225.17 990.5,1232.5C 987.737,1230.2 984.57,1228.87 981,1228.5C 977.037,1229.58 973.204,1230.75 969.5,1232C 968.832,1225.33 965.832,1219.99 960.5,1216C 954.938,1214.42 950.438,1215.92 947,1220.5C 944.26,1203.71 947.093,1188.04 955.5,1173.5 Z"/></g>
<g><path style="opacity:1" fill="#fc6741" d="M 880.5,1178.5 C 884.594,1177.7 887.761,1179.04 890,1182.5C 896.341,1192.7 898.508,1203.7 896.5,1215.5C 900.663,1232.49 909.83,1246.15 924,1256.5C 927.945,1266.33 932.279,1276 937,1285.5C 938.254,1289.11 937.088,1290.61 933.5,1290C 904.109,1263.21 882.442,1231.21 868.5,1194C 870.064,1186.94 874.064,1181.77 880.5,1178.5 Z"/></g>
<g><path style="opacity:1" fill="#f9aa38" d="M 893.5,1180.5 C 898.586,1182.75 903.919,1183.75 909.5,1183.5C 910.139,1190.15 910.473,1196.81 910.5,1203.5C 906.808,1202.97 903.642,1203.97 901,1206.5C 899.81,1197.43 897.31,1188.77 893.5,1180.5 Z"/></g>
<g><path style="opacity:1" fill="#faaa37" d="M 914.5,1182.5 C 916.023,1188.57 917.857,1194.57 920,1200.5C 928.493,1216.82 937.493,1232.82 947,1248.5C 952.91,1262.56 957.41,1277.06 960.5,1292C 960.167,1293.17 959.833,1294.33 959.5,1295.5C 954.287,1293.04 948.954,1290.87 943.5,1289C 926.389,1259.5 916.389,1227.66 913.5,1193.5C 913.185,1189.63 913.518,1185.96 914.5,1182.5 Z"/></g>
<g><path style="opacity:1" fill="#ac7269" d="M 914.5,1182.5 C 913.518,1185.96 913.185,1189.63 913.5,1193.5C 912.191,1189.65 912.191,1185.65 913.5,1181.5C 914.107,1181.62 914.44,1181.96 914.5,1182.5 Z"/></g>
<g><path style="opacity:1" fill="#f7a3af" d="M 905.5,1206.5 C 908.808,1205.97 910.974,1207.31 912,1210.5C 914.285,1224.02 917.785,1237.18 922.5,1250C 913.488,1243.6 906.654,1235.1 902,1224.5C 900.543,1220.26 900.209,1215.93 901,1211.5C 902.025,1209.31 903.525,1207.65 905.5,1206.5 Z"/></g>
<g><path style="opacity:1" fill="#fa6743" d="M 991.5,1211.5 C 996.272,1212.15 1000.77,1213.48 1005,1215.5C 1007.27,1231.31 1004.27,1245.98 996,1259.5C 985.386,1270.08 976.22,1281.74 968.5,1294.5C 968.824,1290.03 970.324,1285.7 973,1281.5C 977.609,1273.89 982.609,1266.56 988,1259.5C 994.973,1243.93 996.14,1227.93 991.5,1211.5 Z"/></g>
<g><path style="opacity:1" fill="#f8a939" d="M 1008.5,1216.5 C 1020.76,1224.74 1023.42,1235.24 1016.5,1248C 1012.04,1250.3 1007.7,1252.8 1003.5,1255.5C 1003.17,1255.17 1002.83,1254.83 1002.5,1254.5C 1007.94,1242.41 1009.94,1229.74 1008.5,1216.5 Z"/></g>
<g><path style="opacity:1" fill="#fca7b1" d="M 953.5,1218.5 C 959.73,1218.21 963.563,1221.21 965,1227.5C 965.059,1232.35 965.726,1237.01 967,1241.5C 969.869,1238.3 973.035,1235.46 976.5,1233C 981.526,1231.51 985.692,1232.67 989,1236.5C 990.061,1242.72 989.394,1248.72 987,1254.5C 981.667,1262.5 976.333,1270.5 971,1278.5C 968.726,1282.71 966.726,1287.05 965,1291.5C 959.548,1274.14 953.881,1256.81 948,1239.5C 947.333,1235.17 947.333,1230.83 948,1226.5C 949.117,1223.24 950.95,1220.57 953.5,1218.5 Z"/></g>
<g><path style="opacity:1" fill="#fc6741" d="M 1033.5,1245.5 C 1043.45,1244.72 1049.95,1249.06 1053,1258.5C 1053.83,1264.48 1054.33,1270.48 1054.5,1276.5C 1034.4,1269.44 1015.4,1271.61 997.5,1283C 989.659,1288.09 981.992,1293.42 974.5,1299C 972.956,1300.19 971.289,1300.52 969.5,1300C 983.098,1272.56 1004.43,1254.39 1033.5,1245.5 Z"/></g>
<g><path style="opacity:1" fill="#fba6b1" d="M 1017.5,1276.5 C 1021.85,1276.33 1026.18,1276.5 1030.5,1277C 1036.06,1278.46 1037.89,1281.96 1036,1287.5C 1032.88,1291.45 1029.05,1294.45 1024.5,1296.5C 1023.61,1297.32 1023.28,1298.32 1023.5,1299.5C 1033.99,1298.82 1042.49,1302.49 1049,1310.5C 1051.51,1315.62 1050.34,1319.79 1045.5,1323C 1038.71,1325.19 1032.04,1324.85 1025.5,1322C 1014.91,1317.92 1004.58,1313.25 994.5,1308C 988.202,1305.84 981.869,1303.84 975.5,1302C 988.797,1292.19 1002.8,1283.69 1017.5,1276.5 Z"/></g>
<g><path style="opacity:1" fill="#faaa37" d="M 1037.5,1276.5 C 1048.16,1276.83 1056.49,1281.33 1062.5,1290C 1065.42,1291.71 1068.25,1293.54 1071,1295.5C 1071.12,1299.62 1069.78,1303.28 1067,1306.5C 1063.28,1310.72 1059.11,1314.39 1054.5,1317.5C 1053.7,1311.06 1050.7,1305.89 1045.5,1302C 1040.95,1299.6 1036.29,1297.6 1031.5,1296C 1039.64,1291.43 1041.64,1284.93 1037.5,1276.5 Z"/></g>
<g><path style="opacity:1" fill="#9da83b" d="M 936.5,1293.5 C 944.05,1292.54 951.05,1294.04 957.5,1298C 974.143,1310.66 991.476,1322.32 1009.5,1333C 1014.25,1337.12 1014.58,1341.45 1010.5,1346C 1007.07,1346.7 1003.74,1346.37 1000.5,1345C 986.16,1336.5 972.16,1327.5 958.5,1318C 951.172,1315.78 944.172,1312.78 937.5,1309C 931.362,1304.06 931.029,1298.9 936.5,1293.5 Z"/></g>
<g><path style="opacity:1" fill="#fb6742" d="M 1074.5,1299.5 C 1076.72,1299.18 1078.56,1299.84 1080,1301.5C 1089.31,1314.4 1086.81,1324.23 1072.5,1331C 1054.94,1340.41 1036.6,1342.08 1017.5,1336C 1014.54,1334.04 1011.87,1331.71 1009.5,1329C 997.628,1322.45 986.295,1315.12 975.5,1307C 981.031,1306.71 986.364,1307.71 991.5,1310C 1001.93,1315.55 1012.59,1320.55 1023.5,1325C 1036.37,1329.83 1048.04,1327.83 1058.5,1319C 1065.37,1313.74 1070.71,1307.24 1074.5,1299.5 Z"/></g>
<g><path style="opacity:1" fill="#5f512b" d="M 1033.5,2244.5 C 1032.5,2244.5 1031.5,2244.5 1030.5,2244.5C 1032.55,2197.65 1027.05,2151.65 1014,2106.5C 1006.06,2078.35 996.727,2050.68 986,2023.5C 977.984,1993.3 975.484,1962.64 978.5,1931.5C 969.898,1930.62 962.731,1926.95 957,1920.5C 955.129,1922 954.129,1924 954,1926.5C 951.223,1957.74 952.89,1988.74 959,2019.5C 967.33,2043.82 975.663,2068.16 984,2092.5C 994.988,2127.76 1002.32,2163.76 1006,2200.5C 1006.71,2215.18 1006.54,2229.85 1005.5,2244.5C 1004.5,2244.5 1003.5,2244.5 1002.5,2244.5C 1004.05,2224.12 1003.55,2203.79 1001,2183.5C 997.792,2161.63 993.626,2139.96 988.5,2118.5C 981.813,2118.67 975.146,2119.17 968.5,2120C 956.099,2124.6 943.432,2128.27 930.5,2131C 905.901,2133.81 883.235,2128.48 862.5,2115C 856.599,2110.13 850.433,2105.63 844,2101.5C 848.723,2124.9 852.057,2148.57 854,2172.5C 855.165,2196.59 854.332,2220.59 851.5,2244.5C 850.167,2244.5 848.833,2244.5 847.5,2244.5C 853.853,2195.41 850.853,2146.91 838.5,2099C 830.143,2095.74 822.31,2091.57 815,2086.5C 820.475,2111.56 824.809,2136.89 828,2162.5C 828.499,2168.49 828.666,2174.49 828.5,2180.5C 827.5,2180.5 826.5,2180.5 825.5,2180.5C 823.216,2148.03 818.05,2116.03 810,2084.5C 808.333,2081.3 806.166,2079.3 803.5,2078.5C 819.942,2132.81 824.942,2188.14 818.5,2244.5C 817.167,2244.5 815.833,2244.5 814.5,2244.5C 820.877,2191.35 816.71,2139.02 802,2087.5C 783.044,2104.71 760.711,2113.71 735,2114.5C 718.838,2112.63 702.671,2110.97 686.5,2109.5C 695.715,2144.05 700.715,2179.22 701.5,2215C 701.531,2224.89 700.864,2234.73 699.5,2244.5C 698.5,2244.5 697.5,2244.5 696.5,2244.5C 700.206,2189.94 693.206,2136.77 675.5,2085C 664.729,2080.78 654.729,2075.28 645.5,2068.5C 652.231,2090.74 658.398,2113.4 664,2136.5C 672.14,2172.14 674.64,2208.14 671.5,2244.5C 670.5,2244.5 669.5,2244.5 668.5,2244.5C 672.038,2199.77 667.372,2155.94 654.5,2113C 647.792,2112.36 641.126,2112.7 634.5,2114C 628.511,2116 622.511,2118 616.5,2120C 578.458,2131.32 544.458,2123.99 514.5,2098C 501.269,2091.93 488.602,2084.93 476.5,2077C 462.715,2066.89 453.215,2053.72 448,2037.5C 444.759,2018.48 441.426,1999.48 438,1980.5C 435.803,1973.77 432.803,1967.44 429,1961.5C 428.333,1959.17 428.333,1956.83 429,1954.5C 429.5,1953.33 430.333,1952.5 431.5,1952C 437.671,1951.05 443.338,1952.39 448.5,1956C 458.779,1966.28 469.113,1976.61 479.5,1987C 490.538,1995.9 503.205,2000.24 517.5,2000C 531.163,2000.5 544.829,2000.67 558.5,2000.5C 556.372,1994.28 554.539,1987.95 553,1981.5C 550.075,1960.36 546.409,1939.36 542,1918.5C 538.923,1911.35 535.59,1904.35 532,1897.5C 531.631,1894.12 531.631,1890.79 532,1887.5C 528.112,1883.94 525.446,1879.61 524,1874.5C 522.421,1866.84 522.088,1859.17 523,1851.5C 518.027,1848.53 514.527,1844.36 512.5,1839C 509.339,1837.59 506.339,1835.92 503.5,1834C 495.955,1825.11 493.289,1814.94 495.5,1803.5C 490.275,1800.78 485.775,1797.11 482,1792.5C 471.296,1771.62 476.129,1755.45 496.5,1744C 493.683,1738.19 494.016,1732.52 497.5,1727C 493.047,1711.03 497.714,1698.36 511.5,1689C 507.828,1678.08 509.328,1667.91 516,1658.5C 526.759,1647.49 539.426,1644.49 554,1649.5C 556.828,1643.41 561.495,1639.41 568,1637.5C 569.29,1633.76 571.457,1630.59 574.5,1628C 583.801,1622.05 593.801,1619.88 604.5,1621.5C 606.086,1618.66 607.92,1615.99 610,1613.5C 610.414,1597.67 616.914,1585 629.5,1575.5C 624.499,1559.34 628.166,1545.51 640.5,1534C 652.861,1525.81 666.027,1523.98 680,1528.5C 683.469,1522.18 688.636,1517.84 695.5,1515.5C 697.418,1512 699.584,1508.66 702,1505.5C 712.637,1496.46 724.804,1493.46 738.5,1496.5C 746.167,1483.66 757.5,1476.32 772.5,1474.5C 789.421,1476.43 802.087,1484.76 810.5,1499.5C 818.14,1498.6 825.807,1498.77 833.5,1500C 839.4,1501.28 844.4,1504.12 848.5,1508.5C 862.545,1500.03 876.211,1500.53 889.5,1510C 901.312,1518.45 907.812,1529.95 909,1544.5C 914.987,1545.49 919.654,1548.49 923,1553.5C 925.049,1559.93 927.382,1566.27 930,1572.5C 930.434,1576.55 930.434,1580.55 930,1584.5C 937.921,1590.08 941.088,1597.74 939.5,1607.5C 941.527,1607.34 943.527,1607.5 945.5,1608C 948.112,1609.89 950.945,1611.39 954,1612.5C 972.09,1607.8 985.924,1613.46 995.5,1629.5C 1003.14,1630.51 1010.81,1631.34 1018.5,1632C 1022.54,1633.54 1026.2,1635.7 1029.5,1638.5C 1037.64,1633.59 1046.3,1632.43 1055.5,1635C 1070.34,1641.88 1078.34,1653.38 1079.5,1669.5C 1084.75,1669.87 1088.92,1672.21 1092,1676.5C 1093.61,1681.99 1095.61,1687.32 1098,1692.5C 1098.74,1695.56 1098.57,1698.56 1097.5,1701.5C 1103.78,1706.72 1106.78,1713.39 1106.5,1721.5C 1122.46,1725.96 1130.13,1736.46 1129.5,1753C 1130.47,1763.44 1127.14,1772.11 1119.5,1779C 1123.6,1784.02 1124.43,1789.52 1122,1795.5C 1119.57,1798.8 1117.9,1802.46 1117,1806.5C 1115.02,1809.65 1112.52,1812.31 1109.5,1814.5C 1109.63,1822.74 1106.63,1829.57 1100.5,1835C 1107.66,1846.59 1107.16,1857.76 1099,1868.5C 1091.44,1878.86 1081.27,1884.36 1068.5,1885C 1067.26,1891.33 1063.59,1895.5 1057.5,1897.5C 1056.67,1914.82 1056.17,1932.16 1056,1949.5C 1055.09,1957.46 1053.09,1965.12 1050,1972.5C 1044.48,1983.55 1037.48,1993.55 1029,2002.5C 1017.88,2012.46 1006.04,2021.46 993.5,2029.5C 992.386,2030.72 992.219,2032.06 993,2033.5C 996.411,2042.57 999.911,2051.57 1003.5,2060.5C 1005.92,2055.31 1009.09,2050.65 1013,2046.5C 1028.69,2031.08 1044.86,2016.25 1061.5,2002C 1066.6,1999.12 1071.93,1996.78 1077.5,1995C 1097.09,1990.93 1116.75,1987.26 1136.5,1984C 1148.68,1981.15 1158.85,1974.98 1167,1965.5C 1174.09,1954.99 1181.42,1944.66 1189,1934.5C 1193.36,1929.31 1198.86,1925.98 1205.5,1924.5C 1209.9,1925.29 1211.9,1927.95 1211.5,1932.5C 1209.78,1938.84 1207.94,1945.17 1206,1951.5C 1204.95,1971.82 1204.28,1992.15 1204,2012.5C 1201.92,2025.99 1196.59,2037.99 1188,2048.5C 1176.62,2060.89 1163.79,2071.39 1149.5,2080C 1116.26,2117.36 1075.42,2129.19 1027,2115.5C 1024.5,2115.83 1022,2116.17 1019.5,2116.5C 1031.71,2158.38 1036.38,2201.04 1033.5,2244.5 Z"/></g>
<g><path style="opacity:1" fill="#b4cce9" d="M 767.5,1478.5 C 786.912,1478.19 800.246,1486.85 807.5,1504.5C 823.615,1499.14 833.449,1504.81 837,1521.5C 837.305,1528.65 836.305,1535.65 834,1542.5C 830.253,1553.41 825.92,1564.07 821,1574.5C 818.32,1583.55 815.487,1592.55 812.5,1601.5C 812.167,1601.83 811.833,1602.17 811.5,1602.5C 806.011,1600.34 800.344,1599 794.5,1598.5C 800.165,1576.19 802.331,1553.52 801,1530.5C 800.29,1529.03 799.124,1528.36 797.5,1528.5C 798.738,1551.19 796.571,1573.52 791,1595.5C 782.576,1595.99 774.243,1597.32 766,1599.5C 756.844,1588.97 749.177,1577.31 743,1564.5C 739.11,1552.05 736.11,1539.38 734,1526.5C 732.989,1525.66 731.822,1525.33 730.5,1525.5C 732.014,1545.57 737.847,1564.23 748,1581.5C 752.5,1588 757,1594.5 761.5,1601C 757.509,1603.25 753.343,1605.08 749,1606.5C 747.739,1606.24 746.739,1605.57 746,1604.5C 733.614,1588.45 721.614,1572.11 710,1555.5C 705.548,1547.93 702.215,1539.93 700,1531.5C 696.961,1515.07 703.461,1504.57 719.5,1500C 722.658,1499.45 725.825,1498.95 729,1498.5C 733.48,1499.36 737.98,1500.03 742.5,1500.5C 744.734,1493.76 748.734,1488.26 754.5,1484C 758.741,1481.65 763.075,1479.82 767.5,1478.5 Z"/></g>
<g><path style="opacity:1" fill="#b4cbe9" d="M 831.5,1504.5 C 834.918,1503.9 838.251,1504.73 841.5,1507C 843.733,1509.23 845.9,1511.4 848,1513.5C 854.326,1508.32 861.66,1505.99 870,1506.5C 876.484,1506.82 882.318,1508.99 887.5,1513C 895.347,1518.84 900.847,1526.34 904,1535.5C 904.333,1539.5 904.667,1543.5 905,1547.5C 909.62,1548.37 913.953,1550.04 918,1552.5C 922.635,1561.73 925.468,1571.4 926.5,1581.5C 918.453,1578.74 910.453,1578.91 902.5,1582C 896.888,1584.14 891.554,1586.81 886.5,1590C 882.134,1594.7 877.467,1599.03 872.5,1603C 861.335,1606.58 850.668,1611.25 840.5,1617C 837.478,1617.64 835.978,1616.47 836,1613.5C 852.326,1601.49 864.659,1586.16 873,1567.5C 874.893,1562.99 876.059,1558.33 876.5,1553.5C 875.178,1553.33 874.011,1553.66 873,1554.5C 867.658,1573.16 858.158,1589.33 844.5,1603C 840.842,1606.82 836.509,1609.65 831.5,1611.5C 829.201,1610.36 827.034,1609.03 825,1607.5C 826.815,1595.39 830.648,1583.89 836.5,1573C 835.892,1572.13 835.059,1571.63 834,1571.5C 828.054,1581.41 823.72,1592.08 821,1603.5C 819.222,1605.9 817.722,1605.57 816.5,1602.5C 818.822,1594.88 820.989,1587.21 823,1579.5C 830.357,1564.79 836.024,1549.45 840,1533.5C 842.876,1521.98 840.042,1512.31 831.5,1504.5 Z"/></g>
<g><path style="opacity:1" fill="#b4cce9" d="M 694.5,1519.5 C 694.938,1530.34 697.771,1540.67 703,1550.5C 716.066,1570.8 730.232,1590.3 745.5,1609C 740.239,1611.54 735.406,1614.71 731,1618.5C 718.913,1604.72 704.746,1593.72 688.5,1585.5C 686.512,1586.29 686.179,1587.46 687.5,1589C 703.159,1597.01 716.826,1607.68 728.5,1621C 725.048,1624.73 722.215,1628.9 720,1633.5C 713.435,1634.34 707.268,1632.84 701.5,1629C 696.167,1625.67 690.833,1622.33 685.5,1619C 683.926,1618.3 682.593,1618.63 681.5,1620C 692.163,1628.83 704.163,1635.33 717.5,1639.5C 716.399,1641.64 715.399,1643.81 714.5,1646C 694.447,1644.45 674.447,1642.12 654.5,1639C 642.082,1636.87 630.915,1632.03 621,1624.5C 612.172,1612.04 612.505,1599.71 622,1587.5C 625.603,1583.3 629.77,1579.97 634.5,1577.5C 628.456,1562.2 631.123,1548.7 642.5,1537C 654.936,1528.56 667.936,1527.39 681.5,1533.5C 684.499,1527.5 688.832,1522.84 694.5,1519.5 Z"/></g>
<g><path style="opacity:1" fill="#b4cbe9" d="M 909.5,1583.5 C 929.17,1582.17 937.837,1591.17 935.5,1610.5C 940.725,1610.3 945.392,1611.8 949.5,1615C 944.453,1618.38 940.453,1622.71 937.5,1628C 924.466,1625.55 913.3,1629.05 904,1638.5C 903.167,1640.17 902.333,1641.83 901.5,1643.5C 895.328,1645.83 890.495,1649.83 887,1655.5C 886.25,1654.87 885.416,1654.37 884.5,1654C 875.437,1652.6 866.77,1653.77 858.5,1657.5C 856.371,1651.65 854.871,1645.65 854,1639.5C 858.064,1635.21 862.897,1632.05 868.5,1630C 879.795,1625.73 891.128,1621.57 902.5,1617.5C 903.386,1616.68 903.719,1615.68 903.5,1614.5C 887.977,1618.51 872.977,1624.01 858.5,1631C 856.04,1632.46 853.873,1634.29 852,1636.5C 848.871,1631.07 845.371,1625.91 841.5,1621C 851.961,1614.85 862.961,1609.85 874.5,1606C 880.54,1600.29 886.874,1594.96 893.5,1590C 898.819,1587.5 904.152,1585.33 909.5,1583.5 Z"/></g>
<g><path style="opacity:1" fill="#f9b837" d="M 777.5,1600.5 C 797.57,1600.47 815.904,1605.97 832.5,1617C 845.988,1628.81 852.822,1643.64 853,1661.5C 843.2,1670.9 840.367,1682.07 844.5,1695C 836.408,1701.19 831.075,1709.19 828.5,1719C 812.538,1728.82 795.205,1733.65 776.5,1733.5C 761.742,1732.79 748.742,1727.62 737.5,1718C 719.2,1702.78 711.7,1683.28 715,1659.5C 719.323,1632.85 734.157,1615.02 759.5,1606C 765.412,1603.41 771.412,1601.58 777.5,1600.5 Z"/></g>
<g><path style="opacity:1" fill="#b4cce9" d="M 961.5,1613.5 C 977.354,1613.59 988.354,1620.92 994.5,1635.5C 1009.53,1631.18 1017.86,1636.85 1019.5,1652.5C 1017.6,1667.31 1013.1,1681.31 1006,1694.5C 1003.67,1702.14 1001.51,1709.81 999.5,1717.5C 994.02,1716.79 988.687,1715.45 983.5,1713.5C 988.749,1694.6 990.415,1675.44 988.5,1656C 988.167,1655.83 987.833,1655.67 987.5,1655.5C 986.353,1669.5 985.186,1683.5 984,1697.5C 983.317,1702.23 982.317,1706.9 981,1711.5C 974.198,1713.12 967.198,1714.45 960,1715.5C 952.214,1707.3 945.881,1697.96 941,1687.5C 937.237,1676.78 934.57,1665.78 933,1654.5C 932.147,1652.88 931.147,1652.54 930,1653.5C 931.234,1665.44 933.901,1677.11 938,1688.5C 943.082,1698.34 948.916,1707.67 955.5,1716.5C 952.555,1718.56 949.388,1720.22 946,1721.5C 944.056,1720.56 942.389,1719.23 941,1717.5C 934.385,1707.88 927.385,1698.55 920,1689.5C 912.545,1679.92 907.212,1669.26 904,1657.5C 901.616,1642.21 908.116,1633.37 923.5,1631C 928.638,1630.18 933.638,1630.68 938.5,1632.5C 942.969,1622.12 950.636,1615.79 961.5,1613.5 Z"/></g>
<g><path style="opacity:1" fill="#b3cae7" d="M 610.5,1617.5 C 612.121,1617.79 613.121,1618.79 613.5,1620.5C 610.291,1627.21 609.624,1634.21 611.5,1641.5C 606.768,1642.71 602.934,1645.38 600,1649.5C 599.632,1648.09 598.799,1647.09 597.5,1646.5C 596.682,1649.11 596.182,1651.77 596,1654.5C 592.889,1658.39 590.556,1662.72 589,1667.5C 588.421,1673.91 588.421,1680.24 589,1686.5C 583.499,1678.84 578.499,1670.84 574,1662.5C 564.594,1636.56 573.761,1624.06 601.5,1625C 602.5,1625.5 603.5,1626 604.5,1626.5C 606.745,1623.68 608.745,1620.68 610.5,1617.5 Z"/></g>
<g><path style="opacity:1" fill="#b4cce9" d="M 615.5,1624.5 C 628.676,1635.74 644.009,1642.24 661.5,1644C 678.821,1646.28 696.155,1648.44 713.5,1650.5C 711.935,1654.69 711.268,1659.02 711.5,1663.5C 690.502,1662.83 669.502,1662.67 648.5,1663C 643.695,1663.77 639.361,1665.6 635.5,1668.5C 634.571,1669.69 634.238,1671.02 634.5,1672.5C 638.771,1670.7 643.104,1668.87 647.5,1667C 649.833,1666.67 652.167,1666.33 654.5,1666C 673.498,1666.23 692.498,1666.73 711.5,1667.5C 711.769,1673.58 711.769,1679.58 711.5,1685.5C 695.03,1693.71 677.697,1699.21 659.5,1702C 658.663,1703.01 658.33,1704.18 658.5,1705.5C 677.744,1703.36 695.911,1697.7 713,1688.5C 714.691,1692.84 716.024,1697.17 717,1701.5C 702.455,1713.71 687.622,1725.55 672.5,1737C 662.26,1744.64 650.76,1749.14 638,1750.5C 625.94,1748.44 618.273,1741.44 615,1729.5C 612.842,1722.76 613.009,1716.09 615.5,1709.5C 595.973,1700.44 588.806,1685.44 594,1664.5C 598.82,1654.18 606.32,1646.84 616.5,1642.5C 613.127,1636.59 612.793,1630.59 615.5,1624.5 Z"/></g>
<g><path style="opacity:1" fill="#b4cbe9" d="M 1015.5,1635.5 C 1015.74,1634.9 1016.24,1634.57 1017,1634.5C 1021.84,1636.33 1025.84,1639.33 1029,1643.5C 1040.03,1634.64 1051.2,1634.48 1062.5,1643C 1068.96,1647.79 1073.46,1653.95 1076,1661.5C 1076.5,1665.15 1076.67,1668.82 1076.5,1672.5C 1080.88,1672.35 1084.71,1673.68 1088,1676.5C 1090.05,1682.27 1092.38,1687.94 1095,1693.5C 1095.84,1696.14 1095.34,1698.47 1093.5,1700.5C 1080.94,1697.84 1069.6,1700.68 1059.5,1709C 1056.5,1712 1053.5,1715 1050.5,1718C 1040.84,1721.22 1031.51,1725.22 1022.5,1730C 1020.34,1730.72 1018.67,1730.05 1017.5,1728C 1028.36,1721.43 1036.86,1712.6 1043,1701.5C 1047.58,1694.34 1051.08,1686.67 1053.5,1678.5C 1052.71,1676.51 1051.54,1676.18 1050,1677.5C 1044.57,1695.54 1034.73,1710.71 1020.5,1723C 1015.06,1726.91 1011.39,1725.74 1009.5,1719.5C 1011.48,1711.2 1014.32,1703.2 1018,1695.5C 1018.78,1694.06 1018.61,1692.72 1017.5,1691.5C 1012.03,1700.05 1008.2,1709.39 1006,1719.5C 1005.67,1719.83 1005.33,1720.17 1005,1720.5C 1003.93,1719.81 1002.77,1719.31 1001.5,1719C 1007.93,1699.71 1014.76,1680.54 1022,1661.5C 1023.11,1654.29 1022.45,1647.29 1020,1640.5C 1018.95,1638.38 1017.45,1636.72 1015.5,1635.5 Z"/></g>
<g><path style="opacity:1" fill="#b4cce9" d="M 564.5,1642.5 C 566.438,1652.46 569.938,1662.13 575,1671.5C 585.395,1687.23 596.561,1702.4 608.5,1717C 604.4,1719.47 600.566,1722.3 597,1725.5C 586.551,1713.19 574.051,1703.86 559.5,1697.5C 559.33,1698.82 559.663,1699.99 560.5,1701C 573.502,1707.67 584.835,1716.5 594.5,1727.5C 592.084,1730.66 589.918,1734 588,1737.5C 587.196,1738.8 586.029,1739.47 584.5,1739.5C 574.653,1735.08 564.986,1730.41 555.5,1725.5C 563.569,1734.06 573.569,1739.89 585.5,1743C 584.139,1744.58 583.472,1746.42 583.5,1748.5C 562.606,1747.3 541.939,1744.47 521.5,1740C 496.781,1731.68 492.115,1717.18 507.5,1696.5C 510.205,1694.49 512.872,1692.49 515.5,1690.5C 510.507,1678.93 512.007,1668.26 520,1658.5C 530.607,1650.08 542.107,1648.41 554.5,1653.5C 557.145,1649.19 560.479,1645.52 564.5,1642.5 Z"/></g>
<g><path style="opacity:1" fill="#665224" d="M 723.5,1644.5 C 724.5,1644.5 725.5,1644.5 726.5,1644.5C 720.77,1664.6 724.437,1682.93 737.5,1699.5C 737.113,1700.72 736.28,1701.39 735,1701.5C 723.161,1687.31 718.161,1670.98 720,1652.5C 720.906,1649.69 722.073,1647.02 723.5,1644.5 Z"/></g>
<g><path style="opacity:1" fill="#b4cce9" d="M 898.5,1648.5 C 899.827,1658.97 903.327,1668.97 909,1678.5C 919.228,1693.79 930.061,1708.63 941.5,1723C 937.865,1725.82 934.198,1728.66 930.5,1731.5C 919.979,1720.32 907.979,1710.98 894.5,1703.5C 892.512,1704.29 892.179,1705.46 893.5,1707C 906.372,1713.2 917.538,1721.7 927,1732.5C 927.667,1733.5 927.667,1734.5 927,1735.5C 924.608,1738.23 922.608,1741.23 921,1744.5C 915.174,1744.9 909.674,1743.4 904.5,1740C 900.334,1737.08 896.001,1734.42 891.5,1732C 890.365,1731.25 889.365,1731.42 888.5,1732.5C 897.239,1740.21 907.239,1745.87 918.5,1749.5C 917.926,1751.06 917.26,1752.56 916.5,1754C 898.364,1753.47 880.364,1751.47 862.5,1748C 851.682,1746.18 842.515,1741.34 835,1733.5C 830.041,1724.48 830.708,1715.81 837,1707.5C 840.076,1702.92 843.91,1699.25 848.5,1696.5C 842.423,1678.89 847.757,1666.06 864.5,1658C 868.097,1657.03 871.764,1656.53 875.5,1656.5C 880.476,1656.46 885.143,1657.29 889.5,1659C 891.002,1654.13 894.002,1650.63 898.5,1648.5 Z"/></g>
<g><path style="opacity:1" fill="#b4cce9" d="M 1078.5,1702.5 C 1095.85,1700.03 1104.02,1707.36 1103,1724.5C 1113.13,1725.95 1120.46,1731.29 1125,1740.5C 1127.7,1751.55 1126.7,1762.22 1122,1772.5C 1119.98,1774.68 1117.82,1776.68 1115.5,1778.5C 1117.84,1781.68 1119.51,1785.18 1120.5,1789C 1117.81,1795.55 1114.98,1802.05 1112,1808.5C 1110.89,1810.33 1109.39,1811.16 1107.5,1811C 1101.32,1801.56 1092.66,1795.56 1081.5,1793C 1074.77,1792.83 1068.1,1792.16 1061.5,1791C 1053.98,1786.82 1046.14,1783.32 1038,1780.5C 1037.33,1777.17 1037.33,1773.83 1038,1770.5C 1054.28,1771.46 1070.45,1770.12 1086.5,1766.5C 1086.5,1765.5 1086.5,1764.5 1086.5,1763.5C 1072.93,1765.82 1059.27,1767.49 1045.5,1768.5C 1042.51,1768.38 1039.68,1767.71 1037,1766.5C 1036.09,1760.72 1035.09,1755.05 1034,1749.5C 1036.38,1746.73 1039.22,1744.56 1042.5,1743C 1053.01,1738.61 1063.68,1734.61 1074.5,1731C 1075.78,1729.7 1075.62,1728.54 1074,1727.5C 1063.85,1731.33 1053.68,1735.16 1043.5,1739C 1039.41,1741.13 1035.58,1743.63 1032,1746.5C 1029.29,1742.25 1026.46,1738.08 1023.5,1734C 1026.5,1731.5 1029.84,1729.5 1033.5,1728C 1045.68,1725.58 1055.68,1719.58 1063.5,1710C 1068.31,1706.93 1073.31,1704.43 1078.5,1702.5 Z"/></g>
<g><path style="opacity:1" fill="#b4cbe9" d="M 718.5,1704.5 C 720.682,1705.3 722.349,1706.8 723.5,1709C 714.01,1714.17 705.51,1720.67 698,1728.5C 693.234,1734.36 690.401,1741.03 689.5,1748.5C 690.675,1748.72 691.675,1748.39 692.5,1747.5C 695.205,1737.63 700.538,1729.46 708.5,1723C 714.59,1719.54 720.423,1715.71 726,1711.5C 730.907,1717.08 736.407,1721.91 742.5,1726C 734.125,1739.92 725.625,1753.75 717,1767.5C 709.509,1773.82 701.342,1779.15 692.5,1783.5C 691.614,1784.32 691.281,1785.32 691.5,1786.5C 706.929,1782.24 718.762,1773.24 727,1759.5C 732.592,1748.64 738.925,1738.3 746,1728.5C 748.921,1729.6 751.421,1731.26 753.5,1733.5C 745.464,1751.24 736.63,1768.57 727,1785.5C 720.677,1797.79 718.343,1810.79 720,1824.5C 721.039,1826.75 722.206,1828.91 723.5,1831C 711.499,1830.16 702.499,1824.5 696.5,1814C 693.103,1814.01 689.77,1814.68 686.5,1816C 660.478,1817.81 647.145,1805.65 646.5,1779.5C 646.293,1774.8 647.126,1770.46 649,1766.5C 642.868,1764.03 638.368,1759.87 635.5,1754C 646.768,1754.24 657.101,1751.24 666.5,1745C 684.592,1732.4 701.925,1718.9 718.5,1704.5 Z"/></g>
<g><path style="opacity:1" fill="#aec2db" d="M 606.5,1708.5 C 609.503,1708.99 610.669,1710.66 610,1713.5C 608.198,1712.21 607.031,1710.54 606.5,1708.5 Z"/></g>
<g><path style="opacity:1" fill="#665224" d="M 739.5,1710.5 C 743.958,1713.9 748.958,1716.57 754.5,1718.5C 755.661,1720.38 754.994,1721.38 752.5,1721.5C 747.805,1720.07 743.638,1717.74 740,1714.5C 739.51,1713.21 739.343,1711.87 739.5,1710.5 Z"/></g>
<g><path style="opacity:1" fill="#f9b837" d="M 967.5,1716.5 C 984.904,1716.25 1000.9,1720.75 1015.5,1730C 1034.38,1749.1 1038.88,1771.27 1029,1796.5C 1023.7,1809.13 1014.54,1817.63 1001.5,1822C 969.603,1836.13 943.436,1829.3 923,1801.5C 912.608,1778.98 914.608,1757.65 929,1737.5C 940.199,1727.48 953.033,1720.48 967.5,1716.5 Z"/></g>
<g><path style="opacity:1" fill="#f8b837" d="M 608.5,1720.5 C 610.036,1730.92 614.37,1740.09 621.5,1748C 624.48,1750.32 627.813,1751.82 631.5,1752.5C 632.262,1756.69 634.096,1760.36 637,1763.5C 639.589,1765.21 642.089,1767.04 644.5,1769C 640.987,1782.74 643.154,1795.57 651,1807.5C 654.883,1811.05 659.049,1814.22 663.5,1817C 634.376,1828.84 610.21,1822.34 591,1797.5C 587.91,1793.32 585.91,1788.65 585,1783.5C 579.91,1762.02 584.743,1743.19 599.5,1727C 602.567,1724.81 605.567,1722.65 608.5,1720.5 Z"/></g>
<g><path style="opacity:1" fill="#aec2da" d="M 827.5,1723.5 C 830.241,1727.9 830.741,1732.57 829,1737.5C 827.167,1733.83 825.333,1730.17 823.5,1726.5C 824.901,1725.48 826.235,1724.48 827.5,1723.5 Z"/></g>
<g><path style="opacity:1" fill="#b3cbe8" d="M 818.5,1727.5 C 823.692,1733.88 827.359,1741.22 829.5,1749.5C 822.095,1754.4 816.261,1760.74 812,1768.5C 809.318,1756.77 806.484,1745.1 803.5,1733.5C 809.025,1732.66 814.025,1730.66 818.5,1727.5 Z"/></g>
<g><path style="opacity:1" fill="#b4cbe9" d="M 499.5,1730.5 C 506.624,1737.07 514.958,1741.57 524.5,1744C 543.296,1748.06 562.296,1750.56 581.5,1751.5C 580.838,1755.47 580.505,1759.47 580.5,1763.5C 562.503,1762.76 544.503,1762.59 526.5,1763C 523.756,1763.8 521.089,1764.8 518.5,1766C 516.561,1766.91 515.561,1768.41 515.5,1770.5C 519.329,1768.76 523.329,1767.26 527.5,1766C 544.836,1765.62 562.17,1765.78 579.5,1766.5C 580.702,1771.71 580.702,1776.88 579.5,1782C 565.213,1788.7 550.547,1793.87 535.5,1797.5C 541.248,1798.52 546.915,1798.02 552.5,1796C 562.628,1792.76 572.628,1789.26 582.5,1785.5C 583.269,1788.95 584.103,1792.28 585,1795.5C 573.075,1804.88 561.242,1814.38 549.5,1824C 540.285,1830.94 529.951,1835.11 518.5,1836.5C 510.177,1836.09 504.343,1832.09 501,1824.5C 497.452,1816.93 496.785,1809.27 499,1801.5C 479.517,1791.57 474.85,1776.9 485,1757.5C 487.842,1753.96 491.009,1750.79 494.5,1748C 496.134,1747.51 497.801,1747.34 499.5,1747.5C 498.399,1741.78 498.399,1736.11 499.5,1730.5 Z"/></g>
<g><path style="opacity:1" fill="#b4cce9" d="M 756.5,1734.5 C 761.466,1735.58 766.466,1736.58 771.5,1737.5C 763.12,1760.65 761.287,1784.32 766,1808.5C 767.826,1809.84 768.993,1809.34 769.5,1807C 764.725,1783.59 766.725,1760.75 775.5,1738.5C 782.601,1737.09 789.768,1736.09 797,1735.5C 797.833,1735.83 798.667,1736.17 799.5,1736.5C 806.188,1755.93 810.021,1775.93 811,1796.5C 812,1797.83 813,1797.83 814,1796.5C 818.074,1802.08 822.908,1806.74 828.5,1810.5C 828.6,1817.86 828.1,1825.19 827,1832.5C 822.326,1842.86 814.493,1849.02 803.5,1851C 791.673,1853.08 780.673,1851.08 770.5,1845C 768.041,1842.55 765.708,1840.05 763.5,1837.5C 758.888,1841.64 753.554,1843.14 747.5,1842C 742.446,1838.81 737.112,1836.14 731.5,1834C 725.314,1829.29 722.314,1822.96 722.5,1815C 724.127,1802.45 727.96,1790.62 734,1779.5C 743.108,1765.28 750.608,1750.28 756.5,1734.5 Z"/></g>
<g><path style="opacity:1" fill="#b4cce9" d="M 832.5,1736.5 C 845.125,1747.1 859.792,1752.94 876.5,1754C 889.544,1755.34 902.544,1757 915.5,1759C 914.029,1762.32 913.363,1765.82 913.5,1769.5C 895.836,1768.81 878.169,1768.64 860.5,1769C 855.729,1769.88 851.729,1772.05 848.5,1775.5C 849.167,1775.83 849.833,1776.17 850.5,1776.5C 854.773,1773.91 859.439,1772.41 864.5,1772C 878.206,1771.31 891.873,1771.81 905.5,1773.5C 908.089,1773.47 910.589,1773.14 913,1772.5C 913.567,1777.83 914.067,1783.17 914.5,1788.5C 899.567,1794.7 884.233,1799.7 868.5,1803.5C 870.044,1805.45 872.044,1805.95 874.5,1805C 888.42,1802.19 901.753,1797.69 914.5,1791.5C 916.583,1794.58 917.749,1797.92 918,1801.5C 906.833,1810.67 895.667,1819.83 884.5,1829C 877.653,1833.84 870.32,1837.84 862.5,1841C 847.85,1845.59 838.016,1840.76 833,1826.5C 831.389,1820.19 831.056,1813.85 832,1807.5C 816.755,1800.59 810.755,1788.92 814,1772.5C 817.665,1762.67 824.165,1755.67 833.5,1751.5C 831.327,1746.61 830.993,1741.61 832.5,1736.5 Z"/></g>
<g><path style="opacity:1" fill="#695424" d="M 590.5,1746.5 C 591.649,1746.79 592.316,1747.62 592.5,1749C 588.721,1764.73 591.555,1779.23 601,1792.5C 601.351,1796.1 600.351,1796.43 598,1793.5C 590.278,1782.34 586.612,1770 587,1756.5C 587.679,1752.96 588.846,1749.63 590.5,1746.5 Z"/></g>
<g><path style="opacity:1" fill="#645024" d="M 923.5,1753.5 C 924.5,1753.5 925.5,1753.5 926.5,1753.5C 922.372,1764.63 922.872,1775.63 928,1786.5C 930.246,1791.33 932.746,1795.99 935.5,1800.5C 935,1800.83 934.5,1801.17 934,1801.5C 925.395,1791.93 920.895,1780.6 920.5,1767.5C 920.269,1762.54 921.269,1757.87 923.5,1753.5 Z"/></g>
<g><path style="opacity:1" fill="#b4cce9" d="M 1035.5,1784.5 C 1039.95,1785.15 1044.28,1786.32 1048.5,1788C 1057.49,1794.33 1067.49,1796.99 1078.5,1796C 1087.97,1797.15 1095.81,1801.32 1102,1808.5C 1106.17,1814.66 1106.5,1820.99 1103,1827.5C 1100.91,1830.11 1098.75,1832.61 1096.5,1835C 1104.91,1846.6 1104.41,1857.76 1095,1868.5C 1087.61,1877.79 1078.11,1881.95 1066.5,1881C 1065.29,1883.35 1064.45,1885.85 1064,1888.5C 1063.22,1890.29 1062.05,1891.79 1060.5,1893C 1055.63,1894.1 1050.96,1895.77 1046.5,1898C 1043.12,1898.82 1039.78,1898.66 1036.5,1897.5C 1040,1886.51 1038.5,1876.17 1032,1866.5C 1028.33,1862.17 1024.67,1857.83 1021,1853.5C 1017.72,1842.82 1013.55,1832.48 1008.5,1822.5C 1011.17,1820.83 1013.83,1819.17 1016.5,1817.5C 1023.4,1829.46 1031.4,1840.63 1040.5,1851C 1041.17,1851.17 1041.83,1851.33 1042.5,1851.5C 1043.93,1851.27 1044.43,1850.6 1044,1849.5C 1034.48,1839.14 1026.31,1827.81 1019.5,1815.5C 1023.54,1811.46 1027.21,1807.13 1030.5,1802.5C 1043.06,1808.39 1052.73,1817.39 1059.5,1829.5C 1060.32,1830.39 1061.32,1830.72 1062.5,1830.5C 1061.11,1825.27 1058.61,1820.6 1055,1816.5C 1047.62,1809.89 1039.78,1803.89 1031.5,1798.5C 1033.85,1794.11 1035.19,1789.44 1035.5,1784.5 Z"/></g>
<g><path style="opacity:1" fill="#b4cbe9" d="M 586.5,1797.5 C 588.914,1798.41 589.747,1800.07 589,1802.5C 582.311,1806.68 575.978,1811.35 570,1816.5C 566.25,1821.5 563.417,1827 561.5,1833C 561.893,1835.2 562.893,1835.7 564.5,1834.5C 566.588,1826.24 570.922,1819.41 577.5,1814C 582.008,1811.25 586.341,1808.25 590.5,1805C 591.5,1804.33 592.5,1804.33 593.5,1805C 597.247,1809.42 601.58,1813.08 606.5,1816C 599.874,1826.75 593.374,1837.58 587,1848.5C 580.751,1855.58 573.251,1860.91 564.5,1864.5C 563.614,1865.32 563.281,1866.32 563.5,1867.5C 572.818,1864.42 580.985,1859.42 588,1852.5C 595.252,1841 602.252,1829.33 609,1817.5C 611.333,1819.01 613.5,1820.67 615.5,1822.5C 608.342,1838.49 600.509,1854.16 592,1869.5C 587.881,1878.42 586.215,1887.76 587,1897.5C 587.765,1900.2 588.932,1902.7 590.5,1905C 580.057,1903.61 572.057,1898.45 566.5,1889.5C 563.512,1891.04 560.346,1892.04 557,1892.5C 553.149,1890.83 549.316,1888.99 545.5,1887C 542.167,1886.67 538.833,1886.33 535.5,1886C 527.01,1877.23 523.843,1866.73 526,1854.5C 526.956,1853.42 527.789,1852.25 528.5,1851C 523.091,1849.09 519.091,1845.59 516.5,1840.5C 531.904,1838.13 545.571,1831.96 557.5,1822C 567.238,1813.82 576.904,1805.65 586.5,1797.5 Z"/></g>
<g><path style="opacity:1" fill="#675224" d="M 604.5,1802.5 C 607.984,1805.64 611.984,1807.97 616.5,1809.5C 617.7,1811.11 617.2,1812.11 615,1812.5C 610.185,1811.18 606.352,1808.51 603.5,1804.5C 603.863,1803.82 604.196,1803.15 604.5,1802.5 Z"/></g>
<g><path style="opacity:1" fill="#b4cbe9" d="M 919.5,1804.5 C 921.384,1804.71 922.717,1805.71 923.5,1807.5C 915.879,1812.56 908.712,1818.23 902,1824.5C 898.973,1829.22 896.473,1834.22 894.5,1839.5C 895.289,1841.49 896.455,1841.82 898,1840.5C 899.692,1834.12 902.692,1828.45 907,1823.5C 912.904,1818.8 919.071,1814.46 925.5,1810.5C 929.872,1814.87 934.539,1818.87 939.5,1822.5C 932.918,1834 926.085,1845.33 919,1856.5C 912.852,1862.14 906.019,1866.81 898.5,1870.5C 897.614,1871.32 897.281,1872.32 897.5,1873.5C 905.801,1870.6 913.301,1866.26 920,1860.5C 927.42,1850 934.087,1839 940,1827.5C 940.906,1825.39 942.406,1824.55 944.5,1825C 946.001,1826.25 947.668,1827.25 949.5,1828C 942.592,1843.98 934.759,1859.48 926,1874.5C 920.992,1884.29 919.325,1894.63 921,1905.5C 921.833,1907.17 922.667,1908.83 923.5,1910.5C 922.833,1910.83 922.167,1911.17 921.5,1911.5C 912.175,1909 905.008,1903.67 900,1895.5C 874.682,1903.07 860.849,1893.57 858.5,1867C 858.486,1863.52 859.486,1860.36 861.5,1857.5C 859.543,1855.52 857.21,1854.02 854.5,1853C 852.833,1850.67 851.167,1848.33 849.5,1846C 859.276,1845.96 868.276,1843.3 876.5,1838C 891.592,1827.73 905.925,1816.57 919.5,1804.5 Z"/></g>
<g><path style="opacity:1" fill="#685324" d="M 936.5,1809.5 C 940.793,1811.43 945.126,1813.43 949.5,1815.5C 950.386,1816.32 950.719,1817.32 950.5,1818.5C 944.115,1817.99 939.448,1814.99 936.5,1809.5 Z"/></g>
<g><path style="opacity:1" fill="#b4cbe9" d="M 693.5,1817.5 C 702.298,1828.9 713.965,1835.07 728.5,1836C 734.923,1839.14 741.256,1842.48 747.5,1846C 750.146,1846.5 752.813,1846.66 755.5,1846.5C 755.124,1854.19 754.457,1861.85 753.5,1869.5C 747.218,1874.32 740.218,1876.15 732.5,1875C 732.021,1879.78 730.021,1883.78 726.5,1887C 721.628,1888.1 716.962,1889.77 712.5,1892C 709.518,1892.5 706.518,1892.66 703.5,1892.5C 706.713,1879.4 704.213,1867.4 696,1856.5C 692.63,1853.47 689.63,1850.13 687,1846.5C 684.524,1837.9 681.357,1829.57 677.5,1821.5C 681.041,1820.8 684.541,1820.13 688,1819.5C 693.733,1828.57 700.233,1837.07 707.5,1845C 708.448,1845.48 709.448,1845.65 710.5,1845.5C 709.051,1841.53 706.551,1838.19 703,1835.5C 699.29,1829.91 695.457,1824.41 691.5,1819C 692.416,1818.72 693.082,1818.22 693.5,1817.5 Z"/></g>
<g><path style="opacity:1" fill="#b4cce9" d="M 666.5,1819.5 C 668.924,1819.19 671.257,1819.53 673.5,1820.5C 677.49,1829.3 680.99,1838.3 684,1847.5C 691.664,1854.84 697.331,1863.5 701,1873.5C 704.523,1887.81 699.356,1896.81 685.5,1900.5C 683.218,1899.78 680.884,1899.44 678.5,1899.5C 675.729,1915.58 666.063,1923.25 649.5,1922.5C 639.136,1922.48 630.802,1918.48 624.5,1910.5C 620.591,1913.47 616.258,1914.63 611.5,1914C 604.895,1911.12 598.728,1907.62 593,1903.5C 589.05,1896.84 588.384,1889.84 591,1882.5C 592.47,1877.76 594.136,1873.09 596,1868.5C 604.14,1854.18 611.64,1839.52 618.5,1824.5C 619.167,1824.17 619.833,1823.83 620.5,1823.5C 623.82,1824.3 627.154,1824.96 630.5,1825.5C 624.059,1843.7 622.225,1862.37 625,1881.5C 625.36,1883.42 626.194,1885.09 627.5,1886.5C 628.5,1886.17 629.167,1885.5 629.5,1884.5C 625.301,1864.52 626.967,1845.02 634.5,1826C 640.186,1825.69 645.853,1825.19 651.5,1824.5C 652.772,1824.57 653.938,1824.9 655,1825.5C 660.321,1841.75 663.321,1858.42 664,1875.5C 664.893,1876.71 665.726,1876.71 666.5,1875.5C 666.87,1857.67 663.87,1840.34 657.5,1823.5C 660.592,1822.15 663.592,1820.81 666.5,1819.5 Z"/></g>
<g><path style="opacity:1" fill="#b4cce9" d="M 1004.5,1823.5 C 1006.93,1827.22 1009.1,1831.22 1011,1835.5C 1012.94,1841.98 1015.27,1848.31 1018,1854.5C 1023.82,1859.99 1028.49,1866.32 1032,1873.5C 1037.78,1884.85 1036.28,1895.02 1027.5,1904C 1022.69,1906.45 1017.69,1907.12 1012.5,1906C 1010.98,1914.86 1006.31,1921.53 998.5,1926C 985.784,1930.38 973.784,1929.04 962.5,1922C 961.174,1919.84 959.507,1918.01 957.5,1916.5C 953.454,1920.09 948.788,1921.26 943.5,1920C 938.627,1917.06 933.627,1914.4 928.5,1912C 924.773,1907.95 923.106,1903.11 923.5,1897.5C 923.848,1889.8 925.681,1882.47 929,1875.5C 933.932,1865.58 939.265,1855.91 945,1846.5C 947.742,1841.02 949.908,1835.36 951.5,1829.5C 955.789,1830.49 960.122,1831.32 964.5,1832C 957.242,1851.67 955.576,1871.83 959.5,1892.5C 960.5,1892.5 961.5,1892.5 962.5,1892.5C 958.76,1871.7 960.426,1851.37 967.5,1831.5C 974.52,1831.5 981.52,1831.17 988.5,1830.5C 993.211,1847.92 996.877,1865.08 999.5,1882C 1000.63,1877.25 1000.8,1872.42 1000,1867.5C 997.951,1854.31 995.117,1841.31 991.5,1828.5C 996.207,1827.64 1000.54,1825.97 1004.5,1823.5 Z"/></g>
<g><path style="opacity:1" fill="#fefefd" d="M 830.5,1832.5 C 833.218,1835.72 836.218,1838.89 839.5,1842C 841.275,1843.44 843.275,1844.44 845.5,1845C 847.916,1850.92 851.916,1855.42 857.5,1858.5C 853.9,1871.73 856.567,1883.56 865.5,1894C 875.642,1902.5 886.809,1904.33 899,1899.5C 905.883,1909.36 915.383,1914.53 927.5,1915C 932.59,1917.48 937.59,1920.14 942.5,1923C 923.601,1924.89 905.601,1929.89 888.5,1938C 883.044,1941.79 877.877,1945.95 873,1950.5C 872.333,1948.5 872.333,1946.5 873,1944.5C 874.841,1938.31 876.674,1932.15 878.5,1926C 878.024,1919.75 874.69,1917.42 868.5,1919C 862.466,1922.03 857.299,1926.2 853,1931.5C 844.692,1945.15 834.858,1957.65 823.5,1969C 818.447,1972.44 812.947,1974.94 807,1976.5C 805.523,1975.56 804.523,1974.22 804,1972.5C 791.85,1934.34 788.017,1895.34 792.5,1855.5C 811.218,1857.49 823.885,1849.82 830.5,1832.5 Z"/></g>
<g><path style="opacity:1" fill="#3c8f6f" d="M 761.5,1842.5 C 764.938,1844.76 768.271,1847.26 771.5,1850C 776.133,1852.74 781.133,1854.41 786.5,1855C 787.516,1855.52 788.182,1856.35 788.5,1857.5C 783.816,1901.2 788.983,1943.53 804,1984.5C 798.199,1977.7 792.032,1971.2 785.5,1965C 781.582,1962.12 777.415,1959.62 773,1957.5C 767.528,1931.12 765.028,1904.45 765.5,1877.5C 764.178,1877.33 763.011,1877.66 762,1878.5C 761.038,1905.04 763.538,1931.21 769.5,1957C 767.866,1957.49 766.199,1957.66 764.5,1957.5C 757.892,1922.76 756.058,1887.76 759,1852.5C 759.026,1848.86 759.86,1845.53 761.5,1842.5 Z"/></g>
<g><path style="opacity:1" fill="#fdfdfd" d="M 752.5,1873.5 C 752.948,1904.31 756.114,1934.97 762,1965.5C 764.633,1971.4 766.633,1977.4 768,1983.5C 754.833,1974.33 741.667,1965.17 728.5,1956C 717.296,1949.71 705.296,1946.04 692.5,1945C 677.504,1944.5 662.504,1944.33 647.5,1944.5C 647.407,1938.14 647.74,1931.8 648.5,1925.5C 665.467,1926.83 676.467,1919.5 681.5,1903.5C 689.138,1904.23 695.472,1901.73 700.5,1896C 704.833,1895.67 709.167,1895.33 713.5,1895C 717.962,1892.77 722.628,1891.1 727.5,1890C 731.678,1887.32 734.012,1883.48 734.5,1878.5C 741.207,1878.99 747.207,1877.33 752.5,1873.5 Z"/></g>
<g><path style="opacity:1" fill="#3c8f6f" d="M 536.5,1889.5 C 543.201,1889.68 549.201,1891.85 554.5,1896C 564.864,1906.03 574.864,1916.36 584.5,1927C 596.138,1938.48 610.138,1945.15 626.5,1947C 649.184,1947.19 671.851,1947.86 694.5,1949C 705.927,1949.92 716.594,1953.25 726.5,1959C 741.333,1969.17 756.167,1979.33 771,1989.5C 774.83,2003.65 777.497,2017.98 779,2032.5C 769.16,2026.67 760.493,2019.34 753,2010.5C 747.441,2001.89 741.274,1993.72 734.5,1986C 730.688,1982.66 726.355,1980.5 721.5,1979.5C 721.33,1980.82 721.663,1981.99 722.5,1983C 728.534,1986.03 733.701,1990.2 738,1995.5C 744.952,2006.87 753.452,2017.04 763.5,2026C 744.184,2022.42 725.184,2017.42 706.5,2011C 699.865,2007.35 693.198,2003.68 686.5,2000C 676.167,1991 665.833,1982 655.5,1973C 650.475,1969.98 645.142,1967.82 639.5,1966.5C 639.5,1967.83 639.5,1969.17 639.5,1970.5C 645.635,1971.9 651.301,1974.4 656.5,1978C 663.469,1983.97 670.136,1990.3 676.5,1997C 682.826,2001.83 689.492,2006.16 696.5,2010C 680.371,2008.35 664.371,2005.69 648.5,2002C 636.137,1998.41 625.637,1991.91 617,1982.5C 609.582,1970.66 601.915,1959 594,1947.5C 591.643,1944.91 588.809,1943.24 585.5,1942.5C 587.629,1947.15 590.795,1951.15 595,1954.5C 600.167,1962.83 605.333,1971.17 610.5,1979.5C 610.333,1979.83 610.167,1980.17 610,1980.5C 596.333,1970.83 584.667,1959.17 575,1945.5C 567.748,1934 560.748,1922.33 554,1910.5C 552.89,1908.96 551.39,1908.3 549.5,1908.5C 560.738,1933.12 576.071,1954.95 595.5,1974C 609.517,1985.68 624.85,1995.35 641.5,2003C 625.994,2003.12 610.66,2001.45 595.5,1998C 588.773,1995.8 582.439,1992.8 576.5,1989C 575.207,1988.51 573.873,1988.34 572.5,1988.5C 572.33,1989.82 572.663,1990.99 573.5,1992C 583.396,1997.97 594.063,2001.97 605.5,2004C 644.319,2005.88 682.652,2011.21 720.5,2020C 694.598,2021.58 669.265,2026.25 644.5,2034C 635.439,2034.54 626.439,2034.04 617.5,2032.5C 617.5,2033.5 617.5,2034.5 617.5,2035.5C 624.65,2036.6 631.817,2037.6 639,2038.5C 652.587,2035.75 666.087,2032.58 679.5,2029C 710.272,2021.84 740.606,2023.17 770.5,2033C 774.112,2034.14 777.446,2035.81 780.5,2038C 771.727,2036.86 763.06,2037.53 754.5,2040C 743.167,2044 731.833,2048 720.5,2052C 715.209,2053.22 709.876,2054.22 704.5,2055C 703.202,2057.39 704.035,2058.56 707,2058.5C 711.536,2057.85 716.036,2057.02 720.5,2056C 735.232,2050.2 750.232,2045.2 765.5,2041C 770.891,2040.73 776.224,2041.23 781.5,2042.5C 784.179,2054.36 789.846,2064.53 798.5,2073C 790.812,2073.43 783.146,2074.1 775.5,2075C 763.956,2079.07 752.289,2082.74 740.5,2086C 710.691,2092.31 682.691,2087.65 656.5,2072C 648.5,2066.33 640.5,2060.67 632.5,2055C 609.145,2046.09 588.979,2032.59 572,2014.5C 565.578,2006.07 560.911,1996.73 558,1986.5C 554.99,1966.78 551.657,1947.11 548,1927.5C 545.948,1916.67 541.948,1906.67 536,1897.5C 535.278,1894.74 535.445,1892.07 536.5,1889.5 Z"/></g>
<g><path style="opacity:1" fill="#fdfdfc" d="M 564.5,1893.5 C 568.642,1897.79 573.309,1901.63 578.5,1905C 583.522,1907.56 588.855,1908.9 594.5,1909C 599.59,1911.48 604.59,1914.14 609.5,1917C 612.146,1917.5 614.813,1917.66 617.5,1917.5C 616.737,1925.14 616.403,1932.81 616.5,1940.5C 607.544,1938.72 599.544,1934.89 592.5,1929C 581.446,1917.95 570.446,1906.95 559.5,1896C 561.175,1895.01 562.842,1894.18 564.5,1893.5 Z"/></g>
<g><path style="opacity:1" fill="#3c8f6f" d="M 1052.5,1898.5 C 1053.16,1899.96 1053.49,1901.63 1053.5,1903.5C 1052.75,1918.49 1052.25,1933.49 1052,1948.5C 1050.47,1964.76 1044.47,1979.1 1034,1991.5C 1021.43,2005.24 1007.27,2016.91 991.5,2026.5C 988.602,2021.58 986.935,2016.25 986.5,2010.5C 990.222,2009.98 993.888,2009.15 997.5,2008C 1001.23,2006.43 1001.23,2005.27 997.5,2004.5C 993.777,2005.3 990.11,2006.3 986.5,2007.5C 985.914,2007.29 985.414,2006.96 985,2006.5C 982.838,1997.89 982.005,1989.22 982.5,1980.5C 999.642,1977.73 1015.64,1971.9 1030.5,1963C 1033.65,1961.02 1036.31,1958.52 1038.5,1955.5C 1038.17,1954.5 1037.5,1953.83 1036.5,1953.5C 1020.45,1966.35 1002.11,1974.02 981.5,1976.5C 981.215,1974.71 981.548,1973.05 982.5,1971.5C 1007.3,1953.71 1025.3,1930.71 1036.5,1902.5C 1042.33,1902.71 1047.66,1901.38 1052.5,1898.5 Z"/></g>
<g><path style="opacity:1" fill="#3e8d6c" d="M 1030.5,1904.5 C 1031.24,1904.37 1031.91,1904.54 1032.5,1905C 1024.41,1923.03 1013.24,1938.86 999,1952.5C 1003.44,1937.69 1010.28,1924.03 1019.5,1911.5C 1017.66,1910.81 1016,1910.48 1014.5,1910.5C 1018.5,1909.67 1022.5,1908.83 1026.5,1908C 1028.32,1907.34 1029.66,1906.17 1030.5,1904.5 Z"/></g>
<g><path style="opacity:1" fill="#3d8e6e" d="M 622.5,1914.5 C 625.225,1915.71 627.559,1917.55 629.5,1920C 634.181,1922.73 639.181,1924.56 644.5,1925.5C 644.691,1931.73 644.691,1938.07 644.5,1944.5C 636.167,1943.83 627.833,1943.17 619.5,1942.5C 619.185,1932.86 620.185,1923.53 622.5,1914.5 Z"/></g>
<g><path style="opacity:1" fill="#3c8f6f" d="M 1030.5,2244.5 C 1024.5,2244.5 1018.5,2244.5 1012.5,2244.5C 1012.83,2239.13 1012.49,2233.79 1011.5,2228.5C 1010.91,2228.71 1010.41,2229.04 1010,2229.5C 1009.5,2234.49 1009.33,2239.49 1009.5,2244.5C 1008.17,2244.5 1006.83,2244.5 1005.5,2244.5C 1006.54,2229.85 1006.71,2215.18 1006,2200.5C 1002.32,2163.76 994.988,2127.76 984,2092.5C 975.663,2068.16 967.33,2043.82 959,2019.5C 952.89,1988.74 951.223,1957.74 954,1926.5C 954.129,1924 955.129,1922 957,1920.5C 962.731,1926.95 969.898,1930.62 978.5,1931.5C 975.484,1962.64 977.984,1993.3 986,2023.5C 996.727,2050.68 1006.06,2078.35 1014,2106.5C 1027.05,2151.65 1032.55,2197.65 1030.5,2244.5 Z"/></g>
<g><path style="opacity:1" fill="#3d8e6e" d="M 870.5,1921.5 C 873.352,1921.35 875.019,1922.69 875.5,1925.5C 873.956,1930.92 872.122,1936.26 870,1941.5C 869.625,1946.21 868.958,1950.88 868,1955.5C 863.667,1959.5 859.333,1963.5 855,1967.5C 854.833,1967.17 854.667,1966.83 854.5,1966.5C 858.167,1957.83 861.833,1949.17 865.5,1940.5C 864.965,1938.9 863.965,1938.4 862.5,1939C 857.532,1950.9 852.365,1962.73 847,1974.5C 841.333,1980.17 835.667,1985.83 830,1991.5C 831.163,1984.97 834.163,1979.3 839,1974.5C 839.167,1974 839.333,1973.5 839.5,1973C 839.15,1971.74 838.483,1971.41 837.5,1972C 830.406,1980.02 825.239,1989.18 822,1999.5C 818.492,1997.41 815.158,1995.08 812,1992.5C 809.798,1988.39 808.298,1984.06 807.5,1979.5C 820.585,1975.92 831.085,1968.59 839,1957.5C 845.981,1946.37 853.814,1935.87 862.5,1926C 865.099,1924.2 867.766,1922.7 870.5,1921.5 Z"/></g>
<g><path style="opacity:1" fill="#3c8f6f" d="M 944.5,1926.5 C 946.5,1926.5 948.5,1926.5 950.5,1926.5C 950.208,1936.17 949.708,1945.84 949,1955.5C 936.361,1974.47 920.194,1989.64 900.5,2001C 889.068,2006.27 877.068,2007.94 864.5,2006C 869.049,1998.4 873.215,1990.57 877,1982.5C 880.333,1977.83 884.333,1973.83 889,1970.5C 889.699,1968.93 889.365,1967.59 888,1966.5C 883.7,1969.8 879.7,1973.46 876,1977.5C 871.087,1986.99 865.92,1996.33 860.5,2005.5C 848.664,2007.4 837.331,2005.9 826.5,2001C 827.126,2000.25 827.626,1999.42 828,1998.5C 847.933,1978.23 868.766,1959.06 890.5,1941C 896.941,1937.78 903.608,1935.11 910.5,1933C 921.886,1930.35 933.219,1928.19 944.5,1926.5 Z"/></g>
<g><path style="opacity:1" fill="#3d8e6e" d="M 1004.5,1925.5 C 1001.63,1935.97 997.461,1946.31 992,1956.5C 988.702,1960.8 985.035,1964.8 981,1968.5C 980.487,1956.16 980.654,1943.83 981.5,1931.5C 986.566,1931.66 991.566,1931.16 996.5,1930C 999.684,1929.25 1002.35,1927.75 1004.5,1925.5 Z"/></g>
<g><path style="opacity:1" fill="#3c8f6f" d="M 1201.5,1928.5 C 1203.53,1928.34 1205.53,1928.5 1207.5,1929C 1208.1,1930.06 1208.43,1931.23 1208.5,1932.5C 1206.57,1938.45 1204.74,1944.45 1203,1950.5C 1202.03,1972.5 1201.03,1994.5 1200,2016.5C 1195.76,2034.08 1186.59,2048.58 1172.5,2060C 1156.52,2069.51 1142.18,2081.18 1129.5,2095C 1101.71,2117.02 1070.71,2123.02 1036.5,2113C 1030.51,2112.5 1024.51,2112.33 1018.5,2112.5C 1016.99,2106.14 1015.33,2099.81 1013.5,2093.5C 1013.76,2091.81 1014.43,2090.31 1015.5,2089C 1021.62,2085.13 1028.29,2082.96 1035.5,2082.5C 1047.02,2083.73 1058.35,2085.89 1069.5,2089C 1076.01,2089.95 1082.34,2089.62 1088.5,2088C 1082.67,2086.71 1076.67,2086.04 1070.5,2086C 1057.11,2081.93 1043.44,2079.93 1029.5,2080C 1019.23,2083.57 1018.9,2082.57 1028.5,2077C 1044.02,2068.16 1060.69,2063.16 1078.5,2062C 1096.87,2061.69 1115.21,2062.53 1133.5,2064.5C 1142.16,2064.64 1150.16,2062.64 1157.5,2058.5C 1156.5,2058.17 1155.5,2057.83 1154.5,2057.5C 1147.79,2059.57 1140.96,2060.9 1134,2061.5C 1112.86,2058.86 1091.69,2058.03 1070.5,2059C 1101.39,2047.03 1133.06,2037.69 1165.5,2031C 1174.67,2027.92 1182.67,2023.09 1189.5,2016.5C 1189.17,2015.5 1188.5,2014.83 1187.5,2014.5C 1171.86,2026.55 1154.2,2033.38 1134.5,2035C 1167.94,2013.2 1188.78,1983.03 1197,1944.5C 1191.29,1956.3 1185.95,1968.3 1181,1980.5C 1174.54,1992.3 1166.54,2002.96 1157,2012.5C 1160.33,2000.5 1165.83,1989.5 1173.5,1979.5C 1172.97,1977.9 1171.97,1977.4 1170.5,1978C 1163.64,1986.87 1158.48,1996.7 1155,2007.5C 1151.01,2018.49 1143.84,2026.65 1133.5,2032C 1119.05,2039.15 1104.05,2044.48 1088.5,2048C 1099.09,2040.74 1107.59,2031.58 1114,2020.5C 1118.59,2014.71 1124.25,2010.38 1131,2007.5C 1131.43,2006.4 1130.93,2005.73 1129.5,2005.5C 1124.19,2007.49 1119.53,2010.49 1115.5,2014.5C 1103.78,2032.39 1088.45,2046.22 1069.5,2056C 1058.12,2060.56 1046.79,2064.9 1035.5,2069C 1042.72,2060.07 1048.55,2050.24 1053,2039.5C 1056.47,2035.03 1060.3,2030.87 1064.5,2027C 1063.72,2025.77 1062.72,2025.44 1061.5,2026C 1058.72,2027.81 1056.22,2029.98 1054,2032.5C 1048.25,2043 1042.25,2053.33 1036,2063.5C 1027.64,2071.53 1019.64,2079.86 1012,2088.5C 1009.15,2080.63 1007.15,2072.63 1006,2064.5C 1007.47,2060.22 1009.47,2056.22 1012,2052.5C 1027.5,2037.67 1043,2022.83 1058.5,2008C 1065.72,2002.72 1073.72,1999.06 1082.5,1997C 1098.05,1993.68 1113.72,1991.02 1129.5,1989C 1146.53,1986.74 1160.36,1978.9 1171,1965.5C 1177,1956.83 1183,1948.17 1189,1939.5C 1192.77,1935.22 1196.93,1931.56 1201.5,1928.5 Z"/></g>
<g><path style="opacity:1" fill="#5a4e26" d="M 956.5,1950.5 C 957.5,1950.5 958.5,1950.5 959.5,1950.5C 958.685,1978.69 962.019,2006.36 969.5,2033.5C 968.5,2033.5 967.5,2033.5 966.5,2033.5C 958.887,2006.37 955.554,1978.71 956.5,1950.5 Z"/></g>
<g><path style="opacity:1" fill="#3c8f6f" d="M 432.5,1954.5 C 438.484,1954.44 443.817,1956.27 448.5,1960C 457.531,1968.7 466.197,1977.7 474.5,1987C 485.015,1996.42 497.349,2001.76 511.5,2003C 527.833,2003.33 544.167,2003.67 560.5,2004C 571.234,2020.73 585.234,2034.07 602.5,2044C 608.748,2052.92 615.748,2061.25 623.5,2069C 609.413,2066.31 595.413,2062.98 581.5,2059C 573.181,2055.18 565.181,2050.84 557.5,2046C 549.463,2038.29 541.13,2030.96 532.5,2024C 528.526,2021.4 524.193,2019.9 519.5,2019.5C 519.5,2020.5 519.5,2021.5 519.5,2022.5C 524.964,2023.56 529.964,2025.73 534.5,2029C 544.377,2039.93 555.71,2048.93 568.5,2056C 552.578,2054.55 536.912,2051.55 521.5,2047C 512.49,2043.58 504.99,2038.08 499,2030.5C 495,2023.83 491,2017.17 487,2010.5C 483.686,2006.02 479.852,2002.02 475.5,1998.5C 474.692,1998.81 474.025,1999.31 473.5,2000C 482.588,2009.39 489.755,2019.89 495,2031.5C 485.37,2024.2 476.703,2015.87 469,2006.5C 461.167,1994.17 453.333,1981.83 445.5,1969.5C 444.5,1969.83 443.833,1970.5 443.5,1971.5C 454.833,1995 470.5,2015.17 490.5,2032C 499.167,2038.67 508.501,2044.34 518.5,2049C 498.953,2050.52 480.619,2046.69 463.5,2037.5C 463.33,2038.82 463.663,2039.99 464.5,2041C 471.704,2045.18 479.371,2048.18 487.5,2050C 520.876,2051.97 553.876,2056.64 586.5,2064C 564.776,2065.94 543.443,2069.94 522.5,2076C 515.427,2076.55 508.427,2076.05 501.5,2074.5C 501.36,2076.12 502.027,2077.29 503.5,2078C 511.125,2079.37 518.792,2079.71 526.5,2079C 552.827,2069.89 579.827,2066.55 607.5,2069C 618.063,2070.8 628.063,2074.14 637.5,2079C 630.437,2078.26 623.437,2078.92 616.5,2081C 602.935,2086.74 588.935,2091.08 574.5,2094C 573.167,2094.67 573.167,2095.33 574.5,2096C 580.955,2096.04 587.289,2095.04 593.5,2093C 605.042,2087.73 617.042,2083.9 629.5,2081.5C 635.652,2082.16 641.486,2083.83 647,2086.5C 649.636,2094.05 651.803,2101.71 653.5,2109.5C 640.217,2108.9 627.551,2111.4 615.5,2117C 587.657,2126.14 560.99,2123.47 535.5,2109C 527.659,2103.91 519.992,2098.58 512.5,2093C 496.67,2086.59 482.337,2077.93 469.5,2067C 462.378,2059.92 456.878,2051.76 453,2042.5C 449.012,2022.91 445.345,2003.24 442,1983.5C 440.031,1975.23 436.697,1967.56 432,1960.5C 431.322,1958.4 431.489,1956.4 432.5,1954.5 Z"/></g>
<g><path style="opacity:1" fill="#3c8f6f" d="M 766.5,1960.5 C 771.567,1960.69 776.234,1962.19 780.5,1965C 791.221,1975.72 801.887,1986.39 812.5,1997C 822.149,2004.66 833.149,2008.66 845.5,2009C 863.864,2009.11 882.197,2009.78 900.5,2011C 909.79,2011.65 918.457,2014.32 926.5,2019C 939.263,2027.46 951.763,2036.3 964,2045.5C 969.693,2058.92 974.36,2072.58 978,2086.5C 967.076,2079.36 957.076,2071.02 948,2061.5C 943.552,2054.72 938.719,2048.22 933.5,2042C 930.358,2039.1 926.691,2037.26 922.5,2036.5C 926.989,2040.48 931.489,2044.82 936,2049.5C 942.622,2059.55 949.788,2068.55 957.5,2076.5C 942.445,2072.49 927.445,2068.32 912.5,2064C 904.847,2060.51 897.513,2056.51 890.5,2052C 882.463,2044.29 874.13,2036.96 865.5,2030C 862.051,2027.94 858.384,2026.44 854.5,2025.5C 851.972,2026.52 851.972,2027.68 854.5,2029C 859.213,2030.19 863.547,2032.19 867.5,2035C 874.136,2040.63 880.469,2046.63 886.5,2053C 891.334,2056.25 896.334,2059.25 901.5,2062C 884.751,2060.8 868.418,2057.46 852.5,2052C 844.662,2048.99 838.162,2044.16 833,2037.5C 826.95,2026.79 820.117,2016.62 812.5,2007C 811.034,2006.36 809.7,2005.53 808.5,2004.5C 807.417,2005.36 807.251,2006.36 808,2007.5C 810.333,2009.83 812.667,2012.17 815,2014.5C 819.709,2022.09 824.542,2029.59 829.5,2037C 828.833,2037.67 828.167,2037.67 827.5,2037C 817,2029.17 807.833,2020 800,2009.5C 793.069,1997.96 785.903,1986.63 778.5,1975.5C 792.337,2012.19 817.337,2039.02 853.5,2056C 838.852,2056.34 824.518,2054.34 810.5,2050C 806.34,2048.09 802.34,2045.92 798.5,2043.5C 796.512,2044.29 796.179,2045.46 797.5,2047C 805.844,2052.11 814.844,2055.45 824.5,2057C 856.572,2058.34 888.239,2062.68 919.5,2070C 899.111,2072.06 879.111,2076.06 859.5,2082C 851.734,2082.8 844.067,2082.3 836.5,2080.5C 834.512,2081.29 834.179,2082.46 835.5,2084C 843.458,2085.39 851.458,2085.72 859.5,2085C 880.551,2078.63 902.051,2074.8 924,2073.5C 940.352,2074.13 955.852,2077.96 970.5,2085C 965.5,2085.33 960.5,2085.67 955.5,2086C 943.363,2089.6 931.363,2093.6 919.5,2098C 915.582,2099.16 911.582,2099.66 907.5,2099.5C 907.5,2100.5 907.5,2101.5 907.5,2102.5C 913.278,2102.47 918.944,2101.64 924.5,2100C 934.953,2095.74 945.62,2092.07 956.5,2089C 963.654,2088.09 970.654,2088.76 977.5,2091C 978.931,2091.47 980.097,2092.3 981,2093.5C 983.095,2100.72 985.261,2107.88 987.5,2115C 980.792,2115.29 974.125,2115.96 967.5,2117C 951.918,2123.44 935.751,2127.27 919,2128.5C 900.971,2128.45 884.138,2123.95 868.5,2115C 861.008,2109.42 853.341,2104.09 845.5,2099C 825.804,2091.58 808.97,2080.08 795,2064.5C 788.53,2055.89 784.53,2046.22 783,2035.5C 780.743,2017.29 777.409,1999.29 773,1981.5C 770.682,1976.86 768.349,1972.2 766,1967.5C 765.297,1965.07 765.463,1962.74 766.5,1960.5 Z"/></g>
<g><path style="opacity:1" fill="#3d8e6d" d="M 948.5,1961.5 C 949.451,1968.99 950.118,1976.66 950.5,1984.5C 939.391,1987.6 928.391,1990.76 917.5,1994C 923.625,1989.54 929.458,1984.71 935,1979.5C 939.717,1973.62 944.217,1967.62 948.5,1961.5 Z"/></g>
<g><path style="opacity:1" fill="#3d8e6d" d="M 947.5,1988.5 C 949.124,1988.36 950.29,1989.03 951,1990.5C 951.509,1995.9 952.343,2001.23 953.5,2006.5C 952.5,2006.83 951.5,2007.17 950.5,2007.5C 932.147,2005.03 913.814,2004.86 895.5,2007C 912.753,2000.31 930.086,1994.14 947.5,1988.5 Z"/></g>
<g><path style="opacity:1" fill="#3d8e6e" d="M 913.5,2010.5 C 927.057,2009.21 940.723,2009.54 954.5,2011.5C 956.014,2020.38 958.347,2029.04 961.5,2037.5C 961.167,2037.83 960.833,2038.17 960.5,2038.5C 949.363,2031.2 938.363,2023.7 927.5,2016C 923.137,2013.32 918.47,2011.48 913.5,2010.5 Z"/></g>
<g><path style="opacity:1" fill="#3d8d6d" d="M 609.5,2047.5 C 620.122,2052.14 630.122,2057.81 639.5,2064.5C 641.933,2069.29 643.433,2074.29 644,2079.5C 638.776,2075.28 633.276,2071.44 627.5,2068C 620.524,2061.87 614.524,2055.03 609.5,2047.5 Z"/></g>
<g><path style="opacity:1" fill="#3c8e6e" d="M 696.5,2244.5 C 690.5,2244.5 684.5,2244.5 678.5,2244.5C 679.118,2237.18 679.451,2229.85 679.5,2222.5C 678.5,2222.5 677.5,2222.5 676.5,2222.5C 676.371,2229.84 676.038,2237.18 675.5,2244.5C 674.167,2244.5 672.833,2244.5 671.5,2244.5C 674.64,2208.14 672.14,2172.14 664,2136.5C 658.398,2113.4 652.231,2090.74 645.5,2068.5C 654.729,2075.28 664.729,2080.78 675.5,2085C 693.206,2136.77 700.206,2189.94 696.5,2244.5 Z"/></g>
<g><path style="opacity:1" fill="#3c8f6f" d="M 780.5,2077.5 C 786.842,2077.33 793.175,2077.5 799.5,2078C 800.24,2079.78 800.907,2081.62 801.5,2083.5C 778.638,2104.84 751.638,2113.68 720.5,2110C 708.942,2107.66 697.276,2106.16 685.5,2105.5C 683.593,2099.28 681.593,2093.11 679.5,2087C 703.402,2094.31 727.402,2094.31 751.5,2087C 761.265,2083.69 770.932,2080.52 780.5,2077.5 Z"/></g>
<g><path style="opacity:1" fill="#5a4f27" d="M 652.5,2079.5 C 654.124,2079.36 655.29,2080.03 656,2081.5C 668.772,2119.86 676.605,2159.19 679.5,2199.5C 678.5,2199.5 677.5,2199.5 676.5,2199.5C 673.238,2158.52 665.238,2118.52 652.5,2079.5 Z"/></g>
<g><path style="opacity:1" fill="#3c8f6f" d="M 847.5,2244.5 C 840.167,2244.5 832.833,2244.5 825.5,2244.5C 828.068,2232.29 829.234,2219.96 829,2207.5C 828,2206.17 827,2206.17 826,2207.5C 825.079,2219.86 823.913,2232.2 822.5,2244.5C 821.167,2244.5 819.833,2244.5 818.5,2244.5C 824.942,2188.14 819.942,2132.81 803.5,2078.5C 806.166,2079.3 808.333,2081.3 810,2084.5C 818.05,2116.03 823.216,2148.03 825.5,2180.5C 826.5,2180.5 827.5,2180.5 828.5,2180.5C 828.666,2174.49 828.499,2168.49 828,2162.5C 824.809,2136.89 820.475,2111.56 815,2086.5C 822.31,2091.57 830.143,2095.74 838.5,2099C 850.853,2146.91 853.853,2195.41 847.5,2244.5 Z"/></g>
<g><path style="opacity:1" fill="#5a4f27" d="M 986.5,2085.5 C 987.496,2085.41 988.329,2085.75 989,2086.5C 1002.08,2125.16 1009.92,2164.83 1012.5,2205.5C 1011.5,2205.5 1010.5,2205.5 1009.5,2205.5C 1008.63,2185.96 1006.13,2166.63 1002,2147.5C 997.139,2126.72 991.973,2106.06 986.5,2085.5 Z"/></g>
<g><path style="opacity:1" fill="#fefefe" d="M 814.5,2244.5 C 776.167,2244.5 737.833,2244.5 699.5,2244.5C 700.864,2234.73 701.531,2224.89 701.5,2215C 700.715,2179.22 695.715,2144.05 686.5,2109.5C 702.671,2110.97 718.838,2112.63 735,2114.5C 760.711,2113.71 783.044,2104.71 802,2087.5C 816.71,2139.02 820.877,2191.35 814.5,2244.5 Z"/></g>
<g><path style="opacity:1" fill="#fefefe" d="M 1002.5,2244.5 C 952.167,2244.5 901.833,2244.5 851.5,2244.5C 854.332,2220.59 855.165,2196.59 854,2172.5C 852.057,2148.57 848.723,2124.9 844,2101.5C 850.433,2105.63 856.599,2110.13 862.5,2115C 883.235,2128.48 905.901,2133.81 930.5,2131C 943.432,2128.27 956.099,2124.6 968.5,2120C 975.146,2119.17 981.813,2118.67 988.5,2118.5C 993.626,2139.96 997.792,2161.63 1001,2183.5C 1003.55,2203.79 1004.05,2224.12 1002.5,2244.5 Z"/></g>
<g><path style="opacity:1" fill="#5a4f27" d="M 825.5,2244.5 C 824.5,2244.5 823.5,2244.5 822.5,2244.5C 823.913,2232.2 825.079,2219.86 826,2207.5C 827,2206.17 828,2206.17 829,2207.5C 829.234,2219.96 828.068,2232.29 825.5,2244.5 Z"/></g>
<g><path style="opacity:1" fill="#5b4d25" d="M 678.5,2244.5 C 677.5,2244.5 676.5,2244.5 675.5,2244.5C 676.038,2237.18 676.371,2229.84 676.5,2222.5C 677.5,2222.5 678.5,2222.5 679.5,2222.5C 679.451,2229.85 679.118,2237.18 678.5,2244.5 Z"/></g>
<g><path style="opacity:1" fill="#5a4f27" d="M 1012.5,2244.5 C 1011.5,2244.5 1010.5,2244.5 1009.5,2244.5C 1009.33,2239.49 1009.5,2234.49 1010,2229.5C 1010.41,2229.04 1010.91,2228.71 1011.5,2228.5C 1012.49,2233.79 1012.83,2239.13 1012.5,2244.5 Z"/></g>
</svg>
