<?xml version="1.0" encoding="UTF-8"?>
<!DOCTYPE svg PUBLIC "-//W3C//DTD SVG 1.1//EN" "http://www.w3.org/Graphics/SVG/1.1/DTD/svg11.dtd">
<svg xmlns="http://www.w3.org/2000/svg" version="1.1" width="2245px" height="1587px" style="shape-rendering:geometricPrecision; text-rendering:geometricPrecision; image-rendering:optimizeQuality; fill-rule:evenodd; clip-rule:evenodd" xmlns:xlink="http://www.w3.org/1999/xlink">
<g><path style="opacity:1" fill="#b4ccea" d="M -0.5,-0.5 C 548.167,-0.5 1096.83,-0.5 1645.5,-0.5C 1441.91,114.961 1301.07,283.294 1223,504.5C 1165.83,681.21 1161.5,859.21 1210,1038.5C 1274.85,1258.19 1402.68,1430.69 1593.5,1556C 1610.41,1566.43 1627.41,1576.59 1644.5,1586.5C 1096.17,1586.5 547.833,1586.5 -0.5,1586.5C -0.5,1057.5 -0.5,528.5 -0.5,-0.5 Z"/></g>
<g><path style="opacity:1" fill="#151515" d="M 1645.5,-0.5 C 1647.17,-0.5 1648.83,-0.5 1650.5,-0.5C 1447.29,114.122 1306.12,281.455 1227,501.5C 1170.19,674.01 1164.19,848.344 1209,1024.5C 1279.48,1272.64 1426.64,1459.97 1650.5,1586.5C 1648.5,1586.5 1646.5,1586.5 1644.5,1586.5C 1627.41,1576.59 1610.41,1566.43 1593.5,1556C 1402.68,1430.69 1274.85,1258.19 1210,1038.5C 1161.5,859.21 1165.83,681.21 1223,504.5C 1301.07,283.294 1441.91,114.961 1645.5,-0.5 Z"/></g>
<g><path style="opacity:1" fill="#fefefe" d="M 1650.5,-0.5 C 1848.5,-0.5 2046.5,-0.5 2244.5,-0.5C 2244.5,528.5 2244.5,1057.5 2244.5,1586.5C 2046.5,1586.5 1848.5,1586.5 1650.5,1586.5C 1426.64,1459.97 1279.48,1272.64 1209,1024.5C 1164.19,848.344 1170.19,674.01 1227,501.5C 1306.12,281.455 1447.29,114.122 1650.5,-0.5 Z"/></g>
<g><path style="opacity:1" fill="#111212" d="M 907.5,73.5 C 924.863,72.3709 933.696,80.3709 934,97.5C 930.159,111.515 920.993,117.015 906.5,114C 892.852,106.872 889.352,96.372 896,82.5C 899.161,78.4905 902.994,75.4905 907.5,73.5 Z"/></g>
<g><path style="opacity:1" fill="#fafafa" d="M 908.5,76.5 C 927.412,76.5595 934.245,85.5595 929,103.5C 921.834,113.078 913,114.911 902.5,109C 892.876,98.6318 893.209,88.6318 903.5,79C 905.315,78.2432 906.981,77.4098 908.5,76.5 Z"/></g>
<g><path style="opacity:1" fill="#141414" d="M 1726.5,116.5 C 1747.82,114.319 1756.99,123.652 1754,144.5C 1747.72,156.153 1738.22,159.986 1725.5,156C 1712.68,147.549 1710.18,136.716 1718,123.5C 1720.63,120.79 1723.46,118.456 1726.5,116.5 Z"/></g>
<g><path style="opacity:1" fill="#fafafa" d="M 1730.5,118.5 C 1747.62,119.091 1754.46,127.758 1751,144.5C 1744.39,154.683 1735.56,157.183 1724.5,152C 1714.7,142.953 1714.03,133.286 1722.5,123C 1725.1,121.205 1727.77,119.705 1730.5,118.5 Z"/></g>
<g><path style="opacity:1" fill="#131414" d="M 577.5,144.5 C 581.46,151.177 584.96,158.177 588,165.5C 595.089,169.294 602.255,172.961 609.5,176.5C 602.307,180.068 595.14,183.734 588,187.5C 584.939,194.621 581.606,201.621 578,208.5C 574.025,201.381 570.191,194.215 566.5,187C 559.469,183.484 552.469,179.984 545.5,176.5C 552.37,172.898 559.37,169.565 566.5,166.5C 570.166,159.172 573.832,151.838 577.5,144.5 Z"/></g>
<g><path style="opacity:1" fill="#f9f9f9" d="M 577.5,151.5 C 580.663,156.494 583.33,161.827 585.5,167.5C 591.04,170.77 596.707,173.77 602.5,176.5C 596.553,179.721 590.72,183.054 585,186.5C 582.94,191.62 580.607,196.62 578,201.5C 574.769,196.204 571.935,190.704 569.5,185C 563.802,182.151 558.136,179.318 552.5,176.5C 558.158,173.671 563.824,170.838 569.5,168C 572.036,162.428 574.703,156.928 577.5,151.5 Z"/></g>
<g><path style="opacity:1" fill="#121315" d="M 1981.5,159.5 C 1982.38,159.369 1983.04,159.702 1983.5,160.5C 1986.98,167.288 1990.31,174.121 1993.5,181C 2000.83,184.333 2008.17,187.667 2015.5,191C 2008.29,194.773 2000.95,198.273 1993.5,201.5C 1989.83,208.833 1986.17,216.167 1982.5,223.5C 1978.9,216.63 1975.57,209.63 1972.5,202.5C 1965.04,198.937 1957.71,195.103 1950.5,191C 1957.62,187.356 1964.79,183.856 1972,180.5C 1975.27,173.518 1978.44,166.518 1981.5,159.5 Z"/></g>
<g><path style="opacity:1" fill="#b0c8e5" d="M 1981.5,166.5 C 1982.38,166.369 1983.04,166.702 1983.5,167.5C 1986.18,172.864 1988.85,178.198 1991.5,183.5C 1996.95,185.727 2002.29,188.227 2007.5,191C 2002.2,194.231 1996.7,197.065 1991,199.5C 1988.16,205.176 1985.33,210.842 1982.5,216.5C 1979.67,210.842 1976.84,205.176 1974,199.5C 1968.3,197.065 1962.8,194.231 1957.5,191C 1963.18,188.162 1968.84,185.329 1974.5,182.5C 1976.85,177.145 1979.18,171.812 1981.5,166.5 Z"/></g>
<g><path style="opacity:1" fill="#161616" d="M 1527.5,248.5 C 1546.52,247.021 1555.35,255.688 1554,274.5C 1549.38,287.563 1540.22,292.396 1526.5,289C 1515.64,283.448 1511.47,274.615 1514,262.5C 1516.69,255.981 1521.19,251.314 1527.5,248.5 Z"/></g>
<g><path style="opacity:1" fill="#fafafa" d="M 1529.5,251.5 C 1547.01,251.162 1554.17,259.495 1551,276.5C 1541.45,289.895 1530.78,290.895 1519,279.5C 1512.81,266.254 1516.31,256.921 1529.5,251.5 Z"/></g>
<g><path style="opacity:1" fill="#101010" d="M 178.5,291.5 C 198.927,289.265 208.094,298.265 206,318.5C 201.126,329.688 192.626,334.188 180.5,332C 166.031,324.966 162.198,314.133 169,299.5C 171.775,296.22 174.942,293.554 178.5,291.5 Z"/></g>
<g><path style="opacity:1" fill="#fafafa" d="M 181.5,293.5 C 197.312,293.144 204.812,300.811 204,316.5C 198.168,328.667 189.002,332.167 176.5,327C 168.657,320.752 166.49,312.919 170,303.5C 172.794,298.866 176.627,295.533 181.5,293.5 Z"/></g>
<g><path style="opacity:1" fill="#fefefe" d="M 1131.5,341.5 C 1137.52,352.372 1143.19,363.539 1148.5,375C 1159.17,380 1169.83,385 1180.5,390C 1169.99,395.423 1159.32,400.59 1148.5,405.5C 1143,416.5 1137.5,427.5 1132,438.5C 1127,427.833 1122,417.167 1117,406.5C 1105.82,400.997 1094.65,395.497 1083.5,390C 1094.9,384.884 1106.06,379.384 1117,373.5C 1122.12,362.931 1126.95,352.264 1131.5,341.5 Z"/></g>
<g><path style="opacity:1" fill="#151515" d="M 2072.5,390.5 C 2099.85,388.207 2115.19,400.54 2118.5,427.5C 2114.99,455.16 2099.33,467.327 2071.5,464C 2050.15,455.82 2041.32,440.32 2045,417.5C 2049.73,403.901 2058.9,394.901 2072.5,390.5 Z"/></g>
<g><path style="opacity:1" fill="#fcfcfc" d="M 2073.5,393.5 C 2102.63,392.465 2116.47,406.465 2115,435.5C 2107.83,456.177 2093.33,464.677 2071.5,461C 2053,453.848 2044.83,440.348 2047,420.5C 2051.36,406.975 2060.19,397.975 2073.5,393.5 Z"/></g>
<g><path style="opacity:1" fill="#161616" d="M 2116.5,983.5 C 2137.78,981.947 2146.62,991.613 2143,1012.5C 2135.24,1025.04 2124.74,1027.87 2111.5,1021C 2103.06,1012.88 2101.23,1003.38 2106,992.5C 2109.1,988.886 2112.6,985.886 2116.5,983.5 Z"/></g>
<g><path style="opacity:1" fill="#fbfbfb" d="M 2116.5,986.5 C 2135.62,984.446 2143.45,992.78 2140,1011.5C 2134.96,1020.08 2127.46,1023.25 2117.5,1021C 2107.26,1015.69 2103.76,1007.53 2107,996.5C 2109.7,992.639 2112.86,989.306 2116.5,986.5 Z"/></g>
<g><path style="opacity:1" fill="#141414" d="M 616.5,1227.5 C 652.176,1228.67 668.676,1247.01 666,1282.5C 656.681,1308.79 638.181,1319.62 610.5,1315C 587.214,1306.28 576.714,1289.45 579,1264.5C 584.125,1244.54 596.625,1232.21 616.5,1227.5 Z"/></g>
<g><path style="opacity:1" fill="#fdfdfd" d="M 618.5,1230.5 C 642.949,1230.78 658.116,1242.78 664,1266.5C 664.931,1290.23 654.098,1305.73 631.5,1313C 606.09,1315.55 589.59,1304.72 582,1280.5C 579.452,1252.9 591.619,1236.24 618.5,1230.5 Z"/></g>
<g><path style="opacity:1" fill="#141414" d="M 164.5,1363.5 C 171.264,1376.86 177.931,1390.36 184.5,1404C 197.833,1410.33 211.167,1416.67 224.5,1423C 211.197,1429.32 197.864,1435.65 184.5,1442C 177.872,1455.42 171.372,1468.92 165,1482.5C 158.294,1468.92 151.461,1455.42 144.5,1442C 131.167,1435.67 117.833,1429.33 104.5,1423C 117.713,1416.56 131.047,1410.39 144.5,1404.5C 151.436,1390.96 158.103,1377.29 164.5,1363.5 Z"/></g>
<g><path style="opacity:1" fill="#151515" d="M 1575.5,1363.5 C 1579.99,1370.48 1583.99,1377.82 1587.5,1385.5C 1594.63,1388.57 1601.63,1391.9 1608.5,1395.5C 1601.65,1399.09 1594.65,1402.42 1587.5,1405.5C 1583.94,1412.96 1580.1,1420.29 1576,1427.5C 1572.39,1420.62 1569.06,1413.62 1566,1406.5C 1558.68,1403.12 1551.52,1399.45 1544.5,1395.5C 1551.71,1391.98 1558.88,1388.31 1566,1384.5C 1569.18,1377.48 1572.35,1370.48 1575.5,1363.5 Z"/></g>
<g><path style="opacity:1" fill="#fcfcfc" d="M 164.5,1370.5 C 170.47,1382.44 176.47,1394.44 182.5,1406.5C 194.167,1412 205.833,1417.5 217.5,1423C 205.987,1428.92 194.32,1434.59 182.5,1440C 176.283,1451.6 170.449,1463.44 165,1475.5C 159.039,1463.74 153.205,1451.91 147.5,1440C 135.5,1434.33 123.5,1428.67 111.5,1423C 123.5,1417.33 135.5,1411.67 147.5,1406C 153.309,1394.22 158.975,1382.38 164.5,1370.5 Z"/></g>
<g><path style="opacity:1" fill="#f9f9f9" d="M 1575.5,1370.5 C 1579.2,1376.06 1582.53,1381.89 1585.5,1388C 1590.96,1390.23 1596.3,1392.73 1601.5,1395.5C 1595.86,1398.32 1590.2,1401.15 1584.5,1404C 1582.06,1409.7 1579.23,1415.2 1576,1420.5C 1573.39,1415.62 1571.06,1410.62 1569,1405.5C 1563.28,1402.05 1557.45,1398.72 1551.5,1395.5C 1557.26,1392.69 1562.92,1389.69 1568.5,1386.5C 1570.85,1381.15 1573.18,1375.81 1575.5,1370.5 Z"/></g>
<g><path style="opacity:1" fill="#131416" d="M 2058.5,1407.5 C 2063.23,1416.62 2067.73,1425.95 2072,1435.5C 2081.63,1441.06 2091.46,1446.23 2101.5,1451C 2092.17,1455.33 2082.83,1459.67 2073.5,1464C 2068.29,1473.64 2063.45,1483.48 2059,1493.5C 2054.17,1483.83 2049.33,1474.17 2044.5,1464.5C 2034.83,1460 2025.17,1455.5 2015.5,1451C 2025.26,1446.04 2035.09,1441.21 2045,1436.5C 2049.51,1426.81 2054.01,1417.14 2058.5,1407.5 Z"/></g>
<g><path style="opacity:1" fill="#b2c9e7" d="M 2058.5,1414.5 C 2062.45,1422.41 2066.45,1430.41 2070.5,1438.5C 2078.54,1442.57 2086.54,1446.74 2094.5,1451C 2086.71,1454.39 2079.05,1458.06 2071.5,1462C 2066.77,1469.85 2062.6,1478.02 2059,1486.5C 2054.96,1478.26 2050.79,1470.09 2046.5,1462C 2038.5,1458.33 2030.5,1454.67 2022.5,1451C 2030.83,1446.83 2039.17,1442.67 2047.5,1438.5C 2051.18,1430.47 2054.85,1422.47 2058.5,1414.5 Z"/></g>
<g><path style="opacity:1" fill="#151515" d="M 1196.5,1428.5 C 1216.73,1427.35 1225.23,1436.68 1222,1456.5C 1216.68,1467.73 1207.85,1471.9 1195.5,1469C 1183.89,1463.27 1179.72,1454.1 1183,1441.5C 1186.1,1435.56 1190.6,1431.23 1196.5,1428.5 Z"/></g>
<g><path style="opacity:1" fill="#fcfcfc" d="M 1196.5,1431.5 C 1206.37,1429.73 1213.87,1433.06 1219,1441.5C 1222.32,1451.22 1219.82,1459.05 1211.5,1465C 1196.2,1470 1187.2,1464.67 1184.5,1449C 1185.16,1440.85 1189.16,1435.02 1196.5,1431.5 Z"/></g>
<g><path style="opacity:1" fill="#171717" d="M 1769.5,1449.5 C 1793.13,1447.23 1810.29,1456.56 1821,1477.5C 1827.94,1504.73 1818.77,1524.23 1793.5,1536C 1773.89,1541.68 1757.39,1536.85 1744,1521.5C 1728.68,1497.26 1731.85,1475.76 1753.5,1457C 1758.8,1454.18 1764.14,1451.68 1769.5,1449.5 Z"/></g>
<g><path style="opacity:1" fill="#fdfdfd" d="M 1769.5,1452.5 C 1795.2,1450.09 1812.03,1461.09 1820,1485.5C 1821.77,1516.06 1807.44,1532.73 1777,1535.5C 1752.7,1532.03 1739.53,1518.03 1737.5,1493.5C 1739.24,1472.77 1749.9,1459.11 1769.5,1452.5 Z"/></g>
<g><path style="opacity:1" fill="#121213" d="M 640.5,1483.5 C 659.536,1482.7 668.036,1491.7 666,1510.5C 661.17,1522.5 652.336,1527 639.5,1524C 626.315,1517.46 622.482,1507.29 628,1493.5C 631.462,1489.2 635.629,1485.86 640.5,1483.5 Z"/></g>
<g><path style="opacity:1" fill="#fafafa" d="M 640.5,1486.5 C 658.47,1485.63 665.97,1493.96 663,1511.5C 656.124,1522.7 646.958,1525.2 635.5,1519C 628.208,1511.94 626.708,1503.77 631,1494.5C 633.772,1491.22 636.939,1488.55 640.5,1486.5 Z"/></g>
</svg>
