<?xml version="1.0" encoding="UTF-8"?>
<!DOCTYPE svg PUBLIC "-//W3C//DTD SVG 1.1//EN" "http://www.w3.org/Graphics/SVG/1.1/DTD/svg11.dtd">
<svg xmlns="http://www.w3.org/2000/svg" version="1.1" width="1587px" height="2245px" style="shape-rendering:geometricPrecision; text-rendering:geometricPrecision; image-rendering:optimizeQuality; fill-rule:evenodd; clip-rule:evenodd" xmlns:xlink="http://www.w3.org/1999/xlink">
<g><path style="opacity:1" fill="#b4ccea" d="M -0.5,-0.5 C 528.5,-0.5 1057.5,-0.5 1586.5,-0.5C 1586.5,548.167 1586.5,1096.83 1586.5,1645.5C 1470.57,1440.77 1301.24,1299.61 1078.5,1222C 883.736,1160.02 689.402,1161.35 495.5,1226C 278.612,1304.75 113.278,1444.25 -0.5,1644.5C -0.5,1096.17 -0.5,547.833 -0.5,-0.5 Z"/></g>
<g><path style="opacity:1" fill="#141414" d="M 162.5,104.5 C 169.331,117.5 175.665,130.833 181.5,144.5C 195.167,151.333 208.833,158.167 222.5,165C 209.167,171.333 195.833,177.667 182.5,184C 175.872,197.424 169.372,210.924 163,224.5C 156.683,211.197 150.35,197.864 144,184.5C 130.576,177.872 117.076,171.372 103.5,165C 117.078,158.294 130.578,151.461 144,144.5C 150.452,131.265 156.619,117.932 162.5,104.5 Z"/></g>
<g><path style="opacity:1" fill="#fcfcfc" d="M 162.5,111.5 C 168.559,123.286 174.392,135.286 180,147.5C 191.91,153.205 203.744,159.039 215.5,165C 203.833,170.5 192.167,176 180.5,181.5C 174.41,193.347 168.577,205.347 163,217.5C 157.34,205.868 151.674,194.202 146,182.5C 134.398,176.283 122.565,170.449 110.5,165C 122.256,159.039 134.09,153.205 146,147.5C 151.786,135.598 157.286,123.598 162.5,111.5 Z"/></g>
<g><path style="opacity:1" fill="#111111" d="M 1268.5,165.5 C 1288.05,164.881 1296.55,174.214 1294,193.5C 1288.68,204.734 1279.85,208.9 1267.5,206C 1253.78,198.97 1250.28,188.47 1257,174.5C 1260.16,170.491 1263.99,167.491 1268.5,165.5 Z"/></g>
<g><path style="opacity:1" fill="#fafafa" d="M 1268.5,168.5 C 1287.86,168.013 1295.03,177.013 1290,195.5C 1280.69,206.609 1270.69,207.275 1260,197.5C 1253.12,184.874 1255.95,175.207 1268.5,168.5 Z"/></g>
<g><path style="opacity:1" fill="#131314" d="M 1408.5,545.5 C 1409.5,545.47 1410.16,545.97 1410.5,547C 1413.55,553.998 1416.88,560.832 1420.5,567.5C 1427.67,570.719 1434.67,574.219 1441.5,578C 1434.41,581.14 1427.41,584.474 1420.5,588C 1416.71,595.089 1413.04,602.255 1409.5,609.5C 1405.93,602.307 1402.27,595.14 1398.5,588C 1391.38,584.939 1384.38,581.606 1377.5,578C 1384.62,574.025 1391.79,570.191 1399,566.5C 1402.73,559.716 1405.89,552.716 1408.5,545.5 Z"/></g>
<g><path style="opacity:1" fill="#f8f8f8" d="M 1408.5,552.5 C 1412.15,557.954 1415.49,563.788 1418.5,570C 1424.11,572.139 1429.45,574.806 1434.5,578C 1429.29,580.773 1423.95,583.273 1418.5,585.5C 1415.23,591.04 1412.23,596.707 1409.5,602.5C 1406.36,597.048 1403.36,591.548 1400.5,586C 1394.95,583.06 1389.29,580.394 1383.5,578C 1389.66,575.088 1395.66,571.921 1401.5,568.5C 1404.23,563.308 1406.56,557.975 1408.5,552.5 Z"/></g>
<g><path style="opacity:1" fill="#131414" d="M 306.5,578.5 C 334.26,576.951 351.427,589.618 358,616.5C 359.391,642.092 347.891,658.592 323.5,666C 296.972,669.496 279.472,658.663 271,633.5C 266.766,604.605 278.6,586.272 306.5,578.5 Z"/></g>
<g><path style="opacity:1" fill="#fdfdfd" d="M 304.5,581.5 C 328.635,579.142 345.135,589.142 354,611.5C 358.435,637.383 348.268,654.55 323.5,663C 297.737,666.867 280.904,656.367 273,631.5C 270.631,606.546 281.131,589.88 304.5,581.5 Z"/></g>
<g><path style="opacity:1" fill="#121213" d="M 76.5,625.5 C 94.3147,624.522 102.815,632.856 102,650.5C 100.373,658.13 95.8728,663.296 88.5,666C 75.6884,669.012 66.8551,664.512 62,652.5C 59.5445,639.402 64.3778,630.402 76.5,625.5 Z"/></g>
<g><path style="opacity:1" fill="#fafafa" d="M 75.5,628.5 C 86.4571,626.561 94.2904,630.561 99,640.5C 100.348,658.488 92.1818,665.988 74.5,663C 63.3001,656.124 60.8001,646.958 67,635.5C 69.6278,632.79 72.4611,630.456 75.5,628.5 Z"/></g>
<g><path style="opacity:1" fill="#111112" d="M 1486.5,892.5 C 1498.75,891.205 1507.25,896.205 1512,907.5C 1514.16,920.695 1508.99,929.529 1496.5,934C 1477.5,934.665 1469.34,925.498 1472,906.5C 1474.77,899.557 1479.61,894.89 1486.5,892.5 Z"/></g>
<g><path style="opacity:1" fill="#fafafa" d="M 1486.5,895.5 C 1504.47,895.298 1511.64,903.965 1508,921.5C 1501.72,931.482 1493.22,933.982 1482.5,929C 1472.92,921.834 1471.09,913 1477,902.5C 1479.79,899.535 1482.96,897.202 1486.5,895.5 Z"/></g>
<g><path style="opacity:1" fill="#fefefe" d="M 1195.5,1083.5 C 1201.01,1094.68 1206.68,1105.85 1212.5,1117C 1223.17,1122 1233.83,1127 1244.5,1132C 1234.11,1137.53 1223.44,1142.53 1212.5,1147C 1206.62,1157.94 1201.12,1169.1 1196,1180.5C 1190.58,1169.99 1185.41,1159.32 1180.5,1148.5C 1169.5,1143 1158.5,1137.5 1147.5,1132C 1158.41,1126.96 1169.24,1121.79 1180,1116.5C 1185.27,1105.52 1190.44,1094.52 1195.5,1083.5 Z"/></g>
<g><path style="opacity:1" fill="#151516" d="M 1586.5,1645.5 C 1586.5,1647.5 1586.5,1649.5 1586.5,1651.5C 1464.73,1434.62 1284.73,1289.12 1046.5,1215C 906.754,1175.81 765.421,1169.15 622.5,1195C 390.371,1243.07 203.871,1361.57 63,1550.5C 40.0603,1582.71 18.8936,1616.05 -0.5,1650.5C -0.5,1648.5 -0.5,1646.5 -0.5,1644.5C 113.278,1444.25 278.612,1304.75 495.5,1226C 689.402,1161.35 883.736,1160.02 1078.5,1222C 1301.24,1299.61 1470.57,1440.77 1586.5,1645.5 Z"/></g>
<g><path style="opacity:1" fill="#fefefe" d="M 1586.5,1651.5 C 1586.5,1849.17 1586.5,2046.83 1586.5,2244.5C 1057.5,2244.5 528.5,2244.5 -0.5,2244.5C -0.5,2046.5 -0.5,1848.5 -0.5,1650.5C 18.8936,1616.05 40.0603,1582.71 63,1550.5C 203.871,1361.57 390.371,1243.07 622.5,1195C 765.421,1169.15 906.754,1175.81 1046.5,1215C 1284.73,1289.12 1464.73,1434.62 1586.5,1651.5 Z"/></g>
<g><path style="opacity:1" fill="#151515" d="M 132.5,1181.5 C 152.153,1182.31 159.987,1192.31 156,1211.5C 148.88,1222.67 139.046,1225.84 126.5,1221C 116.249,1213.24 113.749,1203.41 119,1191.5C 122.369,1186.57 126.869,1183.24 132.5,1181.5 Z"/></g>
<g><path style="opacity:1" fill="#fbfbfb" d="M 131.5,1184.5 C 142.069,1182.87 149.569,1186.87 154,1196.5C 156.507,1207.99 152.34,1215.82 141.5,1220C 124.535,1220.62 117.368,1212.45 120,1195.5C 122.495,1190.35 126.329,1186.69 131.5,1184.5 Z"/></g>
<g><path style="opacity:1" fill="#161616" d="M 1310.5,1513.5 C 1329.02,1511.86 1337.85,1520.19 1337,1538.5C 1332.89,1551.48 1324.06,1556.64 1310.5,1554C 1298.21,1548.83 1293.71,1539.66 1297,1526.5C 1300.1,1520.56 1304.6,1516.23 1310.5,1513.5 Z"/></g>
<g><path style="opacity:1" fill="#fafafa" d="M 1310.5,1516.5 C 1327.3,1514.47 1335.13,1521.8 1334,1538.5C 1329.71,1550.23 1321.54,1554.4 1309.5,1551C 1298.3,1544.12 1295.8,1534.96 1302,1523.5C 1304.44,1520.55 1307.27,1518.21 1310.5,1516.5 Z"/></g>
<g><path style="opacity:1" fill="#151515" d="M 189.5,1544.5 C 190.376,1544.37 191.043,1544.7 191.5,1545.5C 194.433,1552.53 197.766,1559.37 201.5,1566C 208.586,1569.14 215.586,1572.47 222.5,1576C 215.122,1579.74 207.789,1583.57 200.5,1587.5C 197.435,1594.63 194.102,1601.63 190.5,1608.5C 186.91,1601.65 183.577,1594.65 180.5,1587.5C 173.041,1583.94 165.707,1580.1 158.5,1576C 165.621,1572.36 172.787,1568.86 180,1565.5C 183.269,1558.52 186.436,1551.52 189.5,1544.5 Z"/></g>
<g><path style="opacity:1" fill="#f8f8f8" d="M 189.5,1551.5 C 190.376,1551.37 191.043,1551.7 191.5,1552.5C 193.981,1557.96 196.648,1563.29 199.5,1568.5C 204.954,1570.73 210.287,1573.23 215.5,1576C 209.715,1579.31 203.882,1582.47 198,1585.5C 195.769,1590.96 193.269,1596.3 190.5,1601.5C 187.682,1595.86 184.849,1590.2 182,1584.5C 176.296,1582.06 170.796,1579.23 165.5,1576C 171.573,1573.21 177.406,1570.05 183,1566.5C 185.179,1561.48 187.346,1556.48 189.5,1551.5 Z"/></g>
<g><path style="opacity:1" fill="#121212" d="M 1444.5,1713.5 C 1463.53,1713.36 1471.69,1722.69 1469,1741.5C 1464.43,1752.37 1456.26,1756.87 1444.5,1755C 1429.73,1748.96 1425.23,1738.46 1431,1723.5C 1434.58,1718.73 1439.08,1715.4 1444.5,1713.5 Z"/></g>
<g><path style="opacity:1" fill="#fafafa" d="M 1444.5,1716.5 C 1460.16,1715.66 1467.66,1722.99 1467,1738.5C 1462.45,1750.53 1453.95,1754.69 1441.5,1751C 1431.32,1744.39 1428.82,1735.56 1434,1724.5C 1436.86,1720.79 1440.36,1718.12 1444.5,1716.5 Z"/></g>
<g><path style="opacity:1" fill="#161616" d="M 84.5,1734.5 C 110.617,1733.13 127.784,1744.8 136,1769.5C 138.631,1798.1 126.131,1815.94 98.5,1823C 70.9078,1824.29 54.0745,1811.45 48,1784.5C 47.2386,1758.34 59.4052,1741.68 84.5,1734.5 Z"/></g>
<g><path style="opacity:1" fill="#fcfcfc" d="M 86.5,1737.5 C 109.839,1736.91 125.339,1747.58 133,1769.5C 135.911,1795.18 125.077,1812.01 100.5,1820C 75.6434,1822.67 59.4767,1812.17 52,1788.5C 48.2254,1769.88 54.0588,1755.05 69.5,1744C 74.8825,1740.71 80.5491,1738.55 86.5,1737.5 Z"/></g>
<g><path style="opacity:1" fill="#121315" d="M 1394.5,1950.5 C 1398.5,1957.16 1402,1964.16 1405,1971.5C 1412.14,1975.27 1419.31,1978.93 1426.5,1982.5C 1419.48,1986.45 1412.32,1990.12 1405,1993.5C 1401.94,2000.62 1398.61,2007.62 1395,2014.5C 1390.97,2007.78 1387.47,2000.78 1384.5,1993.5C 1377.14,1989.82 1369.81,1986.16 1362.5,1982.5C 1369.35,1978.91 1376.35,1975.58 1383.5,1972.5C 1387.17,1965.17 1390.83,1957.84 1394.5,1950.5 Z"/></g>
<g><path style="opacity:1" fill="#b0c8e5" d="M 1394.5,1957.5 C 1397.73,1962.96 1400.73,1968.62 1403.5,1974.5C 1409.11,1976.64 1414.45,1979.31 1419.5,1982.5C 1413.92,1985.69 1408.26,1988.69 1402.5,1991.5C 1400.27,1996.95 1397.77,2002.29 1395,2007.5C 1391.77,2002.2 1388.94,1996.7 1386.5,1991C 1380.8,1988.15 1375.14,1985.32 1369.5,1982.5C 1375.16,1979.67 1380.82,1976.84 1386.5,1974C 1389.04,1968.43 1391.7,1962.93 1394.5,1957.5 Z"/></g>
<g><path style="opacity:1" fill="#121415" d="M 134.5,2015.5 C 139.853,2025.04 144.853,2034.87 149.5,2045C 159.288,2049.48 168.955,2054.15 178.5,2059C 169.167,2063.33 159.833,2067.67 150.5,2072C 144.936,2081.63 139.769,2091.46 135,2101.5C 130.667,2092.17 126.333,2082.83 122,2073.5C 112.358,2068.29 102.525,2063.45 92.5,2059C 102.167,2054.17 111.833,2049.33 121.5,2044.5C 126.12,2034.93 130.453,2025.26 134.5,2015.5 Z"/></g>
<g><path style="opacity:1" fill="#b1c9e7" d="M 134.5,2022.5 C 139.059,2030.61 143.392,2038.95 147.5,2047.5C 155.653,2051.08 163.653,2054.91 171.5,2059C 163.5,2062.67 155.5,2066.33 147.5,2070C 143.522,2078.27 139.355,2086.44 135,2094.5C 131.606,2086.71 127.939,2079.05 124,2071.5C 115.975,2067.15 107.808,2062.98 99.5,2059C 107.713,2054.98 115.88,2050.81 124,2046.5C 127.787,2038.6 131.287,2030.6 134.5,2022.5 Z"/></g>
<g><path style="opacity:1" fill="#151515" d="M 1148.5,2044.5 C 1171.79,2041.35 1187.29,2050.68 1195,2072.5C 1198.02,2095.64 1188.52,2110.8 1166.5,2118C 1143.83,2120.65 1129,2111.15 1122,2089.5C 1119.06,2067.35 1127.9,2052.35 1148.5,2044.5 Z"/></g>
<g><path style="opacity:1" fill="#fcfcfc" d="M 1151.5,2046.5 C 1171.96,2045.14 1185.46,2054.14 1192,2073.5C 1193.52,2102.65 1179.69,2116.48 1150.5,2115C 1129.82,2107.82 1121.32,2093.32 1125,2071.5C 1129.72,2058.74 1138.55,2050.4 1151.5,2046.5 Z"/></g>
<g><path style="opacity:1" fill="#171717" d="M 574.5,2103.5 C 587.104,2100.86 596.27,2105.19 602,2116.5C 604.359,2136.47 595.526,2145.64 575.5,2144C 561.395,2136.68 557.895,2125.85 565,2111.5C 567.775,2108.22 570.942,2105.55 574.5,2103.5 Z"/></g>
<g><path style="opacity:1" fill="#fbfbfb" d="M 577.5,2105.5 C 595.601,2106.09 602.434,2115.09 598,2132.5C 591.32,2141.61 582.82,2143.78 572.5,2139C 564.187,2132.01 562.354,2123.51 567,2113.5C 569.975,2109.95 573.475,2107.29 577.5,2105.5 Z"/></g>
</svg>
