<?xml version="1.0" encoding="UTF-8"?>
<!DOCTYPE svg PUBLIC "-//W3C//DTD SVG 1.1//EN" "http://www.w3.org/Graphics/SVG/1.1/DTD/svg11.dtd">
<svg xmlns="http://www.w3.org/2000/svg" version="1.1" width="1248px" height="200px" style="shape-rendering:geometricPrecision; text-rendering:geometricPrecision; image-rendering:optimizeQuality; fill-rule:evenodd; clip-rule:evenodd" xmlns:xlink="http://www.w3.org/1999/xlink">
<g><path style="opacity:0.95" fill="#000000" d="M 173.5,2.5 C 176.187,2.33591 178.854,2.50258 181.5,3C 197.275,18.9629 205.275,38.2962 205.5,61C 204.675,80.8091 198.842,98.9758 188,115.5C 173.374,133.129 158.374,150.462 143,167.5C 138.46,174.041 134.793,181.041 132,188.5C 124.036,195.525 114.869,197.692 104.5,195C 101.422,193.589 99.4221,191.256 98.5,188C 99.1094,184.539 99.4428,181.039 99.5,177.5C 98.4755,159.491 97.3089,141.491 96,123.5C 95.4255,106.806 95.4255,90.1396 96,73.5C 87.7471,79.2627 78.9138,84.0961 69.5,88C 61.0478,93.4523 59.3812,100.452 64.5,109C 66.3506,109.837 68.1839,110.671 70,111.5C 71.2072,125.618 64.7072,131.452 50.5,129C 27.0471,123.928 20.2137,110.428 30,88.5C 33.2508,84.5783 37.0841,81.4117 41.5,79C 55.9146,73.1951 70.2479,67.1951 84.5,61C 90.0906,57.4137 95.0906,53.0804 99.5,48C 108.28,42.6031 117.613,41.2698 127.5,44C 129.39,45.0781 130.39,46.7448 130.5,49C 126.709,79.6234 126.875,110.123 131,140.5C 141.667,125.833 152.333,111.167 163,96.5C 177.422,69.6388 175.255,44.3055 156.5,20.5C 159.457,11.8784 165.123,5.87839 173.5,2.5 Z"/></g>
<g><path style="opacity:0.951" fill="#000000" d="M 635.5,5.5 C 655.39,2.41135 666.056,10.7447 667.5,30.5C 666.839,39.6384 665.339,48.6384 663,57.5C 656.389,79.6675 650.389,102.001 645,124.5C 643.887,131.715 644.554,138.715 647,145.5C 655.808,154.068 655.308,162.568 645.5,171C 632.403,179.187 621.57,176.687 613,163.5C 611.063,159.354 609.729,155.021 609,150.5C 608.076,138.08 608.743,125.746 611,113.5C 617.024,86.766 623.858,60.266 631.5,34C 631.203,31.2026 629.703,29.7026 627,29.5C 623.075,30.0465 619.575,31.5465 616.5,34C 607.082,42.4117 599.582,52.245 594,63.5C 589.268,76.3634 584.934,89.3634 581,102.5C 576.214,121.151 571.047,139.651 565.5,158C 563.043,159.562 560.376,160.562 557.5,161C 550.833,161.667 544.167,161.667 537.5,161C 533.261,160.426 530.594,158.092 529.5,154C 539.256,118.478 549.089,82.9779 559,47.5C 560.29,42.89 560.624,38.2233 560,33.5C 556.562,31.0268 553.062,31.1935 549.5,34C 531.24,53.2948 518.406,75.7948 511,101.5C 505.844,120.457 500.844,139.457 496,158.5C 490.618,162.18 484.618,163.847 478,163.5C 471.068,164.105 465.068,162.105 460,157.5C 468.745,119.525 478.912,81.8587 490.5,44.5C 490.333,44.1667 490.167,43.8333 490,43.5C 482.491,48.2277 474.324,51.3944 465.5,53C 455.442,56.041 451.942,62.541 455,72.5C 456.828,74.0814 458.828,75.4147 461,76.5C 462.22,81.9072 461.053,86.7405 457.5,91C 444.307,94.9337 432.807,92.1004 423,82.5C 413.246,60.8357 419.746,46.3357 442.5,39C 455.358,35.9525 468.025,32.2858 480.5,28C 489.25,24.6239 496.584,19.2906 502.5,12C 509.65,9.5941 516.983,8.92744 524.5,10C 528.5,10.3275 531.5,12.1609 533.5,15.5C 531.127,21.4426 529.294,27.4426 528,33.5C 539.8,18.1842 555.3,9.51758 574.5,7.5C 589.651,7.48211 597.484,15.1488 598,30.5C 608.219,18.4926 620.719,10.1592 635.5,5.5 Z"/></g>
<g><path style="opacity:0.948" fill="#000000" d="M 762.5,10.5 C 770.84,10.3336 779.173,10.5003 787.5,11C 815.217,17.0449 828.884,34.3783 828.5,63C 828.052,76.5226 825.719,89.6892 821.5,102.5C 826.588,102.249 831.588,101.416 836.5,100C 841.774,97.8561 847.108,96.0227 852.5,94.5C 853.429,99.7654 852.096,104.265 848.5,108C 838.045,114.262 826.712,117.929 814.5,119C 793.452,157.36 761.785,170.36 719.5,158C 703.797,150.111 696.13,137.278 696.5,119.5C 695.714,106.755 699.714,95.9215 708.5,87C 719.215,86.1994 726.882,90.6994 731.5,100.5C 724.453,112.834 724.953,124.834 733,136.5C 747.199,144.704 759.865,142.704 771,130.5C 773.866,125.647 776.699,120.813 779.5,116C 757.526,111.11 740.026,99.6096 727,81.5C 716.159,61.0669 717.993,41.9002 732.5,24C 741.485,17.003 751.485,12.503 762.5,10.5 Z M 771.5,31.5 C 783.528,31.3571 790.028,37.3571 791,49.5C 791.966,65.1065 790.299,80.4399 786,95.5C 785.439,96.0219 784.772,96.3552 784,96.5C 761.769,86.0388 752.769,68.7055 757,44.5C 759.549,37.4428 764.382,33.1095 771.5,31.5 Z"/></g>
<g><path style="opacity:0.953" fill="#000000" d="M 358.5,15.5 C 372.614,13.6373 382.78,18.9707 389,31.5C 390.843,38.8826 391.676,46.3826 391.5,54C 391.024,69.6387 389.357,85.1387 386.5,100.5C 397.313,99.3403 407.313,96.007 416.5,90.5C 421.914,91.652 424.081,94.9853 423,100.5C 412.29,110.521 399.623,116.521 385,118.5C 382.562,133.106 380.562,147.773 379,162.5C 367.472,170.233 355.306,171.4 342.5,166C 342.596,151.227 344.262,136.561 347.5,122C 340.174,121.5 332.841,121.334 325.5,121.5C 322.02,135.792 315.854,148.792 307,160.5C 291.77,175.189 273.603,180.689 252.5,177C 232.575,171.639 225.075,158.806 230,138.5C 234.325,125.675 242.492,116.175 254.5,110C 267.498,103.9 281.164,100.4 295.5,99.5C 300.422,87.2398 305.255,74.9065 310,62.5C 316.06,48.8675 324.227,36.7008 334.5,26C 341.752,20.5349 349.752,17.0349 358.5,15.5 Z M 355.5,40.5 C 357.844,40.979 359.178,42.479 359.5,45C 356.987,63.9116 353.987,82.7449 350.5,101.5C 344.5,101.5 338.5,101.5 332.5,101.5C 336.507,81.6468 343.007,62.6468 352,44.5C 353.376,43.2949 354.542,41.9616 355.5,40.5 Z M 286.5,122.5 C 287.5,122.5 288.5,122.5 289.5,122.5C 287.473,134.766 282.473,145.599 274.5,155C 270.454,157.364 267.287,156.53 265,152.5C 262.958,143.759 265.125,136.259 271.5,130C 276.152,126.628 281.152,124.128 286.5,122.5 Z"/></g>
<g><path style="opacity:0.949" fill="#000000" d="M 919.5,19.5 C 936.295,17.5185 951.961,20.6851 966.5,29C 977.053,38.3688 980.219,49.8688 976,63.5C 972.659,66.6963 968.659,68.3629 964,68.5C 957.525,68.1197 951.858,65.7864 947,61.5C 946.408,58.3056 946.574,55.1389 947.5,52C 946.107,42.6273 940.773,39.294 931.5,42C 925.516,45.7956 922.516,51.2956 922.5,58.5C 923.326,65.487 925.826,71.8203 930,77.5C 939.636,88.1133 948.303,99.4467 956,111.5C 962.307,127.025 960.64,141.692 951,155.5C 942.322,164.256 931.822,169.422 919.5,171C 903.586,173.135 888.253,171.135 873.5,165C 856.212,154.076 850.045,138.576 855,118.5C 857.125,103.011 865.625,98.1775 880.5,104C 885.002,105.069 888.002,107.735 889.5,112C 885.837,121.452 885.67,130.952 889,140.5C 896.014,151.211 905.181,153.378 916.5,147C 920.968,142.432 922.968,136.932 922.5,130.5C 922.7,125.964 921.867,121.631 920,117.5C 912.1,105.597 903.433,94.2641 894,83.5C 883.075,67.3038 882.742,50.9705 893,34.5C 900.218,26.4789 909.051,21.4789 919.5,19.5 Z"/></g>
<g><path style="opacity:0.94" fill="#000000" d="M 1035.5,29.5 C 1045.33,29.1617 1054.16,31.8283 1062,37.5C 1062.67,39.1667 1062.67,40.8333 1062,42.5C 1047.65,72.5308 1033.32,102.531 1019,132.5C 1015.88,135.708 1012.05,137.041 1007.5,136.5C 1001.2,136.567 995.699,134.567 991,130.5C 1002.43,97.2213 1015.26,64.3879 1029.5,32C 1031.61,31.1553 1033.61,30.322 1035.5,29.5 Z"/></g>
<g><path style="opacity:0.941" fill="#000000" d="M 1119.5,40.5 C 1130.08,39.2292 1139.75,41.5625 1148.5,47.5C 1150.12,48.8689 1150.62,50.5355 1150,52.5C 1134.78,81.9487 1119.78,111.615 1105,141.5C 1103.36,143.81 1101.2,145.31 1098.5,146C 1090.48,147.371 1083.32,145.537 1077,140.5C 1076.52,138.087 1076.85,135.754 1078,133.5C 1090.28,103.337 1102.94,73.3369 1116,43.5C 1117.15,42.3636 1118.31,41.3636 1119.5,40.5 Z"/></g>
<g><path style="opacity:0.942" fill="#000000" d="M 1208.5,52.5 C 1218.62,52.04 1227.78,54.7066 1236,60.5C 1237.19,62.0444 1237.52,63.7111 1237,65.5C 1221.84,95.151 1206.18,124.484 1190,153.5C 1187.36,156.876 1183.86,158.542 1179.5,158.5C 1172.79,158.212 1166.96,155.879 1162,151.5C 1174.29,118.909 1188.29,86.9094 1204,55.5C 1205.41,54.2189 1206.91,53.2189 1208.5,52.5 Z"/></g>
<g><path style="opacity:0.906" fill="#000000" d="M 989.5,148.5 C 1001.1,146.781 1007.76,151.614 1009.5,163C 1006.42,177.758 997.751,182.758 983.5,178C 972.879,165.68 974.879,155.846 989.5,148.5 Z"/></g>
<g><path style="opacity:0.909" fill="#000000" d="M 1076.5,157.5 C 1093.46,159.754 1097.96,168.421 1090,183.5C 1083.35,189.98 1075.85,191.147 1067.5,187C 1059.26,178.038 1059.59,169.372 1068.5,161C 1071.16,159.522 1073.82,158.355 1076.5,157.5 Z"/></g>
<g><path style="opacity:0.923" fill="#000000" d="M 1168.5,199.5 C 1163.5,199.5 1158.5,199.5 1153.5,199.5C 1142.84,190.504 1142.84,181.337 1153.5,172C 1164.14,166.883 1172.31,169.383 1178,179.5C 1179.35,188.454 1176.19,195.121 1168.5,199.5 Z"/></g>
</svg>
